<svg width="98" height="98" viewBox="0 0 98 98" fill="none" xmlns="http://www.w3.org/2000/svg">
<rect x="0.5" y="0.5" width="97" height="97" rx="5.5" fill="#F9F9FB"/>
<path d="M57.5464 43.925V41.4167H55.038V39.6667H57.5464V37.1292H59.2964V39.6667H61.8339V41.4167H59.2964V43.925H57.5464ZM37.7422 60.6667C37.2755 60.6667 36.8672 60.4916 36.5172 60.1416C36.1672 59.7917 35.9922 59.3833 35.9922 58.9167V43.9542C35.9922 43.5069 36.1672 43.1035 36.5172 42.7437C36.8672 42.384 37.2755 42.2042 37.7422 42.2042H42.0297L44.1589 39.6667H52.3255V41.4167H44.9755L42.8464 43.9542H37.7422V58.9167H57.5755V46.6667H59.3255V58.9167C59.3255 59.3833 59.1457 59.7917 58.7859 60.1416C58.4262 60.4916 58.0227 60.6667 57.5755 60.6667H37.7422ZM47.6589 56.4083C49.0589 56.4083 50.2352 55.9319 51.188 54.9792C52.1408 54.0264 52.6172 52.8403 52.6172 51.4208C52.6172 50.0208 52.1408 48.8493 51.188 47.9062C50.2352 46.9632 49.0589 46.4917 47.6589 46.4917C46.2394 46.4917 45.0582 46.9632 44.1151 47.9062C43.172 48.8493 42.7005 50.0208 42.7005 51.4208C42.7005 52.8403 43.172 54.0264 44.1151 54.9792C45.0582 55.9319 46.2394 56.4083 47.6589 56.4083ZM47.6589 54.6583C46.7255 54.6583 45.9575 54.3521 45.3547 53.7396C44.7519 53.1271 44.4505 52.3542 44.4505 51.4208C44.4505 50.5069 44.7519 49.7486 45.3547 49.1458C45.9575 48.543 46.7255 48.2417 47.6589 48.2417C48.5727 48.2417 49.3359 48.543 49.9484 49.1458C50.5609 49.7486 50.8672 50.5069 50.8672 51.4208C50.8672 52.3542 50.5609 53.1271 49.9484 53.7396C49.3359 54.3521 48.5727 54.6583 47.6589 54.6583Z" fill="#71748C"/>
<rect x="0.5" y="0.5" width="97" height="97" rx="5.5" stroke="#D5D5DD" stroke-dasharray="8 8"/>
</svg>
