<svg width="18" height="20" viewBox="0 0 18 20" fill="none" xmlns="http://www.w3.org/2000/svg">
<path d="M9.66732 9.1665H4.66732M6.33398 12.4998H4.66732M11.334 5.83317H4.66732M14.6673 8.74984V5.6665C14.6673 4.26637 14.6673 3.56631 14.3948 3.03153C14.1552 2.56112 13.7727 2.17867 13.3023 1.93899C12.7675 1.6665 12.0674 1.6665 10.6673 1.6665H5.33398C3.93385 1.6665 3.23379 1.6665 2.69901 1.93899C2.2286 2.17867 1.84615 2.56112 1.60647 3.03153C1.33398 3.56631 1.33398 4.26637 1.33398 5.6665V14.3332C1.33398 15.7333 1.33398 16.4334 1.60647 16.9681C1.84615 17.4386 2.2286 17.821 2.69901 18.0607C3.23379 18.3332 3.93385 18.3332 5.33398 18.3332H7.58398M16.334 18.3332L15.084 17.0832M15.9173 14.9998C15.9173 16.6107 14.6115 17.9165 13.0007 17.9165C11.3898 17.9165 10.084 16.6107 10.084 14.9998C10.084 13.389 11.3898 12.0832 13.0007 12.0832C14.6115 12.0832 15.9173 13.389 15.9173 14.9998Z" stroke="#71748C" stroke-width="1.4" stroke-linecap="round" stroke-linejoin="round"/>
</svg>
