<svg width="137" height="32" viewBox="0 0 137 32" fill="none" xmlns="http://www.w3.org/2000/svg">
<path d="M18.6788 17.4755C18.6682 17.4875 18.6577 17.4996 18.6486 17.5101C18.6366 17.5026 18.626 17.4951 18.614 17.4875C18.3654 17.3293 18.1108 17.1651 17.8667 17.0084C17.3755 16.6905 16.8663 16.3621 16.3525 16.0532C16.3164 16.0321 16.2817 16.0095 16.2456 15.9884C16.0708 15.883 15.896 15.776 15.7212 15.6705C15.5465 15.5651 15.3717 15.4596 15.1969 15.3526C14.8805 15.1613 14.5657 14.9699 14.2493 14.7786C11.1968 12.933 8.04343 11.0226 4.91867 9.17542C3.6305 8.41457 2.24741 8.3995 1.02703 9.13625C0.636812 9.37128 0.299326 9.64549 0.0130648 9.95586C0.0115582 9.63494 0.0100516 9.31554 0.00854492 9.00065C0.0145715 8.47032 0.0236113 7.93998 0.037171 7.41266C0.0642904 6.33692 0.615719 5.42088 1.58901 4.8333C2.69337 4.16736 3.70734 4.48978 4.36272 4.87699C7.48146 6.7196 10.6318 8.62701 13.6798 10.4726C14.3819 10.8975 15.0839 11.3224 15.786 11.7472C16.2847 12.0486 16.7879 12.3725 17.2731 12.6859C17.5202 12.8456 17.7748 13.0098 18.0279 13.1695C18.1319 13.2343 18.2298 13.3066 18.3217 13.385C18.4618 13.5025 18.5899 13.632 18.7044 13.7737C18.8204 13.9153 18.9213 14.069 19.0087 14.2302C19.1639 14.521 19.2709 14.8404 19.3221 15.1779C19.4487 16.011 19.2136 16.8487 18.6788 17.4755Z" fill="#5466F9"/>
<path d="M0.0354422 22.1384C0.0354422 22.1264 0.0354422 22.1128 0.0354422 22.1007V22.1384C0.0354422 22.4654 0.0354422 22.7923 0.0354422 23.1192V24.0202C0.0339355 23.9795 0.0339355 23.9373 0.0339355 23.8967C0.0354422 23.3121 0.0354422 22.7245 0.0354422 22.1384Z" fill="#5466F9"/>
<path d="M0.0375294 19.574C0.0375294 20.1329 0.0375294 20.6949 0.0375294 21.2584C0.0375294 21.4934 0.0375294 21.73 0.0375294 21.965V20.3559H0.0164365C0.0149298 19.7322 0.0119166 19.1054 0.0089033 18.4952C0.00137012 17.0202 -0.00616306 15.5075 0.0119166 14.0024C0.0179431 13.576 0.0254763 13.1512 0.0360227 12.7278C0.0360227 12.9628 0.0360227 13.1979 0.0360227 13.4329C0.0360227 14.6081 0.0360227 15.8059 0.0360227 17.0067V17.8835C0.0375294 18.4425 0.0375294 19.0075 0.0375294 19.574Z" fill="#5466F9"/>
<path d="M0.0147386 9.9558C0.0117254 9.96032 0.00720545 9.96484 0.00268555 9.96786C0.00419218 9.64544 0.00720545 9.32302 0.0102187 9.0006C0.0117254 9.31699 0.013232 9.6364 0.0147386 9.9558Z" fill="#5466F9"/>
<path d="M0.0373202 17.8834V17.0066C0.0373202 16.5591 0.0373202 16.1131 0.0373202 15.6657V15.1218H0.0162273C0.0147206 14.7481 0.0147206 14.3745 0.0117074 14.0038C-0.00637225 15.509 -0.000345709 17.0216 0.00869411 18.4966C0.0117074 19.1068 0.0147206 19.7336 0.0162273 20.3573H0.0358136V21.9664C0.0358136 21.7314 0.0358136 21.4948 0.0358136 21.2598C0.0358136 20.6963 0.0358136 20.1343 0.0358136 19.5754C0.0373202 19.0074 0.0373202 18.4424 0.0373202 17.8834Z" fill="#5466F9"/>
<path d="M0.0375294 17.8838C0.0375294 18.4428 0.0375294 19.0062 0.0375294 19.5742C0.0375294 20.1332 0.0375294 20.6952 0.0375294 21.2587C0.0375294 21.2587 0.0375294 21.2587 0.0375294 21.2572V20.3562H0.0164365C0.0149298 19.7324 0.0119166 19.1057 0.0089033 18.4955C0.00137012 17.0205 -0.00616306 15.5078 0.0119166 14.0027C0.0179431 13.5763 0.0254763 13.1515 0.0360227 12.7281C0.0360227 12.9631 0.0360227 13.1982 0.0360227 13.4332C0.0360227 14.6084 0.0360227 15.8061 0.0360227 17.0069V17.8838H0.0375294Z" fill="#5466F9"/>
<path d="M0.0147386 9.95608C0.0117254 9.9606 0.00720545 9.96512 0.00268555 9.96814C0.00419218 9.64572 0.00720545 9.3233 0.0102187 9.00088C0.0117254 9.31727 0.013232 9.63668 0.0147386 9.95608Z" fill="#5466F9"/>
<path d="M19.0098 12.5415C18.8847 12.4376 18.7522 12.3411 18.612 12.2522C18.3634 12.094 18.1088 11.9298 17.8647 11.7716C17.3736 11.4537 16.8643 11.1253 16.3506 10.8164C15.6485 10.3915 14.9464 9.96667 14.2458 9.5418C11.1964 7.69617 8.04148 5.78726 4.91822 3.94163C3.63005 3.17928 2.24696 3.16572 1.02658 3.90246C0.634859 4.139 0.292853 4.41622 0.0065918 4.7281C0.0126183 4.139 0.0216582 3.54991 0.0367245 2.96383C0.063844 1.88809 0.615273 0.972055 1.58856 0.384467C2.69292 -0.281466 3.70689 0.0409538 4.36228 0.428159C7.47951 2.27077 10.6299 4.17818 13.6778 6.0238C14.3799 6.44868 15.082 6.87355 15.7856 7.29842C16.2843 7.59975 16.7875 7.92367 17.2726 8.23705C17.5197 8.39676 17.7743 8.56098 18.0275 8.72068C18.725 9.16363 19.1966 9.89435 19.3217 10.729C19.4181 11.3633 19.3051 11.9976 19.0098 12.5415Z" fill="#5466F9"/>
<path d="M0.0343069 19.4463C0.0358136 18.7246 0.0358136 17.9999 0.0358136 17.2752V17.007C0.0358136 15.8063 0.0358136 14.6085 0.0358136 13.4333C0.0358136 13.1983 0.0358136 12.9632 0.0358136 12.7282C0.0252671 13.1516 0.0177339 13.5764 0.0117074 14.0028C-0.00637225 15.5079 -0.000345709 17.0206 0.00869411 18.4956C0.0117074 19.1058 0.0147207 19.7326 0.0162273 20.3563H0.0358136V21.9654C0.0358136 21.7304 0.0358136 21.4938 0.0358136 21.2588C0.0358136 20.6953 0.0358136 20.1333 0.0358136 19.5744C0.0358136 19.5322 0.0343069 19.49 0.0343069 19.4463ZM0.0358136 22.1387V22.101C0.0358136 22.113 0.0358136 22.1251 0.0358136 22.1387ZM0.0102007 9.00229C0.00718747 9.32471 0.0041742 9.64713 0.00266756 9.96955C0.00718747 9.96503 0.0102007 9.96202 0.0147207 9.9575C0.013214 9.63659 0.0117074 9.31718 0.0102007 9.00229Z" fill="#5466F9"/>
<path d="M0.0377667 17.8834V17.0065C0.0377667 15.8057 0.0377667 14.608 0.0377667 13.4328C0.0377667 13.1978 0.0377667 12.9627 0.0377667 12.7277C0.0272202 13.1511 0.019687 13.5759 0.0136605 14.0023C-0.00441913 15.5074 0.00160742 17.0201 0.0106472 18.4951C0.0136605 19.1053 0.0166738 19.732 0.0181804 20.3558H0.0377667V21.9649C0.0377667 21.7298 0.0377667 21.4933 0.0377667 21.2583C0.0377667 20.6948 0.0377667 20.1328 0.0377667 19.5738C0.0377667 19.0073 0.0377667 18.4424 0.0377667 17.8834ZM0.03626 22.1381C0.03626 22.7257 0.0347534 23.3118 0.0347534 23.8964C0.0347534 23.9371 0.03626 23.9792 0.03626 24.0199V23.119C0.0377667 22.792 0.03626 22.4651 0.03626 22.1381V22.1005C0.03626 22.1125 0.03626 22.1246 0.03626 22.1381Z" fill="#5466F9"/>
<path d="M0.0354422 22.1384C0.0354422 22.726 0.0339355 23.3121 0.0339355 23.8966C0.0339355 23.9373 0.0354422 23.9795 0.0354422 24.0202V23.1192C0.0369488 22.7923 0.0354422 22.4653 0.0354422 22.1384V22.1007C0.0354422 22.1128 0.0354422 22.1248 0.0354422 22.1384Z" fill="#5466F9"/>
<path d="M18.6793 22.7107C18.4578 22.9714 18.2107 23.1883 17.9667 23.3375C12.7688 26.53 8.50348 29.138 4.54103 31.5456C3.13835 32.3984 1.40572 32.0202 0.507762 30.6673C0.188356 30.1851 0.0331722 29.6834 0.0346788 29.1305C0.0361855 28.2868 0.0361855 27.4355 0.0361855 26.5873C0.0361855 26.2935 0.0361855 26.0012 0.0361855 25.7089C0.0361855 25.1439 0.0361855 24.5789 0.0361855 24.02V23.119C0.0361855 22.7921 0.0361855 22.4651 0.0361855 22.1382V22.0809C0.0361855 22.0433 0.0361855 22.0041 0.0361855 21.9664C0.0361855 21.7314 0.0361855 21.4949 0.0361855 21.2598C0.0361855 20.6963 0.0361855 20.1344 0.0361855 19.5754C0.0361855 19.0074 0.0361855 18.4439 0.0361855 17.885V17.0081C0.0361855 15.8073 0.0361855 14.6095 0.0361855 13.4344C0.0361855 13.1993 0.0361855 12.9643 0.0361855 12.7293C0.0361855 12.7021 0.0376921 12.675 0.0376921 12.6494C0.0648116 11.5737 0.61624 10.6576 1.58953 10.07C2.69389 9.40411 3.70786 9.72653 4.36324 10.1137C7.48198 11.9579 10.6339 13.8653 13.6833 15.7109C13.8385 15.8043 13.9937 15.8992 14.1504 15.9926C14.3251 16.0981 14.4999 16.2051 14.6747 16.3105C14.8494 16.416 15.0242 16.523 15.199 16.6284C15.3948 16.7475 15.5907 16.865 15.7866 16.984C16.2853 17.2853 16.7885 17.6108 17.2736 17.9226C17.4303 18.0251 17.5915 18.1275 17.7527 18.2315C17.8446 18.2902 17.935 18.349 18.0269 18.4063C18.1038 18.456 18.1791 18.5072 18.2499 18.5645C18.3976 18.679 18.5332 18.81 18.6552 18.9502C19.0047 19.3569 19.2383 19.8632 19.3211 20.4131C19.4492 21.2463 19.2142 22.0825 18.6793 22.7107Z" fill="#5466F9"/>
<path d="M61.3362 24.5733C62.1573 24.9755 62.9528 25.3658 63.7936 25.7786C63.2753 26.9779 62.5385 27.9391 61.5637 28.709C59.8371 30.074 57.868 30.7204 55.6577 30.7399C53.5047 30.7595 51.5521 30.2066 49.8029 28.9591C47.8744 27.582 46.6074 25.7454 45.9038 23.4795C45.5617 22.3796 45.4231 21.2527 45.4322 20.1377C45.4518 17.6232 46.2066 15.318 47.8006 13.3262C49.2816 11.4746 51.1333 10.1909 53.5032 9.80372C57.0242 9.22668 60.0571 10.1503 62.3863 12.939C63.2421 13.9651 63.7529 15.196 64.0979 16.4811C64.4535 17.807 64.6056 19.1629 64.5484 20.5385C64.5408 20.7208 64.5017 20.9016 64.47 21.1397C64.2109 21.1653 63.9834 21.2059 63.7559 21.2059C60.9204 21.2105 58.0864 21.2135 55.2509 21.2029C54.924 21.2014 54.5895 21.1532 54.2731 21.0749C53.1853 20.8067 52.5782 19.7671 52.8448 18.5452C54.2565 18.503 55.6909 18.5332 57.1252 18.5271C58.561 18.5211 59.9968 18.5256 61.4733 18.5256C61.517 17.9817 61.3769 17.5343 61.2534 17.0943C60.836 15.5982 60.0631 14.3387 58.7825 13.4091C58.1361 12.9405 57.4175 12.6573 56.6521 12.5006C54.7522 12.1104 52.9729 12.4268 51.4361 13.6321C49.5935 15.077 48.572 16.9874 48.5178 19.3513C48.4906 20.5265 48.4741 21.7016 48.7875 22.8617C49.5332 25.6279 52.1548 28.019 55.382 28.0054C56.7636 27.9994 58.0487 27.7463 59.2179 26.9839C59.7814 26.6163 60.253 26.1688 60.6356 25.6204C60.8586 25.2904 61.0771 24.959 61.3362 24.5733Z" fill="#41415A"/>
<path d="M115.853 20.5658C115.761 18.7608 116.129 17.0447 116.977 15.4522C118.404 12.7734 120.575 10.97 123.548 10.2769C127.62 9.32625 131.126 10.408 133.895 13.5494C135.262 15.0982 136.045 16.9604 136.306 19.0365C136.683 22.0408 135.97 24.7572 134.145 27.1482C132.601 29.1717 130.558 30.4267 128.01 30.8802C125.616 31.3051 123.355 31.0067 121.232 29.8451C118.372 28.2797 116.625 25.8736 115.986 22.6735C115.935 22.4204 115.871 22.1658 115.859 21.9082C115.838 21.4622 115.853 21.0132 115.853 20.5658ZM133.296 20.5868C133.308 19.0621 132.945 17.6293 132.169 16.3321C130.67 13.8251 128.511 12.4932 125.502 12.6996C123.188 12.8593 121.398 13.923 120.183 15.847C118.511 18.4941 118.401 21.31 119.682 24.1425C120.554 26.074 121.991 27.4541 124.075 28.0598C124.961 28.3174 125.866 28.3746 126.795 28.3008C127.908 28.2134 128.928 27.8895 129.832 27.2628C132.16 25.6507 133.229 23.3741 133.296 20.5868Z" fill="#41415A"/>
<path d="M70.0824 30.6571C70.0824 23.8968 70.0824 17.1621 70.0824 10.4335C70.6007 10.2693 72.0742 10.2452 72.8576 10.3928C73.0113 10.9262 72.9134 11.4912 72.9299 12.0471C72.9465 12.6031 72.933 13.159 72.933 13.8671C73.1981 13.5236 73.3744 13.3112 73.5311 13.0867C74.649 11.4851 76.1632 10.4199 78.0796 10.0975C80.1904 9.74196 82.2651 9.90016 84.1273 11.1552C85.4621 12.0531 86.2697 13.3353 86.785 14.8073C87.136 15.8107 87.2641 16.8608 87.258 17.9366C87.2354 21.9231 87.249 25.9097 87.249 29.8962C87.249 30.1283 87.249 30.3603 87.249 30.5938C86.7021 30.8409 86.2652 30.645 85.8629 30.416C84.6938 29.7516 84.2644 28.6683 84.2553 27.3877C84.2418 25.524 84.2523 23.6603 84.2508 21.7966C84.2493 20.5928 84.2523 19.3905 84.2418 18.1867C84.2327 17.2058 84.0127 16.2777 83.5502 15.4039C82.7351 13.8626 81.465 13.0475 79.7354 12.8426C78.8977 12.7432 78.0826 12.7537 77.2901 12.9918C75.0166 13.6788 73.7345 15.2924 73.2057 17.5433C73.0836 18.0646 73.055 18.616 73.052 19.1554C73.0369 21.9397 73.0369 24.7224 73.049 27.5067C73.0535 28.6246 72.6376 29.5256 71.7608 30.2081C71.2862 30.5772 70.7544 30.7972 70.0824 30.6571Z" fill="#41415A"/>
<path d="M109.415 23.4616C110.311 23.7689 111.155 24.0567 112.071 24.3716C112.017 24.6443 112.011 24.8778 111.923 25.0767C110.617 28.0538 108.395 30.023 105.237 30.7823C102.585 31.4211 99.9818 31.1198 97.5847 29.7292C94.8095 28.1186 93.2878 25.6372 92.7379 22.529C92.3778 20.492 92.5254 18.4761 93.2923 16.5537C94.5775 13.334 96.8705 11.1644 100.263 10.2785C103.043 9.55232 105.692 9.95761 108.157 11.4296C110.084 12.5807 111.556 14.5227 111.985 16.4844C111.807 16.5461 111.624 16.6501 111.431 16.6712C110.317 16.7902 109.326 16.5265 108.526 15.6964C108.005 15.1555 107.521 14.5634 106.935 14.1024C103.777 11.6134 98.7192 12.427 96.634 16.3909C96.0283 17.542 95.6502 18.7624 95.6381 20.0385C95.6095 22.9358 96.4788 25.4714 98.9663 27.2221C99.8883 27.8715 100.92 28.2316 102.065 28.2979C103.084 28.3566 104.077 28.3039 105.065 28.0282C106.344 27.6726 107.247 26.8274 107.991 25.8059C108.46 25.1641 108.809 24.4364 109.213 23.7478C109.261 23.6695 109.32 23.5972 109.415 23.4616Z" fill="#41415A"/>
<path d="M27.113 0.898232C28.9767 1.03835 30.1233 2.29338 30.2061 4.23694C30.2152 4.44937 30.2092 4.66181 30.2092 4.87274C30.2092 12.1573 30.2092 19.4434 30.2092 26.728C30.2092 27.0082 30.2092 27.29 30.2092 27.6651C30.5271 27.6787 30.7982 27.6998 31.0694 27.6998C35.0605 27.7013 39.0516 27.7013 43.0427 27.7013C43.3184 27.7013 43.5941 27.7013 43.9527 27.7013C43.9753 28.7484 43.9753 29.6961 43.9527 30.6844C38.2636 30.6844 32.6785 30.6844 27.104 30.6844C26.9126 30.0562 26.9202 1.49034 27.113 0.898232Z" fill="#41415A"/>
</svg>
