<svg  viewBox="0 0 178 54" fill="none" xmlns="http://www.w3.org/2000/svg">
<rect x="0.5" y="0.5" width="176.5" height="53" rx="8.5" fill="white"/>
<path d="M89.5767 29.2793C86.5191 29.2793 84.027 31.605 84.027 34.8082C84.027 37.9919 86.5191 40.3371 89.5767 40.3371C92.6356 40.3371 95.1277 37.9919 95.1277 34.8082C95.1264 31.605 92.6343 29.2793 89.5767 29.2793ZM89.5767 38.1609C87.901 38.1609 86.4567 36.779 86.4567 34.8095C86.4567 32.8192 87.9023 31.4581 89.5767 31.4581C91.2524 31.4581 92.6967 32.8192 92.6967 34.8095C92.6967 36.7777 91.2524 38.1609 89.5767 38.1609ZM77.4685 29.2793C74.4109 29.2793 71.9188 31.605 71.9188 34.8082C71.9188 37.9919 74.4109 40.3371 77.4685 40.3371C80.5274 40.3371 83.0195 37.9919 83.0195 34.8082C83.0195 31.605 80.5274 29.2793 77.4685 29.2793ZM77.4685 38.1609C75.7928 38.1609 74.3485 36.779 74.3485 34.8095C74.3485 32.8192 75.7941 31.4581 77.4685 31.4581C79.1442 31.4581 80.5885 32.8192 80.5885 34.8095C80.5898 36.7777 79.1442 38.1609 77.4685 38.1609ZM63.0671 30.9771V33.3223H68.6805C68.5128 34.6418 68.0734 35.6051 67.4026 36.2746C66.5862 37.091 65.3083 37.9919 63.0671 37.9919C59.6117 37.9919 56.9103 35.206 56.9103 31.7506C56.9103 28.2952 59.6117 25.5093 63.0671 25.5093C64.9313 25.5093 66.2924 26.2425 67.2973 27.185L68.9522 25.5301C67.5482 24.1898 65.6853 23.1641 63.0671 23.1641C58.3338 23.1641 54.3545 27.0173 54.3545 31.7506C54.3545 36.4839 58.3338 40.3371 63.0671 40.3371C65.6216 40.3371 67.5495 39.4986 69.0562 37.9282C70.6058 36.3786 71.0881 34.1998 71.0881 32.4409C71.0881 31.8975 71.0465 31.3944 70.962 30.9758H63.0671V30.9771ZM121.967 32.7984C121.507 31.5634 120.103 29.2793 117.234 29.2793C114.386 29.2793 112.019 31.5205 112.019 34.8082C112.019 37.9074 114.365 40.3371 117.506 40.3371C120.04 40.3371 121.506 38.7875 122.114 37.8866L120.229 36.6295C119.601 37.5512 118.742 38.1583 117.506 38.1583C116.271 38.1583 115.391 37.5928 114.825 36.4826L122.218 33.425L121.967 32.7984ZM114.427 34.6418C114.365 32.5046 116.082 31.4165 117.319 31.4165C118.282 31.4165 119.098 31.8988 119.371 32.5891L114.427 34.6418ZM108.418 40.003H110.846V23.7517H108.418V40.003ZM104.437 30.5156H104.354C103.809 29.8656 102.761 29.2793 101.443 29.2793C98.678 29.2793 96.1443 31.709 96.1443 34.8303C96.1443 37.9295 98.678 40.3384 101.443 40.3384C102.763 40.3384 103.809 39.7521 104.354 39.0826H104.437V39.8782C104.437 41.9933 103.306 43.1243 101.485 43.1243C99.9975 43.1243 99.0758 42.057 98.6988 41.1561L96.5837 42.0362C97.1908 43.5013 98.8028 45.3031 101.485 45.3031C104.333 45.3031 106.742 43.6274 106.742 39.5428V29.616H104.438V30.5156H104.437ZM101.652 38.1609C99.9767 38.1609 98.574 36.7569 98.574 34.8303C98.574 32.8816 99.9767 31.4581 101.652 31.4581C103.306 31.4581 104.605 32.8816 104.605 34.8303C104.605 36.7569 103.306 38.1609 101.652 38.1609ZM133.348 23.7517H127.535V40.003H129.96V33.8462H133.346C136.035 33.8462 138.679 31.9001 138.679 28.7996C138.679 25.6991 136.036 23.7517 133.348 23.7517ZM133.41 31.5842H129.96V26.0137H133.41C135.224 26.0137 136.253 27.5152 136.253 28.7996C136.253 30.058 135.224 31.5842 133.41 31.5842ZM148.402 29.2507C146.645 29.2507 144.827 30.0242 144.074 31.7389L146.227 32.6372C146.687 31.7389 147.545 31.4451 148.443 31.4451C149.698 31.4451 150.973 32.1978 150.994 33.5355V33.7032C150.554 33.4523 149.613 33.0766 148.464 33.0766C146.144 33.0766 143.78 34.3519 143.78 36.7348C143.78 38.9097 145.683 40.3098 147.815 40.3098C149.446 40.3098 150.345 39.5779 150.909 38.7199H150.993V39.9744H153.335V33.7435C153.336 30.8601 151.181 29.2507 148.402 29.2507ZM148.108 38.157C147.315 38.157 146.206 37.7592 146.206 36.7764C146.206 35.5219 147.587 35.0409 148.779 35.0409C149.843 35.0409 150.346 35.271 150.994 35.5843C150.805 37.091 149.509 38.157 148.108 38.157ZM161.866 29.6056L159.085 36.6516H159.002L156.116 29.6056H153.503L157.831 39.4531L155.363 44.9313H157.893L164.563 29.6056H161.866ZM140.018 40.003H142.442V23.7517H140.018V40.003Z" fill="#41415A"/>
<path d="M62.6436 14.3132C62.6436 15.4026 62.3212 16.2697 61.6751 16.9171C60.9419 17.6867 59.9851 18.0715 58.8099 18.0715C57.6841 18.0715 56.726 17.6815 55.9395 16.9015C55.1517 16.1202 54.7578 15.153 54.7578 13.9986C54.7578 12.8429 55.1517 11.8757 55.9395 11.0957C56.726 10.3144 57.6841 9.92442 58.8099 9.92442C59.3689 9.92442 59.9032 10.0336 60.4102 10.2507C60.9185 10.4691 61.3254 10.759 61.6296 11.1217L60.9445 11.8081C60.4284 11.1906 59.7173 10.8825 58.8086 10.8825C57.987 10.8825 57.2772 11.1711 56.6779 11.7483C56.0786 12.3255 55.7796 13.0756 55.7796 13.9973C55.7796 14.919 56.0786 15.6691 56.6779 16.2463C57.2772 16.8235 57.987 17.1121 58.8086 17.1121C59.6796 17.1121 60.4063 16.8222 60.9874 16.2411C61.3644 15.8628 61.5828 15.3363 61.6413 14.6616H58.8086V13.7243H62.5877C62.6267 13.9284 62.6436 14.1247 62.6436 14.3132Z" fill="#41415A"/>
<path d="M68.6367 11.0555H65.0851V13.5281H68.2883V14.4654H65.0851V16.938H68.6367V17.8974H64.0828V10.0974H68.6367V11.0555Z" fill="#41415A"/>
<path d="M72.8629 17.8974H71.8606V11.0555H69.6818V10.0974H75.0417V11.0555H72.8629V17.8974Z" fill="#41415A"/>
<path d="M78.9195 17.8974V10.0974H79.9218V17.8974H78.9195Z" fill="#41415A"/>
<path d="M84.3667 17.8974H83.3644V11.0555H81.1856V10.0974H86.5455V11.0555H84.3667V17.8974Z" fill="#41415A"/>
<path d="M96.6918 16.8899C95.9248 17.6777 94.9718 18.0716 93.8317 18.0716C92.6916 18.0716 91.7388 17.6777 90.973 16.8899C90.2061 16.1021 89.8238 15.1375 89.8238 13.9974C89.8238 12.8573 90.2061 11.8927 90.973 11.1049C91.7388 10.3171 92.6916 9.92188 93.8317 9.92188C94.9653 9.92188 95.917 10.3184 96.6866 11.1101C97.4562 11.9018 97.8409 12.8638 97.8409 13.9974C97.8409 15.1375 97.4575 16.1021 96.6918 16.8899ZM91.7127 16.236C92.29 16.821 92.9958 17.1122 93.8317 17.1122C94.6676 17.1122 95.3749 16.8197 95.9507 16.236C96.528 15.651 96.8179 14.9048 96.8179 13.9974C96.8179 13.09 96.528 12.3438 95.9507 11.7588C95.3749 11.1738 94.6676 10.8826 93.8317 10.8826C92.9958 10.8826 92.29 11.1751 91.7127 11.7588C91.1368 12.3438 90.847 13.09 90.847 13.9974C90.847 14.9048 91.1368 15.651 91.7127 16.236Z" fill="#41415A"/>
<path d="M99.2476 17.8974V10.0974H100.467L104.258 16.1645H104.301L104.258 14.6617V10.0974H105.26V17.8974H104.214L100.247 11.5352H100.204L100.247 13.038V17.8974H99.2476Z" fill="#41415A"/>
<path d="M62.6436 14.3132C62.6436 15.4026 62.3212 16.2697 61.6751 16.9171C60.9419 17.6867 59.9851 18.0715 58.8099 18.0715C57.6841 18.0715 56.726 17.6815 55.9395 16.9015C55.1517 16.1202 54.7578 15.153 54.7578 13.9986C54.7578 12.8429 55.1517 11.8757 55.9395 11.0957C56.726 10.3144 57.6841 9.92442 58.8099 9.92442C59.3689 9.92442 59.9032 10.0336 60.4102 10.2507C60.9185 10.4691 61.3254 10.759 61.6296 11.1217L60.9445 11.8081C60.4284 11.1906 59.7173 10.8825 58.8086 10.8825C57.987 10.8825 57.2772 11.1711 56.6779 11.7483C56.0786 12.3255 55.7796 13.0756 55.7796 13.9973C55.7796 14.919 56.0786 15.6691 56.6779 16.2463C57.2772 16.8235 57.987 17.1121 58.8086 17.1121C59.6796 17.1121 60.4063 16.8222 60.9874 16.2411C61.3644 15.8628 61.5828 15.3363 61.6413 14.6616H58.8086V13.7243H62.5877C62.6267 13.9284 62.6436 14.1247 62.6436 14.3132Z" stroke="#41415A" stroke-width="0.2" stroke-miterlimit="10"/>
<path d="M68.6367 11.0555H65.0851V13.5281H68.2883V14.4654H65.0851V16.938H68.6367V17.8974H64.0828V10.0974H68.6367V11.0555Z" stroke="#41415A" stroke-width="0.2" stroke-miterlimit="10"/>
<path d="M72.8629 17.8974H71.8606V11.0555H69.6818V10.0974H75.0417V11.0555H72.8629V17.8974Z" stroke="#41415A" stroke-width="0.2" stroke-miterlimit="10"/>
<path d="M78.9195 17.8974V10.0974H79.9218V17.8974H78.9195Z" stroke="#41415A" stroke-width="0.2" stroke-miterlimit="10"/>
<path d="M84.3667 17.8974H83.3644V11.0555H81.1856V10.0974H86.5455V11.0555H84.3667V17.8974Z" stroke="#41415A" stroke-width="0.2" stroke-miterlimit="10"/>
<path d="M96.6918 16.8899C95.9248 17.6777 94.9718 18.0716 93.8317 18.0716C92.6916 18.0716 91.7388 17.6777 90.973 16.8899C90.2061 16.1021 89.8238 15.1375 89.8238 13.9974C89.8238 12.8573 90.2061 11.8927 90.973 11.1049C91.7388 10.3171 92.6916 9.92188 93.8317 9.92188C94.9653 9.92188 95.917 10.3184 96.6866 11.1101C97.4562 11.9018 97.8409 12.8638 97.8409 13.9974C97.8409 15.1375 97.4575 16.1021 96.6918 16.8899ZM91.7127 16.236C92.29 16.821 92.9958 17.1122 93.8317 17.1122C94.6676 17.1122 95.3749 16.8197 95.9507 16.236C96.528 15.651 96.8179 14.9048 96.8179 13.9974C96.8179 13.09 96.528 12.3438 95.9507 11.7588C95.3749 11.1738 94.6676 10.8826 93.8317 10.8826C92.9958 10.8826 92.29 11.1751 91.7127 11.7588C91.1368 12.3438 90.847 13.09 90.847 13.9974C90.847 14.9048 91.1368 15.651 91.7127 16.236Z" stroke="#41415A" stroke-width="0.2" stroke-miterlimit="10"/>
<path d="M99.2476 17.8974V10.0974H100.467L104.258 16.1645H104.301L104.258 14.6617V10.0974H105.26V17.8974H104.214L100.247 11.5352H100.204L100.247 13.038V17.8974H99.2476Z" stroke="#41415A" stroke-width="0.2" stroke-miterlimit="10"/>
<path fill-rule="evenodd" clip-rule="evenodd" d="M14.2725 11.2116C14.0754 11.583 13.9648 12.0582 13.9648 12.6239V41.3747C13.9648 41.9417 14.0755 42.4168 14.2728 42.788L30.0597 26.9988L14.2725 11.2116ZM14.9644 43.5106C15.56 43.8388 16.3739 43.789 17.2681 43.2818L35.8076 32.7468L30.7668 27.706L14.9644 43.5106ZM36.7103 32.2352L42.6194 28.8778C44.4355 27.8443 44.4355 26.1557 42.6194 25.1234L36.7077 21.7642L31.4739 26.9988L36.7103 32.2352ZM35.8059 21.2518L17.2681 10.7181C16.3739 10.21 15.56 10.1608 14.9644 10.4893L30.7668 26.2917L35.8059 21.2518Z" fill="#41415A"/>
<rect x="0.5" y="0.5" width="176.5" height="53" rx="8.5" stroke="#D5D5DD"/>
</svg>
