<svg  viewBox="0 0 159 54" fill="none" xmlns="http://www.w3.org/2000/svg">
<rect x="1" y="0.5" width="157" height="53" rx="8.5" fill="white"/>
<path d="M107.484 25.9644V28.9427H105.617V30.8959H107.484V37.5324C107.484 39.7985 108.509 40.7049 111.088 40.7049C111.541 40.7049 111.973 40.651 112.35 40.5862V38.6546C112.027 38.687 111.822 38.7086 111.466 38.7086C110.311 38.7086 109.804 38.169 109.804 36.9389V30.8959H112.35V28.9427H109.804V25.9644H107.484Z" fill="#41415A"/>
<path d="M118.92 40.8668C122.352 40.8668 124.456 38.5683 124.456 34.7591C124.456 30.9714 122.341 28.6621 118.92 28.6621C115.489 28.6621 113.374 30.9714 113.374 34.7591C113.374 38.5683 115.478 40.8668 118.92 40.8668ZM118.92 38.8057C116.903 38.8057 115.769 37.3273 115.769 34.7591C115.769 32.2124 116.903 30.7232 118.92 30.7232C120.928 30.7232 122.071 32.2124 122.071 34.7591C122.071 37.3165 120.928 38.8057 118.92 38.8057Z" fill="#41415A"/>
<path d="M126.257 40.6402H128.577V33.7015C128.577 32.0505 129.818 30.939 131.577 30.939C131.987 30.939 132.677 31.0146 132.871 31.0793V28.7916C132.623 28.7269 132.181 28.6945 131.836 28.6945C130.303 28.6945 128.998 29.5362 128.663 30.6909H128.49V28.8888H126.257V40.6402Z" fill="#41415A"/>
<path d="M138.632 30.6369C140.348 30.6369 141.47 31.8347 141.524 33.68H135.589C135.719 31.8455 136.916 30.6369 138.632 30.6369ZM141.513 37.4676C141.082 38.3848 140.121 38.892 138.718 38.892C136.862 38.892 135.665 37.5863 135.589 35.5252V35.3957H143.887V34.5864C143.887 30.8959 141.913 28.6621 138.643 28.6621C135.33 28.6621 133.226 31.047 133.226 34.8022C133.226 38.5575 135.287 40.8668 138.654 40.8668C141.341 40.8668 143.218 39.5719 143.747 37.4676H141.513Z" fill="#41415A"/>
<path d="M92.269 36.3006C92.448 39.1862 94.8527 41.0316 98.4317 41.0316C102.257 41.0316 104.65 39.0967 104.65 36.0098C104.65 33.5827 103.286 32.2406 99.9752 31.4688L98.1968 31.0326C96.0941 30.5405 95.2441 29.8806 95.2441 28.7286C95.2441 27.2746 96.5639 26.3239 98.5436 26.3239C100.423 26.3239 101.72 27.2522 101.955 28.7398H104.393C104.248 26.0219 101.854 24.1094 98.5771 24.1094C95.054 24.1094 92.7052 26.0219 92.7052 28.8964C92.7052 31.2675 94.0362 32.6768 96.9554 33.359L99.0357 33.8623C101.172 34.3656 102.111 35.1038 102.111 36.3341C102.111 37.7657 100.635 38.8059 98.6219 38.8059C96.4632 38.8059 94.9645 37.8328 94.752 36.3006H92.269Z" fill="#41415A"/>
<path d="M68.2355 28.6945C66.6384 28.6945 65.2572 29.4931 64.545 30.8311H64.3723V28.8888H62.1386V44.5465H64.4586V38.8597H64.6421C65.2572 40.1006 66.5845 40.8344 68.2571 40.8344C71.2246 40.8344 73.113 38.4928 73.113 34.7591C73.113 31.0254 71.2246 28.6945 68.2355 28.6945ZM67.5772 38.7517C65.6349 38.7517 64.4155 37.2194 64.4155 34.7699C64.4155 32.3095 65.6349 30.7772 67.588 30.7772C69.552 30.7772 70.7282 32.2771 70.7282 34.7591C70.7282 37.2518 69.552 38.7517 67.5772 38.7517Z" fill="#41415A"/>
<path d="M81.2313 28.6945C79.6343 28.6945 78.253 29.4931 77.5408 30.8311H77.3681V28.8888H75.1344V44.5465H77.4545V38.8597H77.6379C78.253 40.1006 79.5803 40.8344 81.2529 40.8344C84.2204 40.8344 86.1089 38.4928 86.1089 34.7591C86.1089 31.0254 84.2204 28.6945 81.2313 28.6945ZM80.5731 38.7517C78.6307 38.7517 77.4113 37.2194 77.4113 34.7699C77.4113 32.3095 78.6307 30.7772 80.5839 30.7772C82.5478 30.7772 83.724 32.2771 83.724 34.7591C83.724 37.2518 82.5478 38.7517 80.5731 38.7517Z" fill="#41415A"/>
<path d="M57.976 40.6402H60.6379L54.8107 24.5008H52.1152L46.2881 40.6402H48.8605L50.3481 36.3565H56.4996L57.976 40.6402ZM53.3344 27.4312H53.5245L55.8621 34.2538H50.9856L53.3344 27.4312Z" fill="#41415A"/>
<path d="M47.8467 12.3206V20.1063H50.6577C52.9778 20.1063 54.3213 18.6765 54.3213 16.1892C54.3213 13.7396 52.967 12.3206 50.6577 12.3206H47.8467ZM49.0553 13.4213H50.5229C52.1361 13.4213 53.0911 14.4464 53.0911 16.2053C53.0911 17.9913 52.1523 19.0056 50.5229 19.0056H49.0553V13.4213Z" fill="#41415A"/>
<path d="M58.4359 20.2196C60.1517 20.2196 61.2038 19.0704 61.2038 17.1657C61.2038 15.2719 60.1463 14.1173 58.4359 14.1173C56.7201 14.1173 55.6626 15.2719 55.6626 17.1657C55.6626 19.0704 56.7147 20.2196 58.4359 20.2196ZM58.4359 19.1891C57.4269 19.1891 56.8604 18.4499 56.8604 17.1657C56.8604 15.8924 57.4269 15.1478 58.4359 15.1478C59.4395 15.1478 60.0114 15.8924 60.0114 17.1657C60.0114 18.4445 59.4395 19.1891 58.4359 19.1891Z" fill="#41415A"/>
<path d="M70.1636 14.2306H69.0035L67.9568 18.7143H67.8651L66.6565 14.2306H65.545L64.3364 18.7143H64.2501L63.198 14.2306H62.0218L63.6404 20.1063H64.8328L66.0414 15.7791H66.1331L67.3471 20.1063H68.5503L70.1636 14.2306Z" fill="#41415A"/>
<path d="M71.4995 20.1063H72.6595V16.6694C72.6595 15.7521 73.2045 15.1802 74.0624 15.1802C74.9203 15.1802 75.3303 15.6496 75.3303 16.5938V20.1063H76.4904V16.3025C76.4904 14.905 75.7674 14.1173 74.4562 14.1173C73.5714 14.1173 72.9887 14.5112 72.7027 15.164H72.6164V14.2306H71.4995V20.1063Z" fill="#41415A"/>
<path d="M78.3173 20.1063H79.4773V11.9375H78.3173V20.1063Z" fill="#41415A"/>
<path d="M83.8401 20.2196C85.5559 20.2196 86.608 19.0704 86.608 17.1657C86.608 15.2719 85.5505 14.1173 83.8401 14.1173C82.1243 14.1173 81.0668 15.2719 81.0668 17.1657C81.0668 19.0704 82.1189 20.2196 83.8401 20.2196ZM83.8401 19.1891C82.8312 19.1891 82.2646 18.4499 82.2646 17.1657C82.2646 15.8924 82.8312 15.1478 83.8401 15.1478C84.8437 15.1478 85.4156 15.8924 85.4156 17.1657C85.4156 18.4445 84.8437 19.1891 83.8401 19.1891Z" fill="#41415A"/>
<path d="M90.0644 19.2268C89.4331 19.2268 88.9745 18.9193 88.9745 18.3905C88.9745 17.8726 89.3414 17.5974 90.1507 17.5434L91.5859 17.4517V17.9427C91.5859 18.6711 90.9384 19.2268 90.0644 19.2268ZM89.7676 20.2034C90.5392 20.2034 91.1812 19.8689 91.532 19.2808H91.6237V20.1063H92.7405V16.092C92.7405 14.8511 91.9096 14.1173 90.4367 14.1173C89.104 14.1173 88.1544 14.7647 88.0357 15.7737H89.1579C89.2874 15.3583 89.7352 15.1208 90.3827 15.1208C91.1758 15.1208 91.5859 15.4716 91.5859 16.092V16.5992L89.9942 16.6909C88.5968 16.7773 87.8091 17.387 87.8091 18.4445C87.8091 19.5182 88.6346 20.2034 89.7676 20.2034Z" fill="#41415A"/>
<path d="M96.6771 20.2034C97.4864 20.2034 98.1717 19.8203 98.5224 19.1783H98.6141V20.1063H99.7256V11.9375H98.5655V15.164H98.4792C98.1609 14.5166 97.481 14.1335 96.6771 14.1335C95.1933 14.1335 94.2383 15.3097 94.2383 17.1657C94.2383 19.0272 95.1826 20.2034 96.6771 20.2034ZM97.0062 15.1748C97.9774 15.1748 98.5871 15.9464 98.5871 17.1711C98.5871 18.4013 97.9828 19.1621 97.0062 19.1621C96.0243 19.1621 95.4361 18.4121 95.4361 17.1657C95.4361 15.9302 96.0296 15.1748 97.0062 15.1748Z" fill="#41415A"/>
<path d="M107.248 20.2196C108.964 20.2196 110.016 19.0704 110.016 17.1657C110.016 15.2719 108.958 14.1173 107.248 14.1173C105.532 14.1173 104.475 15.2719 104.475 17.1657C104.475 19.0704 105.527 20.2196 107.248 20.2196ZM107.248 19.1891C106.239 19.1891 105.673 18.4499 105.673 17.1657C105.673 15.8924 106.239 15.1478 107.248 15.1478C108.252 15.1478 108.823 15.8924 108.823 17.1657C108.823 18.4445 108.252 19.1891 107.248 19.1891Z" fill="#41415A"/>
<path d="M111.551 20.1063H112.711V16.6694C112.711 15.7521 113.256 15.1802 114.114 15.1802C114.972 15.1802 115.382 15.6496 115.382 16.5938V20.1063H116.542V16.3025C116.542 14.905 115.819 14.1173 114.508 14.1173C113.623 14.1173 113.041 14.5112 112.755 15.164H112.668V14.2306H111.551V20.1063Z" fill="#41415A"/>
<path d="M121.885 12.7684V14.2576H120.951V15.2342H121.885V18.5524C121.885 19.6854 122.397 20.1387 123.687 20.1387C123.914 20.1387 124.129 20.1117 124.318 20.0793V19.1135C124.156 19.1297 124.054 19.1405 123.876 19.1405C123.299 19.1405 123.045 18.8707 123.045 18.2556V15.2342H124.318V14.2576H123.045V12.7684H121.885Z" fill="#41415A"/>
<path d="M125.875 20.1063H127.035V16.6748C127.035 15.7845 127.564 15.1856 128.514 15.1856C129.334 15.1856 129.771 15.6604 129.771 16.5992V20.1063H130.931V16.3133C130.931 14.9158 130.159 14.1227 128.908 14.1227C128.023 14.1227 127.402 14.5166 127.116 15.1748H127.025V11.9375H125.875V20.1063Z" fill="#41415A"/>
<path d="M135.116 15.1047C135.974 15.1047 136.535 15.7036 136.562 16.6262H133.594C133.659 15.709 134.258 15.1047 135.116 15.1047ZM136.556 18.52C136.341 18.9786 135.86 19.2322 135.159 19.2322C134.231 19.2322 133.632 18.5794 133.594 17.5488V17.4841H137.743V17.0794C137.743 15.2342 136.756 14.1173 135.121 14.1173C133.465 14.1173 132.413 15.3097 132.413 17.1873C132.413 19.065 133.443 20.2196 135.127 20.2196C136.47 20.2196 137.409 19.5721 137.673 18.52H136.556Z" fill="#41415A"/>
<path d="M33.6999 27.3904C33.728 25.2051 34.9016 23.1373 36.7634 21.9927C35.5889 20.3153 33.6216 19.2518 31.5749 19.1877C29.3919 18.9586 27.2756 20.494 26.1631 20.494C25.0292 20.494 23.3164 19.2105 21.4721 19.2484C19.0681 19.3261 16.8269 20.6929 15.6573 22.7947C13.1431 27.1476 15.0185 33.545 17.4268 37.0636C18.6318 38.7865 20.0401 40.7111 21.8828 40.6429C23.6859 40.5681 24.3594 39.493 26.536 39.493C28.6924 39.493 29.3242 40.6429 31.2043 40.5995C33.1392 40.5681 34.3583 38.8689 35.521 37.1296C36.3867 35.9019 37.0529 34.5451 37.4949 33.1093C35.221 32.1476 33.7025 29.8593 33.6999 27.3904Z" fill="#41415A"/>
<path d="M30.1487 16.8737C31.2037 15.6073 31.7235 13.9794 31.5976 12.3359C29.9858 12.5052 28.497 13.2756 27.4277 14.4934C26.3822 15.6834 25.8381 17.2826 25.9409 18.8632C27.5533 18.8798 29.1384 18.1304 30.1487 16.8737Z" fill="#41415A"/>
<rect x="1" y="0.5" width="157" height="53" rx="8.5" stroke="#D5D5DD"/>
</svg>
