<svg width="40" height="40" viewBox="0 0 40 40" fill="none" xmlns="http://www.w3.org/2000/svg">
<circle cx="20" cy="20" r="20" fill="#F9F4EE"/>
<path d="M18.4328 21.0458C18.4958 21.7013 18.6025 22.1885 18.7493 22.51C18.898 22.8304 19.1619 22.9902 19.5429 22.9902C19.6142 22.9902 19.6779 22.979 19.7411 22.9661C19.8058 22.979 19.8693 22.9902 19.941 22.9902C20.321 22.9902 20.5857 22.8304 20.7336 22.51C20.8813 22.1885 20.9862 21.7013 21.0504 21.0458L21.3887 15.9841C21.4516 14.9976 21.4837 14.2897 21.4837 13.86C21.4837 13.2751 21.3312 12.8187 21.025 12.4911C20.7178 12.1634 20.3143 12 19.8144 12C19.7877 12 19.7678 12.006 19.7416 12.007C19.7167 12.006 19.6963 12 19.6704 12C19.1694 12 18.7667 12.1634 18.46 12.4911C18.1536 12.8193 18 13.2759 18 13.8602C18 14.2899 18.0313 14.9978 18.0953 15.9844L18.4328 21.0458Z" fill="#F07C11"/>
<path d="M19.754 24.8418C19.2686 24.8418 18.8563 24.9949 18.5139 25.301C18.1717 25.6074 18.0002 25.9794 18.0002 26.4161C18.0002 26.909 18.1738 27.297 18.5183 27.5788C18.8643 27.8606 19.2679 28.0015 19.7292 28.0015C20.1987 28.0015 20.6082 27.8627 20.9584 27.5842C21.3081 27.3066 21.4829 26.9165 21.4829 26.4166C21.4829 25.9799 21.3156 25.608 20.981 25.3015C20.6463 24.9949 20.2373 24.8418 19.7532 24.8418" fill="#F07C11"/>
</svg>
