<svg width="137" height="32" viewBox="0 0 137 32" fill="none" xmlns="http://www.w3.org/2000/svg">
<path d="M18.679 17.4755C18.6685 17.4875 18.6579 17.4996 18.6489 17.5101C18.6368 17.5026 18.6263 17.4951 18.6142 17.4875C18.3656 17.3293 18.111 17.1651 17.8669 17.0084C17.3758 16.6905 16.8665 16.3621 16.3528 16.0532C16.3166 16.0321 16.282 16.0095 16.2458 15.9884C16.071 15.883 15.8963 15.776 15.7215 15.6705C15.5467 15.5651 15.372 15.4596 15.1972 15.3526C14.8808 15.1613 14.5659 14.9699 14.2495 14.7786C11.1971 12.933 8.04368 11.0226 4.91892 9.17542C3.63074 8.41457 2.24765 8.3995 1.02727 9.13625C0.637056 9.37128 0.29957 9.64549 0.013309 9.95586C0.0118023 9.63494 0.0102957 9.31554 0.00878906 9.00065C0.0148156 8.47032 0.0238554 7.93998 0.0374151 7.41266C0.0645346 6.33692 0.615963 5.42088 1.58925 4.8333C2.69361 4.16736 3.70758 4.48978 4.36297 4.87699C7.4817 6.7196 10.6321 8.62701 13.68 10.4726C14.3821 10.8975 15.0842 11.3224 15.7863 11.7472C16.285 12.0486 16.7882 12.3725 17.2733 12.6859C17.5204 12.8456 17.775 13.0098 18.0282 13.1695C18.1321 13.2343 18.23 13.3066 18.3219 13.385C18.4621 13.5025 18.5901 13.632 18.7046 13.7737C18.8206 13.9153 18.9216 14.069 19.009 14.2302C19.1642 14.521 19.2711 14.8404 19.3224 15.1779C19.4489 16.011 19.2139 16.8487 18.679 17.4755Z" fill="#5466F9"/>
<path d="M0.0356863 22.1384C0.0356863 22.1264 0.0356863 22.1128 0.0356863 22.1007V22.1384C0.0356863 22.4654 0.0356863 22.7923 0.0356863 23.1192V24.0202C0.0341797 23.9795 0.0341797 23.9373 0.0341797 23.8967C0.0356863 23.3121 0.0356863 22.7245 0.0356863 22.1384Z" fill="#5466F9"/>
<path d="M0.0372852 19.574C0.0372852 20.1329 0.0372852 20.6949 0.0372852 21.2584C0.0372852 21.4934 0.0372852 21.73 0.0372852 21.965V20.3559H0.0161923C0.0146857 19.7322 0.0116724 19.1054 0.00865916 18.4952C0.00112598 17.0202 -0.0064072 15.5075 0.0116724 14.0024C0.017699 13.576 0.0252322 13.1512 0.0357786 12.7278C0.0357786 12.9628 0.0357786 13.1979 0.0357786 13.4329C0.0357786 14.6081 0.0357786 15.8059 0.0357786 17.0067V17.8835C0.0372852 18.4425 0.0372852 19.0075 0.0372852 19.574Z" fill="#5466F9"/>
<path d="M0.0144945 9.9558C0.0114812 9.96032 0.00696131 9.96484 0.00244141 9.96786C0.00394804 9.64544 0.00696131 9.32302 0.00997459 9.0006C0.0114812 9.31699 0.0129879 9.6364 0.0144945 9.9558Z" fill="#5466F9"/>
<path d="M0.0373202 17.8834V17.0066C0.0373202 16.5591 0.0373202 16.1131 0.0373202 15.6657V15.1218H0.0162273C0.0147206 14.7481 0.0147206 14.3745 0.0117074 14.0038C-0.00637225 15.509 -0.000345709 17.0216 0.00869411 18.4966C0.0117074 19.1068 0.0147206 19.7336 0.0162273 20.3573H0.0358136V21.9664C0.0358136 21.7314 0.0358136 21.4948 0.0358136 21.2598C0.0358136 20.6963 0.0358136 20.1343 0.0358136 19.5754C0.0373202 19.0074 0.0373202 18.4424 0.0373202 17.8834Z" fill="#5466F9"/>
<path d="M0.0372852 17.8838C0.0372852 18.4428 0.0372852 19.0062 0.0372852 19.5742C0.0372852 20.1332 0.0372852 20.6952 0.0372852 21.2587C0.0372852 21.2587 0.0372852 21.2587 0.0372852 21.2572V20.3562H0.0161923C0.0146857 19.7324 0.0116724 19.1057 0.00865916 18.4955C0.00112598 17.0205 -0.0064072 15.5078 0.0116724 14.0027C0.017699 13.5763 0.0252322 13.1515 0.0357786 12.7281C0.0357786 12.9631 0.0357786 13.1982 0.0357786 13.4332C0.0357786 14.6084 0.0357786 15.8061 0.0357786 17.0069V17.8838H0.0372852Z" fill="#5466F9"/>
<path d="M0.0144945 9.95608C0.0114812 9.9606 0.00696131 9.96512 0.00244141 9.96814C0.00394804 9.64572 0.00696131 9.3233 0.00997459 9.00088C0.0114812 9.31727 0.0129879 9.63668 0.0144945 9.95608Z" fill="#5466F9"/>
<path d="M19.01 12.5415C18.885 12.4376 18.7524 12.3411 18.6123 12.2522C18.3637 12.094 18.1091 11.9298 17.865 11.7716C17.3738 11.4537 16.8646 11.1253 16.3508 10.8164C15.6487 10.3915 14.9466 9.96667 14.2461 9.5418C11.1966 7.69617 8.04172 5.78726 4.91847 3.94163C3.63029 3.17928 2.2472 3.16572 1.02683 3.90246C0.635103 4.139 0.293097 4.41622 0.00683594 4.7281C0.0128625 4.139 0.0219023 3.54991 0.0369687 2.96383C0.0640881 1.88809 0.615517 0.972055 1.5888 0.384467C2.69317 -0.281466 3.70713 0.0409538 4.36252 0.428159C7.47975 2.27077 10.6301 4.17818 13.678 6.0238C14.3801 6.44868 15.0822 6.87355 15.7858 7.29842C16.2845 7.59975 16.7877 7.92367 17.2729 8.23705C17.52 8.39676 17.7746 8.56098 18.0277 8.72068C18.7253 9.16363 19.1969 9.89435 19.3219 10.729C19.4183 11.3633 19.3053 11.9976 19.01 12.5415Z" fill="#5466F9"/>
<path d="M0.0343069 19.4463C0.0358136 18.7246 0.0358136 17.9999 0.0358136 17.2752V17.007C0.0358136 15.8063 0.0358136 14.6085 0.0358136 13.4333C0.0358136 13.1983 0.0358136 12.9632 0.0358136 12.7282C0.0252671 13.1516 0.0177339 13.5764 0.0117074 14.0028C-0.00637225 15.5079 -0.000345709 17.0206 0.00869411 18.4956C0.0117074 19.1058 0.0147207 19.7326 0.0162273 20.3563H0.0358136V21.9654C0.0358136 21.7304 0.0358136 21.4938 0.0358136 21.2588C0.0358136 20.6953 0.0358136 20.1333 0.0358136 19.5744C0.0358136 19.5322 0.0343069 19.49 0.0343069 19.4463ZM0.0358136 22.1387V22.101C0.0358136 22.113 0.0358136 22.1251 0.0358136 22.1387ZM0.0102007 9.00229C0.00718747 9.32471 0.0041742 9.64713 0.00266756 9.96955C0.00718747 9.96503 0.0102007 9.96202 0.0147207 9.9575C0.013214 9.63659 0.0117074 9.31718 0.0102007 9.00229Z" fill="#5466F9"/>
<path d="M0.0377667 17.8834V17.0065C0.0377667 15.8057 0.0377667 14.608 0.0377667 13.4328C0.0377667 13.1978 0.0377667 12.9627 0.0377667 12.7277C0.0272202 13.1511 0.019687 13.5759 0.0136605 14.0023C-0.00441913 15.5074 0.00160742 17.0201 0.0106472 18.4951C0.0136605 19.1053 0.0166738 19.732 0.0181804 20.3558H0.0377667V21.9649C0.0377667 21.7298 0.0377667 21.4933 0.0377667 21.2583C0.0377667 20.6948 0.0377667 20.1328 0.0377667 19.5738C0.0377667 19.0073 0.0377667 18.4424 0.0377667 17.8834ZM0.03626 22.1381C0.03626 22.7257 0.0347534 23.3118 0.0347534 23.8964C0.0347534 23.9371 0.03626 23.9792 0.03626 24.0199V23.119C0.0377667 22.792 0.03626 22.4651 0.03626 22.1381V22.1005C0.03626 22.1125 0.03626 22.1246 0.03626 22.1381Z" fill="#5466F9"/>
<path d="M0.0356863 22.1384C0.0356863 22.726 0.0341797 23.3121 0.0341797 23.8966C0.0341797 23.9373 0.0356863 23.9795 0.0356863 24.0202V23.1192C0.037193 22.7923 0.0356863 22.4653 0.0356863 22.1384V22.1007C0.0356863 22.1128 0.0356863 22.1248 0.0356863 22.1384Z" fill="#5466F9"/>
<path d="M18.6793 22.7107C18.4578 22.9714 18.2107 23.1883 17.9667 23.3375C12.7688 26.53 8.50348 29.138 4.54103 31.5456C3.13835 32.3984 1.40572 32.0202 0.507762 30.6673C0.188356 30.1851 0.0331722 29.6834 0.0346788 29.1305C0.0361855 28.2868 0.0361855 27.4355 0.0361855 26.5873C0.0361855 26.2935 0.0361855 26.0012 0.0361855 25.7089C0.0361855 25.1439 0.0361855 24.5789 0.0361855 24.02V23.119C0.0361855 22.7921 0.0361855 22.4651 0.0361855 22.1382V22.0809C0.0361855 22.0433 0.0361855 22.0041 0.0361855 21.9664C0.0361855 21.7314 0.0361855 21.4949 0.0361855 21.2598C0.0361855 20.6963 0.0361855 20.1344 0.0361855 19.5754C0.0361855 19.0074 0.0361855 18.4439 0.0361855 17.885V17.0081C0.0361855 15.8073 0.0361855 14.6095 0.0361855 13.4344C0.0361855 13.1993 0.0361855 12.9643 0.0361855 12.7293C0.0361855 12.7021 0.0376921 12.675 0.0376921 12.6494C0.0648116 11.5737 0.61624 10.6576 1.58953 10.07C2.69389 9.40411 3.70786 9.72653 4.36324 10.1137C7.48198 11.9579 10.6339 13.8653 13.6833 15.7109C13.8385 15.8043 13.9937 15.8992 14.1504 15.9926C14.3251 16.0981 14.4999 16.2051 14.6747 16.3105C14.8494 16.416 15.0242 16.523 15.199 16.6284C15.3948 16.7475 15.5907 16.865 15.7866 16.984C16.2853 17.2853 16.7885 17.6108 17.2736 17.9226C17.4303 18.0251 17.5915 18.1275 17.7527 18.2315C17.8446 18.2902 17.935 18.349 18.0269 18.4063C18.1038 18.456 18.1791 18.5072 18.2499 18.5645C18.3976 18.679 18.5332 18.81 18.6552 18.9502C19.0047 19.3569 19.2383 19.8632 19.3211 20.4131C19.4492 21.2463 19.2142 22.0825 18.6793 22.7107Z" fill="#5466F9"/>
<path d="M61.3361 24.5733C62.1572 24.9755 62.9527 25.3658 63.7934 25.7786C63.2751 26.9779 62.5384 27.9391 61.5636 28.709C59.837 30.074 57.8678 30.7204 55.6576 30.7399C53.5046 30.7595 51.552 30.2066 49.8028 28.9591C47.8743 27.582 46.6072 25.7454 45.9036 23.4795C45.5616 22.3796 45.423 21.2527 45.4321 20.1377C45.4516 17.6232 46.2065 15.318 47.8005 13.3262C49.2815 11.4746 51.1332 10.1909 53.5031 9.80372C57.0241 9.22668 60.057 10.1503 62.3862 12.939C63.242 13.9651 63.7527 15.196 64.0978 16.4811C64.4533 17.807 64.6055 19.1629 64.5483 20.5385C64.5407 20.7208 64.5015 20.9016 64.4699 21.1397C64.2108 21.1653 63.9833 21.2059 63.7558 21.2059C60.9203 21.2105 58.0863 21.2135 55.2508 21.2029C54.9239 21.2014 54.5894 21.1532 54.273 21.0749C53.1852 20.8067 52.578 19.7671 52.8447 18.5452C54.2564 18.503 55.6907 18.5332 57.1251 18.5271C58.5609 18.5211 59.9967 18.5256 61.4732 18.5256C61.5169 17.9817 61.3768 17.5343 61.2532 17.0943C60.8359 15.5982 60.063 14.3387 58.7824 13.4091C58.136 12.9405 57.4173 12.6573 56.652 12.5006C54.7521 12.1104 52.9728 12.4268 51.436 13.6321C49.5934 15.077 48.5719 16.9874 48.5176 19.3513C48.4905 20.5265 48.474 21.7016 48.7873 22.8617C49.5331 25.6279 52.1547 28.019 55.3819 28.0054C56.7635 27.9994 58.0486 27.7463 59.2178 26.9839C59.7813 26.6163 60.2528 26.1688 60.6355 25.6204C60.8585 25.2904 61.077 24.959 61.3361 24.5733Z" fill="#41415A"/>
<path d="M115.854 20.5658C115.762 18.7608 116.129 17.0447 116.978 15.4522C118.404 12.7734 120.575 10.97 123.548 10.2769C127.62 9.32625 131.126 10.408 133.896 13.5494C135.262 15.0982 136.046 16.9604 136.306 19.0365C136.683 22.0408 135.97 24.7572 134.146 27.1482C132.601 29.1717 130.558 30.4267 128.011 30.8802C125.617 31.3051 123.355 31.0067 121.232 29.8451C118.373 28.2797 116.625 25.8736 115.986 22.6735C115.935 22.4204 115.872 22.1658 115.86 21.9082C115.839 21.4622 115.854 21.0132 115.854 20.5658ZM133.296 20.5868C133.308 19.0621 132.945 17.6293 132.169 16.3321C130.67 13.8251 128.511 12.4932 125.502 12.6996C123.188 12.8593 121.398 13.923 120.184 15.847C118.511 18.4941 118.401 21.31 119.682 24.1425C120.554 26.074 121.992 27.4541 124.075 28.0598C124.961 28.3174 125.867 28.3746 126.795 28.3008C127.908 28.2134 128.928 27.8895 129.832 27.2628C132.16 25.6507 133.23 23.3741 133.296 20.5868Z" fill="#41415A"/>
<path d="M70.0825 30.6571C70.0825 23.8968 70.0825 17.1621 70.0825 10.4335C70.6008 10.2693 72.0743 10.2452 72.8577 10.3928C73.0114 10.9262 72.9135 11.4912 72.9301 12.0471C72.9466 12.6031 72.9331 13.159 72.9331 13.8671C73.1982 13.5236 73.3745 13.3112 73.5312 13.0867C74.6491 11.4851 76.1633 10.4199 78.0797 10.0975C80.1905 9.74196 82.2652 9.90016 84.1274 11.1552C85.4623 12.0531 86.2698 13.3353 86.7851 14.8073C87.1361 15.8107 87.2642 16.8608 87.2582 17.9366C87.2356 21.9231 87.2491 25.9097 87.2491 29.8962C87.2491 30.1283 87.2491 30.3603 87.2491 30.5938C86.7022 30.8409 86.2653 30.645 85.863 30.416C84.6939 29.7516 84.2645 28.6683 84.2554 27.3877C84.2419 25.524 84.2524 23.6603 84.2509 21.7966C84.2494 20.5928 84.2524 19.3905 84.2419 18.1867C84.2328 17.2058 84.0129 16.2777 83.5503 15.4039C82.7352 13.8626 81.4651 13.0475 79.7355 12.8426C78.8978 12.7432 78.0828 12.7537 77.2903 12.9918C75.0168 13.6788 73.7346 15.2924 73.2058 17.5433C73.0837 18.0646 73.0551 18.616 73.0521 19.1554C73.037 21.9397 73.037 24.7224 73.0491 27.5067C73.0536 28.6246 72.6378 29.5256 71.7609 30.2081C71.2863 30.5772 70.7545 30.7972 70.0825 30.6571Z" fill="#41415A"/>
<path d="M109.415 23.4616C110.311 23.7689 111.155 24.0567 112.071 24.3716C112.017 24.6443 112.011 24.8778 111.924 25.0767C110.617 28.0538 108.395 30.023 105.237 30.7823C102.585 31.4211 99.982 31.1198 97.5849 29.7292C94.8097 28.1186 93.288 25.6372 92.7381 22.529C92.378 20.492 92.5257 18.4761 93.2925 16.5537C94.5777 13.334 96.8708 11.1644 100.264 10.2785C103.043 9.55232 105.692 9.95761 108.157 11.4296C110.084 12.5807 111.556 14.5227 111.985 16.4844C111.808 16.5461 111.624 16.6501 111.431 16.6712C110.318 16.7902 109.326 16.5265 108.526 15.6964C108.005 15.1555 107.521 14.5634 106.935 14.1024C103.777 11.6134 98.7194 12.427 96.6343 16.3909C96.0286 17.542 95.6504 18.7624 95.6384 20.0385C95.6097 22.9358 96.4791 25.4714 98.9665 27.2221C99.8886 27.8715 100.921 28.2316 102.066 28.2979C103.084 28.3566 104.077 28.3039 105.065 28.0282C106.345 27.6726 107.247 26.8274 107.991 25.8059C108.46 25.1641 108.809 24.4364 109.213 23.7478C109.261 23.6695 109.32 23.5972 109.415 23.4616Z" fill="#41415A"/>
<path d="M27.113 0.898232C28.9767 1.03835 30.1233 2.29338 30.2061 4.23694C30.2152 4.44937 30.2092 4.66181 30.2092 4.87274C30.2092 12.1573 30.2092 19.4434 30.2092 26.728C30.2092 27.0082 30.2092 27.29 30.2092 27.6651C30.5271 27.6787 30.7982 27.6998 31.0694 27.6998C35.0605 27.7013 39.0516 27.7013 43.0427 27.7013C43.3184 27.7013 43.5941 27.7013 43.9527 27.7013C43.9753 28.7484 43.9753 29.6961 43.9527 30.6844C38.2636 30.6844 32.6785 30.6844 27.104 30.6844C26.9126 30.0562 26.9202 1.49034 27.113 0.898232Z" fill="#41415A"/>
</svg>
