<svg width="30" height="30" viewBox="0 0 30 30" fill="none" xmlns="http://www.w3.org/2000/svg">
<g id="icon/social/domain_24px">
<path id="icon/social/domain_24px_2" fill-rule="evenodd" clip-rule="evenodd" d="M15 8.75H27.5V26.25H2.5V3.75H15V8.75ZM5 23.75H7.5V21.25H5V23.75ZM7.5 18.75H5V16.25H7.5V18.75ZM5 13.75H7.5V11.25H5V13.75ZM7.5 8.75H5V6.25H7.5V8.75ZM10 23.75H12.5V21.25H10V23.75ZM12.5 18.75H10V16.25H12.5V18.75ZM10 13.75H12.5V11.25H10V13.75ZM12.5 8.75H10V6.25H12.5V8.75ZM25 23.75V11.25H15V13.75H17.5V16.25H15V18.75H17.5V21.25H15V23.75H25ZM22.5 13.75H20V16.25H22.5V13.75ZM20 18.75H22.5V21.25H20V18.75Z" fill="#B1BAFF"/>
</g>
</svg>
