<svg width="18" height="18" viewBox="0 0 18 18" fill="none" xmlns="http://www.w3.org/2000/svg">
<path d="M11.6845 8.99945C11.6845 10.4845 10.4845 11.6845 8.99945 11.6845C7.51445 11.6845 6.31445 10.4845 6.31445 8.99945C6.31445 7.51445 7.51445 6.31445 8.99945 6.31445C10.4845 6.31445 11.6845 7.51445 11.6845 8.99945Z"  stroke-width="1.125" stroke-linecap="round" stroke-linejoin="round"/>
<path d="M8.99891 15.2035C11.6464 15.2035 14.1139 13.6435 15.8314 10.9435C16.5064 9.88602 16.5064 8.10852 15.8314 7.05102C14.1139 4.35102 11.6464 2.79102 8.99891 2.79102C6.35141 2.79102 3.88391 4.35102 2.16641 7.05102C1.49141 8.10852 1.49141 9.88602 2.16641 10.9435C3.88391 13.6435 6.35141 15.2035 8.99891 15.2035Z"  stroke-width="1.125" stroke-linecap="round" stroke-linejoin="round"/>
</svg>
