<svg width="14" height="15" viewBox="0 0 14 15" fill="none" xmlns="http://www.w3.org/2000/svg">
<path d="M8.31732 13.8833C8.11732 14.0833 7.87565 14.1833 7.59232 14.1833C7.30898 14.1833 7.06732 14.0833 6.86732 13.8833L0.617318 7.63325C0.506207 7.52214 0.431207 7.40547 0.392318 7.28325C0.353429 7.16103 0.333984 7.03325 0.333984 6.89992V1.83325C0.333984 1.54436 0.428429 1.30547 0.617318 1.11659C0.806207 0.927696 1.0451 0.833252 1.33398 0.833252H6.40065C6.53398 0.833252 6.66732 0.852696 6.80065 0.891585C6.93398 0.930474 7.05621 1.00547 7.16732 1.11659L13.384 7.33325C13.5951 7.54436 13.7006 7.79158 13.7006 8.07492C13.7006 8.35825 13.5951 8.60547 13.384 8.81659L8.31732 13.8833ZM3.08398 4.43325C3.31732 4.43325 3.5201 4.34714 3.69232 4.17492C3.86454 4.0027 3.95065 3.79992 3.95065 3.56659C3.95065 3.33325 3.86454 3.13047 3.69232 2.95825C3.5201 2.78603 3.31732 2.69992 3.08398 2.69992C2.85065 2.69992 2.64787 2.78603 2.47565 2.95825C2.30343 3.13047 2.21732 3.33325 2.21732 3.56659C2.21732 3.79992 2.30343 4.0027 2.47565 4.17492C2.64787 4.34714 2.85065 4.43325 3.08398 4.43325Z"/>
</svg>
