<svg width="16" height="9" viewBox="0 0 16 9" fill="none" xmlns="http://www.w3.org/2000/svg">
<path d="M0 8.5V7.61667C0 7.17818 0.233333 6.82689 0.7 6.5628C1.16667 6.29871 1.76888 6.16667 2.50663 6.16667C2.64172 6.16667 2.77161 6.16944 2.8963 6.175C3.02099 6.18056 3.14444 6.19293 3.26667 6.21212C3.17778 6.40404 3.11111 6.59761 3.06667 6.79282C3.02222 6.98804 3 7.19599 3 7.41667V8.5H0ZM4 8.5V7.41667C4 6.69444 4.36944 6.11111 5.10833 5.66667C5.84722 5.22222 6.81111 5 8 5C9.2 5 10.1667 5.22222 10.9 5.66667C11.6333 6.11111 12 6.69444 12 7.41667V8.5H4ZM13 8.5V7.41667C13 7.19599 12.9806 6.98804 12.9417 6.79282C12.9028 6.59761 12.8389 6.40404 12.75 6.21212C12.8722 6.19293 12.9954 6.18056 13.1195 6.175C13.2437 6.16944 13.3705 6.16667 13.5 6.16667C14.25 6.16667 14.8542 6.29871 15.3125 6.5628C15.7708 6.82689 16 7.17818 16 7.61667V8.5H13ZM7.99667 6C7.11 6 6.38889 6.13333 5.83333 6.4C5.27778 6.66667 5 7.00556 5 7.41667V7.5H11V7.4C11 7 10.725 6.66667 10.175 6.4C9.625 6.13333 8.89889 6 7.99667 6ZM2.49278 5.66667C2.17537 5.66667 1.90278 5.55243 1.675 5.32397C1.44722 5.09549 1.33333 4.82083 1.33333 4.5C1.33333 4.17778 1.44757 3.90278 1.67603 3.675C1.90451 3.44722 2.17917 3.33333 2.5 3.33333C2.82222 3.33333 3.09722 3.44722 3.325 3.675C3.55278 3.90278 3.66667 4.18018 3.66667 4.50722C3.66667 4.82463 3.55278 5.09722 3.325 5.325C3.09722 5.55278 2.81982 5.66667 2.49278 5.66667ZM13.4928 5.66667C13.1754 5.66667 12.9028 5.55243 12.675 5.32397C12.4472 5.09549 12.3333 4.82083 12.3333 4.5C12.3333 4.17778 12.4476 3.90278 12.676 3.675C12.9045 3.44722 13.1792 3.33333 13.5 3.33333C13.8222 3.33333 14.0972 3.44722 14.325 3.675C14.5528 3.90278 14.6667 4.18018 14.6667 4.50722C14.6667 4.82463 14.5528 5.09722 14.325 5.325C14.0972 5.55278 13.8198 5.66667 13.4928 5.66667ZM8 4.5C7.44444 4.5 6.97222 4.30556 6.58333 3.91667C6.19444 3.52778 6 3.05556 6 2.5C6 1.93333 6.19444 1.45833 6.58333 1.075C6.97222 0.691667 7.44444 0.5 8 0.5C8.56667 0.5 9.04167 0.691667 9.425 1.075C9.80833 1.45833 10 1.93333 10 2.5C10 3.05556 9.80833 3.52778 9.425 3.91667C9.04167 4.30556 8.56667 4.5 8 4.5ZM8.00585 1.5C7.72417 1.5 7.48611 1.59527 7.29167 1.78582C7.09722 1.97636 7 2.21247 7 2.49415C7 2.77583 7.0964 3.01389 7.28918 3.20833C7.48197 3.40278 7.72086 3.5 8.00585 3.5C8.29084 3.5 8.52778 3.40361 8.71667 3.21082C8.90556 3.01803 9 2.77914 9 2.49415C9 2.20916 8.90473 1.97222 8.71418 1.78333C8.52364 1.59444 8.28753 1.5 8.00585 1.5Z"/>
</svg>
