<svg width="14" height="15" viewBox="0 0 14 15" fill="none" xmlns="http://www.w3.org/2000/svg">
<path d="M2.69922 14.1668C2.21311 14.1668 1.79991 13.9967 1.45964 13.6564C1.11936 13.3161 0.949219 12.9029 0.949219 12.4168V10.3335H3.06589V0.833496L4.06255 1.8335L5.05922 0.833496L6.05588 1.8335L7.05255 0.833496L8.04922 1.8335L9.04922 0.833496L10.0492 1.8335L11.0492 0.833496L12.0492 1.8335L13.0492 0.833496V12.4168C13.0492 12.9029 12.8791 13.3161 12.5388 13.6564C12.1985 13.9967 11.7853 14.1668 11.2992 14.1668H2.69922ZM11.2992 13.1668C11.5214 13.1668 11.702 13.0974 11.8409 12.9585C11.9798 12.8196 12.0492 12.6391 12.0492 12.4168V2.50016H4.06589V10.3335H10.5492V12.4168C10.5492 12.6391 10.6187 12.8196 10.7576 12.9585C10.8964 13.0974 11.077 13.1668 11.2992 13.1668ZM4.94922 5.1335V4.1335H8.94922V5.1335H4.94922ZM4.94922 7.36683V6.36683H8.94922V7.36683H4.94922ZM10.4992 5.1335C10.3659 5.1335 10.2492 5.0835 10.1492 4.9835C10.0492 4.8835 9.99922 4.76683 9.99922 4.6335C9.99922 4.50016 10.0492 4.3835 10.1492 4.2835C10.2492 4.1835 10.3659 4.1335 10.4992 4.1335C10.6326 4.1335 10.7492 4.1835 10.8492 4.2835C10.9492 4.3835 10.9992 4.50016 10.9992 4.6335C10.9992 4.76683 10.9492 4.8835 10.8492 4.9835C10.7492 5.0835 10.6326 5.1335 10.4992 5.1335ZM10.4992 7.2835C10.3659 7.2835 10.2492 7.2335 10.1492 7.1335C10.0492 7.0335 9.99922 6.91683 9.99922 6.7835C9.99922 6.65016 10.0492 6.5335 10.1492 6.4335C10.2492 6.3335 10.3659 6.2835 10.4992 6.2835C10.6326 6.2835 10.7492 6.3335 10.8492 6.4335C10.9492 6.5335 10.9992 6.65016 10.9992 6.7835C10.9992 6.91683 10.9492 7.0335 10.8492 7.1335C10.7492 7.2335 10.6326 7.2835 10.4992 7.2835ZM2.68255 13.1668H9.54922V11.3335H1.94922V12.4168C1.94922 12.6391 2.0195 12.8196 2.16005 12.9585C2.30061 13.0974 2.47477 13.1668 2.68255 13.1668Z" />
</svg>
