<svg width="16" height="11" viewBox="0 0 16 11" fill="none" xmlns="http://www.w3.org/2000/svg">
<path d="M3.73465 10.8165C3.18889 10.8165 2.72435 10.6253 2.34102 10.2429C1.95768 9.86049 1.76602 9.39614 1.76602 8.84984H0.666016V1.1665C0.666016 0.899837 0.766016 0.666504 0.966016 0.466504C1.16602 0.266504 1.39935 0.166504 1.66602 0.166504H11.316V2.94984H13.066L15.3327 5.9665V8.84984H14.1493C14.1493 9.39614 13.9583 9.86049 13.5763 10.2429C13.1943 10.6253 12.7304 10.8165 12.1846 10.8165C11.6389 10.8165 11.1743 10.6253 10.791 10.2429C10.4077 9.86049 10.216 9.39614 10.216 8.84984H5.69935C5.69935 9.39428 5.50834 9.85817 5.12632 10.2415C4.74428 10.6248 4.28039 10.8165 3.73465 10.8165ZM3.73268 9.8165C3.99935 9.8165 4.22713 9.72206 4.41602 9.53317C4.6049 9.34428 4.69935 9.1165 4.69935 8.84984C4.69935 8.58317 4.6049 8.35539 4.41602 8.1665C4.22713 7.97762 3.99935 7.88317 3.73268 7.88317C3.46602 7.88317 3.23824 7.97762 3.04935 8.1665C2.86046 8.35539 2.76602 8.58317 2.76602 8.84984C2.76602 9.1165 2.86046 9.34428 3.04935 9.53317C3.23824 9.72206 3.46602 9.8165 3.73268 9.8165ZM1.66602 7.84984H2.03268C2.22157 7.54984 2.46069 7.31095 2.75003 7.13317C3.03938 6.95539 3.3616 6.8665 3.7167 6.8665C4.0718 6.8665 4.39657 6.95817 4.69102 7.1415C4.98546 7.32484 5.22713 7.56095 5.41602 7.84984H10.316V1.1665H1.66602V7.84984ZM12.1827 9.8165C12.4493 9.8165 12.6771 9.72206 12.866 9.53317C13.0549 9.34428 13.1493 9.1165 13.1493 8.84984C13.1493 8.58317 13.0549 8.35539 12.866 8.1665C12.6771 7.97762 12.4493 7.88317 12.1827 7.88317C11.916 7.88317 11.6882 7.97762 11.4993 8.1665C11.3105 8.35539 11.216 8.58317 11.216 8.84984C11.216 9.1165 11.3105 9.34428 11.4993 9.53317C11.6882 9.72206 11.916 9.8165 12.1827 9.8165ZM11.316 6.4165H14.416L12.566 3.94984H11.316V6.4165Z" />
</svg>
