<svg width="14" height="15" viewBox="0 0 14 15" fill="none" xmlns="http://www.w3.org/2000/svg">
<path d="M6.99987 5.9335L6.29987 5.2335L7.5332 4.00016H4.49987V3.00016H7.5332L6.29987 1.76683L6.99987 1.06683L9.4332 3.50016L6.99987 5.9335ZM3.82967 14.1668C3.49869 14.1668 3.21654 14.049 2.9832 13.8133C2.74987 13.5776 2.6332 13.2943 2.6332 12.9633C2.6332 12.6323 2.75105 12.3502 2.98674 12.1168C3.22244 11.8835 3.50577 11.7668 3.83674 11.7668C4.16771 11.7668 4.44987 11.8847 4.6832 12.1204C4.91654 12.3561 5.0332 12.6394 5.0332 12.9704C5.0332 13.3013 4.91536 13.5835 4.67967 13.8168C4.44397 14.0502 4.16064 14.1668 3.82967 14.1668ZM10.563 14.1668C10.232 14.1668 9.94987 14.049 9.71654 13.8133C9.4832 13.5776 9.36654 13.2943 9.36654 12.9633C9.36654 12.6323 9.48438 12.3502 9.72007 12.1168C9.95577 11.8835 10.2391 11.7668 10.5701 11.7668C10.901 11.7668 11.1832 11.8847 11.4165 12.1204C11.6499 12.3561 11.7665 12.6394 11.7665 12.9704C11.7665 13.3013 11.6487 13.5835 11.413 13.8168C11.1773 14.0502 10.894 14.1668 10.563 14.1668ZM0.0332031 1.8335V0.833496H1.96654L4.79987 6.90016H9.59497L12.2665 2.2335H13.3832L10.6832 7.2835C10.561 7.49461 10.4023 7.66405 10.2072 7.79183C10.0121 7.91961 9.79855 7.9835 9.56654 7.9835H4.51654L3.5832 9.71683H11.7665V10.7168H3.7332C3.31473 10.7168 2.99621 10.5502 2.77767 10.2168C2.55914 9.8835 2.54431 9.54461 2.7332 9.20016L3.79987 7.2335L1.3332 1.8335H0.0332031Z" />
</svg>
