<svg width="287" height="187" viewBox="0 0 287 187" fill="none" xmlns="http://www.w3.org/2000/svg">
<g filter="url(#filter0_dd_7822_58516)">
<rect x="8.18359" y="4.29883" width="270.636" height="170.403" rx="8" fill="white"/>
<path d="M72.3683 132.247C72.3339 132.208 72.2995 132.169 72.2701 132.134C72.2308 132.159 72.1964 132.184 72.1571 132.208C71.347 132.724 70.5172 133.259 69.7218 133.769C68.1211 134.805 66.4615 135.876 64.7872 136.882C64.6694 136.951 64.5564 137.025 64.4386 137.094C63.869 137.437 63.2995 137.786 62.7299 138.13C62.1604 138.473 61.5908 138.817 61.0212 139.166C59.9901 139.789 58.9639 140.413 57.9328 141.036C47.9852 147.051 37.7085 153.277 27.5252 159.297C23.3271 161.776 18.8197 161.825 14.8426 159.424C13.5709 158.658 12.4711 157.765 11.5382 156.753C11.5333 157.799 11.5283 158.84 11.5234 159.866C11.5431 161.594 11.5725 163.323 11.6167 165.041C11.7051 168.547 13.5022 171.532 16.674 173.447C20.2731 175.617 23.5775 174.567 25.7134 173.305C35.8771 167.3 46.1439 161.084 56.0769 155.069C58.3649 153.684 60.653 152.3 62.9411 150.915C64.5663 149.933 66.2062 148.878 67.7872 147.856C68.5925 147.336 69.4223 146.801 70.2471 146.28C70.5859 146.069 70.9051 145.833 71.2046 145.578C71.6612 145.195 72.0786 144.773 72.4517 144.311C72.8298 143.85 73.1588 143.349 73.4436 142.824C73.9493 141.876 74.2979 140.835 74.4648 139.735C74.8773 137.02 74.1113 134.29 72.3683 132.247Z" fill="#F6F7FE"/>
<path d="M72.3683 47.0257C72.3339 46.9864 72.2995 46.9471 72.2701 46.9127C72.2308 46.9373 72.1964 46.9618 72.1571 46.9864C71.347 47.5019 70.5172 48.0371 69.7218 48.5478C68.1211 49.5838 66.4615 50.6542 64.7872 51.6607C64.6694 51.7295 64.5564 51.8031 64.4386 51.8718C63.869 52.2155 63.2995 52.5642 62.7299 52.9079C62.1604 53.2516 61.5908 53.5953 61.0212 53.9439C59.9901 54.5674 58.9639 55.191 57.9328 55.8146C47.9852 61.8294 37.7085 68.0552 27.5252 74.0749C23.3271 76.5545 18.8197 76.6036 14.8426 74.2026C13.5709 73.4366 12.4711 72.543 11.5382 71.5315C11.5333 72.5774 11.5283 73.6183 11.5234 74.6445C11.5431 76.3728 11.5725 78.1011 11.6167 79.8196C11.7051 83.3254 13.5022 86.3107 16.674 88.2256C20.2731 90.3958 23.5775 89.3451 25.7134 88.0832C35.8771 82.0782 46.1439 75.8622 56.0769 69.8474C58.3649 68.4628 60.653 67.0782 62.9411 65.6935C64.5663 64.7115 66.2062 63.6559 67.7872 62.6346C68.5925 62.1141 69.4223 61.5789 70.2471 61.0585C70.5859 60.8473 70.9051 60.6117 71.2046 60.3564C71.6612 59.9734 72.0786 59.5511 72.4517 59.0896C72.8298 58.628 73.1588 58.1272 73.4436 57.6018C73.9493 56.6542 74.2979 55.6133 74.4648 54.5134C74.8773 51.7982 74.1113 49.0682 72.3683 47.0257Z" fill="#F6F7FE"/>
<path d="M72.3683 89.635C72.3339 89.5958 72.2995 89.5565 72.2701 89.5221C72.2308 89.5467 72.1964 89.5712 72.1571 89.5958C71.347 90.1113 70.5172 90.6465 69.7218 91.1571C68.1211 92.1932 66.4615 93.2635 64.7872 94.2701C64.6694 94.3388 64.5564 94.4125 64.4386 94.4812C63.869 94.8249 63.2995 95.1735 62.7299 95.5172C62.1604 95.8609 61.5908 96.2046 61.0212 96.5532C59.9901 97.1768 58.9639 97.8004 57.9328 98.424C47.9852 104.439 37.7085 110.665 27.5252 116.684C23.3271 119.164 18.8197 119.213 14.8426 116.812C13.5709 116.046 12.4711 115.152 11.5382 114.141C11.5333 115.187 11.5283 116.228 11.5234 117.254C11.5431 118.982 11.5725 120.711 11.6167 122.429C11.7051 125.935 13.5022 128.92 16.674 130.835C20.2731 133.005 23.5775 131.954 25.7134 130.693C35.8771 124.688 46.1439 118.472 56.0769 112.457C58.3649 111.072 60.653 109.688 62.9411 108.303C64.5663 107.321 66.2062 106.265 67.7872 105.244C68.5925 104.724 69.4223 104.188 70.2471 103.668C70.5859 103.457 70.9051 103.221 71.2046 102.966C71.6612 102.583 72.0786 102.16 72.4517 101.699C72.8298 101.237 73.1588 100.737 73.4436 100.211C73.9493 99.2636 74.2979 98.2227 74.4648 97.1228C74.8773 94.4076 74.1113 91.6776 72.3683 89.635Z" fill="#F6F7FE"/>
<path d="M72.3683 4.41141C72.3339 4.37213 72.2995 4.33285 72.2701 4.29848C72.2308 4.32303 72.1964 4.34758 72.1571 4.37213C71.347 4.88768 70.5172 5.42287 69.7218 5.93352C68.1211 6.96953 66.4615 8.03991 64.7872 9.04646C64.6694 9.1152 64.5564 9.18885 64.4386 9.25759C63.869 9.60129 63.2995 9.9499 62.7299 10.2936C62.1604 10.6373 61.5908 10.981 61.0212 11.3296C59.9901 11.9532 58.9639 12.5768 57.9328 13.2003C47.9852 19.2151 37.7085 25.441 27.5252 31.4607C23.3271 33.9402 18.8197 33.9893 14.8426 31.5883C13.5709 30.8224 12.4711 29.9287 11.5382 28.9173C11.5333 29.9631 11.5283 31.004 11.5234 32.0302C11.5431 33.7585 11.5725 35.4869 11.6167 37.2054C11.7051 40.7111 13.5022 43.6964 16.674 45.6113C20.2731 47.7815 23.5775 46.7308 25.7134 45.4689C35.8771 39.464 46.1439 33.2479 56.0769 27.2331C58.3649 25.8485 60.653 24.4639 62.9411 23.0793C64.5663 22.0973 66.2062 21.0416 67.7872 20.0203C68.5925 19.4999 69.4223 18.9647 70.2471 18.4442C70.5859 18.2331 70.9051 17.9974 71.2046 17.7421C71.6612 17.3591 72.0786 16.9369 72.4517 16.4753C72.8298 16.0138 73.1588 15.5129 73.4436 14.9876C73.9493 14.0399 74.2979 12.999 74.4648 11.8992C74.8773 9.18394 74.1113 6.45398 72.3683 4.41141Z" fill="#F6F7FE"/>
<path d="M205.892 132.247C205.857 132.208 205.823 132.169 205.794 132.134C205.754 132.159 205.72 132.184 205.681 132.208C204.87 132.724 204.041 133.259 203.245 133.769C201.645 134.805 199.985 135.876 198.311 136.882C198.193 136.951 198.08 137.025 197.962 137.094C197.392 137.437 196.823 137.786 196.253 138.13C195.684 138.473 195.114 138.817 194.545 139.166C193.514 139.789 192.487 140.413 191.456 141.036C181.509 147.051 171.232 153.277 161.049 159.297C156.851 161.776 152.343 161.825 148.366 159.424C147.094 158.658 145.995 157.765 145.062 156.753C145.057 157.799 145.052 158.84 145.047 159.866C145.067 161.594 145.096 163.323 145.14 165.041C145.229 168.547 147.026 171.532 150.197 173.447C153.797 175.617 157.101 174.567 159.237 173.305C169.401 167.3 179.667 161.084 189.6 155.069C191.888 153.684 194.176 152.3 196.464 150.915C198.09 149.933 199.73 148.878 201.311 147.856C202.116 147.336 202.946 146.801 203.771 146.28C204.109 146.069 204.429 145.833 204.728 145.578C205.185 145.195 205.602 144.773 205.975 144.311C206.353 143.85 206.682 143.349 206.967 142.824C207.473 141.876 207.821 140.835 207.988 139.735C208.401 137.02 207.635 134.29 205.892 132.247Z" fill="#F6F7FE"/>
<path d="M205.892 47.0257C205.857 46.9864 205.823 46.9471 205.794 46.9127C205.754 46.9373 205.72 46.9618 205.681 46.9864C204.87 47.5019 204.041 48.0371 203.245 48.5478C201.645 49.5838 199.985 50.6542 198.311 51.6607C198.193 51.7295 198.08 51.8031 197.962 51.8718C197.392 52.2155 196.823 52.5642 196.253 52.9079C195.684 53.2516 195.114 53.5953 194.545 53.9439C193.514 54.5674 192.487 55.191 191.456 55.8146C181.509 61.8294 171.232 68.0552 161.049 74.0749C156.851 76.5545 152.343 76.6036 148.366 74.2026C147.094 73.4366 145.995 72.543 145.062 71.5315C145.057 72.5774 145.052 73.6183 145.047 74.6445C145.067 76.3728 145.096 78.1011 145.14 79.8196C145.229 83.3254 147.026 86.3107 150.197 88.2256C153.797 90.3958 157.101 89.3451 159.237 88.0832C169.401 82.0782 179.667 75.8622 189.6 69.8474C191.888 68.4628 194.176 67.0782 196.464 65.6935C198.09 64.7115 199.73 63.6559 201.311 62.6346C202.116 62.1141 202.946 61.5789 203.771 61.0585C204.109 60.8473 204.429 60.6117 204.728 60.3564C205.185 59.9734 205.602 59.5511 205.975 59.0896C206.353 58.628 206.682 58.1272 206.967 57.6018C207.473 56.6542 207.821 55.6133 207.988 54.5134C208.401 51.7982 207.635 49.0682 205.892 47.0257Z" fill="#F6F7FE"/>
<path d="M205.892 89.635C205.857 89.5958 205.823 89.5565 205.794 89.5221C205.754 89.5467 205.72 89.5712 205.681 89.5958C204.87 90.1113 204.041 90.6465 203.245 91.1571C201.645 92.1932 199.985 93.2635 198.311 94.2701C198.193 94.3388 198.08 94.4125 197.962 94.4812C197.392 94.8249 196.823 95.1735 196.253 95.5172C195.684 95.8609 195.114 96.2046 194.545 96.5532C193.514 97.1768 192.487 97.8004 191.456 98.424C181.509 104.439 171.232 110.665 161.049 116.684C156.851 119.164 152.343 119.213 148.366 116.812C147.094 116.046 145.995 115.152 145.062 114.141C145.057 115.187 145.052 116.228 145.047 117.254C145.067 118.982 145.096 120.711 145.14 122.429C145.229 125.935 147.026 128.92 150.197 130.835C153.797 133.005 157.101 131.954 159.237 130.693C169.401 124.688 179.667 118.472 189.6 112.457C191.888 111.072 194.176 109.688 196.464 108.303C198.09 107.321 199.73 106.265 201.311 105.244C202.116 104.724 202.946 104.188 203.771 103.668C204.109 103.457 204.429 103.221 204.728 102.966C205.185 102.583 205.602 102.16 205.975 101.699C206.353 101.237 206.682 100.737 206.967 100.211C207.473 99.2636 207.821 98.2227 207.988 97.1228C208.401 94.4076 207.635 91.6776 205.892 89.635Z" fill="#F6F7FE"/>
<path d="M205.892 4.41141C205.857 4.37213 205.823 4.33285 205.794 4.29848C205.754 4.32303 205.72 4.34758 205.681 4.37213C204.87 4.88768 204.041 5.42287 203.245 5.93352C201.645 6.96953 199.985 8.03991 198.311 9.04646C198.193 9.1152 198.08 9.18885 197.962 9.25759C197.392 9.60129 196.823 9.9499 196.253 10.2936C195.684 10.6373 195.114 10.981 194.545 11.3296C193.514 11.9532 192.487 12.5768 191.456 13.2003C181.509 19.2151 171.232 25.441 161.049 31.4607C156.851 33.9402 152.343 33.9893 148.366 31.5883C147.094 30.8224 145.995 29.9287 145.062 28.9173C145.057 29.9631 145.052 31.004 145.047 32.0302C145.067 33.7585 145.096 35.4869 145.14 37.2054C145.229 40.7111 147.026 43.6964 150.197 45.6113C153.797 47.7815 157.101 46.7308 159.237 45.4689C169.401 39.464 179.667 33.2479 189.6 27.2331C191.888 25.8485 194.176 24.4639 196.464 23.0793C198.09 22.0973 199.73 21.0416 201.311 20.0203C202.116 19.4999 202.946 18.9647 203.771 18.4442C204.109 18.2331 204.429 17.9974 204.728 17.7421C205.185 17.3591 205.602 16.9369 205.975 16.4753C206.353 16.0138 206.682 15.5129 206.967 14.9876C207.473 14.0399 207.821 12.999 207.988 11.8992C208.401 9.18394 207.635 6.45398 205.892 4.41141Z" fill="#F6F7FE"/>
<path d="M139.126 132.247C139.092 132.208 139.057 132.169 139.028 132.134C138.989 132.159 138.954 132.184 138.915 132.208C138.105 132.724 137.275 133.259 136.48 133.769C134.879 134.805 133.219 135.876 131.545 136.882C131.427 136.951 131.314 137.025 131.196 137.094C130.627 137.437 130.057 137.786 129.488 138.13C128.918 138.473 128.349 138.817 127.779 139.166C126.748 139.789 125.722 140.413 124.691 141.036C114.743 147.051 104.466 153.277 94.283 159.297C90.0849 161.776 85.5775 161.825 81.6004 159.424C80.3287 158.658 79.2289 157.765 78.296 156.753C78.2911 157.799 78.2862 158.84 78.2812 159.866C78.3009 161.594 78.3304 163.323 78.3745 165.041C78.4629 168.547 80.26 171.532 83.4318 173.447C87.0309 175.617 90.3353 174.567 92.4712 173.305C102.635 167.3 112.902 161.084 122.835 155.069C125.123 153.684 127.411 152.3 129.699 150.915C131.324 149.933 132.964 148.878 134.545 147.856C135.35 147.336 136.18 146.801 137.005 146.28C137.344 146.069 137.663 145.833 137.962 145.578C138.419 145.195 138.836 144.773 139.21 144.311C139.588 143.85 139.917 143.349 140.201 142.824C140.707 141.876 141.056 140.835 141.223 139.735C141.635 137.02 140.869 134.29 139.126 132.247Z" fill="#F6F7FE"/>
<path d="M139.126 47.0257C139.092 46.9864 139.057 46.9471 139.028 46.9127C138.989 46.9373 138.954 46.9618 138.915 46.9864C138.105 47.5019 137.275 48.0371 136.48 48.5478C134.879 49.5838 133.219 50.6542 131.545 51.6607C131.427 51.7295 131.314 51.8031 131.196 51.8718C130.627 52.2155 130.057 52.5642 129.488 52.9079C128.918 53.2516 128.349 53.5953 127.779 53.9439C126.748 54.5674 125.722 55.191 124.691 55.8146C114.743 61.8294 104.466 68.0552 94.283 74.0749C90.0849 76.5545 85.5775 76.6036 81.6004 74.2026C80.3287 73.4366 79.2289 72.543 78.296 71.5315C78.2911 72.5774 78.2862 73.6183 78.2812 74.6445C78.3009 76.3728 78.3304 78.1011 78.3745 79.8196C78.4629 83.3254 80.26 86.3107 83.4318 88.2256C87.0309 90.3958 90.3353 89.3451 92.4712 88.0832C102.635 82.0782 112.902 75.8622 122.835 69.8474C125.123 68.4628 127.411 67.0782 129.699 65.6935C131.324 64.7115 132.964 63.6559 134.545 62.6346C135.35 62.1141 136.18 61.5789 137.005 61.0585C137.344 60.8473 137.663 60.6117 137.962 60.3564C138.419 59.9734 138.836 59.5511 139.21 59.0896C139.588 58.628 139.917 58.1272 140.201 57.6018C140.707 56.6542 141.056 55.6133 141.223 54.5134C141.635 51.7982 140.869 49.0682 139.126 47.0257Z" fill="#F6F7FE"/>
<path d="M139.126 89.635C139.092 89.5958 139.057 89.5565 139.028 89.5221C138.989 89.5467 138.954 89.5712 138.915 89.5958C138.105 90.1113 137.275 90.6465 136.48 91.1571C134.879 92.1932 133.219 93.2635 131.545 94.2701C131.427 94.3388 131.314 94.4125 131.196 94.4812C130.627 94.8249 130.057 95.1735 129.488 95.5172C128.918 95.8609 128.349 96.2046 127.779 96.5532C126.748 97.1768 125.722 97.8004 124.691 98.424C114.743 104.439 104.466 110.665 94.283 116.684C90.0849 119.164 85.5775 119.213 81.6004 116.812C80.3287 116.046 79.2289 115.152 78.296 114.141C78.2911 115.187 78.2862 116.228 78.2812 117.254C78.3009 118.982 78.3304 120.711 78.3745 122.429C78.4629 125.935 80.26 128.92 83.4318 130.835C87.0309 133.005 90.3353 131.954 92.4712 130.693C102.635 124.688 112.902 118.472 122.835 112.457C125.123 111.072 127.411 109.688 129.699 108.303C131.324 107.321 132.964 106.265 134.545 105.244C135.35 104.724 136.18 104.188 137.005 103.668C137.344 103.457 137.663 103.221 137.962 102.966C138.419 102.583 138.836 102.16 139.21 101.699C139.588 101.237 139.917 100.737 140.201 100.211C140.707 99.2636 141.056 98.2227 141.223 97.1228C141.635 94.4076 140.869 91.6776 139.126 89.635Z" fill="#F6F7FE"/>
<path d="M139.126 4.41141C139.092 4.37213 139.057 4.33285 139.028 4.29848C138.989 4.32303 138.954 4.34758 138.915 4.37213C138.105 4.88768 137.275 5.42287 136.48 5.93352C134.879 6.96953 133.219 8.03991 131.545 9.04646C131.427 9.1152 131.314 9.18885 131.196 9.25759C130.627 9.60129 130.057 9.9499 129.488 10.2936C128.918 10.6373 128.349 10.981 127.779 11.3296C126.748 11.9532 125.722 12.5768 124.691 13.2003C114.743 19.2151 104.466 25.441 94.283 31.4607C90.0849 33.9402 85.5775 33.9893 81.6004 31.5883C80.3287 30.8224 79.2289 29.9287 78.296 28.9173C78.2911 29.9631 78.2862 31.004 78.2812 32.0302C78.3009 33.7585 78.3304 35.4869 78.3745 37.2054C78.4629 40.7111 80.26 43.6964 83.4318 45.6113C87.0309 47.7815 90.3353 46.7308 92.4712 45.4689C102.635 39.464 112.902 33.2479 122.835 27.2331C125.123 25.8485 127.411 24.4639 129.699 23.0793C131.324 22.0973 132.964 21.0416 134.545 20.0203C135.35 19.4999 136.18 18.9647 137.005 18.4442C137.344 18.2331 137.663 17.9974 137.962 17.7421C138.419 17.3591 138.836 16.9369 139.21 16.4753C139.588 16.0138 139.917 15.5129 140.201 14.9876C140.707 14.0399 141.056 12.999 141.223 11.8992C141.635 9.18394 140.869 6.45398 139.126 4.41141Z" fill="#F6F7FE"/>
<path d="M272.665 132.247C272.631 132.208 272.596 132.169 272.567 132.134C272.528 132.159 272.493 132.184 272.454 132.208C271.644 132.724 270.814 133.259 270.019 133.769C268.418 134.805 266.758 135.876 265.084 136.882C264.966 136.951 264.853 137.025 264.735 137.094C264.166 137.437 263.596 137.786 263.027 138.13C262.457 138.473 261.888 138.817 261.318 139.166C260.287 139.789 259.261 140.413 258.23 141.036C248.282 147.051 238.005 153.277 227.822 159.297C223.624 161.776 219.117 161.825 215.139 159.424C213.868 158.658 212.768 157.765 211.835 156.753C211.83 157.799 211.825 158.84 211.82 159.866C211.84 161.594 211.869 163.323 211.914 165.041C212.002 168.547 213.799 171.532 216.971 173.447C220.57 175.617 223.874 174.567 226.01 173.305C236.174 167.3 246.441 161.084 256.374 155.069C258.662 153.684 260.95 152.3 263.238 150.915C264.863 149.933 266.503 148.878 268.084 147.856C268.889 147.336 269.719 146.801 270.544 146.28C270.883 146.069 271.202 145.833 271.501 145.578C271.958 145.195 272.375 144.773 272.749 144.311C273.127 143.85 273.456 143.349 273.74 142.824C274.246 141.876 274.595 140.835 274.762 139.735C275.174 137.02 274.408 134.29 272.665 132.247Z" fill="#F6F7FE"/>
<path d="M272.665 47.0257C272.631 46.9864 272.596 46.9471 272.567 46.9127C272.528 46.9373 272.493 46.9618 272.454 46.9864C271.644 47.5019 270.814 48.0371 270.019 48.5478C268.418 49.5838 266.758 50.6542 265.084 51.6607C264.966 51.7295 264.853 51.8031 264.735 51.8718C264.166 52.2155 263.596 52.5642 263.027 52.9079C262.457 53.2516 261.888 53.5953 261.318 53.9439C260.287 54.5674 259.261 55.191 258.23 55.8146C248.282 61.8294 238.005 68.0552 227.822 74.0749C223.624 76.5545 219.117 76.6036 215.139 74.2026C213.868 73.4366 212.768 72.543 211.835 71.5315C211.83 72.5774 211.825 73.6183 211.82 74.6445C211.84 76.3728 211.869 78.1011 211.914 79.8196C212.002 83.3254 213.799 86.3107 216.971 88.2256C220.57 90.3958 223.874 89.3451 226.01 88.0832C236.174 82.0782 246.441 75.8622 256.374 69.8474C258.662 68.4628 260.95 67.0782 263.238 65.6935C264.863 64.7115 266.503 63.6559 268.084 62.6346C268.889 62.1141 269.719 61.5789 270.544 61.0585C270.883 60.8473 271.202 60.6117 271.501 60.3564C271.958 59.9734 272.375 59.5511 272.749 59.0896C273.127 58.628 273.456 58.1272 273.74 57.6018C274.246 56.6542 274.595 55.6133 274.762 54.5134C275.174 51.7982 274.408 49.0682 272.665 47.0257Z" fill="#F6F7FE"/>
<path d="M272.665 89.635C272.631 89.5958 272.596 89.5565 272.567 89.5221C272.528 89.5467 272.493 89.5712 272.454 89.5958C271.644 90.1113 270.814 90.6465 270.019 91.1571C268.418 92.1932 266.758 93.2635 265.084 94.2701C264.966 94.3388 264.853 94.4125 264.735 94.4812C264.166 94.8249 263.596 95.1735 263.027 95.5172C262.457 95.8609 261.888 96.2046 261.318 96.5532C260.287 97.1768 259.261 97.8004 258.23 98.424C248.282 104.439 238.005 110.665 227.822 116.684C223.624 119.164 219.117 119.213 215.139 116.812C213.868 116.046 212.768 115.152 211.835 114.141C211.83 115.187 211.825 116.228 211.82 117.254C211.84 118.982 211.869 120.711 211.914 122.429C212.002 125.935 213.799 128.92 216.971 130.835C220.57 133.005 223.874 131.954 226.01 130.693C236.174 124.688 246.441 118.472 256.374 112.457C258.662 111.072 260.95 109.688 263.238 108.303C264.863 107.321 266.503 106.265 268.084 105.244C268.889 104.724 269.719 104.188 270.544 103.668C270.883 103.457 271.202 103.221 271.501 102.966C271.958 102.583 272.375 102.16 272.749 101.699C273.127 101.237 273.456 100.737 273.74 100.211C274.246 99.2636 274.595 98.2227 274.762 97.1228C275.174 94.4076 274.408 91.6776 272.665 89.635Z" fill="#F6F7FE"/>
<path d="M272.665 4.41141C272.631 4.37213 272.596 4.33285 272.567 4.29848C272.528 4.32303 272.493 4.34758 272.454 4.37213C271.644 4.88768 270.814 5.42287 270.019 5.93352C268.418 6.96953 266.758 8.03991 265.084 9.04646C264.966 9.1152 264.853 9.18885 264.735 9.25759C264.166 9.60129 263.596 9.9499 263.027 10.2936C262.457 10.6373 261.888 10.981 261.318 11.3296C260.287 11.9532 259.261 12.5768 258.23 13.2003C248.282 19.2151 238.005 25.441 227.822 31.4607C223.624 33.9402 219.117 33.9893 215.139 31.5883C213.868 30.8224 212.768 29.9287 211.835 28.9173C211.83 29.9631 211.825 31.004 211.82 32.0302C211.84 33.7585 211.869 35.4869 211.914 37.2054C212.002 40.7111 213.799 43.6964 216.971 45.6113C220.57 47.7815 223.874 46.7308 226.01 45.4689C236.174 39.464 246.441 33.2479 256.374 27.2331C258.662 25.8485 260.95 24.4639 263.238 23.0793C264.863 22.0973 266.503 21.0416 268.084 20.0203C268.889 19.4999 269.719 18.9647 270.544 18.4442C270.883 18.2331 271.202 17.9974 271.501 17.7421C271.958 17.3591 272.375 16.9369 272.749 16.4753C273.127 16.0138 273.456 15.5129 273.74 14.9876C274.246 14.0399 274.595 12.999 274.762 11.8992C275.174 9.18394 274.408 6.45398 272.665 4.41141Z" fill="#F6F7FE"/>
<path d="M41.0939 32.7776C41.0881 32.7843 41.0823 32.7909 41.0773 32.7968C41.0706 32.7926 41.0648 32.7884 41.0582 32.7843C40.9209 32.6969 40.7803 32.6063 40.6455 32.5197C40.3743 32.3442 40.0932 32.1629 39.8095 31.9923C39.7895 31.9807 39.7704 31.9682 39.7504 31.9566C39.6539 31.8983 39.5574 31.8393 39.4609 31.781C39.3644 31.7228 39.2679 31.6646 39.1714 31.6055C38.9967 31.4998 38.8229 31.3942 38.6482 31.2885C36.9628 30.2695 35.2216 29.2146 33.4963 28.1947C32.785 27.7746 32.0213 27.7663 31.3475 28.1731C31.1321 28.3029 30.9457 28.4543 30.7877 28.6257C30.7868 28.4485 30.786 28.2721 30.7852 28.0983C30.7885 27.8054 30.7935 27.5126 30.801 27.2214C30.8159 26.6275 31.1204 26.1217 31.6578 25.7972C32.2676 25.4295 32.8274 25.6076 33.1893 25.8214C34.9113 26.8388 36.6508 27.8919 38.3337 28.911C38.7214 29.1456 39.109 29.3802 39.4967 29.6148C39.7721 29.7812 40.0499 29.96 40.3178 30.1331C40.4542 30.2212 40.5948 30.3119 40.7346 30.4001C40.792 30.4359 40.846 30.4758 40.8968 30.519C40.9741 30.5839 41.0448 30.6555 41.1081 30.7337C41.1721 30.8119 41.2279 30.8967 41.2761 30.9857C41.3618 31.1463 41.4209 31.3227 41.4491 31.509C41.519 31.969 41.3892 32.4316 41.0939 32.7776Z" fill="#5466F9"/>
<path d="M30.7977 33.9354C30.7977 34.244 30.7977 34.5543 30.7977 34.8654C30.7977 34.9952 30.7977 35.1258 30.7977 35.2556V34.3671H30.786C30.7852 34.0227 30.7835 33.6767 30.7819 33.3397C30.7777 32.5253 30.7735 31.6901 30.7835 30.8591C30.7868 30.6236 30.791 30.389 30.7968 30.1553C30.7968 30.285 30.7968 30.4148 30.7968 30.5446C30.7968 31.1935 30.7968 31.8548 30.7968 32.5178V33.002C30.7977 33.3106 30.7977 33.6226 30.7977 33.9354Z" fill="#5466F9"/>
<path d="M30.784 28.6261C30.7823 28.6285 30.7798 28.631 30.7773 28.6327C30.7782 28.4547 30.7798 28.2767 30.7815 28.0986C30.7823 28.2733 30.7832 28.4497 30.784 28.6261Z" fill="#5466F9"/>
<path d="M30.798 33.0015V32.5173C30.798 32.2703 30.798 32.024 30.798 31.7769V31.4766H30.7863C30.7855 31.2703 30.7855 31.064 30.7838 30.8594C30.7738 31.6904 30.7772 32.5256 30.7821 33.3401C30.7838 33.677 30.7855 34.0231 30.7863 34.3675H30.7971V35.2559C30.7971 35.1261 30.7971 34.9955 30.7971 34.8658C30.7971 34.5546 30.7971 34.2443 30.7971 33.9357C30.798 33.6221 30.798 33.3101 30.798 33.0015Z" fill="#5466F9"/>
<path d="M30.7977 33C30.7977 33.3087 30.7977 33.6198 30.7977 33.9334C30.7977 34.2421 30.7977 34.5524 30.7977 34.8635C30.7977 34.8635 30.7977 34.8635 30.7977 34.8626V34.3652H30.786C30.7852 34.0208 30.7835 33.6747 30.7819 33.3378C30.7777 32.5234 30.7735 31.6882 30.7835 30.8571C30.7868 30.6217 30.791 30.3871 30.7968 30.1533C30.7968 30.2831 30.7968 30.4129 30.7968 30.5426C30.7968 31.1915 30.7968 31.8529 30.7968 32.5159V33H30.7977Z" fill="#5466F9"/>
<path d="M30.7879 28.6251C30.7862 28.6276 30.7837 28.6301 30.7812 28.6317C30.7821 28.4537 30.7837 28.2757 30.7854 28.0977C30.7862 28.2724 30.7871 28.4487 30.7879 28.6251Z" fill="#5466F9"/>
<path d="M41.2739 30.0527C41.2048 29.9953 41.1316 29.9421 41.0543 29.893C40.917 29.8057 40.7764 29.715 40.6416 29.6276C40.3704 29.4521 40.0893 29.2708 39.8056 29.1002C39.4179 28.8656 39.0303 28.631 38.6434 28.3964C36.9597 27.3774 35.2177 26.3234 33.4932 25.3043C32.7819 24.8834 32.0183 24.8759 31.3444 25.2827C31.1281 25.4133 30.9393 25.5663 30.7812 25.7386C30.7846 25.4133 30.7896 25.088 30.7979 24.7644C30.8129 24.1704 31.1173 23.6647 31.6547 23.3402C32.2645 22.9725 32.8244 23.1505 33.1862 23.3643C34.9074 24.3817 36.6469 25.4349 38.3298 26.454C38.7175 26.6886 39.1051 26.9232 39.4936 27.1578C39.769 27.3241 40.0468 27.503 40.3147 27.676C40.4511 27.7642 40.5917 27.8549 40.7315 27.9431C41.1166 28.1876 41.377 28.5911 41.4461 29.052C41.4993 29.4022 41.4369 29.7524 41.2739 30.0527Z" fill="#5466F9"/>
<path d="M30.7963 33.8672C30.7971 33.4688 30.7971 33.0686 30.7971 32.6685V32.5204C30.7971 31.8574 30.7971 31.196 30.7971 30.5472C30.7971 30.4174 30.7971 30.2876 30.7971 30.1578C30.7913 30.3916 30.7871 30.6262 30.7838 30.8616C30.7738 31.6927 30.7772 32.5279 30.7821 33.3423C30.7838 33.6792 30.7855 34.0253 30.7863 34.3697H30.7971V35.2582C30.7971 35.1284 30.7971 34.9978 30.7971 34.868C30.7971 34.5569 30.7971 34.2466 30.7971 33.938C30.7971 33.9147 30.7963 33.8914 30.7963 33.8672ZM30.7971 35.3538V35.333C30.7971 35.3397 30.7971 35.3463 30.7971 35.3538ZM30.783 28.1006C30.7813 28.2786 30.7796 28.4566 30.7788 28.6347C30.7813 28.6322 30.783 28.6305 30.7855 28.628C30.7846 28.4508 30.7838 28.2745 30.783 28.1006Z" fill="#5466F9"/>
<path d="M30.7971 33.004V32.5198C30.7971 31.8568 30.7971 31.1954 30.7971 30.5466C30.7971 30.4168 30.7971 30.287 30.7971 30.1572C30.7913 30.391 30.7871 30.6256 30.7838 30.861C30.7738 31.6921 30.7772 32.5273 30.7821 33.3417C30.7838 33.6786 30.7855 34.0247 30.7863 34.3691H30.7971V35.2575C30.7971 35.1278 30.7971 34.9972 30.7971 34.8674C30.7971 34.5563 30.7971 34.246 30.7971 33.9373C30.7971 33.6245 30.7971 33.3126 30.7971 33.004ZM30.7963 35.3532C30.7963 35.6776 30.7955 36.0012 30.7955 36.324C30.7955 36.3465 30.7963 36.3698 30.7963 36.3922V35.8948C30.7971 35.7142 30.7963 35.5337 30.7963 35.3532V35.3324C30.7963 35.3391 30.7963 35.3457 30.7963 35.3532Z" fill="#5466F9"/>
<path d="M41.0915 35.6684C40.9692 35.8123 40.8328 35.9321 40.698 36.0145C37.828 37.7772 35.4729 39.2172 33.2851 40.5466C32.5106 41.0174 31.5539 40.8086 31.0581 40.0616C30.8817 39.7954 30.796 39.5184 30.7969 39.2131C30.7977 38.7472 30.7977 38.2772 30.7977 37.8088C30.7977 37.6466 30.7977 37.4852 30.7977 37.3239C30.7977 37.0119 30.7977 36.6999 30.7977 36.3913V35.8938C30.7977 35.7133 30.7977 35.5328 30.7977 35.3523V35.3207C30.7977 35.2999 30.7977 35.2782 30.7977 35.2574C30.7977 35.1277 30.7977 34.9971 30.7977 34.8673C30.7977 34.5562 30.7977 34.2459 30.7977 33.9372C30.7977 33.6236 30.7977 33.3125 30.7977 33.0039V32.5197C30.7977 31.8567 30.7977 31.1953 30.7977 30.5465C30.7977 30.4167 30.7977 30.2869 30.7977 30.1571C30.7977 30.1422 30.7985 30.1272 30.7985 30.113C30.8135 29.5191 31.118 29.0133 31.6554 28.6888C32.2652 28.3212 32.825 28.4992 33.1869 28.713C34.9089 29.7312 36.6492 30.7844 38.333 31.8034C38.4187 31.855 38.5043 31.9074 38.5909 31.959C38.6874 32.0172 38.7839 32.0763 38.8804 32.1345C38.9769 32.1928 39.0733 32.2518 39.1698 32.3101C39.278 32.3758 39.3861 32.4407 39.4943 32.5064C39.7696 32.6728 40.0475 32.8525 40.3154 33.0247C40.4019 33.0812 40.4909 33.1378 40.5799 33.1952C40.6306 33.2276 40.6806 33.2601 40.7313 33.2917C40.7737 33.3191 40.8153 33.3474 40.8544 33.379C40.9359 33.4423 41.0108 33.5146 41.0782 33.592C41.2712 33.8166 41.4001 34.0961 41.4459 34.3998C41.5166 34.8598 41.3868 35.3215 41.0915 35.6684Z" fill="#5466F9"/>
<path d="M64.6371 36.6977C65.0905 36.9198 65.5297 37.1352 65.9939 37.3632C65.7078 38.0254 65.301 38.5561 64.7627 38.9812C63.8094 39.7349 62.7221 40.0918 61.5017 40.1026C60.313 40.1134 59.2348 39.8081 58.269 39.1193C57.2042 38.3589 56.5046 37.3449 56.1161 36.0937C55.9272 35.4864 55.8507 34.8642 55.8557 34.2486C55.8665 32.8602 56.2833 31.5874 57.1634 30.4876C57.9812 29.4652 59.0036 28.7565 60.3121 28.5427C62.2563 28.224 63.9308 28.734 65.2169 30.2738C65.6895 30.8403 65.9715 31.52 66.162 32.2296C66.3583 32.9617 66.4423 33.7104 66.4107 34.4699C66.4066 34.5705 66.3849 34.6704 66.3675 34.8018C66.2244 34.8159 66.0988 34.8384 65.9731 34.8384C64.4075 34.8409 62.8427 34.8426 61.2771 34.8367C61.0966 34.8359 60.9119 34.8093 60.7372 34.766C60.1366 34.6179 59.8013 34.0439 59.9486 33.3693C60.7281 33.346 61.52 33.3626 62.312 33.3593C63.1048 33.356 63.8976 33.3585 64.7128 33.3585C64.7369 33.0582 64.6596 32.8111 64.5914 32.5682C64.3609 31.7421 63.9342 31.0466 63.2271 30.5334C62.8702 30.2746 62.4734 30.1183 62.0508 30.0317C61.0018 29.8163 60.0193 29.991 59.1708 30.6565C58.1534 31.4543 57.5894 32.5091 57.5594 33.8143C57.5444 34.4632 57.5353 35.1121 57.7083 35.7526C58.1201 37.28 59.5676 38.6002 61.3495 38.5927C62.1123 38.5894 62.8219 38.4496 63.4675 38.0287C63.7786 37.8257 64.039 37.5786 64.2503 37.2758C64.3734 37.0936 64.494 36.9106 64.6371 36.6977Z" fill="#41415A"/>
<path d="M94.742 34.487C94.6912 33.4904 94.8942 32.5429 95.3626 31.6636C96.1504 30.1845 97.3491 29.1887 98.9904 28.806C101.239 28.2811 103.175 28.8784 104.704 30.6129C105.458 31.4681 105.891 32.4963 106.035 33.6426C106.243 35.3014 105.849 36.8013 104.842 38.1215C103.989 39.2388 102.861 39.9317 101.454 40.1821C100.133 40.4167 98.884 40.252 97.7118 39.6106C96.1329 38.7463 95.1679 37.4177 94.8152 35.6508C94.7869 35.5111 94.752 35.3705 94.7453 35.2282C94.7337 34.982 94.742 34.7341 94.742 34.487ZM104.373 34.4986C104.379 33.6568 104.179 32.8657 103.751 32.1494C102.923 30.7651 101.731 30.0297 100.069 30.1437C98.7916 30.2319 97.8033 30.8192 97.1328 31.8815C96.2094 33.3432 96.1487 34.898 96.8558 36.4619C97.3375 37.5284 98.1311 38.2904 99.2816 38.6248C99.7707 38.7671 100.271 38.7987 100.783 38.7579C101.398 38.7097 101.961 38.5308 102.46 38.1848C103.746 37.2946 104.336 36.0376 104.373 34.4986Z" fill="#41415A"/>
<path d="M69.4688 40.0596C69.4688 36.3269 69.4688 32.6084 69.4688 28.8931C69.7549 28.8025 70.5685 28.7892 71.0011 28.8707C71.0859 29.1652 71.0319 29.4771 71.041 29.7841C71.0502 30.0911 71.0427 30.398 71.0427 30.789C71.1891 30.5994 71.2864 30.4821 71.3729 30.3581C71.9902 29.4738 72.8263 28.8857 73.8844 28.7076C75.0499 28.5113 76.1954 28.5987 77.2236 29.2916C77.9607 29.7874 78.4066 30.4954 78.6911 31.3081C78.8849 31.8622 78.9556 32.442 78.9523 33.036C78.9398 35.2371 78.9473 37.4383 78.9473 39.6395C78.9473 39.7676 78.9473 39.8957 78.9473 40.0247C78.6453 40.1611 78.4041 40.0529 78.182 39.9265C77.5364 39.5596 77.2993 38.9615 77.2943 38.2544C77.2868 37.2254 77.2927 36.1963 77.2918 35.1673C77.291 34.5026 77.2927 33.8387 77.2868 33.1741C77.2819 32.6325 77.1604 32.12 76.905 31.6376C76.455 30.7865 75.7537 30.3365 74.7987 30.2233C74.3361 30.1684 73.8861 30.1743 73.4485 30.3057C72.1932 30.685 71.4853 31.576 71.1933 32.8188C71.1259 33.1067 71.1101 33.4111 71.1084 33.709C71.1001 35.2463 71.1001 36.7828 71.1067 38.3201C71.1092 38.9374 70.8796 39.4349 70.3955 39.8117C70.1334 40.0155 69.8398 40.137 69.4688 40.0596Z" fill="#41415A"/>
<path d="M91.1824 36.0846C91.6774 36.2543 92.1433 36.4132 92.649 36.587C92.6191 36.7376 92.6158 36.8665 92.5675 36.9764C91.8463 38.6202 90.6192 39.7074 88.8756 40.1267C87.4115 40.4794 85.974 40.3131 84.6504 39.5452C83.1181 38.6559 82.2779 37.2858 81.9743 35.5696C81.7754 34.4449 81.857 33.3318 82.2804 32.2704C82.99 30.4926 84.2561 29.2947 86.1295 28.8055C87.6644 28.4046 89.1268 28.6283 90.4878 29.4411C91.5518 30.0767 92.3645 31.149 92.6016 32.2321C92.5035 32.2662 92.402 32.3236 92.2955 32.3352C91.6807 32.401 91.1334 32.2554 90.6916 31.797C90.4038 31.4984 90.1367 31.1714 89.8131 30.9169C88.0695 29.5426 85.2769 29.9918 84.1255 32.1805C83.7911 32.8161 83.5823 33.4899 83.5756 34.1945C83.5598 35.7942 84.0398 37.1943 85.4133 38.161C85.9224 38.5195 86.4922 38.7183 87.1245 38.7549C87.6868 38.7874 88.235 38.7583 88.7808 38.606C89.487 38.4097 89.9853 37.943 90.3963 37.379C90.655 37.0246 90.848 36.6228 91.071 36.2426C91.0976 36.1994 91.13 36.1594 91.1824 36.0846Z" fill="#41415A"/>
<path d="M45.7422 23.626C46.7713 23.7033 47.4044 24.3963 47.4501 25.4694C47.4551 25.5867 47.4518 25.704 47.4518 25.8205C47.4518 29.8427 47.4518 33.8657 47.4518 37.8879C47.4518 38.0426 47.4518 38.1982 47.4518 38.4053C47.6273 38.4128 47.777 38.4245 47.9268 38.4245C50.1305 38.4253 52.3341 38.4253 54.5378 38.4253C54.69 38.4253 54.8423 38.4253 55.0403 38.4253C55.0527 39.0035 55.0527 39.5267 55.0403 40.0724C51.8991 40.0724 48.8152 40.0724 45.7372 40.0724C45.6316 39.7255 45.6358 23.9529 45.7422 23.626Z" fill="#41415A"/>
<path d="M208.893 25.6248V23.8551H210.374C210.535 23.8551 210.686 23.8655 210.826 23.8863C210.972 23.9019 211.099 23.9409 211.208 24.0033C211.318 24.0656 211.403 24.154 211.466 24.2683C211.528 24.3827 211.559 24.5386 211.559 24.7361C211.559 25.0323 211.466 25.2558 211.279 25.4066C211.097 25.5521 210.795 25.6248 210.374 25.6248H208.893ZM208.152 23.2314V28.7979H210.842C211.117 28.7979 211.359 28.7537 211.567 28.6653C211.78 28.5718 211.957 28.4522 212.097 28.3067C212.243 28.156 212.352 27.9845 212.425 27.7922C212.497 27.5999 212.534 27.4024 212.534 27.1997C212.534 26.8566 212.443 26.5656 212.261 26.3265C212.079 26.0874 211.817 25.9315 211.473 25.8587V25.8431C211.739 25.7392 211.941 25.5807 212.082 25.3676C212.227 25.1493 212.3 24.892 212.3 24.5958C212.3 24.3151 212.235 24.0786 212.105 23.8863C211.98 23.694 211.827 23.5433 211.645 23.4341C211.562 23.3822 211.46 23.3432 211.341 23.3172C211.227 23.2912 211.102 23.273 210.967 23.2626C210.832 23.247 210.694 23.2392 210.554 23.2392C210.418 23.234 210.291 23.2314 210.172 23.2314H208.152ZM208.893 28.1742V26.2485H210.585C210.741 26.2485 210.891 26.2641 211.037 26.2953C211.182 26.3213 211.31 26.3707 211.419 26.4434C211.533 26.511 211.624 26.6046 211.692 26.7241C211.759 26.8436 211.793 26.9944 211.793 27.1763C211.793 27.4881 211.7 27.7324 211.512 27.9091C211.331 28.0858 211.076 28.1742 210.748 28.1742H208.893Z" fill="#41415A"/>
<path d="M216.717 28.7979V24.7673H216.054V27.0437C216.054 27.2256 216.028 27.3946 215.976 27.5505C215.93 27.7012 215.857 27.8337 215.758 27.9481C215.659 28.0624 215.534 28.1508 215.384 28.2132C215.238 28.2755 215.064 28.3067 214.861 28.3067C214.607 28.3067 214.407 28.2339 214.261 28.0884C214.116 27.9429 214.043 27.7454 214.043 27.4959V24.7673H213.38V27.418C213.38 27.6362 213.401 27.8363 213.443 28.0183C213.489 28.195 213.567 28.3483 213.676 28.4782C213.786 28.6082 213.929 28.7095 214.105 28.7823C214.282 28.8498 214.503 28.8836 214.768 28.8836C215.064 28.8836 215.321 28.8264 215.54 28.7121C215.758 28.5926 215.937 28.4081 216.078 28.1586H216.093V28.7979H216.717Z" fill="#41415A"/>
<path d="M218.118 27.5271H217.455C217.465 27.7766 217.517 27.9897 217.611 28.1664C217.704 28.3379 217.829 28.4782 217.985 28.5874C218.141 28.6913 218.32 28.7667 218.523 28.8135C218.726 28.8602 218.939 28.8836 219.162 28.8836C219.365 28.8836 219.568 28.8628 219.77 28.8212C219.978 28.7849 220.163 28.7173 220.324 28.6186C220.49 28.5198 220.623 28.3899 220.721 28.2287C220.825 28.0676 220.877 27.8649 220.877 27.6206C220.877 27.4283 220.838 27.2672 220.76 27.1373C220.688 27.0074 220.589 26.9008 220.464 26.8177C220.345 26.7293 220.204 26.6591 220.043 26.6072C219.887 26.5552 219.726 26.511 219.56 26.4746C219.404 26.4382 219.248 26.4045 219.092 26.3733C218.936 26.3369 218.796 26.2953 218.671 26.2485C218.546 26.1966 218.442 26.1342 218.359 26.0614C218.281 25.9835 218.242 25.8873 218.242 25.773C218.242 25.669 218.268 25.5859 218.32 25.5235C218.372 25.4559 218.44 25.404 218.523 25.3676C218.606 25.326 218.697 25.2974 218.796 25.2818C218.9 25.2662 219.001 25.2584 219.1 25.2584C219.209 25.2584 219.316 25.2714 219.42 25.2974C219.529 25.3182 219.627 25.3546 219.716 25.4066C219.804 25.4585 219.877 25.5287 219.934 25.6171C219.991 25.7002 220.025 25.8068 220.035 25.9367H220.698C220.683 25.6924 220.631 25.4897 220.542 25.3286C220.454 25.1623 220.334 25.0323 220.184 24.9388C220.038 24.84 219.869 24.7725 219.677 24.7361C219.485 24.6945 219.274 24.6737 219.045 24.6737C218.869 24.6737 218.689 24.6971 218.507 24.7439C218.331 24.7855 218.17 24.853 218.024 24.9466C217.884 25.0349 217.767 25.1519 217.673 25.2974C217.585 25.4429 217.541 25.6171 217.541 25.8198C217.541 26.0796 217.606 26.2823 217.736 26.4278C217.866 26.5734 218.027 26.6877 218.219 26.7709C218.416 26.8488 218.63 26.9112 218.858 26.958C219.087 26.9996 219.297 27.0489 219.49 27.1061C219.687 27.1581 219.851 27.2282 219.981 27.3166C220.111 27.405 220.176 27.5349 220.176 27.7064C220.176 27.8311 220.145 27.9351 220.082 28.0183C220.02 28.0962 219.939 28.156 219.841 28.1976C219.747 28.2391 219.643 28.2677 219.529 28.2833C219.414 28.2989 219.305 28.3067 219.201 28.3067C219.066 28.3067 218.934 28.2937 218.804 28.2677C218.679 28.2417 218.565 28.2002 218.461 28.143C218.362 28.0806 218.281 28.0001 218.219 27.9013C218.157 27.7974 218.123 27.6726 218.118 27.5271Z" fill="#41415A"/>
<path d="M222.312 24.0422V23.2314H221.649V24.0422H222.312ZM221.649 24.7673V28.7979H222.312V24.7673H221.649Z" fill="#41415A"/>
<path d="M223.338 24.7673V28.7979H224.001V26.5214C224.001 26.3395 224.025 26.1732 224.071 26.0224C224.123 25.8665 224.199 25.7314 224.297 25.6171C224.396 25.5027 224.518 25.4144 224.664 25.352C224.815 25.2896 224.991 25.2584 225.194 25.2584C225.449 25.2584 225.649 25.3312 225.794 25.4767C225.94 25.6222 226.013 25.8198 226.013 26.0692V28.7979H226.675V26.1472C226.675 25.9289 226.652 25.7314 226.605 25.5547C226.563 25.3728 226.488 25.2169 226.379 25.0869C226.27 24.957 226.127 24.8556 225.95 24.7829C225.773 24.7101 225.553 24.6737 225.287 24.6737C224.69 24.6737 224.253 24.918 223.978 25.4066H223.962V24.7673H223.338Z" fill="#41415A"/>
<path d="M230.469 26.3967H228.154C228.164 26.2407 228.198 26.0952 228.255 25.9601C228.312 25.8198 228.39 25.6976 228.489 25.5937C228.588 25.4897 228.705 25.4092 228.84 25.352C228.98 25.2896 229.136 25.2584 229.308 25.2584C229.474 25.2584 229.625 25.2896 229.76 25.352C229.9 25.4092 230.02 25.4897 230.118 25.5937C230.222 25.6924 230.303 25.812 230.36 25.9523C230.423 26.0926 230.459 26.2407 230.469 26.3967ZM231.109 27.5193H230.454C230.397 27.7844 230.277 27.9819 230.095 28.1118C229.918 28.2417 229.69 28.3067 229.409 28.3067C229.191 28.3067 229.001 28.2703 228.84 28.1976C228.679 28.1248 228.546 28.0286 228.442 27.9091C228.338 27.7844 228.263 27.644 228.216 27.4881C228.169 27.327 228.149 27.1581 228.154 26.9814H231.171C231.181 26.7371 231.158 26.4798 231.101 26.2096C231.049 25.9393 230.95 25.6898 230.805 25.4611C230.664 25.2324 230.474 25.0453 230.235 24.8998C230.002 24.7491 229.705 24.6737 229.347 24.6737C229.071 24.6737 228.817 24.7257 228.583 24.8296C228.354 24.9336 228.154 25.0791 227.982 25.2662C227.816 25.4533 227.686 25.6742 227.593 25.9289C227.499 26.1836 227.452 26.4642 227.452 26.7709C227.463 27.0775 227.507 27.3608 227.585 27.6206C227.668 27.8805 227.79 28.104 227.951 28.2911C228.112 28.4782 228.31 28.6237 228.544 28.7277C228.783 28.8316 229.063 28.8836 229.386 28.8836C229.843 28.8836 230.222 28.7693 230.524 28.5406C230.825 28.3119 231.02 27.9715 231.109 27.5193Z" fill="#41415A"/>
<path d="M232.263 27.5271H231.601C231.611 27.7766 231.663 27.9897 231.756 28.1664C231.85 28.3379 231.975 28.4782 232.131 28.5874C232.287 28.6913 232.466 28.7667 232.669 28.8135C232.871 28.8602 233.084 28.8836 233.308 28.8836C233.511 28.8836 233.713 28.8628 233.916 28.8212C234.124 28.7849 234.308 28.7173 234.47 28.6186C234.636 28.5198 234.768 28.3899 234.867 28.2287C234.971 28.0676 235.023 27.8649 235.023 27.6206C235.023 27.4283 234.984 27.2672 234.906 27.1373C234.833 27.0074 234.735 26.9008 234.61 26.8177C234.49 26.7293 234.35 26.6591 234.189 26.6072C234.033 26.5552 233.872 26.511 233.706 26.4746C233.55 26.4382 233.394 26.4045 233.238 26.3733C233.082 26.3369 232.942 26.2953 232.817 26.2485C232.692 26.1966 232.588 26.1342 232.505 26.0614C232.427 25.9835 232.388 25.8873 232.388 25.773C232.388 25.669 232.414 25.5859 232.466 25.5235C232.518 25.4559 232.585 25.404 232.669 25.3676C232.752 25.326 232.843 25.2974 232.942 25.2818C233.045 25.2662 233.147 25.2584 233.246 25.2584C233.355 25.2584 233.461 25.2714 233.565 25.2974C233.674 25.3182 233.773 25.3546 233.861 25.4066C233.95 25.4585 234.023 25.5287 234.08 25.6171C234.137 25.7002 234.171 25.8068 234.181 25.9367H234.844C234.828 25.6924 234.776 25.4897 234.688 25.3286C234.599 25.1623 234.48 25.0323 234.329 24.9388C234.184 24.84 234.015 24.7725 233.822 24.7361C233.63 24.6945 233.42 24.6737 233.191 24.6737C233.014 24.6737 232.835 24.6971 232.653 24.7439C232.476 24.7855 232.315 24.853 232.17 24.9466C232.029 25.0349 231.912 25.1519 231.819 25.2974C231.731 25.4429 231.686 25.6171 231.686 25.8198C231.686 26.0796 231.751 26.2823 231.881 26.4278C232.011 26.5734 232.172 26.6877 232.365 26.7709C232.562 26.8488 232.775 26.9112 233.004 26.958C233.233 26.9996 233.443 27.0489 233.635 27.1061C233.833 27.1581 233.997 27.2282 234.127 27.3166C234.256 27.405 234.321 27.5349 234.321 27.7064C234.321 27.8311 234.29 27.9351 234.228 28.0183C234.165 28.0962 234.085 28.156 233.986 28.1976C233.893 28.2391 233.789 28.2677 233.674 28.2833C233.56 28.2989 233.451 28.3067 233.347 28.3067C233.212 28.3067 233.079 28.2937 232.949 28.2677C232.825 28.2417 232.71 28.2002 232.606 28.143C232.508 28.0806 232.427 28.0001 232.365 27.9013C232.302 27.7974 232.268 27.6726 232.263 27.5271Z" fill="#41415A"/>
<path d="M236.161 27.5271H235.499C235.509 27.7766 235.561 27.9897 235.655 28.1664C235.748 28.3379 235.873 28.4782 236.029 28.5874C236.185 28.6913 236.364 28.7667 236.567 28.8135C236.769 28.8602 236.982 28.8836 237.206 28.8836C237.409 28.8836 237.611 28.8628 237.814 28.8212C238.022 28.7849 238.206 28.7173 238.368 28.6186C238.534 28.5198 238.666 28.3899 238.765 28.2287C238.869 28.0676 238.921 27.8649 238.921 27.6206C238.921 27.4283 238.882 27.2672 238.804 27.1373C238.731 27.0074 238.633 26.9008 238.508 26.8177C238.388 26.7293 238.248 26.6591 238.087 26.6072C237.931 26.5552 237.77 26.511 237.604 26.4746C237.448 26.4382 237.292 26.4045 237.136 26.3733C236.98 26.3369 236.84 26.2953 236.715 26.2485C236.59 26.1966 236.486 26.1342 236.403 26.0614C236.325 25.9835 236.286 25.8873 236.286 25.773C236.286 25.669 236.312 25.5859 236.364 25.5235C236.416 25.4559 236.484 25.404 236.567 25.3676C236.65 25.326 236.741 25.2974 236.84 25.2818C236.943 25.2662 237.045 25.2584 237.144 25.2584C237.253 25.2584 237.359 25.2714 237.463 25.2974C237.572 25.3182 237.671 25.3546 237.759 25.4066C237.848 25.4585 237.921 25.5287 237.978 25.6171C238.035 25.7002 238.069 25.8068 238.079 25.9367H238.742C238.726 25.6924 238.674 25.4897 238.586 25.3286C238.498 25.1623 238.378 25.0323 238.227 24.9388C238.082 24.84 237.913 24.7725 237.721 24.7361C237.528 24.6945 237.318 24.6737 237.089 24.6737C236.912 24.6737 236.733 24.6971 236.551 24.7439C236.374 24.7855 236.213 24.853 236.068 24.9466C235.927 25.0349 235.81 25.1519 235.717 25.2974C235.629 25.4429 235.584 25.6171 235.584 25.8198C235.584 26.0796 235.649 26.2823 235.779 26.4278C235.909 26.5734 236.07 26.6877 236.263 26.7709C236.46 26.8488 236.673 26.9112 236.902 26.958C237.131 26.9996 237.341 27.0489 237.533 27.1061C237.731 27.1581 237.895 27.2282 238.025 27.3166C238.154 27.405 238.219 27.5349 238.219 27.7064C238.219 27.8311 238.188 27.9351 238.126 28.0183C238.064 28.0962 237.983 28.156 237.884 28.1976C237.791 28.2391 237.687 28.2677 237.572 28.2833C237.458 28.2989 237.349 28.3067 237.245 28.3067C237.11 28.3067 236.977 28.2937 236.847 28.2677C236.723 28.2417 236.608 28.2002 236.504 28.143C236.406 28.0806 236.325 28.0001 236.263 27.9013C236.2 27.7974 236.166 27.6726 236.161 27.5271Z" fill="#41415A"/>
<path d="M242.674 28.1742V23.8551H243.921C244.264 23.8551 244.552 23.9045 244.786 24.0033C245.02 24.0968 245.21 24.2371 245.355 24.4242C245.506 24.6062 245.613 24.8296 245.675 25.0947C245.743 25.3546 245.776 25.6508 245.776 25.9835C245.776 26.3265 245.74 26.6202 245.667 26.8644C245.6 27.1035 245.511 27.3036 245.402 27.4647C245.293 27.6258 245.168 27.7532 245.028 27.8467C244.893 27.9403 244.755 28.0131 244.615 28.065C244.474 28.1118 244.342 28.143 244.217 28.1586C244.092 28.169 243.988 28.1742 243.905 28.1742H242.674ZM241.933 23.2314V28.7979H243.843C244.306 28.7979 244.706 28.7329 245.044 28.603C245.381 28.473 245.659 28.2859 245.878 28.0416C246.096 27.7922 246.257 27.4881 246.361 27.1295C246.465 26.7657 246.517 26.3499 246.517 25.8821C246.517 24.9882 246.286 24.3229 245.823 23.8863C245.361 23.4497 244.701 23.2314 243.843 23.2314H241.933Z" fill="#41415A"/>
<path d="M250.112 26.3967H247.796C247.807 26.2407 247.841 26.0952 247.898 25.9601C247.955 25.8198 248.033 25.6976 248.132 25.5937C248.23 25.4897 248.347 25.4092 248.482 25.352C248.623 25.2896 248.779 25.2584 248.95 25.2584C249.117 25.2584 249.267 25.2896 249.402 25.352C249.543 25.4092 249.662 25.4897 249.761 25.5937C249.865 25.6924 249.945 25.812 250.003 25.9523C250.065 26.0926 250.101 26.2407 250.112 26.3967ZM250.751 27.5193H250.096C250.039 27.7844 249.919 27.9819 249.738 28.1118C249.561 28.2417 249.332 28.3067 249.052 28.3067C248.833 28.3067 248.644 28.2703 248.482 28.1976C248.321 28.1248 248.189 28.0286 248.085 27.9091C247.981 27.7844 247.906 27.644 247.859 27.4881C247.812 27.327 247.791 27.1581 247.796 26.9814H250.813C250.824 26.7371 250.8 26.4798 250.743 26.2096C250.691 25.9393 250.593 25.6898 250.447 25.4611C250.307 25.2324 250.117 25.0453 249.878 24.8998C249.644 24.7491 249.348 24.6737 248.989 24.6737C248.714 24.6737 248.459 24.7257 248.225 24.8296C247.996 24.9336 247.796 25.0791 247.625 25.2662C247.459 25.4533 247.329 25.6742 247.235 25.9289C247.141 26.1836 247.095 26.4642 247.095 26.7709C247.105 27.0775 247.149 27.3608 247.227 27.6206C247.31 27.8805 247.433 28.104 247.594 28.2911C247.755 28.4782 247.952 28.6237 248.186 28.7277C248.425 28.8316 248.706 28.8836 249.028 28.8836C249.486 28.8836 249.865 28.7693 250.166 28.5406C250.468 28.3119 250.663 27.9715 250.751 27.5193Z" fill="#41415A"/>
<path d="M251.524 23.2314V28.7979H252.186V28.2599H252.202C252.275 28.3795 252.363 28.4808 252.467 28.564C252.576 28.6419 252.691 28.7043 252.81 28.7511C252.93 28.7979 253.049 28.8316 253.169 28.8524C253.293 28.8732 253.405 28.8836 253.504 28.8836C253.811 28.8836 254.078 28.829 254.307 28.7199C254.541 28.6108 254.733 28.4626 254.884 28.2755C255.04 28.0832 255.154 27.8597 255.227 27.6051C255.305 27.3504 255.344 27.0801 255.344 26.7943C255.344 26.5084 255.305 26.2381 255.227 25.9835C255.149 25.7288 255.032 25.5053 254.876 25.313C254.725 25.1155 254.533 24.9596 254.299 24.8452C254.07 24.7309 253.8 24.6737 253.488 24.6737C253.208 24.6737 252.95 24.7257 252.717 24.8296C252.483 24.9284 252.311 25.0895 252.202 25.313H252.186V23.2314H251.524ZM254.642 26.7475C254.642 26.945 254.621 27.1373 254.58 27.3244C254.538 27.5115 254.471 27.6778 254.377 27.8233C254.284 27.9689 254.159 28.0858 254.003 28.1742C253.852 28.2625 253.662 28.3067 253.434 28.3067C253.205 28.3067 253.01 28.2651 252.849 28.182C252.688 28.0936 252.555 27.9793 252.451 27.8389C252.353 27.6986 252.28 27.5375 252.233 27.3556C252.186 27.1685 252.163 26.9762 252.163 26.7787C252.163 26.5916 252.184 26.4071 252.225 26.2251C252.272 26.0432 252.345 25.8821 252.444 25.7418C252.542 25.5963 252.67 25.4793 252.826 25.391C252.982 25.3026 253.171 25.2584 253.395 25.2584C253.608 25.2584 253.792 25.3 253.948 25.3832C254.109 25.4663 254.239 25.5781 254.338 25.7184C254.442 25.8587 254.517 26.0199 254.564 26.2018C254.616 26.3785 254.642 26.5604 254.642 26.7475Z" fill="#41415A"/>
<path d="M256.823 24.0422V23.2314H256.161V24.0422H256.823ZM256.161 24.7673V28.7979H256.823V24.7673H256.161Z" fill="#41415A"/>
<path d="M258.77 24.7673V23.5589H258.107V24.7673H257.421V25.352H258.107V27.9169C258.107 28.104 258.125 28.2547 258.162 28.3691C258.198 28.4834 258.253 28.5718 258.325 28.6341C258.403 28.6965 258.502 28.7407 258.622 28.7667C258.746 28.7875 258.895 28.7979 259.066 28.7979H259.573V28.2132H259.269C259.165 28.2132 259.079 28.2106 259.012 28.2054C258.949 28.195 258.9 28.1768 258.863 28.1508C258.827 28.1248 258.801 28.0884 258.785 28.0416C258.775 27.9949 258.77 27.9325 258.77 27.8545V25.352H259.573V24.7673H258.77Z" fill="#41415A"/>
<path fill-rule="evenodd" clip-rule="evenodd" d="M219.908 142.694C219.908 148.803 214.955 153.755 208.847 153.755C202.737 153.755 197.785 148.803 197.785 142.694C197.785 136.585 202.737 131.633 208.847 131.633C214.955 131.633 219.908 136.585 219.908 142.694Z" fill="#ED342B"/>
<path fill-rule="evenodd" clip-rule="evenodd" d="M208.847 147.431C206.373 141.823 204.558 136.584 204.558 136.584H200.766C200.766 136.584 203.074 143.309 207.362 151.718H210.331C214.619 143.309 216.928 136.584 216.928 136.584H213.135C213.135 136.584 211.321 141.823 208.847 147.431Z" fill="#FEFEFE"/>
<path fill-rule="evenodd" clip-rule="evenodd" d="M256.477 142.117C254.333 142.117 254.168 144.426 254.168 144.426H258.785C258.785 144.426 258.621 142.117 256.477 142.117ZM261.589 146.735H254.168C254.168 146.735 254.333 149.209 257.631 149.209C259.28 149.209 260.929 148.713 260.929 148.713L261.259 151.352C261.259 151.352 259.61 152.012 257.301 152.012C254.003 152.012 251.035 150.363 251.035 145.745C251.035 142.117 253.344 139.808 256.642 139.808C261.589 139.808 261.919 144.756 261.589 146.735ZM236.355 142.838L236.866 140.115C236.866 140.115 232.923 138.919 229.718 141.136V152.027H233.122V143.178C234.483 142.157 236.355 142.838 236.355 142.838ZM222.169 142.117C220.025 142.117 219.86 144.426 219.86 144.426H224.478C224.478 144.426 224.313 142.117 222.169 142.117ZM227.281 146.735H219.86C219.86 146.735 220.025 149.209 223.323 149.209C224.972 149.209 226.621 148.713 226.621 148.713L226.951 151.352C226.951 151.352 225.302 152.012 222.993 152.012C219.695 152.012 216.727 150.363 216.727 145.745C216.727 142.117 219.035 139.808 222.334 139.808C227.281 139.808 227.61 144.756 227.281 146.735ZM244.661 147.865C242.933 143.717 242.069 139.81 242.069 139.81L238.614 139.811C238.614 139.811 240.342 146.482 243.28 152.01H246.043C248.981 146.482 250.709 139.812 250.709 139.812H247.253C247.253 139.812 246.39 143.717 244.661 147.865Z" fill="#03435F"/>
</g>
<defs>
<filter id="filter0_dd_7822_58516" x="0.183594" y="0.298828" width="286.637" height="186.402" filterUnits="userSpaceOnUse" color-interpolation-filters="sRGB">
<feFlood flood-opacity="0" result="BackgroundImageFix"/>
<feColorMatrix in="SourceAlpha" type="matrix" values="0 0 0 0 0 0 0 0 0 0 0 0 0 0 0 0 0 0 127 0" result="hardAlpha"/>
<feOffset dy="4"/>
<feGaussianBlur stdDeviation="4"/>
<feColorMatrix type="matrix" values="0 0 0 0 0 0 0 0 0 0 0 0 0 0 0 0 0 0 0.06 0"/>
<feBlend mode="normal" in2="BackgroundImageFix" result="effect1_dropShadow_7822_58516"/>
<feColorMatrix in="SourceAlpha" type="matrix" values="0 0 0 0 0 0 0 0 0 0 0 0 0 0 0 0 0 0 127 0" result="hardAlpha"/>
<feOffset/>
<feGaussianBlur stdDeviation="2"/>
<feColorMatrix type="matrix" values="0 0 0 0 0 0 0 0 0 0 0 0 0 0 0 0 0 0 0.04 0"/>
<feBlend mode="normal" in2="effect1_dropShadow_7822_58516" result="effect2_dropShadow_7822_58516"/>
<feBlend mode="normal" in="SourceGraphic" in2="effect2_dropShadow_7822_58516" result="shape"/>
</filter>
</defs>
</svg>
