<svg width="16" height="16" viewBox="0 0 16 16" fill="none" xmlns="http://www.w3.org/2000/svg">
<path d="M14.667 4.33301H10.667"  stroke-miterlimit="10" stroke-linecap="round" stroke-linejoin="round"/>
<path d="M3.99967 4.33301H1.33301"  stroke-miterlimit="10" stroke-linecap="round" stroke-linejoin="round"/>
<path d="M6.66634 6.66667C7.95501 6.66667 8.99967 5.622 8.99967 4.33333C8.99967 3.04467 7.95501 2 6.66634 2C5.37768 2 4.33301 3.04467 4.33301 4.33333C4.33301 5.622 5.37768 6.66667 6.66634 6.66667Z"  stroke-miterlimit="10" stroke-linecap="round" stroke-linejoin="round"/>
<path d="M14.6667 11.667H12"  stroke-miterlimit="10" stroke-linecap="round" stroke-linejoin="round"/>
<path d="M5.33301 11.667H1.33301"  stroke-miterlimit="10" stroke-linecap="round" stroke-linejoin="round"/>
<path d="M9.33333 13.9997C10.622 13.9997 11.6667 12.955 11.6667 11.6663C11.6667 10.3777 10.622 9.33301 9.33333 9.33301C8.04467 9.33301 7 10.3777 7 11.6663C7 12.955 8.04467 13.9997 9.33333 13.9997Z"  stroke-miterlimit="10" stroke-linecap="round" stroke-linejoin="round"/>
</svg>
