<svg width="16" height="16" viewBox="0 0 16 16" fill="none" xmlns="http://www.w3.org/2000/svg">
<path d="M13.6663 7.533V4.69301C13.6663 2.00635 13.0397 1.33301 10.5197 1.33301H5.47968C2.95968 1.33301 2.33301 2.00635 2.33301 4.69301V12.1997C2.33301 13.973 3.30635 14.393 4.48635 13.1263L4.493 13.1197C5.03967 12.5397 5.873 12.5863 6.34633 13.2197L7.01967 14.1197" stroke-linecap="round" stroke-linejoin="round"/>
<path d="M5.33301 4.66699H10.6663" stroke-linecap="round" stroke-linejoin="round"/>
<path d="M6 7.33301H10" stroke-linecap="round" stroke-linejoin="round"/>
<path d="M12.141 9.84685L9.78101 12.2069C9.68768 12.3002 9.601 12.4735 9.581 12.6002L9.45433 13.5002C9.40766 13.8269 9.63434 14.0535 9.961 14.0069L10.861 13.8802C10.9877 13.8602 11.1677 13.7735 11.2543 13.6802L13.6143 11.3202C14.021 10.9135 14.2143 10.4402 13.6143 9.8402C13.021 9.24686 12.5477 9.44018 12.141 9.84685Z" stroke-miterlimit="10" stroke-linecap="round" stroke-linejoin="round"/>
<path d="M11.8008 10.1865C12.0008 10.9065 12.5608 11.4665 13.2808 11.6665" stroke-miterlimit="10" stroke-linecap="round" stroke-linejoin="round"/>
</svg>
