<svg width="16" height="16" viewBox="0 0 16 16" fill="none" xmlns="http://www.w3.org/2000/svg">
<path d="M6.74052 7.43359H4.97386C4.55386 7.43359 4.21387 7.77356 4.21387 8.19356V11.6069H6.74052V7.43359V7.43359Z" stroke-width="1.0625" stroke-miterlimit="10" stroke-linecap="round" stroke-linejoin="round"/>
<path d="M8.50771 4.40039H7.49436C7.07436 4.40039 6.73438 4.7404 6.73438 5.1604V11.6004H9.26105V5.1604C9.26105 4.7404 8.92771 4.40039 8.50771 4.40039Z" stroke-width="1.0625" stroke-miterlimit="10" stroke-linecap="round" stroke-linejoin="round"/>
<path d="M11.0323 8.56641H9.26562V11.5998H11.7923V9.32642C11.7856 8.90642 11.4456 8.56641 11.0323 8.56641Z" stroke-width="1.0625" stroke-miterlimit="10" stroke-linecap="round" stroke-linejoin="round"/>
<path d="M5.99967 14.6673H9.99967C13.333 14.6673 14.6663 13.334 14.6663 10.0007V6.00065C14.6663 2.66732 13.333 1.33398 9.99967 1.33398H5.99967C2.66634 1.33398 1.33301 2.66732 1.33301 6.00065V10.0007C1.33301 13.334 2.66634 14.6673 5.99967 14.6673Z" stroke-width="1.0625" stroke-linecap="round" stroke-linejoin="round"/>
</svg>
