<svg width="24" height="25" viewBox="0 0 24 25" fill="none" xmlns="http://www.w3.org/2000/svg">
<path d="M6.07974 8.51937L6.17196 9.51511C6.62505 9.47315 6.99268 9.13059 7.0665 8.68159L6.07974 8.51937ZM17.9203 8.51937L16.9335 8.68159C17.0073 9.13059 17.3749 9.47315 17.828 9.51511L17.9203 8.51937ZM3.44374 17.5732C3.90269 17.8804 4.52379 17.7574 4.83101 17.2985C5.13822 16.8395 5.01521 16.2184 4.55626 15.9112L3.44374 17.5732ZM19.4437 15.9112C18.9848 16.2184 18.8618 16.8395 19.169 17.2985C19.4762 17.7574 20.0973 17.8804 20.5563 17.5732L19.4437 15.9112ZM7.29289 15.7929C6.90237 16.1834 6.90237 16.8166 7.29289 17.2071C7.68342 17.5976 8.31658 17.5976 8.70711 17.2071L7.29289 15.7929ZM12 12.5L12.7071 11.7929C12.3166 11.4024 11.6834 11.4024 11.2929 11.7929L12 12.5ZM15.2929 17.2071C15.6834 17.5976 16.3166 17.5976 16.7071 17.2071C17.0976 16.8166 17.0976 16.1834 16.7071 15.7929L15.2929 17.2071ZM11 21.5C11 22.0523 11.4477 22.5 12 22.5C12.5523 22.5 13 22.0523 13 21.5H11ZM5.98752 7.52363C3.18973 7.78275 1 10.1351 1 13H3C3 11.1778 4.39329 9.67984 6.17196 9.51511L5.98752 7.52363ZM12 2.5C8.52264 2.5 5.6392 5.03459 5.09299 8.35715L7.0665 8.68159C7.45643 6.30968 9.51785 4.5 12 4.5V2.5ZM18.907 8.35715C18.3608 5.03459 15.4774 2.5 12 2.5V4.5C14.4822 4.5 16.5436 6.30968 16.9335 8.68159L18.907 8.35715ZM17.828 9.51511C19.6067 9.67984 21 11.1778 21 13H23C23 10.1351 20.8103 7.78275 18.0125 7.52363L17.828 9.51511ZM1 13C1 14.9079 1.97228 16.5883 3.44374 17.5732L4.55626 15.9112C3.61575 15.2817 3 14.2125 3 13H1ZM21 13C21 14.2125 20.3842 15.2817 19.4437 15.9112L20.5563 17.5732C22.0277 16.5883 23 14.9079 23 13H21ZM8.70711 17.2071L12.7071 13.2071L11.2929 11.7929L7.29289 15.7929L8.70711 17.2071ZM11.2929 13.2071L15.2929 17.2071L16.7071 15.7929L12.7071 11.7929L11.2929 13.2071ZM11 12.5V21.5H13V12.5H11Z" fill="#71748C"/>
</svg>
