<svg width="20" height="20" viewBox="0 0 20 20" fill="none" xmlns="http://www.w3.org/2000/svg">
<g clip-path="url(#clip0_14717_137581)">
<path d="M4.16808 11.6641H15.1145C15.9585 11.6641 16.3806 11.6641 16.7165 11.5067C17.0125 11.3681 17.2611 11.1455 17.4316 10.8667C17.6251 10.5502 17.6717 10.1307 17.7649 9.29188L18.2524 4.90435C18.2809 4.64813 18.2951 4.52002 18.2539 4.42086C18.2177 4.33378 18.153 4.26154 18.0705 4.21596C17.9765 4.16406 17.8476 4.16406 17.5898 4.16406H3.75142M1.66797 1.66406H2.70833C2.92885 1.66406 3.03911 1.66406 3.12538 1.706C3.20132 1.74292 3.26425 1.80204 3.30583 1.87553C3.35307 1.95901 3.35995 2.06905 3.3737 2.28914L4.1289 14.3723C4.14266 14.5924 4.14953 14.7024 4.19677 14.7859C4.23836 14.8594 4.30129 14.9185 4.37723 14.9555C4.46349 14.9974 4.57375 14.9974 4.79427 14.9974H15.8346M6.2513 17.9141H6.25964M13.7513 17.9141H13.7596M6.66797 17.9141C6.66797 18.1442 6.48142 18.3307 6.2513 18.3307C6.02118 18.3307 5.83464 18.1442 5.83464 17.9141C5.83464 17.6839 6.02118 17.4974 6.2513 17.4974C6.48142 17.4974 6.66797 17.6839 6.66797 17.9141ZM14.168 17.9141C14.168 18.1442 13.9814 18.3307 13.7513 18.3307C13.5212 18.3307 13.3346 18.1442 13.3346 17.9141C13.3346 17.6839 13.5212 17.4974 13.7513 17.4974C13.9814 17.4974 14.168 17.6839 14.168 17.9141Z" stroke="#1F2130" stroke-width="2" stroke-linecap="round" stroke-linejoin="round"/>
</g>
<defs>
<clipPath id="clip0_14717_137581">
<rect width="20" height="20" fill="white"/>
</clipPath>
</defs>
</svg>
