<svg width="30" height="31" viewBox="0 0 30 31" fill="none" xmlns="http://www.w3.org/2000/svg">
<path d="M3.33366 12.6667V11.9167C2.91945 11.9167 2.58366 12.2525 2.58366 12.6667H3.33366ZM26.667 12.6667H27.417C27.417 12.2525 27.0812 11.9167 26.667 11.9167V12.6667ZM26.667 29.3334V30.0834C27.0812 30.0834 27.417 29.7476 27.417 29.3334H26.667ZM3.33366 29.3334H2.58366C2.58366 29.7476 2.91945 30.0834 3.33366 30.0834V29.3334ZM18.3337 29.3334V30.0834C18.7479 30.0834 19.0837 29.7476 19.0837 29.3334H18.3337ZM11.667 29.3334H10.917C10.917 29.7476 11.2528 30.0834 11.667 30.0834V29.3334ZM1.66699 7.66671V6.91671C1.25278 6.91671 0.916992 7.25249 0.916992 7.66671H1.66699ZM28.3337 7.66671H29.0837C29.0837 7.25249 28.7479 6.91671 28.3337 6.91671V7.66671ZM28.3337 12.6667V13.4167C28.7479 13.4167 29.0837 13.0809 29.0837 12.6667H28.3337ZM1.66699 12.6667H0.916992C0.916992 13.0809 1.25278 13.4167 1.66699 13.4167L1.66699 12.6667ZM11.667 7.66671V6.91671C11.2528 6.91671 10.917 7.25249 10.917 7.66671H11.667ZM18.3337 7.66671H19.0837C19.0837 7.25249 18.7479 6.91671 18.3337 6.91671V7.66671ZM14.7768 7.41667L14.0524 7.22252L13.8582 7.94695L14.5827 8.1411L14.7768 7.41667ZM23.4371 2.41666L24.0866 2.04166L23.4371 2.41666ZM15.1042 7.41667L15.2983 8.1411L16.0228 7.94695L15.8286 7.22252L15.1042 7.41667ZM6.44394 2.41666L5.79442 2.04166L6.44394 2.41666ZM3.33366 13.4167H26.667V11.9167H3.33366V13.4167ZM25.917 12.6667V29.3334H27.417V12.6667H25.917ZM26.667 28.5834H3.33366V30.0834H26.667V28.5834ZM4.08366 29.3334V12.6667H2.58366V29.3334H4.08366ZM11.667 13.4167H18.3337V11.9167H11.667V13.4167ZM17.5837 12.6667V29.3334H19.0837V12.6667H17.5837ZM18.3337 28.5834H11.667V30.0834H18.3337V28.5834ZM12.417 29.3334V12.6667H10.917V29.3334H12.417ZM1.66699 8.41671H28.3337V6.91671H1.66699V8.41671ZM27.5837 7.66671V12.6667H29.0837V7.66671H27.5837ZM28.3337 11.9167H1.66699V13.4167H28.3337V11.9167ZM2.41699 12.6667V7.66671H0.916992V12.6667H2.41699ZM11.667 8.41671H18.3337V6.91671H11.667V8.41671ZM17.5837 7.66671V12.6667H19.0837V7.66671H17.5837ZM12.417 12.6667V7.66671H10.917V12.6667H12.417ZM15.5013 7.61082C15.9129 6.07497 17.3526 3.87638 18.9757 2.60223C19.7875 1.965 20.5431 1.64018 21.157 1.6409C21.6971 1.64154 22.2694 1.89416 22.7876 2.79166L24.0866 2.04166C23.3548 0.774068 22.3339 0.142288 21.1588 0.140902C20.0575 0.139603 18.9759 0.695135 18.0495 1.42233C16.1964 2.87702 14.556 5.34352 14.0524 7.22252L15.5013 7.61082ZM22.7876 2.79166C23.3058 3.68923 23.2384 4.31125 22.969 4.77931C22.6626 5.31137 22.0036 5.80336 21.0458 6.18777C19.1308 6.95642 16.507 7.10388 14.971 6.69223L14.5827 8.1411C16.4619 8.64473 19.4182 8.45739 21.6046 7.57982C22.6976 7.14112 23.7194 6.48214 24.2689 5.52771C24.8552 4.50928 24.8185 3.30929 24.0866 2.04166L22.7876 2.79166ZM15.8286 7.22252C15.325 5.34352 13.6846 2.87702 11.8315 1.42233C10.9051 0.695135 9.82348 0.139603 8.72222 0.140902C7.54709 0.142288 6.52626 0.774068 5.79442 2.04166L7.09346 2.79166C7.61163 1.89416 8.18394 1.64154 8.72399 1.6409C9.3379 1.64018 10.0935 1.965 10.9053 2.60223C12.5284 3.87638 13.9681 6.07497 14.3798 7.61082L15.8286 7.22252ZM5.79442 2.04166C5.06255 3.30929 5.02579 4.50928 5.6121 5.52771C6.16158 6.48214 7.18347 7.14112 8.27643 7.57982C10.4628 8.45739 13.4191 8.64473 15.2983 8.1411L14.91 6.69223C13.3741 7.10388 10.7502 6.95642 8.83518 6.18777C7.87746 5.80336 7.21838 5.31137 6.91207 4.77931C6.6426 4.31125 6.57524 3.68923 7.09346 2.79166L5.79442 2.04166Z" fill="#22B231"/>
</svg>
