<svg
  width="20"
  height="20"
  viewBox="0 0 20 20"
  fill="none"
  xmlns="http://www.w3.org/2000/svg"
>
  <path
    d="M10.75 14.1584C10.75 13.7442 10.4142 13.4084 10 13.4084C9.58579 13.4084 9.25 13.7442 9.25 14.1584H10.75ZM9.25 14.1667C9.25 14.5809 9.58579 14.9167 10 14.9167C10.4142 14.9167 10.75 14.5809 10.75 14.1667H9.25ZM9.25 11.6667C9.25 12.0809 9.58579 12.4167 10 12.4167C10.4142 12.4167 10.75 12.0809 10.75 11.6667H9.25ZM6.77587 7.45624C6.66802 7.85616 6.90479 8.2678 7.30472 8.37565C7.70465 8.4835 8.11628 8.24672 8.22413 7.84679L6.77587 7.45624ZM9.25 14.1584V14.1667H10.75V14.1584H9.25ZM11.75 8.25758C11.75 8.6813 11.5029 8.91034 10.8275 9.37086C10.2762 9.74672 9.25 10.3753 9.25 11.6667H10.75C10.75 11.2914 10.9738 11.0866 11.6725 10.6102C12.2471 10.2185 13.25 9.57627 13.25 8.25758H11.75ZM10 6.58333C11.0061 6.58333 11.75 7.35024 11.75 8.25758H13.25C13.25 6.48717 11.7995 5.08333 10 5.08333V6.58333ZM8.22413 7.84679C8.41099 7.1539 9.12844 6.58333 10 6.58333V5.08333C8.50448 5.08333 7.15295 6.05795 6.77587 7.45624L8.22413 7.84679ZM16.75 10C16.75 13.7279 13.7279 16.75 10 16.75V18.25C14.5563 18.25 18.25 14.5563 18.25 10H16.75ZM10 16.75C6.27208 16.75 3.25 13.7279 3.25 10H1.75C1.75 14.5563 5.44365 18.25 10 18.25V16.75ZM3.25 10C3.25 6.27208 6.27208 3.25 10 3.25V1.75C5.44365 1.75 1.75 5.44365 1.75 10H3.25ZM10 3.25C13.7279 3.25 16.75 6.27208 16.75 10H18.25C18.25 5.44365 14.5563 1.75 10 1.75V3.25Z"
    fill="#7A89FF"
  />
</svg>
