<svg
			width="3"
			height="16"
			viewBox="0 0 3 16"
			fill="none"
			xmlns="http://www.w3.org/2000/svg"
		>
			<path
				d="M3 14.5C3 13.6716 2.32843 13 1.5 13C0.671573 13 0 13.6716 0 14.5C0 15.3284 0.671573 16 1.5 16C2.32843 16 3 15.3284 3 14.5Z"
				fill="fill-current"
			/>
			<path
				d="M3 7.5C3 6.67157 2.32843 6 1.5 6C0.671573 6 0 6.67157 0 7.5C0 8.32843 0.671573 9 1.5 9C2.32843 9 3 8.32843 3 7.5Z"
				fill="fill-current"
			/>
			<path
				d="M3 1.5C3 0.671573 2.32843 0 1.5 0C0.671573 0 0 0.671573 0 1.5C0 2.32843 0.671573 3 1.5 3C2.32843 3 3 2.32843 3 1.5Z"
				fill="fill-current"
			/>
		</svg>
