
      <svg
        width="27"
        height="26"
        viewBox="0 0 27 26"
        fill="none"
        xmlns="http://www.w3.org/2000/svg"

      >
        <path
          d="M1 13C1 15.4723 1.73311 17.889 3.10663 19.9446C4.48015 22.0002 6.43238 23.6024 8.71646 24.5485C11.0005 25.4946 13.5139 25.7421 15.9386 25.2598C18.3634 24.7775 20.5907 23.587 22.3388 21.8388C24.087 20.0907 25.2775 17.8634 25.7598 15.4386C26.2421 13.0139 25.9946 10.5005 25.0485 8.21646C24.1024 5.93238 22.5002 3.98015 20.4446 2.60663C18.389 1.23311 15.9723 0.5 13.5 0.5C10.1848 0.5 7.00537 1.81696 4.66117 4.16117C2.31696 6.50537 1 9.68479 1 13ZM22.356 19.675C21.3212 21.0445 19.9829 22.1553 18.4462 22.9202C16.9096 23.685 15.2165 24.0831 13.5 24.0831C11.7835 24.0831 10.0904 23.685 8.55378 22.9202C7.01714 22.1553 5.67882 21.0445 4.644 19.675C5.67882 18.3055 7.01714 17.1947 8.55378 16.4298C10.0904 15.665 11.7835 15.2669 13.5 15.2669C15.2165 15.2669 16.9096 15.665 18.4462 16.4298C19.9829 17.1947 21.3212 18.3055 22.356 19.675ZM2.418 13C2.44575 10.0792 3.62548 7.28753 5.70065 5.23198C7.77582 3.17643 10.5786 2.02327 13.4995 2.02327C16.4204 2.02327 19.2232 3.17643 21.2984 5.23198C23.3735 7.28753 24.5533 10.0792 24.581 13C24.5921 14.9017 24.1049 16.7731 23.168 18.428C21.9972 16.9948 20.5223 15.8398 18.8503 15.0467C17.1782 14.2536 15.3507 13.8421 13.5 13.8421C11.6493 13.8421 9.82184 14.2536 8.14975 15.0467C6.47767 15.8398 5.00283 16.9948 3.832 18.428C2.91099 16.7667 2.42461 14.8996 2.418 13ZM9.067 8.346C9.067 9.22276 9.32699 10.0798 9.81409 10.8088C10.3012 11.5378 10.9935 12.106 11.8036 12.4416C12.6136 12.7771 13.5049 12.8649 14.3648 12.6938C15.2248 12.5228 16.0146 12.1006 16.6346 11.4806C17.2546 10.8606 17.6768 10.0708 17.8478 9.21084C18.0189 8.35092 17.9311 7.45959 17.5956 6.64956C17.26 5.83954 16.6918 5.1472 15.9628 4.6601C15.2338 4.17299 14.3768 3.913 13.5 3.913C12.3253 3.91617 11.1996 4.38423 10.3689 5.21489C9.53823 6.04556 9.07017 7.17127 9.067 8.346ZM10.485 8.346C10.485 7.74989 10.6618 7.16716 10.993 6.67151C11.3241 6.17586 11.7949 5.78955 12.3456 5.56143C12.8963 5.3333 13.5023 5.27362 14.087 5.38991C14.6717 5.50621 15.2087 5.79326 15.6302 6.21478C16.0517 6.6363 16.3388 7.17334 16.4551 7.758C16.5714 8.34266 16.5117 8.94867 16.2836 9.49941C16.0554 10.0501 15.6691 10.5209 15.1735 10.852C14.6778 11.1832 14.0951 11.36 13.499 11.36C12.7005 11.3574 11.9356 11.0389 11.371 10.4742C10.8065 9.90955 10.4884 9.14446 10.486 8.346H10.485Z"
  
          stroke-width="0.15"
        />
      </svg>

