<svg width="341" height="357" viewBox="0 0 341 357" fill="none" xmlns="http://www.w3.org/2000/svg">
<g filter="url(#filter0_d_3644_15869)">
<rect x="325.33" y="12" width="326.984" height="310.33" rx="9.78955" transform="rotate(90 325.33 12)" fill="white"/>
</g>
<circle cx="79.4433" cy="142.404" r="19.4633" fill="#F6F7FF"/>
<path d="M74.9342 134.295H83.9441C86.8312 134.295 87.5529 135.016 87.5529 137.895V143.029C87.5529 145.916 86.8312 146.63 83.9522 146.63H74.9342C72.0553 146.638 71.3335 145.916 71.3335 143.037V137.895C71.3335 135.016 72.0553 134.295 74.9342 134.295Z" stroke="#5466F9" stroke-width="1.29756" stroke-linecap="round" stroke-linejoin="round"/>
<path d="M79.4434 146.638V150.514" stroke="#5466F9" stroke-width="1.29756" stroke-linecap="round" stroke-linejoin="round"/>
<path d="M71.3335 143.215H87.5529" stroke="#5466F9" stroke-width="1.29756" stroke-linecap="round" stroke-linejoin="round"/>
<path d="M75.7939 150.514H83.0927" stroke="#5466F9" stroke-width="1.29756" stroke-linecap="round" stroke-linejoin="round"/>
<path d="M120.356 140.68H121.744C121.666 140.124 121.501 139.637 121.247 139.219C120.994 138.79 120.678 138.434 120.298 138.152C119.918 137.87 119.484 137.655 118.997 137.509C118.51 137.363 117.994 137.29 117.449 137.29C116.65 137.29 115.939 137.436 115.316 137.728C114.702 138.011 114.186 138.4 113.767 138.897C113.358 139.394 113.046 139.978 112.832 140.65C112.617 141.313 112.51 142.024 112.51 142.784C112.51 143.543 112.608 144.254 112.803 144.917C113.007 145.579 113.309 146.154 113.708 146.641C114.108 147.128 114.609 147.513 115.213 147.795C115.817 148.068 116.523 148.204 117.332 148.204C118.666 148.204 119.718 147.839 120.488 147.108C121.257 146.378 121.71 145.355 121.847 144.04H120.459C120.429 144.469 120.342 144.868 120.196 145.238C120.049 145.608 119.845 145.93 119.582 146.202C119.329 146.465 119.022 146.675 118.661 146.831C118.311 146.977 117.907 147.05 117.449 147.05C116.825 147.05 116.29 146.933 115.842 146.699C115.393 146.465 115.023 146.154 114.731 145.764C114.449 145.365 114.239 144.902 114.103 144.376C113.967 143.84 113.898 143.275 113.898 142.681C113.898 142.136 113.967 141.61 114.103 141.103C114.239 140.597 114.449 140.149 114.731 139.759C115.023 139.36 115.389 139.043 115.827 138.809C116.275 138.576 116.811 138.459 117.434 138.459C118.165 138.459 118.793 138.644 119.319 139.014C119.855 139.384 120.2 139.939 120.356 140.68ZM130.053 147.941C129.839 148.068 129.542 148.131 129.162 148.131C128.84 148.131 128.582 148.043 128.387 147.868C128.202 147.683 128.11 147.386 128.11 146.977C127.769 147.386 127.37 147.683 126.912 147.868C126.464 148.043 125.977 148.131 125.451 148.131C125.11 148.131 124.783 148.092 124.472 148.014C124.17 147.936 123.907 147.814 123.683 147.649C123.459 147.483 123.279 147.269 123.142 147.006C123.016 146.733 122.952 146.407 122.952 146.027C122.952 145.599 123.025 145.248 123.171 144.975C123.317 144.702 123.507 144.483 123.741 144.318C123.985 144.142 124.257 144.011 124.559 143.923C124.871 143.836 125.188 143.762 125.509 143.704C125.85 143.636 126.171 143.587 126.473 143.558C126.785 143.519 127.058 143.47 127.292 143.412C127.525 143.344 127.71 143.251 127.847 143.134C127.983 143.008 128.051 142.827 128.051 142.594C128.051 142.321 127.998 142.102 127.891 141.936C127.793 141.771 127.662 141.644 127.496 141.556C127.34 141.469 127.16 141.41 126.956 141.381C126.761 141.352 126.566 141.337 126.371 141.337C125.845 141.337 125.407 141.439 125.056 141.644C124.706 141.839 124.516 142.214 124.486 142.769H123.244C123.264 142.301 123.361 141.907 123.537 141.585C123.712 141.264 123.946 141.006 124.238 140.811C124.53 140.607 124.861 140.46 125.231 140.373C125.611 140.285 126.016 140.241 126.444 140.241C126.785 140.241 127.121 140.266 127.452 140.314C127.793 140.363 128.1 140.465 128.373 140.621C128.645 140.767 128.865 140.977 129.03 141.249C129.196 141.522 129.279 141.878 129.279 142.316V146.202C129.279 146.495 129.293 146.709 129.322 146.845C129.361 146.982 129.478 147.05 129.673 147.05C129.78 147.05 129.907 147.025 130.053 146.977V147.941ZM128.037 144.069C127.881 144.186 127.676 144.274 127.423 144.332C127.17 144.381 126.902 144.425 126.619 144.464C126.347 144.493 126.069 144.532 125.787 144.581C125.504 144.62 125.251 144.688 125.027 144.785C124.803 144.883 124.618 145.024 124.472 145.209C124.335 145.384 124.267 145.628 124.267 145.939C124.267 146.144 124.306 146.319 124.384 146.465C124.472 146.602 124.579 146.714 124.706 146.801C124.842 146.889 124.998 146.952 125.173 146.991C125.348 147.03 125.533 147.05 125.728 147.05C126.137 147.05 126.488 146.996 126.78 146.889C127.072 146.772 127.311 146.631 127.496 146.465C127.681 146.29 127.818 146.105 127.905 145.91C127.993 145.706 128.037 145.516 128.037 145.34V144.069ZM131.253 137.538V147.97H132.495V146.962H132.524C132.66 147.186 132.826 147.376 133.021 147.532C133.225 147.678 133.439 147.795 133.663 147.883C133.887 147.97 134.111 148.034 134.335 148.073C134.569 148.112 134.779 148.131 134.964 148.131C135.538 148.131 136.04 148.029 136.469 147.824C136.907 147.62 137.267 147.342 137.55 146.991C137.842 146.631 138.056 146.212 138.193 145.735C138.339 145.258 138.412 144.751 138.412 144.215C138.412 143.68 138.339 143.173 138.193 142.696C138.047 142.219 137.827 141.8 137.535 141.439C137.253 141.069 136.892 140.777 136.454 140.563C136.025 140.348 135.519 140.241 134.935 140.241C134.409 140.241 133.926 140.339 133.488 140.534C133.05 140.719 132.728 141.021 132.524 141.439H132.495V137.538H131.253ZM137.097 144.128C137.097 144.498 137.058 144.858 136.98 145.209C136.902 145.56 136.775 145.871 136.6 146.144C136.425 146.417 136.191 146.636 135.899 146.801C135.616 146.967 135.261 147.05 134.832 147.05C134.404 147.05 134.038 146.972 133.736 146.816C133.435 146.65 133.186 146.436 132.991 146.173C132.806 145.91 132.67 145.608 132.582 145.267C132.495 144.917 132.451 144.556 132.451 144.186C132.451 143.836 132.49 143.49 132.568 143.149C132.655 142.808 132.792 142.506 132.977 142.243C133.162 141.97 133.4 141.751 133.693 141.585C133.985 141.42 134.34 141.337 134.759 141.337C135.159 141.337 135.504 141.415 135.797 141.571C136.099 141.727 136.342 141.936 136.527 142.199C136.722 142.462 136.863 142.764 136.951 143.105C137.048 143.436 137.097 143.777 137.097 144.128ZM139.943 137.538V147.97H141.185V137.538H139.943ZM148.354 143.47H144.014C144.034 143.178 144.097 142.905 144.204 142.652C144.311 142.389 144.458 142.16 144.643 141.965C144.828 141.771 145.047 141.62 145.3 141.512C145.563 141.396 145.855 141.337 146.177 141.337C146.488 141.337 146.771 141.396 147.024 141.512C147.287 141.62 147.511 141.771 147.696 141.965C147.891 142.15 148.042 142.374 148.149 142.637C148.266 142.9 148.334 143.178 148.354 143.47ZM149.552 145.574H148.324C148.217 146.071 147.993 146.441 147.652 146.685C147.321 146.928 146.893 147.05 146.367 147.05C145.958 147.05 145.602 146.982 145.3 146.845C144.998 146.709 144.75 146.529 144.555 146.305C144.36 146.071 144.219 145.808 144.131 145.516C144.044 145.214 144.005 144.897 144.014 144.566H149.669C149.688 144.108 149.644 143.626 149.537 143.12C149.44 142.613 149.255 142.146 148.982 141.717C148.719 141.288 148.363 140.938 147.915 140.665C147.477 140.383 146.922 140.241 146.25 140.241C145.734 140.241 145.256 140.339 144.818 140.534C144.389 140.728 144.014 141.001 143.693 141.352C143.381 141.702 143.138 142.116 142.962 142.594C142.787 143.071 142.699 143.597 142.699 144.172C142.719 144.746 142.802 145.277 142.948 145.764C143.104 146.251 143.333 146.67 143.634 147.021C143.936 147.371 144.307 147.644 144.745 147.839C145.193 148.034 145.719 148.131 146.323 148.131C147.18 148.131 147.891 147.917 148.456 147.488C149.021 147.06 149.386 146.422 149.552 145.574ZM157.594 138.707V147.97H158.982V138.707H162.459V137.538H154.117V138.707H157.594ZM167.722 147.97L171.433 137.538H169.987L166.977 146.582H166.948L163.967 137.538H162.477L166.144 147.97H167.722Z" fill="#41415A"/>
<circle cx="273.925" cy="142.253" r="12.1755" fill="#F6F7FF"/>
<path d="M272.302 147.123L277.172 142.253L272.302 137.383" stroke="#41415A" stroke-width="1.6234" stroke-linecap="round"/>
<circle cx="79.4433" cy="212.472" r="19.4633" fill="#F6F7FF"/>
<path d="M79.4432 220.582C83.9221 220.582 87.5529 216.951 87.5529 212.472C87.5529 207.994 83.9221 204.363 79.4432 204.363C74.9643 204.363 71.3335 207.994 71.3335 212.472C71.3335 216.951 74.9643 220.582 79.4432 220.582Z" stroke="#5466F9" stroke-width="1.29756" stroke-linecap="round" stroke-linejoin="round"/>
<path d="M76.1995 205.174H77.0105C75.4291 209.91 75.4291 215.035 77.0105 219.771H76.1995" stroke="#5466F9" stroke-width="1.29756" stroke-linecap="round" stroke-linejoin="round"/>
<path d="M81.8762 205.174C83.4576 209.91 83.4576 215.035 81.8762 219.771" stroke="#5466F9" stroke-width="1.29756" stroke-linecap="round" stroke-linejoin="round"/>
<path d="M72.1445 215.716V214.905C76.8806 216.487 82.006 216.487 86.742 214.905V215.716" stroke="#5466F9" stroke-width="1.29756" stroke-linecap="round" stroke-linejoin="round"/>
<path d="M72.1445 210.04C76.8806 208.458 82.006 208.458 86.742 210.04" stroke="#5466F9" stroke-width="1.29756" stroke-linecap="round" stroke-linejoin="round"/>
<path d="M113.126 207.606V218.038H114.514V207.606H113.126ZM116.644 210.485V218.038H117.886V213.772C117.886 213.431 117.93 213.119 118.018 212.837C118.115 212.545 118.256 212.292 118.441 212.077C118.627 211.863 118.855 211.697 119.128 211.58C119.411 211.464 119.742 211.405 120.122 211.405C120.599 211.405 120.974 211.542 121.247 211.814C121.519 212.087 121.656 212.457 121.656 212.925V218.038H122.898V213.071C122.898 212.662 122.854 212.292 122.766 211.96C122.688 211.619 122.547 211.327 122.342 211.084C122.138 210.84 121.87 210.65 121.539 210.514C121.208 210.378 120.794 210.309 120.297 210.309C119.177 210.309 118.359 210.767 117.842 211.683H117.813V210.485H116.644ZM126.487 210.485V208.22H125.245V210.485H123.959V211.58H125.245V216.387C125.245 216.738 125.279 217.02 125.347 217.235C125.416 217.449 125.518 217.615 125.654 217.732C125.8 217.848 125.985 217.931 126.209 217.98C126.443 218.019 126.721 218.038 127.042 218.038H127.992V216.943H127.422C127.227 216.943 127.067 216.938 126.94 216.928C126.823 216.908 126.731 216.874 126.662 216.826C126.594 216.777 126.545 216.709 126.516 216.621C126.497 216.533 126.487 216.417 126.487 216.27V211.58H127.992V210.485H126.487ZM134.617 213.538H130.277C130.297 213.246 130.36 212.973 130.467 212.72C130.575 212.457 130.721 212.228 130.906 212.033C131.091 211.839 131.31 211.688 131.563 211.58C131.826 211.464 132.118 211.405 132.44 211.405C132.751 211.405 133.034 211.464 133.287 211.58C133.55 211.688 133.774 211.839 133.959 212.033C134.154 212.218 134.305 212.443 134.412 212.705C134.529 212.968 134.597 213.246 134.617 213.538ZM135.815 215.642H134.588C134.48 216.139 134.256 216.509 133.915 216.753C133.584 216.996 133.156 217.118 132.63 217.118C132.221 217.118 131.865 217.05 131.563 216.913C131.261 216.777 131.013 216.597 130.818 216.373C130.623 216.139 130.482 215.876 130.394 215.584C130.307 215.282 130.268 214.965 130.277 214.634H135.932C135.951 214.176 135.907 213.694 135.8 213.188C135.703 212.681 135.518 212.214 135.245 211.785C134.982 211.356 134.627 211.006 134.178 210.733C133.74 210.451 133.185 210.309 132.513 210.309C131.997 210.309 131.519 210.407 131.081 210.602C130.652 210.796 130.277 211.069 129.956 211.42C129.644 211.77 129.401 212.184 129.225 212.662C129.05 213.139 128.962 213.665 128.962 214.24C128.982 214.814 129.065 215.345 129.211 215.832C129.367 216.319 129.596 216.738 129.898 217.089C130.2 217.439 130.57 217.712 131.008 217.907C131.456 218.102 131.982 218.199 132.586 218.199C133.443 218.199 134.154 217.985 134.719 217.556C135.284 217.128 135.649 216.49 135.815 215.642ZM137.175 210.485V218.038H138.417V214.678C138.417 214.191 138.466 213.762 138.563 213.392C138.661 213.012 138.816 212.691 139.031 212.428C139.245 212.165 139.528 211.965 139.878 211.829C140.229 211.692 140.653 211.624 141.149 211.624V210.309C140.477 210.29 139.922 210.426 139.484 210.718C139.045 211.011 138.675 211.464 138.373 212.077H138.344V210.485H137.175ZM142.341 210.485V218.038H143.583V213.772C143.583 213.431 143.627 213.119 143.715 212.837C143.812 212.545 143.953 212.292 144.138 212.077C144.324 211.863 144.552 211.697 144.825 211.58C145.108 211.464 145.439 211.405 145.819 211.405C146.296 211.405 146.671 211.542 146.944 211.814C147.216 212.087 147.353 212.457 147.353 212.925V218.038H148.595V213.071C148.595 212.662 148.551 212.292 148.463 211.96C148.385 211.619 148.244 211.327 148.039 211.084C147.835 210.84 147.567 210.65 147.236 210.514C146.905 210.378 146.491 210.309 145.994 210.309C144.874 210.309 144.056 210.767 143.539 211.683H143.51V210.485H142.341ZM155.705 213.538H151.366C151.385 213.246 151.449 212.973 151.556 212.72C151.663 212.457 151.809 212.228 151.994 212.033C152.179 211.839 152.398 211.688 152.652 211.58C152.914 211.464 153.207 211.405 153.528 211.405C153.84 211.405 154.122 211.464 154.376 211.58C154.639 211.688 154.863 211.839 155.048 212.033C155.242 212.218 155.393 212.443 155.501 212.705C155.617 212.968 155.686 213.246 155.705 213.538ZM156.903 215.642H155.676C155.569 216.139 155.345 216.509 155.004 216.753C154.673 216.996 154.244 217.118 153.718 217.118C153.309 217.118 152.953 217.05 152.652 216.913C152.35 216.777 152.101 216.597 151.906 216.373C151.712 216.139 151.57 215.876 151.483 215.584C151.395 215.282 151.356 214.965 151.366 214.634H157.02C157.04 214.176 156.996 213.694 156.889 213.188C156.791 212.681 156.606 212.214 156.333 211.785C156.07 211.356 155.715 211.006 155.267 210.733C154.828 210.451 154.273 210.309 153.601 210.309C153.085 210.309 152.608 210.407 152.169 210.602C151.741 210.796 151.366 211.069 151.044 211.42C150.733 211.77 150.489 212.184 150.314 212.662C150.138 213.139 150.051 213.665 150.051 214.24C150.07 214.814 150.153 215.345 150.299 215.832C150.455 216.319 150.684 216.738 150.986 217.089C151.288 217.439 151.658 217.712 152.096 217.907C152.544 218.102 153.07 218.199 153.674 218.199C154.531 218.199 155.242 217.985 155.807 217.556C156.372 217.128 156.738 216.49 156.903 215.642ZM160.031 210.485V208.22H158.79V210.485H157.504V211.58H158.79V216.387C158.79 216.738 158.824 217.02 158.892 217.235C158.96 217.449 159.062 217.615 159.199 217.732C159.345 217.848 159.53 217.931 159.754 217.98C159.988 218.019 160.265 218.038 160.587 218.038H161.536V216.943H160.967C160.772 216.943 160.611 216.938 160.484 216.928C160.367 216.908 160.275 216.874 160.207 216.826C160.139 216.777 160.09 216.709 160.061 216.621C160.041 216.533 160.031 216.417 160.031 216.27V211.58H161.536V210.485H160.031Z" fill="#41415A"/>
<circle cx="273.925" cy="212.97" r="12.1755" fill="#F6F7FF"/>
<path d="M272.302 217.84L277.172 212.97L272.302 208.1" stroke="#41415A" stroke-width="1.6234" stroke-linecap="round"/>
<circle cx="79.4433" cy="282.541" r="19.4633" fill="#F6F7FF"/>
<path d="M79.4431 279.207L78.5753 280.716C78.3807 281.048 78.5429 281.324 78.9241 281.324H79.954C80.3433 281.324 80.4973 281.6 80.3027 281.932L79.4431 283.441" stroke="#5466F9" stroke-width="1.29756" stroke-linecap="round" stroke-linejoin="round"/>
<path d="M76.4424 287.439V286.498C74.5772 285.371 73.0444 283.173 73.0444 280.837C73.0444 276.823 76.7344 273.677 80.9028 274.585C82.7356 274.99 84.3413 276.207 85.1766 277.886C86.8715 281.292 85.0874 284.909 82.4679 286.49V287.431C82.4679 287.666 82.5571 288.209 81.6894 288.209H77.2209C76.3289 288.217 76.4424 287.869 76.4424 287.439Z" stroke="#5466F9" stroke-width="1.29756" stroke-linecap="round" stroke-linejoin="round"/>
<path d="M76.6047 290.65C78.4619 290.123 80.4244 290.123 82.2815 290.65" stroke="#5466F9" stroke-width="1.29756" stroke-linecap="round" stroke-linejoin="round"/>
<path d="M113.263 277.674V288.106H120.51V286.938H114.651V283.329H120.072V282.16H114.651V278.843H120.466V277.674H113.263ZM122.064 277.674V288.106H123.305V277.674H122.064ZM130.475 283.606H126.135C126.155 283.314 126.218 283.041 126.325 282.788C126.432 282.525 126.578 282.296 126.763 282.101C126.949 281.907 127.168 281.756 127.421 281.649C127.684 281.532 127.976 281.473 128.298 281.473C128.609 281.473 128.892 281.532 129.145 281.649C129.408 281.756 129.632 281.907 129.817 282.101C130.012 282.287 130.163 282.511 130.27 282.774C130.387 283.037 130.455 283.314 130.475 283.606ZM131.673 285.71H130.445C130.338 286.207 130.114 286.577 129.773 286.821C129.442 287.064 129.014 287.186 128.488 287.186C128.078 287.186 127.723 287.118 127.421 286.981C127.119 286.845 126.871 286.665 126.676 286.441C126.481 286.207 126.34 285.944 126.252 285.652C126.164 285.35 126.125 285.033 126.135 284.702H131.79C131.809 284.244 131.765 283.762 131.658 283.256C131.561 282.749 131.376 282.282 131.103 281.853C130.84 281.424 130.484 281.074 130.036 280.801C129.598 280.519 129.043 280.377 128.371 280.377C127.854 280.377 127.377 280.475 126.939 280.67C126.51 280.864 126.135 281.137 125.814 281.488C125.502 281.838 125.259 282.252 125.083 282.73C124.908 283.207 124.82 283.733 124.82 284.308C124.84 284.882 124.923 285.413 125.069 285.9C125.224 286.387 125.453 286.806 125.755 287.157C126.057 287.507 126.427 287.78 126.866 287.975C127.314 288.17 127.84 288.267 128.444 288.267C129.301 288.267 130.012 288.053 130.577 287.624C131.142 287.196 131.507 286.558 131.673 285.71ZM138.205 282.978H139.491C139.442 282.53 139.325 282.145 139.14 281.824C138.955 281.493 138.717 281.22 138.424 281.006C138.142 280.791 137.811 280.636 137.431 280.538C137.061 280.431 136.661 280.377 136.233 280.377C135.639 280.377 135.117 280.485 134.669 280.699C134.221 280.903 133.846 281.191 133.544 281.561C133.252 281.921 133.033 282.35 132.887 282.847C132.741 283.334 132.668 283.86 132.668 284.425C132.668 284.989 132.741 285.511 132.887 285.988C133.043 286.455 133.267 286.86 133.559 287.201C133.861 287.541 134.231 287.804 134.669 287.99C135.117 288.175 135.629 288.267 136.204 288.267C137.168 288.267 137.928 288.014 138.483 287.507C139.048 287.001 139.398 286.28 139.535 285.345H138.264C138.186 285.929 137.971 286.382 137.621 286.704C137.28 287.025 136.803 287.186 136.189 287.186C135.799 287.186 135.463 287.108 135.181 286.952C134.898 286.796 134.669 286.592 134.494 286.339C134.319 286.076 134.187 285.778 134.1 285.447C134.022 285.116 133.983 284.775 133.983 284.425C133.983 284.045 134.022 283.679 134.1 283.329C134.178 282.968 134.304 282.652 134.479 282.379C134.665 282.106 134.908 281.887 135.21 281.722C135.512 281.556 135.887 281.473 136.335 281.473C136.861 281.473 137.28 281.605 137.592 281.868C137.903 282.131 138.108 282.501 138.205 282.978ZM142.648 280.553V278.288H141.406V280.553H140.121V281.649H141.406V286.455C141.406 286.806 141.441 287.089 141.509 287.303C141.577 287.517 141.679 287.683 141.816 287.8C141.962 287.916 142.147 287.999 142.371 288.048C142.605 288.087 142.882 288.106 143.204 288.106H144.153V287.011H143.583C143.389 287.011 143.228 287.006 143.101 286.996C142.984 286.977 142.892 286.942 142.824 286.894C142.756 286.845 142.707 286.777 142.678 286.689C142.658 286.602 142.648 286.485 142.648 286.339V281.649H144.153V280.553H142.648ZM145.489 280.553V288.106H146.731V284.746C146.731 284.259 146.78 283.83 146.877 283.46C146.975 283.08 147.13 282.759 147.345 282.496C147.559 282.233 147.841 282.033 148.192 281.897C148.543 281.761 148.966 281.692 149.463 281.692V280.377C148.791 280.358 148.236 280.494 147.798 280.787C147.359 281.079 146.989 281.532 146.687 282.145H146.658V280.553H145.489ZM151.713 279.194V277.674H150.471V279.194H151.713ZM150.471 280.553V288.106H151.713V280.553H150.471ZM158.766 282.978H160.051C160.003 282.53 159.886 282.145 159.701 281.824C159.516 281.493 159.277 281.22 158.985 281.006C158.702 280.791 158.371 280.636 157.991 280.538C157.621 280.431 157.222 280.377 156.793 280.377C156.199 280.377 155.678 280.485 155.23 280.699C154.782 280.903 154.407 281.191 154.105 281.561C153.813 281.921 153.593 282.35 153.447 282.847C153.301 283.334 153.228 283.86 153.228 284.425C153.228 284.989 153.301 285.511 153.447 285.988C153.603 286.455 153.827 286.86 154.119 287.201C154.421 287.541 154.792 287.804 155.23 287.99C155.678 288.175 156.189 288.267 156.764 288.267C157.728 288.267 158.488 288.014 159.043 287.507C159.608 287.001 159.959 286.28 160.095 285.345H158.824C158.746 285.929 158.532 286.382 158.181 286.704C157.84 287.025 157.363 287.186 156.749 287.186C156.36 287.186 156.024 287.108 155.741 286.952C155.459 286.796 155.23 286.592 155.055 286.339C154.879 286.076 154.748 285.778 154.66 285.447C154.582 285.116 154.543 284.775 154.543 284.425C154.543 284.045 154.582 283.679 154.66 283.329C154.738 282.968 154.865 282.652 155.04 282.379C155.225 282.106 155.468 281.887 155.77 281.722C156.072 281.556 156.447 281.473 156.895 281.473C157.421 281.473 157.84 281.605 158.152 281.868C158.464 282.131 158.668 282.501 158.766 282.978ZM162.8 279.194V277.674H161.558V279.194H162.8ZM161.558 280.553V288.106H162.8V280.553H161.558ZM166.448 280.553V278.288H165.206V280.553H163.92V281.649H165.206V286.455C165.206 286.806 165.24 287.089 165.308 287.303C165.376 287.517 165.479 287.683 165.615 287.8C165.761 287.916 165.946 287.999 166.17 288.048C166.404 288.087 166.681 288.106 167.003 288.106H167.953V287.011H167.383C167.188 287.011 167.027 287.006 166.901 286.996C166.784 286.977 166.691 286.942 166.623 286.894C166.555 286.845 166.506 286.777 166.477 286.689C166.457 286.602 166.448 286.485 166.448 286.339V281.649H167.953V280.553H166.448ZM172.298 289.115C172.152 289.485 172.006 289.796 171.86 290.05C171.724 290.303 171.568 290.507 171.392 290.663C171.227 290.829 171.037 290.946 170.823 291.014C170.618 291.092 170.379 291.131 170.107 291.131C169.961 291.131 169.814 291.121 169.668 291.102C169.522 291.082 169.381 291.048 169.245 290.999V289.86C169.352 289.908 169.473 289.947 169.61 289.977C169.756 290.016 169.878 290.035 169.975 290.035C170.228 290.035 170.438 289.972 170.603 289.845C170.779 289.728 170.91 289.558 170.998 289.334L171.509 288.063L168.514 280.553H169.917L172.123 286.733H172.152L174.271 280.553H175.586L172.298 289.115Z" fill="#41415A"/>
<circle cx="274.062" cy="282.389" r="12.1755" fill="#F6F7FF"/>
<path d="M272.439 287.259L277.309 282.389L272.439 277.519" stroke="#41415A" stroke-width="1.6234" stroke-linecap="round"/>
<line x1="293.54" y1="248.039" x2="47.0042" y2="248.039" stroke="#5466F9" stroke-opacity="0.2" stroke-width="1.06544"/>
<line x1="293.54" y1="177.971" x2="47.0042" y2="177.971" stroke="#5466F9" stroke-opacity="0.2" stroke-width="1.06544"/>
<g filter="url(#filter1_dddd_3644_15869)">
<rect x="35.3262" y="47.6828" width="273.479" height="59.6876" rx="5.19023" fill="white"/>
<circle cx="75.5505" cy="77.5266" r="19.4633" fill="#F6F7FF"/>
<path d="M76.0139 86.5168H76.6627V85.868V84.4778V83.829H76.0139H74.6237H73.9749V84.4778V85.868V86.5168H74.6237H76.0139ZM69.8042 83.0876V83.7363H70.453H80.1847H80.8334V83.0876V69.1852V68.8262C80.8937 68.9351 80.9261 69.0585 80.9261 69.1852V85.868C80.9261 86.0647 80.848 86.2533 80.7089 86.3923C80.5699 86.5314 80.3813 86.6095 80.1847 86.6095H70.453C70.2563 86.6095 70.0677 86.5314 69.9287 86.3923C69.7896 86.2533 69.7115 86.0647 69.7115 85.868V69.1852C69.7115 69.0585 69.7439 68.9351 69.8042 68.8262V69.1852V83.0876ZM80.5436 68.5364H80.1847H70.453H70.094C70.2029 68.4761 70.3263 68.4437 70.453 68.4437H80.1847C80.3114 68.4437 80.4347 68.4761 80.5436 68.5364Z" stroke="#5466F9" stroke-width="1.29756"/>
<path d="M113.112 76.8216V73.5051H115.888C116.19 73.5051 116.472 73.5245 116.735 73.5635C117.008 73.5927 117.247 73.6658 117.451 73.7827C117.656 73.8995 117.817 74.0651 117.934 74.2794C118.05 74.4937 118.109 74.7859 118.109 75.156C118.109 75.7112 117.934 76.1301 117.583 76.4125C117.242 76.6853 116.677 76.8216 115.888 76.8216H113.112ZM111.724 72.3362V82.7681H116.765C117.281 82.7681 117.734 82.6853 118.123 82.5197C118.523 82.3444 118.854 82.1204 119.117 81.8476C119.39 81.5652 119.594 81.2437 119.731 80.8834C119.867 80.523 119.935 80.1528 119.935 79.773C119.935 79.1301 119.765 78.5846 119.424 78.1366C119.083 77.6885 118.591 77.3963 117.948 77.26V77.2307C118.445 77.0359 118.825 76.7388 119.088 76.3395C119.361 75.9304 119.497 75.4482 119.497 74.8931C119.497 74.3671 119.375 73.9239 119.132 73.5635C118.898 73.2031 118.61 72.9206 118.27 72.7161C118.114 72.6187 117.924 72.5456 117.7 72.4969C117.485 72.4482 117.252 72.4141 116.998 72.3947C116.745 72.3654 116.487 72.3508 116.224 72.3508C115.971 72.3411 115.732 72.3362 115.508 72.3362H111.724ZM113.112 81.5993V77.9905H116.283C116.575 77.9905 116.857 78.0197 117.13 78.0781C117.403 78.1268 117.641 78.2194 117.846 78.3557C118.06 78.4824 118.231 78.6577 118.357 78.8817C118.484 79.1057 118.547 79.3882 118.547 79.7291C118.547 80.3135 118.372 80.7713 118.021 81.1025C117.68 81.4337 117.203 81.5993 116.589 81.5993H113.112ZM127.775 82.7681V75.2145H126.533V79.4807C126.533 79.8217 126.484 80.1382 126.387 80.4304C126.299 80.7129 126.163 80.9613 125.978 81.1756C125.793 81.3898 125.559 81.5554 125.276 81.6723C125.004 81.7892 124.677 81.8476 124.297 81.8476C123.82 81.8476 123.445 81.7113 123.172 81.4385C122.9 81.1658 122.763 80.7957 122.763 80.3282V75.2145H121.521V80.182C121.521 80.5911 121.56 80.9661 121.638 81.3071C121.726 81.6382 121.872 81.9256 122.077 82.1691C122.281 82.4126 122.549 82.6025 122.88 82.7389C123.211 82.8655 123.625 82.9288 124.122 82.9288C124.677 82.9288 125.159 82.8217 125.569 82.6074C125.978 82.3834 126.314 82.0376 126.577 81.57H126.606V82.7681H127.775ZM132.606 83.7762C132.46 84.1464 132.314 84.458 132.168 84.7113C132.031 84.9645 131.875 85.1691 131.7 85.3249C131.534 85.4905 131.345 85.6074 131.13 85.6756C130.926 85.7535 130.687 85.7925 130.414 85.7925C130.268 85.7925 130.122 85.7827 129.976 85.7633C129.83 85.7438 129.689 85.7097 129.552 85.661V84.5214C129.659 84.5701 129.781 84.609 129.918 84.6382C130.064 84.6772 130.185 84.6967 130.283 84.6967C130.536 84.6967 130.745 84.6334 130.911 84.5068C131.086 84.3899 131.218 84.2194 131.306 83.9954L131.817 82.7243L128.822 75.2145H130.224L132.431 81.3947H132.46L134.578 75.2145H135.893L132.606 83.7762ZM143.013 78.458L144.781 73.5927H144.81L146.549 78.458H143.013ZM144.051 72.3362L139.989 82.7681H141.406L142.575 79.6268H146.987L148.127 82.7681H149.661L145.585 72.3362H144.051ZM151.801 73.8557V72.3362H150.559V73.8557H151.801ZM150.559 75.2145V82.7681H151.801V75.2145H150.559ZM153.681 75.2145V82.7681H154.922V79.4077C154.922 78.9207 154.971 78.4921 155.069 78.122C155.166 77.7421 155.322 77.4207 155.536 77.1577C155.75 76.8947 156.033 76.695 156.384 76.5586C156.734 76.4223 157.158 76.3541 157.655 76.3541V75.0392C156.983 75.0197 156.427 75.156 155.989 75.4482C155.551 75.7405 155.181 76.1934 154.879 76.807H154.849V75.2145H153.681ZM160.314 75.2145V72.9499H159.072V75.2145H157.786V76.3103H159.072V81.1171C159.072 81.4678 159.106 81.7502 159.174 81.9645C159.242 82.1788 159.345 82.3444 159.481 82.4613C159.627 82.5782 159.812 82.661 160.036 82.7097C160.27 82.7486 160.548 82.7681 160.869 82.7681H161.819V81.6723H161.249C161.054 81.6723 160.893 81.6674 160.767 81.6577C160.65 81.6382 160.557 81.6041 160.489 81.5554C160.421 81.5067 160.372 81.4385 160.343 81.3509C160.324 81.2632 160.314 81.1463 160.314 81.0002V76.3103H161.819V75.2145H160.314ZM164.513 73.8557V72.3362H163.271V73.8557H164.513ZM163.271 75.2145V82.7681H164.513V75.2145H163.271ZM166.437 75.2145V82.7681H167.679V78.0635C167.679 77.9174 167.713 77.7372 167.781 77.5229C167.859 77.2989 167.976 77.0846 168.132 76.8801C168.298 76.6755 168.507 76.5002 168.76 76.3541C169.023 76.208 169.335 76.1349 169.695 76.1349C169.978 76.1349 170.207 76.1788 170.382 76.2664C170.567 76.3444 170.713 76.4612 170.82 76.6171C170.928 76.7632 171.001 76.9385 171.04 77.1431C171.088 77.3476 171.113 77.5716 171.113 77.8151V82.7681H172.355V78.0635C172.355 77.4791 172.53 77.0116 172.88 76.6609C173.231 76.3103 173.713 76.1349 174.327 76.1349C174.629 76.1349 174.872 76.1788 175.057 76.2664C175.252 76.3541 175.403 76.4759 175.51 76.6317C175.618 76.7778 175.691 76.9531 175.73 77.1577C175.769 77.3622 175.788 77.5814 175.788 77.8151V82.7681H177.03V77.2307C177.03 76.8411 176.967 76.5099 176.84 76.2372C176.723 75.9547 176.553 75.7258 176.329 75.5505C176.114 75.3752 175.851 75.2486 175.54 75.1707C175.238 75.083 174.897 75.0392 174.517 75.0392C174.02 75.0392 173.562 75.1512 173.143 75.3752C172.734 75.5992 172.403 75.9158 172.15 76.3249C171.994 75.8573 171.726 75.5262 171.346 75.3314C170.967 75.1366 170.543 75.0392 170.075 75.0392C169.014 75.0392 168.2 75.4677 167.635 76.3249H167.606V75.2145H166.437ZM184.138 78.2681H179.799C179.819 77.9759 179.882 77.7031 179.989 77.4499C180.096 77.1869 180.242 76.958 180.427 76.7632C180.612 76.5684 180.832 76.4174 181.085 76.3103C181.348 76.1934 181.64 76.1349 181.961 76.1349C182.273 76.1349 182.556 76.1934 182.809 76.3103C183.072 76.4174 183.296 76.5684 183.481 76.7632C183.676 76.9483 183.827 77.1723 183.934 77.4353C184.051 77.6983 184.119 77.9759 184.138 78.2681ZM185.337 80.372H184.109C184.002 80.8687 183.778 81.2389 183.437 81.4824C183.106 81.7259 182.677 81.8476 182.151 81.8476C181.742 81.8476 181.387 81.7795 181.085 81.6431C180.783 81.5067 180.535 81.3265 180.34 81.1025C180.145 80.8687 180.004 80.6058 179.916 80.3135C179.828 80.0116 179.789 79.695 179.799 79.3639H185.453C185.473 78.9061 185.429 78.4239 185.322 77.9174C185.224 77.4109 185.039 76.9434 184.767 76.5148C184.504 76.0862 184.148 75.7356 183.7 75.4629C183.262 75.1804 182.707 75.0392 182.035 75.0392C181.518 75.0392 181.041 75.1366 180.603 75.3314C180.174 75.5262 179.799 75.7989 179.478 76.1496C179.166 76.5002 178.922 76.9142 178.747 77.3914C178.572 77.8687 178.484 78.3947 178.484 78.9694C178.504 79.5441 178.586 80.0749 178.733 80.5619C178.888 81.0489 179.117 81.4678 179.419 81.8184C179.721 82.1691 180.091 82.4418 180.53 82.6366C180.978 82.8314 181.504 82.9288 182.108 82.9288C182.965 82.9288 183.676 82.7145 184.241 82.286C184.806 81.8574 185.171 81.2194 185.337 80.372Z" fill="#41415A"/>
<circle cx="275.87" cy="77.5266" r="12.1743" fill="#F6F7FF"/>
<path d="M274.247 82.3963L279.117 77.5266L274.247 72.6569" stroke="#41415A" stroke-width="1.29756" stroke-linecap="round"/>
<rect x="35.2289" y="47.5855" width="273.674" height="59.8822" rx="5.28754" stroke="#EAEAEA" stroke-width="0.194633"/>
</g>
<defs>
<filter id="filter0_d_3644_15869" x="0.315675" y="0.25254" width="339.699" height="356.353" filterUnits="userSpaceOnUse" color-interpolation-filters="sRGB">
<feFlood flood-opacity="0" result="BackgroundImageFix"/>
<feColorMatrix in="SourceAlpha" type="matrix" values="0 0 0 0 0 0 0 0 0 0 0 0 0 0 0 0 0 0 127 0" result="hardAlpha"/>
<feOffset dy="2.93686"/>
<feGaussianBlur stdDeviation="7.34216"/>
<feColorMatrix type="matrix" values="0 0 0 0 0.937255 0 0 0 0 0.937255 0 0 0 0 0.937255 0 0 0 1 0"/>
<feBlend mode="normal" in2="BackgroundImageFix" result="effect1_dropShadow_3644_15869"/>
<feBlend mode="normal" in="SourceGraphic" in2="effect1_dropShadow_3644_15869" result="shape"/>
</filter>
<filter id="filter1_dddd_3644_15869" x="14.3707" y="42.298" width="315.39" height="101.599" filterUnits="userSpaceOnUse" color-interpolation-filters="sRGB">
<feFlood flood-opacity="0" result="BackgroundImageFix"/>
<feColorMatrix in="SourceAlpha" type="matrix" values="0 0 0 0 0 0 0 0 0 0 0 0 0 0 0 0 0 0 127 0" result="hardAlpha"/>
<feOffset/>
<feGaussianBlur stdDeviation="0.324389"/>
<feColorMatrix type="matrix" values="0 0 0 0 0 0 0 0 0 0 0 0 0 0 0 0 0 0 0.04 0"/>
<feBlend mode="normal" in2="BackgroundImageFix" result="effect1_dropShadow_3644_15869"/>
<feColorMatrix in="SourceAlpha" type="matrix" values="0 0 0 0 0 0 0 0 0 0 0 0 0 0 0 0 0 0 127 0" result="hardAlpha"/>
<feOffset dy="2.59511"/>
<feGaussianBlur stdDeviation="2.59511"/>
<feColorMatrix type="matrix" values="0 0 0 0 0 0 0 0 0 0 0 0 0 0 0 0 0 0 0.04 0"/>
<feBlend mode="normal" in2="effect1_dropShadow_3644_15869" result="effect2_dropShadow_3644_15869"/>
<feColorMatrix in="SourceAlpha" type="matrix" values="0 0 0 0 0 0 0 0 0 0 0 0 0 0 0 0 0 0 127 0" result="hardAlpha"/>
<feOffset dy="10.3805"/>
<feGaussianBlur stdDeviation="7.78534"/>
<feColorMatrix type="matrix" values="0 0 0 0 0.329412 0 0 0 0 0.4 0 0 0 0 0.976471 0 0 0 0.04 0"/>
<feBlend mode="normal" in2="effect2_dropShadow_3644_15869" result="effect3_dropShadow_3644_15869"/>
<feColorMatrix in="SourceAlpha" type="matrix" values="0 0 0 0 0 0 0 0 0 0 0 0 0 0 0 0 0 0 127 0" result="hardAlpha"/>
<feOffset dy="15.5707"/>
<feGaussianBlur stdDeviation="10.3805"/>
<feColorMatrix type="matrix" values="0 0 0 0 0.329412 0 0 0 0 0.4 0 0 0 0 0.976471 0 0 0 0.04 0"/>
<feBlend mode="normal" in2="effect3_dropShadow_3644_15869" result="effect4_dropShadow_3644_15869"/>
<feBlend mode="normal" in="SourceGraphic" in2="effect4_dropShadow_3644_15869" result="shape"/>
</filter>
</defs>
</svg>
