<svg width="23" height="20" viewBox="0 0 23 20" fill="none" xmlns="http://www.w3.org/2000/svg">
<path d="M21.2033 20.0009H1.41355C0.634073 20.0009 0 19.3668 0 18.5873V5.98777C0 5.20829 0.634073 4.57422 1.41355 4.57422H7.69424V6.40236H14.9175V4.57422H21.2033C21.9827 4.57422 22.6168 5.20829 22.6168 5.98777V18.5873C22.6168 19.3668 21.9827 20.0009 21.2033 20.0009ZM1.41355 5.51659C1.1538 5.51659 0.942367 5.72779 0.942367 5.98777V18.5873C0.942367 18.8473 1.1538 19.0585 1.41355 19.0585H21.2033C21.463 19.0585 21.6744 18.8473 21.6744 18.5873V5.98777C21.6744 5.72779 21.463 5.51659 21.2033 5.51659H15.8599V7.34472H6.75187V5.51659H1.41355Z" fill="#5466F9"/>
<path d="M15.3888 7.34155H7.22314C6.96293 7.34155 6.75195 7.13081 6.75195 6.87037V3.8408C6.75195 3.32131 7.17459 2.89844 7.69432 2.89844H14.9176C15.4373 2.89844 15.86 3.32131 15.86 3.8408V6.87037C15.86 7.13081 15.649 7.34155 15.3888 7.34155ZM7.69432 6.39919H14.9176V3.8408C14.9176 3.83988 14.9176 3.83942 14.9176 3.83942L7.69432 3.8408V6.39919Z" fill="#5466F9"/>
<path d="M11.308 3.84447C10.248 3.84447 9.38574 2.98217 9.38574 1.92201C9.38574 0.862303 10.248 0 11.308 0C12.3679 0 13.2302 0.862303 13.2302 1.92201C13.2302 2.98217 12.3679 3.84447 11.308 3.84447ZM11.308 0.942367C10.7678 0.942367 10.3281 1.3818 10.3281 1.92201C10.3281 2.46221 10.7678 2.90211 11.308 2.90211C11.8482 2.90211 12.2878 2.46221 12.2878 1.92201C12.2878 1.3818 11.8482 0.942367 11.308 0.942367Z" fill="#5466F9"/>
<path d="M5.80173 13.1796C4.7625 13.1796 3.91699 12.3343 3.91699 11.2949C3.91699 10.2554 4.7625 9.41016 5.80173 9.41016C6.84095 9.41016 7.68646 10.2554 7.68646 11.2949C7.68646 12.3343 6.84095 13.1796 5.80173 13.1796ZM5.80173 10.3525C5.282 10.3525 4.85936 10.7754 4.85936 11.2949C4.85936 11.8144 5.282 12.2373 5.80173 12.2373C6.32146 12.2373 6.74409 11.8144 6.74409 11.2949C6.74409 10.7754 6.32146 10.3525 5.80173 10.3525Z" fill="#5466F9"/>
<path d="M8.30727 16.9903H3.29588C2.77615 16.9903 2.35352 16.5674 2.35352 16.0479V14.5962C2.35352 13.2972 3.41046 12.2402 4.70943 12.2402H6.89372C8.1927 12.2402 9.24964 13.2972 9.24964 14.5962V16.0479C9.24964 16.5674 8.827 16.9903 8.30727 16.9903ZM4.70943 13.1826C3.92996 13.1826 3.29588 13.8167 3.29588 14.5962V16.0479H8.30727V14.5962C8.30727 13.8167 7.6732 13.1826 6.89372 13.1826H4.70943Z" fill="#5466F9"/>
<path d="M19.7895 16.501H11.4692C11.209 16.501 10.998 16.2902 10.998 16.0298C10.998 15.7693 11.209 15.5586 11.4692 15.5586H19.7895C20.0497 15.5586 20.2607 15.7693 20.2607 16.0298C20.2607 16.2902 20.0497 16.501 19.7895 16.501Z" fill="#5466F9"/>
<path d="M19.7895 13.6709H11.4692C11.209 13.6709 10.998 13.4601 10.998 13.1997C10.998 12.9393 11.209 12.7285 11.4692 12.7285H19.7895C20.0497 12.7285 20.2607 12.9393 20.2607 13.1997C20.2607 13.4601 20.0497 13.6709 19.7895 13.6709Z" fill="#5466F9"/>
<path d="M19.7895 10.8447H11.4692C11.209 10.8447 10.998 10.634 10.998 10.3735C10.998 10.1131 11.209 9.90234 11.4692 9.90234H19.7895C20.0497 9.90234 20.2607 10.1131 20.2607 10.3735C20.2607 10.634 20.0497 10.8447 19.7895 10.8447Z" fill="#5466F9"/>
</svg>
