<svg width="40" height="40" viewBox="0 0 40 40" fill="none" xmlns="http://www.w3.org/2000/svg">
<path d="M22.0058 2.80982L22.0783 1.61202L22.0058 2.80982ZM24.561 4.90995L25.6994 4.53048V4.53048L24.561 4.90995ZM24.4405 4.56469L25.5539 4.11709L24.4405 4.56469ZM9.12243 4.90995L10.2608 5.28942V5.28942L9.12243 4.90995ZM9.24293 4.56469L8.12953 4.11709L9.24293 4.56469ZM11.6777 2.80982L11.6051 1.61202L11.6777 2.80982ZM24.6866 5.28665L23.5482 5.66612L23.5482 5.66612L24.6866 5.28665ZM8.99686 5.28665L7.85844 4.90718V4.90718L8.99686 5.28665ZM5.10563 29.0124L4.56084 30.0816L5.10563 29.0124ZM3.26556 27.1724L2.19635 27.7172L3.26556 27.1724ZM30.4179 27.1724L31.4871 27.7172L30.4179 27.1724ZM28.5778 29.0124L29.1226 30.0816L28.5778 29.0124ZM29.6768 10.8072V22.7345H32.0768V10.8072H29.6768ZM24.14 28.2714H9.54348V30.6714H24.14V28.2714ZM4.00664 22.7345V10.8072H1.60664V22.7345H4.00664ZM10.1353 5.66613L10.2608 5.28942L7.98401 4.53048L7.85844 4.90718L10.1353 5.66613ZM12.0433 4.00469H21.6401V1.60469H12.0433V4.00469ZM23.4226 5.28942L23.5482 5.66612L25.825 4.90718L25.6994 4.53048L23.4226 5.28942ZM21.6401 4.00469C21.8433 4.00469 21.8935 4.00522 21.9332 4.00763L22.0783 1.61202C21.9485 1.60416 21.8114 1.60469 21.6401 1.60469V4.00469ZM25.6994 4.53048C25.6453 4.36795 25.6024 4.23773 25.5539 4.11709L23.3271 5.01229C23.342 5.04924 23.3584 5.09666 23.4226 5.28942L25.6994 4.53048ZM21.9332 4.00763C22.5529 4.04516 23.0956 4.43627 23.3271 5.01229L25.5539 4.11709C24.9765 2.68082 23.6235 1.7056 22.0783 1.61202L21.9332 4.00763ZM10.2608 5.28942C10.3251 5.09666 10.3415 5.04924 10.3563 5.01229L8.12953 4.11709C8.08103 4.23773 8.03818 4.36796 7.98401 4.53048L10.2608 5.28942ZM12.0433 1.60469C11.872 1.60469 11.7349 1.60416 11.6051 1.61202L11.7502 4.00763C11.79 4.00522 11.8401 4.00469 12.0433 4.00469V1.60469ZM10.3563 5.01229C10.5879 4.43627 11.1305 4.04516 11.7502 4.00763L11.6051 1.61202C10.06 1.7056 8.70693 2.68082 8.12953 4.11709L10.3563 5.01229ZM27.0848 5.81521C26.5132 5.81521 26.0058 5.44945 25.825 4.90718L23.5482 5.66612C24.0556 7.18842 25.4802 8.21521 27.0848 8.21521V5.81521ZM6.59861 8.21521C8.20325 8.21521 9.62785 7.18842 10.1353 5.66612L7.85844 4.90718C7.67769 5.44945 7.17021 5.81521 6.59861 5.81521V8.21521ZM9.54348 28.2714C8.34462 28.2714 7.51765 28.2704 6.87574 28.218C6.24783 28.1667 5.9034 28.0721 5.65042 27.9432L4.56084 30.0816C5.20854 30.4117 5.90398 30.5466 6.6803 30.61C7.44261 30.6723 8.38423 30.6714 9.54348 30.6714V28.2714ZM1.60664 22.7345C1.60664 23.8938 1.60571 24.8354 1.66799 25.5977C1.73142 26.374 1.86633 27.0695 2.19635 27.7172L4.33477 26.6276C4.20587 26.3746 4.11132 26.0302 4.06002 25.4023C4.00757 24.7603 4.00664 23.9334 4.00664 22.7345H1.60664ZM5.65042 27.9432C5.08395 27.6546 4.6234 27.194 4.33477 26.6276L2.19635 27.7172C2.71508 28.7352 3.54278 29.5629 4.56084 30.0816L5.65042 27.9432ZM29.6768 22.7345C29.6768 23.9334 29.6759 24.7603 29.6234 25.4023C29.5721 26.0302 29.4776 26.3746 29.3487 26.6276L31.4871 27.7172C31.8171 27.0695 31.952 26.374 32.0155 25.5977C32.0777 24.8354 32.0768 23.8938 32.0768 22.7345H29.6768ZM24.14 30.6714C25.2992 30.6714 26.2408 30.6723 27.0032 30.61C27.7795 30.5466 28.4749 30.4117 29.1226 30.0816L28.033 27.9432C27.7801 28.0721 27.4356 28.1667 26.8077 28.218C26.1658 28.2704 25.3388 28.2714 24.14 28.2714V30.6714ZM29.3487 26.6276C29.0601 27.194 28.5995 27.6546 28.033 27.9432L29.1226 30.0816C30.1407 29.5629 30.9684 28.7352 31.4871 27.7172L29.3487 26.6276ZM32.0768 10.8072C32.0768 8.05019 29.8418 5.81521 27.0848 5.81521V8.21521C28.5164 8.21521 29.6768 9.37568 29.6768 10.8072H32.0768ZM4.00664 10.8072C4.00664 9.37568 5.16711 8.21521 6.59861 8.21521V5.81521C3.84162 5.81521 1.60664 8.05019 1.60664 10.8072H4.00664ZM21.9575 16.8398C21.9575 19.6651 19.6671 21.9556 16.8417 21.9556V24.3556C20.9926 24.3556 24.3575 20.9906 24.3575 16.8398H21.9575ZM16.8417 21.9556C14.0164 21.9556 11.7259 19.6651 11.7259 16.8398H9.32594C9.32594 20.9906 12.6909 24.3556 16.8417 24.3556V21.9556ZM11.7259 16.8398C11.7259 14.0144 14.0164 11.724 16.8417 11.724V9.32399C12.6909 9.32399 9.32594 12.6889 9.32594 16.8398H11.7259ZM16.8417 11.724C19.6671 11.724 21.9575 14.0144 21.9575 16.8398H24.3575C24.3575 12.6889 20.9926 9.32399 16.8417 9.32399V11.724Z" fill="#5466F9"/>
<path d="M27.3691 37.8886C33.1826 37.8886 37.8954 33.1758 37.8954 27.3623C37.8954 21.5487 33.1826 16.8359 27.3691 16.8359C21.5556 16.8359 16.8428 21.5487 16.8428 27.3623C16.8428 33.1758 21.5556 37.8886 27.3691 37.8886Z" fill="#5466F9"/>
<path d="M28.3691 23.1517C28.3691 22.5994 27.9214 22.1517 27.3691 22.1517C26.8168 22.1517 26.3691 22.5994 26.3691 23.1517H28.3691ZM26.3691 31.5728C26.3691 32.1251 26.8168 32.5728 27.3691 32.5728C27.9214 32.5728 28.3691 32.1251 28.3691 31.5728H26.3691ZM23.1586 26.3623C22.6063 26.3623 22.1586 26.81 22.1586 27.3623C22.1586 27.9145 22.6063 28.3623 23.1586 28.3623V26.3623ZM31.5796 28.3623C32.1319 28.3623 32.5796 27.9145 32.5796 27.3623C32.5796 26.81 32.1319 26.3623 31.5796 26.3623V28.3623ZM36.8954 27.3623C36.8954 32.6235 32.6303 36.8886 27.3691 36.8886V38.8886C33.7349 38.8886 38.8954 33.7281 38.8954 27.3623H36.8954ZM27.3691 36.8886C22.1079 36.8886 17.8428 32.6235 17.8428 27.3623H15.8428C15.8428 33.7281 21.0033 38.8886 27.3691 38.8886V36.8886ZM17.8428 27.3623C17.8428 22.101 22.1079 17.8359 27.3691 17.8359V15.8359C21.0033 15.8359 15.8428 20.9964 15.8428 27.3623H17.8428ZM27.3691 17.8359C32.6303 17.8359 36.8954 22.101 36.8954 27.3623H38.8954C38.8954 20.9964 33.7349 15.8359 27.3691 15.8359V17.8359ZM26.3691 23.1517V31.5728H28.3691V23.1517H26.3691ZM23.1586 28.3623H31.5796V26.3623H23.1586V28.3623Z" fill="#F5F6FF"/>
</svg>
