<svg width="73" height="63" viewBox="0 0 73 63" fill="none" xmlns="http://www.w3.org/2000/svg">
<rect width="66.7059" height="51.8824" fill="#F5F6FF"/>
<line x1="38.9116" y1="19.4554" x2="57.441" y2="19.4554" stroke="#5466F9" stroke-width="1.85294"/>
<line x1="38.9116" y1="25.9417" x2="51.8822" y2="25.9417" stroke="#5466F9" stroke-width="1.85294"/>
<path d="M59.3494 33.7327L59.6127 33.9366L59.9455 33.9264L64.7014 33.7796L66.0315 38.3481L66.1245 38.6678L66.3998 38.8551L70.3337 41.5318L68.7244 46.0096L68.6118 46.323L68.7244 46.6363L70.3337 51.1141L66.3998 53.7908L66.1245 53.9781L66.0315 54.2978L64.7014 58.8663L59.9455 58.7195L59.6127 58.7093L59.3494 58.9132L55.5881 61.8274L51.8267 58.9132L51.5635 58.7093L51.2307 58.7195L46.4748 58.8663L45.1447 54.2978L45.0517 53.9781L44.7764 53.7908L40.8425 51.1141L42.4517 46.6363L42.5643 46.323L42.4517 46.0096L40.8425 41.5318L44.7764 38.8551L45.0517 38.6678L45.1447 38.3481L46.4748 33.7796L51.2307 33.9264L51.5635 33.9366L51.8267 33.7327L55.5881 30.8185L59.3494 33.7327Z" fill="#BBC3FD" stroke="#5466F9" stroke-width="1.85294"/>
<path fill-rule="evenodd" clip-rule="evenodd" d="M63.3347 41.9165L55.3642 51.8823L49.103 46.664L50.2844 45.2464L55.0984 49.2575L61.8949 40.7646L63.3347 41.9165V41.9165Z" fill="#5466F9"/>
<path d="M21.7718 25.4773C25.2896 25.4773 28.1413 22.6255 28.1413 19.1078C28.1413 15.59 25.2896 12.7383 21.7718 12.7383C18.2541 12.7383 15.4023 15.59 15.4023 19.1078C15.4023 22.6255 18.2541 25.4773 21.7718 25.4773Z" fill="#5466F9"/>
<path d="M21.7721 28.6621C15.3899 28.6621 10.1924 32.9424 10.1924 38.2163C10.1924 38.573 10.4726 38.8533 10.8293 38.8533H32.7149C33.0716 38.8533 33.3518 38.573 33.3518 38.2163C33.3518 32.9424 28.1543 28.6621 21.7721 28.6621Z" fill="#5466F9"/>
<path fill-rule="evenodd" clip-rule="evenodd" d="M1.85294 1.85294H64.8529V26.8678H66.7059V0H0V51.8824H36.1322V50.0294H1.85294V1.85294Z" fill="#5466F9"/>
</svg>
