<svg width="746" height="463" viewBox="0 0 746 463" fill="none" xmlns="http://www.w3.org/2000/svg">
<g clip-path="url(#clip0_4546_14117)">
<rect x="5" y="5" width="736.125" height="453" rx="21.7788" fill="white"/>
<circle cx="108.223" cy="427.918" r="3.53906" fill="#9D9DB0"/>
<path d="M134.763 39.3584H810.727" stroke="#7A89FF" stroke-width="0.117969" stroke-linecap="round"/>
<path d="M161.898 265.121H711.633" stroke="#7A89FF" stroke-width="0.117969" stroke-linecap="round"/>
<path d="M161.898 330.004H711.633" stroke="#7A89FF" stroke-width="0.117969" stroke-linecap="round"/>
<path d="M161.898 394.887H711.633" stroke="#7A89FF" stroke-width="0.117969" stroke-linecap="round"/>
<path d="M161.898 297.562H711.633" stroke="#7A89FF" stroke-width="0.117969" stroke-linecap="round"/>
<path d="M161.898 362.445H711.633" stroke="#7A89FF" stroke-width="0.117969" stroke-linecap="round"/>
<path d="M161.898 427.328H711.633" stroke="#7A89FF" stroke-width="0.117969" stroke-linecap="round"/>
<path d="M571.464 20.4352C571.341 20.2643 571.173 20.1259 570.961 20.0198C570.749 19.9079 570.51 19.8519 570.245 19.8519C570.103 19.8519 569.959 19.8726 569.812 19.9138C569.67 19.9492 569.541 20.011 569.423 20.0994C569.305 20.1819 569.208 20.2879 569.131 20.4175C569.061 20.5412 569.025 20.6915 569.025 20.8682C569.025 21.0391 569.058 21.1834 569.123 21.3012C569.193 21.4132 569.285 21.5104 569.397 21.5928C569.514 21.6694 569.65 21.7372 569.803 21.7961C569.962 21.8491 570.13 21.9051 570.307 21.964C570.519 22.0288 570.734 22.1025 570.952 22.1849C571.17 22.2674 571.367 22.3764 571.544 22.5119C571.721 22.6474 571.865 22.8183 571.977 23.0245C572.089 23.2248 572.145 23.481 572.145 23.7933C572.145 24.1173 572.083 24.4001 571.959 24.6416C571.841 24.8773 571.682 25.0747 571.482 25.2337C571.282 25.3869 571.049 25.5018 570.784 25.5784C570.525 25.655 570.257 25.6932 569.98 25.6932C569.585 25.6932 569.202 25.6167 568.831 25.4635C568.466 25.3103 568.162 25.0835 567.921 24.783L568.601 24.2086C568.748 24.4266 568.946 24.6033 569.193 24.7388C569.441 24.8743 569.709 24.9421 569.997 24.9421C570.145 24.9421 570.292 24.9215 570.439 24.8802C570.587 24.839 570.719 24.7742 570.837 24.6858C570.961 24.5975 571.061 24.4885 571.137 24.3588C571.214 24.2233 571.252 24.0613 571.252 23.8728C571.252 23.6843 571.211 23.5282 571.129 23.4044C571.052 23.2748 570.946 23.1658 570.81 23.0775C570.675 22.9891 570.516 22.9155 570.333 22.8565C570.156 22.7917 569.968 22.7269 569.768 22.6621C569.567 22.6032 569.37 22.5325 569.176 22.45C568.981 22.3617 568.807 22.2527 568.654 22.1231C568.501 21.9876 568.377 21.8226 568.283 21.6282C568.189 21.4338 568.142 21.1922 568.142 20.9036C568.142 20.5913 568.204 20.3233 568.327 20.0994C568.457 19.8755 568.622 19.6899 568.822 19.5426C569.028 19.3954 569.258 19.2893 569.511 19.2245C569.771 19.1538 570.03 19.1185 570.289 19.1185C570.654 19.1185 570.996 19.1833 571.314 19.3129C571.632 19.4425 571.889 19.6163 572.083 19.8343L571.464 20.4352ZM576.407 23.0686C576.401 22.9037 576.372 22.7505 576.319 22.6091C576.272 22.4618 576.198 22.3352 576.098 22.2291C576.004 22.1231 575.883 22.0406 575.736 21.9817C575.594 21.9169 575.426 21.8845 575.232 21.8845C575.055 21.8845 574.887 21.9169 574.728 21.9817C574.575 22.0406 574.44 22.1231 574.322 22.2291C574.21 22.3352 574.116 22.4618 574.039 22.6091C573.968 22.7505 573.927 22.9037 573.915 23.0686H576.407ZM577.247 23.4044C577.247 23.4516 577.247 23.4987 577.247 23.5458C577.247 23.593 577.244 23.6401 577.238 23.6872H573.915C573.921 23.864 573.959 24.0319 574.03 24.1909C574.107 24.3441 574.207 24.4796 574.331 24.5975C574.454 24.7094 574.596 24.7978 574.755 24.8626C574.92 24.9274 575.093 24.9598 575.276 24.9598C575.559 24.9598 575.803 24.8979 576.01 24.7742C576.216 24.6505 576.378 24.5002 576.496 24.3235L577.079 24.7919C576.855 25.0864 576.59 25.3044 576.284 25.4458C575.983 25.5813 575.647 25.6491 575.276 25.6491C574.958 25.6491 574.663 25.596 574.392 25.49C574.121 25.3839 573.889 25.2367 573.694 25.0481C573.5 24.8537 573.347 24.621 573.235 24.35C573.123 24.079 573.067 23.7785 573.067 23.4486C573.067 23.1246 573.12 22.8271 573.226 22.5561C573.338 22.2792 573.491 22.0435 573.685 21.8491C573.88 21.6547 574.11 21.5045 574.375 21.3984C574.64 21.2865 574.926 21.2305 575.232 21.2305C575.538 21.2305 575.815 21.2806 576.063 21.3808C576.316 21.4809 576.528 21.6253 576.699 21.8138C576.876 22.0023 577.011 22.2321 577.105 22.5031C577.2 22.7682 577.247 23.0686 577.247 23.4044ZM579.158 21.3454C579.17 21.4515 579.178 21.5722 579.184 21.7077C579.19 21.8373 579.193 21.9463 579.193 22.0347H579.22C579.273 21.9228 579.343 21.8197 579.432 21.7254C579.526 21.6253 579.632 21.5398 579.75 21.4691C579.868 21.3925 579.997 21.3336 580.139 21.2924C580.28 21.2511 580.427 21.2305 580.581 21.2305C580.852 21.2305 581.084 21.2777 581.279 21.3719C581.473 21.4603 581.635 21.5811 581.765 21.7342C581.894 21.8874 581.989 22.0671 582.047 22.2733C582.112 22.4795 582.145 22.7004 582.145 22.9361V25.5342H581.314V23.21C581.314 23.0392 581.299 22.8772 581.27 22.724C581.246 22.5708 581.199 22.4353 581.128 22.3175C581.058 22.1997 580.961 22.1054 580.837 22.0347C580.713 21.964 580.554 21.9287 580.36 21.9287C580.03 21.9287 579.759 22.0553 579.547 22.3087C579.34 22.5561 579.237 22.889 579.237 23.3072V25.5342H578.407V22.2468C578.407 22.1349 578.404 21.9905 578.398 21.8138C578.392 21.637 578.383 21.4809 578.371 21.3454H579.158ZM586.89 24.8714C586.731 25.1247 586.513 25.3191 586.237 25.4546C585.966 25.5843 585.68 25.6491 585.379 25.6491C585.055 25.6491 584.764 25.5931 584.504 25.4812C584.245 25.3633 584.024 25.2043 583.842 25.004C583.659 24.8036 583.518 24.568 583.417 24.297C583.317 24.026 583.267 23.7373 583.267 23.431C583.267 23.1246 583.317 22.8389 583.417 22.5738C583.518 22.3028 583.659 22.0671 583.842 21.8668C584.03 21.6665 584.254 21.5104 584.513 21.3984C584.773 21.2865 585.058 21.2305 585.37 21.2305C585.712 21.2305 586.01 21.3042 586.263 21.4515C586.516 21.5928 586.717 21.7666 586.864 21.9728H586.882V18.8534H587.712V25.5342H586.908V24.8714H586.89ZM584.133 23.431C584.133 23.6254 584.163 23.8139 584.222 23.9965C584.281 24.1792 584.369 24.3412 584.487 24.4826C584.605 24.624 584.749 24.7388 584.92 24.8272C585.091 24.9097 585.291 24.9509 585.521 24.9509C585.733 24.9509 585.924 24.9097 586.095 24.8272C586.272 24.7447 586.422 24.6357 586.546 24.5002C586.67 24.3588 586.764 24.1968 586.829 24.0142C586.899 23.8316 586.935 23.6401 586.935 23.4398C586.935 23.2395 586.899 23.048 586.829 22.8654C586.764 22.6828 586.67 22.5207 586.546 22.3793C586.422 22.238 586.272 22.126 586.095 22.0435C585.924 21.9611 585.733 21.9198 585.521 21.9198C585.291 21.9198 585.091 21.9611 584.92 22.0435C584.749 22.126 584.605 22.238 584.487 22.3793C584.369 22.5207 584.281 22.6828 584.222 22.8654C584.163 23.048 584.133 23.2365 584.133 23.431ZM594.647 24.0849H594.665L596.512 19.2775H597.873V25.5342H596.998V20.3026H596.98L594.904 25.5342H594.347L592.279 20.3026H592.261V25.5342H591.413V19.2775H592.774L594.647 24.0849ZM603.593 23.431C603.593 23.755 603.534 24.0525 603.417 24.3235C603.305 24.5945 603.146 24.8302 602.939 25.0305C602.739 25.2249 602.5 25.3781 602.224 25.49C601.947 25.596 601.649 25.6491 601.331 25.6491C601.013 25.6491 600.715 25.596 600.438 25.49C600.162 25.3781 599.923 25.2249 599.723 25.0305C599.522 24.8302 599.363 24.5945 599.245 24.3235C599.133 24.0525 599.078 23.755 599.078 23.431C599.078 23.1069 599.133 22.8124 599.245 22.5473C599.363 22.2762 599.522 22.0435 599.723 21.8491C599.923 21.6547 600.162 21.5045 600.438 21.3984C600.715 21.2865 601.013 21.2305 601.331 21.2305C601.649 21.2305 601.947 21.2865 602.224 21.3984C602.5 21.5045 602.739 21.6547 602.939 21.8491C603.146 22.0435 603.305 22.2762 603.417 22.5473C603.534 22.8124 603.593 23.1069 603.593 23.431ZM602.727 23.431C602.727 23.2307 602.695 23.0392 602.63 22.8565C602.571 22.6739 602.483 22.5148 602.365 22.3793C602.247 22.238 602.1 22.126 601.923 22.0435C601.752 21.9611 601.555 21.9198 601.331 21.9198C601.107 21.9198 600.907 21.9611 600.73 22.0435C600.559 22.126 600.415 22.238 600.297 22.3793C600.179 22.5148 600.088 22.6739 600.023 22.8565C599.964 23.0392 599.935 23.2307 599.935 23.431C599.935 23.6313 599.964 23.8227 600.023 24.0054C600.088 24.188 600.179 24.35 600.297 24.4914C600.415 24.6328 600.559 24.7447 600.73 24.8272C600.907 24.9097 601.107 24.9509 601.331 24.9509C601.555 24.9509 601.752 24.9097 601.923 24.8272C602.1 24.7447 602.247 24.6328 602.365 24.4914C602.483 24.35 602.571 24.188 602.63 24.0054C602.695 23.8227 602.727 23.6313 602.727 23.431ZM605.496 21.3454C605.508 21.4515 605.517 21.5722 605.523 21.7077C605.529 21.8373 605.532 21.9463 605.532 22.0347H605.558C605.611 21.9228 605.682 21.8197 605.77 21.7254C605.865 21.6253 605.971 21.5398 606.088 21.4691C606.206 21.3925 606.336 21.3336 606.477 21.2924C606.619 21.2511 606.766 21.2305 606.919 21.2305C607.19 21.2305 607.423 21.2777 607.617 21.3719C607.812 21.4603 607.974 21.5811 608.103 21.7342C608.233 21.8874 608.327 22.0671 608.386 22.2733C608.451 22.4795 608.483 22.7004 608.483 22.9361V25.5342H607.653V23.21C607.653 23.0392 607.638 22.8772 607.608 22.724C607.585 22.5708 607.538 22.4353 607.467 22.3175C607.396 22.1997 607.299 22.1054 607.175 22.0347C607.052 21.964 606.893 21.9287 606.698 21.9287C606.368 21.9287 606.097 22.0553 605.885 22.3087C605.679 22.5561 605.576 22.889 605.576 23.3072V25.5342H604.745V22.2468C604.745 22.1349 604.742 21.9905 604.736 21.8138C604.73 21.637 604.722 21.4809 604.71 21.3454H605.496ZM612.955 23.0686C612.949 22.9037 612.92 22.7505 612.867 22.6091C612.82 22.4618 612.746 22.3352 612.646 22.2291C612.552 22.1231 612.431 22.0406 612.283 21.9817C612.142 21.9169 611.974 21.8845 611.78 21.8845C611.603 21.8845 611.435 21.9169 611.276 21.9817C611.123 22.0406 610.987 22.1231 610.87 22.2291C610.758 22.3352 610.663 22.4618 610.587 22.6091C610.516 22.7505 610.475 22.9037 610.463 23.0686H612.955ZM613.795 23.4044C613.795 23.4516 613.795 23.4987 613.795 23.5458C613.795 23.593 613.792 23.6401 613.786 23.6872H610.463C610.469 23.864 610.507 24.0319 610.578 24.1909C610.655 24.3441 610.755 24.4796 610.878 24.5975C611.002 24.7094 611.144 24.7978 611.303 24.8626C611.468 24.9274 611.641 24.9598 611.824 24.9598C612.107 24.9598 612.351 24.8979 612.557 24.7742C612.764 24.6505 612.926 24.5002 613.043 24.3235L613.627 24.7919C613.403 25.0864 613.138 25.3044 612.831 25.4458C612.531 25.5813 612.195 25.6491 611.824 25.6491C611.506 25.6491 611.211 25.596 610.94 25.49C610.669 25.3839 610.437 25.2367 610.242 25.0481C610.048 24.8537 609.895 24.621 609.783 24.35C609.671 24.079 609.615 23.7785 609.615 23.4486C609.615 23.1246 609.668 22.8271 609.774 22.5561C609.886 22.2792 610.039 22.0435 610.233 21.8491C610.428 21.6547 610.657 21.5045 610.923 21.3984C611.188 21.2865 611.473 21.2305 611.78 21.2305C612.086 21.2305 612.363 21.2806 612.61 21.3808C612.864 21.4809 613.076 21.6253 613.247 21.8138C613.423 22.0023 613.559 22.2321 613.653 22.5031C613.747 22.7682 613.795 23.0686 613.795 23.4044ZM616.545 24.6328H616.563L617.72 21.3454H618.604L616.572 26.5239C616.501 26.7007 616.424 26.8568 616.342 26.9923C616.259 27.1337 616.162 27.2515 616.05 27.3458C615.938 27.4459 615.806 27.5225 615.653 27.5755C615.505 27.6286 615.329 27.6551 615.122 27.6551C615.034 27.6551 614.943 27.6492 614.848 27.6374C614.76 27.6315 614.669 27.6168 614.574 27.5932L614.654 26.8597C614.795 26.9069 614.934 26.9304 615.069 26.9304C615.287 26.9304 615.449 26.8686 615.555 26.7449C615.661 26.627 615.759 26.4562 615.847 26.2323L616.112 25.5342L614.318 21.3454H615.246L616.545 24.6328Z" fill="white"/>
<path d="M652.822 21.5156L656.361 25.0547L659.9 21.5156" stroke="white" stroke-width="0.552317" stroke-linecap="round"/>
<rect x="164.258" y="75.7812" width="235.938" height="3.53906" rx="1.76953" fill="#EAEAEA"/>
<path d="M165.086 53.4271V61.0078H170.108V60.1584H166.095V53.4271H165.086ZM174.648 57.7377H171.495C171.509 57.5254 171.555 57.3272 171.633 57.1432C171.711 56.952 171.817 56.7857 171.952 56.6441C172.086 56.5026 172.245 56.3929 172.429 56.315C172.621 56.2301 172.833 56.1876 173.067 56.1876C173.293 56.1876 173.498 56.2301 173.682 56.315C173.873 56.3929 174.036 56.5026 174.171 56.6441C174.312 56.7786 174.422 56.9414 174.5 57.1325C174.585 57.3236 174.634 57.5254 174.648 57.7377ZM175.519 59.2666H174.627C174.549 59.6276 174.387 59.8965 174.139 60.0735C173.898 60.2505 173.587 60.3389 173.205 60.3389C172.907 60.3389 172.649 60.2894 172.429 60.1903C172.21 60.0912 172.03 59.9602 171.888 59.7975C171.746 59.6276 171.644 59.4365 171.58 59.2241C171.516 59.0047 171.488 58.7747 171.495 58.534H175.604C175.618 58.2013 175.586 57.851 175.508 57.4829C175.438 57.1148 175.303 56.7751 175.105 56.4637C174.914 56.1522 174.656 55.8974 174.33 55.6992C174.011 55.494 173.608 55.3913 173.12 55.3913C172.744 55.3913 172.398 55.4621 172.079 55.6037C171.768 55.7452 171.495 55.9434 171.262 56.1982C171.035 56.453 170.858 56.7539 170.731 57.1007C170.603 57.4475 170.54 57.8297 170.54 58.2473C170.554 58.665 170.614 59.0507 170.72 59.4046C170.833 59.7585 171 60.0629 171.219 60.3177C171.439 60.5725 171.708 60.7707 172.026 60.9123C172.352 61.0538 172.734 61.1246 173.173 61.1246C173.796 61.1246 174.312 60.9689 174.723 60.6574C175.133 60.346 175.399 59.8824 175.519 59.2666ZM176.539 55.5187V61.0078H177.442V57.9076C177.442 57.6599 177.474 57.4334 177.538 57.2281C177.608 57.0157 177.711 56.8317 177.845 56.676C177.98 56.5203 178.146 56.4 178.344 56.315C178.55 56.2301 178.79 56.1876 179.066 56.1876C179.413 56.1876 179.686 56.2867 179.884 56.4849C180.082 56.6831 180.181 56.952 180.181 57.2918V61.0078H181.084V57.398C181.084 57.1007 181.052 56.8317 180.988 56.5911C180.931 56.3433 180.829 56.131 180.68 55.954C180.532 55.7771 180.337 55.6391 180.096 55.54C179.856 55.4409 179.555 55.3913 179.194 55.3913C178.38 55.3913 177.785 55.724 177.41 56.3893H177.389V55.5187H176.539ZM186.166 57.2812H187.1C187.065 56.9556 186.98 56.676 186.845 56.4424C186.711 56.2018 186.537 56.0036 186.325 55.8479C186.12 55.6921 185.879 55.5789 185.603 55.5081C185.334 55.4302 185.044 55.3913 184.732 55.3913C184.301 55.3913 183.922 55.4692 183.596 55.6249C183.271 55.7735 182.998 55.9823 182.779 56.2513C182.566 56.5132 182.407 56.8246 182.301 57.1856C182.195 57.5395 182.142 57.9217 182.142 58.3323C182.142 58.7428 182.195 59.1215 182.301 59.4683C182.414 59.8081 182.577 60.1018 182.789 60.3495C183.009 60.5973 183.278 60.7884 183.596 60.9229C183.922 61.0574 184.294 61.1246 184.711 61.1246C185.412 61.1246 185.964 60.9406 186.367 60.5725C186.778 60.2044 187.033 59.6807 187.132 59.0012H186.208C186.152 59.4259 185.996 59.755 185.741 59.9886C185.493 60.2221 185.146 60.3389 184.701 60.3389C184.417 60.3389 184.173 60.2823 183.968 60.1691C183.763 60.0558 183.596 59.9072 183.469 59.7231C183.342 59.532 183.246 59.3161 183.182 59.0755C183.126 58.8348 183.097 58.5871 183.097 58.3323C183.097 58.0562 183.126 57.7908 183.182 57.536C183.239 57.2741 183.331 57.0441 183.458 56.8459C183.593 56.6477 183.77 56.4884 183.989 56.3681C184.209 56.2478 184.481 56.1876 184.807 56.1876C185.189 56.1876 185.493 56.2832 185.72 56.4743C185.946 56.6654 186.095 56.9344 186.166 57.2812ZM188.8 58.2686C188.8 57.9359 188.842 57.6422 188.927 57.3874C189.019 57.1255 189.143 56.906 189.299 56.7291C189.455 56.5521 189.635 56.4176 189.84 56.3256C190.053 56.2336 190.276 56.1876 190.509 56.1876C190.743 56.1876 190.962 56.2336 191.168 56.3256C191.38 56.4176 191.564 56.5521 191.72 56.7291C191.875 56.906 191.996 57.1255 192.081 57.3874C192.173 57.6422 192.219 57.9359 192.219 58.2686C192.219 58.6012 192.173 58.8985 192.081 59.1604C191.996 59.4152 191.875 59.6311 191.72 59.8081C191.564 59.9779 191.38 60.1089 191.168 60.2009C190.962 60.2929 190.743 60.3389 190.509 60.3389C190.276 60.3389 190.053 60.2929 189.84 60.2009C189.635 60.1089 189.455 59.9779 189.299 59.8081C189.143 59.6311 189.019 59.4152 188.927 59.1604C188.842 58.8985 188.8 58.6012 188.8 58.2686ZM187.844 58.2686C187.844 58.672 187.901 59.0472 188.014 59.394C188.128 59.7408 188.297 60.0452 188.524 60.3071C188.75 60.5619 189.03 60.7636 189.363 60.9123C189.695 61.0538 190.078 61.1246 190.509 61.1246C190.948 61.1246 191.33 61.0538 191.656 60.9123C191.989 60.7636 192.268 60.5619 192.495 60.3071C192.721 60.0452 192.891 59.7408 193.004 59.394C193.118 59.0472 193.174 58.672 193.174 58.2686C193.174 57.8651 193.118 57.49 193.004 57.1432C192.891 56.7892 192.721 56.4849 192.495 56.2301C192.268 55.9682 191.989 55.7629 191.656 55.6143C191.33 55.4656 190.948 55.3913 190.509 55.3913C190.078 55.3913 189.695 55.4656 189.363 55.6143C189.03 55.7629 188.75 55.9682 188.524 56.2301C188.297 56.4849 188.128 56.7892 188.014 57.1432C187.901 57.49 187.844 57.8651 187.844 58.2686ZM203.011 60.0629L203.277 61.0078H203.914V57.0157H200.591V57.8651H203.011C203.026 58.212 202.98 58.5375 202.873 58.8419C202.767 59.1392 202.608 59.4011 202.396 59.6276C202.19 59.847 201.936 60.0204 201.631 60.1478C201.327 60.2752 200.976 60.3389 200.58 60.3389C200.155 60.3389 199.78 60.2575 199.455 60.0947C199.136 59.9249 198.867 59.7019 198.648 59.4259C198.428 59.1427 198.262 58.8207 198.149 58.4597C198.036 58.0916 197.979 57.7094 197.979 57.313C197.979 56.9096 198.028 56.5167 198.128 56.1345C198.227 55.7452 198.379 55.4019 198.584 55.1047C198.796 54.8003 199.065 54.5561 199.391 54.3721C199.724 54.188 200.12 54.096 200.58 54.096C200.863 54.096 201.129 54.1314 201.376 54.2022C201.631 54.2659 201.858 54.365 202.056 54.4995C202.254 54.634 202.42 54.8074 202.555 55.0197C202.689 55.225 202.781 55.4727 202.831 55.7629H203.84C203.769 55.317 203.634 54.9383 203.436 54.6269C203.245 54.3084 203.004 54.0465 202.714 53.8412C202.431 53.6359 202.105 53.4873 201.737 53.3953C201.376 53.2962 200.991 53.2466 200.58 53.2466C199.978 53.2466 199.451 53.3599 198.998 53.5864C198.552 53.8058 198.177 54.1031 197.873 54.4782C197.575 54.8534 197.349 55.2922 197.193 55.7948C197.045 56.2902 196.97 56.814 196.97 57.3661C196.97 57.8616 197.052 58.3394 197.214 58.7994C197.377 59.2595 197.614 59.6665 197.926 60.0204C198.237 60.3743 198.616 60.6574 199.062 60.8698C199.508 61.0751 200.014 61.1777 200.58 61.1777C201.026 61.1777 201.468 61.0928 201.907 60.9229C202.346 60.7459 202.714 60.4593 203.011 60.0629ZM205.218 55.5187V61.0078H206.12V58.5659C206.12 58.212 206.155 57.9005 206.226 57.6315C206.297 57.3555 206.41 57.1219 206.566 56.9308C206.722 56.7397 206.927 56.5946 207.182 56.4955C207.437 56.3964 207.744 56.3469 208.105 56.3469V55.3913C207.617 55.3772 207.214 55.4763 206.895 55.6886C206.577 55.9009 206.308 56.2301 206.088 56.676H206.067V55.5187H205.218ZM209.257 58.2686C209.257 57.9359 209.299 57.6422 209.384 57.3874C209.476 57.1255 209.6 56.906 209.756 56.7291C209.911 56.5521 210.092 56.4176 210.297 56.3256C210.51 56.2336 210.732 56.1876 210.966 56.1876C211.2 56.1876 211.419 56.2336 211.624 56.3256C211.837 56.4176 212.021 56.5521 212.176 56.7291C212.332 56.906 212.452 57.1255 212.537 57.3874C212.629 57.6422 212.675 57.9359 212.675 58.2686C212.675 58.6012 212.629 58.8985 212.537 59.1604C212.452 59.4152 212.332 59.6311 212.176 59.8081C212.021 59.9779 211.837 60.1089 211.624 60.2009C211.419 60.2929 211.2 60.3389 210.966 60.3389C210.732 60.3389 210.51 60.2929 210.297 60.2009C210.092 60.1089 209.911 59.9779 209.756 59.8081C209.6 59.6311 209.476 59.4152 209.384 59.1604C209.299 58.8985 209.257 58.6012 209.257 58.2686ZM208.301 58.2686C208.301 58.672 208.358 59.0472 208.471 59.394C208.584 59.7408 208.754 60.0452 208.981 60.3071C209.207 60.5619 209.487 60.7636 209.819 60.9123C210.152 61.0538 210.534 61.1246 210.966 61.1246C211.405 61.1246 211.787 61.0538 212.113 60.9123C212.445 60.7636 212.725 60.5619 212.951 60.3071C213.178 60.0452 213.348 59.7408 213.461 59.394C213.574 59.0472 213.631 58.672 213.631 58.2686C213.631 57.8651 213.574 57.49 213.461 57.1432C213.348 56.7892 213.178 56.4849 212.951 56.2301C212.725 55.9682 212.445 55.7629 212.113 55.6143C211.787 55.4656 211.405 55.3913 210.966 55.3913C210.534 55.3913 210.152 55.4656 209.819 55.6143C209.487 55.7629 209.207 55.9682 208.981 56.2301C208.754 56.4849 208.584 56.7892 208.471 57.1432C208.358 57.49 208.301 57.8651 208.301 58.2686ZM220.131 61.0078L221.883 55.5187H220.949L219.717 60.0098H219.696L218.549 55.5187H217.562L216.457 60.0098H216.436L215.194 55.5187H214.196L215.958 61.0078H216.935L218.039 56.6441H218.061L219.175 61.0078H220.131ZM223.994 55.5187V53.8731H223.091V55.5187H222.157V56.315H223.091V59.8081C223.091 60.0629 223.116 60.2681 223.166 60.4239C223.215 60.5796 223.289 60.6999 223.388 60.7849C223.495 60.8698 223.629 60.93 223.792 60.9653C223.962 60.9937 224.164 61.0078 224.397 61.0078H225.087V60.2115H224.673C224.532 60.2115 224.415 60.208 224.323 60.2009C224.238 60.1867 224.171 60.162 224.121 60.1266C224.072 60.0912 224.036 60.0416 224.015 59.9779C224.001 59.9142 223.994 59.8293 223.994 59.7231V56.315H225.087V55.5187H223.994ZM226.09 53.4271V61.0078H226.992V57.9076C226.992 57.6599 227.024 57.4334 227.088 57.2281C227.159 57.0157 227.261 56.8317 227.396 56.676C227.53 56.5203 227.697 56.4 227.895 56.315C228.1 56.2301 228.341 56.1876 228.617 56.1876C228.964 56.1876 229.236 56.2867 229.434 56.4849C229.632 56.6831 229.732 56.952 229.732 57.2918V61.0078H230.634V57.398C230.634 57.1007 230.602 56.8317 230.538 56.5911C230.482 56.3433 230.379 56.131 230.231 55.954C230.082 55.7771 229.887 55.6391 229.647 55.54C229.406 55.4409 229.105 55.3913 228.744 55.3913C228.581 55.3913 228.411 55.409 228.234 55.4444C228.065 55.4798 227.898 55.5364 227.735 55.6143C227.58 55.6851 227.438 55.7806 227.311 55.9009C227.183 56.0142 227.084 56.1558 227.014 56.3256H226.992V53.4271H226.09Z" fill="#1F1F30"/>
<rect x="164.258" y="190.665" width="65.3365" height="5.44471" rx="2.2025" fill="#EAEAEA"/>
<rect x="161.898" y="209.676" width="553.273" height="23.0039" rx="4.71875" fill="#FAFAFF"/>
<rect x="187.852" y="217.344" width="35.3906" height="2.94922" rx="1.47461" fill="#EAEAEA"/>
<rect x="187.852" y="238.578" width="35.3906" height="2.94922" rx="1.47461" fill="#EAEAEA"/>
<rect x="187.852" y="303.461" width="35.3906" height="2.94922" rx="1.47461" fill="#EAEAEA"/>
<rect x="187.852" y="368.344" width="35.3906" height="2.94922" rx="1.47461" fill="#EAEAEA"/>
<rect x="187.852" y="271.02" width="35.3906" height="2.94922" rx="1.47461" fill="#EAEAEA"/>
<rect x="187.852" y="335.902" width="35.3906" height="2.94922" rx="1.47461" fill="#EAEAEA"/>
<rect x="187.852" y="400.785" width="35.3906" height="2.94922" rx="1.47461" fill="#EAEAEA"/>
<rect x="249.195" y="238.578" width="53.0859" height="3.53906" rx="1.76953" fill="#EAEAEA"/>
<rect x="249.195" y="303.461" width="53.0859" height="3.53906" rx="1.76953" fill="#EAEAEA"/>
<rect x="249.195" y="368.344" width="53.0859" height="3.53906" rx="1.76953" fill="#EAEAEA"/>
<rect x="249.195" y="271.02" width="53.0859" height="3.53906" rx="1.76953" fill="#EAEAEA"/>
<rect x="249.195" y="335.902" width="53.0859" height="3.53906" rx="1.76953" fill="#EAEAEA"/>
<rect x="249.195" y="400.785" width="53.0859" height="3.53906" rx="1.76953" fill="#EAEAEA"/>
<rect x="338.852" y="238.578" width="35.3906" height="2.94922" rx="1.47461" fill="#EAEAEA"/>
<rect x="338.852" y="303.461" width="35.3906" height="2.94922" rx="1.47461" fill="#EAEAEA"/>
<rect x="338.852" y="368.344" width="35.3906" height="2.94922" rx="1.47461" fill="#EAEAEA"/>
<rect x="338.852" y="271.02" width="35.3906" height="2.94922" rx="1.47461" fill="#EAEAEA"/>
<rect x="338.852" y="335.902" width="35.3906" height="2.94922" rx="1.47461" fill="#EAEAEA"/>
<rect x="338.852" y="400.785" width="35.3906" height="2.94922" rx="1.47461" fill="#EAEAEA"/>
<rect x="407.273" y="238.578" width="35.3906" height="2.94922" rx="1.47461" fill="#EAEAEA"/>
<rect x="407.273" y="303.461" width="35.3906" height="2.94922" rx="1.47461" fill="#EAEAEA"/>
<rect x="407.273" y="368.344" width="35.3906" height="2.94922" rx="1.47461" fill="#EAEAEA"/>
<rect x="407.273" y="271.02" width="35.3906" height="2.94922" rx="1.47461" fill="#EAEAEA"/>
<rect x="407.273" y="335.902" width="35.3906" height="2.94922" rx="1.47461" fill="#EAEAEA"/>
<rect x="407.273" y="400.785" width="35.3906" height="2.94922" rx="1.47461" fill="#EAEAEA"/>
<rect x="475.695" y="238.578" width="53.0859" height="3.53906" rx="1.76953" fill="#EAEAEA"/>
<rect x="475.695" y="303.461" width="53.0859" height="3.53906" rx="1.76953" fill="#EAEAEA"/>
<rect x="475.695" y="368.344" width="53.0859" height="3.53906" rx="1.76953" fill="#EAEAEA"/>
<rect x="475.695" y="271.02" width="53.0859" height="3.53906" rx="1.76953" fill="#EAEAEA"/>
<rect x="475.695" y="335.902" width="53.0859" height="3.53906" rx="1.76953" fill="#EAEAEA"/>
<rect x="475.695" y="400.785" width="53.0859" height="3.53906" rx="1.76953" fill="#EAEAEA"/>
<rect x="567.121" y="238.578" width="35.3906" height="2.94922" rx="1.47461" fill="#EAEAEA"/>
<rect x="567.121" y="303.461" width="35.3906" height="2.94922" rx="1.47461" fill="#EAEAEA"/>
<rect x="567.121" y="368.344" width="35.3906" height="2.94922" rx="1.47461" fill="#EAEAEA"/>
<rect x="567.121" y="271.02" width="35.3906" height="2.94922" rx="1.47461" fill="#EAEAEA"/>
<rect x="567.121" y="335.902" width="35.3906" height="2.94922" rx="1.47461" fill="#EAEAEA"/>
<rect x="567.121" y="400.785" width="35.3906" height="2.94922" rx="1.47461" fill="#EAEAEA"/>
<rect x="629.645" y="238.578" width="35.3906" height="2.94922" rx="1.47461" fill="#EAEAEA"/>
<rect x="629.645" y="303.461" width="35.3906" height="2.94922" rx="1.47461" fill="#EAEAEA"/>
<rect x="629.645" y="368.344" width="35.3906" height="2.94922" rx="1.47461" fill="#EAEAEA"/>
<rect x="629.645" y="271.02" width="35.3906" height="2.94922" rx="1.47461" fill="#EAEAEA"/>
<rect x="629.645" y="335.902" width="35.3906" height="2.94922" rx="1.47461" fill="#EAEAEA"/>
<rect x="629.645" y="400.785" width="35.3906" height="2.94922" rx="1.47461" fill="#EAEAEA"/>
<rect x="249.195" y="217.344" width="35.3906" height="2.94922" rx="1.47461" fill="#EAEAEA"/>
<rect x="338.852" y="217.344" width="35.3906" height="2.94922" rx="1.47461" fill="#EAEAEA"/>
<rect x="407.863" y="217.344" width="35.3906" height="2.94922" rx="1.47461" fill="#EAEAEA"/>
<rect x="634.363" y="217.344" width="35.3906" height="2.94922" rx="1.47461" fill="#EAEAEA"/>
<rect x="567.121" y="217.344" width="35.3906" height="2.94922" rx="1.47461" fill="#EAEAEA"/>
<rect x="475.695" y="217.344" width="35.3906" height="2.94922" rx="1.47461" fill="#EAEAEA"/>
<rect x="475.695" y="250.965" width="35.3906" height="2.94922" rx="1.47461" fill="#EAEAEA"/>
<rect x="475.695" y="315.848" width="35.3906" height="2.94922" rx="1.47461" fill="#EAEAEA"/>
<rect x="475.695" y="380.73" width="35.3906" height="2.94922" rx="1.47461" fill="#EAEAEA"/>
<rect x="475.695" y="283.406" width="35.3906" height="2.94922" rx="1.47461" fill="#EAEAEA"/>
<rect x="475.695" y="348.289" width="35.3906" height="2.94922" rx="1.47461" fill="#EAEAEA"/>
<rect x="475.695" y="413.172" width="35.3906" height="2.94922" rx="1.47461" fill="#EAEAEA"/>
<g filter="url(#filter0_d_4546_14117)">
<rect x="164.258" y="100.555" width="125.637" height="57.8047" rx="4.71875" fill="white"/>
<path d="M176.787 113.771V121.352H178.348V116.277H178.369L181.523 121.352H183.189V113.771H181.629V118.857H181.607L178.444 113.771H176.787ZM184.317 116.776H185.761C185.761 116.577 185.779 116.379 185.814 116.181C185.857 115.976 185.924 115.792 186.016 115.629C186.108 115.459 186.228 115.325 186.377 115.225C186.533 115.119 186.72 115.066 186.94 115.066C187.265 115.066 187.531 115.169 187.736 115.374C187.948 115.572 188.054 115.852 188.054 116.213C188.054 116.439 188.001 116.641 187.895 116.818C187.796 116.995 187.669 117.154 187.513 117.296C187.364 117.437 187.198 117.568 187.014 117.689C186.83 117.802 186.656 117.915 186.494 118.028C186.175 118.248 185.871 118.464 185.581 118.676C185.297 118.888 185.05 119.122 184.837 119.377C184.625 119.624 184.455 119.908 184.328 120.226C184.207 120.545 184.147 120.92 184.147 121.352H189.604V120.056H186.09C186.274 119.801 186.487 119.578 186.727 119.387C186.968 119.196 187.216 119.019 187.47 118.857C187.725 118.687 187.976 118.517 188.224 118.347C188.479 118.177 188.706 117.989 188.904 117.784C189.102 117.572 189.261 117.331 189.381 117.062C189.502 116.793 189.562 116.471 189.562 116.096C189.562 115.735 189.491 115.409 189.35 115.119C189.215 114.829 189.031 114.585 188.798 114.387C188.564 114.188 188.291 114.036 187.98 113.93C187.676 113.824 187.354 113.771 187.014 113.771C186.568 113.771 186.172 113.849 185.825 114.004C185.485 114.153 185.202 114.365 184.975 114.641C184.749 114.91 184.579 115.229 184.466 115.597C184.352 115.958 184.303 116.351 184.317 116.776ZM190.472 119.717V121.352H191.236C191.243 121.465 191.229 121.575 191.193 121.681C191.158 121.794 191.105 121.893 191.034 121.978C190.963 122.07 190.878 122.148 190.779 122.212C190.687 122.275 190.588 122.318 190.482 122.339V123.103C190.709 123.068 190.921 123.001 191.119 122.902C191.324 122.81 191.501 122.689 191.65 122.541C191.799 122.392 191.915 122.215 192 122.01C192.092 121.812 192.138 121.592 192.138 121.352V119.717H190.472ZM198.087 115.162V113.92H193.936L193.204 118.028H194.563C194.711 117.823 194.87 117.674 195.04 117.582C195.21 117.483 195.43 117.434 195.699 117.434C195.904 117.434 196.084 117.469 196.24 117.54C196.396 117.611 196.53 117.71 196.643 117.837C196.757 117.965 196.842 118.113 196.898 118.283C196.955 118.453 196.983 118.634 196.983 118.825C196.983 119.009 196.951 119.189 196.888 119.366C196.831 119.536 196.746 119.688 196.633 119.823C196.527 119.95 196.392 120.056 196.229 120.141C196.074 120.219 195.897 120.258 195.699 120.258C195.359 120.258 195.079 120.159 194.86 119.961C194.64 119.755 194.513 119.483 194.478 119.143H192.97C192.977 119.532 193.055 119.876 193.204 120.173C193.359 120.463 193.565 120.707 193.819 120.906C194.074 121.104 194.364 121.252 194.69 121.352C195.023 121.444 195.369 121.49 195.73 121.49C196.106 121.497 196.459 121.437 196.792 121.309C197.125 121.175 197.415 120.987 197.663 120.746C197.918 120.506 198.119 120.223 198.268 119.897C198.417 119.564 198.491 119.207 198.491 118.825C198.491 118.478 198.438 118.152 198.332 117.848C198.233 117.536 198.084 117.267 197.886 117.041C197.695 116.814 197.457 116.634 197.174 116.5C196.891 116.365 196.566 116.298 196.198 116.298C195.9 116.298 195.635 116.344 195.401 116.436C195.168 116.521 194.948 116.666 194.743 116.871L194.722 116.85L195.019 115.162H198.087ZM201.991 115.809V118.389H200.037L201.959 115.809H201.991ZM201.991 119.632V121.352H203.424V119.632H204.412V118.389H203.424V113.92H202.076L198.848 118.251V119.632H201.991ZM209.887 115.162V113.92H205.735L205.003 118.028H206.362C206.51 117.823 206.67 117.674 206.839 117.582C207.009 117.483 207.229 117.434 207.498 117.434C207.703 117.434 207.883 117.469 208.039 117.54C208.195 117.611 208.329 117.71 208.443 117.837C208.556 117.965 208.641 118.113 208.697 118.283C208.754 118.453 208.782 118.634 208.782 118.825C208.782 119.009 208.751 119.189 208.687 119.366C208.63 119.536 208.545 119.688 208.432 119.823C208.326 119.95 208.191 120.056 208.029 120.141C207.873 120.219 207.696 120.258 207.498 120.258C207.158 120.258 206.878 120.159 206.659 119.961C206.44 119.755 206.312 119.483 206.277 119.143H204.769C204.776 119.532 204.854 119.876 205.003 120.173C205.158 120.463 205.364 120.707 205.618 120.906C205.873 121.104 206.164 121.252 206.489 121.352C206.822 121.444 207.169 121.49 207.53 121.49C207.905 121.497 208.259 121.437 208.591 121.309C208.924 121.175 209.214 120.987 209.462 120.746C209.717 120.506 209.918 120.223 210.067 119.897C210.216 119.564 210.29 119.207 210.29 118.825C210.29 118.478 210.237 118.152 210.131 117.848C210.032 117.536 209.883 117.267 209.685 117.041C209.494 116.814 209.257 116.634 208.974 116.5C208.69 116.365 208.365 116.298 207.997 116.298C207.699 116.298 207.434 116.344 207.2 116.436C206.967 116.521 206.747 116.666 206.542 116.871L206.521 116.85L206.818 115.162H209.887ZM211.125 119.717V121.352H211.89C211.897 121.465 211.883 121.575 211.847 121.681C211.812 121.794 211.759 121.893 211.688 121.978C211.617 122.07 211.532 122.148 211.433 122.212C211.341 122.275 211.242 122.318 211.136 122.339V123.103C211.362 123.068 211.575 123.001 211.773 122.902C211.978 122.81 212.155 122.689 212.304 122.541C212.452 122.392 212.569 122.215 212.654 122.01C212.746 121.812 212.792 121.592 212.792 121.352V119.717H211.125ZM216.745 115.809V118.389H214.792L216.713 115.809H216.745ZM216.745 119.632V121.352H218.178V119.632H219.166V118.389H218.178V113.92H216.83L213.602 118.251V119.632H216.745ZM221.753 116.924V117.986C221.937 117.986 222.128 117.993 222.326 118.007C222.531 118.014 222.719 118.053 222.889 118.124C223.059 118.188 223.197 118.294 223.303 118.442C223.416 118.591 223.473 118.807 223.473 119.09C223.473 119.451 223.356 119.738 223.123 119.95C222.889 120.155 222.602 120.258 222.263 120.258C222.043 120.258 221.852 120.219 221.689 120.141C221.533 120.063 221.403 119.961 221.296 119.833C221.19 119.699 221.109 119.543 221.052 119.366C220.996 119.182 220.964 118.991 220.957 118.793H219.523C219.516 119.225 219.576 119.607 219.704 119.939C219.838 120.272 220.026 120.555 220.266 120.789C220.507 121.015 220.797 121.189 221.137 121.309C221.484 121.429 221.866 121.49 222.284 121.49C222.645 121.49 222.992 121.437 223.324 121.33C223.657 121.224 223.951 121.068 224.205 120.863C224.46 120.658 224.662 120.403 224.811 120.099C224.966 119.794 225.044 119.448 225.044 119.058C225.044 118.634 224.927 118.269 224.694 117.965C224.46 117.66 224.138 117.462 223.728 117.37V117.349C224.075 117.25 224.333 117.062 224.503 116.786C224.68 116.51 224.768 116.192 224.768 115.831C224.768 115.498 224.694 115.204 224.545 114.949C224.397 114.695 224.202 114.479 223.961 114.302C223.728 114.125 223.462 113.994 223.165 113.909C222.868 113.817 222.57 113.771 222.273 113.771C221.891 113.771 221.544 113.835 221.233 113.962C220.921 114.082 220.652 114.256 220.426 114.482C220.206 114.709 220.033 114.981 219.905 115.3C219.785 115.611 219.718 115.958 219.704 116.34H221.137C221.13 115.958 221.222 115.643 221.413 115.395C221.611 115.141 221.902 115.013 222.284 115.013C222.56 115.013 222.804 115.098 223.016 115.268C223.229 115.438 223.335 115.682 223.335 116C223.335 116.213 223.282 116.383 223.176 116.51C223.076 116.638 222.946 116.737 222.783 116.807C222.627 116.871 222.457 116.91 222.273 116.924C222.089 116.938 221.916 116.938 221.753 116.924ZM228.544 115.809V118.389H226.591L228.512 115.809H228.544ZM228.544 119.632V121.352H229.978V119.632H230.965V118.389H229.978V113.92H228.629L225.402 118.251V119.632H228.544ZM231.768 119.717V121.352H233.435V119.717H231.768ZM235.817 117.604C235.817 117.476 235.817 117.324 235.817 117.147C235.824 116.963 235.838 116.776 235.859 116.584C235.881 116.393 235.916 116.206 235.966 116.022C236.015 115.831 236.082 115.661 236.167 115.512C236.259 115.363 236.373 115.243 236.507 115.151C236.649 115.059 236.822 115.013 237.027 115.013C237.233 115.013 237.406 115.059 237.548 115.151C237.689 115.243 237.806 115.363 237.898 115.512C237.99 115.661 238.057 115.831 238.1 116.022C238.149 116.206 238.185 116.393 238.206 116.584C238.234 116.776 238.248 116.963 238.248 117.147C238.255 117.324 238.259 117.476 238.259 117.604C238.259 117.816 238.252 118.074 238.238 118.379C238.223 118.676 238.177 118.966 238.1 119.249C238.029 119.525 237.909 119.763 237.739 119.961C237.576 120.159 237.339 120.258 237.027 120.258C236.723 120.258 236.489 120.159 236.327 119.961C236.164 119.763 236.043 119.525 235.966 119.249C235.895 118.966 235.852 118.676 235.838 118.379C235.824 118.074 235.817 117.816 235.817 117.604ZM234.309 117.604C234.309 118.347 234.38 118.97 234.522 119.472C234.67 119.968 234.868 120.364 235.116 120.661C235.364 120.959 235.651 121.171 235.976 121.298C236.309 121.426 236.659 121.49 237.027 121.49C237.402 121.49 237.753 121.426 238.078 121.298C238.411 121.171 238.701 120.959 238.949 120.661C239.204 120.364 239.402 119.968 239.544 119.472C239.692 118.97 239.767 118.347 239.767 117.604C239.767 116.882 239.692 116.277 239.544 115.788C239.402 115.293 239.204 114.896 238.949 114.599C238.701 114.302 238.411 114.089 238.078 113.962C237.753 113.835 237.402 113.771 237.027 113.771C236.659 113.771 236.309 113.835 235.976 113.962C235.651 114.089 235.364 114.302 235.116 114.599C234.868 114.896 234.67 115.293 234.522 115.788C234.38 116.277 234.309 116.882 234.309 117.604ZM241.717 117.604C241.717 117.476 241.717 117.324 241.717 117.147C241.724 116.963 241.738 116.776 241.759 116.584C241.78 116.393 241.816 116.206 241.865 116.022C241.915 115.831 241.982 115.661 242.067 115.512C242.159 115.363 242.272 115.243 242.407 115.151C242.548 115.059 242.722 115.013 242.927 115.013C243.132 115.013 243.306 115.059 243.447 115.151C243.589 115.243 243.705 115.363 243.797 115.512C243.89 115.661 243.957 115.831 243.999 116.022C244.049 116.206 244.084 116.393 244.105 116.584C244.134 116.776 244.148 116.963 244.148 117.147C244.155 117.324 244.158 117.476 244.158 117.604C244.158 117.816 244.151 118.074 244.137 118.379C244.123 118.676 244.077 118.966 243.999 119.249C243.928 119.525 243.808 119.763 243.638 119.961C243.475 120.159 243.238 120.258 242.927 120.258C242.623 120.258 242.389 120.159 242.226 119.961C242.063 119.763 241.943 119.525 241.865 119.249C241.794 118.966 241.752 118.676 241.738 118.379C241.724 118.074 241.717 117.816 241.717 117.604ZM240.209 117.604C240.209 118.347 240.28 118.97 240.421 119.472C240.57 119.968 240.768 120.364 241.016 120.661C241.264 120.959 241.55 121.171 241.876 121.298C242.208 121.426 242.559 121.49 242.927 121.49C243.302 121.49 243.652 121.426 243.978 121.298C244.311 121.171 244.601 120.959 244.849 120.661C245.103 120.364 245.302 119.968 245.443 119.472C245.592 118.97 245.666 118.347 245.666 117.604C245.666 116.882 245.592 116.277 245.443 115.788C245.302 115.293 245.103 114.896 244.849 114.599C244.601 114.302 244.311 114.089 243.978 113.962C243.652 113.835 243.302 113.771 242.927 113.771C242.559 113.771 242.208 113.835 241.876 113.962C241.55 114.089 241.264 114.302 241.016 114.599C240.768 114.896 240.57 115.293 240.421 115.788C240.28 116.277 240.209 116.882 240.209 117.604Z" fill="#1F1F30"/>
<rect x="176.055" y="135.945" width="35.3906" height="2.94922" rx="1.47461" fill="#EAEAEA"/>
<rect x="176.055" y="143.613" width="35.3906" height="2.94922" rx="1.47461" fill="#EAEAEA"/>
<path d="M273.969 112.352C271.688 112.352 269.84 114.2 269.84 116.48C269.84 118.761 271.688 120.609 273.969 120.609C276.249 120.609 278.098 118.761 278.098 116.48C278.098 114.2 276.249 112.352 273.969 112.352ZM273.969 118.545C272.829 118.545 271.904 117.62 271.904 116.48C271.904 115.34 272.829 114.416 273.969 114.416C275.109 114.416 276.033 115.34 276.033 116.48C276.033 117.62 275.109 118.545 273.969 118.545Z" fill="#5466F9"/>
<rect x="164.553" y="100.85" width="125.047" height="57.2148" rx="4.42383" stroke="#5466F9" stroke-width="0.589844"/>
</g>
<g filter="url(#filter1_d_4546_14117)">
<rect x="301.691" y="100.555" width="125.637" height="57.8047" rx="4.71875" fill="white"/>
<path d="M314.221 113.771V121.352H315.782V116.277H315.803L318.956 121.352H320.623V113.771H319.062V118.857H319.041L315.877 113.771H314.221ZM325.52 121.352V113.92H324.32C324.278 114.203 324.189 114.44 324.055 114.631C323.92 114.822 323.754 114.978 323.556 115.098C323.365 115.211 323.145 115.293 322.897 115.342C322.657 115.385 322.405 115.402 322.144 115.395V116.531H324.012V121.352H325.52ZM327.905 119.717V121.352H328.67C328.677 121.465 328.662 121.575 328.627 121.681C328.592 121.794 328.539 121.893 328.468 121.978C328.397 122.07 328.312 122.148 328.213 122.212C328.121 122.275 328.022 122.318 327.916 122.339V123.103C328.142 123.068 328.355 123.001 328.553 122.902C328.758 122.81 328.935 122.689 329.084 122.541C329.232 122.392 329.349 122.215 329.434 122.01C329.526 121.812 329.572 121.592 329.572 121.352V119.717H327.905ZM335.521 115.162V113.92H331.37L330.637 118.028H331.996C332.145 117.823 332.304 117.674 332.474 117.582C332.644 117.483 332.863 117.434 333.132 117.434C333.337 117.434 333.518 117.469 333.674 117.54C333.829 117.611 333.964 117.71 334.077 117.837C334.19 117.965 334.275 118.113 334.332 118.283C334.389 118.453 334.417 118.634 334.417 118.825C334.417 119.009 334.385 119.189 334.321 119.366C334.265 119.536 334.18 119.688 334.066 119.823C333.96 119.95 333.826 120.056 333.663 120.141C333.507 120.219 333.33 120.258 333.132 120.258C332.792 120.258 332.513 120.159 332.293 119.961C332.074 119.755 331.947 119.483 331.911 119.143H330.404C330.411 119.532 330.488 119.876 330.637 120.173C330.793 120.463 330.998 120.707 331.253 120.906C331.508 121.104 331.798 121.252 332.124 121.352C332.456 121.444 332.803 121.49 333.164 121.49C333.539 121.497 333.893 121.437 334.226 121.309C334.558 121.175 334.849 120.987 335.096 120.746C335.351 120.506 335.553 120.223 335.702 119.897C335.85 119.564 335.924 119.207 335.924 118.825C335.924 118.478 335.871 118.152 335.765 117.848C335.666 117.536 335.517 117.267 335.319 117.041C335.128 116.814 334.891 116.634 334.608 116.5C334.325 116.365 333.999 116.298 333.631 116.298C333.334 116.298 333.068 116.344 332.835 116.436C332.601 116.521 332.382 116.666 332.177 116.871L332.155 116.85L332.453 115.162H335.521ZM339.425 115.809V118.389H337.471L339.393 115.809H339.425ZM339.425 119.632V121.352H340.858V119.632H341.845V118.389H340.858V113.92H339.51L336.282 118.251V119.632H339.425ZM347.32 115.162V113.92H343.169L342.436 118.028H343.795C343.944 117.823 344.103 117.674 344.273 117.582C344.443 117.483 344.662 117.434 344.931 117.434C345.137 117.434 345.317 117.469 345.473 117.54C345.629 117.611 345.763 117.71 345.876 117.837C345.99 117.965 346.074 118.113 346.131 118.283C346.188 118.453 346.216 118.634 346.216 118.825C346.216 119.009 346.184 119.189 346.12 119.366C346.064 119.536 345.979 119.688 345.866 119.823C345.759 119.95 345.625 120.056 345.462 120.141C345.306 120.219 345.13 120.258 344.931 120.258C344.592 120.258 344.312 120.159 344.093 119.961C343.873 119.755 343.746 119.483 343.71 119.143H342.203C342.21 119.532 342.288 119.876 342.436 120.173C342.592 120.463 342.797 120.707 343.052 120.906C343.307 121.104 343.597 121.252 343.923 121.352C344.255 121.444 344.602 121.49 344.963 121.49C345.338 121.497 345.692 121.437 346.025 121.309C346.358 121.175 346.648 120.987 346.896 120.746C347.15 120.506 347.352 120.223 347.501 119.897C347.649 119.564 347.724 119.207 347.724 118.825C347.724 118.478 347.671 118.152 347.564 117.848C347.465 117.536 347.317 117.267 347.118 117.041C346.927 116.814 346.69 116.634 346.407 116.5C346.124 116.365 345.798 116.298 345.43 116.298C345.133 116.298 344.868 116.344 344.634 116.436C344.4 116.521 344.181 116.666 343.976 116.871L343.955 116.85L344.252 115.162H347.32ZM348.559 119.717V121.352H349.323C349.33 121.465 349.316 121.575 349.281 121.681C349.245 121.794 349.192 121.893 349.122 121.978C349.051 122.07 348.966 122.148 348.867 122.212C348.775 122.275 348.676 122.318 348.569 122.339V123.103C348.796 123.068 349.008 123.001 349.206 122.902C349.412 122.81 349.589 122.689 349.737 122.541C349.886 122.392 350.003 122.215 350.088 122.01C350.18 121.812 350.226 121.592 350.226 121.352V119.717H348.559ZM354.179 115.809V118.389H352.225L354.147 115.809H354.179ZM354.179 119.632V121.352H355.612V119.632H356.599V118.389H355.612V113.92H354.264L351.036 118.251V119.632H354.179ZM359.186 116.924V117.986C359.371 117.986 359.562 117.993 359.76 118.007C359.965 118.014 360.153 118.053 360.323 118.124C360.492 118.188 360.63 118.294 360.737 118.442C360.85 118.591 360.906 118.807 360.906 119.09C360.906 119.451 360.79 119.738 360.556 119.95C360.323 120.155 360.036 120.258 359.696 120.258C359.477 120.258 359.286 120.219 359.123 120.141C358.967 120.063 358.836 119.961 358.73 119.833C358.624 119.699 358.542 119.543 358.486 119.366C358.429 119.182 358.397 118.991 358.39 118.793H356.957C356.95 119.225 357.01 119.607 357.137 119.939C357.272 120.272 357.459 120.555 357.7 120.789C357.941 121.015 358.231 121.189 358.571 121.309C358.918 121.429 359.3 121.49 359.717 121.49C360.078 121.49 360.425 121.437 360.758 121.33C361.09 121.224 361.384 121.068 361.639 120.863C361.894 120.658 362.096 120.403 362.244 120.099C362.4 119.794 362.478 119.448 362.478 119.058C362.478 118.634 362.361 118.269 362.127 117.965C361.894 117.66 361.572 117.462 361.161 117.37V117.349C361.508 117.25 361.766 117.062 361.936 116.786C362.113 116.51 362.202 116.192 362.202 115.831C362.202 115.498 362.127 115.204 361.979 114.949C361.83 114.695 361.636 114.479 361.395 114.302C361.161 114.125 360.896 113.994 360.599 113.909C360.301 113.817 360.004 113.771 359.707 113.771C359.325 113.771 358.978 113.835 358.666 113.962C358.355 114.082 358.086 114.256 357.859 114.482C357.64 114.709 357.466 114.981 357.339 115.3C357.219 115.611 357.152 115.958 357.137 116.34H358.571C358.564 115.958 358.656 115.643 358.847 115.395C359.045 115.141 359.335 115.013 359.717 115.013C359.993 115.013 360.238 115.098 360.45 115.268C360.662 115.438 360.768 115.682 360.768 116C360.768 116.213 360.715 116.383 360.609 116.51C360.51 116.638 360.379 116.737 360.216 116.807C360.061 116.871 359.891 116.91 359.707 116.924C359.523 116.938 359.349 116.938 359.186 116.924ZM365.978 115.809V118.389H364.024L365.946 115.809H365.978ZM365.978 119.632V121.352H367.411V119.632H368.399V118.389H367.411V113.92H366.063L362.835 118.251V119.632H365.978ZM369.202 119.717V121.352H370.869V119.717H369.202ZM373.251 117.604C373.251 117.476 373.251 117.324 373.251 117.147C373.258 116.963 373.272 116.776 373.293 116.584C373.314 116.393 373.35 116.206 373.399 116.022C373.449 115.831 373.516 115.661 373.601 115.512C373.693 115.363 373.806 115.243 373.941 115.151C374.082 115.059 374.256 115.013 374.461 115.013C374.666 115.013 374.84 115.059 374.981 115.151C375.123 115.243 375.239 115.363 375.331 115.512C375.424 115.661 375.491 115.831 375.533 116.022C375.583 116.206 375.618 116.393 375.639 116.584C375.668 116.776 375.682 116.963 375.682 117.147C375.689 117.324 375.692 117.476 375.692 117.604C375.692 117.816 375.685 118.074 375.671 118.379C375.657 118.676 375.611 118.966 375.533 119.249C375.462 119.525 375.342 119.763 375.172 119.961C375.009 120.159 374.772 120.258 374.461 120.258C374.157 120.258 373.923 120.159 373.76 119.961C373.597 119.763 373.477 119.525 373.399 119.249C373.328 118.966 373.286 118.676 373.272 118.379C373.258 118.074 373.251 117.816 373.251 117.604ZM371.743 117.604C371.743 118.347 371.814 118.97 371.955 119.472C372.104 119.968 372.302 120.364 372.55 120.661C372.798 120.959 373.084 121.171 373.41 121.298C373.742 121.426 374.093 121.49 374.461 121.49C374.836 121.49 375.186 121.426 375.512 121.298C375.845 121.171 376.135 120.959 376.383 120.661C376.637 120.364 376.836 119.968 376.977 119.472C377.126 118.97 377.2 118.347 377.2 117.604C377.2 116.882 377.126 116.277 376.977 115.788C376.836 115.293 376.637 114.896 376.383 114.599C376.135 114.302 375.845 114.089 375.512 113.962C375.186 113.835 374.836 113.771 374.461 113.771C374.093 113.771 373.742 113.835 373.41 113.962C373.084 114.089 372.798 114.302 372.55 114.599C372.302 114.896 372.104 115.293 371.955 115.788C371.814 116.277 371.743 116.882 371.743 117.604ZM379.15 117.604C379.15 117.476 379.15 117.324 379.15 117.147C379.157 116.963 379.171 116.776 379.193 116.584C379.214 116.393 379.249 116.206 379.299 116.022C379.348 115.831 379.416 115.661 379.5 115.512C379.592 115.363 379.706 115.243 379.84 115.151C379.982 115.059 380.155 115.013 380.36 115.013C380.566 115.013 380.739 115.059 380.881 115.151C381.022 115.243 381.139 115.363 381.231 115.512C381.323 115.661 381.39 115.831 381.433 116.022C381.482 116.206 381.518 116.393 381.539 116.584C381.567 116.776 381.581 116.963 381.581 117.147C381.589 117.324 381.592 117.476 381.592 117.604C381.592 117.816 381.585 118.074 381.571 118.379C381.557 118.676 381.511 118.966 381.433 119.249C381.362 119.525 381.242 119.763 381.072 119.961C380.909 120.159 380.672 120.258 380.36 120.258C380.056 120.258 379.823 120.159 379.66 119.961C379.497 119.763 379.377 119.525 379.299 119.249C379.228 118.966 379.186 118.676 379.171 118.379C379.157 118.074 379.15 117.816 379.15 117.604ZM377.642 117.604C377.642 118.347 377.713 118.97 377.855 119.472C378.003 119.968 378.202 120.364 378.449 120.661C378.697 120.959 378.984 121.171 379.309 121.298C379.642 121.426 379.992 121.49 380.36 121.49C380.736 121.49 381.086 121.426 381.412 121.298C381.744 121.171 382.034 120.959 382.282 120.661C382.537 120.364 382.735 119.968 382.877 119.472C383.025 118.97 383.1 118.347 383.1 117.604C383.1 116.882 383.025 116.277 382.877 115.788C382.735 115.293 382.537 114.896 382.282 114.599C382.034 114.302 381.744 114.089 381.412 113.962C381.086 113.835 380.736 113.771 380.36 113.771C379.992 113.771 379.642 113.835 379.309 113.962C378.984 114.089 378.697 114.302 378.449 114.599C378.202 114.896 378.003 115.293 377.855 115.788C377.713 116.277 377.642 116.882 377.642 117.604Z" fill="#1F1F30"/>
<rect x="313.488" y="135.945" width="35.3906" height="2.94922" rx="1.47461" fill="#EAEAEA"/>
<rect x="313.488" y="143.613" width="35.3906" height="2.94922" rx="1.47461" fill="#EAEAEA"/>
<path d="M411.402 112.352C409.123 112.352 407.273 114.201 407.273 116.48C407.273 118.76 409.123 120.609 411.402 120.609C413.681 120.609 415.531 118.76 415.531 116.48C415.531 114.201 413.681 112.352 411.402 112.352ZM411.402 119.784C409.577 119.784 408.099 118.305 408.099 116.48C408.099 114.655 409.577 113.177 411.402 113.177C413.227 113.177 414.705 114.655 414.705 116.48C414.705 118.305 413.227 119.784 411.402 119.784Z" fill="#CCCCCC"/>
</g>
<g filter="url(#filter2_d_4546_14117)">
<rect x="437.945" y="100.555" width="116.789" height="57.8047" rx="4.71875" fill="white"/>
<path d="M450.475 113.771V121.352H452.036V116.277H452.057L455.21 121.352H456.877V113.771H455.316V118.857H455.295L452.131 113.771H450.475ZM462.92 115.162V113.92H458.769L458.036 118.028H459.395C459.544 117.823 459.703 117.674 459.873 117.582C460.043 117.483 460.263 117.434 460.531 117.434C460.737 117.434 460.917 117.469 461.073 117.54C461.229 117.611 461.363 117.71 461.476 117.837C461.59 117.965 461.675 118.113 461.731 118.283C461.788 118.453 461.816 118.634 461.816 118.825C461.816 119.009 461.784 119.189 461.721 119.366C461.664 119.536 461.579 119.688 461.466 119.823C461.36 119.95 461.225 120.056 461.062 120.141C460.907 120.219 460.73 120.258 460.531 120.258C460.192 120.258 459.912 120.159 459.693 119.961C459.473 119.755 459.346 119.483 459.311 119.143H457.803C457.81 119.532 457.888 119.876 458.036 120.173C458.192 120.463 458.397 120.707 458.652 120.906C458.907 121.104 459.197 121.252 459.523 121.352C459.856 121.444 460.202 121.49 460.563 121.49C460.938 121.497 461.292 121.437 461.625 121.309C461.958 121.175 462.248 120.987 462.496 120.746C462.75 120.506 462.952 120.223 463.101 119.897C463.249 119.564 463.324 119.207 463.324 118.825C463.324 118.478 463.271 118.152 463.165 117.848C463.065 117.536 462.917 117.267 462.719 117.041C462.528 116.814 462.29 116.634 462.007 116.5C461.724 116.365 461.399 116.298 461.03 116.298C460.733 116.298 460.468 116.344 460.234 116.436C460.001 116.521 459.781 116.666 459.576 116.871L459.555 116.85L459.852 115.162H462.92ZM466.824 115.809V118.389H464.87L466.792 115.809H466.824ZM466.824 119.632V121.352H468.257V119.632H469.245V118.389H468.257V113.92H466.909L463.681 118.251V119.632H466.824ZM474.72 115.162V113.92H470.568L469.836 118.028H471.195C471.343 117.823 471.503 117.674 471.672 117.582C471.842 117.483 472.062 117.434 472.331 117.434C472.536 117.434 472.716 117.469 472.872 117.54C473.028 117.611 473.162 117.71 473.276 117.837C473.389 117.965 473.474 118.113 473.53 118.283C473.587 118.453 473.615 118.634 473.615 118.825C473.615 119.009 473.583 119.189 473.52 119.366C473.463 119.536 473.378 119.688 473.265 119.823C473.159 119.95 473.024 120.056 472.862 120.141C472.706 120.219 472.529 120.258 472.331 120.258C471.991 120.258 471.711 120.159 471.492 119.961C471.272 119.755 471.145 119.483 471.11 119.143H469.602C469.609 119.532 469.687 119.876 469.836 120.173C469.991 120.463 470.197 120.707 470.451 120.906C470.706 121.104 470.996 121.252 471.322 121.352C471.655 121.444 472.002 121.49 472.363 121.49C472.738 121.497 473.092 121.437 473.424 121.309C473.757 121.175 474.047 120.987 474.295 120.746C474.55 120.506 474.751 120.223 474.9 119.897C475.049 119.564 475.123 119.207 475.123 118.825C475.123 118.478 475.07 118.152 474.964 117.848C474.865 117.536 474.716 117.267 474.518 117.041C474.327 116.814 474.09 116.634 473.806 116.5C473.523 116.365 473.198 116.298 472.83 116.298C472.532 116.298 472.267 116.344 472.033 116.436C471.8 116.521 471.58 116.666 471.375 116.871L471.354 116.85L471.651 115.162H474.72ZM475.958 119.717V121.352H476.723C476.73 121.465 476.716 121.575 476.68 121.681C476.645 121.794 476.592 121.893 476.521 121.978C476.45 122.07 476.365 122.148 476.266 122.212C476.174 122.275 476.075 122.318 475.969 122.339V123.103C476.195 123.068 476.408 123.001 476.606 122.902C476.811 122.81 476.988 122.689 477.137 122.541C477.285 122.392 477.402 122.215 477.487 122.01C477.579 121.812 477.625 121.592 477.625 121.352V119.717H475.958ZM481.578 115.809V118.389H479.625L481.546 115.809H481.578ZM481.578 119.632V121.352H483.011V119.632H483.999V118.389H483.011V113.92H481.663L478.435 118.251V119.632H481.578ZM486.586 116.924V117.986C486.77 117.986 486.961 117.993 487.159 118.007C487.364 118.014 487.552 118.053 487.722 118.124C487.892 118.188 488.03 118.294 488.136 118.442C488.249 118.591 488.306 118.807 488.306 119.09C488.306 119.451 488.189 119.738 487.955 119.95C487.722 120.155 487.435 120.258 487.095 120.258C486.876 120.258 486.685 120.219 486.522 120.141C486.366 120.063 486.235 119.961 486.129 119.833C486.023 119.699 485.942 119.543 485.885 119.366C485.828 119.182 485.797 118.991 485.79 118.793H484.356C484.349 119.225 484.409 119.607 484.537 119.939C484.671 120.272 484.859 120.555 485.099 120.789C485.34 121.015 485.63 121.189 485.97 121.309C486.317 121.429 486.699 121.49 487.117 121.49C487.478 121.49 487.824 121.437 488.157 121.33C488.49 121.224 488.784 121.068 489.038 120.863C489.293 120.658 489.495 120.403 489.644 120.099C489.799 119.794 489.877 119.448 489.877 119.058C489.877 118.634 489.76 118.269 489.527 117.965C489.293 117.66 488.971 117.462 488.561 117.37V117.349C488.907 117.25 489.166 117.062 489.336 116.786C489.513 116.51 489.601 116.192 489.601 115.831C489.601 115.498 489.527 115.204 489.378 114.949C489.229 114.695 489.035 114.479 488.794 114.302C488.561 114.125 488.295 113.994 487.998 113.909C487.701 113.817 487.403 113.771 487.106 113.771C486.724 113.771 486.377 113.835 486.066 113.962C485.754 114.082 485.485 114.256 485.259 114.482C485.039 114.709 484.866 114.981 484.738 115.3C484.618 115.611 484.551 115.958 484.537 116.34H485.97C485.963 115.958 486.055 115.643 486.246 115.395C486.444 115.141 486.734 115.013 487.117 115.013C487.393 115.013 487.637 115.098 487.849 115.268C488.062 115.438 488.168 115.682 488.168 116C488.168 116.213 488.115 116.383 488.009 116.51C487.909 116.638 487.778 116.737 487.616 116.807C487.46 116.871 487.29 116.91 487.106 116.924C486.922 116.938 486.749 116.938 486.586 116.924ZM493.377 115.809V118.389H491.424L493.345 115.809H493.377ZM493.377 119.632V121.352H494.811V119.632H495.798V118.389H494.811V113.92H493.462L490.235 118.251V119.632H493.377ZM496.601 119.717V121.352H498.268V119.717H496.601ZM500.65 117.604C500.65 117.476 500.65 117.324 500.65 117.147C500.657 116.963 500.671 116.776 500.692 116.584C500.714 116.393 500.749 116.206 500.799 116.022C500.848 115.831 500.915 115.661 501 115.512C501.092 115.363 501.205 115.243 501.34 115.151C501.482 115.059 501.655 115.013 501.86 115.013C502.065 115.013 502.239 115.059 502.38 115.151C502.522 115.243 502.639 115.363 502.731 115.512C502.823 115.661 502.89 115.831 502.933 116.022C502.982 116.206 503.017 116.393 503.039 116.584C503.067 116.776 503.081 116.963 503.081 117.147C503.088 117.324 503.092 117.476 503.092 117.604C503.092 117.816 503.085 118.074 503.071 118.379C503.056 118.676 503.01 118.966 502.933 119.249C502.862 119.525 502.741 119.763 502.572 119.961C502.409 120.159 502.172 120.258 501.86 120.258C501.556 120.258 501.322 120.159 501.159 119.961C500.997 119.763 500.876 119.525 500.799 119.249C500.728 118.966 500.685 118.676 500.671 118.379C500.657 118.074 500.65 117.816 500.65 117.604ZM499.142 117.604C499.142 118.347 499.213 118.97 499.355 119.472C499.503 119.968 499.701 120.364 499.949 120.661C500.197 120.959 500.484 121.171 500.809 121.298C501.142 121.426 501.492 121.49 501.86 121.49C502.235 121.49 502.586 121.426 502.911 121.298C503.244 121.171 503.534 120.959 503.782 120.661C504.037 120.364 504.235 119.968 504.376 119.472C504.525 118.97 504.599 118.347 504.599 117.604C504.599 116.882 504.525 116.277 504.376 115.788C504.235 115.293 504.037 114.896 503.782 114.599C503.534 114.302 503.244 114.089 502.911 113.962C502.586 113.835 502.235 113.771 501.86 113.771C501.492 113.771 501.142 113.835 500.809 113.962C500.484 114.089 500.197 114.302 499.949 114.599C499.701 114.896 499.503 115.293 499.355 115.788C499.213 116.277 499.142 116.882 499.142 117.604ZM506.549 117.604C506.549 117.476 506.549 117.324 506.549 117.147C506.557 116.963 506.571 116.776 506.592 116.584C506.613 116.393 506.649 116.206 506.698 116.022C506.748 115.831 506.815 115.661 506.9 115.512C506.992 115.363 507.105 115.243 507.24 115.151C507.381 115.059 507.555 115.013 507.76 115.013C507.965 115.013 508.138 115.059 508.28 115.151C508.422 115.243 508.538 115.363 508.63 115.512C508.722 115.661 508.79 115.831 508.832 116.022C508.882 116.206 508.917 116.393 508.938 116.584C508.967 116.776 508.981 116.963 508.981 117.147C508.988 117.324 508.991 117.476 508.991 117.604C508.991 117.816 508.984 118.074 508.97 118.379C508.956 118.676 508.91 118.966 508.832 119.249C508.761 119.525 508.641 119.763 508.471 119.961C508.308 120.159 508.071 120.258 507.76 120.258C507.455 120.258 507.222 120.159 507.059 119.961C506.896 119.763 506.776 119.525 506.698 119.249C506.627 118.966 506.585 118.676 506.571 118.379C506.557 118.074 506.549 117.816 506.549 117.604ZM505.042 117.604C505.042 118.347 505.113 118.97 505.254 119.472C505.403 119.968 505.601 120.364 505.849 120.661C506.096 120.959 506.383 121.171 506.709 121.298C507.041 121.426 507.392 121.49 507.76 121.49C508.135 121.49 508.485 121.426 508.811 121.298C509.144 121.171 509.434 120.959 509.682 120.661C509.936 120.364 510.135 119.968 510.276 119.472C510.425 118.97 510.499 118.347 510.499 117.604C510.499 116.882 510.425 116.277 510.276 115.788C510.135 115.293 509.936 114.896 509.682 114.599C509.434 114.302 509.144 114.089 508.811 113.962C508.485 113.835 508.135 113.771 507.76 113.771C507.392 113.771 507.041 113.835 506.709 113.962C506.383 114.089 506.096 114.302 505.849 114.599C505.601 114.896 505.403 115.293 505.254 115.788C505.113 116.277 505.042 116.882 505.042 117.604Z" fill="#1F1F30"/>
<rect x="449.742" y="135.945" width="35.3906" height="2.94922" rx="1.47461" fill="#EAEAEA"/>
<rect x="449.742" y="143.613" width="35.3906" height="2.94922" rx="1.47461" fill="#EAEAEA"/>
<path d="M538.809 112.352C536.529 112.352 534.68 114.201 534.68 116.48C534.68 118.76 536.529 120.609 538.809 120.609C541.088 120.609 542.938 118.76 542.938 116.48C542.938 114.201 541.088 112.352 538.809 112.352ZM538.809 119.784C536.984 119.784 535.505 118.305 535.505 116.48C535.505 114.655 536.984 113.177 538.809 113.177C540.634 113.177 542.112 114.655 542.112 116.48C542.112 118.305 540.634 119.784 538.809 119.784Z" fill="#CCCCCC"/>
</g>
<g filter="url(#filter3_d_4546_14117)">
<rect x="565.806" y="98.6489" width="95.5547" height="57.8047" rx="4.71875" fill="white"/>
<path d="M583.389 114.413H585.003C584.953 113.974 584.833 113.585 584.642 113.245C584.451 112.906 584.206 112.622 583.909 112.396C583.619 112.162 583.286 111.985 582.911 111.865C582.543 111.745 582.15 111.685 581.733 111.685C581.152 111.685 580.628 111.787 580.161 111.993C579.701 112.198 579.312 112.481 578.993 112.842C578.675 113.203 578.431 113.628 578.261 114.116C578.091 114.597 578.006 115.121 578.006 115.687C578.006 116.239 578.091 116.756 578.261 117.237C578.431 117.712 578.675 118.126 578.993 118.48C579.312 118.834 579.701 119.113 580.161 119.318C580.628 119.517 581.152 119.616 581.733 119.616C582.2 119.616 582.628 119.545 583.017 119.403C583.407 119.262 583.746 119.057 584.037 118.788C584.327 118.519 584.56 118.193 584.737 117.811C584.914 117.429 585.024 117 585.066 116.526H583.453C583.389 117.036 583.212 117.446 582.922 117.758C582.639 118.069 582.242 118.225 581.733 118.225C581.357 118.225 581.039 118.154 580.777 118.012C580.515 117.864 580.303 117.669 580.14 117.429C579.977 117.188 579.857 116.919 579.779 116.622C579.708 116.317 579.673 116.006 579.673 115.687C579.673 115.355 579.708 115.033 579.779 114.721C579.857 114.41 579.977 114.134 580.14 113.893C580.303 113.645 580.515 113.451 580.777 113.309C581.039 113.16 581.357 113.086 581.733 113.086C581.938 113.086 582.133 113.121 582.317 113.192C582.508 113.256 582.678 113.348 582.826 113.468C582.975 113.589 583.099 113.73 583.198 113.893C583.297 114.049 583.361 114.222 583.389 114.413ZM591.195 119.446V113.957H589.687V116.834C589.687 117.393 589.595 117.797 589.411 118.044C589.227 118.285 588.93 118.405 588.519 118.405C588.158 118.405 587.907 118.296 587.765 118.076C587.624 117.85 587.553 117.51 587.553 117.057V113.957H586.045V117.333C586.045 117.673 586.074 117.984 586.13 118.267C586.194 118.543 586.3 118.78 586.449 118.979C586.598 119.17 586.799 119.318 587.054 119.425C587.316 119.531 587.649 119.584 588.052 119.584C588.371 119.584 588.682 119.513 588.986 119.371C589.291 119.23 589.538 119 589.73 118.681H589.761V119.446H591.195ZM593.507 117.662H592.074C592.088 118.03 592.169 118.338 592.318 118.586C592.474 118.826 592.668 119.021 592.902 119.17C593.142 119.318 593.415 119.425 593.719 119.488C594.024 119.552 594.335 119.584 594.654 119.584C594.965 119.584 595.269 119.552 595.567 119.488C595.871 119.432 596.14 119.329 596.374 119.18C596.607 119.032 596.795 118.837 596.936 118.596C597.085 118.349 597.159 118.044 597.159 117.683C597.159 117.429 597.11 117.216 597.011 117.046C596.911 116.869 596.781 116.724 596.618 116.611C596.455 116.491 596.267 116.395 596.055 116.324C595.85 116.254 595.637 116.193 595.418 116.144C595.206 116.094 594.997 116.048 594.792 116.006C594.586 115.963 594.402 115.917 594.24 115.868C594.084 115.811 593.956 115.74 593.857 115.655C593.758 115.571 593.709 115.461 593.709 115.326C593.709 115.213 593.737 115.125 593.794 115.061C593.85 114.99 593.917 114.937 593.995 114.902C594.08 114.866 594.172 114.845 594.271 114.838C594.37 114.824 594.462 114.817 594.547 114.817C594.816 114.817 595.05 114.87 595.248 114.976C595.446 115.075 595.556 115.27 595.577 115.56H597.011C596.982 115.22 596.894 114.941 596.745 114.721C596.604 114.495 596.423 114.314 596.204 114.18C595.984 114.045 595.733 113.95 595.45 113.893C595.174 113.836 594.887 113.808 594.59 113.808C594.293 113.808 594.002 113.836 593.719 113.893C593.436 113.943 593.181 114.035 592.955 114.169C592.728 114.296 592.544 114.473 592.403 114.7C592.268 114.926 592.201 115.217 592.201 115.571C592.201 115.811 592.251 116.016 592.35 116.186C592.449 116.349 592.58 116.487 592.742 116.6C592.905 116.707 593.089 116.795 593.295 116.866C593.507 116.93 593.723 116.986 593.942 117.036C594.48 117.149 594.898 117.262 595.195 117.375C595.499 117.489 595.652 117.659 595.652 117.885C595.652 118.02 595.62 118.133 595.556 118.225C595.492 118.31 595.411 118.381 595.312 118.437C595.22 118.487 595.114 118.526 594.993 118.554C594.88 118.575 594.77 118.586 594.664 118.586C594.516 118.586 594.37 118.568 594.229 118.533C594.094 118.497 593.974 118.444 593.868 118.373C593.762 118.296 593.673 118.2 593.602 118.087C593.539 117.966 593.507 117.825 593.507 117.662ZM599.953 113.957V112.311H598.445V113.957H597.532V114.965H598.445V118.204C598.445 118.48 598.491 118.703 598.583 118.872C598.675 119.042 598.799 119.173 598.955 119.265C599.117 119.357 599.302 119.417 599.507 119.446C599.719 119.481 599.942 119.499 600.176 119.499C600.324 119.499 600.476 119.495 600.632 119.488C600.788 119.481 600.929 119.467 601.057 119.446V118.278C600.986 118.292 600.912 118.303 600.834 118.31C600.756 118.317 600.675 118.32 600.59 118.32C600.335 118.32 600.165 118.278 600.08 118.193C599.995 118.108 599.953 117.938 599.953 117.683V114.965H601.057V113.957H599.953ZM603.112 116.707C603.112 116.487 603.133 116.271 603.176 116.059C603.218 115.847 603.289 115.659 603.388 115.496C603.494 115.333 603.632 115.202 603.802 115.103C603.972 114.997 604.184 114.944 604.439 114.944C604.694 114.944 604.906 114.997 605.076 115.103C605.253 115.202 605.391 115.333 605.49 115.496C605.596 115.659 605.671 115.847 605.713 116.059C605.756 116.271 605.777 116.487 605.777 116.707C605.777 116.926 605.756 117.142 605.713 117.354C605.671 117.559 605.596 117.747 605.49 117.917C605.391 118.08 605.253 118.211 605.076 118.31C604.906 118.409 604.694 118.458 604.439 118.458C604.184 118.458 603.972 118.409 603.802 118.31C603.632 118.211 603.494 118.08 603.388 117.917C603.289 117.747 603.218 117.559 603.176 117.354C603.133 117.142 603.112 116.926 603.112 116.707ZM601.604 116.707C601.604 117.145 601.672 117.542 601.806 117.896C601.941 118.25 602.132 118.554 602.379 118.809C602.627 119.057 602.924 119.248 603.271 119.382C603.618 119.517 604.007 119.584 604.439 119.584C604.871 119.584 605.26 119.517 605.607 119.382C605.961 119.248 606.262 119.057 606.509 118.809C606.757 118.554 606.948 118.25 607.083 117.896C607.217 117.542 607.285 117.145 607.285 116.707C607.285 116.268 607.217 115.871 607.083 115.517C606.948 115.156 606.757 114.852 606.509 114.604C606.262 114.35 605.961 114.155 605.607 114.02C605.26 113.879 604.871 113.808 604.439 113.808C604.007 113.808 603.618 113.879 603.271 114.02C602.924 114.155 602.627 114.35 602.379 114.604C602.132 114.852 601.941 115.156 601.806 115.517C601.672 115.871 601.604 116.268 601.604 116.707ZM608.307 113.957V119.446H609.815V116.261C609.815 115.992 609.854 115.776 609.932 115.613C610.01 115.443 610.102 115.316 610.208 115.231C610.321 115.139 610.434 115.079 610.548 115.05C610.668 115.015 610.763 114.997 610.834 114.997C611.075 114.997 611.255 115.04 611.376 115.125C611.503 115.202 611.592 115.309 611.641 115.443C611.698 115.578 611.73 115.726 611.737 115.889C611.744 116.045 611.747 116.204 611.747 116.367V119.446H613.255V116.388C613.255 116.218 613.266 116.052 613.287 115.889C613.315 115.719 613.365 115.571 613.435 115.443C613.513 115.309 613.616 115.202 613.743 115.125C613.878 115.04 614.051 114.997 614.264 114.997C614.476 114.997 614.642 115.033 614.763 115.103C614.89 115.174 614.985 115.27 615.049 115.39C615.113 115.51 615.152 115.652 615.166 115.815C615.18 115.978 615.187 116.151 615.187 116.335V119.446H616.695V115.772C616.695 115.418 616.645 115.118 616.546 114.87C616.447 114.615 616.309 114.41 616.132 114.254C615.955 114.098 615.743 113.985 615.495 113.914C615.247 113.843 614.978 113.808 614.688 113.808C614.306 113.808 613.973 113.9 613.69 114.084C613.414 114.268 613.195 114.48 613.032 114.721C612.883 114.381 612.664 114.144 612.374 114.01C612.091 113.875 611.776 113.808 611.429 113.808C611.068 113.808 610.746 113.886 610.463 114.042C610.187 114.197 609.949 114.417 609.751 114.7H609.73V113.957H608.307Z" fill="#1F1F30"/>
<rect x="577.603" y="134.04" width="35.3906" height="2.94922" rx="1.47461" fill="#EAEAEA"/>
<rect x="577.603" y="141.708" width="35.3906" height="2.94922" rx="1.47461" fill="#EAEAEA"/>
<path d="M645.435 110.446C643.155 110.446 641.306 112.296 641.306 114.575C641.306 116.854 643.155 118.704 645.435 118.704C647.714 118.704 649.563 116.854 649.563 114.575C649.563 112.296 647.714 110.446 645.435 110.446ZM645.435 117.878C643.61 117.878 642.131 116.4 642.131 114.575C642.131 112.75 643.61 111.272 645.435 111.272C647.26 111.272 648.738 112.75 648.738 114.575C648.738 116.4 647.26 117.878 645.435 117.878Z" fill="#CCCCCC"/>
</g>
<rect x="5" y="5" width="129.766" height="453" fill="#FAFAFF"/>
<path d="M114.084 237.362L109.993 234.449H117.267L114.084 237.362Z" fill="#CCCCCC"/>
<circle cx="29.4775" cy="153.935" r="6.19336" fill="#EAEAEA"/>
<circle cx="29.4775" cy="99.6699" r="6.19336" fill="#EAEAEA"/>
<circle cx="29.4775" cy="126.803" r="6.19336" fill="#EAEAEA"/>
<circle cx="29.4775" cy="181.068" r="6.19336" fill="#EAEAEA"/>
<circle cx="29.4775" cy="208.791" r="6.19336" fill="#EAEAEA"/>
<circle cx="29.4775" cy="235.334" r="6.19336" fill="#EAEAEA"/>
<rect x="52.1875" y="151.871" width="53.6758" height="4.12891" rx="2.06445" fill="#EAEAEA"/>
<rect x="52.1875" y="97.6055" width="53.6758" height="4.12891" rx="2.06445" fill="#EAEAEA"/>
<rect x="52.1875" y="124.738" width="53.6758" height="4.12891" rx="2.06445" fill="#EAEAEA"/>
<rect x="52.1875" y="179.004" width="53.6758" height="4.12891" rx="2.06445" fill="#EAEAEA"/>
<rect x="52.1875" y="206.727" width="53.6758" height="4.12891" rx="2.06445" fill="#EAEAEA"/>
<rect x="52.1875" y="233.27" width="53.6758" height="4.12891" rx="2.06445" fill="#EAEAEA"/>
<rect x="539.264" y="12.668" width="86.4691" height="20.1761" rx="5.76461" fill="#5466F9"/>
<path d="M551.951 20.3812C551.822 20.2029 551.647 20.0584 551.425 19.9477C551.204 19.8309 550.955 19.7725 550.678 19.7725C550.531 19.7725 550.38 19.794 550.226 19.8371C550.079 19.874 549.943 19.9385 549.82 20.0307C549.697 20.1168 549.596 20.2275 549.516 20.3628C549.442 20.4919 549.405 20.6487 549.405 20.8332C549.405 21.0115 549.439 21.1621 549.507 21.2851C549.581 21.402 549.676 21.5034 549.793 21.5895C549.916 21.6694 550.057 21.7401 550.217 21.8016C550.383 21.857 550.558 21.9154 550.743 21.9769C550.964 22.0445 551.189 22.1214 551.416 22.2075C551.644 22.2936 551.85 22.4073 552.034 22.5487C552.218 22.6902 552.369 22.8685 552.486 23.0837C552.603 23.2927 552.661 23.5602 552.661 23.8861C552.661 24.2243 552.597 24.5195 552.467 24.7716C552.345 25.0175 552.178 25.2235 551.969 25.3895C551.76 25.5494 551.517 25.6693 551.241 25.7492C550.97 25.8292 550.69 25.8691 550.401 25.8691C549.989 25.8691 549.59 25.7892 549.202 25.6293C548.821 25.4695 548.505 25.2327 548.252 24.9191L548.963 24.3196C549.116 24.5471 549.322 24.7316 549.581 24.873C549.839 25.0144 550.119 25.0852 550.42 25.0852C550.574 25.0852 550.727 25.0636 550.881 25.0206C551.035 24.9776 551.173 24.9099 551.296 24.8177C551.425 24.7254 551.53 24.6117 551.61 24.4764C551.69 24.335 551.73 24.1659 551.73 23.9691C551.73 23.7724 551.687 23.6094 551.6 23.4803C551.521 23.345 551.41 23.2313 551.268 23.139C551.127 23.0468 550.961 22.9699 550.77 22.9084C550.586 22.8408 550.389 22.7732 550.18 22.7055C549.971 22.644 549.765 22.5703 549.562 22.4842C549.359 22.3919 549.178 22.2782 549.018 22.1429C548.858 22.0015 548.729 21.8293 548.631 21.6264C548.532 21.4235 548.483 21.1714 548.483 20.8701C548.483 20.5442 548.548 20.2644 548.677 20.0307C548.812 19.7971 548.984 19.6034 549.193 19.4497C549.408 19.296 549.648 19.1853 549.913 19.1176C550.183 19.0438 550.454 19.007 550.724 19.007C551.105 19.007 551.462 19.0746 551.794 19.2099C552.126 19.3451 552.394 19.5265 552.597 19.754L551.951 20.3812ZM557.11 23.1298C557.104 22.9576 557.073 22.7978 557.018 22.6502C556.969 22.4965 556.892 22.3643 556.787 22.2536C556.689 22.1429 556.563 22.0568 556.409 21.9953C556.261 21.9277 556.086 21.8939 555.883 21.8939C555.699 21.8939 555.524 21.9277 555.357 21.9953C555.198 22.0568 555.056 22.1429 554.933 22.2536C554.816 22.3643 554.718 22.4965 554.638 22.6502C554.564 22.7978 554.521 22.9576 554.509 23.1298H557.11ZM557.986 23.4803C557.986 23.5295 557.986 23.5787 557.986 23.6279C557.986 23.6771 557.983 23.7262 557.977 23.7754H554.509C554.515 23.9599 554.555 24.1352 554.629 24.3012C554.709 24.461 554.813 24.6025 554.942 24.7254C555.072 24.8423 555.219 24.9345 555.385 25.0021C555.557 25.0698 555.739 25.1036 555.929 25.1036C556.224 25.1036 556.48 25.039 556.695 24.9099C556.91 24.7808 557.079 24.624 557.202 24.4395L557.811 24.9284C557.577 25.2358 557.301 25.4633 556.981 25.6109C556.667 25.7523 556.317 25.823 555.929 25.823C555.597 25.823 555.29 25.7677 555.007 25.657C554.724 25.5463 554.481 25.3926 554.278 25.1958C554.075 24.9929 553.916 24.75 553.799 24.4672C553.682 24.1843 553.624 23.8707 553.624 23.5264C553.624 23.1882 553.679 22.8777 553.79 22.5948C553.906 22.3058 554.066 22.0599 554.269 21.857C554.472 21.6541 554.712 21.4973 554.989 21.3866C555.265 21.2698 555.563 21.2113 555.883 21.2113C556.203 21.2113 556.492 21.2636 556.75 21.3681C557.015 21.4727 557.236 21.6233 557.414 21.8201C557.599 22.0168 557.74 22.2567 557.839 22.5395C557.937 22.8162 557.986 23.1298 557.986 23.4803ZM559.981 21.3312C559.993 21.4419 560.002 21.568 560.008 21.7094C560.014 21.8447 560.018 21.9584 560.018 22.0507H560.045C560.101 21.9338 560.174 21.8262 560.267 21.7279C560.365 21.6233 560.476 21.5342 560.599 21.4604C560.722 21.3804 560.857 21.3189 561.004 21.2759C561.152 21.2329 561.306 21.2113 561.466 21.2113C561.748 21.2113 561.991 21.2605 562.194 21.3589C562.397 21.4511 562.566 21.5772 562.702 21.7371C562.837 21.8969 562.935 22.0845 562.997 22.2997C563.064 22.5149 563.098 22.7455 563.098 22.9915V25.7031H562.231V23.2774C562.231 23.0991 562.216 22.93 562.185 22.7701C562.16 22.6102 562.111 22.4688 562.037 22.3458C561.964 22.2228 561.862 22.1245 561.733 22.0507C561.604 21.9769 561.438 21.94 561.235 21.94C560.891 21.94 560.608 22.0722 560.386 22.3366C560.171 22.5948 560.064 22.9423 560.064 23.3788V25.7031H559.197V22.272C559.197 22.1552 559.194 22.0046 559.187 21.8201C559.181 21.6356 559.172 21.4727 559.16 21.3312H559.981ZM568.051 25.0114C567.885 25.2758 567.658 25.4787 567.369 25.6201C567.086 25.7554 566.788 25.823 566.474 25.823C566.136 25.823 565.832 25.7646 565.561 25.6478C565.291 25.5248 565.06 25.3588 564.869 25.1497C564.679 24.9407 564.531 24.6947 564.427 24.4119C564.322 24.129 564.27 23.8277 564.27 23.508C564.27 23.1882 564.322 22.89 564.427 22.6133C564.531 22.3304 564.679 22.0845 564.869 21.8754C565.066 21.6664 565.3 21.5034 565.57 21.3866C565.841 21.2698 566.139 21.2113 566.465 21.2113C566.822 21.2113 567.132 21.2882 567.397 21.4419C567.661 21.5895 567.87 21.7709 568.024 21.9861H568.042V18.7303H568.909V25.7031H568.07V25.0114H568.051ZM565.174 23.508C565.174 23.7109 565.204 23.9076 565.266 24.0983C565.327 24.2889 565.42 24.458 565.543 24.6055C565.666 24.7531 565.816 24.873 565.995 24.9653C566.173 25.0513 566.382 25.0944 566.622 25.0944C566.843 25.0944 567.043 25.0513 567.221 24.9653C567.406 24.8792 567.563 24.7654 567.692 24.624C567.821 24.4764 567.919 24.3073 567.987 24.1167C568.061 23.9261 568.097 23.7262 568.097 23.5172C568.097 23.3081 568.061 23.1083 567.987 22.9177C567.919 22.727 567.821 22.558 567.692 22.4104C567.563 22.2628 567.406 22.146 567.221 22.0599C567.043 21.9738 566.843 21.9308 566.622 21.9308C566.382 21.9308 566.173 21.9738 565.995 22.0599C565.816 22.146 565.666 22.2628 565.543 22.4104C565.42 22.558 565.327 22.727 565.266 22.9177C565.204 23.1083 565.174 23.305 565.174 23.508ZM576.147 24.1905H576.166L578.093 19.173H579.514V25.7031H578.601V20.2429H578.582L576.415 25.7031H575.834L573.675 20.2429H573.657V25.7031H572.772V19.173H574.192L576.147 24.1905ZM585.484 23.508C585.484 23.8462 585.423 24.1567 585.3 24.4395C585.183 24.7224 585.017 24.9683 584.802 25.1774C584.593 25.3803 584.344 25.5402 584.055 25.657C583.766 25.7677 583.455 25.823 583.123 25.823C582.791 25.823 582.481 25.7677 582.192 25.657C581.903 25.5402 581.654 25.3803 581.445 25.1774C581.235 24.9683 581.069 24.7224 580.946 24.4395C580.83 24.1567 580.771 23.8462 580.771 23.508C580.771 23.1698 580.83 22.8623 580.946 22.5856C581.069 22.3028 581.235 22.0599 581.445 21.857C581.654 21.6541 581.903 21.4973 582.192 21.3866C582.481 21.2698 582.791 21.2113 583.123 21.2113C583.455 21.2113 583.766 21.2698 584.055 21.3866C584.344 21.4973 584.593 21.6541 584.802 21.857C585.017 22.0599 585.183 22.3028 585.3 22.5856C585.423 22.8623 585.484 23.1698 585.484 23.508ZM584.58 23.508C584.58 23.2989 584.547 23.0991 584.479 22.9084C584.418 22.7178 584.325 22.5518 584.202 22.4104C584.079 22.2628 583.926 22.146 583.741 22.0599C583.563 21.9738 583.357 21.9308 583.123 21.9308C582.89 21.9308 582.68 21.9738 582.496 22.0599C582.318 22.146 582.167 22.2628 582.044 22.4104C581.921 22.5518 581.826 22.7178 581.758 22.9084C581.697 23.0991 581.666 23.2989 581.666 23.508C581.666 23.717 581.697 23.9169 581.758 24.1075C581.826 24.2981 581.921 24.4672 582.044 24.6148C582.167 24.7623 582.318 24.8792 582.496 24.9653C582.68 25.0513 582.89 25.0944 583.123 25.0944C583.357 25.0944 583.563 25.0513 583.741 24.9653C583.926 24.8792 584.079 24.7623 584.202 24.6148C584.325 24.4672 584.418 24.2981 584.479 24.1075C584.547 23.9169 584.58 23.717 584.58 23.508ZM587.471 21.3312C587.483 21.4419 587.492 21.568 587.498 21.7094C587.504 21.8447 587.508 21.9584 587.508 22.0507H587.535C587.591 21.9338 587.664 21.8262 587.757 21.7279C587.855 21.6233 587.966 21.5342 588.089 21.4604C588.212 21.3804 588.347 21.3189 588.494 21.2759C588.642 21.2329 588.796 21.2113 588.956 21.2113C589.238 21.2113 589.481 21.2605 589.684 21.3589C589.887 21.4511 590.056 21.5772 590.192 21.7371C590.327 21.8969 590.425 22.0845 590.487 22.2997C590.554 22.5149 590.588 22.7455 590.588 22.9915V25.7031H589.721V23.2774C589.721 23.0991 589.706 22.93 589.675 22.7701C589.65 22.6102 589.601 22.4688 589.527 22.3458C589.454 22.2228 589.352 22.1245 589.223 22.0507C589.094 21.9769 588.928 21.94 588.725 21.94C588.381 21.94 588.098 22.0722 587.876 22.3366C587.661 22.5948 587.554 22.9423 587.554 23.3788V25.7031H586.687V22.272C586.687 22.1552 586.684 22.0046 586.677 21.8201C586.671 21.6356 586.662 21.4727 586.65 21.3312H587.471ZM595.255 23.1298C595.249 22.9576 595.219 22.7978 595.163 22.6502C595.114 22.4965 595.037 22.3643 594.933 22.2536C594.834 22.1429 594.708 22.0568 594.554 21.9953C594.407 21.9277 594.232 21.8939 594.029 21.8939C593.844 21.8939 593.669 21.9277 593.503 21.9953C593.343 22.0568 593.202 22.1429 593.079 22.2536C592.962 22.3643 592.864 22.4965 592.784 22.6502C592.71 22.7978 592.667 22.9576 592.654 23.1298H595.255ZM596.132 23.4803C596.132 23.5295 596.132 23.5787 596.132 23.6279C596.132 23.6771 596.129 23.7262 596.122 23.7754H592.654C592.661 23.9599 592.701 24.1352 592.774 24.3012C592.854 24.461 592.959 24.6025 593.088 24.7254C593.217 24.8423 593.365 24.9345 593.531 25.0021C593.703 25.0698 593.884 25.1036 594.075 25.1036C594.37 25.1036 594.625 25.039 594.84 24.9099C595.056 24.7808 595.225 24.624 595.348 24.4395L595.956 24.9284C595.723 25.2358 595.446 25.4633 595.126 25.6109C594.813 25.7523 594.462 25.823 594.075 25.823C593.743 25.823 593.435 25.7677 593.153 25.657C592.87 25.5463 592.627 25.3926 592.424 25.1958C592.221 24.9929 592.061 24.75 591.944 24.4672C591.827 24.1843 591.769 23.8707 591.769 23.5264C591.769 23.1882 591.824 22.8777 591.935 22.5948C592.052 22.3058 592.212 22.0599 592.415 21.857C592.618 21.6541 592.857 21.4973 593.134 21.3866C593.411 21.2698 593.709 21.2113 594.029 21.2113C594.348 21.2113 594.637 21.2636 594.896 21.3681C595.16 21.4727 595.381 21.6233 595.56 21.8201C595.744 22.0168 595.886 22.2567 595.984 22.5395C596.082 22.8162 596.132 23.1298 596.132 23.4803ZM599.002 24.7623H599.021L600.229 21.3312H601.151L599.03 26.7361C598.956 26.9206 598.876 27.0836 598.79 27.225C598.704 27.3726 598.603 27.4955 598.486 27.5939C598.369 27.6984 598.231 27.7784 598.071 27.8337C597.917 27.8891 597.733 27.9167 597.517 27.9167C597.425 27.9167 597.33 27.9106 597.231 27.8983C597.139 27.8921 597.044 27.8768 596.946 27.8522L597.029 27.0866C597.176 27.1358 597.321 27.1604 597.462 27.1604C597.69 27.1604 597.859 27.0959 597.969 26.9667C598.08 26.8437 598.181 26.6654 598.274 26.4318L598.55 25.7031L596.678 21.3312H597.647L599.002 24.7623Z" fill="white"/>
<path d="M609.593 21.3149L613.052 24.7737L616.51 21.3149" stroke="white" stroke-width="0.576461" stroke-linecap="round"/>
<path d="M717.363 25.9038L714.285 23.4413H720.441L717.363 25.9038Z" fill="#9D9DB0"/>
<path d="M694.892 23.4419C694.892 24.9639 695.343 26.4518 696.189 27.7172C697.034 28.9827 698.236 29.9691 699.642 30.5515C701.048 31.134 702.595 31.2864 704.088 30.9894C705.581 30.6925 706.952 29.9596 708.028 28.8834C709.105 27.8072 709.838 26.436 710.134 24.9432C710.431 23.4505 710.279 21.9032 709.697 20.4971C709.114 19.0909 708.128 17.8891 706.862 17.0435C705.597 16.1979 704.109 15.7466 702.587 15.7466C700.546 15.7466 698.589 16.5573 697.146 18.0005C695.702 19.4437 694.892 21.401 694.892 23.4419ZM708.039 27.5513C707.402 28.3943 706.578 29.0782 705.632 29.5491C704.686 30.02 703.644 30.265 702.587 30.265C701.53 30.265 700.488 30.02 699.542 29.5491C698.596 29.0782 697.772 28.3943 697.135 27.5513C697.772 26.7082 698.596 26.0243 699.542 25.5534C700.488 25.0826 701.53 24.8375 702.587 24.8375C703.644 24.8375 704.686 25.0826 705.632 25.5534C706.578 26.0243 707.402 26.7082 708.039 27.5513ZM695.765 23.4419C695.782 21.6438 696.508 19.9252 697.785 18.6597C699.063 17.3943 700.788 16.6844 702.587 16.6844C704.385 16.6844 706.11 17.3943 707.388 18.6597C708.665 19.9252 709.392 21.6438 709.409 23.4419C709.416 24.6127 709.116 25.7648 708.539 26.7836C707.818 25.9012 706.91 25.1902 705.881 24.7019C704.851 24.2137 703.726 23.9604 702.587 23.9604C701.448 23.9604 700.323 24.2137 699.293 24.7019C698.264 25.1902 697.356 25.9012 696.635 26.7836C696.068 25.7608 695.769 24.6114 695.765 23.4419ZM699.858 20.5768C699.858 21.1166 700.018 21.6442 700.318 22.093C700.618 22.5418 701.044 22.8916 701.543 23.0981C702.041 23.3047 702.59 23.3587 703.119 23.2534C703.649 23.1481 704.135 22.8882 704.517 22.5066C704.898 22.1249 705.158 21.6386 705.264 21.1092C705.369 20.5798 705.315 20.0311 705.108 19.5324C704.902 19.0338 704.552 18.6075 704.103 18.3077C703.654 18.0078 703.127 17.8477 702.587 17.8477C701.864 17.8497 701.171 18.1378 700.659 18.6492C700.148 19.1606 699.86 19.8536 699.858 20.5768ZM700.731 20.5768C700.731 20.2098 700.84 19.8511 701.044 19.5459C701.247 19.2408 701.537 19.003 701.876 18.8625C702.215 18.7221 702.588 18.6854 702.948 18.757C703.308 18.8285 703.639 19.0053 703.898 19.2648C704.158 19.5243 704.335 19.8549 704.406 20.2148C704.478 20.5747 704.441 20.9478 704.301 21.2869C704.16 21.6259 703.922 21.9157 703.617 22.1196C703.312 22.3235 702.953 22.4323 702.586 22.4323C702.095 22.4307 701.624 22.2347 701.276 21.887C700.929 21.5394 700.733 21.0684 700.731 20.5768H700.731Z" fill="#9D9DB0" stroke="#9D9DB0" stroke-width="0.0923443"/>
<rect x="242.405" y="12.9562" width="227.702" height="19.5997" rx="4.32346" stroke="#EAEAEA" stroke-width="0.576461"/>
<path d="M33.683 23.2264C33.6773 23.233 33.6715 23.2396 33.6666 23.2453C33.66 23.2412 33.6543 23.2371 33.6477 23.233C33.5124 23.1469 33.3738 23.0575 33.2409 22.9721C32.9734 22.7991 32.6962 22.6202 32.4164 22.4521C32.3967 22.4406 32.3779 22.4283 32.3582 22.4168C32.263 22.3594 32.1679 22.3011 32.0727 22.2437C31.9776 22.1863 31.8824 22.1289 31.7872 22.0706C31.615 21.9664 31.4435 21.8622 31.2713 21.7581C29.6093 20.7532 27.8924 19.713 26.191 18.7073C25.4896 18.293 24.7366 18.2848 24.0721 18.686C23.8597 18.8139 23.6759 18.9632 23.52 19.1322C23.5192 18.9575 23.5184 18.7836 23.5176 18.6121C23.5209 18.3234 23.5258 18.0346 23.5332 17.7475C23.5479 17.1618 23.8482 16.663 24.3781 16.3431C24.9794 15.9805 25.5315 16.1561 25.8883 16.3669C27.5864 17.3702 29.3017 18.4087 30.9612 19.4136C31.3435 19.6449 31.7257 19.8762 32.108 20.1076C32.3795 20.2716 32.6535 20.448 32.9177 20.6186C33.0522 20.7056 33.1908 20.795 33.3286 20.882C33.3852 20.9172 33.4386 20.9566 33.4886 20.9993C33.5649 21.0633 33.6346 21.1338 33.697 21.2109C33.7601 21.288 33.8151 21.3717 33.8627 21.4595C33.9472 21.6178 34.0054 21.7917 34.0333 21.9755C34.1022 22.4291 33.9742 22.8852 33.683 23.2264Z" fill="#5466F9"/>
<path d="M23.533 25.7651C23.533 25.7586 23.533 25.7512 23.533 25.7446V25.7651C23.533 25.9431 23.533 26.1212 23.533 26.2992V26.7897C23.5322 26.7676 23.5322 26.7446 23.5322 26.7225C23.533 26.4042 23.533 26.0842 23.533 25.7651Z" fill="#5466F9"/>
<path d="M23.5337 24.3691C23.5337 24.6735 23.5337 24.9795 23.5337 25.2863C23.5337 25.4142 23.5337 25.543 23.5337 25.671V24.7949H23.5222C23.5214 24.4553 23.5198 24.114 23.5181 23.7818C23.514 22.9787 23.5099 22.1551 23.5198 21.3356C23.523 21.1034 23.5271 20.8721 23.5329 20.6416C23.5329 20.7696 23.5329 20.8975 23.5329 21.0255C23.5329 21.6654 23.5329 22.3175 23.5329 22.9713V23.4487C23.5337 23.7531 23.5337 24.0607 23.5337 24.3691Z" fill="#5466F9"/>
<path d="M23.5212 19.1324C23.5196 19.1349 23.5171 19.1373 23.5146 19.139C23.5155 18.9634 23.5171 18.7879 23.5188 18.6123C23.5196 18.7846 23.5204 18.9585 23.5212 19.1324Z" fill="#5466F9"/>
<path d="M23.534 23.4488V22.9713C23.534 22.7277 23.534 22.4849 23.534 22.2412V21.9451H23.5225C23.5217 21.7417 23.5217 21.5382 23.52 21.3364C23.5102 22.1559 23.5135 22.9795 23.5184 23.7826C23.52 24.1149 23.5217 24.4561 23.5225 24.7957H23.5332V25.6718C23.5332 25.5439 23.5332 25.4151 23.5332 25.2871C23.5332 24.9803 23.5332 24.6743 23.5332 24.37C23.534 24.0607 23.534 23.7531 23.534 23.4488Z" fill="#5466F9"/>
<path d="M23.5337 23.4492C23.5337 23.7536 23.5337 24.0604 23.5337 24.3696C23.5337 24.674 23.5337 24.98 23.5337 25.2868C23.5337 25.2868 23.5337 25.2868 23.5337 25.2859V24.7954H23.5222C23.5214 24.4558 23.5198 24.1145 23.5181 23.7823C23.514 22.9792 23.5099 22.1556 23.5198 21.3361C23.523 21.1039 23.5271 20.8726 23.5329 20.6421C23.5329 20.7701 23.5329 20.898 23.5329 21.026C23.5329 21.6659 23.5329 22.318 23.5329 22.9718V23.4492H23.5337Z" fill="#5466F9"/>
<path d="M23.5212 19.1329C23.5196 19.1353 23.5171 19.1378 23.5146 19.1394C23.5155 18.9639 23.5171 18.7883 23.5188 18.6128C23.5196 18.7851 23.5204 18.959 23.5212 19.1329Z" fill="#5466F9"/>
<path d="M33.8643 20.5404C33.7962 20.4838 33.724 20.4313 33.6477 20.3829C33.5124 20.2968 33.3738 20.2074 33.2409 20.1212C32.9734 19.9482 32.6962 19.7693 32.4164 19.6012C32.0342 19.3698 31.6519 19.1385 31.2704 18.9072C29.6101 17.9023 27.8924 16.8629 26.1918 15.858C25.4905 15.4429 24.7374 15.4356 24.0729 15.8367C23.8597 15.9655 23.6734 16.1164 23.5176 16.2862C23.5209 15.9655 23.5258 15.6447 23.534 15.3256C23.5488 14.7399 23.849 14.2412 24.3789 13.9212C24.9802 13.5587 25.5323 13.7342 25.8891 13.945C27.5864 14.9483 29.3017 15.9868 30.9612 16.9917C31.3435 17.223 31.7257 17.4544 32.1088 17.6857C32.3803 17.8498 32.6543 18.0261 32.9185 18.1968C33.053 18.2837 33.1916 18.3731 33.3295 18.4601C33.7093 18.7013 33.966 19.0991 34.0341 19.5536C34.0866 19.8989 34.0251 20.2443 33.8643 20.5404Z" fill="#5466F9"/>
<path d="M23.5324 24.2998C23.5332 23.9068 23.5332 23.5122 23.5332 23.1177V22.9717C23.5332 22.3179 23.5332 21.6657 23.5332 21.0258C23.5332 20.8979 23.5332 20.7699 23.5332 20.6419C23.5274 20.8724 23.5233 21.1038 23.52 21.3359C23.5102 22.1554 23.5135 22.979 23.5184 23.7821C23.52 24.1144 23.5217 24.4556 23.5225 24.7952H23.5332V25.6713C23.5332 25.5434 23.5332 25.4146 23.5332 25.2866C23.5332 24.9798 23.5332 24.6738 23.5332 24.3695C23.5332 24.3465 23.5324 24.3235 23.5324 24.2998ZM23.5332 25.7657V25.7452C23.5332 25.7517 23.5332 25.7583 23.5332 25.7657ZM23.5192 18.6133C23.5176 18.7888 23.5159 18.9644 23.5151 19.1399C23.5176 19.1375 23.5192 19.1358 23.5217 19.1334C23.5209 18.9586 23.52 18.7847 23.5192 18.6133Z" fill="#5466F9"/>
<path d="M23.5341 23.4487V22.9713C23.5341 22.3175 23.5341 21.6654 23.5341 21.0255C23.5341 20.8975 23.5341 20.7696 23.5341 20.6416C23.5284 20.8721 23.5243 21.1034 23.521 21.3356C23.5112 22.1551 23.5145 22.9787 23.5194 23.7818C23.521 24.114 23.5227 24.4553 23.5235 24.7949H23.5341V25.671C23.5341 25.543 23.5341 25.4142 23.5341 25.2863C23.5341 24.9795 23.5341 24.6735 23.5341 24.3691C23.5341 24.0607 23.5341 23.7531 23.5341 23.4487ZM23.5333 25.7653C23.5333 26.0853 23.5325 26.4044 23.5325 26.7227C23.5325 26.7448 23.5333 26.7678 23.5333 26.7899V26.2994C23.5341 26.1214 23.5333 25.9433 23.5333 25.7653V25.7448C23.5333 25.7514 23.5333 25.758 23.5333 25.7653Z" fill="#5466F9"/>
<path d="M23.534 25.7656C23.534 26.0856 23.5332 26.4047 23.5332 26.7229C23.5332 26.7451 23.534 26.7681 23.534 26.7902V26.2997C23.5348 26.1216 23.534 25.9436 23.534 25.7656V25.7451C23.534 25.7517 23.534 25.7582 23.534 25.7656Z" fill="#5466F9"/>
<path d="M33.6847 26.0772C33.5641 26.2191 33.4296 26.3372 33.2967 26.4184C30.4666 28.1567 28.1442 29.5767 25.9868 30.8876C25.2231 31.3519 24.2797 31.146 23.7908 30.4093C23.6169 30.1468 23.5324 29.8736 23.5332 29.5726C23.534 29.1132 23.534 28.6497 23.534 28.1879C23.534 28.0279 23.534 27.8688 23.534 27.7096C23.534 27.402 23.534 27.0944 23.534 26.79V26.2995C23.534 26.1215 23.534 25.9435 23.534 25.7655V25.7343C23.534 25.7138 23.534 25.6925 23.534 25.6719C23.534 25.544 23.534 25.4152 23.534 25.2872C23.534 24.9804 23.534 24.6744 23.534 24.3701C23.534 24.0608 23.534 23.754 23.534 23.4497V22.9723C23.534 22.3185 23.534 21.6663 23.534 21.0265C23.534 20.8985 23.534 20.7705 23.534 20.6426C23.534 20.6278 23.5348 20.613 23.5348 20.5991C23.5496 20.0134 23.8499 19.5146 24.3798 19.1947C24.9811 18.8321 25.5332 19.0076 25.89 19.2185C27.5881 20.2225 29.3042 21.2611 30.9645 22.266C31.049 22.3168 31.1335 22.3685 31.2188 22.4194C31.314 22.4768 31.4091 22.535 31.5043 22.5925C31.5994 22.6499 31.6946 22.7081 31.7898 22.7655C31.8964 22.8304 32.003 22.8943 32.1097 22.9591C32.3812 23.1232 32.6552 23.3004 32.9193 23.4702C33.0047 23.526 33.0924 23.5818 33.1802 23.6384C33.2302 23.6704 33.2795 23.7024 33.3295 23.7335C33.3713 23.7606 33.4124 23.7885 33.4509 23.8197C33.5313 23.882 33.6051 23.9534 33.6716 24.0297C33.8619 24.2512 33.989 24.5268 34.0342 24.8262C34.1039 25.2798 33.9759 25.7351 33.6847 26.0772Z" fill="#5466F9"/>
<path d="M56.9095 27.0903C57.3566 27.3094 57.7898 27.5218 58.2475 27.7466C57.9653 28.3996 57.5642 28.9229 57.0334 29.3421C56.0933 30.0853 55.0212 30.4373 53.8178 30.4479C52.6455 30.4586 51.5824 30.1575 50.63 29.4783C49.58 28.7285 48.8901 27.7286 48.507 26.4948C48.3208 25.896 48.2453 25.2824 48.2502 24.6753C48.2609 23.3062 48.6719 22.0511 49.5398 20.9666C50.3461 19.9585 51.3543 19.2595 52.6447 19.0487C54.5618 18.7345 56.2131 19.2374 57.4813 20.7558C57.9473 21.3145 58.2253 21.9847 58.4132 22.6844C58.6068 23.4063 58.6896 24.1446 58.6585 24.8935C58.6544 24.9928 58.633 25.0912 58.6158 25.2208C58.4747 25.2348 58.3509 25.2569 58.227 25.2569C56.6831 25.2594 55.1401 25.261 53.5963 25.2553C53.4183 25.2545 53.2361 25.2282 53.0639 25.1856C52.4716 25.0395 52.141 24.4735 52.2862 23.8082C53.0549 23.7853 53.8358 23.8017 54.6167 23.7984C55.3985 23.7951 56.1803 23.7976 56.9842 23.7976C57.008 23.5014 56.9317 23.2578 56.8644 23.0183C56.6372 22.2037 56.2164 21.5179 55.5191 21.0118C55.1672 20.7566 54.7759 20.6024 54.3592 20.5171C53.3247 20.3046 52.3559 20.4769 51.5192 21.1332C50.516 21.9198 49.9598 22.96 49.9302 24.2471C49.9155 24.887 49.9065 25.5268 50.0771 26.1585C50.4831 27.6646 51.9105 28.9664 53.6676 28.959C54.4199 28.9558 55.1196 28.8179 55.7562 28.4029C56.063 28.2027 56.3197 27.9591 56.5281 27.6605C56.6495 27.4808 56.7685 27.3003 56.9095 27.0903Z" fill="#41415A"/>
<path d="M86.5915 24.9089C86.5414 23.9261 86.7416 22.9918 87.2034 22.1247C87.9803 20.6662 89.1624 19.6842 90.7809 19.3069C92.9982 18.7893 94.9071 19.3783 96.4148 21.0886C97.1589 21.9319 97.5854 22.9458 97.7274 24.0762C97.9324 25.712 97.5444 27.191 96.551 28.4929C95.7102 29.5946 94.5978 30.2779 93.2107 30.5248C91.9072 30.7561 90.6759 30.5937 89.52 29.9612C87.9631 29.1089 87.0115 27.7989 86.6637 26.0565C86.6358 25.9187 86.6013 25.7801 86.5948 25.6398C86.5833 25.397 86.5915 25.1525 86.5915 24.9089ZM96.0883 24.9204C96.0949 24.0902 95.8972 23.3101 95.4747 22.6038C94.6585 21.2387 93.483 20.5136 91.8448 20.626C90.5848 20.7129 89.6103 21.2921 88.9491 22.3396C88.0385 23.7809 87.9786 25.3141 88.6759 26.8563C89.1509 27.908 89.9335 28.6594 91.068 28.9892C91.5503 29.1294 92.0433 29.1606 92.5487 29.1204C93.1549 29.0728 93.7102 28.8965 94.2024 28.5552C95.4698 27.6775 96.0523 26.438 96.0883 24.9204Z" fill="#41415A"/>
<path d="M61.6719 30.4029C61.6719 26.7221 61.6719 23.0553 61.6719 19.3917C61.9541 19.3023 62.7563 19.2892 63.1829 19.3696C63.2666 19.66 63.2133 19.9676 63.2223 20.2703C63.2313 20.573 63.2239 20.8757 63.2239 21.2613C63.3683 21.0742 63.4643 20.9586 63.5496 20.8363C64.1583 19.9643 64.9827 19.3844 66.0261 19.2088C67.1754 19.0152 68.305 19.1013 69.3189 19.7847C70.0457 20.2736 70.4854 20.9717 70.766 21.7731C70.9571 22.3195 71.0268 22.8912 71.0235 23.4769C71.0112 25.6475 71.0186 27.8181 71.0186 29.9887C71.0186 30.115 71.0186 30.2413 71.0186 30.3685C70.7208 30.503 70.483 30.3964 70.2639 30.2717C69.6274 29.9099 69.3936 29.3201 69.3886 28.6228C69.3813 27.6081 69.387 26.5933 69.3862 25.5786C69.3854 24.9232 69.387 24.2686 69.3813 23.6131C69.3763 23.0791 69.2566 22.5738 69.0047 22.098C68.5609 21.2588 67.8694 20.815 66.9277 20.7034C66.4716 20.6493 66.0278 20.655 65.5963 20.7846C64.3584 21.1587 63.6603 22.0373 63.3724 23.2628C63.306 23.5467 63.2904 23.8469 63.2887 24.1406C63.2805 25.6565 63.2805 27.1717 63.2871 28.6876C63.2896 29.2963 63.0631 29.7869 62.5857 30.1585C62.3273 30.3594 62.0377 30.4792 61.6719 30.4029Z" fill="#41415A"/>
<path d="M83.0871 26.4851C83.5752 26.6524 84.0346 26.8091 84.5334 26.9805C84.5038 27.129 84.5006 27.2562 84.453 27.3644C83.7418 28.9854 82.5318 30.0576 80.8124 30.471C79.3686 30.8188 77.9511 30.6548 76.646 29.8976C75.1349 29.0207 74.3064 27.6696 74.007 25.9773C73.8109 24.8682 73.8913 23.7706 74.3089 22.7239C75.0086 20.9708 76.2571 19.7896 78.1045 19.3072C79.618 18.9118 81.0601 19.1325 82.4022 19.934C83.4514 20.5607 84.2528 21.6181 84.4866 22.6861C84.3898 22.7198 84.2897 22.7764 84.1847 22.7879C83.5785 22.8527 83.0387 22.7091 82.6032 22.2571C82.3193 21.9626 82.056 21.6402 81.7369 21.3892C80.0175 20.034 77.2637 20.477 76.1283 22.6353C75.7986 23.262 75.5927 23.9265 75.5861 24.6213C75.5705 26.1988 76.0439 27.5794 77.3982 28.5326C77.9002 28.8861 78.4622 29.0822 79.0856 29.1183C79.6401 29.1503 80.1807 29.1216 80.7189 28.9714C81.4153 28.7779 81.9067 28.3177 82.3119 27.7615C82.5671 27.412 82.7574 27.0158 82.9772 26.6409C83.0035 26.5983 83.0355 26.5589 83.0871 26.4851Z" fill="#41415A"/>
<path d="M38.2753 14.2002C39.29 14.2765 39.9143 14.9598 39.9594 16.018C39.9643 16.1337 39.961 16.2494 39.961 16.3642C39.961 20.3305 39.961 24.2975 39.961 28.2638C39.961 28.4164 39.961 28.5698 39.961 28.774C40.1341 28.7814 40.2818 28.7929 40.4294 28.7929C42.6025 28.7937 44.7755 28.7937 46.9485 28.7937C47.0987 28.7937 47.2488 28.7937 47.444 28.7937C47.4563 29.3639 47.4563 29.8798 47.444 30.418C44.3465 30.418 41.3055 30.418 38.2704 30.418C38.1662 30.0759 38.1703 14.5226 38.2753 14.2002Z" fill="#41415A"/>
</g>
<rect x="2.82212" y="2.82212" width="740.481" height="457.356" rx="23.9567" stroke="white" stroke-width="4.35577"/>
<defs>
<filter id="filter0_d_4546_14117" x="155.41" y="93.4766" width="143.332" height="75.5" filterUnits="userSpaceOnUse" color-interpolation-filters="sRGB">
<feFlood flood-opacity="0" result="BackgroundImageFix"/>
<feColorMatrix in="SourceAlpha" type="matrix" values="0 0 0 0 0 0 0 0 0 0 0 0 0 0 0 0 0 0 127 0" result="hardAlpha"/>
<feOffset dy="1.76953"/>
<feGaussianBlur stdDeviation="4.42383"/>
<feComposite in2="hardAlpha" operator="out"/>
<feColorMatrix type="matrix" values="0 0 0 0 0.937255 0 0 0 0 0.937255 0 0 0 0 0.937255 0 0 0 1 0"/>
<feBlend mode="normal" in2="BackgroundImageFix" result="effect1_dropShadow_4546_14117"/>
<feBlend mode="normal" in="SourceGraphic" in2="effect1_dropShadow_4546_14117" result="shape"/>
</filter>
<filter id="filter1_d_4546_14117" x="292.844" y="93.4766" width="143.332" height="75.5" filterUnits="userSpaceOnUse" color-interpolation-filters="sRGB">
<feFlood flood-opacity="0" result="BackgroundImageFix"/>
<feColorMatrix in="SourceAlpha" type="matrix" values="0 0 0 0 0 0 0 0 0 0 0 0 0 0 0 0 0 0 127 0" result="hardAlpha"/>
<feOffset dy="1.76953"/>
<feGaussianBlur stdDeviation="4.42383"/>
<feComposite in2="hardAlpha" operator="out"/>
<feColorMatrix type="matrix" values="0 0 0 0 0.937255 0 0 0 0 0.937255 0 0 0 0 0.937255 0 0 0 1 0"/>
<feBlend mode="normal" in2="BackgroundImageFix" result="effect1_dropShadow_4546_14117"/>
<feBlend mode="normal" in="SourceGraphic" in2="effect1_dropShadow_4546_14117" result="shape"/>
</filter>
<filter id="filter2_d_4546_14117" x="429.098" y="93.4766" width="134.484" height="75.5" filterUnits="userSpaceOnUse" color-interpolation-filters="sRGB">
<feFlood flood-opacity="0" result="BackgroundImageFix"/>
<feColorMatrix in="SourceAlpha" type="matrix" values="0 0 0 0 0 0 0 0 0 0 0 0 0 0 0 0 0 0 127 0" result="hardAlpha"/>
<feOffset dy="1.76953"/>
<feGaussianBlur stdDeviation="4.42383"/>
<feComposite in2="hardAlpha" operator="out"/>
<feColorMatrix type="matrix" values="0 0 0 0 0.937255 0 0 0 0 0.937255 0 0 0 0 0.937255 0 0 0 1 0"/>
<feBlend mode="normal" in2="BackgroundImageFix" result="effect1_dropShadow_4546_14117"/>
<feBlend mode="normal" in="SourceGraphic" in2="effect1_dropShadow_4546_14117" result="shape"/>
</filter>
<filter id="filter3_d_4546_14117" x="556.958" y="91.5708" width="113.25" height="75.5" filterUnits="userSpaceOnUse" color-interpolation-filters="sRGB">
<feFlood flood-opacity="0" result="BackgroundImageFix"/>
<feColorMatrix in="SourceAlpha" type="matrix" values="0 0 0 0 0 0 0 0 0 0 0 0 0 0 0 0 0 0 127 0" result="hardAlpha"/>
<feOffset dy="1.76953"/>
<feGaussianBlur stdDeviation="4.42383"/>
<feComposite in2="hardAlpha" operator="out"/>
<feColorMatrix type="matrix" values="0 0 0 0 0.937255 0 0 0 0 0.937255 0 0 0 0 0.937255 0 0 0 1 0"/>
<feBlend mode="normal" in2="BackgroundImageFix" result="effect1_dropShadow_4546_14117"/>
<feBlend mode="normal" in="SourceGraphic" in2="effect1_dropShadow_4546_14117" result="shape"/>
</filter>
<clipPath id="clip0_4546_14117">
<rect x="5" y="5" width="736.125" height="453" rx="21.7788" fill="white"/>
</clipPath>
</defs>
</svg>
