<svg width="23" height="20" viewBox="0 0 23 20" fill="none" xmlns="http://www.w3.org/2000/svg">
<path d="M11.0015 4.06312C9.8811 4.06312 8.96973 3.15175 8.96973 2.03156C8.96973 0.91137 9.8811 0 11.0015 0C12.1219 0 13.0333 0.91137 13.0333 2.03156C13.0333 3.15175 12.1219 4.06312 11.0015 4.06312ZM11.0015 0.916741C10.3865 0.916741 9.88647 1.41674 9.88647 2.03156C9.88647 2.64637 10.3865 3.14637 11.0015 3.14637C11.6165 3.14637 12.1165 2.64637 12.1165 2.03156C12.1165 1.41674 11.6165 0.916741 11.0015 0.916741Z" fill="#5466F9"/>
<path d="M13.4528 8.21094H8.55168C7.90486 8.21094 7.32339 7.87813 6.99572 7.32084C6.66582 6.75906 6.65866 6.08314 6.97692 5.51287C7.79026 4.05315 9.33279 3.14648 11.0024 3.14648C12.6721 3.14648 14.2146 4.05315 15.028 5.51287C15.3462 6.08314 15.3391 6.75906 15.0092 7.32061C14.6815 7.87813 14.1 8.21094 13.4528 8.21094ZM11.0024 4.06323C9.66493 4.06323 8.42947 4.78973 7.77728 5.95915C7.61927 6.24272 7.62285 6.578 7.78623 6.85642C7.94738 7.13059 8.23341 7.2942 8.55168 7.2942H13.4528C13.7715 7.2942 14.0575 7.13059 14.2186 6.85642C14.382 6.578 14.3856 6.2425 14.2276 5.95915C13.5754 4.78973 12.3399 4.06323 11.0024 4.06323Z" fill="#5466F9"/>
<path d="M4.25887 15.8522C3.13891 15.8522 2.22754 14.9408 2.22754 13.8206C2.22754 12.7004 3.13891 11.7891 4.25887 11.7891C5.37928 11.7891 6.29065 12.7004 6.29065 13.8206C6.29065 14.9408 5.37928 15.8522 4.25887 15.8522ZM4.25887 12.7058C3.64428 12.7058 3.14428 13.2058 3.14428 13.8206C3.14428 14.4354 3.64428 14.9354 4.25887 14.9354C4.87391 14.9354 5.37391 14.4354 5.37391 13.8206C5.37391 13.2058 4.87391 12.7058 4.25887 12.7058Z" fill="#5466F9"/>
<path d="M6.71004 20H1.80896C1.16169 20 0.580223 19.6672 0.252559 19.1097C-0.0773421 18.5481 -0.0845041 17.8722 0.233759 17.3019C1.0471 15.8422 2.58962 14.9355 4.25927 14.9355C5.92893 14.9355 7.47145 15.8422 8.28479 17.3019C8.60305 17.8722 8.59589 18.5481 8.26599 19.1099C7.93833 19.6672 7.35686 20 6.71004 20ZM4.25927 15.8523C2.92176 15.8523 1.68631 16.5788 1.03412 17.7482C0.876105 18.0316 0.879686 18.3671 1.04307 18.6455C1.20422 18.9197 1.49025 19.0833 1.80896 19.0833H6.71004C7.0283 19.0833 7.31433 18.9197 7.47548 18.6455C7.63886 18.3671 7.64244 18.0318 7.48443 17.7482C6.83224 16.5788 5.59679 15.8523 4.25927 15.8523Z" fill="#5466F9"/>
<path d="M17.7447 15.8522C16.6243 15.8522 15.7129 14.9408 15.7129 13.8206C15.7129 12.7004 16.6243 11.7891 17.7447 11.7891C18.8646 11.7891 19.776 12.7004 19.776 13.8206C19.776 14.9408 18.8646 15.8522 17.7447 15.8522ZM17.7447 12.7058C17.1296 12.7058 16.6296 13.2058 16.6296 13.8206C16.6296 14.4354 17.1296 14.9354 17.7447 14.9354C18.3593 14.9354 18.8593 14.4354 18.8593 13.8206C18.8593 13.2058 18.3593 12.7058 17.7447 12.7058Z" fill="#5466F9"/>
<path d="M20.1949 20H15.2939C14.647 20 14.0656 19.6672 13.7379 19.1099C13.408 18.5481 13.4008 17.8722 13.7191 17.3019C14.5324 15.8422 16.075 14.9355 17.7446 14.9355C19.4143 14.9355 20.9568 15.8422 21.7701 17.3019C22.088 17.8724 22.0808 18.5483 21.7509 19.1101C21.4232 19.6674 20.8418 20 20.1949 20ZM17.7446 15.8523C16.4071 15.8523 15.1717 16.5788 14.5195 17.7482C14.3615 18.0318 14.365 18.3671 14.5284 18.6455C14.6896 18.9197 14.9756 19.0833 15.2939 19.0833H20.1949C20.5132 19.0833 20.7992 18.9197 20.9604 18.6455C21.1242 18.3671 21.1273 18.0316 20.9693 17.7482C20.3176 16.5788 19.0821 15.8523 17.7446 15.8523Z" fill="#5466F9"/>
<path d="M6.6419 16.6055C6.53044 16.6055 6.41853 16.565 6.33035 16.4833C6.14459 16.3109 6.13384 16.0211 6.30573 15.8353L10.5434 11.2662V7.77087C10.5434 7.51774 10.7484 7.3125 11.0018 7.3125C11.2552 7.3125 11.4602 7.51774 11.4602 7.77087V11.4461C11.4602 11.5618 11.4163 11.6731 11.338 11.7579L6.97807 16.4589C6.88765 16.5562 6.765 16.6055 6.6419 16.6055Z" fill="#5466F9"/>
<path d="M15.3341 16.623C15.211 16.623 15.0883 16.5737 14.9979 16.4764L10.6192 11.7548C10.4473 11.569 10.4581 11.279 10.6438 11.1069C10.8291 10.9345 11.1192 10.9453 11.2915 11.1313L15.6702 15.8528C15.8421 16.0386 15.8314 16.3287 15.6456 16.5008C15.5574 16.5825 15.4455 16.623 15.3341 16.623Z" fill="#5466F9"/>
</svg>
