<svg width="17" height="20" viewBox="0 0 17 20" fill="none" xmlns="http://www.w3.org/2000/svg">
<path d="M15.0726 20.0002H3.8857C3.18624 20.0002 2.61719 19.4312 2.61719 18.7315V16.9755H12.8813C13.1211 16.9755 13.3164 16.7802 13.3164 16.5404V4.71094H15.0726C15.7721 4.71094 16.3411 5.27999 16.3411 5.97945V18.7315C16.3411 19.4312 15.7721 20.0002 15.0726 20.0002ZM3.45052 17.8089V18.7315C3.45052 18.9716 3.64583 19.1669 3.8857 19.1669H15.0726C15.3125 19.1669 15.5078 18.9716 15.5078 18.7315V5.97945C15.5078 5.73958 15.3125 5.54427 15.0726 5.54427H14.1498V16.5404C14.1498 17.2398 13.5807 17.8089 12.8813 17.8089H3.45052Z" fill="#5466F9"/>
<path d="M12.8815 17.8089H1.26851C0.569051 17.8089 0 17.2398 0 16.5404V3.36226C0 2.6628 0.569051 2.09375 1.26851 2.09375H12.8815C13.5809 2.09375 14.15 2.6628 14.15 3.36226V16.5404C14.15 17.2398 13.5809 17.8089 12.8815 17.8089ZM1.26851 2.92708C1.02865 2.92708 0.833333 3.1224 0.833333 3.36226V16.5404C0.833333 16.7802 1.02865 16.9755 1.26851 16.9755H12.8815C13.1213 16.9755 13.3167 16.7802 13.3167 16.5404V3.36226C13.3167 3.1224 13.1213 2.92708 12.8815 2.92708H1.26851Z" fill="#5466F9"/>
<path d="M4.17826 7.11466C3.37138 7.11466 2.71484 6.45813 2.71484 5.65104V1.46342C2.71484 0.656535 3.37138 0 4.17826 0C4.98535 0 5.64189 0.656535 5.64189 1.46342V2.51038C5.64189 2.74048 5.45532 2.92704 5.22522 2.92704C4.99512 2.92704 4.80855 2.74048 4.80855 2.51038V1.46342C4.80855 1.11593 4.52576 0.833333 4.17826 0.833333C3.83077 0.833333 3.54818 1.11593 3.54818 1.46342V5.65104C3.54818 5.99854 3.83077 6.28133 4.17826 6.28133C4.52576 6.28133 4.80855 5.99854 4.80855 5.65104V4.48608C4.80855 4.25598 4.99512 4.06942 5.22522 4.06942C5.45532 4.06942 5.64189 4.25598 5.64189 4.48608V5.65104C5.64189 6.45813 4.98535 7.11466 4.17826 7.11466Z" fill="#5466F9"/>
<path d="M11.0249 9.9349H3.12467C2.89457 9.9349 2.70801 9.74833 2.70801 9.51823C2.70801 9.28813 2.89457 9.10156 3.12467 9.10156H11.0249C11.255 9.10156 11.4415 9.28813 11.4415 9.51823C11.4415 9.74833 11.255 9.9349 11.0249 9.9349Z" fill="#5466F9"/>
<path d="M11.0249 12.4349H3.12467C2.89457 12.4349 2.70801 12.2483 2.70801 12.0182C2.70801 11.7881 2.89457 11.6016 3.12467 11.6016H11.0249C11.255 11.6016 11.4415 11.7881 11.4415 12.0182C11.4415 12.2483 11.255 12.4349 11.0249 12.4349Z" fill="#5466F9"/>
<path d="M11.0249 14.9349H3.12467C2.89457 14.9349 2.70801 14.7483 2.70801 14.5182C2.70801 14.2881 2.89457 14.1016 3.12467 14.1016H11.0249C11.255 14.1016 11.4415 14.2881 11.4415 14.5182C11.4415 14.7483 11.255 14.9349 11.0249 14.9349Z" fill="#5466F9"/>
</svg>
