<svg width="18" height="18" viewBox="0 0 22 22" fill="none" xmlns="http://www.w3.org/2000/svg">
<circle cx="11" cy="11" r="11" fill="#139AB7"/>
<path d="M12.1718 8.50775C12.8643 8.50775 13.4257 7.94637 13.4257 7.25387C13.4257 6.56138 12.8643 6 12.1718 6C11.4793 6 10.918 6.56138 10.918 7.25387C10.918 7.94637 11.4793 8.50775 12.1718 8.50775Z" fill="white"/>
<path d="M13.4535 13.5956C13.4188 13.5723 13.3799 13.5561 13.3389 13.5481C13.298 13.54 13.2558 13.5402 13.2149 13.5487C13.174 13.5572 13.1353 13.5737 13.1009 13.5974C13.0665 13.621 13.0372 13.6513 13.0146 13.6865C12.7116 14.1353 12.3404 14.534 11.9143 14.8683C11.8109 14.9466 11.4253 15.2444 11.2623 15.1817C11.1495 15.1472 11.2153 14.9247 11.2373 14.8306L11.4034 14.3385C11.4724 14.1379 12.6729 10.5769 12.8046 10.1694C12.9989 9.57377 12.9143 8.98759 12.0272 9.12865C11.7858 9.15373 9.33764 9.47033 9.29375 9.47346C9.25259 9.47614 9.21235 9.4869 9.17535 9.50512C9.13834 9.52335 9.10528 9.54868 9.07807 9.57968C9.05085 9.61069 9.03001 9.64674 9.01673 9.6858C9.00344 9.72485 8.99799 9.76614 9.00066 9.80731C9.00334 9.84847 9.01409 9.88871 9.03232 9.92572C9.05055 9.96272 9.07588 9.99578 9.10688 10.023C9.13788 10.0502 9.17394 10.0711 9.21299 10.0843C9.25205 10.0976 9.29334 10.1031 9.33451 10.1004C9.33451 10.1004 10.2749 9.97815 10.3784 9.96874C10.4313 9.96357 10.4847 9.97384 10.532 9.99832C10.5792 10.0228 10.6184 10.0604 10.6448 10.1067C10.7016 10.2823 10.6938 10.4723 10.6229 10.6427C10.5414 10.9562 9.253 14.5861 9.21225 14.7962C9.16854 14.9719 9.18068 15.1569 9.24697 15.3254C9.31326 15.494 9.43042 15.6377 9.58214 15.7366C9.86693 15.9264 10.206 16.0178 10.5476 15.9967C10.8798 15.9927 11.2082 15.9268 11.5162 15.8024C12.2968 15.4889 13.1118 14.6551 13.5412 13.9999C13.5782 13.9334 13.5897 13.8556 13.5736 13.7812C13.5574 13.7068 13.5147 13.6408 13.4535 13.5956Z" fill="white"/>
</svg>
