<svg width="22" height="22" viewBox="0 0 22 22" fill="none" xmlns="http://www.w3.org/2000/svg">
<path d="M11 21C16.5228 21 21 16.5228 21 11C21 5.47715 16.5228 1 11 1C5.47715 1 1 5.47715 1 11C1 16.5228 5.47715 21 11 21Z" fill="#D5D5DD"/>
<path d="M7.20711 10.2929C6.81658 9.90237 6.18342 9.90237 5.79289 10.2929C5.40237 10.6834 5.40237 11.3166 5.79289 11.7071L7.20711 10.2929ZM9.5 14L8.79289 14.7071C9.18342 15.0976 9.81658 15.0976 10.2071 14.7071L9.5 14ZM16.2071 8.70711C16.5976 8.31658 16.5976 7.68342 16.2071 7.29289C15.8166 6.90237 15.1834 6.90237 14.7929 7.29289L16.2071 8.70711ZM20 11C20 15.9706 15.9706 20 11 20V22C17.0751 22 22 17.0751 22 11H20ZM11 20C6.02944 20 2 15.9706 2 11H0C0 17.0751 4.92487 22 11 22V20ZM2 11C2 6.02944 6.02944 2 11 2V0C4.92487 0 0 4.92487 0 11H2ZM11 2C15.9706 2 20 6.02944 20 11H22C22 4.92487 17.0751 0 11 0V2ZM5.79289 11.7071L8.79289 14.7071L10.2071 13.2929L7.20711 10.2929L5.79289 11.7071ZM10.2071 14.7071L16.2071 8.70711L14.7929 7.29289L8.79289 13.2929L10.2071 14.7071Z" fill="white"/>
</svg>
