<svg width="40" height="40" viewBox="0 0 40 40" fill="none" xmlns="http://www.w3.org/2000/svg">
<circle cx="20" cy="20" r="20"/>
<path d="M13.4441 13.8623H10.4184C10.2492 13.8623 10.0966 13.7604 10.0319 13.6041C9.96711 13.4477 10.0029 13.2679 10.1226 13.1482L13.1483 10.1227C13.268 10.0028 13.4477 9.96704 13.6042 10.032C13.7605 10.0968 13.8624 10.2494 13.8624 10.4185V13.444C13.8624 13.675 13.6751 13.8623 13.4441 13.8623ZM11.4285 13.0256H13.0257V11.4284L11.4285 13.0256Z" fill="#5466F9"/>
<path d="M28.067 16.4558C27.96 16.4558 27.853 16.415 27.7713 16.3333L25.4146 13.9768C25.3361 13.8983 25.292 13.7919 25.292 13.681C25.292 13.5701 25.3361 13.4636 25.4146 13.3852L26.8874 11.9124C27.2032 11.5966 27.7531 11.5972 28.0683 11.9126L29.8356 13.6798C30.1613 14.0052 30.1613 14.535 29.8356 14.8605L28.3628 16.3333C28.2811 16.415 28.1741 16.4558 28.067 16.4558ZM26.3017 13.6808L28.067 15.4459L29.2441 14.2689L27.4765 12.504L26.3017 13.6808Z" fill="#5466F9"/>
<path d="M18.3717 26.1549C18.2647 26.1549 18.1577 26.114 18.0759 26.0323L15.7192 23.6758C15.6408 23.5974 15.5967 23.4909 15.5967 23.38C15.5967 23.2691 15.6408 23.1627 15.7192 23.0842L25.4153 13.3882C25.5787 13.2248 25.8434 13.2248 26.0069 13.3882L28.3636 15.7447C28.442 15.8231 28.4861 15.9296 28.4861 16.0405C28.4861 16.1514 28.442 16.2578 28.3636 16.3363L18.6675 26.0323C18.5858 26.114 18.4788 26.1549 18.3717 26.1549ZM16.6066 23.38L18.3717 25.1449L27.4762 16.0405L25.7111 14.2756L16.6066 23.38Z" fill="#5466F9"/>
<path d="M14.517 27.6521C14.4081 27.6521 14.3011 27.6094 14.2212 27.5295C14.1044 27.4126 14.0672 27.2378 14.1264 27.0836L15.5992 23.254C15.6203 23.1993 15.6526 23.1497 15.694 23.1084C15.857 22.9452 16.1475 22.9199 16.3105 23.0835L18.6672 25.44C18.7457 25.5184 18.7898 25.6248 18.7898 25.7358C18.7898 25.8467 18.7457 25.9531 18.6672 26.0316C18.626 26.073 18.5514 26.1302 18.4967 26.1511L14.6671 27.6241C14.6183 27.6429 14.5675 27.6521 14.517 27.6521ZM16.163 24.1191L15.2454 26.5053L17.6316 25.5875L16.163 24.1191Z" fill="#5466F9"/>
<path d="M23.3327 30H10.8349C10.3744 30 10 29.6254 10 29.1649V13.444C10 13.3331 10.0441 13.2267 10.1226 13.1483L13.1483 10.1226C13.2267 10.0441 13.3331 10 13.444 10H23.3327C23.7932 10 24.1676 10.3746 24.1676 10.8351V15.6451C24.1676 15.756 24.1235 15.8624 24.045 15.9409L16.3486 23.6373L15.2457 26.5053L18.1137 25.4022L23.4534 20.0625C23.5732 19.9428 23.7525 19.9069 23.9094 19.9718C24.0657 20.0366 24.1676 20.1892 24.1676 20.3583V29.1649C24.1676 29.6254 23.7932 30 23.3327 30ZM10.8367 13.6173V29.1649L23.3327 29.1633L23.3311 21.368L18.6426 26.0565C18.6013 26.098 18.5517 26.1302 18.497 26.1511L14.6674 27.6241C14.5132 27.6835 14.3384 27.6466 14.2215 27.5295C14.1047 27.4127 14.0675 27.2378 14.1267 27.0836L15.5995 23.2541C15.6206 23.1993 15.6529 23.1497 15.6943 23.1084L23.3309 15.4719V10.8351L13.6173 10.8367L10.8367 13.6173ZM18.3468 25.7607H18.3509H18.3468Z" fill="#5466F9"/>
<path d="M17.1937 24.9781C17.0867 24.9781 16.9797 24.9372 16.898 24.8555C16.7345 24.6921 16.7345 24.4273 16.898 24.2639L26.5938 14.5679C26.7572 14.4045 27.0219 14.4045 27.1854 14.5679C27.3488 14.7313 27.3488 14.996 27.1854 15.1595L17.4895 24.8555C17.4078 24.9372 17.3008 24.9781 17.1937 24.9781Z" fill="#5466F9"/>
<path d="M17.1165 18.4656H12.1889C11.9578 18.4656 11.7705 18.2783 11.7705 18.0473C11.7705 17.8162 11.9578 17.6289 12.1889 17.6289H17.1165C17.3476 17.6289 17.5349 17.8162 17.5349 18.0473C17.5349 18.2783 17.3476 18.4656 17.1165 18.4656Z" fill="#5466F9"/>
<path d="M15.4431 20.5594H12.1889C11.9578 20.5594 11.7705 20.372 11.7705 20.141C11.7705 19.91 11.9578 19.7227 12.1889 19.7227H15.4431C15.6742 19.7227 15.8615 19.91 15.8615 20.141C15.8615 20.372 15.6742 20.5594 15.4431 20.5594Z" fill="#5466F9"/>
<path d="M21.6578 27.6531H14.5482C14.3172 27.6531 14.1299 27.4658 14.1299 27.2348C14.1299 27.0037 14.3172 26.8164 14.5482 26.8164H21.6578C21.8888 26.8164 22.0761 27.0037 22.0761 27.2348C22.0761 27.4658 21.8888 27.6531 21.6578 27.6531Z" fill="#5466F9"/>
<path d="M17.1165 16.3758H12.1889C11.9578 16.3758 11.7705 16.1884 11.7705 15.9574C11.7705 15.7264 11.9578 15.5391 12.1889 15.5391H17.1165C17.3476 15.5391 17.5349 15.7264 17.5349 15.9574C17.5349 16.1884 17.3476 16.3758 17.1165 16.3758Z" fill="#5466F9"/>
<path d="M20.9124 13.864H15.9848C15.7537 13.864 15.5664 13.6767 15.5664 13.4457C15.5664 13.2147 15.7537 13.0273 15.9848 13.0273H20.9124C21.1435 13.0273 21.3308 13.2147 21.3308 13.4457C21.3308 13.6767 21.1435 13.864 20.9124 13.864Z" fill="#5466F9"/>
</svg>
