
			<svg
				width="30"
				height="30"
				viewBox="0 0 30 30"
				fill="none"
				xmlns="http://www.w3.org/2000/svg"
			>
				<path
					fillRule="evenodd"
					clipRule="evenodd"
					d="M29.8732 16.9591L28.8816 16.8298C28.9597 16.2314 29 15.6206 29 15C29 14.3794 28.9597 13.7686 28.8816 13.1702L29.8732 13.0409C29.9569 13.6821 30 14.336 30 15C30 15.664 29.9569 16.3179 29.8732 16.9591ZM28.8618 9.25818L27.9381 9.64124C27.4663 8.50361 26.8486 7.44124 26.1081 6.47756L26.901 5.86824C27.6942 6.90041 28.3561 8.03872 28.8618 9.25818ZM24.1318 3.09901L23.5224 3.89193C22.5588 3.15138 21.4964 2.53369 20.3588 2.06193L20.7418 1.13821C21.9613 1.6439 23.0996 2.30582 24.1318 3.09901ZM16.9591 0.126784L16.8298 1.11838C16.2314 1.04032 15.6206 1 15 1C14.3794 1 13.7686 1.04032 13.1702 1.11838L13.0409 0.126784C13.6821 0.0431449 14.336 0 15 0C15.664 0 16.3179 0.043145 16.9591 0.126784ZM9.25818 1.13821L9.64124 2.06193C8.50361 2.53369 7.44124 3.15138 6.47756 3.89193L5.86824 3.09901C6.90041 2.30582 8.03872 1.6439 9.25818 1.13821ZM3.09901 5.86824L3.89193 6.47756C3.15138 7.44124 2.53369 8.50361 2.06193 9.64124L1.13821 9.25818C1.6439 8.03872 2.30582 6.90041 3.09901 5.86824ZM0.126784 13.0409C0.043145 13.6821 0 14.336 0 15C0 15.664 0.0431449 16.3179 0.126784 16.9591L1.11838 16.8298C1.04032 16.2314 1 15.6206 1 15C1 14.3794 1.04032 13.7686 1.11838 13.1702L0.126784 13.0409ZM1.13821 20.7418L2.06193 20.3588C2.53369 21.4964 3.15138 22.5588 3.89193 23.5224L3.09901 24.1318C2.30582 23.0996 1.6439 21.9613 1.13821 20.7418ZM5.86824 26.901C6.90041 27.6942 8.03872 28.3561 9.25818 28.8618L9.64124 27.9381C8.50361 27.4663 7.44124 26.8486 6.47756 26.1081L5.86824 26.901ZM13.0409 29.8732L13.1702 28.8816C13.7686 28.9597 14.3794 29 15 29C15.6206 29 16.2314 28.9597 16.8298 28.8816L16.9591 29.8732C16.3179 29.9569 15.664 30 15 30C14.336 30 13.6821 29.9569 13.0409 29.8732ZM20.7418 28.8618L20.3588 27.9381C21.4964 27.4663 22.5588 26.8486 23.5224 26.1081L24.1318 26.901C23.0996 27.6942 21.9613 28.3561 20.7418 28.8618ZM26.901 24.1318L26.1081 23.5224C26.8486 22.5588 27.4663 21.4964 27.9381 20.3588L28.8618 20.7418C28.3561 21.9613 27.6942 23.0996 26.901 24.1318Z"
					fill="#CCCCCC"
				/>
				<path d="M15.5 7.20898V21.7923" stroke="stroke-current" strokeWidth="2" strokeLinecap="round" strokeLinejoin="round" />
				<path d="M8.20898 14.5H22.7923" stroke="stroke-current" strokeWidth="2" strokeLinecap="round" strokeLinejoin="round" />
			</svg>

