<svg width="17" height="16" viewBox="0 0 17 16" fill="none" xmlns="http://www.w3.org/2000/svg">
<path d="M15.1468 12.2197C15.1468 12.4597 15.0935 12.7063 14.9802 12.9463C14.8668 13.1863 14.7202 13.413 14.5268 13.6263C14.2002 13.9863 13.8402 14.2463 13.4335 14.413C13.0335 14.5797 12.6002 14.6663 12.1335 14.6663C11.4535 14.6663 10.7268 14.5063 9.96016 14.1797C9.1935 13.853 8.42683 13.413 7.66683 12.8597C6.90016 12.2997 6.1735 11.6797 5.48016 10.993C4.7935 10.2997 4.1735 9.57301 3.62016 8.81301C3.0735 8.05301 2.6335 7.29301 2.3135 6.53967C1.9935 5.77967 1.8335 5.05301 1.8335 4.35967C1.8335 3.90634 1.9135 3.47301 2.0735 3.07301C2.2335 2.66634 2.48683 2.29301 2.84016 1.95967C3.26683 1.53967 3.7335 1.33301 4.22683 1.33301C4.4135 1.33301 4.60016 1.37301 4.76683 1.45301C4.94016 1.53301 5.0935 1.65301 5.2135 1.82634L6.76016 4.00634C6.88016 4.17301 6.96683 4.32634 7.02683 4.47301C7.08683 4.61301 7.12016 4.75301 7.12016 4.87967C7.12016 5.03967 7.0735 5.19967 6.98016 5.35301C6.8935 5.50634 6.76683 5.66634 6.60683 5.82634L6.10016 6.35301C6.02683 6.42634 5.9935 6.51301 5.9935 6.61967C5.9935 6.67301 6.00016 6.71967 6.0135 6.77301C6.0335 6.82634 6.0535 6.86634 6.06683 6.90634C6.18683 7.12634 6.3935 7.41301 6.68683 7.75967C6.98683 8.10634 7.30683 8.45967 7.6535 8.81301C8.0135 9.16634 8.36016 9.49301 8.7135 9.79301C9.06016 10.0863 9.34683 10.2863 9.5735 10.4063C9.60683 10.4197 9.64683 10.4397 9.6935 10.4597C9.74683 10.4797 9.80016 10.4863 9.86016 10.4863C9.9735 10.4863 10.0602 10.4463 10.1335 10.373L10.6402 9.87301C10.8068 9.70634 10.9668 9.57967 11.1202 9.49967C11.2735 9.40634 11.4268 9.35967 11.5935 9.35967C11.7202 9.35967 11.8535 9.38634 12.0002 9.44634C12.1468 9.50634 12.3002 9.59301 12.4668 9.70634L14.6735 11.273C14.8468 11.393 14.9668 11.533 15.0402 11.6997C15.1068 11.8663 15.1468 12.033 15.1468 12.2197Z" stroke="#7685FA" stroke-miterlimit="10"/>
</svg>
