<svg width="100%" height="100%" viewBox="0 0 10 8" fill="none" xmlns="http://www.w3.org/2000/svg">
<path d="M9.70711 1.70711C10.0976 1.31658 10.0976 0.683417 9.70711 0.292893C9.31658 -0.0976311 8.68342 -0.0976311 8.29289 0.292893L9.70711 1.70711ZM3.5 6.5L2.79289 7.20711C3.18342 7.59763 3.81658 7.59763 4.20711 7.20711L3.5 6.5ZM1.70711 3.29289C1.31658 2.90237 0.683417 2.90237 0.292893 3.29289C-0.0976311 3.68342 -0.0976311 4.31658 0.292893 4.70711L1.70711 3.29289ZM8.29289 0.292893L2.79289 5.79289L4.20711 7.20711L9.70711 1.70711L8.29289 0.292893ZM4.20711 5.79289L1.70711 3.29289L0.292893 4.70711L2.79289 7.20711L4.20711 5.79289Z"/>
</svg>
