<svg width="20" height="20" viewBox="0 0 20 20" fill="none" xmlns="http://www.w3.org/2000/svg">
<path d="M17.3739 5.70711C17.7645 5.31658 17.7645 4.68342 17.3739 4.29289C16.9834 3.90237 16.3502 3.90237 15.9597 4.29289L17.3739 5.70711ZM7.50016 14.1667L6.79306 14.8738C6.98059 15.0613 7.23495 15.1667 7.50016 15.1667C7.76538 15.1667 8.01973 15.0613 8.20727 14.8738L7.50016 14.1667ZM4.0406 9.29289C3.65008 8.90237 3.01691 8.90237 2.62639 9.29289C2.23586 9.68342 2.23586 10.3166 2.62639 10.7071L4.0406 9.29289ZM15.9597 4.29289L6.79306 13.4596L8.20727 14.8738L17.3739 5.70711L15.9597 4.29289ZM8.20727 13.4596L4.0406 9.29289L2.62639 10.7071L6.79306 14.8738L8.20727 13.4596Z"/>
</svg>
