<svg width="19" height="20" viewBox="0 0 19 20" fill="none" xmlns="http://www.w3.org/2000/svg">
<path d="M6.25766 4.65381H16.3971C17.5587 4.65381 18.5005 5.59552 18.5005 6.75717V16.8966C18.5005 18.0583 17.5587 19 16.3971 19H6.25766C5.09601 19 4.1543 18.0583 4.1543 16.8966V6.75717C4.1543 5.59552 5.09601 4.65381 6.25766 4.65381Z" stroke="#41415A"/>
<mask id="path-2-inside-1_467_27" fill="white">
<path d="M15.3233 4.15385L15.3462 3.05769C15.3442 2.37994 15.0741 1.7305 14.5949 1.25126C14.1157 0.772018 13.4662 0.501928 12.7885 0.5H2.92308C2.14853 0.502289 1.40637 0.810991 0.858678 1.35868C0.310991 1.90637 0.00228925 2.64853 0 3.42308V13.2885C0.00192817 13.9662 0.272018 14.6157 0.751261 15.0949C1.2305 15.5741 1.87994 15.8442 2.55769 15.8462H3.65385"/>
</mask>
<path d="M15.3462 3.05769L16.3459 3.07852L16.3462 3.06669L16.3462 3.05485L15.3462 3.05769ZM12.7885 0.5L12.7913 -0.5H12.7885V0.5ZM2.92308 0.5V-0.500004L2.92012 -0.499996L2.92308 0.5ZM0 3.42308L-1 3.42012V3.42308H0ZM0 13.2885H-1L-0.999996 13.2913L0 13.2885ZM2.55769 15.8462L2.55485 16.8462H2.55769V15.8462ZM16.3231 4.17468L16.3459 3.07852L14.3464 3.03686L14.3235 4.13302L16.3231 4.17468ZM16.3462 3.05485C16.3435 2.11287 15.9681 1.21024 15.302 0.544154L13.8878 1.95837C14.1802 2.25077 14.345 2.64702 14.3462 3.06054L16.3462 3.05485ZM15.302 0.544154C14.6359 -0.121928 13.7333 -0.497316 12.7913 -0.499996L12.7856 1.5C13.1991 1.50117 13.5954 1.66596 13.8878 1.95837L15.302 0.544154ZM12.7885 -0.5H2.92308V1.5H12.7885V-0.5ZM2.92012 -0.499996C1.88139 -0.496926 0.886072 -0.0829284 0.151572 0.651572L1.56579 2.06579C1.92666 1.70491 2.41568 1.5015 2.92603 1.5L2.92012 -0.499996ZM0.151572 0.651572C-0.582928 1.38607 -0.996926 2.38139 -0.999996 3.42012L0.999996 3.42603C1.0015 2.91568 1.20491 2.42666 1.56579 2.06579L0.151572 0.651572ZM-1 3.42308V13.2885H1V3.42308H-1ZM-0.999996 13.2913C-0.997316 14.2333 -0.621928 15.1359 0.0441539 15.802L1.45837 14.3878C1.16596 14.0954 1.00117 13.6991 0.999996 13.2856L-0.999996 13.2913ZM0.0441539 15.802C0.710236 16.4681 1.61287 16.8435 2.55485 16.8462L2.56054 14.8462C2.14702 14.845 1.75077 14.6802 1.45837 14.3878L0.0441539 15.802ZM2.55769 16.8462H3.65385V14.8462H2.55769V16.8462Z" fill="#41415A" mask="url(#path-2-inside-1_467_27)"/>
</svg>
