<svg width="24" height="24" viewBox="0 0 24 24" fill="none" xmlns="http://www.w3.org/2000/svg">
<path d="M19 12.5C19 13.0523 19.4477 13.5 20 13.5C20.5523 13.5 21 13.0523 21 12.5H19ZM12 23C12.5523 23 13 22.5523 13 22C13 21.4477 12.5523 21 12 21V23ZM4.32698 20.362L5.21799 19.908L5.21799 19.908L4.32698 20.362ZM5.63803 21.673L5.18404 22.564H5.18404L5.63803 21.673ZM18.362 2.32698L18.816 1.43597V1.43597L18.362 2.32698ZM19.673 3.63803L18.782 4.09202V4.09202L19.673 3.63803ZM5.63803 2.32698L6.09202 3.21799L5.63803 2.32698ZM4.32698 3.63803L5.21799 4.09202L4.32698 3.63803ZM14 12C14.5523 12 15 11.5523 15 11C15 10.4477 14.5523 10 14 10V12ZM8 10C7.44772 10 7 10.4477 7 11C7 11.5523 7.44772 12 8 12V10ZM10 16C10.5523 16 11 15.5523 11 15C11 14.4477 10.5523 14 10 14V16ZM8 14C7.44772 14 7 14.4477 7 15C7 15.5523 7.44772 16 8 16V14ZM16 8C16.5523 8 17 7.55228 17 7C17 6.44772 16.5523 6 16 6V8ZM8 6C7.44772 6 7 6.44772 7 7C7 7.55228 7.44772 8 8 8V6ZM15.2071 18.2929C14.8166 17.9024 14.1834 17.9024 13.7929 18.2929C13.4024 18.6834 13.4024 19.3166 13.7929 19.7071L15.2071 18.2929ZM16.5 21L15.7929 21.7071C16.1834 22.0976 16.8166 22.0976 17.2071 21.7071L16.5 21ZM21.7071 17.2071C22.0976 16.8166 22.0976 16.1834 21.7071 15.7929C21.3166 15.4024 20.6834 15.4024 20.2929 15.7929L21.7071 17.2071ZM8.8 3H15.2V1H8.8V3ZM5 17.2V6.8H3V17.2H5ZM19 6.8V12.5H21V6.8H19ZM12 21H8.8V23H12V21ZM3 17.2C3 18.0236 2.99922 18.7014 3.04419 19.2518C3.09012 19.8139 3.18868 20.3306 3.43597 20.816L5.21799 19.908C5.1383 19.7516 5.07337 19.5274 5.03755 19.089C5.00078 18.6389 5 18.0566 5 17.2H3ZM8.8 21C7.94342 21 7.36113 20.9992 6.91104 20.9624C6.47262 20.9266 6.24842 20.8617 6.09202 20.782L5.18404 22.564C5.66937 22.8113 6.18608 22.9099 6.74817 22.9558C7.2986 23.0008 7.97642 23 8.8 23V21ZM3.43597 20.816C3.81947 21.5686 4.43139 22.1805 5.18404 22.564L6.09202 20.782C5.71569 20.5903 5.40973 20.2843 5.21799 19.908L3.43597 20.816ZM15.2 3C16.0566 3 16.6389 3.00078 17.089 3.03755C17.5274 3.07337 17.7516 3.1383 17.908 3.21799L18.816 1.43597C18.3306 1.18868 17.8139 1.09012 17.2518 1.04419C16.7014 0.999222 16.0236 1 15.2 1V3ZM21 6.8C21 5.97642 21.0008 5.2986 20.9558 4.74817C20.9099 4.18608 20.8113 3.66937 20.564 3.18404L18.782 4.09202C18.8617 4.24842 18.9266 4.47262 18.9624 4.91104C18.9992 5.36113 19 5.94342 19 6.8H21ZM17.908 3.21799C18.2843 3.40973 18.5903 3.7157 18.782 4.09202L20.564 3.18404C20.1805 2.43139 19.5686 1.81947 18.816 1.43597L17.908 3.21799ZM8.8 1C7.97642 1 7.2986 0.999222 6.74817 1.04419C6.18608 1.09012 5.66937 1.18868 5.18404 1.43597L6.09202 3.21799C6.24842 3.1383 6.47262 3.07337 6.91104 3.03755C7.36113 3.00078 7.94342 3 8.8 3V1ZM5 6.8C5 5.94342 5.00078 5.36113 5.03755 4.91104C5.07337 4.47262 5.1383 4.24842 5.21799 4.09202L3.43597 3.18404C3.18868 3.66937 3.09012 4.18608 3.04419 4.74817C2.99922 5.2986 3 5.97642 3 6.8H5ZM5.18404 1.43597C4.43139 1.81947 3.81947 2.43139 3.43597 3.18404L5.21799 4.09202C5.40973 3.71569 5.71569 3.40973 6.09202 3.21799L5.18404 1.43597ZM14 10H8V12H14V10ZM10 14H8V16H10V14ZM16 6H8V8H16V6ZM13.7929 19.7071L15.7929 21.7071L17.2071 20.2929L15.2071 18.2929L13.7929 19.7071ZM17.2071 21.7071L21.7071 17.2071L20.2929 15.7929L15.7929 20.2929L17.2071 21.7071Z" fill="#5466F9"/>
</svg>
