<svg width="18" height="18" viewBox="0 0 18 18" fill="none" xmlns="http://www.w3.org/2000/svg">
<path d="M9.00005 5.91797L8.19755 7.31297C8.01755 7.62047 8.16755 7.87547 8.52005 7.87547H9.47255C9.83255 7.87547 9.97505 8.13047 9.79505 8.43797L9.00005 9.83297" stroke="#5466F9" stroke-linecap="round" stroke-linejoin="round"/>
<path d="M6.22453 13.5292V12.6592C4.49953 11.6167 3.08203 9.58415 3.08203 7.42415C3.08203 3.71165 6.49453 0.801655 10.3495 1.64166C12.0445 2.01666 13.5295 3.14166 14.302 4.69416C15.8695 7.84416 14.2195 11.1892 11.797 12.6517V13.5217C11.797 13.7392 11.8795 14.2417 11.077 14.2417H6.94453C6.11953 14.2492 6.22453 13.9267 6.22453 13.5292Z" stroke="#5466F9" stroke-linecap="round" stroke-linejoin="round"/>
<path d="M6.375 16.5004C8.0925 16.0129 9.9075 16.0129 11.625 16.5004" stroke="#5466F9" stroke-linecap="round" stroke-linejoin="round"/>
</svg>
