<svg width="20" height="16" viewBox="0 0 20 16" fill="none" xmlns="http://www.w3.org/2000/svg">
<path d="M1.66602 3.8335L8.47012 8.59636C9.02109 8.98205 9.29658 9.17489 9.59624 9.24959C9.86093 9.31557 10.1378 9.31557 10.4025 9.24959C10.7021 9.17489 10.9776 8.98205 11.5286 8.59637L18.3327 3.8335M5.66602 14.6668H14.3327C15.7328 14.6668 16.4329 14.6668 16.9677 14.3943C17.4381 14.1547 17.8205 13.7722 18.0602 13.3018C18.3327 12.767 18.3327 12.067 18.3327 10.6668V5.3335C18.3327 3.93336 18.3327 3.2333 18.0602 2.69852C17.8205 2.22811 17.4381 1.84566 16.9677 1.60598C16.4329 1.3335 15.7328 1.3335 14.3327 1.3335H5.66602C4.26588 1.3335 3.56582 1.3335 3.03104 1.60598C2.56063 1.84566 2.17818 2.22811 1.9385 2.69852C1.66602 3.2333 1.66602 3.93336 1.66602 5.3335V10.6668C1.66602 12.067 1.66602 12.767 1.9385 13.3018C2.17818 13.7722 2.56063 14.1547 3.03104 14.3943C3.56582 14.6668 4.26588 14.6668 5.66602 14.6668Z" stroke="#71748C" stroke-width="1.4" stroke-linecap="round" stroke-linejoin="round"/>
</svg>
