<svg width="55" height="52" viewBox="0 0 55 52" fill="none" xmlns="http://www.w3.org/2000/svg">
<rect x="5.08047" y="0.6" width="44.7" height="50.8" rx="2.4" fill="#FAFAFA" stroke="#DBDBDB" stroke-width="0.8" stroke-linecap="round" stroke-linejoin="round"/>
<rect x="0.75" y="3.12012" width="46.3" height="12" rx="1.24875" fill="#FDFDFD"/>
<circle cx="6.74139" cy="9.12029" r="3.49529" fill="white" stroke="#DBDBDB" stroke-width="0.5"/>
<rect x="11.7383" y="6.87305" width="22.4711" height="1.79711" rx="0.898557" fill="white" stroke="#DBDBDB" stroke-width="0.5"/>
<rect x="11.7383" y="10.1689" width="32.7582" height="1.19787" rx="0.598933" fill="white" stroke="#DBDBDB" stroke-width="0.5"/>
<rect x="0.75" y="3.12012" width="46.3" height="12" rx="1.24875" stroke="#DBDBDB" stroke-width="0.5"/>
<rect x="0.75" y="36.1201" width="46.3" height="12" rx="1.24875" fill="#FDFDFD"/>
<circle cx="6.74139" cy="42.1203" r="3.49529" fill="white" stroke="#DBDBDB" stroke-width="0.5"/>
<rect x="11.7383" y="39.873" width="22.4711" height="1.79711" rx="0.898557" fill="white" stroke="#DBDBDB" stroke-width="0.5"/>
<rect x="11.7383" y="43.1689" width="32.7582" height="1.19787" rx="0.598933" fill="white" stroke="#DBDBDB" stroke-width="0.5"/>
<rect x="0.75" y="36.1201" width="46.3" height="12" rx="1.24875" stroke="#DBDBDB" stroke-width="0.5"/>
<rect x="7.75" y="20.1201" width="46.3" height="12" rx="1.24875" fill="#FDFDFD"/>
<circle cx="13.7414" cy="26.1203" r="3.49529" fill="white" stroke="#DBDBDB" stroke-width="0.5"/>
<rect x="18.7383" y="23.873" width="22.4711" height="1.79711" rx="0.898557" fill="white" stroke="#DBDBDB" stroke-width="0.5"/>
<rect x="18.7383" y="27.1689" width="32.7582" height="1.19787" rx="0.598933" fill="white" stroke="#DBDBDB" stroke-width="0.5"/>
<rect x="7.75" y="20.1201" width="46.3" height="12" rx="1.24875" stroke="#DBDBDB" stroke-width="0.5"/>
</svg>
