<svg width="50" height="50" viewBox="0 0 50 50" fill="none" xmlns="http://www.w3.org/2000/svg">
<circle cx="25" cy="25" r="25" fill="#FAFAFA"/>
<mask id="mask0_8505_62345" style="mask-type:alpha" maskUnits="userSpaceOnUse" x="0" y="0" width="50" height="50">
<circle cx="25" cy="25" r="25" fill="#FDFDFD"/>
</mask>
<g mask="url(#mask0_8505_62345)">
<path d="M48.6 25C48.6 38.5939 37.8025 49.6 24.5 49.6C11.1975 49.6 0.4 38.5939 0.4 25C0.4 11.4061 11.1975 0.4 24.5 0.4C37.8025 0.4 48.6 11.4061 48.6 25Z" fill="#FAFAFA" stroke="#DBDBDB" stroke-width="0.8"/>
<mask id="path-4-inside-1_8505_62345" fill="white">
<path d="M7 16.4672C7 14.2492 8.79805 12.4512 11.0161 12.4512H39.4297C41.6477 12.4512 43.4458 14.2492 43.4458 16.4672V53.2142C43.4458 55.4322 41.6477 57.2303 39.4297 57.2303H11.0161C8.79805 57.2303 7 55.4322 7 53.2142V16.4672Z"/>
</mask>
<path d="M7 16.4672C7 14.2492 8.79805 12.4512 11.0161 12.4512H39.4297C41.6477 12.4512 43.4458 14.2492 43.4458 16.4672V53.2142C43.4458 55.4322 41.6477 57.2303 39.4297 57.2303H11.0161C8.79805 57.2303 7 55.4322 7 53.2142V16.4672Z" fill="#FDFDFD"/>
<path d="M11.0161 12.9512H39.4297V11.9512H11.0161V12.9512ZM42.9458 16.4672V53.2142H43.9458V16.4672H42.9458ZM39.4297 56.7303H11.0161V57.7303H39.4297V56.7303ZM7.5 53.2142V16.4672H6.5V53.2142H7.5ZM11.0161 56.7303C9.07419 56.7303 7.5 55.1561 7.5 53.2142H6.5C6.5 55.7084 8.52191 57.7303 11.0161 57.7303V56.7303ZM42.9458 53.2142C42.9458 55.1561 41.3716 56.7303 39.4297 56.7303V57.7303C41.9239 57.7303 43.9458 55.7084 43.9458 53.2142H42.9458ZM39.4297 12.9512C41.3716 12.9512 42.9458 14.5254 42.9458 16.4672H43.9458C43.9458 13.9731 41.9239 11.9512 39.4297 11.9512V12.9512ZM11.0161 11.9512C8.52191 11.9512 6.5 13.9731 6.5 16.4672H7.5C7.5 14.5254 9.07419 12.9512 11.0161 12.9512V11.9512Z" fill="#DBDBDB" mask="url(#path-4-inside-1_8505_62345)"/>
<circle cx="24.898" cy="28.1138" r="10.0894" fill="#FDFDFD" stroke="#DBDBDB" stroke-width="0.5"/>
<path fill-rule="evenodd" clip-rule="evenodd" d="M20.9288 24.0458C21.158 23.8166 21.5295 23.8166 21.7587 24.0458L29.0749 31.362C29.3041 31.5912 29.3041 31.9627 29.0749 32.1919C28.8458 32.421 28.4742 32.421 28.2451 32.1919L20.9288 24.8756C20.6997 24.6465 20.6997 24.2749 20.9288 24.0458Z" fill="#DBDBDB"/>
<path fill-rule="evenodd" clip-rule="evenodd" d="M29.0399 24.0458C28.8108 23.8166 28.4392 23.8166 28.2101 24.0458L20.8938 31.362C20.6647 31.5912 20.6647 31.9627 20.8938 32.1919C21.123 32.421 21.4945 32.421 21.7237 32.1919L29.0399 24.8756C29.2691 24.6465 29.2691 24.2749 29.0399 24.0458Z" fill="#DBDBDB"/>
<rect x="15.8633" y="40.7168" width="17.2711" height="1.5" rx="0.75" stroke="#DBDBDB" stroke-width="0.5"/>
<rect x="13.25" y="45.4355" width="22.5924" height="1.20683" rx="0.603414" stroke="#DBDBDB" stroke-width="0.5"/>
</g>
</svg>
