<svg width="24" height="24" viewBox="0 0 24 24" fill="none" xmlns="http://www.w3.org/2000/svg">
<g clip-path="url(#clip0_10074_131111)">
<path d="M24 12.0742C24 5.44722 18.627 0.0742188 12 0.0742188C5.373 0.0742188 0 5.44722 0 12.0742C0 18.0642 4.388 23.0282 10.125 23.9282V15.5432H7.078V12.0732H10.125V9.43122C10.125 6.42422 11.917 4.76222 14.658 4.76222C15.97 4.76222 17.344 4.99722 17.344 4.99722V7.95022H15.83C14.339 7.95022 13.874 8.87522 13.874 9.82422V12.0742H17.202L16.67 15.5442H13.874V23.9292C19.612 23.0282 24 18.0632 24 12.0742Z"/>
</g>
<defs>
<clipPath id="clip0_10074_131111">
<rect width="24" height="24" fill="white"/>
</clipPath>
</defs>
</svg>
