	<svg
			width="16"
			height="16"
			viewBox="0 0 16 16"
			fill="none"
			xmlns="http://www.w3.org/2000/svg"
		>
			<path
				d="M11.334 12.2858H8.66732L5.70064 14.2592C5.26064 14.5525 4.66732 14.2392 4.66732 13.7059V12.2858C2.66732 12.2858 1.33398 10.9525 1.33398 8.95251V4.95247C1.33398 2.95247 2.66732 1.61914 4.66732 1.61914H11.334C13.334 1.61914 14.6673 2.95247 14.6673 4.95247V8.95251C14.6673 10.9525 13.334 12.2858 11.334 12.2858Z"
				strokeMiterlimit="10"
				strokeLinecap="round"
				strokeLinejoin="round"
			/>
			<path
				d="M7.99923 7.57227V7.43229C7.99923 6.97896 8.27924 6.73895 8.55924 6.54561C8.83258 6.35895 9.10588 6.11896 9.10588 5.67896C9.10588 5.06562 8.61256 4.57227 7.99923 4.57227C7.38589 4.57227 6.89258 5.06562 6.89258 5.67896"
				strokeLinecap="round"
				strokeLinejoin="round"
			/>
			<path d="M7.99635 9.16732H8.00235" strokeLinecap="round" strokeLinejoin="round" />
		</svg>
