<svg width="100%" height="100%" viewBox="0 0 53 50" fill="none" xmlns="http://www.w3.org/2000/svg">
<ellipse cx="26.105" cy="38.8257" rx="26.105" ry="4.82764" fill="#F5F5F5"/>
<g clip-path="url(#clip0_7136_27720)">
<path d="M44.6164 22.3281V38.2563C44.6164 38.7285 44.4288 39.1814 44.0949 39.5153C43.761 39.8492 43.3081 40.0368 42.8359 40.0368H9.30297C8.83075 40.0368 8.37787 39.8492 8.04396 39.5153C7.71005 39.1814 7.52246 38.7285 7.52246 38.2563V22.3281H17.1906C17.6628 22.3281 18.1157 22.5157 18.4496 22.8496C18.7835 23.1835 18.9711 23.6364 18.9711 24.1086V24.3891C18.9711 24.8613 19.1587 25.3142 19.4926 25.6481C19.8265 25.982 20.2794 26.1696 20.7516 26.1696H31.3872C31.8594 26.1696 32.3123 25.982 32.6462 25.6481C32.9801 25.3142 33.1677 24.8613 33.1677 24.3891V24.1086C33.1677 23.6364 33.3553 23.1835 33.6892 22.8496C34.0231 22.5157 34.476 22.3281 34.9482 22.3281H44.6164Z" fill="#FAFAFA" stroke="#DBDBDB" stroke-width="0.890254" stroke-linecap="round" stroke-linejoin="round"/>
<path d="M44.6164 22.3281H34.9482C34.476 22.3281 34.0231 22.5157 33.6892 22.8496C33.3553 23.1835 33.1677 23.6364 33.1677 24.1086V24.389C33.1677 24.8612 32.9801 25.3141 32.6462 25.648C32.3123 25.9819 31.8594 26.1695 31.3872 26.1695H20.7516C20.2794 26.1695 19.8265 25.9819 19.4926 25.648C19.1587 25.3141 18.9711 24.8612 18.9711 24.389V24.1086C18.9711 23.6364 18.7835 23.1835 18.4496 22.8496C18.1157 22.5157 17.6628 22.3281 17.1906 22.3281H7.52246L13.7424 11.6836H38.3994L44.6164 22.3281Z" stroke="#DBDBDB" stroke-width="0.890254" stroke-linecap="round" stroke-linejoin="round"/>
</g>
<path d="M21.793 16.9475H24.1965V8.89453H28.1663V16.9475H30.5698L26.1807 20.3512L21.793 16.9475Z" fill="#FAFAFA"/>
<path d="M27.8963 9.16664V17.2196H29.7835L26.1816 20.0127L22.5797 17.2169H24.4602V9.16664H27.8909H27.8963ZM28.4301 8.62744H23.921V16.6804H21.0039L22.2495 17.6456L25.85 20.4387L26.1802 20.6948L26.5105 20.4387L30.1124 17.6456L31.3566 16.6804H28.4355V8.62744H28.4301Z" fill="#DBDBDB"/>
<path d="M26.1803 10.6087C29.0354 10.6087 31.3499 8.29422 31.3499 5.43913C31.3499 2.58404 29.0354 0.269531 26.1803 0.269531C23.3252 0.269531 21.0107 2.58404 21.0107 5.43913C21.0107 8.29422 23.3252 10.6087 26.1803 10.6087Z" fill="#FAFAFA"/>
<path d="M26.1804 0.539202C27.1495 0.539202 28.0969 0.826581 28.9027 1.365C29.7085 1.90342 30.3365 2.66869 30.7074 3.56405C31.0783 4.45941 31.1753 5.44463 30.9863 6.39514C30.7972 7.34564 30.3305 8.21874 29.6452 8.90402C28.96 9.58929 28.0869 10.056 27.1364 10.245C26.1858 10.4341 25.2006 10.3371 24.3053 9.9662C23.4099 9.59533 22.6446 8.96729 22.1062 8.16149C21.5678 7.35569 21.2804 6.40832 21.2804 5.4392C21.2804 4.13964 21.7967 2.8933 22.7156 1.97438C23.6345 1.05545 24.8809 0.539202 26.1804 0.539202ZM26.1804 0C25.1046 0 24.053 0.319003 23.1586 0.91667C22.2641 1.51434 21.5669 2.36382 21.1552 3.35771C20.7436 4.35159 20.6359 5.44523 20.8457 6.50033C21.0556 7.55543 21.5736 8.5246 22.3343 9.28529C23.095 10.046 24.0642 10.564 25.1193 10.7739C26.1744 10.9838 27.268 10.876 28.2619 10.4644C29.2558 10.0527 30.1053 9.35552 30.7029 8.46105C31.3006 7.56658 31.6196 6.51497 31.6196 5.4392C31.6182 3.99707 31.0447 2.61442 30.0249 1.59468C29.0052 0.574942 27.6225 0.0014275 26.1804 0V0Z" fill="#DBDBDB"/>
<path d="M26.1802 9.35362C28.3422 9.35362 30.0948 7.60099 30.0948 5.43902C30.0948 3.27704 28.3422 1.52441 26.1802 1.52441C24.0183 1.52441 22.2656 3.27704 22.2656 5.43902C22.2656 7.60099 24.0183 9.35362 26.1802 9.35362Z" fill="#FAFAFA"/>
<path d="M28.7642 5.18186V4.72893H27.9904V3.11133H27.3757V4.72893H26.0614L25.0006 3.11537H24.3805V4.73298H23.5986V5.18591H24.3737V5.7669H23.5986V6.21443H24.3737V7.76464H24.9871V6.21443H26.3351L27.3596 7.76464H27.9877V6.21443H28.7615V5.76285H27.9877V5.18186H28.7642ZM27.3757 5.18186V5.76285H26.7314L26.3486 5.18186H27.3757ZM24.9871 4.15873L25.3605 4.72893H24.9871V4.15873ZM24.9871 5.18186H25.6543L26.0358 5.76285H24.9871V5.18186ZM27.0226 6.21443H27.3703V6.74689L27.0226 6.21443Z" fill="#DBDBDB"/>
<defs>
<clipPath id="clip0_7136_27720">
<rect width="37.8358" height="38.6875" fill="white" transform="translate(7.15137 11.3125)"/>
</clipPath>
</defs>
</svg>
