<svg width="20" height="20" viewBox="0 0 24 24" fill="none" xmlns="http://www.w3.org/2000/svg">
<circle cx="12" cy="12" r="12" fill="#F07C11"/>
<path d="M11.3246 12.7845C11.3718 13.2762 11.4519 13.6416 11.562 13.8827C11.6735 14.123 11.8715 14.2429 12.1572 14.2429C12.2107 14.2429 12.2585 14.2345 12.3059 14.2248C12.3544 14.2345 12.402 14.2429 12.4558 14.2429C12.7408 14.2429 12.9393 14.123 13.0503 13.8827C13.161 13.6416 13.2397 13.2762 13.2879 12.7845L13.5416 8.98819C13.5888 8.24823 13.6129 7.7173 13.6129 7.39502C13.6129 6.95637 13.4984 6.61407 13.2688 6.36833C13.0384 6.12258 12.7358 6 12.3608 6C12.3408 6 12.3259 6.00447 12.3062 6.00525C12.2876 6.00447 12.2722 6 12.2528 6C11.8771 6 11.575 6.12258 11.345 6.36833C11.1152 6.61446 11 6.95695 11 7.39521C11 7.7175 11.0235 8.24843 11.0715 8.98838L11.3246 12.7845Z" fill="white"/>
<path d="M12.3154 15.6289C11.9513 15.6289 11.642 15.7437 11.3852 15.9733C11.1286 16.2032 11 16.4821 11 16.8096C11 17.1793 11.1302 17.4703 11.3885 17.6817C11.6481 17.8931 11.9507 17.9987 12.2967 17.9987C12.6489 17.9987 12.9561 17.8946 13.2187 17.6858C13.481 17.4775 13.6121 17.185 13.6121 16.81C13.6121 16.4825 13.4866 16.2035 13.2356 15.9737C12.9846 15.7437 12.6779 15.6289 12.3148 15.6289" fill="white"/>
</svg>
