<svg width="40" height="40" viewBox="0 0 40 40" fill="none" xmlns="http://www.w3.org/2000/svg">
<circle cx="20" cy="20" r="20" />
<path d="M25.936 29.9999H14.8333C14.3739 29.9999 14 29.6262 14 29.1666V12.974C14 12.5144 14.3739 12.1406 14.8333 12.1406H19.1078C19.3381 12.1406 19.5245 12.3272 19.5245 12.5573V14.2986H21.2449V12.5573C21.2449 12.3272 21.4312 12.1406 21.6615 12.1406H25.936C26.3954 12.1406 26.7694 12.5144 26.7694 12.974V29.1666C26.7694 29.6262 26.3954 29.9999 25.936 29.9999ZM14.8333 12.974V29.1666H25.936V12.9733L22.0782 12.974V14.7153C22.0782 14.9454 21.8918 15.132 21.6615 15.132H19.1078C18.8775 15.132 18.6912 14.9454 18.6912 14.7153V12.974H14.8333Z" fill="#5466F9"/>
<path d="M21.6618 15.132H19.1081C18.8778 15.132 18.6914 14.9455 18.6914 14.7154V10.8333C18.6914 10.3737 19.0653 10 19.5247 10H21.2451C21.7045 10 22.0785 10.3737 22.0785 10.8333V14.7154C22.0785 14.9455 21.8921 15.132 21.6618 15.132ZM19.5247 14.2987H21.2451V10.8327L19.5247 10.8333V14.2987Z" fill="#5466F9"/>
<path d="M22.7258 15.1341H18.0436C17.8133 15.1341 17.627 14.9476 17.627 14.7174C17.627 14.4873 17.8133 14.3008 18.0436 14.3008H22.7258C22.9561 14.3008 23.1425 14.4873 23.1425 14.7174C23.1425 14.9476 22.9561 15.1341 22.7258 15.1341Z" fill="#5466F9"/>
<path d="M20.3844 19.7161C19.4653 19.7161 18.7178 18.9685 18.7178 18.0495C18.7178 17.1305 19.4653 16.3828 20.3844 16.3828C21.3036 16.3828 22.0511 17.1305 22.0511 18.0495C22.0511 18.9685 21.3036 19.7161 20.3844 19.7161ZM20.3844 17.2161C19.925 17.2161 19.5511 17.5899 19.5511 18.0495C19.5511 18.5091 19.925 18.8828 20.3844 18.8828C20.8438 18.8828 21.2178 18.5091 21.2178 18.0495C21.2178 17.5899 20.8438 17.2161 20.3844 17.2161Z" fill="#5466F9"/>
<path d="M22.4967 22.9827H18.2715C17.8031 22.9827 17.3706 22.7473 17.1142 22.353C16.8632 21.9666 16.8237 21.4865 17.0093 21.069C17.6009 19.7362 18.9258 18.875 20.3841 18.875C21.8424 18.875 23.1673 19.7362 23.7589 21.0692C23.9445 21.4865 23.905 21.9666 23.654 22.353C23.3976 22.7473 22.9651 22.9827 22.4967 22.9827ZM20.3841 19.7083C19.255 19.7083 18.2292 20.3752 17.771 21.4073C17.6994 21.5685 17.7148 21.7477 17.8129 21.8989C17.915 22.0557 18.0863 22.1493 18.2715 22.1493H22.4967C22.6819 22.1493 22.8532 22.0557 22.9553 21.8989C23.0534 21.7477 23.0688 21.5685 22.9972 21.4076C22.539 20.3752 21.5133 19.7083 20.3841 19.7083Z" fill="#5466F9"/>
<path d="M22.8854 25.2708H17.8854C17.6551 25.2708 17.4688 25.0843 17.4688 24.8542C17.4688 24.6241 17.6551 24.4375 17.8854 24.4375H22.8854C23.1157 24.4375 23.3021 24.6241 23.3021 24.8542C23.3021 25.0843 23.1157 25.2708 22.8854 25.2708Z" fill="#5466F9"/>
<path d="M22.8854 27.5677H17.8854C17.6551 27.5677 17.4688 27.3811 17.4688 27.151C17.4688 26.9209 17.6551 26.7344 17.8854 26.7344H22.8854C23.1157 26.7344 23.3021 26.9209 23.3021 27.151C23.3021 27.3811 23.1157 27.5677 22.8854 27.5677Z" fill="#5466F9"/>
</svg>
