<svg width="16" height="17" viewBox="0 0 16 17" fill="none" xmlns="http://www.w3.org/2000/svg">
<path d="M14.6641 4.4987V6.11203C14.6641 7.16536 13.9974 7.83203 12.9441 7.83203H10.6641V3.17203C10.6641 2.43203 11.2707 1.83203 12.0107 1.83203C12.7374 1.8387 13.4041 2.13203 13.8841 2.61203C14.3641 3.0987 14.6641 3.76536 14.6641 4.4987Z" stroke-width="1.5" stroke-miterlimit="10" stroke-linecap="round" stroke-linejoin="round"/>
<path d="M1.33594 5.16536V14.4987C1.33594 15.052 1.9626 15.3654 2.4026 15.032L3.5426 14.1787C3.80927 13.9787 4.1826 14.0054 4.4226 14.2454L5.52927 15.3587C5.78927 15.6187 6.21594 15.6187 6.47594 15.3587L7.59594 14.2387C7.82927 14.0054 8.2026 13.9787 8.4626 14.1787L9.6026 15.032C10.0426 15.3587 10.6693 15.0454 10.6693 14.4987V3.16536C10.6693 2.43203 11.2693 1.83203 12.0026 1.83203H4.66927H4.0026C2.0026 1.83203 1.33594 3.02536 1.33594 4.4987V5.16536Z" stroke-width="1.5" stroke-miterlimit="10" stroke-linecap="round" stroke-linejoin="round"/>
<path d="M6 9.17578H8" stroke-width="1.5" stroke-linecap="round" stroke-linejoin="round"/>
<path d="M6 6.50781H8" stroke-width="1.5" stroke-linecap="round" stroke-linejoin="round"/>
<path d="M3.99219 9.16797H3.99818" stroke="#41415A" stroke-width="1.33333" stroke-linecap="round" stroke-linejoin="round"/>
<path d="M3.99219 6.5H3.99818" stroke="#41415A" stroke-width="1.33333" stroke-linecap="round" stroke-linejoin="round"/>
</svg>
