<svg width="390" height="375" viewBox="0 0 390 375" fill="none" xmlns="http://www.w3.org/2000/svg">
<g filter="url(#filter0_ddd_5055_21812)">
<g clip-path="url(#clip0_5055_21812)">
<rect x="27" y="147" width="337" height="768.328" rx="16" fill="#F5F6FF"/>
<g filter="url(#filter1_dd_5055_21812)">
<rect width="337" height="768.328" transform="translate(27 147)" fill="white"/>
<path d="M54.486 173.376H55.8567L58.6908 180.734H57.3098L56.6193 178.787H53.6822L52.9917 180.734H51.6622L54.486 173.376ZM54.0326 177.808H56.2792L55.1765 174.644H55.1456L54.0326 177.808ZM59.2266 175.406H60.3396V176.148H60.3706C60.4599 176.018 60.5561 175.898 60.6591 175.788C60.7622 175.678 60.8755 175.585 60.9992 175.509C61.1298 175.434 61.2775 175.375 61.4424 175.334C61.6073 175.286 61.7962 175.262 62.0092 175.262C62.3321 175.262 62.631 175.334 62.9058 175.478C63.1875 175.623 63.3867 175.846 63.5035 176.148C63.7028 175.873 63.9329 175.657 64.194 175.499C64.4551 175.341 64.7815 175.262 65.1731 175.262C65.7365 175.262 66.1727 175.399 66.4819 175.674C66.798 175.949 66.956 176.409 66.956 177.055V180.734H65.7811V177.622C65.7811 177.409 65.7742 177.217 65.7605 177.045C65.7468 176.866 65.7055 176.715 65.6368 176.591C65.575 176.461 65.4788 176.361 65.3483 176.293C65.2177 176.224 65.0391 176.19 64.8124 176.19C64.4139 176.19 64.1253 176.313 63.9467 176.561C63.768 176.808 63.6787 177.158 63.6787 177.612V180.734H62.5039V177.313C62.5039 176.942 62.4352 176.664 62.2977 176.478C62.1672 176.286 61.9233 176.19 61.566 176.19C61.4149 176.19 61.2672 176.22 61.1229 176.282C60.9855 176.344 60.8618 176.433 60.7519 176.55C60.6488 176.667 60.5629 176.811 60.4942 176.983C60.4324 177.155 60.4015 177.351 60.4015 177.57V180.734H59.2266V175.406ZM70.6364 180.879C70.2104 180.879 69.8291 180.81 69.4924 180.673C69.1626 180.528 68.8809 180.332 68.6473 180.085C68.4206 179.838 68.2454 179.542 68.1217 179.199C68.0049 178.855 67.9465 178.477 67.9465 178.065C67.9465 177.66 68.0049 177.285 68.1217 176.942C68.2454 176.598 68.4206 176.303 68.6473 176.056C68.8809 175.808 69.1626 175.616 69.4924 175.478C69.8291 175.334 70.2104 175.262 70.6364 175.262C71.0623 175.262 71.4402 175.334 71.77 175.478C72.1067 175.616 72.3883 175.808 72.6151 176.056C72.8487 176.303 73.0239 176.598 73.1407 176.942C73.2643 177.285 73.3262 177.66 73.3262 178.065C73.3262 178.477 73.2643 178.855 73.1407 179.199C73.0239 179.542 72.8487 179.838 72.6151 180.085C72.3883 180.332 72.1067 180.528 71.77 180.673C71.4402 180.81 71.0623 180.879 70.6364 180.879ZM70.6364 179.951C70.8974 179.951 71.1242 179.896 71.3165 179.786C71.5089 179.676 71.6669 179.532 71.7906 179.353C71.9143 179.175 72.0036 178.976 72.0586 178.756C72.1204 178.529 72.1513 178.299 72.1513 178.065C72.1513 177.838 72.1204 177.612 72.0586 177.385C72.0036 177.158 71.9143 176.959 71.7906 176.787C71.6669 176.609 71.5089 176.464 71.3165 176.354C71.1242 176.244 70.8974 176.19 70.6364 176.19C70.3753 176.19 70.1485 176.244 69.9562 176.354C69.7638 176.464 69.6058 176.609 69.4821 176.787C69.3584 176.959 69.2657 177.158 69.2039 177.385C69.1489 177.612 69.1214 177.838 69.1214 178.065C69.1214 178.299 69.1489 178.529 69.2039 178.756C69.2657 178.976 69.3584 179.175 69.4821 179.353C69.6058 179.532 69.7638 179.676 69.9562 179.786C70.1485 179.896 70.3753 179.951 70.6364 179.951ZM78.9817 180.734H77.8275V179.992H77.8069C77.6626 180.26 77.4462 180.477 77.1576 180.642C76.8759 180.8 76.5873 180.879 76.2919 180.879C75.5911 180.879 75.0827 180.707 74.7667 180.363C74.4575 180.013 74.3029 179.487 74.3029 178.787V175.406H75.4778V178.673C75.4778 179.14 75.5671 179.47 75.7457 179.663C75.9243 179.855 76.1751 179.951 76.498 179.951C76.7454 179.951 76.9515 179.913 77.1164 179.838C77.2813 179.762 77.4152 179.663 77.5183 179.539C77.6214 179.408 77.6935 179.254 77.7347 179.075C77.7828 178.897 77.8069 178.704 77.8069 178.498V175.406H78.9817V180.734ZM80.2207 175.406H81.3337V176.19L81.3543 176.21C81.533 175.915 81.7666 175.685 82.0551 175.52C82.3437 175.348 82.6632 175.262 83.0136 175.262C83.5976 175.262 84.0579 175.413 84.3945 175.715C84.7312 176.018 84.8995 176.471 84.8995 177.076V180.734H83.7247V177.385C83.7109 176.966 83.6216 176.664 83.4567 176.478C83.2918 176.286 83.0342 176.19 82.6838 176.19C82.4845 176.19 82.3059 176.227 82.1479 176.303C81.9898 176.372 81.8559 176.471 81.7459 176.602C81.636 176.725 81.5501 176.873 81.4883 177.045C81.4265 177.217 81.3955 177.399 81.3955 177.591V180.734H80.2207V175.406ZM85.6026 175.406H86.4889V173.809H87.6637V175.406H88.7252V176.282H87.6637V179.127C87.6637 179.25 87.6672 179.357 87.674 179.446C87.6878 179.535 87.7118 179.611 87.7462 179.673C87.7874 179.735 87.8458 179.783 87.9214 179.817C87.997 179.845 88.1 179.858 88.2306 179.858C88.313 179.858 88.3954 179.858 88.4779 179.858C88.5603 179.852 88.6428 179.838 88.7252 179.817V180.724C88.5947 180.738 88.4676 180.752 88.3439 180.765C88.2202 180.779 88.0931 180.786 87.9626 180.786C87.6534 180.786 87.4027 180.758 87.2103 180.703C87.0248 180.642 86.8771 180.556 86.7671 180.446C86.6641 180.329 86.5919 180.185 86.5507 180.013C86.5164 179.841 86.4957 179.645 86.4889 179.426V176.282H85.6026V175.406Z" fill="#71748C"/>
<path d="M52.3115 201.157V199.096H54.1253V197.735H52.3115V195.674H54.1253V191.078H57.3613L59.979 195.674H63.2769V191.078H66.1625V195.674H67.8114V197.735H66.1625V199.096H67.8114V201.157H66.1625V205.918H63.0708L60.3294 201.157H57.0109V205.918H54.1253V201.157H52.3115ZM57.0109 199.096H59.1339L58.3507 197.735H57.0109V199.096ZM61.9371 199.096H63.2769V197.735H61.1745L61.9371 199.096ZM57.0109 195.674H57.1758L57.0109 195.385V195.674ZM63.2769 201.445V201.157H63.112L63.2769 201.445ZM76.4806 205.918V191.49H74.1514C74.069 192.039 73.8972 192.5 73.6362 192.871C73.3751 193.242 73.0522 193.544 72.6674 193.778C72.2964 193.998 71.8704 194.156 71.3895 194.252C70.9223 194.334 70.4345 194.369 69.9261 194.355V196.56H73.5537V205.918H76.4806ZM81.1112 202.744V205.918H82.5953C82.609 206.138 82.5815 206.351 82.5128 206.557C82.4441 206.777 82.3411 206.969 82.2037 207.134C82.0663 207.313 81.9014 207.464 81.709 207.588C81.5304 207.711 81.338 207.794 81.1319 207.835V209.319C81.5716 209.25 81.9838 209.12 82.3686 208.927C82.767 208.749 83.1106 208.515 83.3991 208.226C83.6877 207.938 83.9144 207.594 84.0793 207.196C84.258 206.811 84.3473 206.385 84.3473 205.918V202.744H81.1112ZM86.3532 197.034H89.1564C89.1564 196.65 89.1907 196.265 89.2594 195.88C89.3419 195.482 89.4724 195.124 89.6511 194.808C89.8297 194.479 90.0633 194.217 90.3519 194.025C90.6542 193.819 91.0183 193.716 91.4443 193.716C92.0764 193.716 92.5917 193.915 92.9901 194.314C93.4024 194.698 93.6085 195.241 93.6085 195.942C93.6085 196.382 93.5054 196.773 93.2993 197.117C93.1069 197.46 92.8596 197.77 92.5573 198.044C92.2687 198.319 91.9458 198.573 91.5886 198.807C91.2313 199.027 90.8946 199.247 90.5786 199.467C89.9602 199.893 89.3694 200.312 88.806 200.724C88.2563 201.136 87.7754 201.59 87.3632 202.084C86.9509 202.565 86.6212 203.115 86.3738 203.733C86.1402 204.351 86.0234 205.08 86.0234 205.918H96.6178V203.403H89.7953C90.1526 202.909 90.5648 202.476 91.032 202.105C91.4992 201.734 91.9802 201.39 92.4749 201.074C92.9695 200.744 93.4573 200.415 93.9383 200.085C94.433 199.755 94.8727 199.391 95.2574 198.992C95.6422 198.58 95.9513 198.113 96.1849 197.591C96.4185 197.069 96.5353 196.443 96.5353 195.715C96.5353 195.014 96.3979 194.382 96.1231 193.819C95.862 193.256 95.5048 192.781 95.0513 192.397C94.5979 192.012 94.0688 191.717 93.4642 191.51C92.8733 191.304 92.2481 191.201 91.5886 191.201C90.7229 191.201 89.9534 191.352 89.2801 191.655C88.6205 191.943 88.0708 192.356 87.6311 192.891C87.1914 193.414 86.8616 194.032 86.6418 194.746C86.4219 195.447 86.3257 196.21 86.3532 197.034ZM100.403 198.642C100.403 198.395 100.403 198.099 100.403 197.756C100.417 197.398 100.445 197.034 100.486 196.663C100.527 196.292 100.596 195.928 100.692 195.571C100.788 195.2 100.919 194.87 101.084 194.582C101.262 194.293 101.482 194.059 101.743 193.881C102.018 193.702 102.355 193.613 102.753 193.613C103.152 193.613 103.488 193.702 103.763 193.881C104.038 194.059 104.265 194.293 104.443 194.582C104.622 194.87 104.752 195.2 104.835 195.571C104.931 195.928 105 196.292 105.041 196.663C105.096 197.034 105.123 197.398 105.123 197.756C105.137 198.099 105.144 198.395 105.144 198.642C105.144 199.054 105.13 199.556 105.103 200.147C105.075 200.724 104.986 201.287 104.835 201.837C104.697 202.373 104.464 202.833 104.134 203.218C103.818 203.603 103.358 203.795 102.753 203.795C102.162 203.795 101.709 203.603 101.393 203.218C101.077 202.833 100.843 202.373 100.692 201.837C100.555 201.287 100.472 200.724 100.445 200.147C100.417 199.556 100.403 199.054 100.403 198.642ZM97.4766 198.642C97.4766 200.085 97.614 201.294 97.8888 202.27C98.1773 203.232 98.5621 204.001 99.043 204.578C99.524 205.155 100.08 205.568 100.713 205.815C101.358 206.062 102.039 206.186 102.753 206.186C103.481 206.186 104.162 206.062 104.794 205.815C105.44 205.568 106.003 205.155 106.484 204.578C106.979 204.001 107.363 203.232 107.638 202.27C107.927 201.294 108.071 200.085 108.071 198.642C108.071 197.24 107.927 196.066 107.638 195.117C107.363 194.156 106.979 193.386 106.484 192.809C106.003 192.232 105.44 191.82 104.794 191.572C104.162 191.325 103.481 191.201 102.753 191.201C102.039 191.201 101.358 191.325 100.713 191.572C100.08 191.82 99.524 192.232 99.043 192.809C98.5621 193.386 98.1773 194.156 97.8888 195.117C97.614 196.066 97.4766 197.24 97.4766 198.642ZM111.857 198.642C111.857 198.395 111.857 198.099 111.857 197.756C111.87 197.398 111.898 197.034 111.939 196.663C111.98 196.292 112.049 195.928 112.145 195.571C112.241 195.2 112.372 194.87 112.537 194.582C112.715 194.293 112.935 194.059 113.196 193.881C113.471 193.702 113.808 193.613 114.206 193.613C114.605 193.613 114.941 193.702 115.216 193.881C115.491 194.059 115.718 194.293 115.896 194.582C116.075 194.87 116.206 195.2 116.288 195.571C116.384 195.928 116.453 196.292 116.494 196.663C116.549 197.034 116.577 197.398 116.577 197.756C116.59 198.099 116.597 198.395 116.597 198.642C116.597 199.054 116.583 199.556 116.556 200.147C116.529 200.724 116.439 201.287 116.288 201.837C116.151 202.373 115.917 202.833 115.587 203.218C115.271 203.603 114.811 203.795 114.206 203.795C113.615 203.795 113.162 203.603 112.846 203.218C112.53 202.833 112.296 202.373 112.145 201.837C112.008 201.287 111.925 200.724 111.898 200.147C111.87 199.556 111.857 199.054 111.857 198.642ZM108.93 198.642C108.93 200.085 109.067 201.294 109.342 202.27C109.63 203.232 110.015 204.001 110.496 204.578C110.977 205.155 111.534 205.568 112.166 205.815C112.812 206.062 113.492 206.186 114.206 206.186C114.935 206.186 115.615 206.062 116.247 205.815C116.893 205.568 117.456 205.155 117.937 204.578C118.432 204.001 118.816 203.232 119.091 202.27C119.38 201.294 119.524 200.085 119.524 198.642C119.524 197.24 119.38 196.066 119.091 195.117C118.816 194.156 118.432 193.386 117.937 192.809C117.456 192.232 116.893 191.82 116.247 191.572C115.615 191.325 114.935 191.201 114.206 191.201C113.492 191.201 112.812 191.325 112.166 191.572C111.534 191.82 110.977 192.232 110.496 192.809C110.015 193.386 109.63 194.156 109.342 195.117C109.067 196.066 108.93 197.24 108.93 198.642ZM121.207 202.744V205.918H122.691C122.705 206.138 122.678 206.351 122.609 206.557C122.54 206.777 122.437 206.969 122.3 207.134C122.162 207.313 121.997 207.464 121.805 207.588C121.626 207.711 121.434 207.794 121.228 207.835V209.319C121.668 209.25 122.08 209.12 122.465 208.927C122.863 208.749 123.207 208.515 123.495 208.226C123.784 207.938 124.01 207.594 124.175 207.196C124.354 206.811 124.443 206.385 124.443 205.918V202.744H121.207ZM129.046 198.642C129.046 198.395 129.046 198.099 129.046 197.756C129.06 197.398 129.088 197.034 129.129 196.663C129.17 196.292 129.239 195.928 129.335 195.571C129.431 195.2 129.562 194.87 129.726 194.582C129.905 194.293 130.125 194.059 130.386 193.881C130.661 193.702 130.998 193.613 131.396 193.613C131.795 193.613 132.131 193.702 132.406 193.881C132.681 194.059 132.908 194.293 133.086 194.582C133.265 194.87 133.395 195.2 133.478 195.571C133.574 195.928 133.643 196.292 133.684 196.663C133.739 197.034 133.766 197.398 133.766 197.756C133.78 198.099 133.787 198.395 133.787 198.642C133.787 199.054 133.773 199.556 133.746 200.147C133.718 200.724 133.629 201.287 133.478 201.837C133.34 202.373 133.107 202.833 132.777 203.218C132.461 203.603 132.001 203.795 131.396 203.795C130.805 203.795 130.352 203.603 130.036 203.218C129.72 202.833 129.486 202.373 129.335 201.837C129.197 201.287 129.115 200.724 129.088 200.147C129.06 199.556 129.046 199.054 129.046 198.642ZM126.119 198.642C126.119 200.085 126.257 201.294 126.532 202.27C126.82 203.232 127.205 204.001 127.686 204.578C128.167 205.155 128.723 205.568 129.355 205.815C130.001 206.062 130.681 206.186 131.396 206.186C132.124 206.186 132.804 206.062 133.437 205.815C134.082 205.568 134.646 205.155 135.127 204.578C135.621 204.001 136.006 203.232 136.281 202.27C136.57 201.294 136.714 200.085 136.714 198.642C136.714 197.24 136.57 196.066 136.281 195.117C136.006 194.156 135.621 193.386 135.127 192.809C134.646 192.232 134.082 191.82 133.437 191.572C132.804 191.325 132.124 191.201 131.396 191.201C130.681 191.201 130.001 191.325 129.355 191.572C128.723 191.82 128.167 192.232 127.686 192.809C127.205 193.386 126.82 194.156 126.532 195.117C126.257 196.066 126.119 197.24 126.119 198.642ZM140.499 198.642C140.499 198.395 140.499 198.099 140.499 197.756C140.513 197.398 140.541 197.034 140.582 196.663C140.623 196.292 140.692 195.928 140.788 195.571C140.884 195.2 141.015 194.87 141.18 194.582C141.358 194.293 141.578 194.059 141.839 193.881C142.114 193.702 142.451 193.613 142.849 193.613C143.248 193.613 143.584 193.702 143.859 193.881C144.134 194.059 144.361 194.293 144.539 194.582C144.718 194.87 144.848 195.2 144.931 195.571C145.027 195.928 145.096 196.292 145.137 196.663C145.192 197.034 145.22 197.398 145.22 197.756C145.233 198.099 145.24 198.395 145.24 198.642C145.24 199.054 145.226 199.556 145.199 200.147C145.171 200.724 145.082 201.287 144.931 201.837C144.794 202.373 144.56 202.833 144.23 203.218C143.914 203.603 143.454 203.795 142.849 203.795C142.258 203.795 141.805 203.603 141.489 203.218C141.173 202.833 140.939 202.373 140.788 201.837C140.651 201.287 140.568 200.724 140.541 200.147C140.513 199.556 140.499 199.054 140.499 198.642ZM137.573 198.642C137.573 200.085 137.71 201.294 137.985 202.27C138.273 203.232 138.658 204.001 139.139 204.578C139.62 205.155 140.177 205.568 140.809 205.815C141.454 206.062 142.135 206.186 142.849 206.186C143.577 206.186 144.258 206.062 144.89 205.815C145.536 205.568 146.099 205.155 146.58 204.578C147.075 204.001 147.459 203.232 147.734 202.27C148.023 201.294 148.167 200.085 148.167 198.642C148.167 197.24 148.023 196.066 147.734 195.117C147.459 194.156 147.075 193.386 146.58 192.809C146.099 192.232 145.536 191.82 144.89 191.572C144.258 191.325 143.577 191.201 142.849 191.201C142.135 191.201 141.454 191.325 140.809 191.572C140.177 191.82 139.62 192.232 139.139 192.809C138.658 193.386 138.273 194.156 137.985 195.117C137.71 196.066 137.573 197.24 137.573 198.642ZM151.953 198.642C151.953 198.395 151.953 198.099 151.953 197.756C151.966 197.398 151.994 197.034 152.035 196.663C152.076 196.292 152.145 195.928 152.241 195.571C152.337 195.2 152.468 194.87 152.633 194.582C152.811 194.293 153.031 194.059 153.292 193.881C153.567 193.702 153.904 193.613 154.302 193.613C154.701 193.613 155.037 193.702 155.312 193.881C155.587 194.059 155.814 194.293 155.992 194.582C156.171 194.87 156.302 195.2 156.384 195.571C156.48 195.928 156.549 196.292 156.59 196.663C156.645 197.034 156.673 197.398 156.673 197.756C156.686 198.099 156.693 198.395 156.693 198.642C156.693 199.054 156.68 199.556 156.652 200.147C156.625 200.724 156.535 201.287 156.384 201.837C156.247 202.373 156.013 202.833 155.683 203.218C155.367 203.603 154.907 203.795 154.302 203.795C153.711 203.795 153.258 203.603 152.942 203.218C152.626 202.833 152.392 202.373 152.241 201.837C152.104 201.287 152.021 200.724 151.994 200.147C151.966 199.556 151.953 199.054 151.953 198.642ZM149.026 198.642C149.026 200.085 149.163 201.294 149.438 202.27C149.727 203.232 150.111 204.001 150.592 204.578C151.073 205.155 151.63 205.568 152.262 205.815C152.908 206.062 153.588 206.186 154.302 206.186C155.031 206.186 155.711 206.062 156.343 205.815C156.989 205.568 157.552 205.155 158.033 204.578C158.528 204.001 158.912 203.232 159.187 202.27C159.476 201.294 159.62 200.085 159.62 198.642C159.62 197.24 159.476 196.066 159.187 195.117C158.912 194.156 158.528 193.386 158.033 192.809C157.552 192.232 156.989 191.82 156.343 191.572C155.711 191.325 155.031 191.201 154.302 191.201C153.588 191.201 152.908 191.325 152.262 191.572C151.63 191.82 151.073 192.232 150.592 192.809C150.111 193.386 149.727 194.156 149.438 195.117C149.163 196.066 149.026 197.24 149.026 198.642ZM161.283 202.744V205.918H164.519V202.744H161.283ZM169.142 198.642C169.142 198.395 169.142 198.099 169.142 197.756C169.156 197.398 169.184 197.034 169.225 196.663C169.266 196.292 169.335 195.928 169.431 195.571C169.527 195.2 169.658 194.87 169.823 194.582C170.001 194.293 170.221 194.059 170.482 193.881C170.757 193.702 171.094 193.613 171.492 193.613C171.891 193.613 172.227 193.702 172.502 193.881C172.777 194.059 173.004 194.293 173.182 194.582C173.361 194.87 173.491 195.2 173.574 195.571C173.67 195.928 173.739 196.292 173.78 196.663C173.835 197.034 173.862 197.398 173.862 197.756C173.876 198.099 173.883 198.395 173.883 198.642C173.883 199.054 173.869 199.556 173.842 200.147C173.814 200.724 173.725 201.287 173.574 201.837C173.436 202.373 173.203 202.833 172.873 203.218C172.557 203.603 172.097 203.795 171.492 203.795C170.901 203.795 170.448 203.603 170.132 203.218C169.816 202.833 169.582 202.373 169.431 201.837C169.293 201.287 169.211 200.724 169.184 200.147C169.156 199.556 169.142 199.054 169.142 198.642ZM166.215 198.642C166.215 200.085 166.353 201.294 166.628 202.27C166.916 203.232 167.301 204.001 167.782 204.578C168.263 205.155 168.819 205.568 169.452 205.815C170.097 206.062 170.778 206.186 171.492 206.186C172.22 206.186 172.901 206.062 173.533 205.815C174.178 205.568 174.742 205.155 175.223 204.578C175.717 204.001 176.102 203.232 176.377 202.27C176.666 201.294 176.81 200.085 176.81 198.642C176.81 197.24 176.666 196.066 176.377 195.117C176.102 194.156 175.717 193.386 175.223 192.809C174.742 192.232 174.178 191.82 173.533 191.572C172.901 191.325 172.22 191.201 171.492 191.201C170.778 191.201 170.097 191.325 169.452 191.572C168.819 191.82 168.263 192.232 167.782 192.809C167.301 193.386 166.916 194.156 166.628 195.117C166.353 196.066 166.215 197.24 166.215 198.642ZM180.595 198.642C180.595 198.395 180.595 198.099 180.595 197.756C180.609 197.398 180.637 197.034 180.678 196.663C180.719 196.292 180.788 195.928 180.884 195.571C180.98 195.2 181.111 194.87 181.276 194.582C181.454 194.293 181.674 194.059 181.935 193.881C182.21 193.702 182.547 193.613 182.945 193.613C183.344 193.613 183.68 193.702 183.955 193.881C184.23 194.059 184.457 194.293 184.635 194.582C184.814 194.87 184.945 195.2 185.027 195.571C185.123 195.928 185.192 196.292 185.233 196.663C185.288 197.034 185.316 197.398 185.316 197.756C185.329 198.099 185.336 198.395 185.336 198.642C185.336 199.054 185.322 199.556 185.295 200.147C185.267 200.724 185.178 201.287 185.027 201.837C184.89 202.373 184.656 202.833 184.326 203.218C184.01 203.603 183.55 203.795 182.945 203.795C182.354 203.795 181.901 203.603 181.585 203.218C181.269 202.833 181.035 202.373 180.884 201.837C180.747 201.287 180.664 200.724 180.637 200.147C180.609 199.556 180.595 199.054 180.595 198.642ZM177.669 198.642C177.669 200.085 177.806 201.294 178.081 202.27C178.369 203.232 178.754 204.001 179.235 204.578C179.716 205.155 180.273 205.568 180.905 205.815C181.55 206.062 182.231 206.186 182.945 206.186C183.673 206.186 184.354 206.062 184.986 205.815C185.632 205.568 186.195 205.155 186.676 204.578C187.171 204.001 187.555 203.232 187.83 202.27C188.119 201.294 188.263 200.085 188.263 198.642C188.263 197.24 188.119 196.066 187.83 195.117C187.555 194.156 187.171 193.386 186.676 192.809C186.195 192.232 185.632 191.82 184.986 191.572C184.354 191.325 183.673 191.201 182.945 191.201C182.231 191.201 181.55 191.325 180.905 191.572C180.273 191.82 179.716 192.232 179.235 192.809C178.754 193.386 178.369 194.156 178.081 195.117C177.806 196.066 177.669 197.24 177.669 198.642Z" fill="#41415A"/>
<rect x="51.7344" y="226.469" width="287.532" height="1.03058" fill="#F6F6F8"/>
<path d="M52.5176 247.692H53.8058V255.051H52.5176V247.692ZM55.221 249.723H56.3341V250.506L56.3547 250.527C56.5333 250.231 56.7669 250.001 57.0555 249.836C57.344 249.664 57.6635 249.578 58.0139 249.578C58.5979 249.578 59.0582 249.73 59.3949 250.032C59.7315 250.334 59.8999 250.788 59.8999 251.392V255.051H58.725V251.701C58.7113 251.282 58.622 250.98 58.4571 250.794C58.2922 250.602 58.0345 250.506 57.6841 250.506C57.4849 250.506 57.3062 250.544 57.1482 250.619C56.9902 250.688 56.8562 250.788 56.7463 250.918C56.6364 251.042 56.5505 251.19 56.4887 251.361C56.4268 251.533 56.3959 251.715 56.3959 251.908V255.051H55.221V249.723ZM60.6132 249.723H61.8912L63.2412 253.814H63.2618L64.5604 249.723H65.7764L63.8699 255.051H62.5507L60.6132 249.723ZM68.9254 255.195C68.4995 255.195 68.1181 255.126 67.7815 254.989C67.4517 254.845 67.17 254.649 66.9364 254.402C66.7097 254.154 66.5345 253.859 66.4108 253.515C66.294 253.172 66.2356 252.794 66.2356 252.382C66.2356 251.976 66.294 251.602 66.4108 251.258C66.5345 250.915 66.7097 250.619 66.9364 250.372C67.17 250.125 67.4517 249.932 67.7815 249.795C68.1181 249.651 68.4995 249.578 68.9254 249.578C69.3514 249.578 69.7293 249.651 70.0591 249.795C70.3957 249.932 70.6774 250.125 70.9041 250.372C71.1377 250.619 71.3129 250.915 71.4297 251.258C71.5534 251.602 71.6152 251.976 71.6152 252.382C71.6152 252.794 71.5534 253.172 71.4297 253.515C71.3129 253.859 71.1377 254.154 70.9041 254.402C70.6774 254.649 70.3957 254.845 70.0591 254.989C69.7293 255.126 69.3514 255.195 68.9254 255.195ZM68.9254 254.268C69.1865 254.268 69.4132 254.213 69.6056 254.103C69.798 253.993 69.956 253.848 70.0797 253.67C70.2034 253.491 70.2927 253.292 70.3476 253.072C70.4095 252.845 70.4404 252.615 70.4404 252.382C70.4404 252.155 70.4095 251.928 70.3476 251.701C70.2927 251.475 70.2034 251.275 70.0797 251.104C69.956 250.925 69.798 250.781 69.6056 250.671C69.4132 250.561 69.1865 250.506 68.9254 250.506C68.6644 250.506 68.4376 250.561 68.2452 250.671C68.0529 250.781 67.8949 250.925 67.7712 251.104C67.6475 251.275 67.5548 251.475 67.4929 251.701C67.438 251.928 67.4105 252.155 67.4105 252.382C67.4105 252.615 67.438 252.845 67.4929 253.072C67.5548 253.292 67.6475 253.491 67.7712 253.67C67.8949 253.848 68.0529 253.993 68.2452 254.103C68.4376 254.213 68.6644 254.268 68.9254 254.268ZM72.6229 247.692H73.7977V248.805H72.6229V247.692ZM72.6229 249.723H73.7977V255.051H72.6229V249.723ZM78.6746 251.506C78.6265 251.176 78.4925 250.928 78.2726 250.764C78.0597 250.592 77.7883 250.506 77.4585 250.506C77.3073 250.506 77.1459 250.533 76.9741 250.588C76.8023 250.636 76.6443 250.733 76.5 250.877C76.3558 251.014 76.2355 251.21 76.1393 251.464C76.0432 251.712 75.9951 252.038 75.9951 252.443C75.9951 252.663 76.0191 252.883 76.0672 253.103C76.1222 253.323 76.2046 253.519 76.3145 253.69C76.4313 253.862 76.5791 254.003 76.7577 254.113C76.9363 254.216 77.1527 254.268 77.407 254.268C77.7505 254.268 78.0322 254.161 78.252 253.948C78.4788 253.735 78.6196 253.436 78.6746 253.051H79.8494C79.7395 253.745 79.475 254.278 79.0559 254.649C78.6437 255.013 78.094 255.195 77.407 255.195C76.9879 255.195 76.6168 255.126 76.2939 254.989C75.9779 254.845 75.7099 254.652 75.4901 254.412C75.2702 254.164 75.1019 253.872 74.9851 253.536C74.8752 253.199 74.8202 252.835 74.8202 252.443C74.8202 252.045 74.8752 251.67 74.9851 251.32C75.095 250.97 75.2599 250.667 75.4798 250.413C75.6996 250.152 75.971 249.949 76.2939 249.805C76.6237 249.654 77.0085 249.578 77.4482 249.578C77.7574 249.578 78.0493 249.62 78.3242 249.702C78.6059 249.778 78.8532 249.894 79.0662 250.052C79.286 250.21 79.4647 250.41 79.6021 250.65C79.7395 250.891 79.8219 251.176 79.8494 251.506H78.6746ZM84.463 251.918C84.4492 251.732 84.408 251.554 84.3393 251.382C84.2775 251.21 84.1881 251.062 84.0714 250.939C83.9614 250.808 83.824 250.705 83.6591 250.63C83.5011 250.547 83.3225 250.506 83.1232 250.506C82.9171 250.506 82.7282 250.544 82.5564 250.619C82.3915 250.688 82.2472 250.788 82.1236 250.918C82.0068 251.042 81.9106 251.19 81.835 251.361C81.7663 251.533 81.7285 251.719 81.7216 251.918H84.463ZM81.7216 252.691C81.7216 252.897 81.7491 253.096 81.8041 253.288C81.8659 253.481 81.9552 253.649 82.072 253.793C82.1888 253.938 82.3365 254.055 82.5152 254.144C82.6938 254.226 82.9068 254.268 83.1541 254.268C83.4977 254.268 83.7725 254.195 83.9786 254.051C84.1916 253.9 84.3496 253.677 84.4527 253.381H85.5657C85.5039 253.67 85.3974 253.927 85.2462 254.154C85.0951 254.381 84.913 254.573 84.7 254.731C84.487 254.882 84.2465 254.996 83.9786 255.071C83.7175 255.154 83.4427 255.195 83.1541 255.195C82.735 255.195 82.364 255.126 82.0411 254.989C81.7182 254.852 81.4434 254.659 81.2166 254.412C80.9968 254.164 80.8285 253.869 80.7117 253.526C80.6017 253.182 80.5468 252.804 80.5468 252.392C80.5468 252.014 80.6052 251.657 80.722 251.32C80.8456 250.977 81.0174 250.678 81.2373 250.423C81.464 250.162 81.7354 249.956 82.0514 249.805C82.3675 249.654 82.7247 249.578 83.1232 249.578C83.5423 249.578 83.9168 249.668 84.2465 249.846C84.5832 250.018 84.8615 250.248 85.0813 250.537C85.3012 250.825 85.4592 251.159 85.5554 251.536C85.6584 251.908 85.6859 252.292 85.6378 252.691H81.7216ZM89.5642 247.692H90.8524V255.051H89.5642V247.692ZM91.7317 249.723H92.618V248.125H93.7929V249.723H94.8544V250.599H93.7929V253.443C93.7929 253.567 93.7963 253.673 93.8032 253.763C93.8169 253.852 93.841 253.927 93.8753 253.989C93.9165 254.051 93.9749 254.099 94.0505 254.134C94.1261 254.161 94.2291 254.175 94.3597 254.175C94.4421 254.175 94.5246 254.175 94.607 254.175C94.6895 254.168 94.7719 254.154 94.8544 254.134V255.04C94.7238 255.054 94.5967 255.068 94.4731 255.082C94.3494 255.095 94.2223 255.102 94.0917 255.102C93.7826 255.102 93.5318 255.075 93.3394 255.02C93.1539 254.958 93.0062 254.872 92.8963 254.762C92.7932 254.645 92.7211 254.501 92.6798 254.329C92.6455 254.158 92.6249 253.962 92.618 253.742V250.599H91.7317V249.723ZM99.3581 251.918C99.3443 251.732 99.3031 251.554 99.2344 251.382C99.1726 251.21 99.0833 251.062 98.9665 250.939C98.8565 250.808 98.7191 250.705 98.5542 250.63C98.3962 250.547 98.2176 250.506 98.0183 250.506C97.8122 250.506 97.6233 250.544 97.4515 250.619C97.2866 250.688 97.1423 250.788 97.0187 250.918C96.9019 251.042 96.8057 251.19 96.7301 251.361C96.6614 251.533 96.6236 251.719 96.6167 251.918H99.3581ZM96.6167 252.691C96.6167 252.897 96.6442 253.096 96.6992 253.288C96.761 253.481 96.8503 253.649 96.9671 253.793C97.0839 253.938 97.2317 254.055 97.4103 254.144C97.5889 254.226 97.8019 254.268 98.0493 254.268C98.3928 254.268 98.6676 254.195 98.8737 254.051C99.0867 253.9 99.2447 253.677 99.3478 253.381H100.461C100.399 253.67 100.292 253.927 100.141 254.154C99.9902 254.381 99.8081 254.573 99.5951 254.731C99.3821 254.882 99.1417 254.996 98.8737 255.071C98.6126 255.154 98.3378 255.195 98.0493 255.195C97.6301 255.195 97.2591 255.126 96.9362 254.989C96.6133 254.852 96.3385 254.659 96.1118 254.412C95.8919 254.164 95.7236 253.869 95.6068 253.526C95.4968 253.182 95.4419 252.804 95.4419 252.392C95.4419 252.014 95.5003 251.657 95.6171 251.32C95.7407 250.977 95.9125 250.678 96.1324 250.423C96.3591 250.162 96.6305 249.956 96.9465 249.805C97.2626 249.654 97.6198 249.578 98.0183 249.578C98.4374 249.578 98.8119 249.668 99.1417 249.846C99.4783 250.018 99.7566 250.248 99.9764 250.537C100.196 250.825 100.354 251.159 100.451 251.536C100.554 251.908 100.581 252.292 100.533 252.691H96.6167ZM101.426 249.723H102.539V250.465H102.57C102.659 250.334 102.756 250.214 102.859 250.104C102.962 249.994 103.075 249.901 103.199 249.826C103.329 249.75 103.477 249.692 103.642 249.651C103.807 249.602 103.996 249.578 104.209 249.578C104.532 249.578 104.83 249.651 105.105 249.795C105.387 249.939 105.586 250.162 105.703 250.465C105.902 250.19 106.132 249.973 106.393 249.815C106.655 249.657 106.981 249.578 107.373 249.578C107.936 249.578 108.372 249.716 108.681 249.991C108.997 250.265 109.155 250.726 109.155 251.372V255.051H107.981V251.938C107.981 251.725 107.974 251.533 107.96 251.361C107.946 251.183 107.905 251.032 107.836 250.908C107.774 250.777 107.678 250.678 107.548 250.609C107.417 250.54 107.239 250.506 107.012 250.506C106.613 250.506 106.325 250.63 106.146 250.877C105.968 251.124 105.878 251.475 105.878 251.928V255.051H104.703V251.629C104.703 251.258 104.635 250.98 104.497 250.794C104.367 250.602 104.123 250.506 103.766 250.506C103.614 250.506 103.467 250.537 103.322 250.599C103.185 250.661 103.061 250.75 102.951 250.867C102.848 250.983 102.762 251.128 102.694 251.299C102.632 251.471 102.601 251.667 102.601 251.887V255.051H101.426V249.723ZM111.28 253.34C111.314 253.684 111.445 253.924 111.671 254.061C111.898 254.199 112.169 254.268 112.485 254.268C112.595 254.268 112.719 254.261 112.856 254.247C113.001 254.226 113.135 254.192 113.258 254.144C113.382 254.096 113.482 254.027 113.557 253.938C113.64 253.842 113.677 253.718 113.671 253.567C113.664 253.416 113.609 253.292 113.506 253.196C113.403 253.1 113.269 253.024 113.104 252.969C112.946 252.907 112.764 252.856 112.558 252.814C112.351 252.773 112.142 252.729 111.929 252.68C111.709 252.632 111.496 252.574 111.29 252.505C111.091 252.437 110.909 252.344 110.744 252.227C110.586 252.11 110.459 251.962 110.362 251.784C110.266 251.598 110.218 251.372 110.218 251.104C110.218 250.815 110.287 250.575 110.424 250.382C110.569 250.183 110.747 250.025 110.96 249.908C111.18 249.785 111.42 249.699 111.682 249.651C111.95 249.602 112.204 249.578 112.444 249.578C112.719 249.578 112.98 249.609 113.227 249.671C113.482 249.726 113.708 249.819 113.908 249.949C114.114 250.08 114.282 250.252 114.413 250.465C114.55 250.671 114.636 250.922 114.67 251.217H113.444C113.389 250.935 113.258 250.746 113.052 250.65C112.853 250.554 112.623 250.506 112.362 250.506C112.279 250.506 112.18 250.513 112.063 250.527C111.953 250.54 111.846 250.568 111.743 250.609C111.647 250.643 111.565 250.698 111.496 250.774C111.427 250.843 111.393 250.935 111.393 251.052C111.393 251.196 111.441 251.313 111.537 251.403C111.64 251.492 111.771 251.567 111.929 251.629C112.094 251.684 112.279 251.732 112.485 251.774C112.692 251.815 112.905 251.859 113.124 251.908C113.337 251.956 113.547 252.014 113.753 252.083C113.959 252.151 114.141 252.244 114.299 252.361C114.464 252.478 114.595 252.625 114.691 252.804C114.794 252.983 114.845 253.203 114.845 253.464C114.845 253.78 114.773 254.048 114.629 254.268C114.485 254.487 114.296 254.666 114.062 254.803C113.835 254.941 113.581 255.04 113.3 255.102C113.018 255.164 112.74 255.195 112.465 255.195C112.128 255.195 111.816 255.157 111.527 255.082C111.245 255.006 110.998 254.893 110.785 254.742C110.579 254.584 110.414 254.391 110.29 254.164C110.173 253.931 110.112 253.656 110.105 253.34H111.28Z" fill="#71748C"/>
<rect x="52.2344" y="268.918" width="286.532" height="197.218" rx="5.5" fill="#FAFBFF" fill-opacity="0.8"/>
<rect x="64.1016" y="280.785" width="92.6" height="6.37855" rx="3.18927" fill="#DDE1FE" fill-opacity="0.35"/>
<rect x="64.1016" y="295.223" width="60.5962" height="6.37855" rx="3.18927" fill="#DDE1FE" fill-opacity="0.35"/>
<path d="M255.494 292.678V291.701H256.57V290.86H255.494V289.883H256.57V286.828H257.992L259.897 289.883H262.469V286.828H263.607V289.883H264.708V290.86H263.607V291.701H264.708V292.678H263.607V295.695H262.259L260.342 292.678H257.72V295.695H256.57V292.678H255.494ZM257.72 291.701H259.736L259.204 290.86H257.72V291.701ZM261.022 291.701H262.469V290.86H260.503L261.022 291.701ZM257.72 289.883H258.586L257.72 288.51V289.883ZM262.469 294.013V292.678H261.628L262.469 294.013ZM265.472 287.038H271.396V288.213C270.943 288.724 270.53 289.256 270.159 289.809C269.788 290.353 269.463 290.934 269.182 291.552C268.91 292.162 268.688 292.81 268.515 293.494C268.341 294.178 268.226 294.912 268.168 295.695H266.622C266.672 295.011 266.787 294.335 266.969 293.667C267.158 292.999 267.397 292.352 267.686 291.726C267.983 291.099 268.325 290.497 268.712 289.92C269.1 289.343 269.516 288.803 269.961 288.3H265.472V287.038ZM275.349 286.865C275.968 286.865 276.471 287.01 276.858 287.298C277.254 287.578 277.559 287.941 277.773 288.386C277.996 288.823 278.144 289.306 278.218 289.833C278.301 290.361 278.342 290.872 278.342 291.367C278.342 291.862 278.301 292.373 278.218 292.9C278.144 293.428 277.996 293.914 277.773 294.36C277.559 294.797 277.254 295.159 276.858 295.448C276.471 295.728 275.968 295.868 275.349 295.868C274.731 295.868 274.224 295.728 273.828 295.448C273.441 295.159 273.136 294.797 272.913 294.36C272.699 293.914 272.55 293.428 272.468 292.9C272.394 292.373 272.357 291.862 272.357 291.367C272.357 290.872 272.394 290.361 272.468 289.833C272.55 289.306 272.699 288.823 272.913 288.386C273.136 287.941 273.441 287.578 273.828 287.298C274.224 287.01 274.731 286.865 275.349 286.865ZM275.349 294.694C275.654 294.694 275.91 294.607 276.116 294.434C276.322 294.252 276.483 294.013 276.598 293.717C276.722 293.412 276.809 293.057 276.858 292.653C276.908 292.249 276.932 291.82 276.932 291.367C276.932 290.913 276.908 290.489 276.858 290.093C276.809 289.689 276.722 289.335 276.598 289.03C276.483 288.724 276.322 288.485 276.116 288.312C275.91 288.131 275.654 288.04 275.349 288.04C275.036 288.04 274.776 288.131 274.57 288.312C274.372 288.485 274.212 288.724 274.088 289.03C273.972 289.335 273.89 289.689 273.841 290.093C273.791 290.489 273.766 290.913 273.766 291.367C273.766 291.82 273.791 292.249 273.841 292.653C273.89 293.057 273.972 293.412 274.088 293.717C274.212 294.013 274.372 294.252 274.57 294.434C274.776 294.607 275.036 294.694 275.349 294.694ZM282.221 286.865C282.84 286.865 283.342 287.01 283.73 287.298C284.126 287.578 284.431 287.941 284.645 288.386C284.868 288.823 285.016 289.306 285.09 289.833C285.173 290.361 285.214 290.872 285.214 291.367C285.214 291.862 285.173 292.373 285.09 292.9C285.016 293.428 284.868 293.914 284.645 294.36C284.431 294.797 284.126 295.159 283.73 295.448C283.342 295.728 282.84 295.868 282.221 295.868C281.603 295.868 281.096 295.728 280.7 295.448C280.313 295.159 280.008 294.797 279.785 294.36C279.571 293.914 279.422 293.428 279.34 292.9C279.265 292.373 279.228 291.862 279.228 291.367C279.228 290.872 279.265 290.361 279.34 289.833C279.422 289.306 279.571 288.823 279.785 288.386C280.008 287.941 280.313 287.578 280.7 287.298C281.096 287.01 281.603 286.865 282.221 286.865ZM282.221 294.694C282.526 294.694 282.782 294.607 282.988 294.434C283.194 294.252 283.355 294.013 283.47 293.717C283.594 293.412 283.681 293.057 283.73 292.653C283.779 292.249 283.804 291.82 283.804 291.367C283.804 290.913 283.779 290.489 283.73 290.093C283.681 289.689 283.594 289.335 283.47 289.03C283.355 288.724 283.194 288.485 282.988 288.312C282.782 288.131 282.526 288.04 282.221 288.04C281.908 288.04 281.648 288.131 281.442 288.312C281.244 288.485 281.083 288.724 280.96 289.03C280.844 289.335 280.762 289.689 280.712 290.093C280.663 290.489 280.638 290.913 280.638 291.367C280.638 291.82 280.663 292.249 280.712 292.653C280.762 293.057 280.844 293.412 280.96 293.717C281.083 294.013 281.244 294.252 281.442 294.434C281.648 294.607 281.908 294.694 282.221 294.694ZM286.508 294.026H288.227V295.695C288.219 296.206 288.063 296.635 287.757 296.981C287.452 297.328 287.053 297.55 286.558 297.649V296.895C286.83 296.829 287.032 296.676 287.164 296.437C287.304 296.206 287.37 295.959 287.362 295.695H286.508V294.026ZM292.535 286.865C293.153 286.865 293.656 287.01 294.044 287.298C294.44 287.578 294.745 287.941 294.959 288.386C295.182 288.823 295.33 289.306 295.404 289.833C295.487 290.361 295.528 290.872 295.528 291.367C295.528 291.862 295.487 292.373 295.404 292.9C295.33 293.428 295.182 293.914 294.959 294.36C294.745 294.797 294.44 295.159 294.044 295.448C293.656 295.728 293.153 295.868 292.535 295.868C291.917 295.868 291.41 295.728 291.014 295.448C290.626 295.159 290.321 294.797 290.099 294.36C289.884 293.914 289.736 293.428 289.654 292.9C289.579 292.373 289.542 291.862 289.542 291.367C289.542 290.872 289.579 290.361 289.654 289.833C289.736 289.306 289.884 288.823 290.099 288.386C290.321 287.941 290.626 287.578 291.014 287.298C291.41 287.01 291.917 286.865 292.535 286.865ZM292.535 294.694C292.84 294.694 293.096 294.607 293.302 294.434C293.508 294.252 293.669 294.013 293.784 293.717C293.908 293.412 293.994 293.057 294.044 292.653C294.093 292.249 294.118 291.82 294.118 291.367C294.118 290.913 294.093 290.489 294.044 290.093C293.994 289.689 293.908 289.335 293.784 289.03C293.669 288.724 293.508 288.485 293.302 288.312C293.096 288.131 292.84 288.04 292.535 288.04C292.222 288.04 291.962 288.131 291.756 288.312C291.558 288.485 291.397 288.724 291.274 289.03C291.158 289.335 291.076 289.689 291.026 290.093C290.977 290.489 290.952 290.913 290.952 291.367C290.952 291.82 290.977 292.249 291.026 292.653C291.076 293.057 291.158 293.412 291.274 293.717C291.397 294.013 291.558 294.252 291.756 294.434C291.962 294.607 292.222 294.694 292.535 294.694ZM299.407 286.865C300.025 286.865 300.528 287.01 300.916 287.298C301.311 287.578 301.617 287.941 301.831 288.386C302.053 288.823 302.202 289.306 302.276 289.833C302.359 290.361 302.4 290.872 302.4 291.367C302.4 291.862 302.359 292.373 302.276 292.9C302.202 293.428 302.053 293.914 301.831 294.36C301.617 294.797 301.311 295.159 300.916 295.448C300.528 295.728 300.025 295.868 299.407 295.868C298.789 295.868 298.282 295.728 297.886 295.448C297.498 295.159 297.193 294.797 296.971 294.36C296.756 293.914 296.608 293.428 296.525 292.9C296.451 292.373 296.414 291.862 296.414 291.367C296.414 290.872 296.451 290.361 296.525 289.833C296.608 289.306 296.756 288.823 296.971 288.386C297.193 287.941 297.498 287.578 297.886 287.298C298.282 287.01 298.789 286.865 299.407 286.865ZM299.407 294.694C299.712 294.694 299.968 294.607 300.174 294.434C300.38 294.252 300.541 294.013 300.656 293.717C300.78 293.412 300.866 293.057 300.916 292.653C300.965 292.249 300.99 291.82 300.99 291.367C300.99 290.913 300.965 290.489 300.916 290.093C300.866 289.689 300.78 289.335 300.656 289.03C300.541 288.724 300.38 288.485 300.174 288.312C299.968 288.131 299.712 288.04 299.407 288.04C299.094 288.04 298.834 288.131 298.628 288.312C298.43 288.485 298.269 288.724 298.146 289.03C298.03 289.335 297.948 289.689 297.898 290.093C297.849 290.489 297.824 290.913 297.824 291.367C297.824 291.82 297.849 292.249 297.898 292.653C297.948 293.057 298.03 293.412 298.146 293.717C298.269 294.013 298.43 294.252 298.628 294.434C298.834 294.607 299.094 294.694 299.407 294.694ZM306.279 286.865C306.897 286.865 307.4 287.01 307.788 287.298C308.183 287.578 308.488 287.941 308.703 288.386C308.925 288.823 309.074 289.306 309.148 289.833C309.23 290.361 309.272 290.872 309.272 291.367C309.272 291.862 309.23 292.373 309.148 292.9C309.074 293.428 308.925 293.914 308.703 294.36C308.488 294.797 308.183 295.159 307.788 295.448C307.4 295.728 306.897 295.868 306.279 295.868C305.66 295.868 305.153 295.728 304.758 295.448C304.37 295.159 304.065 294.797 303.843 294.36C303.628 293.914 303.48 293.428 303.397 292.9C303.323 292.373 303.286 291.862 303.286 291.367C303.286 290.872 303.323 290.361 303.397 289.833C303.48 289.306 303.628 288.823 303.843 288.386C304.065 287.941 304.37 287.578 304.758 287.298C305.153 287.01 305.66 286.865 306.279 286.865ZM306.279 294.694C306.584 294.694 306.839 294.607 307.046 294.434C307.252 294.252 307.412 294.013 307.528 293.717C307.652 293.412 307.738 293.057 307.788 292.653C307.837 292.249 307.862 291.82 307.862 291.367C307.862 290.913 307.837 290.489 307.788 290.093C307.738 289.689 307.652 289.335 307.528 289.03C307.412 288.724 307.252 288.485 307.046 288.312C306.839 288.131 306.584 288.04 306.279 288.04C305.966 288.04 305.706 288.131 305.5 288.312C305.302 288.485 305.141 288.724 305.017 289.03C304.902 289.335 304.82 289.689 304.77 290.093C304.721 290.489 304.696 290.913 304.696 291.367C304.696 291.82 304.721 292.249 304.77 292.653C304.82 293.057 304.902 293.412 305.017 293.717C305.141 294.013 305.302 294.252 305.5 294.434C305.706 294.607 305.966 294.694 306.279 294.694ZM310.566 294.026H312.285V295.695H310.566V294.026ZM316.593 286.865C317.211 286.865 317.714 287.01 318.101 287.298C318.497 287.578 318.802 287.941 319.017 288.386C319.239 288.823 319.388 289.306 319.462 289.833C319.544 290.361 319.586 290.872 319.586 291.367C319.586 291.862 319.544 292.373 319.462 292.9C319.388 293.428 319.239 293.914 319.017 294.36C318.802 294.797 318.497 295.159 318.101 295.448C317.714 295.728 317.211 295.868 316.593 295.868C315.974 295.868 315.467 295.728 315.072 295.448C314.684 295.159 314.379 294.797 314.156 294.36C313.942 293.914 313.794 293.428 313.711 292.9C313.637 292.373 313.6 291.862 313.6 291.367C313.6 290.872 313.637 290.361 313.711 289.833C313.794 289.306 313.942 288.823 314.156 288.386C314.379 287.941 314.684 287.578 315.072 287.298C315.467 287.01 315.974 286.865 316.593 286.865ZM316.593 294.694C316.898 294.694 317.153 294.607 317.359 294.434C317.566 294.252 317.726 294.013 317.842 293.717C317.965 293.412 318.052 293.057 318.101 292.653C318.151 292.249 318.176 291.82 318.176 291.367C318.176 290.913 318.151 290.489 318.101 290.093C318.052 289.689 317.965 289.335 317.842 289.03C317.726 288.724 317.566 288.485 317.359 288.312C317.153 288.131 316.898 288.04 316.593 288.04C316.279 288.04 316.02 288.131 315.814 288.312C315.616 288.485 315.455 288.724 315.331 289.03C315.216 289.335 315.133 289.689 315.084 290.093C315.034 290.489 315.01 290.913 315.01 291.367C315.01 291.82 315.034 292.249 315.084 292.653C315.133 293.057 315.216 293.412 315.331 293.717C315.455 294.013 315.616 294.252 315.814 294.434C316.02 294.607 316.279 294.694 316.593 294.694ZM323.465 286.865C324.083 286.865 324.586 287.01 324.973 287.298C325.369 287.578 325.674 287.941 325.889 288.386C326.111 288.823 326.26 289.306 326.334 289.833C326.416 290.361 326.457 290.872 326.457 291.367C326.457 291.862 326.416 292.373 326.334 292.9C326.26 293.428 326.111 293.914 325.889 294.36C325.674 294.797 325.369 295.159 324.973 295.448C324.586 295.728 324.083 295.868 323.465 295.868C322.846 295.868 322.339 295.728 321.943 295.448C321.556 295.159 321.251 294.797 321.028 294.36C320.814 293.914 320.666 293.428 320.583 292.9C320.509 292.373 320.472 291.862 320.472 291.367C320.472 290.872 320.509 290.361 320.583 289.833C320.666 289.306 320.814 288.823 321.028 288.386C321.251 287.941 321.556 287.578 321.943 287.298C322.339 287.01 322.846 286.865 323.465 286.865ZM323.465 294.694C323.77 294.694 324.025 294.607 324.231 294.434C324.437 294.252 324.598 294.013 324.714 293.717C324.837 293.412 324.924 293.057 324.973 292.653C325.023 292.249 325.048 291.82 325.048 291.367C325.048 290.913 325.023 290.489 324.973 290.093C324.924 289.689 324.837 289.335 324.714 289.03C324.598 288.724 324.437 288.485 324.231 288.312C324.025 288.131 323.77 288.04 323.465 288.04C323.151 288.04 322.892 288.131 322.685 288.312C322.488 288.485 322.327 288.724 322.203 289.03C322.088 289.335 322.005 289.689 321.956 290.093C321.906 290.489 321.882 290.913 321.882 291.367C321.882 291.82 321.906 292.249 321.956 292.653C322.005 293.057 322.088 293.412 322.203 293.717C322.327 294.013 322.488 294.252 322.685 294.434C322.892 294.607 323.151 294.694 323.465 294.694Z" fill="#71748C"/>
<rect x="64.1016" y="316.973" width="116.6" height="6.37855" rx="3.18927" fill="#DDE1FE" fill-opacity="0.35"/>
<rect x="64.1016" y="331.41" width="60.5962" height="6.37855" rx="3.18927" fill="#DDE1FE" fill-opacity="0.35"/>
<path d="M255.494 328.865V327.888H256.57V327.047H255.494V326.07H256.57V323.016H257.992L259.897 326.07H262.469V323.016H263.607V326.07H264.708V327.047H263.607V327.888H264.708V328.865H263.607V331.883H262.259L260.342 328.865H257.72V331.883H256.57V328.865H255.494ZM257.72 327.888H259.736L259.204 327.047H257.72V327.888ZM261.022 327.888H262.469V327.047H260.503L261.022 327.888ZM257.72 326.07H258.586L257.72 324.698V326.07ZM262.469 330.201V328.865H261.628L262.469 330.201ZM266.561 323.226H271.037V324.487H267.612L267.167 326.689L267.191 326.713C267.381 326.499 267.62 326.338 267.909 326.231C268.205 326.116 268.498 326.058 268.787 326.058C269.215 326.058 269.599 326.132 269.937 326.281C270.275 326.421 270.559 326.623 270.79 326.887C271.021 327.142 271.194 327.447 271.309 327.802C271.433 328.156 271.495 328.54 271.495 328.952C271.495 329.298 271.437 329.657 271.322 330.028C271.215 330.391 271.037 330.724 270.79 331.029C270.551 331.326 270.242 331.574 269.863 331.772C269.483 331.961 269.03 332.056 268.502 332.056C268.082 332.056 267.69 331.998 267.327 331.883C266.973 331.776 266.659 331.611 266.387 331.388C266.115 331.166 265.897 330.893 265.732 330.572C265.575 330.242 265.489 329.859 265.472 329.422H266.882C266.923 329.892 267.084 330.254 267.364 330.51C267.645 330.757 268.016 330.881 268.477 330.881C268.774 330.881 269.026 330.832 269.232 330.733C269.438 330.634 269.603 330.498 269.727 330.325C269.858 330.151 269.949 329.949 269.999 329.719C270.056 329.488 270.085 329.24 270.085 328.977C270.085 328.737 270.052 328.511 269.986 328.296C269.92 328.074 269.821 327.88 269.689 327.715C269.557 327.55 269.384 327.418 269.17 327.319C268.964 327.22 268.721 327.171 268.44 327.171C268.144 327.171 267.863 327.229 267.599 327.344C267.344 327.451 267.158 327.657 267.043 327.962H265.633L266.561 323.226ZM273.432 323.226H277.909V324.487H274.484L274.038 326.689L274.063 326.713C274.253 326.499 274.492 326.338 274.78 326.231C275.077 326.116 275.37 326.058 275.658 326.058C276.087 326.058 276.471 326.132 276.809 326.281C277.147 326.421 277.431 326.623 277.662 326.887C277.893 327.142 278.066 327.447 278.181 327.802C278.305 328.156 278.367 328.54 278.367 328.952C278.367 329.298 278.309 329.657 278.194 330.028C278.087 330.391 277.909 330.724 277.662 331.029C277.423 331.326 277.114 331.574 276.734 331.772C276.355 331.961 275.902 332.056 275.374 332.056C274.954 332.056 274.562 331.998 274.199 331.883C273.845 331.776 273.531 331.611 273.259 331.388C272.987 331.166 272.769 330.893 272.604 330.572C272.447 330.242 272.361 329.859 272.344 329.422H273.754C273.795 329.892 273.956 330.254 274.236 330.51C274.517 330.757 274.888 330.881 275.349 330.881C275.646 330.881 275.898 330.832 276.104 330.733C276.31 330.634 276.475 330.498 276.598 330.325C276.73 330.151 276.821 329.949 276.87 329.719C276.928 329.488 276.957 329.24 276.957 328.977C276.957 328.737 276.924 328.511 276.858 328.296C276.792 328.074 276.693 327.88 276.561 327.715C276.429 327.55 276.256 327.418 276.042 327.319C275.836 327.22 275.593 327.171 275.312 327.171C275.015 327.171 274.735 327.229 274.471 327.344C274.216 327.451 274.03 327.657 273.915 327.962H272.505L273.432 323.226ZM282.221 323.053C282.84 323.053 283.342 323.197 283.73 323.486C284.126 323.766 284.431 324.129 284.645 324.574C284.868 325.011 285.016 325.493 285.09 326.021C285.173 326.549 285.214 327.06 285.214 327.554C285.214 328.049 285.173 328.56 285.09 329.088C285.016 329.616 284.868 330.102 284.645 330.547C284.431 330.984 284.126 331.347 283.73 331.635C283.342 331.916 282.84 332.056 282.221 332.056C281.603 332.056 281.096 331.916 280.7 331.635C280.313 331.347 280.008 330.984 279.785 330.547C279.571 330.102 279.422 329.616 279.34 329.088C279.265 328.56 279.228 328.049 279.228 327.554C279.228 327.06 279.265 326.549 279.34 326.021C279.422 325.493 279.571 325.011 279.785 324.574C280.008 324.129 280.313 323.766 280.7 323.486C281.096 323.197 281.603 323.053 282.221 323.053ZM282.221 330.881C282.526 330.881 282.782 330.795 282.988 330.621C283.194 330.44 283.355 330.201 283.47 329.904C283.594 329.599 283.681 329.245 283.73 328.841C283.779 328.437 283.804 328.008 283.804 327.554C283.804 327.101 283.779 326.676 283.73 326.281C283.681 325.877 283.594 325.522 283.47 325.217C283.355 324.912 283.194 324.673 282.988 324.5C282.782 324.318 282.526 324.228 282.221 324.228C281.908 324.228 281.648 324.318 281.442 324.5C281.244 324.673 281.083 324.912 280.96 325.217C280.844 325.522 280.762 325.877 280.712 326.281C280.663 326.676 280.638 327.101 280.638 327.554C280.638 328.008 280.663 328.437 280.712 328.841C280.762 329.245 280.844 329.599 280.96 329.904C281.083 330.201 281.244 330.44 281.442 330.621C281.648 330.795 281.908 330.881 282.221 330.881ZM286.508 330.213H288.227V331.883C288.219 332.394 288.063 332.823 287.757 333.169C287.452 333.515 287.053 333.738 286.558 333.837V333.082C286.83 333.016 287.032 332.864 287.164 332.625C287.304 332.394 287.37 332.147 287.362 331.883H286.508V330.213ZM292.535 323.053C293.153 323.053 293.656 323.197 294.044 323.486C294.44 323.766 294.745 324.129 294.959 324.574C295.182 325.011 295.33 325.493 295.404 326.021C295.487 326.549 295.528 327.06 295.528 327.554C295.528 328.049 295.487 328.56 295.404 329.088C295.33 329.616 295.182 330.102 294.959 330.547C294.745 330.984 294.44 331.347 294.044 331.635C293.656 331.916 293.153 332.056 292.535 332.056C291.917 332.056 291.41 331.916 291.014 331.635C290.626 331.347 290.321 330.984 290.099 330.547C289.884 330.102 289.736 329.616 289.654 329.088C289.579 328.56 289.542 328.049 289.542 327.554C289.542 327.06 289.579 326.549 289.654 326.021C289.736 325.493 289.884 325.011 290.099 324.574C290.321 324.129 290.626 323.766 291.014 323.486C291.41 323.197 291.917 323.053 292.535 323.053ZM292.535 330.881C292.84 330.881 293.096 330.795 293.302 330.621C293.508 330.44 293.669 330.201 293.784 329.904C293.908 329.599 293.994 329.245 294.044 328.841C294.093 328.437 294.118 328.008 294.118 327.554C294.118 327.101 294.093 326.676 294.044 326.281C293.994 325.877 293.908 325.522 293.784 325.217C293.669 324.912 293.508 324.673 293.302 324.5C293.096 324.318 292.84 324.228 292.535 324.228C292.222 324.228 291.962 324.318 291.756 324.5C291.558 324.673 291.397 324.912 291.274 325.217C291.158 325.522 291.076 325.877 291.026 326.281C290.977 326.676 290.952 327.101 290.952 327.554C290.952 328.008 290.977 328.437 291.026 328.841C291.076 329.245 291.158 329.599 291.274 329.904C291.397 330.201 291.558 330.44 291.756 330.621C291.962 330.795 292.222 330.881 292.535 330.881ZM299.407 323.053C300.025 323.053 300.528 323.197 300.916 323.486C301.311 323.766 301.617 324.129 301.831 324.574C302.053 325.011 302.202 325.493 302.276 326.021C302.359 326.549 302.4 327.06 302.4 327.554C302.4 328.049 302.359 328.56 302.276 329.088C302.202 329.616 302.053 330.102 301.831 330.547C301.617 330.984 301.311 331.347 300.916 331.635C300.528 331.916 300.025 332.056 299.407 332.056C298.789 332.056 298.282 331.916 297.886 331.635C297.498 331.347 297.193 330.984 296.971 330.547C296.756 330.102 296.608 329.616 296.525 329.088C296.451 328.56 296.414 328.049 296.414 327.554C296.414 327.06 296.451 326.549 296.525 326.021C296.608 325.493 296.756 325.011 296.971 324.574C297.193 324.129 297.498 323.766 297.886 323.486C298.282 323.197 298.789 323.053 299.407 323.053ZM299.407 330.881C299.712 330.881 299.968 330.795 300.174 330.621C300.38 330.44 300.541 330.201 300.656 329.904C300.78 329.599 300.866 329.245 300.916 328.841C300.965 328.437 300.99 328.008 300.99 327.554C300.99 327.101 300.965 326.676 300.916 326.281C300.866 325.877 300.78 325.522 300.656 325.217C300.541 324.912 300.38 324.673 300.174 324.5C299.968 324.318 299.712 324.228 299.407 324.228C299.094 324.228 298.834 324.318 298.628 324.5C298.43 324.673 298.269 324.912 298.146 325.217C298.03 325.522 297.948 325.877 297.898 326.281C297.849 326.676 297.824 327.101 297.824 327.554C297.824 328.008 297.849 328.437 297.898 328.841C297.948 329.245 298.03 329.599 298.146 329.904C298.269 330.201 298.43 330.44 298.628 330.621C298.834 330.795 299.094 330.881 299.407 330.881ZM306.279 323.053C306.897 323.053 307.4 323.197 307.788 323.486C308.183 323.766 308.488 324.129 308.703 324.574C308.925 325.011 309.074 325.493 309.148 326.021C309.23 326.549 309.272 327.06 309.272 327.554C309.272 328.049 309.23 328.56 309.148 329.088C309.074 329.616 308.925 330.102 308.703 330.547C308.488 330.984 308.183 331.347 307.788 331.635C307.4 331.916 306.897 332.056 306.279 332.056C305.66 332.056 305.153 331.916 304.758 331.635C304.37 331.347 304.065 330.984 303.843 330.547C303.628 330.102 303.48 329.616 303.397 329.088C303.323 328.56 303.286 328.049 303.286 327.554C303.286 327.06 303.323 326.549 303.397 326.021C303.48 325.493 303.628 325.011 303.843 324.574C304.065 324.129 304.37 323.766 304.758 323.486C305.153 323.197 305.66 323.053 306.279 323.053ZM306.279 330.881C306.584 330.881 306.839 330.795 307.046 330.621C307.252 330.44 307.412 330.201 307.528 329.904C307.652 329.599 307.738 329.245 307.788 328.841C307.837 328.437 307.862 328.008 307.862 327.554C307.862 327.101 307.837 326.676 307.788 326.281C307.738 325.877 307.652 325.522 307.528 325.217C307.412 324.912 307.252 324.673 307.046 324.5C306.839 324.318 306.584 324.228 306.279 324.228C305.966 324.228 305.706 324.318 305.5 324.5C305.302 324.673 305.141 324.912 305.017 325.217C304.902 325.522 304.82 325.877 304.77 326.281C304.721 326.676 304.696 327.101 304.696 327.554C304.696 328.008 304.721 328.437 304.77 328.841C304.82 329.245 304.902 329.599 305.017 329.904C305.141 330.201 305.302 330.44 305.5 330.621C305.706 330.795 305.966 330.881 306.279 330.881ZM310.566 330.213H312.285V331.883H310.566V330.213ZM316.593 323.053C317.211 323.053 317.714 323.197 318.101 323.486C318.497 323.766 318.802 324.129 319.017 324.574C319.239 325.011 319.388 325.493 319.462 326.021C319.544 326.549 319.586 327.06 319.586 327.554C319.586 328.049 319.544 328.56 319.462 329.088C319.388 329.616 319.239 330.102 319.017 330.547C318.802 330.984 318.497 331.347 318.101 331.635C317.714 331.916 317.211 332.056 316.593 332.056C315.974 332.056 315.467 331.916 315.072 331.635C314.684 331.347 314.379 330.984 314.156 330.547C313.942 330.102 313.794 329.616 313.711 329.088C313.637 328.56 313.6 328.049 313.6 327.554C313.6 327.06 313.637 326.549 313.711 326.021C313.794 325.493 313.942 325.011 314.156 324.574C314.379 324.129 314.684 323.766 315.072 323.486C315.467 323.197 315.974 323.053 316.593 323.053ZM316.593 330.881C316.898 330.881 317.153 330.795 317.359 330.621C317.566 330.44 317.726 330.201 317.842 329.904C317.965 329.599 318.052 329.245 318.101 328.841C318.151 328.437 318.176 328.008 318.176 327.554C318.176 327.101 318.151 326.676 318.101 326.281C318.052 325.877 317.965 325.522 317.842 325.217C317.726 324.912 317.566 324.673 317.359 324.5C317.153 324.318 316.898 324.228 316.593 324.228C316.279 324.228 316.02 324.318 315.814 324.5C315.616 324.673 315.455 324.912 315.331 325.217C315.216 325.522 315.133 325.877 315.084 326.281C315.034 326.676 315.01 327.101 315.01 327.554C315.01 328.008 315.034 328.437 315.084 328.841C315.133 329.245 315.216 329.599 315.331 329.904C315.455 330.201 315.616 330.44 315.814 330.621C316.02 330.795 316.279 330.881 316.593 330.881ZM323.465 323.053C324.083 323.053 324.586 323.197 324.973 323.486C325.369 323.766 325.674 324.129 325.889 324.574C326.111 325.011 326.26 325.493 326.334 326.021C326.416 326.549 326.457 327.06 326.457 327.554C326.457 328.049 326.416 328.56 326.334 329.088C326.26 329.616 326.111 330.102 325.889 330.547C325.674 330.984 325.369 331.347 324.973 331.635C324.586 331.916 324.083 332.056 323.465 332.056C322.846 332.056 322.339 331.916 321.943 331.635C321.556 331.347 321.251 330.984 321.028 330.547C320.814 330.102 320.666 329.616 320.583 329.088C320.509 328.56 320.472 328.049 320.472 327.554C320.472 327.06 320.509 326.549 320.583 326.021C320.666 325.493 320.814 325.011 321.028 324.574C321.251 324.129 321.556 323.766 321.943 323.486C322.339 323.197 322.846 323.053 323.465 323.053ZM323.465 330.881C323.77 330.881 324.025 330.795 324.231 330.621C324.437 330.44 324.598 330.201 324.714 329.904C324.837 329.599 324.924 329.245 324.973 328.841C325.023 328.437 325.048 328.008 325.048 327.554C325.048 327.101 325.023 326.676 324.973 326.281C324.924 325.877 324.837 325.522 324.714 325.217C324.598 324.912 324.437 324.673 324.231 324.5C324.025 324.318 323.77 324.228 323.465 324.228C323.151 324.228 322.892 324.318 322.685 324.5C322.488 324.673 322.327 324.912 322.203 325.217C322.088 325.522 322.005 325.877 321.956 326.281C321.906 326.676 321.882 327.101 321.882 327.554C321.882 328.008 321.906 328.437 321.956 328.841C322.005 329.245 322.088 329.599 322.203 329.904C322.327 330.201 322.488 330.44 322.685 330.621C322.892 330.795 323.151 330.881 323.465 330.881Z" fill="#71748C"/>
<rect x="64.1016" y="353.16" width="55.6" height="6.37855" rx="3.18927" fill="#BBC3FD" fill-opacity="0.35"/>
<path d="M245.18 361.143V360.166H246.256V359.325H245.18V358.348H246.256V355.293H247.679L249.583 358.348H252.155V355.293H253.293V358.348H254.394V359.325H253.293V360.166H254.394V361.143H253.293V364.16H251.945L250.028 361.143H247.406V364.16H246.256V361.143H245.18ZM247.406 360.166H249.422L248.89 359.325H247.406V360.166ZM250.708 360.166H252.155V359.325H250.189L250.708 360.166ZM247.406 358.348H248.272L247.406 356.975V358.348ZM252.155 362.478V361.143H251.314L252.155 362.478ZM255.381 356.938C255.678 356.938 255.966 356.913 256.247 356.864C256.527 356.814 256.778 356.732 257.001 356.616C257.232 356.501 257.426 356.352 257.582 356.171C257.747 355.99 257.854 355.767 257.904 355.503H259.054V364.16H257.508V358.051H255.381V356.938ZM262.451 362.491H264.17V364.16C264.162 364.671 264.005 365.1 263.7 365.446C263.395 365.793 262.995 366.015 262.5 366.114V365.36C262.772 365.294 262.974 365.141 263.106 364.902C263.246 364.671 263.312 364.424 263.304 364.16H262.451V362.491ZM271.433 364.16H265.522C265.53 363.443 265.703 362.816 266.041 362.28C266.379 361.744 266.841 361.279 267.426 360.883C267.707 360.677 267.999 360.479 268.304 360.289C268.609 360.091 268.89 359.881 269.145 359.659C269.401 359.436 269.611 359.197 269.776 358.941C269.941 358.677 270.027 358.377 270.036 358.039C270.036 357.882 270.015 357.717 269.974 357.544C269.941 357.362 269.871 357.198 269.764 357.049C269.656 356.892 269.508 356.765 269.318 356.666C269.129 356.559 268.881 356.505 268.576 356.505C268.296 356.505 268.061 356.563 267.871 356.678C267.69 356.785 267.542 356.938 267.426 357.136C267.319 357.325 267.237 357.552 267.179 357.816C267.129 358.08 267.101 358.364 267.092 358.669H265.683C265.683 358.191 265.744 357.75 265.868 357.346C266 356.934 266.194 356.579 266.449 356.282C266.705 355.986 267.014 355.755 267.377 355.59C267.748 355.417 268.177 355.33 268.663 355.33C269.191 355.33 269.632 355.417 269.986 355.59C270.341 355.763 270.625 355.981 270.84 356.245C271.062 356.509 271.219 356.798 271.309 357.111C271.4 357.416 271.446 357.709 271.446 357.989C271.446 358.335 271.392 358.649 271.285 358.929C271.178 359.209 271.033 359.469 270.852 359.708C270.671 359.939 270.464 360.153 270.234 360.351C270.003 360.549 269.764 360.735 269.516 360.908C269.269 361.081 269.022 361.246 268.774 361.402C268.527 361.559 268.296 361.716 268.082 361.872C267.876 362.029 267.694 362.194 267.538 362.367C267.381 362.532 267.274 362.709 267.216 362.899H271.433V364.16ZM273.432 355.503H277.909V356.765H274.484L274.038 358.966L274.063 358.991C274.253 358.776 274.492 358.616 274.78 358.508C275.077 358.393 275.37 358.335 275.658 358.335C276.087 358.335 276.471 358.41 276.809 358.558C277.147 358.698 277.431 358.9 277.662 359.164C277.893 359.419 278.066 359.725 278.181 360.079C278.305 360.434 278.367 360.817 278.367 361.229C278.367 361.575 278.309 361.934 278.194 362.305C278.087 362.668 277.909 363.002 277.662 363.307C277.423 363.604 277.114 363.851 276.734 364.049C276.355 364.238 275.902 364.333 275.374 364.333C274.954 364.333 274.562 364.276 274.199 364.16C273.845 364.053 273.531 363.888 273.259 363.665C272.987 363.443 272.769 363.171 272.604 362.849C272.447 362.519 272.361 362.136 272.344 361.699H273.754C273.795 362.169 273.956 362.532 274.236 362.787C274.517 363.035 274.888 363.158 275.349 363.158C275.646 363.158 275.898 363.109 276.104 363.01C276.31 362.911 276.475 362.775 276.598 362.602C276.73 362.429 276.821 362.227 276.87 361.996C276.928 361.765 276.957 361.518 276.957 361.254C276.957 361.015 276.924 360.788 276.858 360.574C276.792 360.351 276.693 360.157 276.561 359.992C276.429 359.828 276.256 359.696 276.042 359.597C275.836 359.498 275.593 359.448 275.312 359.448C275.015 359.448 274.735 359.506 274.471 359.621C274.216 359.729 274.03 359.935 273.915 360.24H272.505L273.432 355.503ZM282.221 355.33C282.84 355.33 283.342 355.474 283.73 355.763C284.126 356.043 284.431 356.406 284.645 356.851C284.868 357.288 285.016 357.771 285.09 358.298C285.173 358.826 285.214 359.337 285.214 359.832C285.214 360.326 285.173 360.838 285.09 361.365C285.016 361.893 284.868 362.379 284.645 362.825C284.431 363.261 284.126 363.624 283.73 363.913C283.342 364.193 282.84 364.333 282.221 364.333C281.603 364.333 281.096 364.193 280.7 363.913C280.313 363.624 280.008 363.261 279.785 362.825C279.571 362.379 279.422 361.893 279.34 361.365C279.265 360.838 279.228 360.326 279.228 359.832C279.228 359.337 279.265 358.826 279.34 358.298C279.422 357.771 279.571 357.288 279.785 356.851C280.008 356.406 280.313 356.043 280.7 355.763C281.096 355.474 281.603 355.33 282.221 355.33ZM282.221 363.158C282.526 363.158 282.782 363.072 282.988 362.899C283.194 362.717 283.355 362.478 283.47 362.181C283.594 361.876 283.681 361.522 283.73 361.118C283.779 360.714 283.804 360.285 283.804 359.832C283.804 359.378 283.779 358.954 283.73 358.558C283.681 358.154 283.594 357.799 283.47 357.494C283.355 357.189 283.194 356.95 282.988 356.777C282.782 356.596 282.526 356.505 282.221 356.505C281.908 356.505 281.648 356.596 281.442 356.777C281.244 356.95 281.083 357.189 280.96 357.494C280.844 357.799 280.762 358.154 280.712 358.558C280.663 358.954 280.638 359.378 280.638 359.832C280.638 360.285 280.663 360.714 280.712 361.118C280.762 361.522 280.844 361.876 280.96 362.181C281.083 362.478 281.244 362.717 281.442 362.899C281.648 363.072 281.908 363.158 282.221 363.158ZM286.508 362.491H288.227V364.16C288.219 364.671 288.063 365.1 287.757 365.446C287.452 365.793 287.053 366.015 286.558 366.114V365.36C286.83 365.294 287.032 365.141 287.164 364.902C287.304 364.671 287.37 364.424 287.362 364.16H286.508V362.491ZM292.535 355.33C293.153 355.33 293.656 355.474 294.044 355.763C294.44 356.043 294.745 356.406 294.959 356.851C295.182 357.288 295.33 357.771 295.404 358.298C295.487 358.826 295.528 359.337 295.528 359.832C295.528 360.326 295.487 360.838 295.404 361.365C295.33 361.893 295.182 362.379 294.959 362.825C294.745 363.261 294.44 363.624 294.044 363.913C293.656 364.193 293.153 364.333 292.535 364.333C291.917 364.333 291.41 364.193 291.014 363.913C290.626 363.624 290.321 363.261 290.099 362.825C289.884 362.379 289.736 361.893 289.654 361.365C289.579 360.838 289.542 360.326 289.542 359.832C289.542 359.337 289.579 358.826 289.654 358.298C289.736 357.771 289.884 357.288 290.099 356.851C290.321 356.406 290.626 356.043 291.014 355.763C291.41 355.474 291.917 355.33 292.535 355.33ZM292.535 363.158C292.84 363.158 293.096 363.072 293.302 362.899C293.508 362.717 293.669 362.478 293.784 362.181C293.908 361.876 293.994 361.522 294.044 361.118C294.093 360.714 294.118 360.285 294.118 359.832C294.118 359.378 294.093 358.954 294.044 358.558C293.994 358.154 293.908 357.799 293.784 357.494C293.669 357.189 293.508 356.95 293.302 356.777C293.096 356.596 292.84 356.505 292.535 356.505C292.222 356.505 291.962 356.596 291.756 356.777C291.558 356.95 291.397 357.189 291.274 357.494C291.158 357.799 291.076 358.154 291.026 358.558C290.977 358.954 290.952 359.378 290.952 359.832C290.952 360.285 290.977 360.714 291.026 361.118C291.076 361.522 291.158 361.876 291.274 362.181C291.397 362.478 291.558 362.717 291.756 362.899C291.962 363.072 292.222 363.158 292.535 363.158ZM299.407 355.33C300.025 355.33 300.528 355.474 300.916 355.763C301.311 356.043 301.617 356.406 301.831 356.851C302.053 357.288 302.202 357.771 302.276 358.298C302.359 358.826 302.4 359.337 302.4 359.832C302.4 360.326 302.359 360.838 302.276 361.365C302.202 361.893 302.053 362.379 301.831 362.825C301.617 363.261 301.311 363.624 300.916 363.913C300.528 364.193 300.025 364.333 299.407 364.333C298.789 364.333 298.282 364.193 297.886 363.913C297.498 363.624 297.193 363.261 296.971 362.825C296.756 362.379 296.608 361.893 296.525 361.365C296.451 360.838 296.414 360.326 296.414 359.832C296.414 359.337 296.451 358.826 296.525 358.298C296.608 357.771 296.756 357.288 296.971 356.851C297.193 356.406 297.498 356.043 297.886 355.763C298.282 355.474 298.789 355.33 299.407 355.33ZM299.407 363.158C299.712 363.158 299.968 363.072 300.174 362.899C300.38 362.717 300.541 362.478 300.656 362.181C300.78 361.876 300.866 361.522 300.916 361.118C300.965 360.714 300.99 360.285 300.99 359.832C300.99 359.378 300.965 358.954 300.916 358.558C300.866 358.154 300.78 357.799 300.656 357.494C300.541 357.189 300.38 356.95 300.174 356.777C299.968 356.596 299.712 356.505 299.407 356.505C299.094 356.505 298.834 356.596 298.628 356.777C298.43 356.95 298.269 357.189 298.146 357.494C298.03 357.799 297.948 358.154 297.898 358.558C297.849 358.954 297.824 359.378 297.824 359.832C297.824 360.285 297.849 360.714 297.898 361.118C297.948 361.522 298.03 361.876 298.146 362.181C298.269 362.478 298.43 362.717 298.628 362.899C298.834 363.072 299.094 363.158 299.407 363.158ZM306.279 355.33C306.897 355.33 307.4 355.474 307.788 355.763C308.183 356.043 308.488 356.406 308.703 356.851C308.925 357.288 309.074 357.771 309.148 358.298C309.23 358.826 309.272 359.337 309.272 359.832C309.272 360.326 309.23 360.838 309.148 361.365C309.074 361.893 308.925 362.379 308.703 362.825C308.488 363.261 308.183 363.624 307.788 363.913C307.4 364.193 306.897 364.333 306.279 364.333C305.66 364.333 305.153 364.193 304.758 363.913C304.37 363.624 304.065 363.261 303.843 362.825C303.628 362.379 303.48 361.893 303.397 361.365C303.323 360.838 303.286 360.326 303.286 359.832C303.286 359.337 303.323 358.826 303.397 358.298C303.48 357.771 303.628 357.288 303.843 356.851C304.065 356.406 304.37 356.043 304.758 355.763C305.153 355.474 305.66 355.33 306.279 355.33ZM306.279 363.158C306.584 363.158 306.839 363.072 307.046 362.899C307.252 362.717 307.412 362.478 307.528 362.181C307.652 361.876 307.738 361.522 307.788 361.118C307.837 360.714 307.862 360.285 307.862 359.832C307.862 359.378 307.837 358.954 307.788 358.558C307.738 358.154 307.652 357.799 307.528 357.494C307.412 357.189 307.252 356.95 307.046 356.777C306.839 356.596 306.584 356.505 306.279 356.505C305.966 356.505 305.706 356.596 305.5 356.777C305.302 356.95 305.141 357.189 305.017 357.494C304.902 357.799 304.82 358.154 304.77 358.558C304.721 358.954 304.696 359.378 304.696 359.832C304.696 360.285 304.721 360.714 304.77 361.118C304.82 361.522 304.902 361.876 305.017 362.181C305.141 362.478 305.302 362.717 305.5 362.899C305.706 363.072 305.966 363.158 306.279 363.158ZM310.566 362.491H312.285V364.16H310.566V362.491ZM316.593 355.33C317.211 355.33 317.714 355.474 318.101 355.763C318.497 356.043 318.802 356.406 319.017 356.851C319.239 357.288 319.388 357.771 319.462 358.298C319.544 358.826 319.585 359.337 319.585 359.832C319.585 360.326 319.544 360.838 319.462 361.365C319.388 361.893 319.239 362.379 319.017 362.825C318.802 363.261 318.497 363.624 318.101 363.913C317.714 364.193 317.211 364.333 316.593 364.333C315.974 364.333 315.467 364.193 315.072 363.913C314.684 363.624 314.379 363.261 314.156 362.825C313.942 362.379 313.794 361.893 313.711 361.365C313.637 360.838 313.6 360.326 313.6 359.832C313.6 359.337 313.637 358.826 313.711 358.298C313.794 357.771 313.942 357.288 314.156 356.851C314.379 356.406 314.684 356.043 315.072 355.763C315.467 355.474 315.974 355.33 316.593 355.33ZM316.593 363.158C316.898 363.158 317.153 363.072 317.359 362.899C317.566 362.717 317.726 362.478 317.842 362.181C317.965 361.876 318.052 361.522 318.101 361.118C318.151 360.714 318.176 360.285 318.176 359.832C318.176 359.378 318.151 358.954 318.101 358.558C318.052 358.154 317.965 357.799 317.842 357.494C317.726 357.189 317.566 356.95 317.359 356.777C317.153 356.596 316.898 356.505 316.593 356.505C316.279 356.505 316.02 356.596 315.814 356.777C315.616 356.95 315.455 357.189 315.331 357.494C315.216 357.799 315.133 358.154 315.084 358.558C315.034 358.954 315.01 359.378 315.01 359.832C315.01 360.285 315.034 360.714 315.084 361.118C315.133 361.522 315.216 361.876 315.331 362.181C315.455 362.478 315.616 362.717 315.814 362.899C316.02 363.072 316.279 363.158 316.593 363.158ZM323.465 355.33C324.083 355.33 324.586 355.474 324.973 355.763C325.369 356.043 325.674 356.406 325.888 356.851C326.111 357.288 326.26 357.771 326.334 358.298C326.416 358.826 326.457 359.337 326.457 359.832C326.457 360.326 326.416 360.838 326.334 361.365C326.26 361.893 326.111 362.379 325.888 362.825C325.674 363.261 325.369 363.624 324.973 363.913C324.586 364.193 324.083 364.333 323.465 364.333C322.846 364.333 322.339 364.193 321.943 363.913C321.556 363.624 321.251 363.261 321.028 362.825C320.814 362.379 320.666 361.893 320.583 361.365C320.509 360.838 320.472 360.326 320.472 359.832C320.472 359.337 320.509 358.826 320.583 358.298C320.666 357.771 320.814 357.288 321.028 356.851C321.251 356.406 321.556 356.043 321.943 355.763C322.339 355.474 322.846 355.33 323.465 355.33ZM323.465 363.158C323.77 363.158 324.025 363.072 324.231 362.899C324.437 362.717 324.598 362.478 324.714 362.181C324.837 361.876 324.924 361.522 324.973 361.118C325.023 360.714 325.048 360.285 325.048 359.832C325.048 359.378 325.023 358.954 324.973 358.558C324.924 358.154 324.837 357.799 324.714 357.494C324.598 357.189 324.437 356.95 324.231 356.777C324.025 356.596 323.77 356.505 323.465 356.505C323.151 356.505 322.892 356.596 322.685 356.777C322.488 356.95 322.327 357.189 322.203 357.494C322.088 357.799 322.005 358.154 321.956 358.558C321.906 358.954 321.882 359.378 321.882 359.832C321.882 360.285 321.906 360.714 321.956 361.118C322.005 361.522 322.088 361.876 322.203 362.181C322.327 362.478 322.488 362.717 322.685 362.899C322.892 363.072 323.151 363.158 323.465 363.158Z" fill="#71748C"/>
<rect x="52.2344" y="268.918" width="286.532" height="197.218" rx="5.5" stroke="#F5F6FF"/>
</g>
</g>
</g>
<g filter="url(#filter2_ddd_5055_21812)">
<rect x="26" y="16" width="338" height="107.09" rx="16" fill="white" shape-rendering="crispEdges"/>
<path d="M59.4302 51.7697C59.3401 51.4204 59.2161 51.0993 59.0584 50.8064C58.9007 50.5135 58.6979 50.26 58.45 50.0459C58.2021 49.8318 57.9092 49.6685 57.5712 49.5558C57.2445 49.4319 56.8614 49.3699 56.422 49.3699C55.7798 49.3699 55.2221 49.4995 54.7489 49.7586C54.287 50.0177 53.9095 50.367 53.6166 50.8064C53.3237 51.2345 53.104 51.7246 52.9575 52.2767C52.8223 52.8288 52.7547 53.3921 52.7547 53.9667C52.7547 54.5413 52.8223 55.1046 52.9575 55.6567C53.104 56.2088 53.3237 56.7045 53.6166 57.1439C53.9095 57.572 54.287 57.9157 54.7489 58.1748C55.2221 58.4339 55.7798 58.5635 56.422 58.5635C56.8952 58.5635 57.3121 58.4846 57.6726 58.3269C58.0331 58.1579 58.343 57.9326 58.6021 57.6509C58.8612 57.358 59.064 57.02 59.2105 56.6369C59.357 56.2538 59.4527 55.8426 59.4978 55.4032H61.5596C61.5145 56.1243 61.3568 56.7834 61.0864 57.3805C60.8273 57.9776 60.4724 58.4959 60.0217 58.9353C59.571 59.3634 59.0415 59.6958 58.4331 59.9324C57.8247 60.169 57.1543 60.2873 56.422 60.2873C55.5207 60.2873 54.7095 60.1239 53.9884 59.7972C53.2786 59.4592 52.6758 59.0029 52.1801 58.4283C51.6844 57.8537 51.3013 57.1833 51.0309 56.4172C50.7718 55.6511 50.6422 54.8342 50.6422 53.9667C50.6422 53.1104 50.7718 52.2992 51.0309 51.5331C51.3013 50.767 51.6844 50.0966 52.1801 49.522C52.6758 48.9474 53.2786 48.4911 53.9884 48.1531C54.7095 47.8151 55.5207 47.6461 56.422 47.6461C57.098 47.6461 57.7346 47.7419 58.3317 47.9334C58.9288 48.1137 59.4527 48.3841 59.9034 48.7446C60.3653 49.0939 60.7371 49.522 61.0188 50.029C61.3005 50.536 61.4751 51.1162 61.5427 51.7697H59.4302ZM63.2104 51.2627H65.0187V52.9527H65.0525C65.1088 52.7161 65.2159 52.4851 65.3736 52.2598C65.5426 52.0345 65.7398 51.8317 65.9651 51.6514C66.2017 51.4599 66.4608 51.3078 66.7425 51.1951C67.0242 51.0824 67.3115 51.0261 67.6044 51.0261C67.8297 51.0261 67.9818 51.0317 68.0607 51.043C68.1508 51.0543 68.241 51.0655 68.3311 51.0768V52.9358C68.1959 52.9133 68.0551 52.8964 67.9086 52.8851C67.7734 52.8626 67.6382 52.8513 67.503 52.8513C67.1763 52.8513 66.8664 52.9189 66.5735 53.0541C66.2918 53.178 66.044 53.3696 65.8299 53.6287C65.6158 53.8766 65.4468 54.1864 65.3229 54.5582C65.199 54.93 65.137 55.3581 65.137 55.8426V60H63.2104V51.2627ZM74.8542 54.8624C74.8317 54.5582 74.7641 54.2653 74.6514 53.9836C74.55 53.7019 74.4036 53.4597 74.212 53.2569C74.0318 53.0428 73.8064 52.8738 73.536 52.7499C73.2769 52.6147 72.984 52.5471 72.6572 52.5471C72.3192 52.5471 72.0094 52.6091 71.7277 52.733C71.4573 52.8457 71.2207 53.009 71.0179 53.2231C70.8264 53.4259 70.6687 53.6681 70.5447 53.9498C70.4321 54.2315 70.3701 54.5357 70.3588 54.8624H74.8542ZM70.3588 56.1299C70.3588 56.4679 70.4039 56.7946 70.494 57.1101C70.5954 57.4256 70.7419 57.7016 70.9334 57.9382C71.125 58.1748 71.3672 58.3663 71.6601 58.5128C71.9531 58.648 72.3023 58.7156 72.7079 58.7156C73.2713 58.7156 73.7219 58.5973 74.0599 58.3607C74.4092 58.1128 74.6683 57.7467 74.8373 57.2622H76.6625C76.5611 57.7354 76.3865 58.1579 76.1386 58.5297C75.8908 58.9015 75.5922 59.217 75.2429 59.4761C74.8937 59.724 74.4993 59.9099 74.0599 60.0338C73.6318 60.169 73.1811 60.2366 72.7079 60.2366C72.0207 60.2366 71.4123 60.1239 70.8827 59.8986C70.3532 59.6733 69.9025 59.3578 69.5307 58.9522C69.1702 58.5466 68.8942 58.0621 68.7026 57.4988C68.5224 56.9355 68.4322 56.3158 68.4322 55.6398C68.4322 55.0201 68.528 54.4343 68.7195 53.8822C68.9223 53.3189 69.204 52.8288 69.5645 52.4119C69.9363 51.9838 70.3814 51.6458 70.8996 51.3979C71.4179 51.15 72.0038 51.0261 72.6572 51.0261C73.3445 51.0261 73.9585 51.1726 74.4993 51.4655C75.0514 51.7472 75.5077 52.1246 75.8682 52.5978C76.2288 53.071 76.4879 53.6174 76.6456 54.2371C76.8146 54.8455 76.8597 55.4764 76.7808 56.1299H70.3588ZM85.5631 58.0565C85.5631 58.2931 85.5913 58.4621 85.6476 58.5635C85.7152 58.6649 85.8392 58.7156 86.0194 58.7156C86.0758 58.7156 86.1434 58.7156 86.2222 58.7156C86.3011 58.7156 86.3912 58.7043 86.4926 58.6818V60.0169C86.425 60.0394 86.3349 60.062 86.2222 60.0845C86.1208 60.1183 86.0138 60.1465 85.9011 60.169C85.7885 60.1915 85.6758 60.2084 85.5631 60.2197C85.4505 60.231 85.3547 60.2366 85.2758 60.2366C84.8815 60.2366 84.5548 60.1577 84.2956 60C84.0365 59.8423 83.8675 59.5662 83.7886 59.1719C83.4056 59.5437 82.9324 59.8141 82.369 59.9831C81.817 60.1521 81.2818 60.2366 80.7635 60.2366C80.3692 60.2366 79.9918 60.1803 79.6312 60.0676C79.2707 59.9662 78.9496 59.8141 78.6679 59.6113C78.3975 59.3972 78.1778 59.1325 78.0088 58.817C77.8511 58.4903 77.7722 58.1128 77.7722 57.6847C77.7722 57.1439 77.868 56.7045 78.0595 56.3665C78.2623 56.0285 78.5215 55.7637 78.8369 55.5722C79.1637 55.3807 79.5242 55.2455 79.9185 55.1666C80.3241 55.0765 80.7297 55.0089 81.1353 54.9638C81.4846 54.8962 81.817 54.8511 82.1324 54.8286C82.4479 54.7948 82.7239 54.7441 82.9605 54.6765C83.2084 54.6089 83.3999 54.5075 83.5351 54.3723C83.6816 54.2258 83.7548 54.0118 83.7548 53.7301C83.7548 53.4822 83.6929 53.2794 83.5689 53.1217C83.4563 52.964 83.3098 52.8457 83.1295 52.7668C82.9605 52.6767 82.769 52.6203 82.5549 52.5978C82.3409 52.564 82.1381 52.5471 81.9465 52.5471C81.4057 52.5471 80.9607 52.6598 80.6114 52.8851C80.2622 53.1104 80.065 53.4597 80.0199 53.9329H78.0933C78.1271 53.3696 78.2623 52.902 78.4989 52.5302C78.7355 52.1584 79.0341 51.8598 79.3946 51.6345C79.7664 51.4092 80.1833 51.2514 80.6452 51.1613C81.1072 51.0712 81.5804 51.0261 82.0648 51.0261C82.493 51.0261 82.9155 51.0712 83.3323 51.1613C83.7492 51.2514 84.121 51.3979 84.4477 51.6007C84.7857 51.8035 85.0561 52.0683 85.2589 52.395C85.4617 52.7105 85.5631 53.0992 85.5631 53.5611V58.0565ZM83.6365 55.6229C83.3436 55.8144 82.9831 55.9327 82.5549 55.9778C82.1268 56.0116 81.6987 56.0679 81.2705 56.1468C81.0677 56.1806 80.8706 56.2313 80.679 56.2989C80.4875 56.3552 80.3185 56.4397 80.172 56.5524C80.0256 56.6538 79.9073 56.7946 79.8171 56.9749C79.7383 57.1439 79.6988 57.3523 79.6988 57.6002C79.6988 57.8143 79.7608 57.9945 79.8847 58.141C80.0087 58.2875 80.1551 58.4058 80.3241 58.4959C80.5044 58.5748 80.6959 58.6311 80.8987 58.6649C81.1128 58.6987 81.3043 58.7156 81.4733 58.7156C81.6874 58.7156 81.9184 58.6874 82.1662 58.6311C82.4141 58.5748 82.6451 58.479 82.8591 58.3438C83.0845 58.2086 83.2704 58.0396 83.4168 57.8368C83.5633 57.6227 83.6365 57.3636 83.6365 57.0594V55.6229ZM86.7574 51.2627H88.2108V48.6432H90.1374V51.2627H91.8781V52.6992H90.1374V57.3636C90.1374 57.5664 90.143 57.741 90.1543 57.8875C90.1768 58.034 90.2162 58.1579 90.2726 58.2593C90.3402 58.3607 90.4359 58.4396 90.5599 58.4959C90.6838 58.541 90.8528 58.5635 91.0669 58.5635C91.2021 58.5635 91.3373 58.5635 91.4725 58.5635C91.6077 58.5522 91.7429 58.5297 91.8781 58.4959V59.9831C91.664 60.0056 91.4556 60.0282 91.2528 60.0507C91.05 60.0732 90.8415 60.0845 90.6275 60.0845C90.1205 60.0845 89.7092 60.0394 89.3938 59.9493C89.0896 59.8479 88.8473 59.7071 88.6671 59.5268C88.4981 59.3353 88.3798 59.0987 88.3122 58.817C88.2558 58.5353 88.222 58.2142 88.2108 57.8537V52.6992H86.7574V51.2627ZM99.2635 54.8624C99.241 54.5582 99.1734 54.2653 99.0607 53.9836C98.9593 53.7019 98.8128 53.4597 98.6213 53.2569C98.441 53.0428 98.2157 52.8738 97.9453 52.7499C97.6862 52.6147 97.3932 52.5471 97.0665 52.5471C96.7285 52.5471 96.4187 52.6091 96.137 52.733C95.8666 52.8457 95.63 53.009 95.4272 53.2231C95.2357 53.4259 95.0779 53.6681 94.954 53.9498C94.8413 54.2315 94.7794 54.5357 94.7681 54.8624H99.2635ZM94.7681 56.1299C94.7681 56.4679 94.8132 56.7946 94.9033 57.1101C95.0047 57.4256 95.1512 57.7016 95.3427 57.9382C95.5342 58.1748 95.7765 58.3663 96.0694 58.5128C96.3623 58.648 96.7116 58.7156 97.1172 58.7156C97.6805 58.7156 98.1312 58.5973 98.4692 58.3607C98.8185 58.1128 99.0776 57.7467 99.2466 57.2622H101.072C100.97 57.7354 100.796 58.1579 100.548 58.5297C100.3 58.9015 100.001 59.217 99.6522 59.4761C99.3029 59.724 98.9086 59.9099 98.4692 60.0338C98.0411 60.169 97.5904 60.2366 97.1172 60.2366C96.4299 60.2366 95.8215 60.1239 95.292 59.8986C94.7625 59.6733 94.3118 59.3578 93.94 58.9522C93.5795 58.5466 93.3034 58.0621 93.1119 57.4988C92.9316 56.9355 92.8415 56.3158 92.8415 55.6398C92.8415 55.0201 92.9373 54.4343 93.1288 53.8822C93.3316 53.3189 93.6133 52.8288 93.9738 52.4119C94.3456 51.9838 94.7906 51.6458 95.3089 51.3979C95.8272 51.15 96.413 51.0261 97.0665 51.0261C97.7538 51.0261 98.3678 51.1726 98.9086 51.4655C99.4607 51.7472 99.917 52.1246 100.278 52.5978C100.638 53.071 100.897 53.6174 101.055 54.2371C101.224 54.8455 101.269 55.4764 101.19 56.1299H94.7681ZM107.629 47.9334H109.741V60H107.629V47.9334ZM112.062 51.2627H113.887V52.5471L113.921 52.5809C114.214 52.0964 114.597 51.719 115.07 51.4486C115.543 51.1669 116.067 51.0261 116.642 51.0261C117.6 51.0261 118.354 51.274 118.906 51.7697C119.459 52.2654 119.735 53.009 119.735 54.0005V60H117.808V54.5075C117.785 53.8202 117.639 53.3245 117.369 53.0203C117.098 52.7048 116.676 52.5471 116.101 52.5471C115.774 52.5471 115.481 52.6091 115.222 52.733C114.963 52.8457 114.743 53.009 114.563 53.2231C114.383 53.4259 114.242 53.6681 114.141 53.9498C114.039 54.2315 113.989 54.53 113.989 54.8455V60H112.062V51.2627ZM120.904 51.2627H123L125.214 57.972H125.248L127.377 51.2627H129.371L126.245 60H124.082L120.904 51.2627ZM134.535 60.2366C133.837 60.2366 133.211 60.1239 132.659 59.8986C132.118 59.662 131.656 59.3409 131.273 58.9353C130.902 58.5297 130.614 58.0452 130.412 57.4819C130.22 56.9186 130.124 56.2989 130.124 55.6229C130.124 54.9582 130.22 54.3441 130.412 53.7808C130.614 53.2175 130.902 52.733 131.273 52.3274C131.656 51.9218 132.118 51.6063 132.659 51.381C133.211 51.1444 133.837 51.0261 134.535 51.0261C135.234 51.0261 135.853 51.1444 136.394 51.381C136.946 51.6063 137.408 51.9218 137.78 52.3274C138.163 52.733 138.45 53.2175 138.642 53.7808C138.845 54.3441 138.946 54.9582 138.946 55.6229C138.946 56.2989 138.845 56.9186 138.642 57.4819C138.45 58.0452 138.163 58.5297 137.78 58.9353C137.408 59.3409 136.946 59.662 136.394 59.8986C135.853 60.1239 135.234 60.2366 134.535 60.2366ZM134.535 58.7156C134.963 58.7156 135.335 58.6255 135.651 58.4452C135.966 58.2649 136.225 58.0283 136.428 57.7354C136.631 57.4425 136.777 57.1157 136.867 56.7552C136.969 56.3834 137.019 56.006 137.019 55.6229C137.019 55.2511 136.969 54.8793 136.867 54.5075C136.777 54.1357 136.631 53.809 136.428 53.5273C136.225 53.2344 135.966 52.9978 135.651 52.8175C135.335 52.6372 134.963 52.5471 134.535 52.5471C134.107 52.5471 133.735 52.6372 133.42 52.8175C133.104 52.9978 132.845 53.2344 132.642 53.5273C132.44 53.809 132.287 54.1357 132.186 54.5075C132.096 54.8793 132.051 55.2511 132.051 55.6229C132.051 56.006 132.096 56.3834 132.186 56.7552C132.287 57.1157 132.44 57.4425 132.642 57.7354C132.845 58.0283 133.104 58.2649 133.42 58.4452C133.735 58.6255 134.107 58.7156 134.535 58.7156ZM140.598 47.9334H142.525V49.7586H140.598V47.9334ZM140.598 51.2627H142.525V60H140.598V51.2627ZM150.522 54.1864C150.443 53.6456 150.224 53.24 149.863 52.9696C149.514 52.6879 149.069 52.5471 148.528 52.5471C148.28 52.5471 148.015 52.5922 147.734 52.6823C147.452 52.7612 147.193 52.9189 146.956 53.1555C146.72 53.3808 146.523 53.7019 146.365 54.1188C146.207 54.5244 146.128 55.0596 146.128 55.7243C146.128 56.0848 146.168 56.4454 146.247 56.8059C146.337 57.1664 146.472 57.4875 146.652 57.7692C146.844 58.0509 147.086 58.2818 147.379 58.4621C147.672 58.6311 148.027 58.7156 148.444 58.7156C149.007 58.7156 149.469 58.541 149.829 58.1917C150.201 57.8424 150.432 57.3523 150.522 56.7214H152.449C152.269 57.8593 151.835 58.7325 151.148 59.3409C150.472 59.938 149.57 60.2366 148.444 60.2366C147.756 60.2366 147.148 60.1239 146.618 59.8986C146.1 59.662 145.661 59.3465 145.3 58.9522C144.94 58.5466 144.664 58.0678 144.472 57.5157C144.292 56.9636 144.202 56.3665 144.202 55.7243C144.202 55.0708 144.292 54.4568 144.472 53.8822C144.652 53.3076 144.923 52.8119 145.283 52.395C145.644 51.9669 146.089 51.6345 146.618 51.3979C147.159 51.15 147.79 51.0261 148.511 51.0261C149.018 51.0261 149.497 51.0937 149.948 51.2289C150.41 51.3528 150.815 51.5444 151.164 51.8035C151.525 52.0626 151.818 52.3894 152.043 52.7837C152.269 53.178 152.404 53.6456 152.449 54.1864H150.522ZM160.014 54.8624C159.992 54.5582 159.924 54.2653 159.812 53.9836C159.71 53.7019 159.564 53.4597 159.372 53.2569C159.192 53.0428 158.967 52.8738 158.696 52.7499C158.437 52.6147 158.144 52.5471 157.817 52.5471C157.479 52.5471 157.17 52.6091 156.888 52.733C156.617 52.8457 156.381 53.009 156.178 53.2231C155.987 53.4259 155.829 53.6681 155.705 53.9498C155.592 54.2315 155.53 54.5357 155.519 54.8624H160.014ZM155.519 56.1299C155.519 56.4679 155.564 56.7946 155.654 57.1101C155.756 57.4256 155.902 57.7016 156.094 57.9382C156.285 58.1748 156.527 58.3663 156.82 58.5128C157.113 58.648 157.462 58.7156 157.868 58.7156C158.431 58.7156 158.882 58.5973 159.22 58.3607C159.569 58.1128 159.828 57.7467 159.997 57.2622H161.823C161.721 57.7354 161.547 58.1579 161.299 58.5297C161.051 58.9015 160.752 59.217 160.403 59.4761C160.054 59.724 159.659 59.9099 159.22 60.0338C158.792 60.169 158.341 60.2366 157.868 60.2366C157.181 60.2366 156.572 60.1239 156.043 59.8986C155.513 59.6733 155.063 59.3578 154.691 58.9522C154.33 58.5466 154.054 58.0621 153.863 57.4988C153.683 56.9355 153.592 56.3158 153.592 55.6398C153.592 55.0201 153.688 54.4343 153.88 53.8822C154.082 53.3189 154.364 52.8288 154.725 52.4119C155.096 51.9838 155.542 51.6458 156.06 51.3979C156.578 51.15 157.164 51.0261 157.817 51.0261C158.505 51.0261 159.119 51.1726 159.659 51.4655C160.212 51.7472 160.668 52.1246 161.028 52.5978C161.389 53.071 161.648 53.6174 161.806 54.2371C161.975 54.8455 162.02 55.4764 161.941 56.1299H155.519Z" fill="#71748C"/>
<rect x="50" y="72" width="170.71" height="8.31" rx="4.155" fill="#F6F6F8"/>
<rect x="50" y="90.3125" width="110.13" height="8.31" rx="4.155" fill="#F6F6F8"/>
<ellipse cx="318.358" cy="71.81" rx="20.6389" ry="20.642" fill="#5466F9"/>
<rect width="21" height="21" transform="translate(308 61.168)" fill="#5466F9"/>
<path d="M325.5 70.3555V67.118C325.5 65.6478 325.5 64.9128 325.214 64.3512C324.962 63.8573 324.561 63.4557 324.067 63.2041C323.505 62.918 322.77 62.918 321.3 62.918H315.7C314.23 62.918 313.495 62.918 312.933 63.2041C312.439 63.4557 312.038 63.8573 311.786 64.3512C311.5 64.9128 311.5 65.6478 311.5 67.118V76.218C311.5 77.6881 311.5 78.4232 311.786 78.9847C312.038 79.4786 312.439 79.8802 312.933 80.1319C313.495 80.418 314.23 80.418 315.7 80.418H318.5M320.25 70.793H315M316.75 74.293H315M322 67.293H315M323.75 79.543V74.293M321.125 76.918H326.375" stroke="white" stroke-width="1.6" stroke-linecap="round" stroke-linejoin="round"/>
</g>
<defs>
<filter id="filter0_ddd_5055_21812" x="1.25704" y="131.158" width="388.486" height="821.794" filterUnits="userSpaceOnUse" color-interpolation-filters="sRGB">
<feFlood flood-opacity="0" result="BackgroundImageFix"/>
<feColorMatrix in="SourceAlpha" type="matrix" values="0 0 0 0 0 0 0 0 0 0 0 0 0 0 0 0 0 0 127 0" result="hardAlpha"/>
<feMorphology radius="1.98023" operator="erode" in="SourceAlpha" result="effect1_dropShadow_5055_21812"/>
<feOffset dy="3.96046"/>
<feGaussianBlur stdDeviation="10.8913"/>
<feColorMatrix type="matrix" values="0 0 0 0 0.180392 0 0 0 0 0.227451 0 0 0 0 0.619608 0 0 0 0.01 0"/>
<feBlend mode="normal" in2="BackgroundImageFix" result="effect1_dropShadow_5055_21812"/>
<feColorMatrix in="SourceAlpha" type="matrix" values="0 0 0 0 0 0 0 0 0 0 0 0 0 0 0 0 0 0 127 0" result="hardAlpha"/>
<feMorphology radius="3.96046" operator="erode" in="SourceAlpha" result="effect2_dropShadow_5055_21812"/>
<feOffset dy="11.8814"/>
<feGaussianBlur stdDeviation="14.8517"/>
<feColorMatrix type="matrix" values="0 0 0 0 0.180392 0 0 0 0 0.227451 0 0 0 0 0.619608 0 0 0 0.04 0"/>
<feBlend mode="normal" in2="effect1_dropShadow_5055_21812" result="effect2_dropShadow_5055_21812"/>
<feColorMatrix in="SourceAlpha" type="matrix" values="0 0 0 0 0 0 0 0 0 0 0 0 0 0 0 0 0 0 127 0" result="hardAlpha"/>
<feOffset/>
<feGaussianBlur stdDeviation="0.495057"/>
<feComposite in2="hardAlpha" operator="out"/>
<feColorMatrix type="matrix" values="0 0 0 0 0.18 0 0 0 0 0.227826 0 0 0 0 0.62 0 0 0 0.3 0"/>
<feBlend mode="normal" in2="effect2_dropShadow_5055_21812" result="effect3_dropShadow_5055_21812"/>
<feBlend mode="normal" in="SourceGraphic" in2="effect3_dropShadow_5055_21812" result="shape"/>
</filter>
<filter id="filter1_dd_5055_21812" x="-28.6514" y="91.3486" width="448.303" height="879.631" filterUnits="userSpaceOnUse" color-interpolation-filters="sRGB">
<feFlood flood-opacity="0" result="BackgroundImageFix"/>
<feColorMatrix in="SourceAlpha" type="matrix" values="0 0 0 0 0 0 0 0 0 0 0 0 0 0 0 0 0 0 127 0" result="hardAlpha"/>
<feOffset/>
<feColorMatrix type="matrix" values="0 0 0 0 0 0 0 0 0 0 0 0 0 0 0 0 0 0 0.04 0"/>
<feBlend mode="normal" in2="BackgroundImageFix" result="effect1_dropShadow_5055_21812"/>
<feColorMatrix in="SourceAlpha" type="matrix" values="0 0 0 0 0 0 0 0 0 0 0 0 0 0 0 0 0 0 127 0" result="hardAlpha"/>
<feOffset/>
<feGaussianBlur stdDeviation="27.8257"/>
<feColorMatrix type="matrix" values="0 0 0 0 0 0 0 0 0 0 0 0 0 0 0 0 0 0 0.02 0"/>
<feBlend mode="normal" in2="effect1_dropShadow_5055_21812" result="effect2_dropShadow_5055_21812"/>
<feBlend mode="normal" in="SourceGraphic" in2="effect2_dropShadow_5055_21812" result="shape"/>
</filter>
<filter id="filter2_ddd_5055_21812" x="0" y="0" width="390" height="161.09" filterUnits="userSpaceOnUse" color-interpolation-filters="sRGB">
<feFlood flood-opacity="0" result="BackgroundImageFix"/>
<feColorMatrix in="SourceAlpha" type="matrix" values="0 0 0 0 0 0 0 0 0 0 0 0 0 0 0 0 0 0 127 0" result="hardAlpha"/>
<feMorphology radius="2" operator="erode" in="SourceAlpha" result="effect1_dropShadow_5055_21812"/>
<feOffset dy="4"/>
<feGaussianBlur stdDeviation="11"/>
<feColorMatrix type="matrix" values="0 0 0 0 0.180392 0 0 0 0 0.227451 0 0 0 0 0.619608 0 0 0 0.01 0"/>
<feBlend mode="normal" in2="BackgroundImageFix" result="effect1_dropShadow_5055_21812"/>
<feColorMatrix in="SourceAlpha" type="matrix" values="0 0 0 0 0 0 0 0 0 0 0 0 0 0 0 0 0 0 127 0" result="hardAlpha"/>
<feMorphology radius="4" operator="erode" in="SourceAlpha" result="effect2_dropShadow_5055_21812"/>
<feOffset dy="12"/>
<feGaussianBlur stdDeviation="15"/>
<feColorMatrix type="matrix" values="0 0 0 0 0.180392 0 0 0 0 0.227451 0 0 0 0 0.619608 0 0 0 0.04 0"/>
<feBlend mode="normal" in2="effect1_dropShadow_5055_21812" result="effect2_dropShadow_5055_21812"/>
<feColorMatrix in="SourceAlpha" type="matrix" values="0 0 0 0 0 0 0 0 0 0 0 0 0 0 0 0 0 0 127 0" result="hardAlpha"/>
<feOffset/>
<feGaussianBlur stdDeviation="0.5"/>
<feComposite in2="hardAlpha" operator="out"/>
<feColorMatrix type="matrix" values="0 0 0 0 0.18 0 0 0 0 0.227826 0 0 0 0 0.62 0 0 0 0.3 0"/>
<feBlend mode="normal" in2="effect2_dropShadow_5055_21812" result="effect3_dropShadow_5055_21812"/>
<feBlend mode="normal" in="SourceGraphic" in2="effect3_dropShadow_5055_21812" result="shape"/>
</filter>
<clipPath id="clip0_5055_21812">
<rect x="27" y="147" width="337" height="768.328" rx="16" fill="white"/>
</clipPath>
</defs>
</svg>
