<svg width="490" height="375" viewBox="0 0 490 375" fill="none" xmlns="http://www.w3.org/2000/svg">
<g filter="url(#filter0_ddd_5055_21812)">
<g clip-path="url(#clip0_5055_21812)">
<rect width="336.144" height="134.509" transform="translate(76.8594 147)" fill="#F5F6FF"/>
<mask id="path-2-inside-1_5055_21812" fill="white">
<path d="M76.8594 147H413.003V281.509H76.8594V147Z"/>
</mask>
<path d="M76.8594 147H413.003V281.509H76.8594V147Z" fill="white"/>
<path d="M105.311 173.957H108.355C108.803 173.957 109.176 173.832 109.474 173.583C109.773 173.325 109.922 172.957 109.922 172.479C109.922 171.942 109.788 171.564 109.519 171.345C109.25 171.127 108.863 171.017 108.355 171.017H105.311V173.957ZM103.446 169.495H108.624C109.579 169.495 110.345 169.714 110.922 170.152C111.498 170.589 111.787 171.251 111.787 172.136C111.787 172.673 111.653 173.136 111.384 173.524C111.125 173.902 110.752 174.195 110.265 174.404V174.434C110.922 174.573 111.419 174.887 111.757 175.374C112.095 175.851 112.264 176.453 112.264 177.179C112.264 177.597 112.19 177.99 112.041 178.358C111.891 178.716 111.658 179.029 111.339 179.298C111.021 179.557 110.613 179.765 110.116 179.925C109.618 180.074 109.027 180.148 108.34 180.148H103.446V169.495ZM105.311 178.627H108.609C109.176 178.627 109.614 178.482 109.922 178.194C110.24 177.895 110.399 177.478 110.399 176.941C110.399 176.413 110.24 176.011 109.922 175.732C109.614 175.444 109.176 175.299 108.609 175.299H105.311V178.627ZM120.174 178.433C120.174 178.641 120.199 178.791 120.248 178.88C120.308 178.97 120.417 179.014 120.576 179.014C120.626 179.014 120.686 179.014 120.756 179.014C120.825 179.014 120.905 179.005 120.994 178.985V180.163C120.935 180.183 120.855 180.203 120.756 180.223C120.666 180.253 120.572 180.278 120.472 180.298C120.373 180.318 120.273 180.332 120.174 180.342C120.074 180.352 119.99 180.357 119.92 180.357C119.572 180.357 119.283 180.288 119.055 180.148C118.826 180.009 118.677 179.765 118.607 179.417C118.269 179.746 117.851 179.984 117.354 180.134C116.866 180.283 116.394 180.357 115.936 180.357C115.588 180.357 115.255 180.308 114.937 180.208C114.618 180.119 114.335 179.984 114.086 179.805C113.847 179.616 113.653 179.383 113.504 179.104C113.365 178.816 113.295 178.482 113.295 178.104C113.295 177.627 113.38 177.239 113.549 176.941C113.728 176.642 113.957 176.408 114.235 176.239C114.524 176.07 114.842 175.951 115.19 175.881C115.548 175.802 115.906 175.742 116.265 175.702C116.573 175.642 116.866 175.603 117.145 175.583C117.423 175.553 117.667 175.508 117.876 175.449C118.095 175.389 118.264 175.299 118.383 175.18C118.513 175.051 118.577 174.862 118.577 174.613C118.577 174.394 118.522 174.215 118.413 174.076C118.314 173.937 118.184 173.832 118.025 173.763C117.876 173.683 117.707 173.633 117.518 173.613C117.329 173.583 117.15 173.569 116.981 173.569C116.503 173.569 116.11 173.668 115.802 173.867C115.494 174.066 115.32 174.374 115.28 174.792H113.579C113.609 174.295 113.728 173.882 113.937 173.554C114.146 173.225 114.409 172.962 114.728 172.763C115.056 172.564 115.424 172.425 115.832 172.345C116.24 172.266 116.657 172.226 117.085 172.226C117.463 172.226 117.836 172.266 118.204 172.345C118.572 172.425 118.9 172.554 119.189 172.733C119.487 172.912 119.726 173.146 119.905 173.434C120.084 173.713 120.174 174.056 120.174 174.464V178.433ZM118.473 176.284C118.214 176.453 117.896 176.558 117.518 176.597C117.14 176.627 116.762 176.677 116.384 176.747C116.205 176.776 116.031 176.821 115.862 176.881C115.693 176.931 115.543 177.005 115.414 177.105C115.285 177.194 115.18 177.319 115.101 177.478C115.031 177.627 114.996 177.811 114.996 178.03C114.996 178.219 115.051 178.378 115.16 178.507C115.27 178.637 115.399 178.741 115.548 178.821C115.707 178.89 115.877 178.94 116.056 178.97C116.245 179 116.414 179.014 116.563 179.014C116.752 179.014 116.956 178.99 117.175 178.94C117.393 178.89 117.597 178.806 117.786 178.686C117.985 178.567 118.149 178.418 118.279 178.239C118.408 178.05 118.473 177.821 118.473 177.552V176.284ZM122.004 172.435H123.615V173.569L123.645 173.598C123.904 173.171 124.242 172.837 124.66 172.599C125.077 172.35 125.54 172.226 126.047 172.226C126.893 172.226 127.559 172.445 128.047 172.882C128.534 173.32 128.778 173.976 128.778 174.852V180.148H127.077V175.299C127.057 174.693 126.928 174.255 126.689 173.986C126.45 173.708 126.077 173.569 125.57 173.569C125.281 173.569 125.023 173.623 124.794 173.733C124.565 173.832 124.371 173.976 124.212 174.165C124.053 174.344 123.929 174.558 123.839 174.807C123.75 175.056 123.705 175.319 123.705 175.598V180.148H122.004V172.435ZM130.616 169.495H132.317V175.553L135.391 172.435H137.479L134.525 175.269L137.763 180.148H135.689L133.332 176.403L132.317 177.388V180.148H130.616V169.495ZM141.962 169.495H150.586V171.107H147.199V180.148H145.334V171.107H141.962V169.495ZM150.213 172.435H151.809V173.927H151.839C151.889 173.718 151.983 173.514 152.122 173.315C152.272 173.116 152.446 172.937 152.645 172.778C152.853 172.609 153.082 172.474 153.331 172.375C153.58 172.275 153.833 172.226 154.092 172.226C154.291 172.226 154.425 172.231 154.495 172.241C154.574 172.251 154.654 172.261 154.733 172.271V173.912C154.614 173.892 154.49 173.877 154.36 173.867C154.241 173.847 154.122 173.837 154.002 173.837C153.714 173.837 153.44 173.897 153.182 174.016C152.933 174.126 152.714 174.295 152.525 174.523C152.336 174.742 152.187 175.016 152.078 175.344C151.968 175.672 151.914 176.05 151.914 176.478V180.148H150.213V172.435ZM161.919 178.433C161.919 178.641 161.943 178.791 161.993 178.88C162.053 178.97 162.162 179.014 162.321 179.014C162.371 179.014 162.431 179.014 162.5 179.014C162.57 179.014 162.65 179.005 162.739 178.985V180.163C162.679 180.183 162.6 180.203 162.5 180.223C162.411 180.253 162.316 180.278 162.217 180.298C162.117 180.318 162.018 180.332 161.919 180.342C161.819 180.352 161.734 180.357 161.665 180.357C161.317 180.357 161.028 180.288 160.799 180.148C160.571 180.009 160.422 179.765 160.352 179.417C160.014 179.746 159.596 179.984 159.099 180.134C158.611 180.283 158.139 180.357 157.681 180.357C157.333 180.357 157 180.308 156.681 180.208C156.363 180.119 156.08 179.984 155.831 179.805C155.592 179.616 155.398 179.383 155.249 179.104C155.11 178.816 155.04 178.482 155.04 178.104C155.04 177.627 155.125 177.239 155.294 176.941C155.473 176.642 155.702 176.408 155.98 176.239C156.269 176.07 156.587 175.951 156.935 175.881C157.293 175.802 157.651 175.742 158.009 175.702C158.318 175.642 158.611 175.603 158.89 175.583C159.168 175.553 159.412 175.508 159.621 175.449C159.84 175.389 160.009 175.299 160.128 175.18C160.257 175.051 160.322 174.862 160.322 174.613C160.322 174.394 160.267 174.215 160.158 174.076C160.058 173.937 159.929 173.832 159.77 173.763C159.621 173.683 159.452 173.633 159.263 173.613C159.074 173.583 158.895 173.569 158.726 173.569C158.248 173.569 157.855 173.668 157.547 173.867C157.239 174.066 157.064 174.374 157.025 174.792H155.324C155.354 174.295 155.473 173.882 155.682 173.554C155.891 173.225 156.154 172.962 156.473 172.763C156.801 172.564 157.169 172.425 157.577 172.345C157.985 172.266 158.402 172.226 158.83 172.226C159.208 172.226 159.581 172.266 159.949 172.345C160.317 172.425 160.645 172.554 160.934 172.733C161.232 172.912 161.471 173.146 161.65 173.434C161.829 173.713 161.919 174.056 161.919 174.464V178.433ZM160.218 176.284C159.959 176.453 159.641 176.558 159.263 176.597C158.885 176.627 158.507 176.677 158.129 176.747C157.95 176.776 157.776 176.821 157.607 176.881C157.437 176.931 157.288 177.005 157.159 177.105C157.03 177.194 156.925 177.319 156.846 177.478C156.776 177.627 156.741 177.811 156.741 178.03C156.741 178.219 156.796 178.378 156.905 178.507C157.015 178.637 157.144 178.741 157.293 178.821C157.452 178.89 157.621 178.94 157.801 178.97C157.989 179 158.159 179.014 158.308 179.014C158.497 179.014 158.701 178.99 158.92 178.94C159.138 178.89 159.342 178.806 159.531 178.686C159.73 178.567 159.894 178.418 160.024 178.239C160.153 178.05 160.218 177.821 160.218 177.552V176.284ZM163.749 172.435H165.36V173.569L165.39 173.598C165.649 173.171 165.987 172.837 166.405 172.599C166.822 172.35 167.285 172.226 167.792 172.226C168.638 172.226 169.304 172.445 169.791 172.882C170.279 173.32 170.523 173.976 170.523 174.852V180.148H168.822V175.299C168.802 174.693 168.672 174.255 168.434 173.986C168.195 173.708 167.822 173.569 167.315 173.569C167.026 173.569 166.768 173.623 166.539 173.733C166.31 173.832 166.116 173.976 165.957 174.165C165.798 174.344 165.673 174.558 165.584 174.807C165.494 175.056 165.45 175.319 165.45 175.598V180.148H163.749V172.435ZM173.599 177.672C173.649 178.169 173.838 178.517 174.166 178.716C174.495 178.915 174.888 179.014 175.345 179.014C175.504 179.014 175.683 179.005 175.882 178.985C176.091 178.955 176.285 178.905 176.464 178.835C176.643 178.766 176.787 178.666 176.897 178.537C177.016 178.398 177.071 178.219 177.061 178C177.051 177.781 176.971 177.602 176.822 177.463C176.673 177.324 176.479 177.214 176.24 177.135C176.012 177.045 175.748 176.97 175.45 176.911C175.151 176.851 174.848 176.786 174.539 176.717C174.221 176.647 173.913 176.563 173.614 176.463C173.326 176.364 173.062 176.229 172.824 176.06C172.595 175.891 172.411 175.677 172.271 175.419C172.132 175.15 172.063 174.822 172.063 174.434C172.063 174.016 172.162 173.668 172.361 173.39C172.57 173.101 172.828 172.872 173.137 172.703C173.455 172.524 173.803 172.4 174.181 172.33C174.569 172.261 174.937 172.226 175.285 172.226C175.683 172.226 176.061 172.271 176.419 172.36C176.787 172.44 177.116 172.574 177.404 172.763C177.702 172.952 177.946 173.201 178.135 173.509C178.334 173.807 178.458 174.17 178.508 174.598H176.733C176.653 174.19 176.464 173.917 176.166 173.777C175.877 173.638 175.544 173.569 175.166 173.569C175.047 173.569 174.902 173.579 174.733 173.598C174.574 173.618 174.42 173.658 174.271 173.718C174.132 173.768 174.012 173.847 173.913 173.957C173.813 174.056 173.764 174.19 173.764 174.359C173.764 174.568 173.833 174.737 173.972 174.867C174.122 174.996 174.311 175.105 174.539 175.195C174.778 175.274 175.047 175.344 175.345 175.404C175.643 175.463 175.952 175.528 176.27 175.598C176.578 175.667 176.882 175.752 177.18 175.851C177.479 175.951 177.742 176.085 177.971 176.254C178.21 176.423 178.399 176.637 178.538 176.896C178.687 177.154 178.762 177.473 178.762 177.851C178.762 178.308 178.657 178.696 178.448 179.014C178.24 179.333 177.966 179.591 177.628 179.79C177.3 179.989 176.932 180.134 176.524 180.223C176.116 180.313 175.713 180.357 175.315 180.357C174.828 180.357 174.375 180.303 173.957 180.193C173.55 180.084 173.192 179.92 172.883 179.701C172.585 179.472 172.346 179.194 172.167 178.865C171.998 178.527 171.908 178.129 171.898 177.672H173.599ZM179.292 172.435H180.561V171.793C180.561 171.306 180.62 170.913 180.74 170.614C180.859 170.306 181.018 170.072 181.217 169.913C181.416 169.744 181.64 169.635 181.888 169.585C182.147 169.525 182.416 169.495 182.694 169.495C183.241 169.495 183.639 169.53 183.888 169.6V170.928C183.778 170.898 183.659 170.878 183.53 170.868C183.41 170.848 183.266 170.838 183.097 170.838C182.868 170.838 182.669 170.893 182.5 171.002C182.341 171.112 182.261 171.326 182.261 171.644V172.435H183.709V173.703H182.261V180.148H180.561V173.703H179.292V172.435ZM190.056 175.613C190.036 175.344 189.977 175.085 189.877 174.837C189.788 174.588 189.658 174.374 189.489 174.195C189.33 174.006 189.131 173.857 188.892 173.748C188.664 173.628 188.405 173.569 188.117 173.569C187.818 173.569 187.545 173.623 187.296 173.733C187.057 173.832 186.848 173.976 186.669 174.165C186.5 174.344 186.361 174.558 186.252 174.807C186.152 175.056 186.097 175.324 186.087 175.613H190.056ZM186.087 176.732C186.087 177.03 186.127 177.319 186.207 177.597C186.296 177.876 186.426 178.119 186.595 178.328C186.764 178.537 186.978 178.706 187.236 178.835C187.495 178.955 187.803 179.014 188.161 179.014C188.659 179.014 189.057 178.91 189.355 178.701C189.663 178.482 189.892 178.159 190.041 177.731H191.653C191.563 178.149 191.409 178.522 191.19 178.85C190.971 179.179 190.708 179.457 190.399 179.686C190.091 179.905 189.743 180.069 189.355 180.178C188.977 180.298 188.579 180.357 188.161 180.357C187.555 180.357 187.017 180.258 186.55 180.059C186.082 179.86 185.685 179.581 185.356 179.223C185.038 178.865 184.794 178.438 184.625 177.94C184.466 177.443 184.387 176.896 184.387 176.299C184.387 175.752 184.471 175.235 184.64 174.747C184.819 174.25 185.068 173.817 185.386 173.449C185.714 173.071 186.107 172.773 186.565 172.554C187.022 172.335 187.54 172.226 188.117 172.226C188.723 172.226 189.265 172.355 189.743 172.614C190.23 172.862 190.633 173.196 190.951 173.613C191.27 174.031 191.499 174.514 191.638 175.061C191.787 175.598 191.827 176.155 191.757 176.732H186.087ZM193.05 172.435H194.647V173.927H194.677C194.726 173.718 194.821 173.514 194.96 173.315C195.109 173.116 195.283 172.937 195.482 172.778C195.691 172.609 195.92 172.474 196.169 172.375C196.417 172.275 196.671 172.226 196.93 172.226C197.128 172.226 197.263 172.231 197.332 172.241C197.412 172.251 197.492 172.261 197.571 172.271V173.912C197.452 173.892 197.327 173.877 197.198 173.867C197.079 173.847 196.959 173.837 196.84 173.837C196.552 173.837 196.278 173.897 196.019 174.016C195.771 174.126 195.552 174.295 195.363 174.523C195.174 174.742 195.025 175.016 194.915 175.344C194.806 175.672 194.751 176.05 194.751 176.478V180.148H193.05V172.435Z" fill="#41415A"/>
<rect x="102.312" y="196.273" width="139.22" height="65.0887" rx="8.8286" fill="#FBFBFF"/>
<path d="M131.647 227.006C132.137 227.006 132.382 227.006 132.569 226.911C132.734 226.827 132.868 226.693 132.952 226.528C133.047 226.341 133.047 226.096 133.047 225.606V224.906C133.047 224.416 133.047 224.171 132.952 223.984C132.868 223.819 132.734 223.685 132.569 223.601C132.382 223.506 132.137 223.506 131.647 223.506H118.697C118.207 223.506 117.962 223.506 117.775 223.601C117.61 223.685 117.476 223.819 117.392 223.984C117.297 224.171 117.297 224.416 117.297 224.906L117.297 225.606C117.297 226.096 117.297 226.341 117.392 226.528C117.476 226.693 117.61 226.827 117.775 226.911C117.962 227.006 118.207 227.006 118.697 227.006H131.647Z" fill="#BBC3FD"/>
<path d="M131.647 216.506C132.137 216.506 132.382 216.506 132.569 216.411C132.734 216.327 132.868 216.193 132.952 216.028C133.047 215.841 133.047 215.596 133.047 215.106V214.129C133.047 213.728 133.047 213.528 132.976 213.363C132.913 213.217 132.812 213.091 132.683 212.998C132.537 212.893 132.342 212.849 131.951 212.762L125.476 211.323C125.362 211.298 125.306 211.286 125.248 211.281C125.197 211.276 125.146 211.276 125.095 211.281C125.038 211.286 124.982 211.298 124.868 211.323L118.393 212.762C118.002 212.849 117.806 212.893 117.66 212.998C117.532 213.091 117.431 213.217 117.368 213.363C117.297 213.528 117.297 213.728 117.297 214.129L117.297 215.106C117.297 215.596 117.297 215.841 117.392 216.028C117.476 216.193 117.61 216.327 117.775 216.411C117.962 216.506 118.207 216.506 118.697 216.506H131.647Z" fill="#BBC3FD"/>
<path d="M119.047 216.506V223.506M122.984 216.506V223.506M127.359 216.506V223.506M131.297 216.506V223.506M117.297 224.906L117.297 225.606C117.297 226.096 117.297 226.341 117.392 226.528C117.476 226.693 117.61 226.827 117.775 226.911C117.962 227.006 118.207 227.006 118.697 227.006H131.647C132.137 227.006 132.382 227.006 132.569 226.911C132.734 226.827 132.868 226.693 132.952 226.528C133.047 226.341 133.047 226.096 133.047 225.606V224.906C133.047 224.416 133.047 224.171 132.952 223.984C132.868 223.819 132.734 223.685 132.569 223.601C132.382 223.506 132.137 223.506 131.647 223.506H118.697C118.207 223.506 117.962 223.506 117.775 223.601C117.61 223.685 117.476 223.819 117.392 223.984C117.297 224.171 117.297 224.416 117.297 224.906ZM124.868 211.323L118.393 212.762C118.002 212.849 117.806 212.893 117.66 212.998C117.532 213.091 117.431 213.217 117.368 213.363C117.297 213.528 117.297 213.728 117.297 214.129L117.297 215.106C117.297 215.596 117.297 215.841 117.392 216.028C117.476 216.193 117.61 216.327 117.775 216.411C117.962 216.506 118.207 216.506 118.697 216.506H131.647C132.137 216.506 132.382 216.506 132.569 216.411C132.734 216.327 132.868 216.193 132.952 216.028C133.047 215.841 133.047 215.596 133.047 215.106V214.129C133.047 213.728 133.047 213.528 132.976 213.363C132.913 213.217 132.812 213.091 132.683 212.998C132.537 212.893 132.342 212.849 131.951 212.762L125.476 211.323C125.362 211.298 125.306 211.286 125.248 211.281C125.197 211.276 125.146 211.276 125.095 211.281C125.038 211.286 124.982 211.298 124.868 211.323Z" stroke="#5466F9" stroke-width="1.6" stroke-linecap="round" stroke-linejoin="round"/>
<path d="M123.169 252.28C127.081 252.28 130.253 249.109 130.253 245.197C130.253 241.285 127.081 238.113 123.169 238.113C119.257 238.113 116.086 241.285 116.086 245.197C116.086 249.109 119.257 252.28 123.169 252.28Z" fill="#5466F9"/>
<path d="M119.982 245.197L122.107 247.322L126.357 243.072M130.253 245.197C130.253 249.109 127.081 252.28 123.169 252.28C119.257 252.28 116.086 249.109 116.086 245.197C116.086 241.285 119.257 238.113 123.169 238.113C127.081 238.113 130.253 241.285 130.253 245.197Z" stroke="white" stroke-width="1.2" stroke-linecap="round" stroke-linejoin="round"/>
<path d="M117.068 246.179L118.51 242.21H118.534L119.952 246.179H117.068ZM117.914 241.184L114.6 249.695H115.757L116.71 247.133H120.31L121.24 249.695H122.491L119.166 241.184H117.914ZM128.266 249.695V243.533H127.253V247.013C127.253 247.291 127.213 247.55 127.133 247.788C127.062 248.019 126.951 248.221 126.8 248.396C126.649 248.571 126.458 248.706 126.228 248.801C126.005 248.897 125.739 248.944 125.429 248.944C125.04 248.944 124.734 248.833 124.511 248.611C124.289 248.388 124.177 248.086 124.177 247.705V243.533H123.164V247.585C123.164 247.919 123.196 248.225 123.259 248.503C123.331 248.773 123.45 249.008 123.617 249.207C123.784 249.405 124.003 249.56 124.273 249.671C124.543 249.775 124.881 249.826 125.286 249.826C125.739 249.826 126.132 249.739 126.466 249.564C126.8 249.381 127.074 249.099 127.288 248.718H127.312V249.695H128.266ZM131.194 243.533V241.685H130.181V243.533H129.132V244.427H130.181V248.348C130.181 248.634 130.209 248.865 130.264 249.04C130.32 249.215 130.404 249.35 130.515 249.445C130.634 249.54 130.785 249.608 130.968 249.648C131.158 249.679 131.385 249.695 131.647 249.695H132.422V248.801H131.957C131.798 248.801 131.667 248.797 131.564 248.789C131.468 248.773 131.393 248.746 131.337 248.706C131.282 248.666 131.242 248.611 131.218 248.539C131.202 248.468 131.194 248.372 131.194 248.253V244.427H132.422V243.533H131.194ZM134.287 246.62C134.287 246.246 134.334 245.917 134.43 245.631C134.533 245.337 134.672 245.09 134.847 244.892C135.022 244.693 135.224 244.542 135.455 244.439C135.693 244.335 135.943 244.284 136.206 244.284C136.468 244.284 136.714 244.335 136.945 244.439C137.183 244.542 137.39 244.693 137.565 244.892C137.739 245.09 137.875 245.337 137.97 245.631C138.073 245.917 138.125 246.246 138.125 246.62C138.125 246.993 138.073 247.327 137.97 247.621C137.875 247.907 137.739 248.15 137.565 248.348C137.39 248.539 137.183 248.686 136.945 248.789C136.714 248.893 136.468 248.944 136.206 248.944C135.943 248.944 135.693 248.893 135.455 248.789C135.224 248.686 135.022 248.539 134.847 248.348C134.672 248.15 134.533 247.907 134.43 247.621C134.334 247.327 134.287 246.993 134.287 246.62ZM133.214 246.62C133.214 247.073 133.277 247.494 133.405 247.883C133.532 248.273 133.722 248.615 133.977 248.909C134.231 249.195 134.545 249.421 134.918 249.588C135.292 249.747 135.721 249.826 136.206 249.826C136.698 249.826 137.128 249.747 137.493 249.588C137.867 249.421 138.18 249.195 138.435 248.909C138.689 248.615 138.88 248.273 139.007 247.883C139.134 247.494 139.198 247.073 139.198 246.62C139.198 246.167 139.134 245.746 139.007 245.356C138.88 244.959 138.689 244.617 138.435 244.331C138.18 244.037 137.867 243.807 137.493 243.64C137.128 243.473 136.698 243.39 136.206 243.39C135.721 243.39 135.292 243.473 134.918 243.64C134.545 243.807 134.231 244.037 133.977 244.331C133.722 244.617 133.532 244.959 133.405 245.356C133.277 245.746 133.214 246.167 133.214 246.62ZM143.877 241.184V249.695H145.009V246.06H147.775C148.053 246.06 148.275 246.103 148.442 246.191C148.609 246.27 148.744 246.382 148.847 246.525C148.951 246.66 149.026 246.823 149.074 247.013C149.122 247.196 149.161 247.391 149.193 247.597C149.233 247.804 149.257 248.015 149.265 248.229C149.272 248.444 149.28 248.646 149.288 248.837C149.296 249.02 149.312 249.187 149.336 249.338C149.368 249.489 149.423 249.608 149.503 249.695H150.766C150.647 249.552 150.556 249.389 150.492 249.207C150.437 249.016 150.393 248.817 150.361 248.611C150.329 248.404 150.31 248.193 150.302 247.979C150.294 247.764 150.282 247.554 150.266 247.347C150.242 247.14 150.206 246.942 150.159 246.751C150.119 246.56 150.051 246.389 149.956 246.239C149.868 246.08 149.745 245.944 149.586 245.833C149.435 245.722 149.237 245.643 148.99 245.595V245.571C149.507 245.428 149.88 245.162 150.111 244.772C150.349 244.383 150.468 243.93 150.468 243.413C150.468 242.722 150.238 242.178 149.777 241.78C149.324 241.383 148.692 241.184 147.882 241.184H143.877ZM147.369 245.106H145.009V242.138H147.822C148.355 242.138 148.74 242.273 148.978 242.543C149.217 242.813 149.336 243.163 149.336 243.592C149.336 243.902 149.28 244.156 149.169 244.355C149.066 244.546 148.923 244.701 148.74 244.82C148.565 244.931 148.359 245.007 148.12 245.047C147.882 245.086 147.632 245.106 147.369 245.106ZM156.149 246.024H152.609C152.625 245.786 152.676 245.563 152.764 245.356C152.851 245.142 152.971 244.955 153.122 244.796C153.272 244.637 153.451 244.514 153.658 244.427C153.872 244.331 154.111 244.284 154.373 244.284C154.627 244.284 154.858 244.331 155.064 244.427C155.279 244.514 155.462 244.637 155.613 244.796C155.772 244.947 155.895 245.13 155.982 245.345C156.078 245.559 156.133 245.786 156.149 246.024ZM157.127 247.74H156.125C156.038 248.146 155.855 248.448 155.577 248.646C155.307 248.845 154.957 248.944 154.528 248.944C154.194 248.944 153.904 248.889 153.658 248.777C153.412 248.666 153.209 248.519 153.05 248.336C152.891 248.146 152.776 247.931 152.704 247.693C152.633 247.446 152.601 247.188 152.609 246.918H157.222C157.238 246.544 157.202 246.151 157.115 245.738C157.035 245.325 156.884 244.943 156.662 244.594C156.447 244.244 156.157 243.958 155.792 243.735C155.434 243.505 154.981 243.39 154.433 243.39C154.012 243.39 153.622 243.469 153.265 243.628C152.915 243.787 152.609 244.009 152.347 244.296C152.092 244.582 151.894 244.919 151.751 245.309C151.608 245.698 151.536 246.127 151.536 246.596C151.552 247.065 151.62 247.498 151.739 247.895C151.866 248.293 152.053 248.634 152.299 248.921C152.545 249.207 152.847 249.429 153.205 249.588C153.57 249.747 154 249.826 154.492 249.826C155.192 249.826 155.772 249.652 156.233 249.302C156.694 248.952 156.992 248.432 157.127 247.74ZM162.456 245.511H163.505C163.465 245.146 163.37 244.832 163.219 244.57C163.068 244.3 162.873 244.077 162.635 243.902C162.405 243.727 162.134 243.6 161.824 243.521C161.522 243.433 161.197 243.39 160.847 243.39C160.362 243.39 159.937 243.477 159.572 243.652C159.206 243.819 158.9 244.053 158.654 244.355C158.415 244.649 158.236 244.999 158.117 245.404C157.998 245.801 157.938 246.231 157.938 246.691C157.938 247.152 157.998 247.578 158.117 247.967C158.244 248.348 158.427 248.678 158.666 248.956C158.912 249.234 159.214 249.449 159.572 249.6C159.937 249.751 160.354 249.826 160.823 249.826C161.61 249.826 162.23 249.62 162.683 249.207C163.144 248.793 163.43 248.205 163.541 247.442H162.504C162.44 247.919 162.265 248.289 161.979 248.551C161.701 248.813 161.312 248.944 160.811 248.944C160.493 248.944 160.219 248.881 159.989 248.754C159.758 248.626 159.572 248.46 159.428 248.253C159.285 248.038 159.178 247.796 159.107 247.526C159.043 247.256 159.011 246.978 159.011 246.691C159.011 246.382 159.043 246.084 159.107 245.797C159.17 245.503 159.274 245.245 159.417 245.023C159.568 244.8 159.766 244.621 160.013 244.486C160.259 244.351 160.565 244.284 160.93 244.284C161.36 244.284 161.701 244.391 161.956 244.605C162.21 244.82 162.377 245.122 162.456 245.511ZM165.414 246.62C165.414 246.246 165.461 245.917 165.557 245.631C165.66 245.337 165.799 245.09 165.974 244.892C166.149 244.693 166.351 244.542 166.582 244.439C166.82 244.335 167.071 244.284 167.333 244.284C167.595 244.284 167.841 244.335 168.072 244.439C168.31 244.542 168.517 244.693 168.692 244.892C168.866 245.09 169.002 245.337 169.097 245.631C169.2 245.917 169.252 246.246 169.252 246.62C169.252 246.993 169.2 247.327 169.097 247.621C169.002 247.907 168.866 248.15 168.692 248.348C168.517 248.539 168.31 248.686 168.072 248.789C167.841 248.893 167.595 248.944 167.333 248.944C167.071 248.944 166.82 248.893 166.582 248.789C166.351 248.686 166.149 248.539 165.974 248.348C165.799 248.15 165.66 247.907 165.557 247.621C165.461 247.327 165.414 246.993 165.414 246.62ZM164.341 246.62C164.341 247.073 164.404 247.494 164.532 247.883C164.659 248.273 164.849 248.615 165.104 248.909C165.358 249.195 165.672 249.421 166.045 249.588C166.419 249.747 166.848 249.826 167.333 249.826C167.825 249.826 168.255 249.747 168.62 249.588C168.994 249.421 169.308 249.195 169.562 248.909C169.816 248.615 170.007 248.273 170.134 247.883C170.261 247.494 170.325 247.073 170.325 246.62C170.325 246.167 170.261 245.746 170.134 245.356C170.007 244.959 169.816 244.617 169.562 244.331C169.308 244.037 168.994 243.807 168.62 243.64C168.255 243.473 167.825 243.39 167.333 243.39C166.848 243.39 166.419 243.473 166.045 243.64C165.672 243.807 165.358 244.037 165.104 244.331C164.849 244.617 164.659 244.959 164.532 245.356C164.404 245.746 164.341 246.167 164.341 246.62ZM171.519 243.533V249.695H172.532V246.215C172.532 245.937 172.568 245.682 172.64 245.452C172.719 245.213 172.834 245.007 172.985 244.832C173.136 244.657 173.323 244.522 173.546 244.427C173.776 244.331 174.046 244.284 174.356 244.284C174.746 244.284 175.052 244.395 175.274 244.617C175.497 244.84 175.608 245.142 175.608 245.523V249.695H176.621V245.643C176.621 245.309 176.585 245.007 176.514 244.737C176.45 244.458 176.335 244.22 176.168 244.021C176.001 243.823 175.783 243.668 175.512 243.557C175.242 243.445 174.905 243.39 174.499 243.39C173.585 243.39 172.918 243.763 172.497 244.51H172.473V243.533H171.519ZM182.327 245.511H183.376C183.336 245.146 183.241 244.832 183.09 244.57C182.939 244.3 182.744 244.077 182.506 243.902C182.275 243.727 182.005 243.6 181.695 243.521C181.393 243.433 181.067 243.39 180.718 243.39C180.233 243.39 179.808 243.477 179.442 243.652C179.077 243.819 178.771 244.053 178.524 244.355C178.286 244.649 178.107 244.999 177.988 245.404C177.869 245.801 177.809 246.231 177.809 246.691C177.809 247.152 177.869 247.578 177.988 247.967C178.115 248.348 178.298 248.678 178.536 248.956C178.783 249.234 179.084 249.449 179.442 249.6C179.808 249.751 180.225 249.826 180.694 249.826C181.48 249.826 182.1 249.62 182.553 249.207C183.014 248.793 183.3 248.205 183.411 247.442H182.374C182.311 247.919 182.136 248.289 181.85 248.551C181.572 248.813 181.182 248.944 180.682 248.944C180.364 248.944 180.09 248.881 179.859 248.754C179.629 248.626 179.442 248.46 179.299 248.253C179.156 248.038 179.049 247.796 178.977 247.526C178.914 247.256 178.882 246.978 178.882 246.691C178.882 246.382 178.914 246.084 178.977 245.797C179.041 245.503 179.144 245.245 179.287 245.023C179.438 244.8 179.637 244.621 179.883 244.486C180.129 244.351 180.435 244.284 180.801 244.284C181.23 244.284 181.572 244.391 181.826 244.605C182.08 244.82 182.247 245.122 182.327 245.511ZM185.618 242.424V241.184H184.605V242.424H185.618ZM184.605 243.533V249.695H185.618V243.533H184.605ZM187.247 241.184V249.695H188.26V241.184H187.247ZM194.109 246.024H190.569C190.585 245.786 190.637 245.563 190.724 245.356C190.811 245.142 190.931 244.955 191.082 244.796C191.233 244.637 191.411 244.514 191.618 244.427C191.833 244.331 192.071 244.284 192.333 244.284C192.587 244.284 192.818 244.331 193.025 244.427C193.239 244.514 193.422 244.637 193.573 244.796C193.732 244.947 193.855 245.13 193.942 245.345C194.038 245.559 194.093 245.786 194.109 246.024ZM195.087 247.74H194.085C193.998 248.146 193.815 248.448 193.537 248.646C193.267 248.845 192.917 248.944 192.488 248.944C192.154 248.944 191.864 248.889 191.618 248.777C191.372 248.666 191.169 248.519 191.01 248.336C190.851 248.146 190.736 247.931 190.664 247.693C190.593 247.446 190.561 247.188 190.569 246.918H195.182C195.198 246.544 195.162 246.151 195.075 245.738C194.995 245.325 194.844 244.943 194.622 244.594C194.407 244.244 194.117 243.958 193.752 243.735C193.394 243.505 192.941 243.39 192.393 243.39C191.972 243.39 191.582 243.469 191.225 243.628C190.875 243.787 190.569 244.009 190.307 244.296C190.052 244.582 189.854 244.919 189.711 245.309C189.568 245.698 189.496 246.127 189.496 246.596C189.512 247.065 189.58 247.498 189.699 247.895C189.826 248.293 190.013 248.634 190.259 248.921C190.505 249.207 190.807 249.429 191.165 249.588C191.531 249.747 191.96 249.826 192.452 249.826C193.152 249.826 193.732 249.652 194.193 249.302C194.654 248.952 194.952 248.432 195.087 247.74Z" fill="#41415A"/>
<rect x="102.312" y="196.273" width="139.22" height="65.0887" rx="8.8286" stroke="#4D5EE6" stroke-width="1.6"/>
<path d="M278.922 217.383C280.613 217.383 281.984 216.012 281.984 214.32C281.984 212.629 280.613 211.258 278.922 211.258C277.231 211.258 275.859 212.629 275.859 214.32C275.859 216.012 277.231 217.383 278.922 217.383Z" fill="#E3E3E8"/>
<path d="M268.334 227.883C268.824 227.883 269.069 227.883 269.257 227.787C269.421 227.704 269.555 227.57 269.639 227.405C269.734 227.218 269.734 226.973 269.734 226.483V221.408C269.734 220.918 269.734 220.673 269.639 220.486C269.555 220.321 269.421 220.187 269.257 220.103C269.069 220.008 268.824 220.008 268.334 220.008L267.634 220.008C267.144 220.008 266.899 220.008 266.712 220.103C266.547 220.187 266.414 220.321 266.33 220.486C266.234 220.673 266.234 220.918 266.234 221.408L266.234 226.483C266.234 226.973 266.234 227.218 266.33 227.405C266.414 227.57 266.547 227.704 266.712 227.787C266.899 227.883 267.144 227.883 267.634 227.883H268.334Z" fill="#E3E3E8"/>
<path d="M276.109 223.551H278.234C278.628 223.551 279.012 223.427 279.327 223.197L281.527 221.592C282.076 221.191 282.845 221.245 283.33 221.717C283.869 222.241 283.869 223.091 283.33 223.614L281.442 225.451C280.934 225.945 280.286 226.283 279.581 226.42L276.912 226.939C276.383 227.042 275.838 227.029 275.314 226.902L272.901 226.315C272.612 226.245 272.316 226.209 272.018 226.209H269.734" fill="#E3E3E8"/>
<path d="M276.109 223.551L277.462 223.551C278.224 223.551 278.841 222.951 278.841 222.209V221.941C278.841 221.325 278.41 220.788 277.797 220.639L275.709 220.132C275.37 220.049 275.022 220.008 274.672 220.008C273.828 220.008 272.3 220.707 272.3 220.707L269.734 221.78" fill="#E3E3E8"/>
<path d="M276.323 215.941C275.822 216.298 275.209 216.508 274.547 216.508C272.856 216.508 271.484 215.137 271.484 213.445C271.484 211.754 272.856 210.383 274.547 210.383C275.643 210.383 276.605 210.959 277.146 211.825M269.734 226.209H272.018C272.316 226.209 272.612 226.245 272.901 226.315L275.314 226.902C275.838 227.029 276.383 227.042 276.912 226.939L279.581 226.42C280.286 226.283 280.934 225.945 281.442 225.451L283.33 223.614C283.869 223.091 283.869 222.241 283.33 221.717C282.845 221.245 282.076 221.191 281.527 221.592L279.327 223.197C279.012 223.427 278.628 223.551 278.234 223.551H276.109L277.462 223.551C278.224 223.551 278.841 222.951 278.841 222.209V221.941C278.841 221.325 278.41 220.788 277.797 220.639L275.709 220.132C275.37 220.049 275.022 220.008 274.672 220.008C273.828 220.008 272.3 220.707 272.3 220.707L269.734 221.78M281.984 214.32C281.984 216.012 280.613 217.383 278.922 217.383C277.231 217.383 275.859 216.012 275.859 214.32C275.859 212.629 277.231 211.258 278.922 211.258C280.613 211.258 281.984 212.629 281.984 214.32ZM266.234 221.408L266.234 226.483C266.234 226.973 266.234 227.218 266.33 227.405C266.414 227.57 266.547 227.704 266.712 227.787C266.899 227.883 267.144 227.883 267.634 227.883H268.334C268.824 227.883 269.069 227.883 269.257 227.787C269.421 227.704 269.555 227.57 269.639 227.405C269.734 227.218 269.734 226.973 269.734 226.483V221.408C269.734 220.918 269.734 220.673 269.639 220.486C269.555 220.321 269.421 220.187 269.257 220.103C269.069 220.008 268.824 220.008 268.334 220.008L267.634 220.008C267.144 220.008 266.899 220.008 266.712 220.103C266.547 220.187 266.414 220.321 266.33 220.486C266.234 220.673 266.234 220.918 266.234 221.408Z" stroke="#727585" stroke-width="1.4" stroke-linecap="round" stroke-linejoin="round"/>
<path opacity="0.49" d="M265.518 238.47V247.695H266.681V240.021H266.707L269.588 247.695H270.634L273.515 240.021H273.541V247.695H274.704V238.47H273.024L270.105 246.222L267.198 238.47H265.518ZM282.483 247.669C282.294 247.781 282.031 247.837 281.695 247.837C281.411 247.837 281.183 247.76 281.01 247.605C280.847 247.441 280.765 247.179 280.765 246.817C280.463 247.179 280.11 247.441 279.705 247.605C279.309 247.76 278.878 247.837 278.413 247.837C278.112 247.837 277.823 247.803 277.548 247.734C277.281 247.665 277.048 247.557 276.85 247.411C276.652 247.265 276.493 247.075 276.372 246.843C276.26 246.601 276.204 246.313 276.204 245.977C276.204 245.598 276.269 245.288 276.398 245.047C276.527 244.806 276.695 244.612 276.902 244.465C277.117 244.31 277.358 244.194 277.625 244.116C277.901 244.039 278.181 243.974 278.465 243.923C278.766 243.862 279.051 243.819 279.318 243.793C279.593 243.759 279.835 243.716 280.041 243.664C280.248 243.604 280.412 243.522 280.532 243.419C280.653 243.307 280.713 243.147 280.713 242.941C280.713 242.7 280.666 242.506 280.571 242.359C280.485 242.213 280.369 242.101 280.222 242.023C280.084 241.946 279.925 241.894 279.744 241.868C279.572 241.843 279.4 241.83 279.227 241.83C278.762 241.83 278.375 241.92 278.065 242.101C277.754 242.273 277.586 242.605 277.561 243.096H276.462C276.48 242.682 276.566 242.334 276.721 242.049C276.876 241.765 277.083 241.537 277.341 241.365C277.599 241.184 277.892 241.054 278.22 240.977C278.555 240.899 278.913 240.861 279.292 240.861C279.593 240.861 279.891 240.882 280.183 240.925C280.485 240.968 280.756 241.059 280.997 241.197C281.239 241.326 281.432 241.511 281.579 241.752C281.725 241.993 281.798 242.308 281.798 242.695V246.132C281.798 246.39 281.811 246.58 281.837 246.7C281.872 246.821 281.975 246.881 282.147 246.881C282.242 246.881 282.354 246.86 282.483 246.817V247.669ZM280.7 244.246C280.562 244.349 280.381 244.427 280.158 244.478C279.934 244.521 279.697 244.56 279.447 244.595C279.206 244.62 278.96 244.655 278.711 244.698C278.461 244.732 278.237 244.793 278.039 244.879C277.841 244.965 277.677 245.09 277.548 245.253C277.427 245.408 277.367 245.624 277.367 245.899C277.367 246.08 277.401 246.235 277.47 246.365C277.548 246.485 277.642 246.584 277.754 246.662C277.875 246.739 278.013 246.795 278.168 246.83C278.323 246.864 278.487 246.881 278.659 246.881C279.021 246.881 279.331 246.834 279.589 246.739C279.847 246.636 280.058 246.511 280.222 246.365C280.386 246.21 280.506 246.046 280.584 245.874C280.661 245.693 280.7 245.525 280.7 245.37V244.246ZM283.505 241.016V247.695H284.603V243.923C284.603 243.621 284.642 243.346 284.72 243.096C284.806 242.837 284.931 242.613 285.094 242.424C285.258 242.234 285.46 242.088 285.702 241.985C285.951 241.881 286.244 241.83 286.58 241.83C287.002 241.83 287.334 241.95 287.575 242.191C287.816 242.433 287.937 242.76 287.937 243.173V247.695H289.035V243.303C289.035 242.941 288.996 242.613 288.919 242.321C288.85 242.019 288.725 241.761 288.544 241.545C288.363 241.33 288.126 241.162 287.833 241.042C287.541 240.921 287.175 240.861 286.735 240.861C285.745 240.861 285.021 241.265 284.565 242.075H284.539V241.016H283.505ZM296.214 247.695V241.016H295.116V244.788C295.116 245.09 295.073 245.37 294.987 245.628C294.909 245.878 294.789 246.098 294.625 246.287C294.461 246.477 294.255 246.623 294.005 246.726C293.764 246.83 293.475 246.881 293.139 246.881C292.717 246.881 292.386 246.761 292.144 246.52C291.903 246.278 291.783 245.951 291.783 245.538V241.016H290.684V245.408C290.684 245.77 290.719 246.102 290.788 246.403C290.865 246.696 290.994 246.95 291.175 247.166C291.356 247.381 291.593 247.549 291.886 247.669C292.179 247.781 292.545 247.837 292.984 247.837C293.475 247.837 293.901 247.743 294.263 247.553C294.625 247.355 294.922 247.049 295.155 246.636H295.181V247.695H296.214ZM303.781 247.669C303.591 247.781 303.329 247.837 302.993 247.837C302.709 247.837 302.48 247.76 302.308 247.605C302.144 247.441 302.063 247.179 302.063 246.817C301.761 247.179 301.408 247.441 301.003 247.605C300.607 247.76 300.176 247.837 299.711 247.837C299.41 247.837 299.121 247.803 298.846 247.734C298.579 247.665 298.346 247.557 298.148 247.411C297.95 247.265 297.79 247.075 297.67 246.843C297.558 246.601 297.502 246.313 297.502 245.977C297.502 245.598 297.566 245.288 297.696 245.047C297.825 244.806 297.993 244.612 298.2 244.465C298.415 244.31 298.656 244.194 298.923 244.116C299.199 244.039 299.479 243.974 299.763 243.923C300.064 243.862 300.349 243.819 300.616 243.793C300.891 243.759 301.132 243.716 301.339 243.664C301.546 243.604 301.709 243.522 301.83 243.419C301.951 243.307 302.011 243.147 302.011 242.941C302.011 242.7 301.964 242.506 301.869 242.359C301.783 242.213 301.666 242.101 301.52 242.023C301.382 241.946 301.223 241.894 301.042 241.868C300.87 241.843 300.697 241.83 300.525 241.83C300.06 241.83 299.672 241.92 299.362 242.101C299.052 242.273 298.884 242.605 298.858 243.096H297.76C297.777 242.682 297.864 242.334 298.019 242.049C298.174 241.765 298.38 241.537 298.639 241.365C298.897 241.184 299.19 241.054 299.517 240.977C299.853 240.899 300.211 240.861 300.59 240.861C300.891 240.861 301.188 240.882 301.481 240.925C301.783 240.968 302.054 241.059 302.295 241.197C302.536 241.326 302.73 241.511 302.877 241.752C303.023 241.993 303.096 242.308 303.096 242.695V246.132C303.096 246.39 303.109 246.58 303.135 246.7C303.169 246.821 303.273 246.881 303.445 246.881C303.54 246.881 303.652 246.86 303.781 246.817V247.669ZM301.998 244.246C301.86 244.349 301.679 244.427 301.455 244.478C301.231 244.521 300.995 244.56 300.745 244.595C300.504 244.62 300.258 244.655 300.008 244.698C299.759 244.732 299.535 244.793 299.336 244.879C299.138 244.965 298.975 245.09 298.846 245.253C298.725 245.408 298.665 245.624 298.665 245.899C298.665 246.08 298.699 246.235 298.768 246.365C298.846 246.485 298.94 246.584 299.052 246.662C299.173 246.739 299.311 246.795 299.466 246.83C299.621 246.864 299.784 246.881 299.957 246.881C300.318 246.881 300.628 246.834 300.887 246.739C301.145 246.636 301.356 246.511 301.52 246.365C301.684 246.21 301.804 246.046 301.882 245.874C301.959 245.693 301.998 245.525 301.998 245.37V244.246ZM304.868 238.47V247.695H305.966V238.47H304.868ZM311.444 238.47V247.695H312.671V243.755H315.669C315.97 243.755 316.211 243.802 316.392 243.897C316.573 243.983 316.72 244.104 316.832 244.259C316.944 244.405 317.025 244.582 317.077 244.788C317.129 244.986 317.172 245.197 317.206 245.421C317.249 245.645 317.275 245.874 317.284 246.106C317.292 246.339 317.301 246.558 317.31 246.765C317.318 246.963 317.335 247.144 317.361 247.308C317.396 247.471 317.456 247.601 317.542 247.695H318.912C318.782 247.54 318.683 247.364 318.615 247.166C318.554 246.959 318.507 246.744 318.472 246.52C318.438 246.296 318.416 246.067 318.408 245.835C318.399 245.602 318.386 245.374 318.369 245.15C318.343 244.926 318.304 244.711 318.253 244.504C318.21 244.297 318.136 244.112 318.033 243.949C317.938 243.776 317.805 243.63 317.633 243.509C317.469 243.389 317.254 243.303 316.987 243.251V243.225C317.546 243.07 317.951 242.781 318.201 242.359C318.459 241.937 318.589 241.446 318.589 240.886C318.589 240.137 318.339 239.547 317.839 239.116C317.348 238.686 316.664 238.47 315.785 238.47H311.444ZM315.229 242.721H312.671V239.504H315.72C316.298 239.504 316.715 239.65 316.974 239.943C317.232 240.236 317.361 240.615 317.361 241.08C317.361 241.416 317.301 241.692 317.18 241.907C317.068 242.114 316.913 242.282 316.715 242.411C316.526 242.532 316.302 242.613 316.043 242.657C315.785 242.7 315.514 242.721 315.229 242.721ZM324.746 243.716H320.909C320.926 243.458 320.982 243.216 321.077 242.992C321.171 242.76 321.301 242.557 321.464 242.385C321.628 242.213 321.822 242.079 322.046 241.985C322.278 241.881 322.537 241.83 322.821 241.83C323.097 241.83 323.346 241.881 323.57 241.985C323.803 242.079 324.001 242.213 324.165 242.385C324.337 242.549 324.47 242.747 324.565 242.98C324.668 243.212 324.729 243.458 324.746 243.716ZM325.805 245.576H324.72C324.625 246.016 324.427 246.343 324.126 246.558C323.833 246.774 323.454 246.881 322.989 246.881C322.627 246.881 322.313 246.821 322.046 246.7C321.779 246.58 321.559 246.421 321.387 246.222C321.215 246.016 321.09 245.783 321.012 245.525C320.935 245.258 320.9 244.978 320.909 244.685H325.909C325.926 244.28 325.887 243.854 325.792 243.406C325.706 242.958 325.543 242.545 325.302 242.166C325.069 241.787 324.755 241.476 324.358 241.235C323.971 240.986 323.48 240.861 322.885 240.861C322.429 240.861 322.007 240.947 321.619 241.119C321.24 241.291 320.909 241.532 320.624 241.843C320.349 242.153 320.134 242.519 319.978 242.941C319.823 243.363 319.746 243.828 319.746 244.336C319.763 244.844 319.836 245.314 319.966 245.744C320.103 246.175 320.306 246.545 320.573 246.856C320.84 247.166 321.167 247.407 321.555 247.579C321.951 247.751 322.416 247.837 322.95 247.837C323.708 247.837 324.337 247.648 324.836 247.269C325.336 246.89 325.659 246.326 325.805 245.576ZM331.582 243.16H332.719C332.676 242.764 332.573 242.424 332.409 242.14C332.245 241.847 332.034 241.606 331.776 241.416C331.526 241.227 331.233 241.089 330.897 241.003C330.57 240.908 330.217 240.861 329.838 240.861C329.312 240.861 328.852 240.955 328.455 241.145C328.059 241.326 327.728 241.58 327.461 241.907C327.202 242.226 327.008 242.605 326.879 243.044C326.75 243.475 326.685 243.94 326.685 244.439C326.685 244.939 326.75 245.4 326.879 245.822C327.017 246.235 327.215 246.593 327.474 246.894C327.741 247.196 328.068 247.428 328.455 247.592C328.852 247.756 329.304 247.837 329.812 247.837C330.665 247.837 331.337 247.613 331.828 247.166C332.327 246.718 332.637 246.08 332.758 245.253H331.634C331.565 245.77 331.375 246.171 331.065 246.455C330.764 246.739 330.342 246.881 329.799 246.881C329.455 246.881 329.157 246.812 328.908 246.675C328.658 246.537 328.455 246.356 328.3 246.132C328.145 245.899 328.029 245.637 327.952 245.344C327.883 245.051 327.848 244.75 327.848 244.439C327.848 244.104 327.883 243.781 327.952 243.47C328.02 243.152 328.132 242.872 328.287 242.631C328.451 242.389 328.666 242.196 328.933 242.049C329.2 241.903 329.532 241.83 329.928 241.83C330.393 241.83 330.764 241.946 331.039 242.178C331.315 242.411 331.496 242.738 331.582 243.16ZM334.788 244.362C334.788 243.957 334.839 243.6 334.943 243.29C335.055 242.971 335.205 242.704 335.395 242.489C335.584 242.273 335.804 242.11 336.054 241.998C336.312 241.886 336.584 241.83 336.868 241.83C337.152 241.83 337.419 241.886 337.669 241.998C337.927 242.11 338.151 242.273 338.341 242.489C338.53 242.704 338.677 242.971 338.78 243.29C338.892 243.6 338.948 243.957 338.948 244.362C338.948 244.767 338.892 245.129 338.78 245.447C338.677 245.757 338.53 246.02 338.341 246.235C338.151 246.442 337.927 246.601 337.669 246.713C337.419 246.825 337.152 246.881 336.868 246.881C336.584 246.881 336.312 246.825 336.054 246.713C335.804 246.601 335.584 246.442 335.395 246.235C335.205 246.02 335.055 245.757 334.943 245.447C334.839 245.129 334.788 244.767 334.788 244.362ZM333.625 244.362C333.625 244.853 333.694 245.309 333.832 245.731C333.969 246.154 334.176 246.524 334.452 246.843C334.727 247.153 335.068 247.398 335.472 247.579C335.877 247.751 336.342 247.837 336.868 247.837C337.402 247.837 337.867 247.751 338.263 247.579C338.668 247.398 339.008 247.153 339.284 246.843C339.559 246.524 339.766 246.154 339.904 245.731C340.042 245.309 340.111 244.853 340.111 244.362C340.111 243.871 340.042 243.414 339.904 242.992C339.766 242.562 339.559 242.191 339.284 241.881C339.008 241.563 338.668 241.313 338.263 241.132C337.867 240.951 337.402 240.861 336.868 240.861C336.342 240.861 335.877 240.951 335.472 241.132C335.068 241.313 334.727 241.563 334.452 241.881C334.176 242.191 333.969 242.562 333.832 242.992C333.694 243.414 333.625 243.871 333.625 244.362ZM341.406 241.016V247.695H342.504V243.923C342.504 243.621 342.542 243.346 342.62 243.096C342.706 242.837 342.831 242.613 342.995 242.424C343.158 242.234 343.361 242.088 343.602 241.985C343.852 241.881 344.145 241.83 344.48 241.83C344.903 241.83 345.234 241.95 345.475 242.191C345.716 242.433 345.837 242.76 345.837 243.173V247.695H346.935V243.303C346.935 242.941 346.897 242.613 346.819 242.321C346.75 242.019 346.625 241.761 346.444 241.545C346.263 241.33 346.027 241.162 345.734 241.042C345.441 240.921 345.075 240.861 344.636 240.861C343.645 240.861 342.921 241.265 342.465 242.075H342.439V241.016H341.406ZM353.12 243.16H354.257C354.214 242.764 354.11 242.424 353.946 242.14C353.783 241.847 353.572 241.606 353.313 241.416C353.064 241.227 352.771 241.089 352.435 241.003C352.108 240.908 351.754 240.861 351.375 240.861C350.85 240.861 350.389 240.955 349.993 241.145C349.597 241.326 349.265 241.58 348.998 241.907C348.74 242.226 348.546 242.605 348.417 243.044C348.288 243.475 348.223 243.94 348.223 244.439C348.223 244.939 348.288 245.4 348.417 245.822C348.555 246.235 348.753 246.593 349.011 246.894C349.278 247.196 349.605 247.428 349.993 247.592C350.389 247.756 350.841 247.837 351.35 247.837C352.202 247.837 352.874 247.613 353.365 247.166C353.865 246.718 354.175 246.08 354.295 245.253H353.171C353.102 245.77 352.913 246.171 352.603 246.455C352.301 246.739 351.879 246.881 351.337 246.881C350.992 246.881 350.695 246.812 350.445 246.675C350.195 246.537 349.993 246.356 349.838 246.132C349.683 245.899 349.567 245.637 349.489 245.344C349.42 245.051 349.386 244.75 349.386 244.439C349.386 244.104 349.42 243.781 349.489 243.47C349.558 243.152 349.67 242.872 349.825 242.631C349.989 242.389 350.204 242.196 350.471 242.049C350.738 241.903 351.07 241.83 351.466 241.83C351.931 241.83 352.301 241.946 352.577 242.178C352.853 242.411 353.033 242.738 353.12 243.16ZM356.687 239.814V238.47H355.589V239.814H356.687ZM355.589 241.016V247.695H356.687V241.016H355.589ZM358.453 238.47V247.695H359.551V238.47H358.453ZM365.891 243.716H362.053C362.071 243.458 362.127 243.216 362.221 242.992C362.316 242.76 362.445 242.557 362.609 242.385C362.773 242.213 362.966 242.079 363.19 241.985C363.423 241.881 363.681 241.83 363.966 241.83C364.241 241.83 364.491 241.881 364.715 241.985C364.947 242.079 365.146 242.213 365.309 242.385C365.481 242.549 365.615 242.747 365.71 242.98C365.813 243.212 365.873 243.458 365.891 243.716ZM366.95 245.576H365.865C365.77 246.016 365.572 246.343 365.27 246.558C364.978 246.774 364.599 246.881 364.134 246.881C363.772 246.881 363.457 246.821 363.19 246.7C362.923 246.58 362.704 246.421 362.531 246.222C362.359 246.016 362.234 245.783 362.157 245.525C362.079 245.258 362.045 244.978 362.053 244.685H367.053C367.071 244.28 367.032 243.854 366.937 243.406C366.851 242.958 366.687 242.545 366.446 242.166C366.214 241.787 365.899 241.476 365.503 241.235C365.115 240.986 364.624 240.861 364.03 240.861C363.574 240.861 363.152 240.947 362.764 241.119C362.385 241.291 362.053 241.532 361.769 241.843C361.494 242.153 361.278 242.519 361.123 242.941C360.968 243.363 360.891 243.828 360.891 244.336C360.908 244.844 360.981 245.314 361.11 245.744C361.248 246.175 361.45 246.545 361.717 246.856C361.984 247.166 362.312 247.407 362.699 247.579C363.096 247.751 363.561 247.837 364.095 247.837C364.853 247.837 365.481 247.648 365.981 247.269C366.481 246.89 366.804 246.326 366.95 245.576Z" fill="#9A9DAD"/>
<path d="M272.982 251.342C276.894 251.342 280.065 248.171 280.065 244.259C280.065 240.347 276.894 237.176 272.982 237.176C269.07 237.176 265.898 240.347 265.898 244.259C265.898 248.171 269.07 251.342 272.982 251.342Z" fill="#E3E3E8"/>
<path d="M269.794 244.259L271.919 246.384L276.169 242.134M280.065 244.259C280.065 248.171 276.894 251.342 272.982 251.342C269.07 251.342 265.898 248.171 265.898 244.259C265.898 240.347 269.07 237.176 272.982 237.176C276.894 237.176 280.065 240.347 280.065 244.259Z" stroke="white" stroke-width="1.2" stroke-linecap="round" stroke-linejoin="round"/>
<rect x="252.566" y="196.715" width="138.337" height="64.2059" rx="8.38717" stroke="#E3E3E8" stroke-width="0.88286"/>
<path d="M413.003 280.873H76.8594V282.146H413.003V280.873Z" fill="#F1F1F4" mask="url(#path-2-inside-1_5055_21812)"/>
<rect width="336.144" height="106.265" transform="translate(76.8594 281.508)" fill="#F5F6FF"/>
<mask id="path-17-inside-2_5055_21812" fill="white">
<path d="M76.8594 281.508H413.003V387.772H76.8594V281.508Z"/>
</mask>
<path d="M76.8594 281.508H413.003V387.772H76.8594V281.508Z" fill="white"/>
<rect x="102.312" y="301.656" width="170.71" height="8.31" rx="4.155" fill="#F1F1F4"/>
<rect x="102.312" y="319.969" width="110.13" height="8.31" rx="4.155" fill="#F6F6F8"/>
<rect x="102.312" y="341.004" width="170.71" height="8.31" rx="4.155" fill="#F6F6F8"/>
<rect x="102.312" y="359.316" width="254.13" height="8.31" rx="4.155" fill="#F6F6F8"/>
<path d="M413.003 387.136H76.8594V388.409H413.003V387.136Z" fill="#F1F1F4" mask="url(#path-17-inside-2_5055_21812)"/>
</g>
</g>
<g filter="url(#filter1_ddd_5055_21812)">
<rect x="75" y="16" width="338" height="107.09" rx="16" fill="white" shape-rendering="crispEdges"/>
<path d="M98.2844 47.9334H103.608C104.464 47.9334 105.163 48.0573 105.704 48.3052C106.244 48.5531 106.661 48.8629 106.954 49.2347C107.247 49.6065 107.444 50.0121 107.546 50.4515C107.658 50.8909 107.715 51.2965 107.715 51.6683C107.715 52.0401 107.658 52.4457 107.546 52.8851C107.444 53.3132 107.247 53.7132 106.954 54.085C106.661 54.4568 106.244 54.7666 105.704 55.0145C105.163 55.2511 104.464 55.3694 103.608 55.3694H100.397V60H98.2844V47.9334ZM100.397 53.6456H103.49C103.726 53.6456 103.968 53.6118 104.216 53.5442C104.464 53.4766 104.69 53.3696 104.892 53.2231C105.106 53.0654 105.275 52.8626 105.399 52.6147C105.534 52.3556 105.602 52.0345 105.602 51.6514C105.602 51.2571 105.546 50.9303 105.433 50.6712C105.32 50.4121 105.168 50.2093 104.977 50.0628C104.785 49.9051 104.566 49.798 104.318 49.7417C104.07 49.6854 103.805 49.6572 103.523 49.6572H100.397V53.6456ZM116.604 58.0565C116.604 58.2931 116.632 58.4621 116.688 58.5635C116.756 58.6649 116.88 58.7156 117.06 58.7156C117.117 58.7156 117.184 58.7156 117.263 58.7156C117.342 58.7156 117.432 58.7043 117.533 58.6818V60.0169C117.466 60.0394 117.376 60.062 117.263 60.0845C117.162 60.1183 117.055 60.1465 116.942 60.169C116.829 60.1915 116.717 60.2084 116.604 60.2197C116.491 60.231 116.395 60.2366 116.317 60.2366C115.922 60.2366 115.596 60.1577 115.336 60C115.077 59.8423 114.908 59.5662 114.829 59.1719C114.446 59.5437 113.973 59.8141 113.41 59.9831C112.858 60.1521 112.323 60.2366 111.804 60.2366C111.41 60.2366 111.033 60.1803 110.672 60.0676C110.311 59.9662 109.99 59.8141 109.709 59.6113C109.438 59.3972 109.219 59.1325 109.05 58.817C108.892 58.4903 108.813 58.1128 108.813 57.6847C108.813 57.1439 108.909 56.7045 109.1 56.3665C109.303 56.0285 109.562 55.7637 109.878 55.5722C110.204 55.3807 110.565 55.2455 110.959 55.1666C111.365 55.0765 111.77 55.0089 112.176 54.9638C112.525 54.8962 112.858 54.8511 113.173 54.8286C113.489 54.7948 113.765 54.7441 114.001 54.6765C114.249 54.6089 114.441 54.5075 114.576 54.3723C114.722 54.2258 114.796 54.0118 114.796 53.7301C114.796 53.4822 114.734 53.2794 114.61 53.1217C114.497 52.964 114.351 52.8457 114.17 52.7668C114.001 52.6767 113.81 52.6203 113.596 52.5978C113.382 52.564 113.179 52.5471 112.987 52.5471C112.446 52.5471 112.001 52.6598 111.652 52.8851C111.303 53.1104 111.106 53.4597 111.061 53.9329H109.134C109.168 53.3696 109.303 52.902 109.54 52.5302C109.776 52.1584 110.075 51.8598 110.435 51.6345C110.807 51.4092 111.224 51.2514 111.686 51.1613C112.148 51.0712 112.621 51.0261 113.106 51.0261C113.534 51.0261 113.956 51.0712 114.373 51.1613C114.79 51.2514 115.162 51.3979 115.488 51.6007C115.826 51.8035 116.097 52.0683 116.3 52.395C116.502 52.7105 116.604 53.0992 116.604 53.5611V58.0565ZM114.677 55.6229C114.384 55.8144 114.024 55.9327 113.596 55.9778C113.168 56.0116 112.739 56.0679 112.311 56.1468C112.108 56.1806 111.911 56.2313 111.72 56.2989C111.528 56.3552 111.359 56.4397 111.213 56.5524C111.066 56.6538 110.948 56.7946 110.858 56.9749C110.779 57.1439 110.74 57.3523 110.74 57.6002C110.74 57.8143 110.802 57.9945 110.925 58.141C111.049 58.2875 111.196 58.4058 111.365 58.4959C111.545 58.5748 111.737 58.6311 111.939 58.6649C112.154 58.6987 112.345 58.7156 112.514 58.7156C112.728 58.7156 112.959 58.6874 113.207 58.6311C113.455 58.5748 113.686 58.479 113.9 58.3438C114.125 58.2086 114.311 58.0396 114.458 57.8368C114.604 57.6227 114.677 57.3636 114.677 57.0594V55.6229ZM117.714 51.2627H119.826L122.108 57.7861H122.141L124.355 51.2627H126.366L122.969 60.4732C122.812 60.8675 122.654 61.245 122.496 61.6055C122.35 61.966 122.164 62.2815 121.939 62.5519C121.725 62.8336 121.454 63.0533 121.127 63.211C120.801 63.38 120.384 63.4645 119.877 63.4645C119.426 63.4645 118.981 63.4307 118.542 63.3631V61.7407C118.699 61.7632 118.852 61.7858 118.998 61.8083C119.144 61.8421 119.297 61.859 119.454 61.859C119.68 61.859 119.866 61.8308 120.012 61.7745C120.158 61.7182 120.277 61.6337 120.367 61.521C120.468 61.4196 120.553 61.2957 120.62 61.1492C120.688 61.0027 120.75 60.8337 120.806 60.6422L121.026 59.9662L117.714 51.2627ZM127.44 51.2627H129.266V52.4795H129.316C129.463 52.2654 129.621 52.0683 129.79 51.888C129.959 51.7077 130.144 51.5556 130.347 51.4317C130.561 51.3078 130.804 51.212 131.074 51.1444C131.344 51.0655 131.654 51.0261 132.003 51.0261C132.533 51.0261 133.023 51.1444 133.474 51.381C133.936 51.6176 134.262 51.9838 134.454 52.4795C134.781 52.0288 135.158 51.6739 135.586 51.4148C136.014 51.1557 136.55 51.0261 137.192 51.0261C138.116 51.0261 138.831 51.2514 139.338 51.7021C139.856 52.1528 140.115 52.9076 140.115 53.9667V60H138.189V54.8962C138.189 54.5469 138.178 54.2315 138.155 53.9498C138.133 53.6569 138.065 53.409 137.952 53.2062C137.851 52.9921 137.693 52.8288 137.479 52.7161C137.265 52.6034 136.972 52.5471 136.6 52.5471C135.947 52.5471 135.474 52.7499 135.181 53.1555C134.888 53.5611 134.741 54.1357 134.741 54.8793V60H132.815V54.3892C132.815 53.7808 132.702 53.3245 132.477 53.0203C132.263 52.7048 131.863 52.5471 131.277 52.5471C131.029 52.5471 130.787 52.5978 130.55 52.6992C130.325 52.8006 130.122 52.9471 129.942 53.1386C129.773 53.3301 129.632 53.5667 129.519 53.8484C129.418 54.1301 129.367 54.4512 129.367 54.8117V60H127.44V51.2627ZM148.145 54.8624C148.122 54.5582 148.055 54.2653 147.942 53.9836C147.841 53.7019 147.694 53.4597 147.503 53.2569C147.322 53.0428 147.097 52.8738 146.827 52.7499C146.568 52.6147 146.275 52.5471 145.948 52.5471C145.61 52.5471 145.3 52.6091 145.018 52.733C144.748 52.8457 144.511 53.009 144.309 53.2231C144.117 53.4259 143.959 53.6681 143.835 53.9498C143.723 54.2315 143.661 54.5357 143.65 54.8624H148.145ZM143.65 56.1299C143.65 56.4679 143.695 56.7946 143.785 57.1101C143.886 57.4256 144.033 57.7016 144.224 57.9382C144.416 58.1748 144.658 58.3663 144.951 58.5128C145.244 58.648 145.593 58.7156 145.999 58.7156C146.562 58.7156 147.013 58.5973 147.351 58.3607C147.7 58.1128 147.959 57.7467 148.128 57.2622H149.953C149.852 57.7354 149.677 58.1579 149.429 58.5297C149.181 58.9015 148.883 59.217 148.534 59.4761C148.184 59.724 147.79 59.9099 147.351 60.0338C146.923 60.169 146.472 60.2366 145.999 60.2366C145.311 60.2366 144.703 60.1239 144.173 59.8986C143.644 59.6733 143.193 59.3578 142.821 58.9522C142.461 58.5466 142.185 58.0621 141.993 57.4988C141.813 56.9355 141.723 56.3158 141.723 55.6398C141.723 55.0201 141.819 54.4343 142.01 53.8822C142.213 53.3189 142.495 52.8288 142.855 52.4119C143.227 51.9838 143.672 51.6458 144.19 51.3979C144.709 51.15 145.294 51.0261 145.948 51.0261C146.635 51.0261 147.249 51.1726 147.79 51.4655C148.342 51.7472 148.798 52.1246 149.159 52.5978C149.519 53.071 149.779 53.6174 149.936 54.2371C150.105 54.8455 150.15 55.4764 150.072 56.1299H143.65ZM151.536 51.2627H153.361V52.5471L153.395 52.5809C153.688 52.0964 154.071 51.719 154.544 51.4486C155.018 51.1669 155.541 51.0261 156.116 51.0261C157.074 51.0261 157.829 51.274 158.381 51.7697C158.933 52.2654 159.209 53.009 159.209 54.0005V60H157.282V54.5075C157.26 53.8202 157.113 53.3245 156.843 53.0203C156.572 52.7048 156.15 52.5471 155.575 52.5471C155.249 52.5471 154.956 52.6091 154.696 52.733C154.437 52.8457 154.218 53.009 154.037 53.2231C153.857 53.4259 153.716 53.6681 153.615 53.9498C153.513 54.2315 153.463 54.53 153.463 54.8455V60H151.536V51.2627ZM160.362 51.2627H161.815V48.6432H163.742V51.2627H165.482V52.6992H163.742V57.3636C163.742 57.5664 163.747 57.741 163.759 57.8875C163.781 58.034 163.821 58.1579 163.877 58.2593C163.944 58.3607 164.04 58.4396 164.164 58.4959C164.288 58.541 164.457 58.5635 164.671 58.5635C164.806 58.5635 164.942 58.5635 165.077 58.5635C165.212 58.5522 165.347 58.5297 165.482 58.4959V59.9831C165.268 60.0056 165.06 60.0282 164.857 60.0507C164.654 60.0732 164.446 60.0845 164.232 60.0845C163.725 60.0845 163.314 60.0394 162.998 59.9493C162.694 59.8479 162.452 59.7071 162.271 59.5268C162.102 59.3353 161.984 59.0987 161.916 58.817C161.86 58.5353 161.826 58.2142 161.815 57.8537V52.6992H160.362V51.2627ZM171.809 47.9334H174.783L178.112 57.3805H178.146L181.391 47.9334H184.331V60H182.32V50.6881H182.287L178.94 60H177.2L173.853 50.6881H173.82V60H171.809V47.9334ZM192.59 54.8624C192.567 54.5582 192.5 54.2653 192.387 53.9836C192.286 53.7019 192.139 53.4597 191.948 53.2569C191.767 53.0428 191.542 52.8738 191.272 52.7499C191.013 52.6147 190.72 52.5471 190.393 52.5471C190.055 52.5471 189.745 52.6091 189.463 52.733C189.193 52.8457 188.956 53.009 188.754 53.2231C188.562 53.4259 188.404 53.6681 188.28 53.9498C188.168 54.2315 188.106 54.5357 188.095 54.8624H192.59ZM188.095 56.1299C188.095 56.4679 188.14 56.7946 188.23 57.1101C188.331 57.4256 188.478 57.7016 188.669 57.9382C188.861 58.1748 189.103 58.3663 189.396 58.5128C189.689 58.648 190.038 58.7156 190.444 58.7156C191.007 58.7156 191.458 58.5973 191.796 58.3607C192.145 58.1128 192.404 57.7467 192.573 57.2622H194.398C194.297 57.7354 194.122 58.1579 193.874 58.5297C193.626 58.9015 193.328 59.217 192.979 59.4761C192.629 59.724 192.235 59.9099 191.796 60.0338C191.368 60.169 190.917 60.2366 190.444 60.2366C189.756 60.2366 189.148 60.1239 188.618 59.8986C188.089 59.6733 187.638 59.3578 187.266 58.9522C186.906 58.5466 186.63 58.0621 186.438 57.4988C186.258 56.9355 186.168 56.3158 186.168 55.6398C186.168 55.0201 186.264 54.4343 186.455 53.8822C186.658 53.3189 186.94 52.8288 187.3 52.4119C187.672 51.9838 188.117 51.6458 188.635 51.3979C189.154 51.15 189.739 51.0261 190.393 51.0261C191.08 51.0261 191.694 51.1726 192.235 51.4655C192.787 51.7472 193.243 52.1246 193.604 52.5978C193.964 53.071 194.224 53.6174 194.381 54.2371C194.55 54.8455 194.595 55.4764 194.517 56.1299H188.095ZM195.102 51.2627H196.556V48.6432H198.482V51.2627H200.223V52.6992H198.482V57.3636C198.482 57.5664 198.488 57.741 198.499 57.8875C198.522 58.034 198.561 58.1579 198.618 58.2593C198.685 58.3607 198.781 58.4396 198.905 58.4959C199.029 58.541 199.198 58.5635 199.412 58.5635C199.547 58.5635 199.682 58.5635 199.817 58.5635C199.953 58.5522 200.088 58.5297 200.223 58.4959V59.9831C200.009 60.0056 199.801 60.0282 199.598 60.0507C199.395 60.0732 199.187 60.0845 198.972 60.0845C198.465 60.0845 198.054 60.0394 197.739 59.9493C197.435 59.8479 197.192 59.7071 197.012 59.5268C196.843 59.3353 196.725 59.0987 196.657 58.817C196.601 58.5353 196.567 58.2142 196.556 57.8537V52.6992H195.102V51.2627ZM201.609 47.9334H203.536V52.4119H203.569C203.806 52.0176 204.155 51.6908 204.617 51.4317C205.09 51.1613 205.614 51.0261 206.189 51.0261C207.147 51.0261 207.901 51.274 208.454 51.7697C209.006 52.2654 209.282 53.009 209.282 54.0005V60H207.355V54.5075C207.332 53.8202 207.186 53.3245 206.916 53.0203C206.645 52.7048 206.223 52.5471 205.648 52.5471C205.321 52.5471 205.028 52.6091 204.769 52.733C204.51 52.8457 204.29 53.009 204.11 53.2231C203.93 53.4259 203.789 53.6681 203.688 53.9498C203.586 54.2315 203.536 54.53 203.536 54.8455V60H201.609V47.9334ZM215.319 60.2366C214.62 60.2366 213.995 60.1239 213.443 59.8986C212.902 59.662 212.44 59.3409 212.057 58.9353C211.685 58.5297 211.398 58.0452 211.195 57.4819C211.003 56.9186 210.908 56.2989 210.908 55.6229C210.908 54.9582 211.003 54.3441 211.195 53.7808C211.398 53.2175 211.685 52.733 212.057 52.3274C212.44 51.9218 212.902 51.6063 213.443 51.381C213.995 51.1444 214.62 51.0261 215.319 51.0261C216.017 51.0261 216.637 51.1444 217.178 51.381C217.73 51.6063 218.192 51.9218 218.563 52.3274C218.946 52.733 219.234 53.2175 219.425 53.7808C219.628 54.3441 219.73 54.9582 219.73 55.6229C219.73 56.2989 219.628 56.9186 219.425 57.4819C219.234 58.0452 218.946 58.5297 218.563 58.9353C218.192 59.3409 217.73 59.662 217.178 59.8986C216.637 60.1239 216.017 60.2366 215.319 60.2366ZM215.319 58.7156C215.747 58.7156 216.119 58.6255 216.434 58.4452C216.749 58.2649 217.009 58.0283 217.211 57.7354C217.414 57.4425 217.561 57.1157 217.651 56.7552C217.752 56.3834 217.803 56.006 217.803 55.6229C217.803 55.2511 217.752 54.8793 217.651 54.5075C217.561 54.1357 217.414 53.809 217.211 53.5273C217.009 53.2344 216.749 52.9978 216.434 52.8175C216.119 52.6372 215.747 52.5471 215.319 52.5471C214.89 52.5471 214.519 52.6372 214.203 52.8175C213.888 52.9978 213.629 53.2344 213.426 53.5273C213.223 53.809 213.071 54.1357 212.97 54.5075C212.879 54.8793 212.834 55.2511 212.834 55.6229C212.834 56.006 212.879 56.3834 212.97 56.7552C213.071 57.1157 213.223 57.4425 213.426 57.7354C213.629 58.0283 213.888 58.2649 214.203 58.4452C214.519 58.6255 214.89 58.7156 215.319 58.7156ZM229.561 60H227.736V58.817H227.702C227.443 59.324 227.066 59.6902 226.57 59.9155C226.074 60.1296 225.551 60.2366 224.998 60.2366C224.311 60.2366 223.708 60.1183 223.19 59.8817C222.683 59.6338 222.261 59.3015 221.923 58.8846C221.585 58.4677 221.331 57.9776 221.162 57.4143C220.993 56.8397 220.909 56.2257 220.909 55.5722C220.909 54.7835 221.016 54.1019 221.23 53.5273C221.444 52.9527 221.726 52.4795 222.075 52.1077C222.435 51.7359 222.841 51.4655 223.292 51.2965C223.754 51.1162 224.221 51.0261 224.694 51.0261C224.965 51.0261 225.241 51.0543 225.522 51.1106C225.804 51.1557 226.074 51.2345 226.334 51.3472C226.593 51.4599 226.829 51.6063 227.043 51.7866C227.269 51.9556 227.455 52.1584 227.601 52.395H227.635V47.9334H229.561V60ZM222.835 55.7243C222.835 56.0961 222.88 56.4623 222.97 56.8228C223.072 57.1833 223.218 57.5044 223.41 57.7861C223.613 58.0678 223.866 58.2931 224.17 58.4621C224.475 58.6311 224.835 58.7156 225.252 58.7156C225.68 58.7156 226.046 58.6255 226.35 58.4452C226.666 58.2649 226.919 58.0283 227.111 57.7354C227.314 57.4425 227.46 57.1157 227.55 56.7552C227.652 56.3834 227.702 56.006 227.702 55.6229C227.702 54.654 227.483 53.8991 227.043 53.3583C226.615 52.8175 226.029 52.5471 225.286 52.5471C224.835 52.5471 224.452 52.6429 224.137 52.8344C223.832 53.0147 223.579 53.2569 223.376 53.5611C223.185 53.854 223.044 54.192 222.954 54.5751C222.875 54.9469 222.835 55.33 222.835 55.7243Z" fill="#71748C"/>
<rect x="97" y="72" width="170.71" height="8.31" rx="4.155" fill="#F6F6F8"/>
<rect x="97" y="90.3125" width="110.13" height="8.31" rx="4.155" fill="#F6F6F8"/>
<ellipse cx="365.358" cy="71.81" rx="20.6389" ry="20.642" fill="#5466F9"/>
<rect width="21" height="21" transform="translate(355 61.168)" fill="#5466F9"/>
<path d="M359.83 63.478L358.465 65.298C358.195 65.6584 358.059 65.8387 358.063 65.9896C358.065 66.1209 358.127 66.244 358.23 66.3249C358.349 66.418 358.574 66.418 359.025 66.418H371.975C372.426 66.418 372.651 66.418 372.77 66.3249C372.873 66.244 372.935 66.1209 372.937 65.9896C372.941 65.8387 372.805 65.6584 372.535 65.298L371.17 63.478M359.83 63.478C359.984 63.2726 360.061 63.17 360.159 63.0959C360.245 63.0303 360.343 62.9814 360.447 62.9516C360.565 62.918 360.693 62.918 360.95 62.918H370.05C370.307 62.918 370.435 62.918 370.553 62.9516C370.657 62.9814 370.755 63.0303 370.841 63.0959C370.939 63.17 371.016 63.2726 371.17 63.478M359.83 63.478L358.185 65.6713C357.977 65.9483 357.873 66.0869 357.8 66.2394C357.734 66.3748 357.686 66.518 357.658 66.6656C357.625 66.8319 357.625 67.005 357.625 67.3513L357.625 77.618C357.625 78.5981 357.625 79.0881 357.816 79.4624C357.984 79.7917 358.251 80.0594 358.581 80.2272C358.955 80.418 359.445 80.418 360.425 80.418L370.575 80.418C371.555 80.418 372.045 80.418 372.419 80.2272C372.749 80.0595 373.016 79.7917 373.184 79.4624C373.375 79.0881 373.375 78.5981 373.375 77.618V67.3513C373.375 67.005 373.375 66.8319 373.342 66.6656C373.314 66.518 373.266 66.3748 373.2 66.2394C373.127 66.0869 373.023 65.9483 372.815 65.6713L371.17 63.478M369 69.918C369 70.8462 368.631 71.7365 367.975 72.3928C367.318 73.0492 366.428 73.418 365.5 73.418C364.572 73.418 363.682 73.0492 363.025 72.3928C362.369 71.7365 362 70.8462 362 69.918" stroke="white" stroke-width="1.6" stroke-linecap="round" stroke-linejoin="round"/>
</g>
<defs>
<filter id="filter0_ddd_5055_21812" x="0.511232" y="83.3765" width="488.837" height="393.47" filterUnits="userSpaceOnUse" color-interpolation-filters="sRGB">
<feFlood flood-opacity="0" result="BackgroundImageFix"/>
<feColorMatrix in="SourceAlpha" type="matrix" values="0 0 0 0 0 0 0 0 0 0 0 0 0 0 0 0 0 0 127 0" result="hardAlpha"/>
<feMorphology radius="2.12078" operator="erode" in="SourceAlpha" result="effect1_dropShadow_5055_21812"/>
<feOffset dy="4.24156"/>
<feGaussianBlur stdDeviation="3.18117"/>
<feColorMatrix type="matrix" values="0 0 0 0 0.180392 0 0 0 0 0.227451 0 0 0 0 0.619608 0 0 0 0.03 0"/>
<feBlend mode="normal" in2="BackgroundImageFix" result="effect1_dropShadow_5055_21812"/>
<feColorMatrix in="SourceAlpha" type="matrix" values="0 0 0 0 0 0 0 0 0 0 0 0 0 0 0 0 0 0 127 0" result="hardAlpha"/>
<feMorphology radius="4.24156" operator="erode" in="SourceAlpha" result="effect2_dropShadow_5055_21812"/>
<feOffset dy="12.7247"/>
<feGaussianBlur stdDeviation="40.2949"/>
<feColorMatrix type="matrix" values="0 0 0 0 0.180392 0 0 0 0 0.227451 0 0 0 0 0.619608 0 0 0 0.08 0"/>
<feBlend mode="normal" in2="effect1_dropShadow_5055_21812" result="effect2_dropShadow_5055_21812"/>
<feColorMatrix in="SourceAlpha" type="matrix" values="0 0 0 0 0 0 0 0 0 0 0 0 0 0 0 0 0 0 127 0" result="hardAlpha"/>
<feOffset/>
<feGaussianBlur stdDeviation="0.530195"/>
<feComposite in2="hardAlpha" operator="out"/>
<feColorMatrix type="matrix" values="0 0 0 0 0.18 0 0 0 0 0.227826 0 0 0 0 0.62 0 0 0 0.3 0"/>
<feBlend mode="normal" in2="effect2_dropShadow_5055_21812" result="effect3_dropShadow_5055_21812"/>
<feBlend mode="normal" in="SourceGraphic" in2="effect3_dropShadow_5055_21812" result="shape"/>
</filter>
<filter id="filter1_ddd_5055_21812" x="49" y="0" width="390" height="161.09" filterUnits="userSpaceOnUse" color-interpolation-filters="sRGB">
<feFlood flood-opacity="0" result="BackgroundImageFix"/>
<feColorMatrix in="SourceAlpha" type="matrix" values="0 0 0 0 0 0 0 0 0 0 0 0 0 0 0 0 0 0 127 0" result="hardAlpha"/>
<feMorphology radius="2" operator="erode" in="SourceAlpha" result="effect1_dropShadow_5055_21812"/>
<feOffset dy="4"/>
<feGaussianBlur stdDeviation="11"/>
<feColorMatrix type="matrix" values="0 0 0 0 0.180392 0 0 0 0 0.227451 0 0 0 0 0.619608 0 0 0 0.01 0"/>
<feBlend mode="normal" in2="BackgroundImageFix" result="effect1_dropShadow_5055_21812"/>
<feColorMatrix in="SourceAlpha" type="matrix" values="0 0 0 0 0 0 0 0 0 0 0 0 0 0 0 0 0 0 127 0" result="hardAlpha"/>
<feMorphology radius="4" operator="erode" in="SourceAlpha" result="effect2_dropShadow_5055_21812"/>
<feOffset dy="12"/>
<feGaussianBlur stdDeviation="15"/>
<feColorMatrix type="matrix" values="0 0 0 0 0.180392 0 0 0 0 0.227451 0 0 0 0 0.619608 0 0 0 0.04 0"/>
<feBlend mode="normal" in2="effect1_dropShadow_5055_21812" result="effect2_dropShadow_5055_21812"/>
<feColorMatrix in="SourceAlpha" type="matrix" values="0 0 0 0 0 0 0 0 0 0 0 0 0 0 0 0 0 0 127 0" result="hardAlpha"/>
<feOffset/>
<feGaussianBlur stdDeviation="0.5"/>
<feComposite in2="hardAlpha" operator="out"/>
<feColorMatrix type="matrix" values="0 0 0 0 0.18 0 0 0 0 0.227826 0 0 0 0 0.62 0 0 0 0.3 0"/>
<feBlend mode="normal" in2="effect2_dropShadow_5055_21812" result="effect3_dropShadow_5055_21812"/>
<feBlend mode="normal" in="SourceGraphic" in2="effect3_dropShadow_5055_21812" result="shape"/>
</filter>
<clipPath id="clip0_5055_21812">
<rect x="76.8594" y="147" width="336.144" height="240.774" rx="14.082" fill="white"/>
</clipPath>
</defs>
</svg>
