<svg width="391" height="375" viewBox="0 0 391 375" fill="none" xmlns="http://www.w3.org/2000/svg">
<g filter="url(#filter0_ddd_5055_21812)">
<rect x="27" y="147" width="337.381" height="260" rx="10.3175" fill="white" shape-rendering="crispEdges"/>
<path d="M46.8445 176.118H48.6356L48.3323 178.284H46.5411L46.8445 176.118ZM45.4 179.267L44.9811 182.242H45.9778L46.3967 179.267H48.1878L47.7689 182.242H48.7656L49.1845 179.267H50.6434V178.284H49.3289L49.6323 176.118H51.0478V175.136H49.7623L50.1811 172.174H49.1845L48.7656 175.136H46.9745L47.3934 172.174H46.3967L45.9778 175.136H44.3745V176.118H45.8478L45.5445 178.284H43.9989V179.267H45.4ZM52.6318 171.929V182.242H54.0041V171.929H52.6318ZM56.211 171.929V182.242H57.511V173.966H57.5399L62.9277 182.242H64.4299V171.929H63.1299V180.292H63.101L57.6699 171.929H56.211ZM70.622 182.242L74.2908 171.929H72.8608L69.8853 180.87H69.8564L66.9097 171.929H65.4364L69.062 182.242H70.622ZM76.0867 177.201C76.0867 176.951 76.0867 176.676 76.0867 176.378C76.0963 176.07 76.1204 175.766 76.1589 175.468C76.2071 175.16 76.2697 174.861 76.3467 174.572C76.4334 174.283 76.5537 174.033 76.7078 173.821C76.8715 173.6 77.0737 173.421 77.3145 173.287C77.5552 173.152 77.8489 173.084 78.1956 173.084C78.5422 173.084 78.836 173.152 79.0767 173.287C79.3174 173.421 79.5148 173.6 79.6689 173.821C79.8326 174.033 79.953 174.283 80.03 174.572C80.1167 174.861 80.1793 175.16 80.2178 175.468C80.266 175.766 80.29 176.07 80.29 176.378C80.2997 176.676 80.3045 176.951 80.3045 177.201C80.3045 177.586 80.29 178.02 80.2611 178.501C80.2419 178.973 80.1648 179.421 80.03 179.844C79.9048 180.258 79.6978 180.61 79.4089 180.899C79.12 181.188 78.7156 181.332 78.1956 181.332C77.6756 181.332 77.2711 181.188 76.9822 180.899C76.6934 180.61 76.4815 180.258 76.3467 179.844C76.2215 179.421 76.1445 178.973 76.1156 178.501C76.0963 178.02 76.0867 177.586 76.0867 177.201ZM74.7867 177.216C74.7867 177.591 74.7963 177.981 74.8156 178.386C74.8348 178.79 74.883 179.185 74.96 179.57C75.0371 179.955 75.1478 180.321 75.2922 180.668C75.4367 181.005 75.6341 181.303 75.8845 181.563C76.1348 181.823 76.4478 182.03 76.8234 182.184C77.2085 182.329 77.666 182.401 78.1956 182.401C78.7348 182.401 79.1922 182.329 79.5678 182.184C79.9434 182.03 80.2563 181.823 80.5067 181.563C80.7571 181.303 80.9545 181.005 81.0989 180.668C81.2434 180.321 81.3541 179.955 81.4311 179.57C81.5082 179.185 81.5563 178.79 81.5756 178.386C81.5948 177.981 81.6045 177.591 81.6045 177.216C81.6045 176.84 81.5948 176.45 81.5756 176.046C81.5563 175.641 81.5082 175.246 81.4311 174.861C81.3541 174.476 81.2434 174.11 81.0989 173.763C80.9545 173.417 80.7571 173.113 80.5067 172.853C80.2563 172.593 79.9385 172.386 79.5534 172.232C79.1778 172.078 78.7252 172.001 78.1956 172.001C77.666 172.001 77.2085 172.078 76.8234 172.232C76.4478 172.386 76.1348 172.593 75.8845 172.853C75.6341 173.113 75.4367 173.417 75.2922 173.763C75.1478 174.11 75.0371 174.476 74.96 174.861C74.883 175.246 74.8348 175.641 74.8156 176.046C74.7963 176.45 74.7867 176.84 74.7867 177.216ZM84.0263 177.201C84.0263 176.951 84.0263 176.676 84.0263 176.378C84.0359 176.07 84.06 175.766 84.0985 175.468C84.1467 175.16 84.2092 174.861 84.2863 174.572C84.373 174.283 84.4933 174.033 84.6474 173.821C84.8111 173.6 85.0133 173.421 85.2541 173.287C85.4948 173.152 85.7885 173.084 86.1352 173.084C86.4818 173.084 86.7755 173.152 87.0163 173.287C87.257 173.421 87.4544 173.6 87.6085 173.821C87.7722 174.033 87.8926 174.283 87.9696 174.572C88.0563 174.861 88.1189 175.16 88.1574 175.468C88.2055 175.766 88.2296 176.07 88.2296 176.378C88.2392 176.676 88.2441 176.951 88.2441 177.201C88.2441 177.586 88.2296 178.02 88.2007 178.501C88.1815 178.973 88.1044 179.421 87.9696 179.844C87.8444 180.258 87.6374 180.61 87.3485 180.899C87.0596 181.188 86.6552 181.332 86.1352 181.332C85.6152 181.332 85.2107 181.188 84.9218 180.899C84.633 180.61 84.4211 180.258 84.2863 179.844C84.1611 179.421 84.0841 178.973 84.0552 178.501C84.0359 178.02 84.0263 177.586 84.0263 177.201ZM82.7263 177.216C82.7263 177.591 82.7359 177.981 82.7552 178.386C82.7744 178.79 82.8226 179.185 82.8996 179.57C82.9767 179.955 83.0874 180.321 83.2318 180.668C83.3763 181.005 83.5737 181.303 83.8241 181.563C84.0744 181.823 84.3874 182.03 84.763 182.184C85.1481 182.329 85.6055 182.401 86.1352 182.401C86.6744 182.401 87.1318 182.329 87.5074 182.184C87.883 182.03 88.1959 181.823 88.4463 181.563C88.6967 181.303 88.8941 181.005 89.0385 180.668C89.183 180.321 89.2937 179.955 89.3707 179.57C89.4478 179.185 89.4959 178.79 89.5152 178.386C89.5344 177.981 89.5441 177.591 89.5441 177.216C89.5441 176.84 89.5344 176.45 89.5152 176.046C89.4959 175.641 89.4478 175.246 89.3707 174.861C89.2937 174.476 89.183 174.11 89.0385 173.763C88.8941 173.417 88.6967 173.113 88.4463 172.853C88.1959 172.593 87.8781 172.386 87.493 172.232C87.1174 172.078 86.6648 172.001 86.1352 172.001C85.6055 172.001 85.1481 172.078 84.763 172.232C84.3874 172.386 84.0744 172.593 83.8241 172.853C83.5737 173.113 83.3763 173.417 83.2318 173.763C83.0874 174.11 82.9767 174.476 82.8996 174.861C82.8226 175.246 82.7744 175.641 82.7552 176.046C82.7359 176.45 82.7263 176.84 82.7263 177.216ZM91.9659 177.201C91.9659 176.951 91.9659 176.676 91.9659 176.378C91.9755 176.07 91.9996 175.766 92.0381 175.468C92.0862 175.16 92.1488 174.861 92.2259 174.572C92.3125 174.283 92.4329 174.033 92.587 173.821C92.7507 173.6 92.9529 173.421 93.1937 173.287C93.4344 173.152 93.7281 173.084 94.0748 173.084C94.4214 173.084 94.7151 173.152 94.9559 173.287C95.1966 173.421 95.394 173.6 95.5481 173.821C95.7118 174.033 95.8322 174.283 95.9092 174.572C95.9959 174.861 96.0585 175.16 96.097 175.468C96.1451 175.766 96.1692 176.07 96.1692 176.378C96.1788 176.676 96.1837 176.951 96.1837 177.201C96.1837 177.586 96.1692 178.02 96.1403 178.501C96.1211 178.973 96.044 179.421 95.9092 179.844C95.784 180.258 95.577 180.61 95.2881 180.899C94.9992 181.188 94.5948 181.332 94.0748 181.332C93.5548 181.332 93.1503 181.188 92.8614 180.899C92.5725 180.61 92.3607 180.258 92.2259 179.844C92.1007 179.421 92.0237 178.973 91.9948 178.501C91.9755 178.02 91.9659 177.586 91.9659 177.201ZM90.6659 177.216C90.6659 177.591 90.6755 177.981 90.6948 178.386C90.714 178.79 90.7622 179.185 90.8392 179.57C90.9162 179.955 91.027 180.321 91.1714 180.668C91.3159 181.005 91.5133 181.303 91.7637 181.563C92.014 181.823 92.327 182.03 92.7025 182.184C93.0877 182.329 93.5451 182.401 94.0748 182.401C94.614 182.401 95.0714 182.329 95.447 182.184C95.8225 182.03 96.1355 181.823 96.3859 181.563C96.6362 181.303 96.8337 181.005 96.9781 180.668C97.1225 180.321 97.2333 179.955 97.3103 179.57C97.3874 179.185 97.4355 178.79 97.4548 178.386C97.474 177.981 97.4837 177.591 97.4837 177.216C97.4837 176.84 97.474 176.45 97.4548 176.046C97.4355 175.641 97.3874 175.246 97.3103 174.861C97.2333 174.476 97.1225 174.11 96.9781 173.763C96.8337 173.417 96.6362 173.113 96.3859 172.853C96.1355 172.593 95.8177 172.386 95.4325 172.232C95.057 172.078 94.6044 172.001 94.0748 172.001C93.5451 172.001 93.0877 172.078 92.7025 172.232C92.327 172.386 92.014 172.593 91.7637 172.853C91.5133 173.113 91.3159 173.417 91.1714 173.763C91.027 174.11 90.9162 174.476 90.8392 174.861C90.7622 175.246 90.714 175.641 90.6948 176.046C90.6755 176.45 90.6659 176.84 90.6659 177.216ZM98.6344 175.627H99.8621C99.8525 175.318 99.8814 175.015 99.9488 174.717C100.026 174.408 100.146 174.134 100.31 173.893C100.474 173.653 100.681 173.46 100.931 173.316C101.191 173.161 101.499 173.084 101.855 173.084C102.125 173.084 102.38 173.128 102.621 173.214C102.862 173.301 103.069 173.426 103.242 173.59C103.425 173.754 103.57 173.951 103.675 174.182C103.781 174.404 103.834 174.654 103.834 174.933C103.834 175.29 103.777 175.603 103.661 175.872C103.555 176.142 103.391 176.392 103.17 176.623C102.958 176.854 102.688 177.086 102.361 177.317C102.034 177.538 101.653 177.784 101.22 178.053C100.864 178.265 100.522 178.491 100.194 178.732C99.867 178.973 99.5732 179.252 99.3132 179.57C99.0532 179.888 98.8366 180.263 98.6632 180.697C98.4995 181.12 98.3936 181.636 98.3455 182.242H105.033V181.159H99.7755C99.8332 180.841 99.9536 180.562 100.137 180.321C100.329 180.071 100.555 179.84 100.815 179.628C101.085 179.416 101.379 179.218 101.697 179.036C102.014 178.843 102.332 178.65 102.65 178.458C102.968 178.256 103.276 178.044 103.574 177.822C103.873 177.601 104.138 177.355 104.369 177.086C104.6 176.806 104.783 176.493 104.918 176.147C105.062 175.8 105.134 175.4 105.134 174.948C105.134 174.466 105.048 174.043 104.874 173.677C104.711 173.311 104.484 173.007 104.195 172.767C103.907 172.516 103.565 172.328 103.17 172.203C102.785 172.068 102.371 172.001 101.928 172.001C101.388 172.001 100.907 172.093 100.483 172.276C100.06 172.458 99.7032 172.714 99.4144 173.041C99.1351 173.359 98.9281 173.739 98.7932 174.182C98.6584 174.625 98.6055 175.107 98.6344 175.627ZM109.087 176.392V177.432C109.318 177.403 109.564 177.389 109.824 177.389C110.132 177.389 110.416 177.432 110.676 177.519C110.946 177.596 111.177 177.721 111.37 177.894C111.562 178.058 111.716 178.265 111.832 178.516C111.947 178.756 112.005 179.036 112.005 179.353C112.005 179.661 111.942 179.941 111.817 180.191C111.702 180.432 111.543 180.639 111.341 180.812C111.138 180.976 110.902 181.106 110.633 181.202C110.363 181.289 110.079 181.332 109.781 181.332C109.078 181.332 108.543 181.125 108.177 180.711C107.811 180.287 107.619 179.743 107.6 179.079H106.372C106.362 179.608 106.434 180.08 106.588 180.494C106.752 180.908 106.983 181.26 107.282 181.549C107.58 181.828 107.941 182.04 108.365 182.184C108.789 182.329 109.261 182.401 109.781 182.401C110.262 182.401 110.715 182.338 111.138 182.213C111.572 182.078 111.947 181.881 112.265 181.621C112.583 181.361 112.833 181.038 113.016 180.653C113.209 180.258 113.305 179.806 113.305 179.296C113.305 178.679 113.151 178.145 112.843 177.692C112.544 177.24 112.082 176.946 111.456 176.811V176.782C111.861 176.599 112.198 176.33 112.467 175.973C112.737 175.617 112.872 175.208 112.872 174.746C112.872 174.274 112.79 173.864 112.626 173.518C112.472 173.171 112.255 172.887 111.976 172.666C111.697 172.444 111.365 172.28 110.98 172.174C110.604 172.059 110.195 172.001 109.752 172.001C109.241 172.001 108.789 172.083 108.394 172.247C108.009 172.41 107.686 172.637 107.426 172.926C107.166 173.214 106.964 173.561 106.82 173.966C106.685 174.37 106.608 174.818 106.588 175.309H107.816C107.816 175.01 107.855 174.726 107.932 174.457C108.009 174.187 108.124 173.951 108.278 173.749C108.442 173.547 108.644 173.388 108.885 173.272C109.135 173.147 109.424 173.084 109.752 173.084C110.272 173.084 110.705 173.224 111.052 173.503C111.398 173.773 111.572 174.182 111.572 174.731C111.572 175.001 111.519 175.241 111.413 175.453C111.307 175.665 111.162 175.843 110.98 175.988C110.806 176.123 110.599 176.228 110.358 176.306C110.127 176.373 109.882 176.407 109.622 176.407H109.362C109.314 176.407 109.265 176.407 109.217 176.407C109.179 176.407 109.135 176.402 109.087 176.392Z" fill="#71748C"/>
<rect x="43.5078" y="192.496" width="92.0833" height="5.55079" rx="2.7754" fill="#F6F6F8"/>
<rect x="269.594" y="168.113" width="78.28" height="9.68" rx="4.84" fill="#F6F6F8"/>
<rect x="299.617" y="186.047" width="48.254" height="14.127" rx="2.06349" fill="#FDF6F8"/>
<path d="M305.114 193.426C305.114 193.055 305.163 192.69 305.259 192.332C305.355 191.968 305.506 191.641 305.713 191.352C305.919 191.063 306.184 190.833 306.507 190.661C306.831 190.482 307.216 190.393 307.663 190.393C308.11 190.393 308.495 190.482 308.818 190.661C309.142 190.833 309.406 191.063 309.613 191.352C309.819 191.641 309.97 191.968 310.067 192.332C310.163 192.69 310.211 193.055 310.211 193.426C310.211 193.797 310.163 194.165 310.067 194.53C309.97 194.888 309.819 195.211 309.613 195.5C309.406 195.789 309.142 196.023 308.818 196.201C308.495 196.373 308.11 196.459 307.663 196.459C307.216 196.459 306.831 196.373 306.507 196.201C306.184 196.023 305.919 195.789 305.713 195.5C305.506 195.211 305.355 194.888 305.259 194.53C305.163 194.165 305.114 193.797 305.114 193.426ZM304.134 193.426C304.134 193.928 304.206 194.413 304.351 194.881C304.502 195.342 304.726 195.751 305.022 196.109C305.317 196.466 305.685 196.752 306.126 196.965C306.566 197.171 307.078 197.274 307.663 197.274C308.247 197.274 308.76 197.171 309.2 196.965C309.64 196.752 310.008 196.466 310.304 196.109C310.6 195.751 310.82 195.342 310.964 194.881C311.116 194.413 311.191 193.928 311.191 193.426C311.191 192.924 311.116 192.442 310.964 191.982C310.82 191.514 310.6 191.101 310.304 190.744C310.008 190.386 309.64 190.1 309.2 189.887C308.76 189.674 308.247 189.567 307.663 189.567C307.078 189.567 306.566 189.674 306.126 189.887C305.685 190.1 305.317 190.386 305.022 190.744C304.726 191.101 304.502 191.514 304.351 191.982C304.206 192.442 304.134 192.924 304.134 193.426ZM314.645 197.109L316.595 191.775H315.677L314.222 196.222H314.202L312.706 191.775H311.725L313.706 197.109H314.645ZM321.104 193.932H318.04C318.054 193.725 318.098 193.533 318.174 193.354C318.25 193.168 318.353 193.006 318.483 192.869C318.614 192.731 318.769 192.625 318.948 192.549C319.133 192.467 319.34 192.425 319.567 192.425C319.787 192.425 319.986 192.467 320.165 192.549C320.351 192.625 320.509 192.731 320.64 192.869C320.777 193 320.884 193.158 320.96 193.344C321.042 193.529 321.09 193.725 321.104 193.932ZM321.95 195.417H321.083C321.008 195.768 320.85 196.029 320.609 196.201C320.375 196.373 320.072 196.459 319.701 196.459C319.412 196.459 319.161 196.411 318.948 196.315C318.734 196.219 318.559 196.091 318.422 195.933C318.284 195.768 318.184 195.582 318.122 195.376C318.06 195.163 318.033 194.939 318.04 194.705H322.033C322.046 194.382 322.015 194.042 321.94 193.684C321.871 193.326 321.74 192.996 321.548 192.694C321.362 192.391 321.111 192.143 320.795 191.951C320.485 191.751 320.093 191.651 319.618 191.651C319.254 191.651 318.917 191.72 318.607 191.858C318.305 191.995 318.04 192.188 317.813 192.436C317.593 192.683 317.421 192.976 317.297 193.313C317.173 193.65 317.111 194.021 317.111 194.427C317.125 194.833 317.183 195.208 317.287 195.551C317.397 195.895 317.558 196.191 317.772 196.439C317.985 196.686 318.246 196.879 318.556 197.017C318.872 197.154 319.243 197.223 319.67 197.223C320.275 197.223 320.777 197.072 321.176 196.769C321.575 196.466 321.833 196.016 321.95 195.417ZM322.911 191.775V197.109H323.788V194.736C323.788 194.392 323.822 194.09 323.891 193.828C323.96 193.56 324.07 193.333 324.221 193.147C324.372 192.962 324.572 192.821 324.819 192.724C325.067 192.628 325.366 192.58 325.717 192.58V191.651C325.242 191.638 324.85 191.734 324.541 191.94C324.231 192.147 323.97 192.467 323.757 192.9H323.736V191.775H322.911ZM326.836 194.489C326.836 194.227 326.863 193.973 326.918 193.725C326.973 193.478 327.063 193.258 327.187 193.065C327.31 192.872 327.475 192.718 327.682 192.601C327.888 192.484 328.139 192.425 328.435 192.425C328.738 192.425 328.996 192.484 329.209 192.601C329.422 192.711 329.594 192.859 329.725 193.044C329.862 193.23 329.962 193.447 330.024 193.694C330.086 193.935 330.117 194.186 330.117 194.447C330.117 194.695 330.086 194.939 330.024 195.18C329.969 195.421 329.876 195.637 329.745 195.83C329.615 196.016 329.446 196.167 329.24 196.284C329.033 196.401 328.782 196.459 328.487 196.459C328.205 196.459 327.957 196.404 327.744 196.294C327.537 196.184 327.365 196.036 327.228 195.851C327.097 195.665 326.997 195.455 326.929 195.221C326.867 194.981 326.836 194.736 326.836 194.489ZM330.963 197.109V189.743H330.086V192.487H330.065C329.969 192.329 329.849 192.198 329.704 192.095C329.566 191.985 329.419 191.899 329.26 191.837C329.102 191.768 328.944 191.72 328.786 191.693C328.628 191.665 328.48 191.651 328.342 191.651C327.936 191.651 327.579 191.727 327.269 191.878C326.966 192.023 326.712 192.222 326.506 192.477C326.306 192.724 326.155 193.017 326.052 193.354C325.955 193.691 325.907 194.049 325.907 194.427C325.907 194.805 325.959 195.163 326.062 195.5C326.165 195.837 326.316 196.133 326.516 196.387C326.722 196.642 326.977 196.845 327.279 196.996C327.589 197.147 327.95 197.223 328.363 197.223C328.734 197.223 329.075 197.158 329.384 197.027C329.694 196.896 329.921 196.683 330.065 196.387H330.086V197.109H330.963ZM336.728 197.109V191.775H335.851V194.788C335.851 195.029 335.817 195.252 335.748 195.459C335.686 195.658 335.59 195.833 335.459 195.985C335.328 196.136 335.163 196.253 334.964 196.336C334.771 196.418 334.541 196.459 334.272 196.459C333.935 196.459 333.671 196.363 333.478 196.17C333.285 195.978 333.189 195.717 333.189 195.386V191.775H332.312V195.283C332.312 195.572 332.34 195.837 332.395 196.078C332.456 196.311 332.56 196.514 332.704 196.686C332.849 196.858 333.038 196.992 333.272 197.089C333.505 197.178 333.798 197.223 334.149 197.223C334.541 197.223 334.881 197.147 335.17 196.996C335.459 196.838 335.696 196.594 335.882 196.263H335.903V197.109H336.728ZM341.749 193.932H338.685C338.699 193.725 338.743 193.533 338.819 193.354C338.895 193.168 338.998 193.006 339.128 192.869C339.259 192.731 339.414 192.625 339.593 192.549C339.778 192.467 339.985 192.425 340.212 192.425C340.432 192.425 340.631 192.467 340.81 192.549C340.996 192.625 341.154 192.731 341.285 192.869C341.422 193 341.529 193.158 341.605 193.344C341.687 193.529 341.735 193.725 341.749 193.932ZM342.595 195.417H341.728C341.653 195.768 341.495 196.029 341.254 196.201C341.02 196.373 340.717 196.459 340.346 196.459C340.057 196.459 339.806 196.411 339.593 196.315C339.379 196.219 339.204 196.091 339.067 195.933C338.929 195.768 338.829 195.582 338.767 195.376C338.705 195.163 338.678 194.939 338.685 194.705H342.678C342.691 194.382 342.66 194.042 342.585 193.684C342.516 193.326 342.385 192.996 342.193 192.694C342.007 192.391 341.756 192.143 341.44 191.951C341.13 191.751 340.738 191.651 340.263 191.651C339.899 191.651 339.562 191.72 339.252 191.858C338.95 191.995 338.685 192.188 338.458 192.436C338.238 192.683 338.066 192.976 337.942 193.313C337.818 193.65 337.756 194.021 337.756 194.427C337.77 194.833 337.828 195.208 337.932 195.551C338.042 195.895 338.203 196.191 338.417 196.439C338.63 196.686 338.891 196.879 339.201 197.017C339.517 197.154 339.888 197.223 340.315 197.223C340.92 197.223 341.422 197.072 341.821 196.769C342.22 196.466 342.478 196.016 342.595 195.417Z" fill="#D20832"/>
<rect x="43.5078" y="213.031" width="304.365" height="1.03175" fill="#F6F6F8"/>
<path d="M46.8445 234.411H48.6356L48.3323 236.577H46.5411L46.8445 234.411ZM45.4 237.56L44.9811 240.535H45.9778L46.3967 237.56H48.1878L47.7689 240.535H48.7656L49.1845 237.56H50.6434V236.577H49.3289L49.6323 234.411H51.0478V233.428H49.7623L50.1811 230.467H49.1845L48.7656 233.428H46.9745L47.3934 230.467H46.3967L45.9778 233.428H44.3745V234.411H45.8478L45.5445 236.577H43.9989V237.56H45.4ZM52.6318 230.222V240.535H54.0041V230.222H52.6318ZM56.211 230.222V240.535H57.511V232.258H57.5399L62.9277 240.535H64.4299V230.222H63.1299V238.585H63.101L57.6699 230.222H56.211ZM70.622 240.535L74.2908 230.222H72.8608L69.8853 239.163H69.8564L66.9097 230.222H65.4364L69.062 240.535H70.622ZM76.0867 235.494C76.0867 235.244 76.0867 234.969 76.0867 234.671C76.0963 234.363 76.1204 234.059 76.1589 233.761C76.2071 233.453 76.2697 233.154 76.3467 232.865C76.4334 232.576 76.5537 232.326 76.7078 232.114C76.8715 231.893 77.0737 231.714 77.3145 231.58C77.5552 231.445 77.8489 231.377 78.1956 231.377C78.5422 231.377 78.836 231.445 79.0767 231.58C79.3174 231.714 79.5148 231.893 79.6689 232.114C79.8326 232.326 79.953 232.576 80.03 232.865C80.1167 233.154 80.1793 233.453 80.2178 233.761C80.266 234.059 80.29 234.363 80.29 234.671C80.2997 234.969 80.3045 235.244 80.3045 235.494C80.3045 235.879 80.29 236.313 80.2611 236.794C80.2419 237.266 80.1648 237.714 80.03 238.137C79.9048 238.551 79.6978 238.903 79.4089 239.192C79.12 239.481 78.7156 239.625 78.1956 239.625C77.6756 239.625 77.2711 239.481 76.9822 239.192C76.6934 238.903 76.4815 238.551 76.3467 238.137C76.2215 237.714 76.1445 237.266 76.1156 236.794C76.0963 236.313 76.0867 235.879 76.0867 235.494ZM74.7867 235.508C74.7867 235.884 74.7963 236.274 74.8156 236.678C74.8348 237.083 74.883 237.478 74.96 237.863C75.0371 238.248 75.1478 238.614 75.2922 238.961C75.4367 239.298 75.6341 239.596 75.8845 239.856C76.1348 240.116 76.4478 240.323 76.8234 240.477C77.2085 240.622 77.666 240.694 78.1956 240.694C78.7348 240.694 79.1922 240.622 79.5678 240.477C79.9434 240.323 80.2563 240.116 80.5067 239.856C80.7571 239.596 80.9545 239.298 81.0989 238.961C81.2434 238.614 81.3541 238.248 81.4311 237.863C81.5082 237.478 81.5563 237.083 81.5756 236.678C81.5948 236.274 81.6045 235.884 81.6045 235.508C81.6045 235.133 81.5948 234.743 81.5756 234.338C81.5563 233.934 81.5082 233.539 81.4311 233.154C81.3541 232.769 81.2434 232.403 81.0989 232.056C80.9545 231.71 80.7571 231.406 80.5067 231.146C80.2563 230.886 79.9385 230.679 79.5534 230.525C79.1778 230.371 78.7252 230.294 78.1956 230.294C77.666 230.294 77.2085 230.371 76.8234 230.525C76.4478 230.679 76.1348 230.886 75.8845 231.146C75.6341 231.406 75.4367 231.71 75.2922 232.056C75.1478 232.403 75.0371 232.769 74.96 233.154C74.883 233.539 74.8348 233.934 74.8156 234.338C74.7963 234.743 74.7867 235.133 74.7867 235.508ZM84.0263 235.494C84.0263 235.244 84.0263 234.969 84.0263 234.671C84.0359 234.363 84.06 234.059 84.0985 233.761C84.1467 233.453 84.2092 233.154 84.2863 232.865C84.373 232.576 84.4933 232.326 84.6474 232.114C84.8111 231.893 85.0133 231.714 85.2541 231.58C85.4948 231.445 85.7885 231.377 86.1352 231.377C86.4818 231.377 86.7755 231.445 87.0163 231.58C87.257 231.714 87.4544 231.893 87.6085 232.114C87.7722 232.326 87.8926 232.576 87.9696 232.865C88.0563 233.154 88.1189 233.453 88.1574 233.761C88.2055 234.059 88.2296 234.363 88.2296 234.671C88.2392 234.969 88.2441 235.244 88.2441 235.494C88.2441 235.879 88.2296 236.313 88.2007 236.794C88.1815 237.266 88.1044 237.714 87.9696 238.137C87.8444 238.551 87.6374 238.903 87.3485 239.192C87.0596 239.481 86.6552 239.625 86.1352 239.625C85.6152 239.625 85.2107 239.481 84.9218 239.192C84.633 238.903 84.4211 238.551 84.2863 238.137C84.1611 237.714 84.0841 237.266 84.0552 236.794C84.0359 236.313 84.0263 235.879 84.0263 235.494ZM82.7263 235.508C82.7263 235.884 82.7359 236.274 82.7552 236.678C82.7744 237.083 82.8226 237.478 82.8996 237.863C82.9767 238.248 83.0874 238.614 83.2318 238.961C83.3763 239.298 83.5737 239.596 83.8241 239.856C84.0744 240.116 84.3874 240.323 84.763 240.477C85.1481 240.622 85.6055 240.694 86.1352 240.694C86.6744 240.694 87.1318 240.622 87.5074 240.477C87.883 240.323 88.1959 240.116 88.4463 239.856C88.6967 239.596 88.8941 239.298 89.0385 238.961C89.183 238.614 89.2937 238.248 89.3707 237.863C89.4478 237.478 89.4959 237.083 89.5152 236.678C89.5344 236.274 89.5441 235.884 89.5441 235.508C89.5441 235.133 89.5344 234.743 89.5152 234.338C89.4959 233.934 89.4478 233.539 89.3707 233.154C89.2937 232.769 89.183 232.403 89.0385 232.056C88.8941 231.71 88.6967 231.406 88.4463 231.146C88.1959 230.886 87.8781 230.679 87.493 230.525C87.1174 230.371 86.6648 230.294 86.1352 230.294C85.6055 230.294 85.1481 230.371 84.763 230.525C84.3874 230.679 84.0744 230.886 83.8241 231.146C83.5737 231.406 83.3763 231.71 83.2318 232.056C83.0874 232.403 82.9767 232.769 82.8996 233.154C82.8226 233.539 82.7744 233.934 82.7552 234.338C82.7359 234.743 82.7263 235.133 82.7263 235.508ZM91.9659 235.494C91.9659 235.244 91.9659 234.969 91.9659 234.671C91.9755 234.363 91.9996 234.059 92.0381 233.761C92.0862 233.453 92.1488 233.154 92.2259 232.865C92.3125 232.576 92.4329 232.326 92.587 232.114C92.7507 231.893 92.9529 231.714 93.1937 231.58C93.4344 231.445 93.7281 231.377 94.0748 231.377C94.4214 231.377 94.7151 231.445 94.9559 231.58C95.1966 231.714 95.394 231.893 95.5481 232.114C95.7118 232.326 95.8322 232.576 95.9092 232.865C95.9959 233.154 96.0585 233.453 96.097 233.761C96.1451 234.059 96.1692 234.363 96.1692 234.671C96.1788 234.969 96.1837 235.244 96.1837 235.494C96.1837 235.879 96.1692 236.313 96.1403 236.794C96.1211 237.266 96.044 237.714 95.9092 238.137C95.784 238.551 95.577 238.903 95.2881 239.192C94.9992 239.481 94.5948 239.625 94.0748 239.625C93.5548 239.625 93.1503 239.481 92.8614 239.192C92.5725 238.903 92.3607 238.551 92.2259 238.137C92.1007 237.714 92.0237 237.266 91.9948 236.794C91.9755 236.313 91.9659 235.879 91.9659 235.494ZM90.6659 235.508C90.6659 235.884 90.6755 236.274 90.6948 236.678C90.714 237.083 90.7622 237.478 90.8392 237.863C90.9162 238.248 91.027 238.614 91.1714 238.961C91.3159 239.298 91.5133 239.596 91.7637 239.856C92.014 240.116 92.327 240.323 92.7025 240.477C93.0877 240.622 93.5451 240.694 94.0748 240.694C94.614 240.694 95.0714 240.622 95.447 240.477C95.8225 240.323 96.1355 240.116 96.3859 239.856C96.6362 239.596 96.8337 239.298 96.9781 238.961C97.1225 238.614 97.2333 238.248 97.3103 237.863C97.3874 237.478 97.4355 237.083 97.4548 236.678C97.474 236.274 97.4837 235.884 97.4837 235.508C97.4837 235.133 97.474 234.743 97.4548 234.338C97.4355 233.934 97.3874 233.539 97.3103 233.154C97.2333 232.769 97.1225 232.403 96.9781 232.056C96.8337 231.71 96.6362 231.406 96.3859 231.146C96.1355 230.886 95.8177 230.679 95.4325 230.525C95.057 230.371 94.6044 230.294 94.0748 230.294C93.5451 230.294 93.0877 230.371 92.7025 230.525C92.327 230.679 92.014 230.886 91.7637 231.146C91.5133 231.406 91.3159 231.71 91.1714 232.056C91.027 232.403 90.9162 232.769 90.8392 233.154C90.7622 233.539 90.714 233.934 90.6948 234.338C90.6755 234.743 90.6659 235.133 90.6659 235.508ZM98.6344 233.92H99.8621C99.8525 233.611 99.8814 233.308 99.9488 233.01C100.026 232.701 100.146 232.427 100.31 232.186C100.474 231.946 100.681 231.753 100.931 231.608C101.191 231.454 101.499 231.377 101.855 231.377C102.125 231.377 102.38 231.421 102.621 231.507C102.862 231.594 103.069 231.719 103.242 231.883C103.425 232.047 103.57 232.244 103.675 232.475C103.781 232.697 103.834 232.947 103.834 233.226C103.834 233.583 103.777 233.896 103.661 234.165C103.555 234.435 103.391 234.685 103.17 234.916C102.958 235.147 102.688 235.378 102.361 235.61C102.034 235.831 101.653 236.077 101.22 236.346C100.864 236.558 100.522 236.784 100.194 237.025C99.867 237.266 99.5732 237.545 99.3132 237.863C99.0532 238.181 98.8366 238.556 98.6632 238.99C98.4995 239.413 98.3936 239.928 98.3455 240.535H105.033V239.452H99.7755C99.8332 239.134 99.9536 238.855 100.137 238.614C100.329 238.364 100.555 238.133 100.815 237.921C101.085 237.709 101.379 237.511 101.697 237.328C102.014 237.136 102.332 236.943 102.65 236.751C102.968 236.548 103.276 236.337 103.574 236.115C103.873 235.894 104.138 235.648 104.369 235.378C104.6 235.099 104.783 234.786 104.918 234.44C105.062 234.093 105.134 233.693 105.134 233.241C105.134 232.759 105.048 232.336 104.874 231.97C104.711 231.604 104.484 231.3 104.195 231.06C103.907 230.809 103.565 230.621 103.17 230.496C102.785 230.361 102.371 230.294 101.928 230.294C101.388 230.294 100.907 230.386 100.483 230.568C100.06 230.751 99.7032 231.007 99.4144 231.334C99.1351 231.652 98.9281 232.032 98.7932 232.475C98.6584 232.918 98.6055 233.4 98.6344 233.92ZM110.835 237.054H107.397L110.806 232.042H110.835V237.054ZM111.991 237.054V230.294H111.008L106.343 236.953V238.137H110.835V240.535H111.991V238.137H113.377V237.054H111.991Z" fill="#71748C"/>
<rect x="43.5078" y="250.789" width="68.08" height="6.58104" rx="3.29052" fill="#F6F6F8"/>
<rect x="261.594" y="226.922" width="86.28" height="9.68" rx="4.84" fill="#F6F6F8"/>
<rect x="320.617" y="244.855" width="27.254" height="14.127" rx="2.06349" fill="#FEFAF5"/>
<path d="M326.527 255.093V249.377H328.178C328.632 249.377 329.014 249.442 329.323 249.573C329.633 249.697 329.884 249.882 330.076 250.13C330.276 250.371 330.417 250.666 330.499 251.017C330.589 251.361 330.633 251.753 330.633 252.193C330.633 252.647 330.585 253.036 330.489 253.359C330.4 253.676 330.283 253.94 330.138 254.154C329.994 254.367 329.829 254.535 329.643 254.659C329.464 254.783 329.282 254.879 329.096 254.948C328.91 255.01 328.735 255.051 328.57 255.072C328.405 255.086 328.267 255.093 328.157 255.093H326.527ZM325.547 248.551V255.918H328.075C328.687 255.918 329.217 255.832 329.664 255.66C330.111 255.488 330.479 255.24 330.768 254.917C331.056 254.587 331.27 254.185 331.407 253.71C331.545 253.229 331.614 252.678 331.614 252.059C331.614 250.876 331.308 249.996 330.695 249.418C330.083 248.84 329.21 248.551 328.075 248.551H325.547ZM337.083 255.918V250.584H336.206V253.597C336.206 253.837 336.172 254.061 336.103 254.267C336.041 254.467 335.945 254.642 335.814 254.793C335.683 254.945 335.518 255.062 335.319 255.144C335.126 255.227 334.896 255.268 334.627 255.268C334.29 255.268 334.026 255.172 333.833 254.979C333.64 254.786 333.544 254.525 333.544 254.195V250.584H332.667V254.092C332.667 254.381 332.695 254.645 332.75 254.886C332.811 255.12 332.915 255.323 333.059 255.495C333.204 255.667 333.393 255.801 333.627 255.897C333.86 255.987 334.153 256.031 334.504 256.031C334.896 256.031 335.236 255.956 335.525 255.804C335.814 255.646 336.051 255.402 336.237 255.072H336.258V255.918H337.083ZM342.104 252.74H339.04C339.054 252.534 339.098 252.341 339.174 252.162C339.25 251.977 339.353 251.815 339.483 251.677C339.614 251.54 339.769 251.433 339.948 251.358C340.133 251.275 340.34 251.234 340.567 251.234C340.787 251.234 340.986 251.275 341.165 251.358C341.351 251.433 341.509 251.54 341.64 251.677C341.777 251.808 341.884 251.966 341.96 252.152C342.042 252.338 342.09 252.534 342.104 252.74ZM342.95 254.226H342.083C342.008 254.577 341.85 254.838 341.609 255.01C341.375 255.182 341.072 255.268 340.701 255.268C340.412 255.268 340.161 255.22 339.948 255.124C339.734 255.027 339.559 254.9 339.422 254.742C339.284 254.577 339.184 254.391 339.122 254.185C339.06 253.971 339.033 253.748 339.04 253.514H343.033C343.046 253.191 343.015 252.85 342.94 252.493C342.871 252.135 342.74 251.805 342.548 251.502C342.362 251.199 342.111 250.952 341.795 250.759C341.485 250.56 341.093 250.46 340.618 250.46C340.254 250.46 339.917 250.529 339.607 250.666C339.305 250.804 339.04 250.997 338.813 251.244C338.593 251.492 338.421 251.784 338.297 252.121C338.173 252.458 338.111 252.83 338.111 253.235C338.125 253.641 338.183 254.016 338.287 254.36C338.397 254.704 338.558 255 338.772 255.247C338.985 255.495 339.246 255.688 339.556 255.825C339.872 255.963 340.243 256.031 340.67 256.031C341.275 256.031 341.777 255.88 342.176 255.577C342.575 255.275 342.833 254.824 342.95 254.226Z" fill="#F07911"/>
<rect x="43.5078" y="271.84" width="304.365" height="1.03175" fill="#F6F6F8"/>
<path d="M46.8445 293.219H48.6356L48.3323 295.386H46.5411L46.8445 293.219ZM45.4 296.368L44.9811 299.344H45.9778L46.3967 296.368H48.1878L47.7689 299.344H48.7656L49.1845 296.368H50.6434V295.386H49.3289L49.6323 293.219H51.0478V292.237H49.7623L50.1811 289.276H49.1845L48.7656 292.237H46.9745L47.3934 289.276H46.3967L45.9778 292.237H44.3745V293.219H45.8478L45.5445 295.386H43.9989V296.368H45.4ZM52.6318 289.03V299.344H54.0041V289.03H52.6318ZM56.211 289.03V299.344H57.511V291.067H57.5399L62.9277 299.344H64.4299V289.03H63.1299V297.394H63.101L57.6699 289.03H56.211ZM70.622 299.344L74.2908 289.03H72.8608L69.8853 297.972H69.8564L66.9097 289.03H65.4364L69.062 299.344H70.622ZM76.0867 294.303C76.0867 294.052 76.0867 293.778 76.0867 293.479C76.0963 293.171 76.1204 292.868 76.1589 292.569C76.2071 292.261 76.2697 291.963 76.3467 291.674C76.4334 291.385 76.5537 291.134 76.7078 290.923C76.8715 290.701 77.0737 290.523 77.3145 290.388C77.5552 290.253 77.8489 290.186 78.1956 290.186C78.5422 290.186 78.836 290.253 79.0767 290.388C79.3174 290.523 79.5148 290.701 79.6689 290.923C79.8326 291.134 79.953 291.385 80.03 291.674C80.1167 291.963 80.1793 292.261 80.2178 292.569C80.266 292.868 80.29 293.171 80.29 293.479C80.2997 293.778 80.3045 294.052 80.3045 294.303C80.3045 294.688 80.29 295.121 80.2611 295.603C80.2419 296.074 80.1648 296.522 80.03 296.946C79.9048 297.36 79.6978 297.712 79.4089 298C79.12 298.289 78.7156 298.434 78.1956 298.434C77.6756 298.434 77.2711 298.289 76.9822 298C76.6934 297.712 76.4815 297.36 76.3467 296.946C76.2215 296.522 76.1445 296.074 76.1156 295.603C76.0963 295.121 76.0867 294.688 76.0867 294.303ZM74.7867 294.317C74.7867 294.693 74.7963 295.083 74.8156 295.487C74.8348 295.892 74.883 296.286 74.96 296.672C75.0371 297.057 75.1478 297.423 75.2922 297.769C75.4367 298.106 75.6341 298.405 75.8845 298.665C76.1348 298.925 76.4478 299.132 76.8234 299.286C77.2085 299.43 77.666 299.503 78.1956 299.503C78.7348 299.503 79.1922 299.43 79.5678 299.286C79.9434 299.132 80.2563 298.925 80.5067 298.665C80.7571 298.405 80.9545 298.106 81.0989 297.769C81.2434 297.423 81.3541 297.057 81.4311 296.672C81.5082 296.286 81.5563 295.892 81.5756 295.487C81.5948 295.083 81.6045 294.693 81.6045 294.317C81.6045 293.942 81.5948 293.552 81.5756 293.147C81.5563 292.743 81.5082 292.348 81.4311 291.963C81.3541 291.577 81.2434 291.212 81.0989 290.865C80.9545 290.518 80.7571 290.215 80.5067 289.955C80.2563 289.695 79.9385 289.488 79.5534 289.334C79.1778 289.18 78.7252 289.103 78.1956 289.103C77.666 289.103 77.2085 289.18 76.8234 289.334C76.4478 289.488 76.1348 289.695 75.8845 289.955C75.6341 290.215 75.4367 290.518 75.2922 290.865C75.1478 291.212 75.0371 291.577 74.96 291.963C74.883 292.348 74.8348 292.743 74.8156 293.147C74.7963 293.552 74.7867 293.942 74.7867 294.317ZM84.0263 294.303C84.0263 294.052 84.0263 293.778 84.0263 293.479C84.0359 293.171 84.06 292.868 84.0985 292.569C84.1467 292.261 84.2092 291.963 84.2863 291.674C84.373 291.385 84.4933 291.134 84.6474 290.923C84.8111 290.701 85.0133 290.523 85.2541 290.388C85.4948 290.253 85.7885 290.186 86.1352 290.186C86.4818 290.186 86.7755 290.253 87.0163 290.388C87.257 290.523 87.4544 290.701 87.6085 290.923C87.7722 291.134 87.8926 291.385 87.9696 291.674C88.0563 291.963 88.1189 292.261 88.1574 292.569C88.2055 292.868 88.2296 293.171 88.2296 293.479C88.2392 293.778 88.2441 294.052 88.2441 294.303C88.2441 294.688 88.2296 295.121 88.2007 295.603C88.1815 296.074 88.1044 296.522 87.9696 296.946C87.8444 297.36 87.6374 297.712 87.3485 298C87.0596 298.289 86.6552 298.434 86.1352 298.434C85.6152 298.434 85.2107 298.289 84.9218 298C84.633 297.712 84.4211 297.36 84.2863 296.946C84.1611 296.522 84.0841 296.074 84.0552 295.603C84.0359 295.121 84.0263 294.688 84.0263 294.303ZM82.7263 294.317C82.7263 294.693 82.7359 295.083 82.7552 295.487C82.7744 295.892 82.8226 296.286 82.8996 296.672C82.9767 297.057 83.0874 297.423 83.2318 297.769C83.3763 298.106 83.5737 298.405 83.8241 298.665C84.0744 298.925 84.3874 299.132 84.763 299.286C85.1481 299.43 85.6055 299.503 86.1352 299.503C86.6744 299.503 87.1318 299.43 87.5074 299.286C87.883 299.132 88.1959 298.925 88.4463 298.665C88.6967 298.405 88.8941 298.106 89.0385 297.769C89.183 297.423 89.2937 297.057 89.3707 296.672C89.4478 296.286 89.4959 295.892 89.5152 295.487C89.5344 295.083 89.5441 294.693 89.5441 294.317C89.5441 293.942 89.5344 293.552 89.5152 293.147C89.4959 292.743 89.4478 292.348 89.3707 291.963C89.2937 291.577 89.183 291.212 89.0385 290.865C88.8941 290.518 88.6967 290.215 88.4463 289.955C88.1959 289.695 87.8781 289.488 87.493 289.334C87.1174 289.18 86.6648 289.103 86.1352 289.103C85.6055 289.103 85.1481 289.18 84.763 289.334C84.3874 289.488 84.0744 289.695 83.8241 289.955C83.5737 290.215 83.3763 290.518 83.2318 290.865C83.0874 291.212 82.9767 291.577 82.8996 291.963C82.8226 292.348 82.7744 292.743 82.7552 293.147C82.7359 293.552 82.7263 293.942 82.7263 294.317ZM91.9659 294.303C91.9659 294.052 91.9659 293.778 91.9659 293.479C91.9755 293.171 91.9996 292.868 92.0381 292.569C92.0862 292.261 92.1488 291.963 92.2259 291.674C92.3125 291.385 92.4329 291.134 92.587 290.923C92.7507 290.701 92.9529 290.523 93.1937 290.388C93.4344 290.253 93.7281 290.186 94.0748 290.186C94.4214 290.186 94.7151 290.253 94.9559 290.388C95.1966 290.523 95.394 290.701 95.5481 290.923C95.7118 291.134 95.8322 291.385 95.9092 291.674C95.9959 291.963 96.0585 292.261 96.097 292.569C96.1451 292.868 96.1692 293.171 96.1692 293.479C96.1788 293.778 96.1837 294.052 96.1837 294.303C96.1837 294.688 96.1692 295.121 96.1403 295.603C96.1211 296.074 96.044 296.522 95.9092 296.946C95.784 297.36 95.577 297.712 95.2881 298C94.9992 298.289 94.5948 298.434 94.0748 298.434C93.5548 298.434 93.1503 298.289 92.8614 298C92.5725 297.712 92.3607 297.36 92.2259 296.946C92.1007 296.522 92.0237 296.074 91.9948 295.603C91.9755 295.121 91.9659 294.688 91.9659 294.303ZM90.6659 294.317C90.6659 294.693 90.6755 295.083 90.6948 295.487C90.714 295.892 90.7622 296.286 90.8392 296.672C90.9162 297.057 91.027 297.423 91.1714 297.769C91.3159 298.106 91.5133 298.405 91.7637 298.665C92.014 298.925 92.327 299.132 92.7025 299.286C93.0877 299.43 93.5451 299.503 94.0748 299.503C94.614 299.503 95.0714 299.43 95.447 299.286C95.8225 299.132 96.1355 298.925 96.3859 298.665C96.6362 298.405 96.8337 298.106 96.9781 297.769C97.1225 297.423 97.2333 297.057 97.3103 296.672C97.3874 296.286 97.4355 295.892 97.4548 295.487C97.474 295.083 97.4837 294.693 97.4837 294.317C97.4837 293.942 97.474 293.552 97.4548 293.147C97.4355 292.743 97.3874 292.348 97.3103 291.963C97.2333 291.577 97.1225 291.212 96.9781 290.865C96.8337 290.518 96.6362 290.215 96.3859 289.955C96.1355 289.695 95.8177 289.488 95.4325 289.334C95.057 289.18 94.6044 289.103 94.0748 289.103C93.5451 289.103 93.0877 289.18 92.7025 289.334C92.327 289.488 92.014 289.695 91.7637 289.955C91.5133 290.215 91.3159 290.518 91.1714 290.865C91.027 291.212 90.9162 291.577 90.8392 291.963C90.7622 292.348 90.714 292.743 90.6948 293.147C90.6755 293.552 90.6659 293.942 90.6659 294.317ZM98.6344 292.728H99.8621C99.8525 292.42 99.8814 292.117 99.9488 291.818C100.026 291.51 100.146 291.236 100.31 290.995C100.474 290.754 100.681 290.562 100.931 290.417C101.191 290.263 101.499 290.186 101.855 290.186C102.125 290.186 102.38 290.229 102.621 290.316C102.862 290.403 103.069 290.528 103.242 290.692C103.425 290.855 103.57 291.053 103.675 291.284C103.781 291.505 103.834 291.756 103.834 292.035C103.834 292.391 103.777 292.704 103.661 292.974C103.555 293.243 103.391 293.494 103.17 293.725C102.958 293.956 102.688 294.187 102.361 294.418C102.034 294.64 101.653 294.885 101.22 295.155C100.864 295.367 100.522 295.593 100.194 295.834C99.867 296.074 99.5732 296.354 99.3132 296.672C99.0532 296.989 98.8366 297.365 98.6632 297.798C98.4995 298.222 98.3936 298.737 98.3455 299.344H105.033V298.26H99.7755C99.8332 297.943 99.9536 297.663 100.137 297.423C100.329 297.172 100.555 296.941 100.815 296.729C101.085 296.517 101.379 296.32 101.697 296.137C102.014 295.944 102.332 295.752 102.65 295.559C102.968 295.357 103.276 295.145 103.574 294.924C103.873 294.702 104.138 294.457 104.369 294.187C104.6 293.908 104.783 293.595 104.918 293.248C105.062 292.902 105.134 292.502 105.134 292.049C105.134 291.568 105.048 291.144 104.874 290.778C104.711 290.412 104.484 290.109 104.195 289.868C103.907 289.618 103.565 289.43 103.17 289.305C102.785 289.17 102.371 289.103 101.928 289.103C101.388 289.103 100.907 289.194 100.483 289.377C100.06 289.56 99.7032 289.815 99.4144 290.143C99.1351 290.46 98.9281 290.841 98.7932 291.284C98.6584 291.727 98.6055 292.208 98.6344 292.728ZM112.727 290.359V289.276H107.672L106.718 294.592L107.773 294.649C108.014 294.36 108.288 294.129 108.596 293.956C108.914 293.773 109.275 293.682 109.68 293.682C110.026 293.682 110.339 293.739 110.618 293.855C110.907 293.97 111.153 294.134 111.355 294.346C111.557 294.548 111.711 294.794 111.817 295.083C111.933 295.362 111.991 295.67 111.991 296.007C111.991 296.412 111.933 296.768 111.817 297.076C111.702 297.374 111.543 297.625 111.341 297.827C111.148 298.029 110.917 298.183 110.647 298.289C110.387 298.386 110.113 298.434 109.824 298.434C109.516 298.434 109.232 298.39 108.972 298.304C108.721 298.207 108.5 298.077 108.307 297.914C108.124 297.74 107.975 297.543 107.86 297.322C107.754 297.09 107.691 296.845 107.672 296.585H106.444C106.454 297.047 106.545 297.461 106.718 297.827C106.892 298.193 107.128 298.501 107.426 298.752C107.725 298.992 108.067 299.18 108.452 299.315C108.847 299.44 109.265 299.503 109.708 299.503C110.305 299.503 110.825 299.411 111.268 299.228C111.721 299.036 112.097 298.78 112.395 298.463C112.694 298.145 112.915 297.784 113.06 297.379C113.214 296.965 113.291 296.542 113.291 296.108C113.291 295.521 113.204 295.01 113.031 294.577C112.857 294.134 112.621 293.768 112.323 293.479C112.024 293.181 111.673 292.959 111.268 292.815C110.864 292.67 110.435 292.598 109.983 292.598C109.636 292.598 109.285 292.661 108.928 292.786C108.582 292.902 108.298 293.084 108.076 293.335L108.047 293.306L108.596 290.359H112.727Z" fill="#71748C"/>
<rect x="43.5078" y="309.598" width="92.0833" height="6.58104" rx="3.29052" fill="#F6F6F8"/>
<rect x="276.594" y="285.23" width="71.28" height="9.68" rx="4.84" fill="#F6F6F8"/>
<rect x="315.617" y="303.164" width="32.254" height="15.127" rx="2.06349" fill="#F5F6FF"/>
<path d="M325.315 309.495H326.336C326.321 309.049 326.234 308.667 326.075 308.349C325.924 308.024 325.712 307.755 325.439 307.543C325.175 307.331 324.864 307.176 324.509 307.078C324.153 306.979 323.767 306.93 323.351 306.93C322.98 306.93 322.617 306.979 322.262 307.078C321.914 307.169 321.6 307.312 321.32 307.509C321.047 307.698 320.828 307.944 320.661 308.247C320.495 308.542 320.412 308.894 320.412 309.302C320.412 309.673 320.484 309.983 320.627 310.233C320.779 310.475 320.975 310.676 321.218 310.834C321.467 310.986 321.747 311.111 322.057 311.209C322.368 311.3 322.682 311.383 322.999 311.459C323.325 311.527 323.643 311.595 323.953 311.663C324.263 311.731 324.539 311.822 324.781 311.935C325.031 312.041 325.228 312.181 325.371 312.355C325.523 312.529 325.598 312.756 325.598 313.036C325.598 313.331 325.538 313.573 325.417 313.763C325.296 313.952 325.137 314.103 324.94 314.216C324.743 314.322 324.52 314.398 324.271 314.443C324.028 314.489 323.786 314.512 323.544 314.512C323.242 314.512 322.946 314.474 322.659 314.398C322.371 314.322 322.118 314.205 321.899 314.046C321.687 313.887 321.513 313.687 321.376 313.445C321.248 313.195 321.184 312.9 321.184 312.559H320.162C320.162 313.051 320.249 313.479 320.423 313.842C320.605 314.198 320.847 314.493 321.149 314.727C321.46 314.954 321.815 315.124 322.216 315.238C322.625 315.351 323.056 315.408 323.51 315.408C323.881 315.408 324.252 315.363 324.622 315.272C325.001 315.189 325.341 315.053 325.644 314.863C325.946 314.667 326.192 314.417 326.381 314.114C326.578 313.804 326.677 313.433 326.677 313.002C326.677 312.601 326.601 312.268 326.45 312.003C326.306 311.739 326.109 311.519 325.859 311.345C325.617 311.171 325.341 311.035 325.031 310.937C324.721 310.831 324.403 310.74 324.078 310.664C323.76 310.589 323.446 310.52 323.136 310.46C322.825 310.392 322.545 310.309 322.296 310.21C322.054 310.112 321.857 309.987 321.706 309.836C321.562 309.677 321.49 309.473 321.49 309.223C321.49 308.958 321.539 308.739 321.638 308.565C321.743 308.383 321.88 308.239 322.046 308.133C322.22 308.027 322.417 307.952 322.636 307.906C322.856 307.861 323.079 307.838 323.306 307.838C323.866 307.838 324.323 307.971 324.679 308.235C325.042 308.493 325.254 308.913 325.315 309.495ZM331.902 311.731H328.531C328.547 311.504 328.596 311.292 328.679 311.095C328.762 310.891 328.876 310.713 329.019 310.562C329.163 310.411 329.333 310.293 329.53 310.21C329.734 310.119 329.961 310.074 330.211 310.074C330.453 310.074 330.673 310.119 330.869 310.21C331.074 310.293 331.248 310.411 331.391 310.562C331.543 310.706 331.66 310.88 331.743 311.084C331.834 311.288 331.887 311.504 331.902 311.731ZM332.833 313.365H331.879C331.796 313.751 331.622 314.039 331.357 314.228C331.1 314.417 330.767 314.512 330.359 314.512C330.041 314.512 329.765 314.459 329.53 314.353C329.296 314.247 329.103 314.107 328.951 313.933C328.8 313.751 328.69 313.547 328.622 313.32C328.554 313.085 328.524 312.839 328.531 312.582H332.924C332.939 312.227 332.905 311.852 332.821 311.459C332.746 311.065 332.602 310.702 332.39 310.369C332.186 310.036 331.91 309.764 331.562 309.552C331.221 309.333 330.79 309.223 330.268 309.223C329.867 309.223 329.496 309.298 329.156 309.45C328.823 309.601 328.531 309.813 328.282 310.085C328.04 310.358 327.85 310.679 327.714 311.05C327.578 311.421 327.51 311.829 327.51 312.276C327.525 312.722 327.589 313.135 327.703 313.513C327.824 313.891 328.002 314.216 328.236 314.489C328.471 314.761 328.758 314.973 329.099 315.124C329.447 315.276 329.856 315.351 330.325 315.351C330.99 315.351 331.543 315.185 331.982 314.852C332.42 314.519 332.704 314.024 332.833 313.365ZM333.924 309.359V315.227H334.888V311.913C334.888 311.648 334.922 311.406 334.99 311.186C335.066 310.959 335.176 310.763 335.32 310.596C335.463 310.43 335.641 310.301 335.853 310.21C336.072 310.119 336.33 310.074 336.625 310.074C336.995 310.074 337.287 310.18 337.499 310.392C337.71 310.604 337.816 310.891 337.816 311.254V315.227H338.781V311.368C338.781 311.05 338.747 310.763 338.679 310.505C338.618 310.24 338.509 310.013 338.35 309.824C338.191 309.635 337.983 309.488 337.726 309.382C337.468 309.276 337.147 309.223 336.761 309.223C335.891 309.223 335.255 309.578 334.854 310.29H334.831V309.359H333.924ZM341.569 309.359V307.6H340.604V309.359H339.606V310.21H340.604V313.944C340.604 314.216 340.631 314.436 340.684 314.602C340.737 314.769 340.816 314.897 340.922 314.988C341.036 315.079 341.179 315.143 341.353 315.181C341.535 315.211 341.751 315.227 342 315.227H342.738V314.375H342.295C342.144 314.375 342.019 314.372 341.921 314.364C341.83 314.349 341.758 314.322 341.705 314.285C341.652 314.247 341.614 314.194 341.592 314.126C341.577 314.058 341.569 313.967 341.569 313.853V310.21H342.738V309.359H341.569Z" fill="#5466F9"/>
<rect x="43.5078" y="330.652" width="304.365" height="1.03175" fill="#F6F6F8"/>
<path d="M46.8445 352.032H48.6356L48.3323 354.198H46.5411L46.8445 352.032ZM45.4 355.181L44.9811 358.156H45.9778L46.3967 355.181H48.1878L47.7689 358.156H48.7656L49.1845 355.181H50.6434V354.198H49.3289L49.6323 352.032H51.0478V351.05H49.7623L50.1811 348.088H49.1845L48.7656 351.05H46.9745L47.3934 348.088H46.3967L45.9778 351.05H44.3745V352.032H45.8478L45.5445 354.198H43.9989V355.181H45.4ZM52.6318 347.843V358.156H54.0041V347.843H52.6318ZM56.211 347.843V358.156H57.511V349.88H57.5399L62.9277 358.156H64.4299V347.843H63.1299V356.206H63.101L57.6699 347.843H56.211ZM70.622 358.156L74.2908 347.843H72.8608L69.8853 356.784H69.8564L66.9097 347.843H65.4364L69.062 358.156H70.622ZM76.0867 353.115C76.0867 352.865 76.0867 352.59 76.0867 352.292C76.0963 351.984 76.1204 351.68 76.1589 351.382C76.2071 351.074 76.2697 350.775 76.3467 350.486C76.4334 350.197 76.5537 349.947 76.7078 349.735C76.8715 349.514 77.0737 349.336 77.3145 349.201C77.5552 349.066 77.8489 348.998 78.1956 348.998C78.5422 348.998 78.836 349.066 79.0767 349.201C79.3174 349.336 79.5148 349.514 79.6689 349.735C79.8326 349.947 79.953 350.197 80.03 350.486C80.1167 350.775 80.1793 351.074 80.2178 351.382C80.266 351.68 80.29 351.984 80.29 352.292C80.2997 352.59 80.3045 352.865 80.3045 353.115C80.3045 353.5 80.29 353.934 80.2611 354.415C80.2419 354.887 80.1648 355.335 80.03 355.758C79.9048 356.173 79.6978 356.524 79.4089 356.813C79.12 357.102 78.7156 357.246 78.1956 357.246C77.6756 357.246 77.2711 357.102 76.9822 356.813C76.6934 356.524 76.4815 356.173 76.3467 355.758C76.2215 355.335 76.1445 354.887 76.1156 354.415C76.0963 353.934 76.0867 353.5 76.0867 353.115ZM74.7867 353.13C74.7867 353.505 74.7963 353.895 74.8156 354.3C74.8348 354.704 74.883 355.099 74.96 355.484C75.0371 355.869 75.1478 356.235 75.2922 356.582C75.4367 356.919 75.6341 357.217 75.8845 357.477C76.1348 357.737 76.4478 357.944 76.8234 358.098C77.2085 358.243 77.666 358.315 78.1956 358.315C78.7348 358.315 79.1922 358.243 79.5678 358.098C79.9434 357.944 80.2563 357.737 80.5067 357.477C80.7571 357.217 80.9545 356.919 81.0989 356.582C81.2434 356.235 81.3541 355.869 81.4311 355.484C81.5082 355.099 81.5563 354.704 81.5756 354.3C81.5948 353.895 81.6045 353.505 81.6045 353.13C81.6045 352.754 81.5948 352.364 81.5756 351.96C81.5563 351.555 81.5082 351.16 81.4311 350.775C81.3541 350.39 81.2434 350.024 81.0989 349.677C80.9545 349.331 80.7571 349.027 80.5067 348.767C80.2563 348.507 79.9385 348.3 79.5534 348.146C79.1778 347.992 78.7252 347.915 78.1956 347.915C77.666 347.915 77.2085 347.992 76.8234 348.146C76.4478 348.3 76.1348 348.507 75.8845 348.767C75.6341 349.027 75.4367 349.331 75.2922 349.677C75.1478 350.024 75.0371 350.39 74.96 350.775C74.883 351.16 74.8348 351.555 74.8156 351.96C74.7963 352.364 74.7867 352.754 74.7867 353.13ZM84.0263 353.115C84.0263 352.865 84.0263 352.59 84.0263 352.292C84.0359 351.984 84.06 351.68 84.0985 351.382C84.1467 351.074 84.2092 350.775 84.2863 350.486C84.373 350.197 84.4933 349.947 84.6474 349.735C84.8111 349.514 85.0133 349.336 85.2541 349.201C85.4948 349.066 85.7885 348.998 86.1352 348.998C86.4818 348.998 86.7755 349.066 87.0163 349.201C87.257 349.336 87.4544 349.514 87.6085 349.735C87.7722 349.947 87.8926 350.197 87.9696 350.486C88.0563 350.775 88.1189 351.074 88.1574 351.382C88.2055 351.68 88.2296 351.984 88.2296 352.292C88.2392 352.59 88.2441 352.865 88.2441 353.115C88.2441 353.5 88.2296 353.934 88.2007 354.415C88.1815 354.887 88.1044 355.335 87.9696 355.758C87.8444 356.173 87.6374 356.524 87.3485 356.813C87.0596 357.102 86.6552 357.246 86.1352 357.246C85.6152 357.246 85.2107 357.102 84.9218 356.813C84.633 356.524 84.4211 356.173 84.2863 355.758C84.1611 355.335 84.0841 354.887 84.0552 354.415C84.0359 353.934 84.0263 353.5 84.0263 353.115ZM82.7263 353.13C82.7263 353.505 82.7359 353.895 82.7552 354.3C82.7744 354.704 82.8226 355.099 82.8996 355.484C82.9767 355.869 83.0874 356.235 83.2318 356.582C83.3763 356.919 83.5737 357.217 83.8241 357.477C84.0744 357.737 84.3874 357.944 84.763 358.098C85.1481 358.243 85.6055 358.315 86.1352 358.315C86.6744 358.315 87.1318 358.243 87.5074 358.098C87.883 357.944 88.1959 357.737 88.4463 357.477C88.6967 357.217 88.8941 356.919 89.0385 356.582C89.183 356.235 89.2937 355.869 89.3707 355.484C89.4478 355.099 89.4959 354.704 89.5152 354.3C89.5344 353.895 89.5441 353.505 89.5441 353.13C89.5441 352.754 89.5344 352.364 89.5152 351.96C89.4959 351.555 89.4478 351.16 89.3707 350.775C89.2937 350.39 89.183 350.024 89.0385 349.677C88.8941 349.331 88.6967 349.027 88.4463 348.767C88.1959 348.507 87.8781 348.3 87.493 348.146C87.1174 347.992 86.6648 347.915 86.1352 347.915C85.6055 347.915 85.1481 347.992 84.763 348.146C84.3874 348.3 84.0744 348.507 83.8241 348.767C83.5737 349.027 83.3763 349.331 83.2318 349.677C83.0874 350.024 82.9767 350.39 82.8996 350.775C82.8226 351.16 82.7744 351.555 82.7552 351.96C82.7359 352.364 82.7263 352.754 82.7263 353.13ZM91.9659 353.115C91.9659 352.865 91.9659 352.59 91.9659 352.292C91.9755 351.984 91.9996 351.68 92.0381 351.382C92.0862 351.074 92.1488 350.775 92.2259 350.486C92.3125 350.197 92.4329 349.947 92.587 349.735C92.7507 349.514 92.9529 349.336 93.1937 349.201C93.4344 349.066 93.7281 348.998 94.0748 348.998C94.4214 348.998 94.7151 349.066 94.9559 349.201C95.1966 349.336 95.394 349.514 95.5481 349.735C95.7118 349.947 95.8322 350.197 95.9092 350.486C95.9959 350.775 96.0585 351.074 96.097 351.382C96.1451 351.68 96.1692 351.984 96.1692 352.292C96.1788 352.59 96.1837 352.865 96.1837 353.115C96.1837 353.5 96.1692 353.934 96.1403 354.415C96.1211 354.887 96.044 355.335 95.9092 355.758C95.784 356.173 95.577 356.524 95.2881 356.813C94.9992 357.102 94.5948 357.246 94.0748 357.246C93.5548 357.246 93.1503 357.102 92.8614 356.813C92.5725 356.524 92.3607 356.173 92.2259 355.758C92.1007 355.335 92.0237 354.887 91.9948 354.415C91.9755 353.934 91.9659 353.5 91.9659 353.115ZM90.6659 353.13C90.6659 353.505 90.6755 353.895 90.6948 354.3C90.714 354.704 90.7622 355.099 90.8392 355.484C90.9162 355.869 91.027 356.235 91.1714 356.582C91.3159 356.919 91.5133 357.217 91.7637 357.477C92.014 357.737 92.327 357.944 92.7025 358.098C93.0877 358.243 93.5451 358.315 94.0748 358.315C94.614 358.315 95.0714 358.243 95.447 358.098C95.8225 357.944 96.1355 357.737 96.3859 357.477C96.6362 357.217 96.8337 356.919 96.9781 356.582C97.1225 356.235 97.2333 355.869 97.3103 355.484C97.3874 355.099 97.4355 354.704 97.4548 354.3C97.474 353.895 97.4837 353.505 97.4837 353.13C97.4837 352.754 97.474 352.364 97.4548 351.96C97.4355 351.555 97.3874 351.16 97.3103 350.775C97.2333 350.39 97.1225 350.024 96.9781 349.677C96.8337 349.331 96.6362 349.027 96.3859 348.767C96.1355 348.507 95.8177 348.3 95.4325 348.146C95.057 347.992 94.6044 347.915 94.0748 347.915C93.5451 347.915 93.0877 347.992 92.7025 348.146C92.327 348.3 92.014 348.507 91.7637 348.767C91.5133 349.027 91.3159 349.331 91.1714 349.677C91.027 350.024 90.9162 350.39 90.8392 350.775C90.7622 351.16 90.714 351.555 90.6948 351.96C90.6755 352.364 90.6659 352.754 90.6659 353.13ZM98.6344 351.541H99.8621C99.8525 351.233 99.8814 350.929 99.9488 350.631C100.026 350.323 100.146 350.048 100.31 349.807C100.474 349.567 100.681 349.374 100.931 349.23C101.191 349.076 101.499 348.998 101.855 348.998C102.125 348.998 102.38 349.042 102.621 349.128C102.862 349.215 103.069 349.34 103.242 349.504C103.425 349.668 103.57 349.865 103.675 350.096C103.781 350.318 103.834 350.568 103.834 350.847C103.834 351.204 103.777 351.517 103.661 351.786C103.555 352.056 103.391 352.306 103.17 352.537C102.958 352.768 102.688 353 102.361 353.231C102.034 353.452 101.653 353.698 101.22 353.967C100.864 354.179 100.522 354.406 100.194 354.646C99.867 354.887 99.5732 355.166 99.3132 355.484C99.0532 355.802 98.8366 356.177 98.6632 356.611C98.4995 357.034 98.3936 357.55 98.3455 358.156H105.033V357.073H99.7755C99.8332 356.755 99.9536 356.476 100.137 356.235C100.329 355.985 100.555 355.754 100.815 355.542C101.085 355.33 101.379 355.133 101.697 354.95C102.014 354.757 102.332 354.564 102.65 354.372C102.968 354.17 103.276 353.958 103.574 353.736C103.873 353.515 104.138 353.269 104.369 353C104.6 352.72 104.783 352.407 104.918 352.061C105.062 351.714 105.134 351.314 105.134 350.862C105.134 350.38 105.048 349.957 104.874 349.591C104.711 349.225 104.484 348.921 104.195 348.681C103.907 348.43 103.565 348.243 103.17 348.117C102.785 347.983 102.371 347.915 101.928 347.915C101.388 347.915 100.907 348.007 100.483 348.19C100.06 348.373 99.7032 348.628 99.4144 348.955C99.1351 349.273 98.9281 349.653 98.7932 350.096C98.6584 350.539 98.6055 351.021 98.6344 351.541ZM112.727 349.172V348.088H107.672L106.718 353.404L107.773 353.462C108.014 353.173 108.288 352.942 108.596 352.768C108.914 352.586 109.275 352.494 109.68 352.494C110.026 352.494 110.339 352.552 110.618 352.667C110.907 352.783 111.153 352.947 111.355 353.158C111.557 353.361 111.711 353.606 111.817 353.895C111.933 354.174 111.991 354.483 111.991 354.82C111.991 355.224 111.933 355.58 111.817 355.888C111.702 356.187 111.543 356.437 111.341 356.64C111.148 356.842 110.917 356.996 110.647 357.102C110.387 357.198 110.113 357.246 109.824 357.246C109.516 357.246 109.232 357.203 108.972 357.116C108.721 357.02 108.5 356.89 108.307 356.726C108.124 356.553 107.975 356.356 107.86 356.134C107.754 355.903 107.691 355.657 107.672 355.397H106.444C106.454 355.86 106.545 356.274 106.718 356.64C106.892 357.006 107.128 357.314 107.426 357.564C107.725 357.805 108.067 357.993 108.452 358.127C108.847 358.253 109.265 358.315 109.708 358.315C110.305 358.315 110.825 358.224 111.268 358.041C111.721 357.848 112.097 357.593 112.395 357.275C112.694 356.957 112.915 356.596 113.06 356.192C113.214 355.778 113.291 355.354 113.291 354.921C113.291 354.333 113.204 353.823 113.031 353.39C112.857 352.947 112.621 352.581 112.323 352.292C112.024 351.993 111.673 351.772 111.268 351.627C110.864 351.483 110.435 351.411 109.983 351.411C109.636 351.411 109.285 351.473 108.928 351.598C108.582 351.714 108.298 351.897 108.076 352.147L108.047 352.118L108.596 349.172H112.727Z" fill="#71748C"/>
<rect x="43.5078" y="368.41" width="92.0833" height="6.58104" rx="3.29052" fill="#F6F6F8"/>
<rect x="261.594" y="344.543" width="86.28" height="9.68" rx="4.84" fill="#F6F6F8"/>
<rect x="318.617" y="362.477" width="29.254" height="14.127" rx="2.06349" fill="#F7FCF8"/>
<path d="M324.527 369.701V366.998H326.446C327.003 366.998 327.409 367.115 327.664 367.349C327.925 367.576 328.056 367.909 328.056 368.349C328.056 368.79 327.925 369.127 327.664 369.36C327.409 369.594 327.003 369.708 326.446 369.701H324.527ZM323.547 366.172V373.539H324.527V370.526H326.776C327.519 370.533 328.08 370.344 328.458 369.959C328.843 369.574 329.036 369.037 329.036 368.349C329.036 367.662 328.843 367.128 328.458 366.75C328.08 366.365 327.519 366.172 326.776 366.172H323.547ZM334.818 373.518C334.667 373.608 334.457 373.653 334.189 373.653C333.962 373.653 333.78 373.591 333.642 373.467C333.511 373.336 333.446 373.126 333.446 372.837C333.205 373.126 332.923 373.336 332.6 373.467C332.283 373.591 331.94 373.653 331.568 373.653C331.327 373.653 331.097 373.625 330.877 373.57C330.664 373.515 330.478 373.429 330.32 373.312C330.162 373.195 330.034 373.044 329.938 372.858C329.849 372.666 329.804 372.435 329.804 372.167C329.804 371.864 329.855 371.617 329.959 371.424C330.062 371.231 330.196 371.077 330.361 370.96C330.533 370.836 330.726 370.743 330.939 370.681C331.159 370.619 331.382 370.568 331.609 370.526C331.85 370.478 332.077 370.444 332.29 370.423C332.51 370.396 332.703 370.361 332.868 370.32C333.033 370.272 333.164 370.207 333.26 370.124C333.356 370.035 333.405 369.907 333.405 369.742C333.405 369.55 333.367 369.395 333.291 369.278C333.222 369.161 333.13 369.072 333.013 369.01C332.903 368.948 332.775 368.907 332.631 368.886C332.493 368.865 332.356 368.855 332.218 368.855C331.847 368.855 331.537 368.927 331.29 369.072C331.042 369.209 330.908 369.474 330.887 369.866H330.01C330.024 369.536 330.093 369.257 330.217 369.03C330.34 368.803 330.505 368.621 330.712 368.484C330.918 368.339 331.152 368.236 331.413 368.174C331.682 368.112 331.967 368.081 332.27 368.081C332.51 368.081 332.748 368.098 332.982 368.133C333.222 368.167 333.439 368.239 333.632 368.349C333.824 368.453 333.979 368.6 334.096 368.793C334.213 368.986 334.271 369.237 334.271 369.546V372.291C334.271 372.497 334.282 372.648 334.302 372.745C334.33 372.841 334.412 372.889 334.55 372.889C334.626 372.889 334.715 372.872 334.818 372.837V373.518ZM333.394 370.784C333.284 370.867 333.14 370.929 332.961 370.97C332.782 371.004 332.593 371.035 332.394 371.063C332.201 371.084 332.005 371.111 331.805 371.145C331.606 371.173 331.427 371.221 331.269 371.29C331.111 371.359 330.98 371.458 330.877 371.589C330.781 371.713 330.732 371.885 330.732 372.105C330.732 372.249 330.76 372.373 330.815 372.476C330.877 372.573 330.953 372.652 331.042 372.714C331.138 372.776 331.248 372.82 331.372 372.848C331.496 372.875 331.627 372.889 331.764 372.889C332.053 372.889 332.301 372.851 332.507 372.776C332.713 372.693 332.882 372.593 333.013 372.476C333.143 372.353 333.24 372.222 333.301 372.084C333.363 371.94 333.394 371.806 333.394 371.682V370.784ZM336.563 367.245V366.172H335.686V367.245H336.563ZM335.686 368.205V373.539H336.563V368.205H335.686ZM338.561 370.918C338.561 370.657 338.589 370.403 338.644 370.155C338.699 369.907 338.788 369.687 338.912 369.495C339.036 369.302 339.201 369.147 339.407 369.03C339.614 368.913 339.865 368.855 340.16 368.855C340.463 368.855 340.721 368.913 340.934 369.03C341.147 369.14 341.319 369.288 341.45 369.474C341.588 369.66 341.687 369.876 341.749 370.124C341.811 370.365 341.842 370.616 341.842 370.877C341.842 371.125 341.811 371.369 341.749 371.61C341.694 371.85 341.601 372.067 341.471 372.26C341.34 372.445 341.172 372.597 340.965 372.714C340.759 372.831 340.508 372.889 340.212 372.889C339.93 372.889 339.682 372.834 339.469 372.724C339.263 372.614 339.091 372.466 338.953 372.28C338.823 372.095 338.723 371.885 338.654 371.651C338.592 371.41 338.561 371.166 338.561 370.918ZM342.688 373.539V366.172H341.811V368.917H341.791C341.694 368.759 341.574 368.628 341.429 368.525C341.292 368.415 341.144 368.329 340.986 368.267C340.828 368.198 340.669 368.15 340.511 368.122C340.353 368.095 340.205 368.081 340.068 368.081C339.662 368.081 339.304 368.157 338.995 368.308C338.692 368.453 338.437 368.652 338.231 368.907C338.032 369.154 337.88 369.446 337.777 369.784C337.681 370.121 337.633 370.478 337.633 370.857C337.633 371.235 337.684 371.593 337.787 371.93C337.891 372.267 338.042 372.562 338.241 372.817C338.448 373.071 338.702 373.274 339.005 373.426C339.314 373.577 339.675 373.653 340.088 373.653C340.46 373.653 340.8 373.587 341.11 373.457C341.419 373.326 341.646 373.113 341.791 372.817H341.811V373.539H342.688Z" fill="#22B231"/>
</g>
<g filter="url(#filter1_ddd_5055_21812)">
<rect x="27" y="16" width="338" height="107.09" rx="16" fill="white" shape-rendering="crispEdges"/>
<path d="M50.7602 42.535H60.5284V44.3602H56.6921V54.6016H54.5796V44.3602H50.7602V42.535ZM63.7807 54.8382C63.0822 54.8382 62.4569 54.7255 61.9048 54.5002C61.364 54.2636 60.9021 53.9425 60.519 53.5369C60.1472 53.1313 59.8599 52.6468 59.6571 52.0835C59.4656 51.5201 59.3698 50.9005 59.3698 50.2245C59.3698 49.5597 59.4656 48.9457 59.6571 48.3824C59.8599 47.819 60.1472 47.3346 60.519 46.929C60.9021 46.5234 61.364 46.2079 61.9048 45.9826C62.4569 45.746 63.0822 45.6277 63.7807 45.6277C64.4793 45.6277 65.0989 45.746 65.6397 45.9826C66.1918 46.2079 66.6537 46.5234 67.0255 46.929C67.4086 47.3346 67.6959 47.819 67.8874 48.3824C68.0902 48.9457 68.1916 49.5597 68.1916 50.2245C68.1916 50.9005 68.0902 51.5201 67.8874 52.0835C67.6959 52.6468 67.4086 53.1313 67.0255 53.5369C66.6537 53.9425 66.1918 54.2636 65.6397 54.5002C65.0989 54.7255 64.4793 54.8382 63.7807 54.8382ZM63.7807 53.3172C64.2089 53.3172 64.5807 53.227 64.8961 53.0468C65.2116 52.8665 65.4707 52.6299 65.6735 52.337C65.8763 52.044 66.0228 51.7173 66.1129 51.3568C66.2143 50.985 66.265 50.6075 66.265 50.2245C66.265 49.8527 66.2143 49.4809 66.1129 49.1091C66.0228 48.7373 65.8763 48.4105 65.6735 48.1289C65.4707 47.8359 65.2116 47.5993 64.8961 47.4191C64.5807 47.2388 64.2089 47.1487 63.7807 47.1487C63.3526 47.1487 62.9808 47.2388 62.6653 47.4191C62.3499 47.5993 62.0907 47.8359 61.8879 48.1289C61.6851 48.4105 61.533 48.7373 61.4316 49.1091C61.3415 49.4809 61.2964 49.8527 61.2964 50.2245C61.2964 50.6075 61.3415 50.985 61.4316 51.3568C61.533 51.7173 61.6851 52.044 61.8879 52.337C62.0907 52.6299 62.3499 52.8665 62.6653 53.0468C62.9808 53.227 63.3526 53.3172 63.7807 53.3172ZM68.9145 45.8643H70.3679V43.2448H72.2945V45.8643H74.0352V47.3008H72.2945V51.9652C72.2945 52.168 72.3001 52.3426 72.3114 52.4891C72.3339 52.6355 72.3734 52.7595 72.4297 52.8609C72.4973 52.9623 72.5931 53.0411 72.717 53.0975C72.8409 53.1425 73.0099 53.1651 73.224 53.1651C73.3592 53.1651 73.4944 53.1651 73.6296 53.1651C73.7648 53.1538 73.9 53.1313 74.0352 53.0975V54.5847C73.8211 54.6072 73.6127 54.6297 73.4099 54.6523C73.2071 54.6748 72.9987 54.6861 72.7846 54.6861C72.2776 54.6861 71.8664 54.641 71.5509 54.5509C71.2467 54.4495 71.0045 54.3086 70.8242 54.1284C70.6552 53.9368 70.5369 53.7002 70.4693 53.4186C70.413 53.1369 70.3792 52.8158 70.3679 52.4553V47.3008H68.9145V45.8643ZM82.7388 52.6581C82.7388 52.8947 82.767 53.0637 82.8233 53.1651C82.8909 53.2665 83.0149 53.3172 83.1951 53.3172C83.2515 53.3172 83.3191 53.3172 83.3979 53.3172C83.4768 53.3172 83.5669 53.3059 83.6683 53.2834V54.6185C83.6007 54.641 83.5106 54.6635 83.3979 54.6861C83.2965 54.7199 83.1895 54.748 83.0768 54.7706C82.9642 54.7931 82.8515 54.81 82.7388 54.8213C82.6262 54.8325 82.5304 54.8382 82.4515 54.8382C82.0572 54.8382 81.7305 54.7593 81.4713 54.6016C81.2122 54.4438 81.0432 54.1678 80.9643 53.7735C80.5813 54.1453 80.1081 54.4157 79.5447 54.5847C78.9927 54.7537 78.4575 54.8382 77.9392 54.8382C77.5449 54.8382 77.1675 54.7818 76.8069 54.6692C76.4464 54.5678 76.1253 54.4157 75.8436 54.2129C75.5732 53.9988 75.3535 53.734 75.1845 53.4186C75.0268 53.0918 74.9479 52.7144 74.9479 52.2863C74.9479 51.7455 75.0437 51.3061 75.2352 50.9681C75.438 50.6301 75.6972 50.3653 76.0126 50.1738C76.3394 49.9822 76.6999 49.847 77.0942 49.7682C77.4998 49.678 77.9054 49.6104 78.311 49.5654C78.6603 49.4978 78.9927 49.4527 79.3081 49.4302C79.6236 49.3964 79.8996 49.3457 80.1362 49.2781C80.3841 49.2105 80.5756 49.1091 80.7108 48.9739C80.8573 48.8274 80.9305 48.6133 80.9305 48.3317C80.9305 48.0838 80.8686 47.881 80.7446 47.7233C80.632 47.5655 80.4855 47.4472 80.3052 47.3684C80.1362 47.2782 79.9447 47.2219 79.7306 47.1994C79.5166 47.1656 79.3138 47.1487 79.1222 47.1487C78.5814 47.1487 78.1364 47.2613 77.7871 47.4867C77.4379 47.712 77.2407 48.0613 77.1956 48.5345H75.269C75.3028 47.9711 75.438 47.5036 75.6746 47.1318C75.9112 46.76 76.2098 46.4614 76.5703 46.2361C76.9421 46.0107 77.359 45.853 77.8209 45.7629C78.2829 45.6727 78.7561 45.6277 79.2405 45.6277C79.6687 45.6277 80.0912 45.6727 80.508 45.7629C80.9249 45.853 81.2967 45.9995 81.6234 46.2023C81.9614 46.4051 82.2318 46.6698 82.4346 46.9966C82.6374 47.312 82.7388 47.7007 82.7388 48.1627V52.6581ZM80.8122 50.2245C80.5193 50.416 80.1588 50.5343 79.7306 50.5794C79.3025 50.6132 78.8744 50.6695 78.4462 50.7484C78.2434 50.7822 78.0463 50.8329 77.8547 50.9005C77.6632 50.9568 77.4942 51.0413 77.3477 51.154C77.2013 51.2554 77.083 51.3962 76.9928 51.5765C76.914 51.7455 76.8745 51.9539 76.8745 52.2018C76.8745 52.4158 76.9365 52.5961 77.0604 52.7426C77.1844 52.889 77.3308 53.0073 77.4998 53.0975C77.6801 53.1763 77.8716 53.2327 78.0744 53.2665C78.2885 53.3003 78.48 53.3172 78.649 53.3172C78.8631 53.3172 79.0941 53.289 79.3419 53.2327C79.5898 53.1763 79.8208 53.0806 80.0348 52.9454C80.2602 52.8102 80.4461 52.6412 80.5925 52.4384C80.739 52.2243 80.8122 51.9652 80.8122 51.661V50.2245ZM84.8626 42.535H86.7892V54.6016H84.8626V42.535ZM93.8623 42.535H95.9748V54.6016H93.8623V42.535ZM98.2955 45.8643H100.121V47.1487L100.155 47.1825C100.447 46.698 100.831 46.3206 101.304 46.0502C101.777 45.7685 102.301 45.6277 102.875 45.6277C103.833 45.6277 104.588 45.8755 105.14 46.3713C105.692 46.867 105.968 47.6106 105.968 48.6021V54.6016H104.042V49.1091C104.019 48.4218 103.873 47.9261 103.602 47.6219C103.332 47.3064 102.909 47.1487 102.335 47.1487C102.008 47.1487 101.715 47.2106 101.456 47.3346C101.197 47.4472 100.977 47.6106 100.797 47.8247C100.616 48.0275 100.476 48.2697 100.374 48.5514C100.273 48.833 100.222 49.1316 100.222 49.4471V54.6016H98.2955V45.8643ZM107.138 45.8643H109.234L111.447 52.5736H111.481L113.611 45.8643H115.605L112.478 54.6016H110.315L107.138 45.8643ZM120.769 54.8382C120.07 54.8382 119.445 54.7255 118.893 54.5002C118.352 54.2636 117.89 53.9425 117.507 53.5369C117.135 53.1313 116.848 52.6468 116.645 52.0835C116.454 51.5201 116.358 50.9005 116.358 50.2245C116.358 49.5597 116.454 48.9457 116.645 48.3824C116.848 47.819 117.135 47.3346 117.507 46.929C117.89 46.5234 118.352 46.2079 118.893 45.9826C119.445 45.746 120.07 45.6277 120.769 45.6277C121.467 45.6277 122.087 45.746 122.628 45.9826C123.18 46.2079 123.642 46.5234 124.014 46.929C124.397 47.3346 124.684 47.819 124.875 48.3824C125.078 48.9457 125.18 49.5597 125.18 50.2245C125.18 50.9005 125.078 51.5201 124.875 52.0835C124.684 52.6468 124.397 53.1313 124.014 53.5369C123.642 53.9425 123.18 54.2636 122.628 54.5002C122.087 54.7255 121.467 54.8382 120.769 54.8382ZM120.769 53.3172C121.197 53.3172 121.569 53.227 121.884 53.0468C122.2 52.8665 122.459 52.6299 122.662 52.337C122.864 52.044 123.011 51.7173 123.101 51.3568C123.202 50.985 123.253 50.6075 123.253 50.2245C123.253 49.8527 123.202 49.4809 123.101 49.1091C123.011 48.7373 122.864 48.4105 122.662 48.1289C122.459 47.8359 122.2 47.5993 121.884 47.4191C121.569 47.2388 121.197 47.1487 120.769 47.1487C120.341 47.1487 119.969 47.2388 119.653 47.4191C119.338 47.5993 119.079 47.8359 118.876 48.1289C118.673 48.4105 118.521 48.7373 118.42 49.1091C118.329 49.4809 118.284 49.8527 118.284 50.2245C118.284 50.6075 118.329 50.985 118.42 51.3568C118.521 51.7173 118.673 52.044 118.876 52.337C119.079 52.6299 119.338 52.8665 119.653 53.0468C119.969 53.227 120.341 53.3172 120.769 53.3172ZM126.832 42.535H128.759V44.3602H126.832V42.535ZM126.832 45.8643H128.759V54.6016H126.832V45.8643ZM136.756 48.788C136.677 48.2472 136.457 47.8416 136.097 47.5712C135.747 47.2895 135.302 47.1487 134.762 47.1487C134.514 47.1487 134.249 47.1937 133.967 47.2839C133.686 47.3627 133.427 47.5205 133.19 47.7571C132.953 47.9824 132.756 48.3035 132.598 48.7204C132.441 49.126 132.362 49.6611 132.362 50.3259C132.362 50.6864 132.401 51.0469 132.48 51.4075C132.57 51.768 132.705 52.0891 132.886 52.3708C133.077 52.6524 133.32 52.8834 133.612 53.0637C133.905 53.2327 134.26 53.3172 134.677 53.3172C135.24 53.3172 135.702 53.1425 136.063 52.7933C136.435 52.444 136.666 51.9539 136.756 51.323H138.682C138.502 52.4609 138.068 53.3341 137.381 53.9425C136.705 54.5396 135.804 54.8382 134.677 54.8382C133.99 54.8382 133.381 54.7255 132.852 54.5002C132.334 54.2636 131.894 53.9481 131.534 53.5538C131.173 53.1482 130.897 52.6693 130.706 52.1173C130.525 51.5652 130.435 50.9681 130.435 50.3259C130.435 49.6724 130.525 49.0584 130.706 48.4838C130.886 47.9092 131.156 47.4134 131.517 46.9966C131.877 46.5684 132.322 46.2361 132.852 45.9995C133.393 45.7516 134.024 45.6277 134.745 45.6277C135.252 45.6277 135.731 45.6953 136.181 45.8305C136.643 45.9544 137.049 46.1459 137.398 46.4051C137.759 46.6642 138.052 46.9909 138.277 47.3853C138.502 47.7796 138.637 48.2472 138.682 48.788H136.756ZM146.248 49.464C146.225 49.1598 146.158 48.8668 146.045 48.5852C145.944 48.3035 145.797 48.0613 145.606 47.8585C145.426 47.6444 145.2 47.4754 144.93 47.3515C144.671 47.2163 144.378 47.1487 144.051 47.1487C143.713 47.1487 143.403 47.2106 143.121 47.3346C142.851 47.4472 142.614 47.6106 142.412 47.8247C142.22 48.0275 142.062 48.2697 141.938 48.5514C141.826 48.833 141.764 49.1372 141.753 49.464H146.248ZM141.753 50.7315C141.753 51.0695 141.798 51.3962 141.888 51.7117C141.989 52.0271 142.136 52.3032 142.327 52.5398C142.519 52.7764 142.761 52.9679 143.054 53.1144C143.347 53.2496 143.696 53.3172 144.102 53.3172C144.665 53.3172 145.116 53.1989 145.454 52.9623C145.803 52.7144 146.062 52.3482 146.231 51.8638H148.056C147.955 52.337 147.78 52.7595 147.532 53.1313C147.285 53.5031 146.986 53.8185 146.637 54.0777C146.287 54.3255 145.893 54.5114 145.454 54.6354C145.026 54.7706 144.575 54.8382 144.102 54.8382C143.414 54.8382 142.806 54.7255 142.276 54.5002C141.747 54.2748 141.296 53.9594 140.924 53.5538C140.564 53.1482 140.288 52.6637 140.096 52.1004C139.916 51.537 139.826 50.9174 139.826 50.2414C139.826 49.6217 139.922 49.0358 140.113 48.4838C140.316 47.9204 140.598 47.4303 140.958 47.0135C141.33 46.5853 141.775 46.2473 142.293 45.9995C142.812 45.7516 143.398 45.6277 144.051 45.6277C144.738 45.6277 145.352 45.7741 145.893 46.0671C146.445 46.3487 146.901 46.7262 147.262 47.1994C147.623 47.6726 147.882 48.219 148.039 48.8387C148.208 49.4471 148.253 50.078 148.175 50.7315H141.753ZM151.093 51.7962C151.149 52.3595 151.363 52.7538 151.735 52.9792C152.107 53.2045 152.552 53.3172 153.07 53.3172C153.25 53.3172 153.453 53.3059 153.678 53.2834C153.915 53.2496 154.135 53.1932 154.337 53.1144C154.54 53.0355 154.704 52.9228 154.827 52.7764C154.963 52.6186 155.025 52.4158 155.013 52.168C155.002 51.9201 154.912 51.7173 154.743 51.5596C154.574 51.4018 154.354 51.2779 154.084 51.1878C153.825 51.0864 153.526 51.0019 153.188 50.9343C152.85 50.8667 152.507 50.7934 152.157 50.7146C151.797 50.6357 151.447 50.5399 151.109 50.4273C150.783 50.3146 150.484 50.1625 150.214 49.971C149.955 49.7794 149.746 49.5372 149.588 49.2443C149.431 48.9401 149.352 48.5683 149.352 48.1289C149.352 47.6557 149.465 47.2613 149.69 46.9459C149.926 46.6191 150.219 46.36 150.569 46.1685C150.929 45.9657 151.324 45.8248 151.752 45.746C152.191 45.6671 152.608 45.6277 153.002 45.6277C153.453 45.6277 153.881 45.6784 154.287 45.7798C154.704 45.8699 155.075 46.022 155.402 46.2361C155.74 46.4501 156.016 46.7318 156.23 47.0811C156.456 47.4191 156.596 47.8303 156.653 48.3148H154.642C154.551 47.8528 154.337 47.543 153.999 47.3853C153.673 47.2275 153.295 47.1487 152.867 47.1487C152.732 47.1487 152.569 47.1599 152.377 47.1825C152.197 47.205 152.022 47.2501 151.853 47.3177C151.695 47.374 151.56 47.4641 151.447 47.5881C151.335 47.7007 151.278 47.8528 151.278 48.0444C151.278 48.281 151.357 48.4725 151.515 48.619C151.684 48.7654 151.898 48.8894 152.157 48.9908C152.428 49.0809 152.732 49.1598 153.07 49.2274C153.408 49.295 153.757 49.3682 154.118 49.4471C154.467 49.5259 154.811 49.6217 155.149 49.7344C155.487 49.847 155.785 49.9991 156.044 50.1907C156.315 50.3822 156.529 50.6244 156.686 50.9174C156.855 51.2103 156.94 51.5708 156.94 51.999C156.94 52.5172 156.822 52.9566 156.585 53.3172C156.348 53.6777 156.039 53.9706 155.656 54.196C155.284 54.4213 154.867 54.5847 154.405 54.6861C153.943 54.7875 153.487 54.8382 153.036 54.8382C152.484 54.8382 151.971 54.7762 151.498 54.6523C151.036 54.5283 150.631 54.3424 150.281 54.0946C149.943 53.8354 149.673 53.52 149.47 53.1482C149.279 52.7651 149.177 52.3144 149.166 51.7962H151.093Z" fill="#71748C"/>
<rect x="50.625" y="68.5039" width="206.28" height="8.68" rx="4.34" fill="#F6F6F8"/>
<rect x="50.625" y="89.0859" width="154.71" height="8.31" rx="4.155" fill="#F6F6F8"/>
</g>
<defs>
<filter id="filter0_ddd_5055_21812" x="0.439805" y="130.655" width="390.503" height="315.163" filterUnits="userSpaceOnUse" color-interpolation-filters="sRGB">
<feFlood flood-opacity="0" result="BackgroundImageFix"/>
<feColorMatrix in="SourceAlpha" type="matrix" values="0 0 0 0 0 0 0 0 0 0 0 0 0 0 0 0 0 0 127 0" result="hardAlpha"/>
<feMorphology radius="2.04309" operator="erode" in="SourceAlpha" result="effect1_dropShadow_5055_21812"/>
<feOffset dy="4.08618"/>
<feGaussianBlur stdDeviation="11.237"/>
<feColorMatrix type="matrix" values="0 0 0 0 0.180392 0 0 0 0 0.227451 0 0 0 0 0.619608 0 0 0 0.01 0"/>
<feBlend mode="normal" in2="BackgroundImageFix" result="effect1_dropShadow_5055_21812"/>
<feColorMatrix in="SourceAlpha" type="matrix" values="0 0 0 0 0 0 0 0 0 0 0 0 0 0 0 0 0 0 127 0" result="hardAlpha"/>
<feMorphology radius="4.08618" operator="erode" in="SourceAlpha" result="effect2_dropShadow_5055_21812"/>
<feOffset dy="12.2586"/>
<feGaussianBlur stdDeviation="15.3232"/>
<feColorMatrix type="matrix" values="0 0 0 0 0.180392 0 0 0 0 0.227451 0 0 0 0 0.619608 0 0 0 0.04 0"/>
<feBlend mode="normal" in2="effect1_dropShadow_5055_21812" result="effect2_dropShadow_5055_21812"/>
<feColorMatrix in="SourceAlpha" type="matrix" values="0 0 0 0 0 0 0 0 0 0 0 0 0 0 0 0 0 0 127 0" result="hardAlpha"/>
<feOffset/>
<feGaussianBlur stdDeviation="0.510773"/>
<feComposite in2="hardAlpha" operator="out"/>
<feColorMatrix type="matrix" values="0 0 0 0 0.18 0 0 0 0 0.227826 0 0 0 0 0.62 0 0 0 0.3 0"/>
<feBlend mode="normal" in2="effect2_dropShadow_5055_21812" result="effect3_dropShadow_5055_21812"/>
<feBlend mode="normal" in="SourceGraphic" in2="effect3_dropShadow_5055_21812" result="shape"/>
</filter>
<filter id="filter1_ddd_5055_21812" x="1" y="0" width="390" height="161.09" filterUnits="userSpaceOnUse" color-interpolation-filters="sRGB">
<feFlood flood-opacity="0" result="BackgroundImageFix"/>
<feColorMatrix in="SourceAlpha" type="matrix" values="0 0 0 0 0 0 0 0 0 0 0 0 0 0 0 0 0 0 127 0" result="hardAlpha"/>
<feMorphology radius="2" operator="erode" in="SourceAlpha" result="effect1_dropShadow_5055_21812"/>
<feOffset dy="4"/>
<feGaussianBlur stdDeviation="11"/>
<feColorMatrix type="matrix" values="0 0 0 0 0.180392 0 0 0 0 0.227451 0 0 0 0 0.619608 0 0 0 0.01 0"/>
<feBlend mode="normal" in2="BackgroundImageFix" result="effect1_dropShadow_5055_21812"/>
<feColorMatrix in="SourceAlpha" type="matrix" values="0 0 0 0 0 0 0 0 0 0 0 0 0 0 0 0 0 0 127 0" result="hardAlpha"/>
<feMorphology radius="4" operator="erode" in="SourceAlpha" result="effect2_dropShadow_5055_21812"/>
<feOffset dy="12"/>
<feGaussianBlur stdDeviation="15"/>
<feColorMatrix type="matrix" values="0 0 0 0 0.180392 0 0 0 0 0.227451 0 0 0 0 0.619608 0 0 0 0.04 0"/>
<feBlend mode="normal" in2="effect1_dropShadow_5055_21812" result="effect2_dropShadow_5055_21812"/>
<feColorMatrix in="SourceAlpha" type="matrix" values="0 0 0 0 0 0 0 0 0 0 0 0 0 0 0 0 0 0 127 0" result="hardAlpha"/>
<feOffset/>
<feGaussianBlur stdDeviation="0.5"/>
<feComposite in2="hardAlpha" operator="out"/>
<feColorMatrix type="matrix" values="0 0 0 0 0.18 0 0 0 0 0.227826 0 0 0 0 0.62 0 0 0 0.3 0"/>
<feBlend mode="normal" in2="effect2_dropShadow_5055_21812" result="effect3_dropShadow_5055_21812"/>
<feBlend mode="normal" in="SourceGraphic" in2="effect3_dropShadow_5055_21812" result="shape"/>
</filter>
</defs>
</svg>
