<svg width="100%" height="100%" viewBox="0 0 338 262" fill="none" xmlns="http://www.w3.org/2000/svg">
<g filter="url(#filter0_d_12339_101626)">
<rect x="58.5859" y="92.9395" width="219.94" height="135.335" rx="7.05882" fill="#EEEFFB" stroke="#E6E7FA" stroke-width="2"/>
<rect x="46.4961" y="63.873" width="244.6" height="150.594" rx="7.05882" fill="#EEEFFB" stroke="#E6E7FA" stroke-width="2"/>
<g clip-path="url(#clip0_12339_101626)">
<rect x="32" y="32" width="274" height="170" rx="10" fill="white"/>
<path d="M104.004 170.677C103.969 170.632 103.934 170.588 103.904 170.55C103.864 170.577 103.829 170.605 103.789 170.632C102.966 171.211 102.124 171.812 101.316 172.386C99.69 173.549 98.0045 174.751 96.304 175.881C96.1843 175.959 96.0696 176.041 95.9499 176.119C95.3714 176.504 94.793 176.896 94.2145 177.282C93.636 177.668 93.0575 178.054 92.4791 178.445C91.4318 179.146 90.3896 179.846 89.3424 180.546C79.2391 187.3 68.8017 194.292 58.4591 201.051C54.1953 203.836 49.6174 203.891 45.5781 201.195C44.2865 200.335 43.1695 199.331 42.222 198.195C42.217 199.37 42.212 200.539 42.207 201.691C42.227 203.632 42.2569 205.573 42.3018 207.502C42.3915 211.439 44.2167 214.791 47.4382 216.942C51.0935 219.379 54.4497 218.199 56.6189 216.782C66.9416 210.039 77.369 203.058 87.4574 196.304C89.7812 194.749 92.1051 193.194 94.4289 191.639C96.0796 190.537 97.7452 189.351 99.3509 188.204C100.169 187.62 101.012 187.019 101.849 186.435C102.193 186.197 102.518 185.933 102.822 185.646C103.285 185.216 103.709 184.742 104.088 184.224C104.472 183.705 104.806 183.143 105.096 182.553C105.609 181.489 105.963 180.32 106.133 179.085C106.552 176.036 105.774 172.97 104.004 170.677Z" fill="#FAFAFF"/>
<path d="M104.004 74.977C103.969 74.9329 103.934 74.8888 103.904 74.8502C103.864 74.8778 103.829 74.9054 103.789 74.9329C102.966 75.5119 102.124 76.1129 101.316 76.6863C99.69 77.8497 98.0045 79.0516 96.304 80.1819C96.1843 80.2591 96.0696 80.3418 95.9499 80.419C95.3714 80.805 94.793 81.1965 94.2145 81.5824C93.636 81.9684 93.0575 82.3543 92.4791 82.7458C91.4318 83.446 90.3896 84.1463 89.3424 84.8465C79.2391 91.6007 68.8017 98.5921 58.4591 105.352C54.1953 108.136 49.6174 108.191 45.5781 105.495C44.2865 104.635 43.1695 103.632 42.222 102.496C42.217 103.67 42.212 104.839 42.207 105.991C42.227 107.932 42.2569 109.873 42.3018 111.803C42.3915 115.74 44.2167 119.092 47.4382 121.242C51.0935 123.679 54.4497 122.499 56.6189 121.082C66.9416 114.339 77.369 107.359 87.4574 100.605C89.7812 99.0497 92.1051 97.4949 94.4289 95.94C96.0796 94.8373 97.7452 93.6518 99.3509 92.505C100.169 91.9205 101.012 91.3195 101.849 90.7351C102.193 90.498 102.518 90.2334 102.822 89.9466C103.285 89.5166 103.709 89.0424 104.088 88.5241C104.472 88.0058 104.806 87.4434 105.096 86.8535C105.609 85.7893 105.963 84.6204 106.133 83.3854C106.552 80.3363 105.774 77.2707 104.004 74.977Z" fill="#FAFAFF"/>
<path d="M104.004 122.824C103.969 122.78 103.934 122.736 103.904 122.698C103.864 122.725 103.829 122.753 103.789 122.78C102.966 123.359 102.124 123.96 101.316 124.534C99.69 125.697 98.0045 126.899 96.304 128.029C96.1843 128.106 96.0696 128.189 95.9499 128.266C95.3714 128.652 94.793 129.044 94.2145 129.43C93.636 129.816 93.0575 130.202 92.4791 130.593C91.4318 131.293 90.3896 131.994 89.3424 132.694C79.2391 139.448 68.8017 146.439 58.4591 153.199C54.1953 155.984 49.6174 156.039 45.5781 153.342C44.2865 152.482 43.1695 151.479 42.222 150.343C42.217 151.517 42.212 152.686 42.207 153.839C42.227 155.78 42.2569 157.72 42.3018 159.65C42.3915 163.587 44.2167 166.939 47.4382 169.09C51.0935 171.527 54.4497 170.347 56.6189 168.93C66.9416 162.186 77.369 155.206 87.4574 148.452C89.7812 146.897 92.1051 145.342 94.4289 143.787C96.0796 142.685 97.7452 141.499 99.3509 140.352C100.169 139.768 101.012 139.167 101.849 138.582C102.193 138.345 102.518 138.081 102.822 137.794C103.285 137.364 103.709 136.89 104.088 136.371C104.472 135.853 104.806 135.291 105.096 134.701C105.609 133.637 105.963 132.468 106.133 131.233C106.552 128.184 105.774 125.118 104.004 122.824Z" fill="#FAFAFF"/>
<path d="M104.004 27.1249C103.969 27.0808 103.934 27.0366 103.904 26.998C103.864 27.0256 103.829 27.0532 103.789 27.0808C102.966 27.6597 102.124 28.2607 101.316 28.8341C99.69 29.9975 98.0045 31.1995 96.304 32.3298C96.1843 32.407 96.0696 32.4897 95.9499 32.5668C95.3714 32.9528 94.793 33.3443 94.2145 33.7302C93.636 34.1162 93.0575 34.5021 92.4791 34.8936C91.4318 35.5938 90.3896 36.2941 89.3424 36.9943C79.2391 43.7486 68.8017 50.7399 58.4591 57.4996C54.1953 60.284 49.6174 60.3392 45.5781 57.643C44.2865 56.7829 43.1695 55.7794 42.222 54.6436C42.217 55.818 42.212 56.9869 42.207 58.1392C42.227 60.08 42.2569 62.0208 42.3018 63.9506C42.3915 67.8874 44.2167 71.2397 47.4382 73.39C51.0935 75.8271 54.4497 74.6471 56.6189 73.2301C66.9416 66.4869 77.369 59.5066 87.4574 52.7524C89.7812 51.1975 92.1051 49.6427 94.4289 48.0878C96.0796 46.9851 97.7452 45.7996 99.3509 44.6528C100.169 44.0684 101.012 43.4674 101.849 42.8829C102.193 42.6458 102.518 42.3812 102.822 42.0945C103.285 41.6644 103.709 41.1902 104.088 40.6719C104.472 40.1537 104.806 39.5913 105.096 39.0013C105.609 37.9372 105.963 36.7683 106.133 35.5332C106.552 32.4841 105.774 29.4185 104.004 27.1249Z" fill="#FAFAFF"/>
<path d="M239.618 170.677C239.583 170.632 239.548 170.588 239.518 170.55C239.478 170.577 239.443 170.605 239.403 170.632C238.581 171.211 237.738 171.812 236.93 172.386C235.304 173.549 233.619 174.751 231.918 175.881C231.798 175.959 231.684 176.041 231.564 176.119C230.986 176.504 230.407 176.896 229.829 177.282C229.25 177.668 228.672 178.054 228.093 178.445C227.046 179.146 226.004 179.846 224.957 180.546C214.853 187.3 204.416 194.292 194.073 201.051C189.81 203.836 185.232 203.891 181.192 201.195C179.901 200.335 178.784 199.331 177.836 198.195C177.831 199.37 177.826 200.539 177.821 201.691C177.841 203.632 177.871 205.573 177.916 207.502C178.006 211.439 179.831 214.791 183.052 216.942C186.708 219.379 190.064 218.199 192.233 216.782C202.556 210.039 212.983 203.058 223.072 196.304C225.395 194.749 227.719 193.194 230.043 191.639C231.694 190.537 233.359 189.351 234.965 188.204C235.783 187.62 236.626 187.019 237.463 186.435C237.808 186.197 238.132 185.933 238.436 185.646C238.9 185.216 239.324 184.742 239.703 184.224C240.087 183.705 240.421 183.143 240.71 182.553C241.224 181.489 241.578 180.32 241.747 179.085C242.166 176.036 241.388 172.97 239.618 170.677Z" fill="#FAFAFF"/>
<path d="M239.618 74.977C239.583 74.9329 239.548 74.8888 239.518 74.8502C239.478 74.8778 239.443 74.9054 239.403 74.9329C238.581 75.5119 237.738 76.1129 236.93 76.6863C235.304 77.8497 233.619 79.0516 231.918 80.1819C231.798 80.2591 231.684 80.3418 231.564 80.419C230.986 80.805 230.407 81.1965 229.829 81.5824C229.25 81.9684 228.672 82.3543 228.093 82.7458C227.046 83.446 226.004 84.1463 224.957 84.8465C214.853 91.6007 204.416 98.5921 194.073 105.352C189.81 108.136 185.232 108.191 181.192 105.495C179.901 104.635 178.784 103.632 177.836 102.496C177.831 103.67 177.826 104.839 177.821 105.991C177.841 107.932 177.871 109.873 177.916 111.803C178.006 115.74 179.831 119.092 183.052 121.242C186.708 123.679 190.064 122.499 192.233 121.082C202.556 114.339 212.983 107.359 223.072 100.605C225.395 99.0497 227.719 97.4949 230.043 95.94C231.694 94.8373 233.359 93.6518 234.965 92.505C235.783 91.9205 236.626 91.3195 237.463 90.7351C237.808 90.498 238.132 90.2334 238.436 89.9466C238.9 89.5166 239.324 89.0424 239.703 88.5241C240.087 88.0058 240.421 87.4434 240.71 86.8535C241.224 85.7893 241.578 84.6204 241.747 83.3854C242.166 80.3363 241.388 77.2707 239.618 74.977Z" fill="#FAFAFF"/>
<path d="M239.618 122.824C239.583 122.78 239.548 122.736 239.518 122.698C239.478 122.725 239.443 122.753 239.403 122.78C238.581 123.359 237.738 123.96 236.93 124.534C235.304 125.697 233.619 126.899 231.918 128.029C231.798 128.106 231.684 128.189 231.564 128.266C230.986 128.652 230.407 129.044 229.829 129.43C229.25 129.816 228.672 130.202 228.093 130.593C227.046 131.293 226.004 131.994 224.957 132.694C214.853 139.448 204.416 146.439 194.073 153.199C189.81 155.984 185.232 156.039 181.192 153.342C179.901 152.482 178.784 151.479 177.836 150.343C177.831 151.517 177.826 152.686 177.821 153.839C177.841 155.78 177.871 157.72 177.916 159.65C178.006 163.587 179.831 166.939 183.052 169.09C186.708 171.527 190.064 170.347 192.233 168.93C202.556 162.186 212.983 155.206 223.072 148.452C225.395 146.897 227.719 145.342 230.043 143.787C231.694 142.685 233.359 141.499 234.965 140.352C235.783 139.768 236.626 139.167 237.463 138.582C237.808 138.345 238.132 138.081 238.436 137.794C238.9 137.364 239.324 136.89 239.703 136.371C240.087 135.853 240.421 135.291 240.71 134.701C241.224 133.637 241.578 132.468 241.747 131.233C242.166 128.184 241.388 125.118 239.618 122.824Z" fill="#FAFAFF"/>
<path d="M239.618 27.1249C239.583 27.0808 239.548 27.0366 239.518 26.998C239.478 27.0256 239.443 27.0532 239.403 27.0808C238.581 27.6597 237.738 28.2607 236.93 28.8341C235.304 29.9975 233.619 31.1995 231.918 32.3298C231.798 32.407 231.684 32.4897 231.564 32.5668C230.986 32.9528 230.407 33.3443 229.829 33.7302C229.25 34.1162 228.672 34.5021 228.093 34.8936C227.046 35.5938 226.004 36.2941 224.957 36.9943C214.853 43.7486 204.416 50.7399 194.073 57.4996C189.81 60.284 185.232 60.3392 181.192 57.643C179.901 56.7829 178.784 55.7794 177.836 54.6436C177.831 55.818 177.826 56.9869 177.821 58.1392C177.841 60.08 177.871 62.0208 177.916 63.9506C178.006 67.8874 179.831 71.2397 183.052 73.39C186.708 75.8271 190.064 74.6471 192.233 73.2301C202.556 66.4869 212.983 59.5066 223.072 52.7524C225.395 51.1975 227.719 49.6427 230.043 48.0878C231.694 46.9851 233.359 45.7996 234.965 44.6528C235.783 44.0684 236.626 43.4674 237.463 42.8829C237.808 42.6458 238.132 42.3812 238.436 42.0945C238.9 41.6644 239.324 41.1902 239.703 40.6719C240.087 40.1537 240.421 39.5913 240.71 39.0013C241.224 37.9372 241.578 36.7683 241.747 35.5332C242.166 32.4841 241.388 29.4185 239.618 27.1249Z" fill="#FAFAFF"/>
<path d="M171.811 170.677C171.776 170.632 171.741 170.588 171.711 170.55C171.671 170.577 171.636 170.605 171.596 170.632C170.773 171.211 169.931 171.812 169.123 172.386C167.497 173.549 165.812 174.751 164.111 175.881C163.991 175.959 163.877 176.041 163.757 176.119C163.179 176.504 162.6 176.896 162.022 177.282C161.443 177.668 160.865 178.054 160.286 178.445C159.239 179.146 158.197 179.846 157.149 180.546C147.046 187.3 136.609 194.292 126.266 201.051C122.002 203.836 117.425 203.891 113.385 201.195C112.094 200.335 110.977 199.331 110.029 198.195C110.024 199.37 110.019 200.539 110.014 201.691C110.034 203.632 110.064 205.573 110.109 207.502C110.199 211.439 112.024 214.791 115.245 216.942C118.901 219.379 122.257 218.199 124.426 216.782C134.749 210.039 145.176 203.058 155.264 196.304C157.588 194.749 159.912 193.194 162.236 191.639C163.887 190.537 165.552 189.351 167.158 188.204C167.976 187.62 168.819 187.019 169.656 186.435C170 186.197 170.325 185.933 170.629 185.646C171.093 185.216 171.516 184.742 171.895 184.224C172.279 183.705 172.614 183.143 172.903 182.553C173.416 181.489 173.771 180.32 173.94 179.085C174.359 176.036 173.581 172.97 171.811 170.677Z" fill="#FAFAFF"/>
<path d="M171.811 74.977C171.776 74.9329 171.741 74.8888 171.711 74.8502C171.671 74.8778 171.636 74.9054 171.596 74.9329C170.773 75.5119 169.931 76.1129 169.123 76.6863C167.497 77.8497 165.812 79.0516 164.111 80.1819C163.991 80.2591 163.877 80.3418 163.757 80.419C163.179 80.805 162.6 81.1965 162.022 81.5824C161.443 81.9684 160.865 82.3543 160.286 82.7458C159.239 83.446 158.197 84.1463 157.149 84.8465C147.046 91.6007 136.609 98.5921 126.266 105.352C122.002 108.136 117.425 108.191 113.385 105.495C112.094 104.635 110.977 103.632 110.029 102.496C110.024 103.67 110.019 104.839 110.014 105.991C110.034 107.932 110.064 109.873 110.109 111.803C110.199 115.74 112.024 119.092 115.245 121.242C118.901 123.679 122.257 122.499 124.426 121.082C134.749 114.339 145.176 107.359 155.264 100.605C157.588 99.0497 159.912 97.4949 162.236 95.94C163.887 94.8373 165.552 93.6518 167.158 92.505C167.976 91.9205 168.819 91.3195 169.656 90.7351C170 90.498 170.325 90.2334 170.629 89.9466C171.093 89.5166 171.516 89.0424 171.895 88.5241C172.279 88.0058 172.614 87.4434 172.903 86.8535C173.416 85.7893 173.771 84.6204 173.94 83.3854C174.359 80.3363 173.581 77.2707 171.811 74.977Z" fill="#FAFAFF"/>
<path d="M171.811 122.824C171.776 122.78 171.741 122.736 171.711 122.698C171.671 122.725 171.636 122.753 171.596 122.78C170.773 123.359 169.931 123.96 169.123 124.534C167.497 125.697 165.812 126.899 164.111 128.029C163.991 128.106 163.877 128.189 163.757 128.266C163.179 128.652 162.6 129.044 162.022 129.43C161.443 129.816 160.865 130.202 160.286 130.593C159.239 131.293 158.197 131.994 157.149 132.694C147.046 139.448 136.609 146.439 126.266 153.199C122.002 155.984 117.425 156.039 113.385 153.342C112.094 152.482 110.977 151.479 110.029 150.343C110.024 151.517 110.019 152.686 110.014 153.839C110.034 155.78 110.064 157.72 110.109 159.65C110.199 163.587 112.024 166.939 115.245 169.09C118.901 171.527 122.257 170.347 124.426 168.93C134.749 162.186 145.176 155.206 155.264 148.452C157.588 146.897 159.912 145.342 162.236 143.787C163.887 142.685 165.552 141.499 167.158 140.352C167.976 139.768 168.819 139.167 169.656 138.582C170 138.345 170.325 138.081 170.629 137.794C171.093 137.364 171.516 136.89 171.895 136.371C172.279 135.853 172.614 135.291 172.903 134.701C173.416 133.637 173.771 132.468 173.94 131.233C174.359 128.184 173.581 125.118 171.811 122.824Z" fill="#FAFAFF"/>
<path d="M171.811 27.1249C171.776 27.0808 171.741 27.0366 171.711 26.998C171.671 27.0256 171.636 27.0532 171.596 27.0808C170.773 27.6597 169.931 28.2607 169.123 28.8341C167.497 29.9975 165.812 31.1995 164.111 32.3298C163.991 32.407 163.877 32.4897 163.757 32.5668C163.179 32.9528 162.6 33.3443 162.022 33.7302C161.443 34.1162 160.865 34.5021 160.286 34.8936C159.239 35.5938 158.197 36.2941 157.149 36.9943C147.046 43.7486 136.609 50.7399 126.266 57.4996C122.002 60.284 117.425 60.3392 113.385 57.643C112.094 56.7829 110.977 55.7794 110.029 54.6436C110.024 55.818 110.019 56.9869 110.014 58.1392C110.034 60.08 110.064 62.0208 110.109 63.9506C110.199 67.8874 112.024 71.2397 115.245 73.39C118.901 75.8271 122.257 74.6471 124.426 73.2301C134.749 66.4869 145.176 59.5066 155.264 52.7524C157.588 51.1975 159.912 49.6427 162.236 48.0878C163.887 46.9851 165.552 45.7996 167.158 44.6528C167.976 44.0684 168.819 43.4674 169.656 42.8829C170 42.6458 170.325 42.3812 170.629 42.0945C171.093 41.6644 171.516 41.1902 171.895 40.6719C172.279 40.1537 172.614 39.5913 172.903 39.0013C173.416 37.9372 173.771 36.7683 173.94 35.5332C174.359 32.4841 173.581 29.4185 171.811 27.1249Z" fill="#FAFAFF"/>
<path d="M307.429 170.677C307.394 170.632 307.359 170.588 307.33 170.55C307.29 170.577 307.255 170.605 307.215 170.632C306.392 171.211 305.549 171.812 304.741 172.386C303.116 173.549 301.43 174.751 299.73 175.881C299.61 175.959 299.495 176.041 299.376 176.119C298.797 176.504 298.219 176.896 297.64 177.282C297.062 177.668 296.483 178.054 295.905 178.445C294.858 179.146 293.815 179.846 292.768 180.546C282.665 187.3 272.227 194.292 261.885 201.051C257.621 203.836 253.043 203.891 249.004 201.195C247.712 200.335 246.595 199.331 245.648 198.195C245.643 199.37 245.638 200.539 245.633 201.691C245.653 203.632 245.683 205.573 245.727 207.502C245.817 211.439 247.642 214.791 250.864 216.942C254.519 219.379 257.875 218.199 260.045 216.782C270.367 210.039 280.795 203.058 290.883 196.304C293.207 194.749 295.531 193.194 297.855 191.639C299.505 190.537 301.171 189.351 302.777 188.204C303.594 187.62 304.437 187.019 305.275 186.435C305.619 186.197 305.943 185.933 306.247 185.646C306.711 185.216 307.135 184.742 307.514 184.224C307.898 183.705 308.232 183.143 308.521 182.553C309.035 181.489 309.389 180.32 309.559 179.085C309.978 176.036 309.2 172.97 307.429 170.677Z" fill="#FAFAFF"/>
<path d="M307.429 74.977C307.394 74.9329 307.359 74.8888 307.33 74.8502C307.29 74.8778 307.255 74.9054 307.215 74.9329C306.392 75.5119 305.549 76.1129 304.741 76.6863C303.116 77.8497 301.43 79.0516 299.73 80.1819C299.61 80.2591 299.495 80.3418 299.376 80.419C298.797 80.805 298.219 81.1965 297.64 81.5824C297.062 81.9684 296.483 82.3543 295.905 82.7458C294.858 83.446 293.815 84.1463 292.768 84.8465C282.665 91.6007 272.227 98.5921 261.885 105.352C257.621 108.136 253.043 108.191 249.004 105.495C247.712 104.635 246.595 103.632 245.648 102.496C245.643 103.67 245.638 104.839 245.633 105.991C245.653 107.932 245.683 109.873 245.727 111.803C245.817 115.74 247.642 119.092 250.864 121.242C254.519 123.679 257.875 122.499 260.045 121.082C270.367 114.339 280.795 107.359 290.883 100.605C293.207 99.0497 295.531 97.4949 297.855 95.94C299.505 94.8373 301.171 93.6518 302.777 92.505C303.594 91.9205 304.437 91.3195 305.275 90.7351C305.619 90.498 305.943 90.2334 306.247 89.9466C306.711 89.5166 307.135 89.0424 307.514 88.5241C307.898 88.0058 308.232 87.4434 308.521 86.8535C309.035 85.7893 309.389 84.6204 309.559 83.3854C309.978 80.3363 309.2 77.2707 307.429 74.977Z" fill="#FAFAFF"/>
<path d="M307.429 122.824C307.394 122.78 307.359 122.736 307.33 122.698C307.29 122.725 307.255 122.753 307.215 122.78C306.392 123.359 305.549 123.96 304.741 124.534C303.116 125.697 301.43 126.899 299.73 128.029C299.61 128.106 299.495 128.189 299.376 128.266C298.797 128.652 298.219 129.044 297.64 129.43C297.062 129.816 296.483 130.202 295.905 130.593C294.858 131.293 293.815 131.994 292.768 132.694C282.665 139.448 272.227 146.439 261.885 153.199C257.621 155.984 253.043 156.039 249.004 153.342C247.712 152.482 246.595 151.479 245.648 150.343C245.643 151.517 245.638 152.686 245.633 153.839C245.653 155.78 245.683 157.72 245.727 159.65C245.817 163.587 247.642 166.939 250.864 169.09C254.519 171.527 257.875 170.347 260.045 168.93C270.367 162.186 280.795 155.206 290.883 148.452C293.207 146.897 295.531 145.342 297.855 143.787C299.505 142.685 301.171 141.499 302.777 140.352C303.594 139.768 304.437 139.167 305.275 138.582C305.619 138.345 305.943 138.081 306.247 137.794C306.711 137.364 307.135 136.89 307.514 136.371C307.898 135.853 308.232 135.291 308.521 134.701C309.035 133.637 309.389 132.468 309.559 131.233C309.978 128.184 309.2 125.118 307.429 122.824Z" fill="#FAFAFF"/>
<path d="M307.429 27.1249C307.394 27.0808 307.359 27.0366 307.33 26.998C307.29 27.0256 307.255 27.0532 307.215 27.0808C306.392 27.6597 305.549 28.2607 304.741 28.8341C303.116 29.9975 301.43 31.1995 299.73 32.3298C299.61 32.407 299.495 32.4897 299.376 32.5668C298.797 32.9528 298.219 33.3443 297.64 33.7302C297.062 34.1162 296.483 34.5021 295.905 34.8936C294.858 35.5938 293.815 36.2941 292.768 36.9943C282.665 43.7486 272.227 50.7399 261.885 57.4996C257.621 60.284 253.043 60.3392 249.004 57.643C247.712 56.7829 246.595 55.7794 245.648 54.6436C245.643 55.818 245.638 56.9869 245.633 58.1392C245.653 60.08 245.683 62.0208 245.727 63.9506C245.817 67.8874 247.642 71.2397 250.864 73.39C254.519 75.8271 257.875 74.6471 260.045 73.2301C270.367 66.4869 280.795 59.5066 290.883 52.7524C293.207 51.1975 295.531 49.6427 297.855 48.0878C299.505 46.9851 301.171 45.7996 302.777 44.6528C303.594 44.0684 304.437 43.4674 305.275 42.8829C305.619 42.6458 305.943 42.3812 306.247 42.0945C306.711 41.6644 307.135 41.1902 307.514 40.6719C307.898 40.1537 308.232 39.5913 308.521 39.0013C309.035 37.9372 309.389 36.7683 309.559 35.5332C309.978 32.4841 309.2 29.4185 307.429 27.1249Z" fill="#FAFAFF"/>
<path d="M63.6703 62.4155C63.6646 62.4226 63.659 62.4297 63.6542 62.4359C63.6478 62.4315 63.6421 62.427 63.6357 62.4226C63.5031 62.3293 63.3673 62.2325 63.2371 62.14C62.9751 61.9526 62.7035 61.7589 62.4295 61.5767C62.4102 61.5643 62.3917 61.551 62.3724 61.5385C62.2792 61.4763 62.186 61.4132 62.0927 61.351C61.9995 61.2888 61.9063 61.2266 61.8131 61.1635C61.6443 61.0507 61.4764 60.9379 61.3076 60.825C59.6794 59.7366 57.9974 58.6099 56.3307 57.5206C55.6436 57.0718 54.9059 57.063 54.2549 57.4975C54.0468 57.6361 53.8668 57.7978 53.7141 57.9808C53.7133 57.7916 53.7125 57.6032 53.7117 57.4175C53.7149 57.1047 53.7197 56.792 53.7269 56.481C53.7414 55.8466 54.0355 55.3063 54.5547 54.9598C55.1437 54.5671 55.6846 54.7572 56.0342 54.9856C57.6977 56.0722 59.3781 57.1971 61.0038 58.2856C61.3783 58.5361 61.7528 58.7867 62.1273 59.0373C62.3933 59.215 62.6617 59.406 62.9205 59.5908C63.0523 59.685 63.1881 59.7819 63.3231 59.8761C63.3786 59.9143 63.4308 59.9569 63.4798 60.0031C63.5545 60.0724 63.6229 60.1488 63.6839 60.2324C63.7458 60.3159 63.7997 60.4065 63.8463 60.5016C63.929 60.6731 63.9861 60.8614 64.0134 61.0605C64.0809 61.5518 63.9556 62.0459 63.6703 62.4155Z" fill="#5466F9"/>
<path d="M53.7254 65.1655C53.7254 65.1583 53.7254 65.1503 53.7254 65.1432V65.1655C53.7254 65.3583 53.7254 65.5511 53.7254 65.7439V66.2752C53.7246 66.2512 53.7246 66.2264 53.7246 66.2024C53.7254 65.8576 53.7254 65.5111 53.7254 65.1655Z" fill="#5466F9"/>
<path d="M53.7267 63.6531C53.7267 63.9827 53.7267 64.3141 53.7267 64.6464C53.7267 64.785 53.7267 64.9245 53.7267 65.0632V64.1142H53.7154C53.7146 63.7463 53.713 63.3767 53.7114 63.0169C53.7074 62.147 53.7034 61.2549 53.713 60.3672C53.7162 60.1158 53.7202 59.8652 53.7259 59.6155C53.7259 59.7542 53.7259 59.8928 53.7259 60.0314C53.7259 60.7244 53.7259 61.4308 53.7259 62.139V62.6561C53.7267 62.9858 53.7267 63.319 53.7267 63.6531Z" fill="#5466F9"/>
<path d="M53.7141 57.9808C53.7125 57.9835 53.7103 57.9861 53.7079 57.9879C53.7087 57.7977 53.71 57.6076 53.7117 57.4175C53.7125 57.6032 53.7133 57.7916 53.7141 57.9808Z" fill="#5466F9"/>
<path d="M53.7259 62.6561V62.139C53.7259 61.8751 53.7263 61.612 53.7263 61.3481V61.0274H53.715C53.7142 60.807 53.7146 60.5858 53.713 60.3672C53.7034 61.2549 53.7074 62.147 53.7114 63.0169C53.713 63.3767 53.7146 63.7463 53.7154 64.1142L53.7255 64.115V65.064C53.7255 64.9254 53.7255 64.7859 53.7255 64.6473C53.7255 64.3149 53.7255 63.9835 53.7255 63.6539C53.7263 63.3189 53.7259 62.9858 53.7259 62.6561Z" fill="#5466F9"/>
<path d="M53.7259 62.6561C53.7267 62.9858 53.7267 63.319 53.7267 63.6531C53.7267 63.9827 53.7267 64.3141 53.7267 64.6464V64.1142H53.7154C53.7146 63.7463 53.713 63.3767 53.7114 63.0169C53.7074 62.147 53.7034 61.2549 53.713 60.3672C53.7162 60.1158 53.7202 59.8652 53.7259 59.6155C53.7259 59.7542 53.7259 59.8928 53.7259 60.0314C53.7259 60.7244 53.7259 61.4308 53.7259 62.139V62.6561Z" fill="#5466F9"/>
<path d="M53.7141 57.9808C53.7125 57.9835 53.7103 57.9861 53.7079 57.9879C53.7087 57.7977 53.71 57.6076 53.7117 57.4175C53.7125 57.6032 53.7133 57.7916 53.7141 57.9808Z" fill="#5466F9"/>
<path d="M63.8471 59.5057C63.7804 59.4444 63.7097 59.3875 63.6349 59.3351C63.5023 59.2418 63.3665 59.145 63.2363 59.0517C62.9744 58.8642 62.7027 58.6705 62.4287 58.4883C62.0542 58.2378 61.6797 57.9872 61.306 57.7366C59.6795 56.6482 57.9967 55.5224 56.3307 54.4339C55.6436 53.9843 54.9059 53.9764 54.2549 54.4108C54.046 54.5503 53.8636 54.7138 53.7109 54.8978C53.7141 54.5503 53.7189 54.2029 53.727 53.8573C53.7414 53.2229 54.0356 52.6826 54.5547 52.3361C55.1438 51.9434 55.6846 52.1335 56.0342 52.3619C57.6969 53.4486 59.3773 54.5734 61.003 55.6619C61.3775 55.9125 61.752 56.163 62.1273 56.4136C62.3933 56.5913 62.6617 56.7823 62.9205 56.9672C63.0523 57.0613 63.1881 57.1582 63.3231 57.2524C63.6952 57.5136 63.9468 57.9446 64.0135 58.4368C64.0649 58.8109 64.0046 59.1849 63.8471 59.5057Z" fill="#5466F9"/>
<path d="M53.7247 63.5778C53.7255 63.1522 53.7255 62.7248 53.7255 62.2974L53.7259 62.139C53.7259 61.4308 53.7259 60.7244 53.7259 60.0314C53.7259 59.8928 53.7259 59.7542 53.7259 59.6155C53.7202 59.8652 53.7162 60.1158 53.713 60.3672C53.7034 61.2549 53.7074 62.147 53.7114 63.0169C53.713 63.3767 53.7146 63.7463 53.7154 64.1142L53.7255 64.115V65.064C53.7255 64.9254 53.7255 64.7859 53.7255 64.6473C53.7255 64.3149 53.7255 63.9835 53.7255 63.6539C53.7255 63.629 53.7247 63.6035 53.7247 63.5778ZM53.7254 65.1432V65.1655C53.7254 65.1583 53.7254 65.1503 53.7254 65.1432ZM53.7117 57.4175C53.71 57.6076 53.7087 57.7977 53.7079 57.9879C53.7103 57.9861 53.7125 57.9835 53.7141 57.9808C53.7133 57.7916 53.7125 57.6032 53.7117 57.4175Z" fill="#5466F9"/>
<path d="M53.7259 62.6561V62.139C53.7259 61.4308 53.7259 60.7244 53.7259 60.0314C53.7259 59.8928 53.7259 59.7542 53.7259 59.6155C53.7202 59.8652 53.7162 60.1158 53.713 60.3672C53.7034 61.2549 53.7074 62.147 53.7114 63.0169C53.713 63.3767 53.7146 63.7463 53.7154 64.1142H53.7267V65.0632C53.7267 64.9245 53.7267 64.785 53.7267 64.6464C53.7267 64.3141 53.7267 63.9827 53.7267 63.6531C53.7267 63.319 53.7267 62.9858 53.7259 62.6561ZM53.7254 65.1655C53.7254 65.5111 53.7254 65.8576 53.7246 66.2024C53.7246 66.2264 53.7246 66.2512 53.7254 66.2752V65.7439C53.7254 65.5511 53.7254 65.3583 53.7254 65.1655V65.1432C53.7254 65.1503 53.7254 65.1583 53.7254 65.1655Z" fill="#5466F9"/>
<path d="M53.7254 65.1655C53.7254 65.5111 53.7254 65.8576 53.7246 66.2024C53.7246 66.2264 53.7246 66.2512 53.7254 66.2752V65.7439C53.7254 65.5511 53.7254 65.3583 53.7254 65.1655V65.1432C53.7254 65.1503 53.7254 65.1583 53.7254 65.1655Z" fill="#5466F9"/>
<path d="M63.671 65.503C63.5529 65.6567 63.4211 65.7847 63.2909 65.8726C60.5184 67.7554 58.2433 69.2935 56.1297 70.7134C55.3815 71.2163 54.4574 70.9933 53.9784 70.1954C53.808 69.911 53.7253 69.6151 53.7261 69.2891C53.7269 68.7915 53.7269 68.2894 53.7269 67.7892C53.7269 67.6159 53.7269 67.4436 53.7269 67.2712C53.7269 66.938 53.7269 66.6048 53.7269 66.2751V65.7438C53.7269 65.551 53.7269 65.3582 53.7269 65.1654V65.1316C53.7269 65.1094 53.7267 65.0854 53.7267 65.0632C53.7267 64.9245 53.7267 64.785 53.7267 64.6464C53.7267 64.3141 53.7267 63.9827 53.7267 63.6531C53.7267 63.3181 53.7269 62.9867 53.7269 62.657V62.1399C53.7269 61.4317 53.7269 60.7253 53.7269 60.0323C53.7269 59.8937 53.7269 59.7551 53.7269 59.6165C53.7269 59.6005 53.7277 59.5845 53.7277 59.5694C53.7421 58.9349 54.0363 58.3947 54.5554 58.0482C55.1445 57.6555 55.6853 57.8456 56.0349 58.074C57.6984 59.1615 59.3796 60.2864 61.0062 61.3749C61.0889 61.43 61.1717 61.4859 61.2553 61.541C61.3485 61.6032 61.4417 61.6663 61.535 61.7285C61.6282 61.7907 61.7214 61.8538 61.8146 61.916C61.9191 61.9862 62.0236 62.0555 62.128 62.1257C62.394 62.3034 62.6625 62.4953 62.9212 62.6792C63.0048 62.7397 63.0908 62.8001 63.1768 62.8614C63.2258 62.896 63.274 62.9307 63.323 62.9645C63.364 62.9938 63.4042 63.024 63.442 63.0578C63.5207 63.1253 63.5931 63.2026 63.6582 63.2852C63.8446 63.5251 63.9692 63.8237 64.0134 64.148C64.0817 64.6393 63.9563 65.1325 63.671 65.503Z" fill="#5466F9"/>
<path d="M86.4233 66.6014C86.8613 66.8386 87.2856 67.0688 87.734 67.3122C87.4576 68.0195 87.0646 68.5864 86.5446 69.0404C85.6237 69.8454 84.5733 70.2266 83.3944 70.2382C82.246 70.2497 81.2045 69.9236 80.2715 69.1879C79.2428 68.3758 78.567 67.2927 78.1917 65.9563C78.0092 65.3077 77.9353 64.6431 77.9401 63.9855C77.9506 62.5026 78.3532 61.1431 79.2034 59.9685C79.9934 58.8765 80.9811 58.1194 82.2452 57.8911C84.1233 57.5508 85.741 58.0954 86.9834 59.7401C87.4399 60.3452 87.7123 61.0711 87.8963 61.8291C88.086 62.611 88.1672 63.4107 88.1366 64.2219C88.1326 64.3294 88.1117 64.436 88.0948 64.5764C87.9566 64.5915 87.8353 64.6155 87.7139 64.6155C86.2015 64.6182 84.6898 64.62 83.1774 64.6137C83.003 64.6128 82.8246 64.5844 82.6559 64.5382C82.0756 64.38 81.7518 63.767 81.894 63.0464C82.647 63.0215 83.4121 63.0392 84.1771 63.0357C84.943 63.0321 85.7089 63.0348 86.4964 63.0348C86.5197 62.714 86.445 62.4501 86.3791 62.1907C86.1565 61.3084 85.7442 60.5656 85.0611 60.0173C84.7164 59.741 84.333 59.574 83.9248 59.4815C82.9114 59.2514 81.9623 59.438 81.1426 60.1488C80.1598 61.0009 79.6149 62.1276 79.586 63.5217C79.5715 64.2148 79.5627 64.9078 79.7298 65.592C80.1276 67.2234 81.5259 68.6335 83.2473 68.6255C83.9843 68.6219 84.6698 68.4726 85.2934 68.023C85.5939 67.8062 85.8455 67.5423 86.0496 67.2189C86.1685 67.0243 86.2851 66.8289 86.4233 66.6014Z" fill="#5466F9"/>
<path d="M115.502 64.238C115.453 63.1735 115.649 62.1615 116.102 61.2223C116.863 59.6425 118.021 58.5789 119.606 58.1702C121.779 57.6095 123.649 58.2475 125.126 60.1001C125.855 61.0135 126.273 62.1117 126.412 63.3361C126.613 65.1078 126.232 66.7099 125.259 68.12C124.435 69.3133 123.346 70.0534 121.987 70.3209C120.71 70.5714 119.504 70.3955 118.371 69.7105C116.846 68.7873 115.914 67.3683 115.573 65.481C115.546 65.3317 115.512 65.1816 115.506 65.0296C115.494 64.7666 115.502 64.5019 115.502 64.238ZM124.806 64.2504C124.812 63.3512 124.619 62.5062 124.205 61.7412C123.405 60.2627 122.254 59.4772 120.649 59.5989C119.414 59.6931 118.46 60.3204 117.812 61.4551C116.92 63.0162 116.861 64.6769 117.544 66.3473C118.01 67.4864 118.776 68.3003 119.888 68.6575C120.36 68.8095 120.843 68.8432 121.338 68.7997C121.932 68.7482 122.476 68.5571 122.958 68.1875C124.2 67.2368 124.771 65.8942 124.806 64.2504Z" fill="#5466F9"/>
<path d="M91.0884 70.1893C91.0884 66.2024 91.0884 62.2307 91.0884 58.2625C91.3648 58.1656 92.1508 58.1514 92.5687 58.2385C92.6506 58.553 92.5984 58.8862 92.6072 59.2141C92.6161 59.542 92.6088 59.8698 92.6088 60.2875C92.7503 60.0849 92.8443 59.9596 92.9279 59.8272C93.5242 58.8827 94.3318 58.2545 95.3541 58.0643C96.4799 57.8546 97.5865 57.9479 98.5798 58.6881C99.2919 59.2177 99.7226 59.9738 99.9974 60.8419C100.185 61.4337 100.253 62.053 100.25 62.6874C100.238 65.0385 100.245 67.3895 100.245 69.7406C100.245 69.8774 100.245 70.0143 100.245 70.152C99.9532 70.2977 99.7202 70.1822 99.5056 70.0471C98.882 69.6553 98.653 69.0164 98.6481 68.2612C98.6409 67.1621 98.6465 66.0629 98.6457 64.9638C98.6449 64.2539 98.6465 63.5448 98.6409 62.8349C98.6361 62.2564 98.5188 61.7091 98.272 61.1938C97.8373 60.2848 97.1598 59.8041 96.2372 59.6832C95.7904 59.6246 95.3557 59.6308 94.933 59.7712C93.7203 60.1764 93.0364 61.128 92.7543 62.4555C92.6892 62.7629 92.6739 63.0881 92.6723 63.4062C92.6643 65.0482 92.6643 66.6894 92.6707 68.3314C92.6731 68.9907 92.4513 69.522 91.9836 69.9245C91.7305 70.1422 91.4468 70.2719 91.0884 70.1893Z" fill="#5466F9"/>
<path d="M112.068 65.9457C112.546 66.127 112.996 66.2967 113.485 66.4824C113.456 66.6432 113.453 66.781 113.406 66.8982C112.709 68.654 111.524 69.8153 109.839 70.2631C108.425 70.6399 107.036 70.4622 105.758 69.642C104.278 68.6922 103.466 67.2288 103.173 65.3957C102.98 64.1944 103.059 63.0056 103.468 61.8718C104.154 59.973 105.377 58.6935 107.187 58.171C108.669 57.7428 110.082 57.9818 111.397 58.8499C112.425 59.5287 113.21 60.674 113.439 61.8309C113.344 61.8674 113.246 61.9287 113.143 61.9411C112.549 62.0113 112.021 61.8558 111.594 61.3662C111.316 61.0472 111.058 60.698 110.745 60.4261C109.061 58.9583 106.363 59.4381 105.251 61.7758C104.928 62.4547 104.726 63.1744 104.72 63.927C104.704 65.6356 105.168 67.131 106.495 68.1635C106.987 68.5465 107.537 68.7588 108.148 68.7979C108.691 68.8326 109.221 68.8015 109.748 68.6389C110.43 68.4292 110.912 67.9307 111.309 67.3283C111.558 66.9498 111.745 66.5206 111.96 66.1146C111.986 66.0683 112.017 66.0257 112.068 65.9457Z" fill="#5466F9"/>
<path d="M68.1685 52.6391C69.1626 52.7217 69.7741 53.4619 69.8183 54.6081C69.8232 54.7334 69.8199 54.8586 69.8199 54.983C69.8199 59.2791 69.8199 63.5761 69.8199 67.8721C69.8199 68.0374 69.8199 68.2036 69.8199 68.4248C69.9895 68.4328 70.1342 68.4452 70.2788 68.4452C72.4076 68.4461 74.5365 68.4461 76.6653 68.4461C76.8124 68.4461 76.9594 68.4461 77.1507 68.4461C77.1627 69.0637 77.1627 69.6226 77.1507 70.2054C74.1162 70.2054 71.1371 70.2054 68.1637 70.2054C68.0616 69.8349 68.0656 52.9883 68.1685 52.6391Z" fill="#5466F9"/>
<path d="M232.189 54.6497V52.7699H233.762C233.934 52.7699 234.094 52.7809 234.243 52.803C234.397 52.8196 234.533 52.861 234.648 52.9272C234.764 52.9935 234.856 53.0873 234.922 53.2088C234.988 53.3302 235.021 53.4959 235.021 53.7057C235.021 54.0203 234.922 54.2577 234.723 54.4178C234.53 54.5724 234.21 54.6497 233.762 54.6497H232.189ZM231.402 52.1074V58.0201H234.259C234.552 58.0201 234.809 57.9731 235.029 57.8793C235.256 57.7799 235.443 57.6529 235.593 57.4984C235.747 57.3383 235.863 57.1561 235.94 56.9518C236.018 56.7475 236.056 56.5378 236.056 56.3224C236.056 55.9581 235.96 55.6489 235.766 55.395C235.573 55.141 235.294 54.9754 234.93 54.8981V54.8816C235.212 54.7711 235.427 54.6028 235.576 54.3764C235.731 54.1445 235.808 53.8713 235.808 53.5566C235.808 53.2585 235.739 53.0073 235.601 52.803C235.468 52.5988 235.305 52.4387 235.112 52.3227C235.024 52.2675 234.916 52.2261 234.789 52.1985C234.668 52.1709 234.535 52.1516 234.392 52.1405C234.248 52.124 234.102 52.1157 233.953 52.1157C233.809 52.1102 233.674 52.1074 233.547 52.1074H231.402ZM232.189 57.3576V55.3122H233.986C234.152 55.3122 234.312 55.3287 234.466 55.3619C234.621 55.3895 234.756 55.4419 234.872 55.5192C234.994 55.591 235.09 55.6903 235.162 55.8173C235.234 55.9443 235.27 56.1044 235.27 56.2976C235.27 56.6288 235.17 56.8883 234.971 57.076C234.778 57.2637 234.508 57.3576 234.16 57.3576H232.189Z" fill="black"/>
<path d="M240.5 58.0201V53.7388H239.796V56.1568C239.796 56.3501 239.768 56.5295 239.713 56.6951C239.663 56.8552 239.586 56.996 239.481 57.1174C239.376 57.2389 239.244 57.3327 239.084 57.399C238.929 57.4652 238.744 57.4984 238.529 57.4984C238.258 57.4984 238.046 57.4211 237.891 57.2665C237.737 57.1119 237.659 56.9021 237.659 56.6371V53.7388H236.955V56.5543C236.955 56.7862 236.977 56.9987 237.022 57.192C237.071 57.3797 237.154 57.5425 237.27 57.6805C237.386 57.8185 237.538 57.9262 237.725 58.0035C237.913 58.0753 238.148 58.1111 238.429 58.1111C238.744 58.1111 239.017 58.0504 239.249 57.929C239.481 57.802 239.672 57.606 239.821 57.341H239.837V58.0201H240.5Z" fill="black"/>
<path d="M241.987 56.6703H241.284C241.295 56.9352 241.35 57.1616 241.449 57.3493C241.549 57.5315 241.681 57.6805 241.847 57.7965C242.012 57.9069 242.203 57.9869 242.418 58.0366C242.633 58.0863 242.86 58.1111 243.097 58.1111C243.312 58.1111 243.528 58.0891 243.743 58.0449C243.964 58.0063 244.16 57.9345 244.331 57.8296C244.508 57.7247 244.648 57.5867 244.753 57.4155C244.864 57.2444 244.919 57.0291 244.919 56.7696C244.919 56.5654 244.877 56.3942 244.795 56.2562C244.717 56.1182 244.612 56.005 244.48 55.9167C244.353 55.8228 244.204 55.7483 244.033 55.6931C243.867 55.6379 243.696 55.591 243.519 55.5523C243.354 55.5137 243.188 55.4778 243.023 55.4447C242.857 55.406 242.708 55.3619 242.575 55.3122C242.443 55.257 242.332 55.1907 242.244 55.1134C242.161 55.0306 242.12 54.9285 242.12 54.807C242.12 54.6966 242.147 54.6083 242.203 54.542C242.258 54.4703 242.33 54.4151 242.418 54.3764C242.506 54.3322 242.603 54.3019 242.708 54.2853C242.818 54.2688 242.926 54.2605 243.031 54.2605C243.147 54.2605 243.26 54.2743 243.37 54.3019C243.486 54.324 243.591 54.3626 243.685 54.4178C243.779 54.473 243.856 54.5476 243.917 54.6414C243.978 54.7297 244.013 54.8429 244.025 54.9809H244.728C244.712 54.7215 244.657 54.5062 244.563 54.335C244.469 54.1583 244.342 54.0203 244.182 53.921C244.027 53.8161 243.848 53.7443 243.644 53.7057C243.439 53.6615 243.216 53.6394 242.973 53.6394C242.785 53.6394 242.595 53.6642 242.401 53.7139C242.214 53.7581 242.043 53.8299 241.888 53.9292C241.739 54.0231 241.615 54.1473 241.515 54.3019C241.422 54.4565 241.375 54.6414 241.375 54.8567C241.375 55.1327 241.444 55.3481 241.582 55.5026C241.72 55.6572 241.891 55.7787 242.095 55.867C242.305 55.9498 242.531 56.0161 242.774 56.0657C243.017 56.1099 243.241 56.1623 243.445 56.2231C243.655 56.2783 243.829 56.3528 243.967 56.4467C244.105 56.5405 244.174 56.6785 244.174 56.8607C244.174 56.9932 244.14 57.1036 244.074 57.192C244.008 57.2748 243.922 57.3383 243.817 57.3824C243.718 57.4266 243.608 57.4569 243.486 57.4735C243.365 57.4901 243.249 57.4984 243.138 57.4984C242.995 57.4984 242.854 57.4845 242.716 57.4569C242.584 57.4293 242.462 57.3852 242.352 57.3244C242.247 57.2582 242.161 57.1726 242.095 57.0677C242.029 56.9573 241.993 56.8248 241.987 56.6703Z" fill="black"/>
<path d="M246.443 52.9686V52.1074H245.739V52.9686H246.443ZM245.739 53.7388V58.0201H246.443V53.7388H245.739Z" fill="black"/>
<path d="M247.533 53.7388V58.0201H248.237V55.602C248.237 55.4088 248.262 55.2321 248.311 55.072C248.367 54.9064 248.447 54.7629 248.552 54.6414C248.656 54.52 248.786 54.4261 248.941 54.3599C249.101 54.2936 249.289 54.2605 249.504 54.2605C249.774 54.2605 249.987 54.3378 250.142 54.4923C250.296 54.6469 250.373 54.8567 250.373 55.1217V58.0201H251.077V55.2045C251.077 54.9726 251.052 54.7629 251.003 54.5752C250.959 54.3819 250.879 54.2163 250.763 54.0783C250.647 53.9403 250.495 53.8326 250.307 53.7553C250.119 53.6781 249.885 53.6394 249.603 53.6394C248.968 53.6394 248.505 53.8989 248.212 54.4178H248.195V53.7388H247.533Z" fill="black"/>
<path d="M255.107 55.4695H252.648C252.659 55.3039 252.695 55.1493 252.756 55.0058C252.816 54.8567 252.899 54.727 253.004 54.6166C253.109 54.5062 253.233 54.4206 253.377 54.3599C253.526 54.2936 253.691 54.2605 253.873 54.2605C254.05 54.2605 254.21 54.2936 254.354 54.3599C254.503 54.4206 254.63 54.5062 254.735 54.6166C254.845 54.7215 254.931 54.8484 254.991 54.9975C255.058 55.1465 255.096 55.3039 255.107 55.4695ZM255.786 56.662H255.091C255.03 56.9435 254.903 57.1533 254.71 57.2913C254.522 57.4293 254.279 57.4984 253.981 57.4984C253.749 57.4984 253.548 57.4597 253.377 57.3824C253.205 57.3051 253.065 57.203 252.954 57.076C252.844 56.9435 252.764 56.7945 252.714 56.6288C252.664 56.4577 252.642 56.2783 252.648 56.0906H255.853C255.864 55.8311 255.839 55.5578 255.778 55.2708C255.723 54.9837 255.618 54.7187 255.463 54.4758C255.314 54.2329 255.113 54.0341 254.859 53.8796C254.61 53.7195 254.296 53.6394 253.915 53.6394C253.622 53.6394 253.352 53.6946 253.103 53.805C252.86 53.9154 252.648 54.07 252.466 54.2688C252.289 54.4675 252.151 54.7021 252.052 54.9726C251.952 55.2432 251.903 55.5413 251.903 55.867C251.914 56.1927 251.961 56.4936 252.043 56.7696C252.132 57.0457 252.261 57.283 252.433 57.4818C252.604 57.6805 252.814 57.8351 253.062 57.9455C253.316 58.0559 253.614 58.1111 253.956 58.1111C254.442 58.1111 254.845 57.9897 255.165 57.7468C255.486 57.5039 255.693 57.1423 255.786 56.662Z" fill="black"/>
<path d="M257.013 56.6703H256.309C256.32 56.9352 256.375 57.1616 256.475 57.3493C256.574 57.5315 256.706 57.6805 256.872 57.7965C257.038 57.9069 257.228 57.9869 257.443 58.0366C257.659 58.0863 257.885 58.1111 258.123 58.1111C258.338 58.1111 258.553 58.0891 258.768 58.0449C258.989 58.0063 259.185 57.9345 259.356 57.8296C259.533 57.7247 259.674 57.5867 259.779 57.4155C259.889 57.2444 259.944 57.0291 259.944 56.7696C259.944 56.5654 259.903 56.3942 259.82 56.2562C259.743 56.1182 259.638 56.005 259.505 55.9167C259.378 55.8228 259.229 55.7483 259.058 55.6931C258.893 55.6379 258.722 55.591 258.545 55.5523C258.379 55.5137 258.214 55.4778 258.048 55.4447C257.882 55.406 257.733 55.3619 257.601 55.3122C257.468 55.257 257.358 55.1907 257.27 55.1134C257.187 55.0306 257.145 54.9285 257.145 54.807C257.145 54.6966 257.173 54.6083 257.228 54.542C257.283 54.4703 257.355 54.4151 257.443 54.3764C257.532 54.3322 257.628 54.3019 257.733 54.2853C257.844 54.2688 257.951 54.2605 258.056 54.2605C258.172 54.2605 258.285 54.2743 258.396 54.3019C258.512 54.324 258.617 54.3626 258.71 54.4178C258.804 54.473 258.882 54.5476 258.942 54.6414C259.003 54.7297 259.039 54.8429 259.05 54.9809H259.754C259.737 54.7215 259.682 54.5062 259.588 54.335C259.494 54.1583 259.367 54.0203 259.207 53.921C259.053 53.8161 258.873 53.7443 258.669 53.7057C258.465 53.6615 258.241 53.6394 257.998 53.6394C257.811 53.6394 257.62 53.6642 257.427 53.7139C257.239 53.7581 257.068 53.8299 256.914 53.9292C256.764 54.0231 256.64 54.1473 256.541 54.3019C256.447 54.4565 256.4 54.6414 256.4 54.8567C256.4 55.1327 256.469 55.3481 256.607 55.5026C256.745 55.6572 256.916 55.7787 257.121 55.867C257.33 55.9498 257.557 56.0161 257.8 56.0657C258.042 56.1099 258.266 56.1623 258.47 56.2231C258.68 56.2783 258.854 56.3528 258.992 56.4467C259.13 56.5405 259.199 56.6785 259.199 56.8607C259.199 56.9932 259.166 57.1036 259.1 57.192C259.033 57.2748 258.948 57.3383 258.843 57.3824C258.744 57.4266 258.633 57.4569 258.512 57.4735C258.39 57.4901 258.274 57.4984 258.164 57.4984C258.02 57.4984 257.88 57.4845 257.742 57.4569C257.609 57.4293 257.488 57.3852 257.377 57.3244C257.272 57.2582 257.187 57.1726 257.121 57.0677C257.054 56.9573 257.018 56.8248 257.013 56.6703Z" fill="black"/>
<path d="M261.153 56.6703H260.449C260.461 56.9352 260.516 57.1616 260.615 57.3493C260.714 57.5315 260.847 57.6805 261.013 57.7965C261.178 57.9069 261.369 57.9869 261.584 58.0366C261.799 58.0863 262.026 58.1111 262.263 58.1111C262.478 58.1111 262.694 58.0891 262.909 58.0449C263.13 58.0063 263.326 57.9345 263.497 57.8296C263.674 57.7247 263.814 57.5867 263.919 57.4155C264.03 57.2444 264.085 57.0291 264.085 56.7696C264.085 56.5654 264.043 56.3942 263.961 56.2562C263.883 56.1182 263.778 56.005 263.646 55.9167C263.519 55.8228 263.37 55.7483 263.199 55.6931C263.033 55.6379 262.862 55.591 262.685 55.5523C262.52 55.5137 262.354 55.4778 262.188 55.4447C262.023 55.406 261.874 55.3619 261.741 55.3122C261.609 55.257 261.498 55.1907 261.41 55.1134C261.327 55.0306 261.286 54.9285 261.286 54.807C261.286 54.6966 261.313 54.6083 261.369 54.542C261.424 54.4703 261.496 54.4151 261.584 54.3764C261.672 54.3322 261.769 54.3019 261.874 54.2853C261.984 54.2688 262.092 54.2605 262.197 54.2605C262.313 54.2605 262.426 54.2743 262.536 54.3019C262.652 54.324 262.757 54.3626 262.851 54.4178C262.945 54.473 263.022 54.5476 263.083 54.6414C263.144 54.7297 263.179 54.8429 263.19 54.9809H263.894C263.878 54.7215 263.823 54.5062 263.729 54.335C263.635 54.1583 263.508 54.0203 263.348 53.921C263.193 53.8161 263.014 53.7443 262.81 53.7057C262.605 53.6615 262.382 53.6394 262.139 53.6394C261.951 53.6394 261.761 53.6642 261.567 53.7139C261.38 53.7581 261.209 53.8299 261.054 53.9292C260.905 54.0231 260.781 54.1473 260.681 54.3019C260.588 54.4565 260.541 54.6414 260.541 54.8567C260.541 55.1327 260.61 55.3481 260.748 55.5026C260.886 55.6572 261.057 55.7787 261.261 55.867C261.471 55.9498 261.697 56.0161 261.94 56.0657C262.183 56.1099 262.407 56.1623 262.611 56.2231C262.821 56.2783 262.995 56.3528 263.133 56.4467C263.271 56.5405 263.34 56.6785 263.34 56.8607C263.34 56.9932 263.306 57.1036 263.24 57.192C263.174 57.2748 263.088 57.3383 262.983 57.3824C262.884 57.4266 262.774 57.4569 262.652 57.4735C262.531 57.4901 262.415 57.4984 262.304 57.4984C262.161 57.4984 262.02 57.4845 261.882 57.4569C261.75 57.4293 261.628 57.3852 261.518 57.3244C261.413 57.2582 261.327 57.1726 261.261 57.0677C261.195 56.9573 261.159 56.8248 261.153 56.6703Z" fill="black"/>
<path d="M268.071 57.3576V52.7699H269.396C269.76 52.7699 270.066 52.8223 270.315 52.9272C270.563 53.0266 270.765 53.1757 270.919 53.3744C271.079 53.5676 271.193 53.805 271.259 54.0866C271.331 54.3626 271.366 54.6773 271.366 55.0306C271.366 55.395 271.328 55.7069 271.251 55.9664C271.179 56.2203 271.085 56.4329 270.969 56.604C270.853 56.7751 270.721 56.9104 270.572 57.0098C270.428 57.1091 270.282 57.1864 270.133 57.2416C269.984 57.2913 269.843 57.3244 269.71 57.341C269.578 57.3521 269.467 57.3576 269.379 57.3576H268.071ZM267.284 52.1074V58.0201H269.313C269.804 58.0201 270.229 57.951 270.588 57.813C270.947 57.675 271.242 57.4763 271.474 57.2168C271.706 56.9518 271.877 56.6288 271.988 56.2479C272.098 55.8615 272.153 55.4198 272.153 54.923C272.153 53.9734 271.908 53.2668 271.416 52.803C270.925 52.3393 270.224 52.1074 269.313 52.1074H267.284Z" fill="black"/>
<path d="M275.972 55.4695H273.512C273.523 55.3039 273.559 55.1493 273.62 55.0058C273.68 54.8567 273.763 54.727 273.868 54.6166C273.973 54.5062 274.097 54.4206 274.241 54.3599C274.39 54.2936 274.556 54.2605 274.738 54.2605C274.914 54.2605 275.074 54.2936 275.218 54.3599C275.367 54.4206 275.494 54.5062 275.599 54.6166C275.709 54.7215 275.795 54.8484 275.856 54.9975C275.922 55.1465 275.961 55.3039 275.972 55.4695ZM276.651 56.662H275.955C275.894 56.9435 275.767 57.1533 275.574 57.2913C275.386 57.4293 275.143 57.4984 274.845 57.4984C274.613 57.4984 274.412 57.4597 274.241 57.3824C274.07 57.3051 273.929 57.203 273.819 57.076C273.708 56.9435 273.628 56.7945 273.578 56.6288C273.529 56.4577 273.507 56.2783 273.512 56.0906H276.717C276.728 55.8311 276.703 55.5578 276.642 55.2708C276.587 54.9837 276.482 54.7187 276.328 54.4758C276.179 54.2329 275.977 54.0341 275.723 53.8796C275.475 53.7195 275.16 53.6394 274.779 53.6394C274.487 53.6394 274.216 53.6946 273.968 53.805C273.725 53.9154 273.512 54.07 273.33 54.2688C273.153 54.4675 273.015 54.7021 272.916 54.9726C272.817 55.2432 272.767 55.5413 272.767 55.867C272.778 56.1927 272.825 56.4936 272.908 56.7696C272.996 57.0457 273.126 57.283 273.297 57.4818C273.468 57.6805 273.678 57.8351 273.926 57.9455C274.18 58.0559 274.478 58.1111 274.821 58.1111C275.306 58.1111 275.709 57.9897 276.03 57.7468C276.35 57.5039 276.557 57.1423 276.651 56.662Z" fill="black"/>
<path d="M277.471 52.1074V58.0201H278.175V57.4487H278.192C278.269 57.5756 278.363 57.6833 278.473 57.7716C278.589 57.8544 278.711 57.9207 278.838 57.9704C278.965 58.0201 279.092 58.0559 279.219 58.078C279.351 58.1001 279.47 58.1111 279.575 58.1111C279.9 58.1111 280.185 58.0532 280.428 57.9372C280.676 57.8213 280.88 57.664 281.04 57.4652C281.206 57.261 281.328 57.0236 281.405 56.7531C281.488 56.4825 281.529 56.1955 281.529 55.8918C281.529 55.5882 281.488 55.3011 281.405 55.0306C281.322 54.7601 281.198 54.5227 281.032 54.3184C280.872 54.1087 280.668 53.943 280.419 53.8216C280.176 53.7001 279.889 53.6394 279.558 53.6394C279.26 53.6394 278.987 53.6946 278.738 53.805C278.49 53.9099 278.308 54.0811 278.192 54.3184H278.175V52.1074H277.471ZM280.784 55.8422C280.784 56.0519 280.762 56.2562 280.717 56.4549C280.673 56.6537 280.602 56.8303 280.502 56.9849C280.403 57.1395 280.27 57.2637 280.105 57.3576C279.945 57.4514 279.743 57.4984 279.5 57.4984C279.257 57.4984 279.05 57.4542 278.879 57.3659C278.708 57.272 278.567 57.1505 278.457 57.0015C278.352 56.8524 278.275 56.6813 278.225 56.4881C278.175 56.2893 278.15 56.0851 278.15 55.8753C278.15 55.6765 278.172 55.4805 278.217 55.2873C278.266 55.0941 278.344 54.923 278.448 54.7739C278.553 54.6193 278.689 54.4951 278.854 54.4013C279.02 54.3074 279.221 54.2605 279.459 54.2605C279.685 54.2605 279.881 54.3046 280.047 54.393C280.218 54.4813 280.356 54.6 280.461 54.7491C280.571 54.8981 280.651 55.0693 280.701 55.2625C280.756 55.4502 280.784 55.6434 280.784 55.8422Z" fill="black"/>
<path d="M283.101 52.9686V52.1074H282.397V52.9686H283.101ZM282.397 53.7388V58.0201H283.101V53.7388H282.397Z" fill="black"/>
<path d="M285.168 53.7388V52.4552H284.464V53.7388H283.736V54.3599H284.464V57.0843C284.464 57.283 284.484 57.4431 284.522 57.5646C284.561 57.6861 284.619 57.7799 284.696 57.8462C284.779 57.9124 284.884 57.9593 285.011 57.9869C285.143 58.009 285.301 58.0201 285.483 58.0201H286.021V57.399H285.698C285.588 57.399 285.497 57.3962 285.425 57.3907C285.359 57.3797 285.306 57.3603 285.268 57.3327C285.229 57.3051 285.201 57.2665 285.185 57.2168C285.174 57.1671 285.168 57.1009 285.168 57.0181V54.3599H286.021V53.7388H285.168Z" fill="black"/>
<path fill-rule="evenodd" clip-rule="evenodd" d="M244.051 168.152C244.051 174.286 239.093 179.259 232.977 179.259C226.86 179.259 221.902 174.286 221.902 168.152C221.902 162.018 226.86 157.045 232.977 157.045C239.093 157.045 244.051 162.018 244.051 168.152Z" fill="#ED342B"/>
<path fill-rule="evenodd" clip-rule="evenodd" d="M232.978 172.908C230.501 167.277 228.685 162.016 228.685 162.016H224.888C224.888 162.016 227.199 168.768 231.492 177.213H234.464C238.758 168.768 241.069 162.016 241.069 162.016H237.271C237.271 162.016 235.455 167.277 232.978 172.908Z" fill="#FEFEFE"/>
<path fill-rule="evenodd" clip-rule="evenodd" d="M280.669 167.574C278.523 167.574 278.358 169.893 278.358 169.893H282.981C282.981 169.893 282.816 167.574 280.669 167.574ZM285.788 172.211H278.358C278.358 172.211 278.523 174.695 281.825 174.695C283.476 174.695 285.127 174.198 285.127 174.198L285.458 176.847C285.458 176.847 283.807 177.51 281.495 177.51C278.193 177.51 275.221 175.854 275.221 171.217C275.221 167.574 277.533 165.256 280.835 165.256C285.788 165.256 286.118 170.224 285.788 172.211ZM260.524 168.298L261.035 165.564C261.035 165.564 257.088 164.363 253.879 166.589V177.526H257.287V168.64C258.65 167.615 260.524 168.298 260.524 168.298ZM246.321 167.574C244.174 167.574 244.009 169.893 244.009 169.893H248.632C248.632 169.893 248.467 167.574 246.321 167.574ZM251.439 172.211H244.009C244.009 172.211 244.174 174.695 247.476 174.695C249.127 174.695 250.778 174.198 250.778 174.198L251.109 176.847C251.109 176.847 249.458 177.51 247.146 177.51C243.844 177.51 240.872 175.854 240.872 171.217C240.872 167.574 243.184 165.256 246.486 165.256C251.439 165.256 251.769 170.224 251.439 172.211ZM268.84 173.346C267.11 169.181 266.245 165.258 266.245 165.258L262.785 165.258C262.785 165.258 264.515 171.957 267.456 177.508H270.223C273.165 171.957 274.895 165.259 274.895 165.259H271.435C271.435 165.259 270.57 169.181 268.84 173.346Z" fill="#01405C"/>
</g>
</g>
<defs>
<filter id="filter0_d_12339_101626" x="0" y="0" width="338" height="261.273" filterUnits="userSpaceOnUse" color-interpolation-filters="sRGB">
<feFlood flood-opacity="0" result="BackgroundImageFix"/>
<feColorMatrix in="SourceAlpha" type="matrix" values="0 0 0 0 0 0 0 0 0 0 0 0 0 0 0 0 0 0 127 0" result="hardAlpha"/>
<feOffset/>
<feGaussianBlur stdDeviation="16"/>
<feColorMatrix type="matrix" values="0 0 0 0 0.329412 0 0 0 0 0.4 0 0 0 0 0.976471 0 0 0 0.12 0"/>
<feBlend mode="normal" in2="BackgroundImageFix" result="effect1_dropShadow_12339_101626"/>
<feBlend mode="normal" in="SourceGraphic" in2="effect1_dropShadow_12339_101626" result="shape"/>
</filter>
<clipPath id="clip0_12339_101626">
<rect x="32" y="32" width="274" height="170" rx="10" fill="white"/>
</clipPath>
</defs>
</svg>
