<svg width="13" height="16" viewBox="0 0 13 16" fill="none" xmlns="http://www.w3.org/2000/svg">
<path d="M12.2 4.5V11.5C12.2 14.3 11.5 15 8.7 15H4.5C1.7 15 1 14.3 1 11.5V4.5C1 1.7 1.7 1 4.5 1H8.7C11.5 1 12.2 1.7 12.2 4.5Z" stroke="#5466F9" stroke-linecap="round" stroke-linejoin="round"/>
<path d="M7.99922 3.44922H5.19922" stroke="#5466F9" stroke-linecap="round" stroke-linejoin="round"/>
<path d="M6.60063 12.9708C7.19985 12.9708 7.68563 12.485 7.68563 11.8858C7.68563 11.2866 7.19985 10.8008 6.60063 10.8008C6.0014 10.8008 5.51562 11.2866 5.51562 11.8858C5.51562 12.485 6.0014 12.9708 6.60063 12.9708Z" stroke="#5466F9" stroke-linecap="round" stroke-linejoin="round"/>
</svg>
