<svg width="100%" height="100%" viewBox="0 0 53 50" fill="none" xmlns="http://www.w3.org/2000/svg">
<ellipse cx="26.2931" cy="38.7452" rx="26.2931" ry="4.86242" fill="#F5F5F5"/>
<g clip-path="url(#clip0_7136_27705)">
<path d="M44.9383 22.1289V38.1718C44.9383 38.6474 44.7494 39.1035 44.413 39.4399C44.0767 39.7762 43.6206 39.9651 43.145 39.9651H9.37048C8.89486 39.9651 8.43872 39.7762 8.1024 39.4399C7.76609 39.1035 7.57715 38.6474 7.57715 38.1718V22.1289H17.315C17.7906 22.1289 18.2467 22.3178 18.583 22.6542C18.9194 22.9905 19.1083 23.4466 19.1083 23.9222V24.2047C19.1083 24.6803 19.2972 25.1365 19.6336 25.4728C19.9699 25.8091 20.426 25.998 20.9016 25.998H31.6138C32.0894 25.998 32.5456 25.8091 32.8819 25.4728C33.2182 25.1365 33.4072 24.6803 33.4072 24.2047V23.9222C33.4072 23.4466 33.5961 22.9905 33.9324 22.6542C34.2687 22.3178 34.7249 22.1289 35.2005 22.1289H44.9383Z" fill="#FAFAFA" stroke="#DBDBDB" stroke-width="0.909412" stroke-linecap="round" stroke-linejoin="round"/>
<path d="M44.9383 22.1284H35.2005C34.7249 22.1284 34.2687 22.3173 33.9324 22.6536C33.5961 22.99 33.4072 23.4461 33.4072 23.9217V24.2042C33.4072 24.6798 33.2182 25.1359 32.8819 25.4722C32.5456 25.8086 32.0894 25.9975 31.6138 25.9975H20.9016C20.426 25.9975 19.9699 25.8086 19.6336 25.4722C19.2972 25.1359 19.1083 24.6798 19.1083 24.2042V23.9217C19.1083 23.4461 18.9194 22.99 18.583 22.6536C18.2467 22.3173 17.7906 22.1284 17.315 22.1284H7.57715L13.8419 11.4072H38.6766L44.9383 22.1284Z" stroke="#DBDBDB" stroke-width="0.909412" stroke-linecap="round" stroke-linejoin="round"/>
</g>
<path d="M21.9502 3.77475H24.371V11.8857H28.3695V3.77475H30.7903L26.3696 0.346519L21.9502 3.77475Z" fill="#FAFAFA"/>
<path d="M28.0973 11.6112V3.50022H29.9981L26.3703 0.687033L22.7424 3.50294H24.6365V11.6112H28.0918H28.0973ZM28.6349 12.1543H24.0934V4.04331H21.1553L22.4098 3.07118L26.0363 0.257997L26.3689 2.95639e-05L26.7015 0.257997L30.3294 3.07118L31.5825 4.04331H28.6404V12.1543H28.6349Z" fill="#DBDBDB"/>
<path d="M26.367 19.69C29.2427 19.69 31.5738 17.3589 31.5738 14.4832C31.5738 11.6075 29.2427 9.27637 26.367 9.27637C23.4913 9.27637 21.1602 11.6075 21.1602 14.4832C21.1602 17.3589 23.4913 19.69 26.367 19.69Z" fill="#FAFAFA"/>
<path d="M26.368 9.54699C27.3441 9.54699 28.2983 9.83644 29.1099 10.3787C29.9215 10.921 30.5541 11.6918 30.9277 12.5936C31.3012 13.4954 31.3989 14.4878 31.2085 15.4451C31.0181 16.4025 30.548 17.2819 29.8578 17.9721C29.1676 18.6623 28.2882 19.1323 27.3309 19.3228C26.3735 19.5132 25.3812 19.4154 24.4794 19.0419C23.5776 18.6684 22.8068 18.0358 22.2645 17.2242C21.7222 16.4126 21.4327 15.4584 21.4327 14.4823C21.4327 13.1734 21.9527 11.9181 22.8783 10.9925C23.8038 10.067 25.0591 9.54699 26.368 9.54699ZM26.368 9.00391C25.2845 9.00391 24.2253 9.32521 23.3244 9.92718C22.4235 10.5292 21.7213 11.3848 21.3067 12.3858C20.892 13.3868 20.7835 14.4884 20.9949 15.5511C21.2063 16.6138 21.7281 17.5899 22.4942 18.3561C23.2604 19.1223 24.2366 19.644 25.2993 19.8554C26.362 20.0668 27.4635 19.9583 28.4645 19.5437C29.4656 19.129 30.3212 18.4268 30.9231 17.5259C31.5251 16.625 31.8464 15.5658 31.8464 14.4823C31.845 13.0298 31.2673 11.6372 30.2402 10.6101C29.2132 9.58299 27.8205 9.00534 26.368 9.00391V9.00391Z" fill="#DBDBDB"/>
<path d="M26.3686 18.4256C28.5461 18.4256 30.3114 16.6604 30.3114 14.4828C30.3114 12.3053 28.5461 10.54 26.3686 10.54C24.191 10.54 22.4258 12.3053 22.4258 14.4828C22.4258 16.6604 24.191 18.4256 26.3686 18.4256Z" fill="#FAFAFA"/>
<path d="M28.9703 14.2236V13.7674H28.191V12.1382H27.5719V13.7674H26.2481L25.1796 12.1423H24.5551V13.7715H23.7676V14.2277H24.5483V14.8129H23.7676V15.2636H24.5483V16.825H25.166V15.2636H26.5237L27.5556 16.825H28.1883V15.2636H28.9676V14.8088H28.1883V14.2236H28.9703ZM27.5719 14.2236V14.8088H26.9229L26.5373 14.2236H27.5719ZM25.166 13.1931L25.5421 13.7674H25.166V13.1931ZM25.166 14.2236H25.8381L26.2223 14.8088H25.166V14.2236ZM27.2162 15.2636H27.5665V15.7999L27.2162 15.2636Z" fill="#DBDBDB"/>
<defs>
<clipPath id="clip0_7136_27705">
<rect width="38.1084" height="38.9662" fill="white" transform="translate(7.2041 11.0342)"/>
</clipPath>
</defs>
</svg>
