<svg width="100%" height="100%" viewBox="0 0 57 50" fill="none" xmlns="http://www.w3.org/2000/svg">
<ellipse cx="28.4745" cy="37.8122" rx="28.4745" ry="5.26584" fill="#F5F5F5"/>
<g clip-path="url(#clip0_7136_27690)">
<path d="M48.6669 19.8164V37.1903C48.6669 37.7054 48.4623 38.1994 48.0981 38.5636C47.7339 38.9278 47.2399 39.1324 46.7248 39.1324H10.1482C9.63309 39.1324 9.13911 38.9278 8.77489 38.5636C8.41067 38.1994 8.20605 37.7054 8.20605 37.1903V19.8164H18.7518C19.2669 19.8164 19.7608 20.021 20.1251 20.3852C20.4893 20.7495 20.6939 21.2434 20.6939 21.7585V22.0644C20.6939 22.5795 20.8985 23.0735 21.2627 23.4377C21.6269 23.8019 22.1209 24.0065 22.636 24.0065H34.237C34.752 24.0065 35.246 23.8019 35.6102 23.4377C35.9745 23.0735 36.1791 22.5795 36.1791 22.0644V21.7585C36.1791 21.2434 36.3837 20.7495 36.7479 20.3852C37.1121 20.021 37.6061 19.8164 38.1212 19.8164H48.6669Z" fill="#FAFAFA" stroke="#DBDBDB" stroke-width="0.81538" stroke-linecap="round" stroke-linejoin="round"/>
<path d="M48.6669 19.8162H38.1212C37.6061 19.8162 37.1121 20.0208 36.7479 20.3851C36.3837 20.7493 36.1791 21.2433 36.1791 21.7583V22.0642C36.1791 22.5793 35.9745 23.0733 35.6102 23.4375C35.246 23.8017 34.752 24.0063 34.237 24.0063H22.636C22.1209 24.0063 21.6269 23.8017 21.2627 23.4375C20.8985 23.0733 20.6939 22.5793 20.6939 22.0642V21.7583C20.6939 21.2433 20.4893 20.7493 20.1251 20.3851C19.7608 20.0208 19.2669 19.8162 18.7518 19.8162H8.20605L14.9905 8.20557H41.8857L48.6669 19.8162Z" stroke="#DBDBDB" stroke-width="0.81538" stroke-linecap="round" stroke-linejoin="round"/>
<path d="M28.4748 35.2475C30.6291 35.2475 32.3755 33.5012 32.3755 31.3469C32.3755 29.1927 30.6291 27.4463 28.4748 27.4463C26.3206 27.4463 24.5742 29.1927 24.5742 31.3469C24.5742 33.5012 26.3206 35.2475 28.4748 35.2475Z" fill="white" stroke="#DBDBDB" stroke-width="0.21245" stroke-miterlimit="10"/>
<ellipse cx="28.1589" cy="31.6633" rx="0.632533" ry="0.632533" fill="#DBDBDB"/>
<line x1="30.0023" y1="33.666" x2="28.1582" y2="31.8159" stroke="#DBDBDB" stroke-width="0.424901" stroke-linecap="round"/>
<line x1="29.2288" y1="29.2001" x2="28.2256" y2="31.612" stroke="#DBDBDB" stroke-width="0.424901" stroke-linecap="round"/>
</g>
<rect x="36.2783" y="2.7583" width="1.17019" height="3.90062" rx="0.585093" transform="rotate(52.5 36.2783 2.7583)" fill="#DBDBDB"/>
<rect x="23.793" y="2.50537" width="1.17019" height="3.90062" rx="0.585093" transform="rotate(-37.5 23.793 2.50537)" fill="#DBDBDB"/>
<rect x="30.2637" width="1.17019" height="3.90062" rx="0.585093" transform="rotate(7.5 30.2637 0)" fill="#DBDBDB"/>
<defs>
<clipPath id="clip0_7136_27690">
<rect width="41.2701" height="42.1991" fill="white" transform="translate(7.80078 7.80078)"/>
</clipPath>
</defs>
</svg>
