<svg width="14" height="15" viewBox="0 0 14 15" fill="none" xmlns="http://www.w3.org/2000/svg">
<path d="M4.33333 11.3333H9.66667M6.34513 1.84267L1.82359 5.35942C1.52135 5.5945 1.37022 5.71204 1.26135 5.85924C1.16491 5.98963 1.09307 6.13652 1.04935 6.2927C1 6.46901 1 6.66046 1 7.04337V11.8667C1 12.6134 1 12.9868 1.14532 13.272C1.27316 13.5229 1.47713 13.7268 1.72801 13.8547C2.01323 14 2.3866 14 3.13333 14H10.8667C11.6134 14 11.9868 14 12.272 13.8547C12.5229 13.7268 12.7268 13.5229 12.8547 13.272C13 12.9868 13 12.6134 13 11.8667V7.04337C13 6.66046 13 6.46901 12.9506 6.2927C12.9069 6.13652 12.8351 5.98963 12.7386 5.85924C12.6298 5.71204 12.4787 5.5945 12.1764 5.35942L7.65487 1.84267C7.42065 1.6605 7.30354 1.56941 7.17423 1.5344C7.06013 1.50351 6.93987 1.50351 6.82577 1.5344C6.69646 1.56941 6.57935 1.6605 6.34513 1.84267Z" stroke="#5466F9" stroke-width="1.4" stroke-linecap="round" stroke-linejoin="round"/>
</svg>
