<svg width="16" height="16" viewBox="0 0 16 16" fill="none" xmlns="http://www.w3.org/2000/svg">
<path d="M8.75 11.3267C8.75 10.9125 8.41421 10.5767 8 10.5767C7.58579 10.5767 7.25 10.9125 7.25 11.3267H8.75ZM7.25 11.3334C7.25 11.7476 7.58579 12.0834 8 12.0834C8.41421 12.0834 8.75 11.7476 8.75 11.3334H7.25ZM7.25 9.33333C7.25 9.74755 7.58579 10.0833 8 10.0833C8.41421 10.0833 8.75 9.74755 8.75 9.33333H7.25ZM5.27587 5.92593C5.16802 6.32586 5.40479 6.73749 5.80472 6.84534C6.20465 6.95319 6.61628 6.71642 6.72413 6.31649L5.27587 5.92593ZM7.25 11.3267V11.3334H8.75V11.3267H7.25ZM9.25 6.60606C9.25 6.85555 9.12793 6.99746 8.5775 7.37275C8.15123 7.66339 7.25 8.20859 7.25 9.33333H8.75C8.75 9.12474 8.84877 9.00328 9.4225 8.61209C9.87207 8.30557 10.75 7.75052 10.75 6.60606H9.25ZM8 5.41667C8.72557 5.41667 9.25 5.9665 9.25 6.60606H10.75C10.75 5.10343 9.51893 3.91667 8 3.91667V5.41667ZM6.72413 6.31649C6.85459 5.83271 7.36515 5.41667 8 5.41667V3.91667C6.74119 3.91667 5.59656 4.73676 5.27587 5.92593L6.72413 6.31649ZM13.25 8C13.25 10.8995 10.8995 13.25 8 13.25V14.75C11.7279 14.75 14.75 11.7279 14.75 8H13.25ZM8 13.25C5.10051 13.25 2.75 10.8995 2.75 8H1.25C1.25 11.7279 4.27208 14.75 8 14.75V13.25ZM2.75 8C2.75 5.10051 5.10051 2.75 8 2.75V1.25C4.27208 1.25 1.25 4.27208 1.25 8H2.75ZM8 2.75C10.8995 2.75 13.25 5.10051 13.25 8H14.75C14.75 4.27208 11.7279 1.25 8 1.25V2.75Z" fill="#7A89FF"/>
</svg>
