<svg width="30" height="30" viewBox="0 0 30 30" fill="none" xmlns="http://www.w3.org/2000/svg">
<path d="M23.75 11.25C23.75 13.0625 23.2125 14.725 22.2875 16.1125C20.9375 18.1125 18.8 19.525 16.3125 19.8875C15.8875 19.9625 15.45 20 15 20C14.55 20 14.1125 19.9625 13.6875 19.8875C11.2 19.525 9.0625 18.1125 7.7125 16.1125C6.7875 14.725 6.25 13.0625 6.25 11.25C6.25 6.4125 10.1625 2.5 15 2.5C19.8375 2.5 23.75 6.4125 23.75 11.25Z" stroke="#5466F9" stroke-width="1.5" stroke-linecap="round" stroke-linejoin="round"/>
<path d="M26.5628 23.0875L24.5003 23.575C24.0378 23.6875 23.6753 24.0375 23.5753 24.5L23.1378 26.3375C22.9003 27.3375 21.6253 27.6375 20.9628 26.85L15.0003 20L9.03784 26.8625C8.37534 27.65 7.10034 27.35 6.86284 26.35L6.42534 24.5125C6.31284 24.05 5.95034 23.6875 5.50034 23.5875L3.43784 23.1C2.48784 22.875 2.15034 21.6875 2.83784 21L7.71284 16.125C9.06284 18.125 11.2003 19.5375 13.6878 19.9C14.1128 19.975 14.5503 20.0125 15.0003 20.0125C15.4503 20.0125 15.8878 19.975 16.3128 19.9C18.8003 19.5375 20.9378 18.125 22.2878 16.125L27.1628 21C27.8503 21.675 27.5128 22.8625 26.5628 23.0875Z" stroke="#5466F9" stroke-width="1.5" stroke-linecap="round" stroke-linejoin="round"/>
<path d="M15.7255 7.475L16.463 8.94999C16.563 9.14999 16.8255 9.35 17.063 9.3875L18.4005 9.61249C19.2505 9.74999 19.4505 10.375 18.838 10.9875L17.8005 12.025C17.6255 12.2 17.5255 12.5375 17.588 12.7875L17.888 14.075C18.1255 15.0875 17.588 15.4875 16.688 14.95L15.438 14.2125C15.213 14.075 14.838 14.075 14.613 14.2125L13.363 14.95C12.463 15.475 11.9255 15.0875 12.163 14.075L12.463 12.7875C12.513 12.55 12.4255 12.2 12.2505 12.025L11.213 10.9875C10.6005 10.375 10.8005 9.76249 11.6505 9.61249L12.988 9.3875C13.213 9.35 13.4755 9.14999 13.5755 8.94999L14.313 7.475C14.6755 6.675 15.3255 6.675 15.7255 7.475Z" stroke="#5466F9" stroke-width="1.5" stroke-linecap="round" stroke-linejoin="round"/>
</svg>
