<svg width="25" height="24" viewBox="0 0 25 24" fill="none" xmlns="http://www.w3.org/2000/svg">
<path d="M6.57974 8.01937L6.67196 9.01511C7.12505 8.97315 7.49268 8.63059 7.5665 8.18159L6.57974 8.01937ZM18.4203 8.01937L17.4335 8.18159C17.5073 8.63059 17.8749 8.97315 18.328 9.01511L18.4203 8.01937ZM3.94374 17.0732C4.40269 17.3804 5.02379 17.2574 5.33101 16.7985C5.63822 16.3395 5.51521 15.7184 5.05626 15.4112L3.94374 17.0732ZM19.9437 15.4112C19.4848 15.7184 19.3618 16.3395 19.669 16.7985C19.9762 17.2574 20.5973 17.3804 21.0563 17.0732L19.9437 15.4112ZM7.79289 15.2929C7.40237 15.6834 7.40237 16.3166 7.79289 16.7071C8.18342 17.0976 8.81658 17.0976 9.20711 16.7071L7.79289 15.2929ZM12.5 12L13.2071 11.2929C12.8166 10.9024 12.1834 10.9024 11.7929 11.2929L12.5 12ZM15.7929 16.7071C16.1834 17.0976 16.8166 17.0976 17.2071 16.7071C17.5976 16.3166 17.5976 15.6834 17.2071 15.2929L15.7929 16.7071ZM11.5 21C11.5 21.5523 11.9477 22 12.5 22C13.0523 22 13.5 21.5523 13.5 21H11.5ZM6.48752 7.02363C3.68973 7.28275 1.5 9.63507 1.5 12.5H3.5C3.5 10.6778 4.89329 9.17984 6.67196 9.01511L6.48752 7.02363ZM12.5 2C9.02264 2 6.1392 4.53459 5.59299 7.85715L7.5665 8.18159C7.95643 5.80968 10.0178 4 12.5 4V2ZM19.407 7.85715C18.8608 4.53459 15.9774 2 12.5 2V4C14.9822 4 17.0436 5.80968 17.4335 8.18159L19.407 7.85715ZM18.328 9.01511C20.1067 9.17984 21.5 10.6778 21.5 12.5H23.5C23.5 9.63507 21.3103 7.28275 18.5125 7.02363L18.328 9.01511ZM1.5 12.5C1.5 14.4079 2.47228 16.0883 3.94374 17.0732L5.05626 15.4112C4.11575 14.7817 3.5 13.7125 3.5 12.5H1.5ZM21.5 12.5C21.5 13.7125 20.8842 14.7817 19.9437 15.4112L21.0563 17.0732C22.5277 16.0883 23.5 14.4079 23.5 12.5H21.5ZM9.20711 16.7071L13.2071 12.7071L11.7929 11.2929L7.79289 15.2929L9.20711 16.7071ZM11.7929 12.7071L15.7929 16.7071L17.2071 15.2929L13.2071 11.2929L11.7929 12.7071ZM11.5 12V21H13.5V12H11.5Z" fill="#5466F9"/>
</svg>
