<svg width="75" height="27" viewBox="0 0 75 27" fill="none" xmlns="http://www.w3.org/2000/svg">
<path fill-rule="evenodd" clip-rule="evenodd" d="M25.9689 13.0607C25.9689 20.2306 20.1565 26.043 12.9866 26.043C5.8164 26.043 0.00390625 20.2306 0.00390625 13.0607C0.00390625 5.89082 5.8164 0.0784969 12.9866 0.0784969C20.1565 0.0784969 25.9689 5.89082 25.9689 13.0607Z" fill="#ED342B"/>
<path fill-rule="evenodd" clip-rule="evenodd" d="M12.9886 18.6214C10.0847 12.0391 7.95553 5.89001 7.95553 5.89001H3.50391C3.50391 5.89001 6.21338 13.7824 11.2463 23.6523H14.7309C19.7638 13.7824 22.4731 5.89001 22.4731 5.89001H18.0215C18.0215 5.89001 15.8925 12.0391 12.9886 18.6214Z" fill="#FEFEFE"/>
<path fill-rule="evenodd" clip-rule="evenodd" d="M68.8933 12.384C66.3768 12.384 66.1835 15.094 66.1835 15.094H71.6026C71.6026 15.094 71.4094 12.384 68.8933 12.384ZM74.8934 17.8035H66.1835C66.1835 17.8035 66.3768 20.7072 70.2483 20.7072C72.1836 20.7072 74.1192 20.1259 74.1192 20.1259L74.5065 23.2227C74.5065 23.2227 72.5709 23.9974 69.861 23.9974C65.9899 23.9974 62.5059 22.0617 62.5059 16.6422C62.5059 12.384 65.2159 9.67424 69.0869 9.67424C74.8934 9.67424 75.2802 15.4809 74.8934 17.8035ZM45.2767 13.2301L45.876 10.0343C45.876 10.0343 41.2483 8.63004 37.4868 11.2324V24.0156H41.4815V13.6292C43.0793 12.4313 45.2767 13.2301 45.2767 13.2301ZM28.6258 12.384C26.1098 12.384 25.9164 15.094 25.9164 15.094H31.3356C31.3356 15.094 31.1424 12.384 28.6258 12.384ZM34.6259 17.8035H25.9164C25.9164 17.8035 26.1098 20.7072 29.9808 20.7072C31.9159 20.7072 33.8517 20.1259 33.8517 20.1259L34.239 23.2227C34.239 23.2227 32.3033 23.9974 29.5935 23.9974C25.7224 23.9974 22.2383 22.0617 22.2383 16.6422C22.2383 12.384 24.9482 9.67424 28.8193 9.67424C34.6259 9.67424 35.0127 15.4809 34.6259 17.8035ZM55.0253 19.13C52.9969 14.2615 51.9831 9.67657 51.9831 9.67657L47.9272 9.67706C47.9272 9.67706 49.9554 17.507 53.4035 23.995H56.6471C60.0954 17.507 62.1236 9.6782 62.1236 9.6782H58.0675C58.0675 9.6782 57.0537 14.2615 55.0253 19.13Z" fill="#03435F"/>
</svg>
