<svg width="12" height="12" viewBox="0 0 12 12" fill="none" xmlns="http://www.w3.org/2000/svg">
<path d="M1.338 3.888C1.338 3.67333 1.352 3.44933 1.38 3.216C1.408 2.97333 1.464 2.754 1.548 2.558C1.64133 2.35267 1.76733 2.18467 1.926 2.054C2.08467 1.914 2.29467 1.844 2.556 1.844C2.82667 1.844 3.03667 1.914 3.186 2.054C3.34467 2.18467 3.466 2.35267 3.55 2.558C3.634 2.754 3.68533 2.97333 3.704 3.216C3.732 3.44933 3.746 3.66867 3.746 3.874C3.746 4.08867 3.732 4.31733 3.704 4.56C3.676 4.80267 3.61533 5.02667 3.522 5.232C3.438 5.428 3.31667 5.59133 3.158 5.722C2.99933 5.85267 2.78467 5.918 2.514 5.918C2.25267 5.918 2.04267 5.85267 1.884 5.722C1.73467 5.582 1.618 5.414 1.534 5.218C1.45 5.01267 1.394 4.79333 1.366 4.56C1.34733 4.31733 1.338 4.09333 1.338 3.888ZM0.288 3.916C0.288 4.29867 0.325333 4.658 0.4 4.994C0.484 5.33 0.614667 5.624 0.792 5.876C0.969333 6.128 1.20267 6.32867 1.492 6.478C1.78133 6.618 2.136 6.688 2.556 6.688C2.96667 6.688 3.312 6.60867 3.592 6.45C3.872 6.29133 4.10067 6.086 4.278 5.834C4.46467 5.57267 4.59533 5.274 4.67 4.938C4.754 4.59267 4.796 4.238 4.796 3.874C4.796 3.49133 4.75867 3.132 4.684 2.796C4.61867 2.45067 4.49733 2.152 4.32 1.9C4.152 1.648 3.92333 1.44733 3.634 1.298C3.354 1.14867 2.99467 1.074 2.556 1.074C2.12667 1.074 1.76733 1.15333 1.478 1.312C1.18867 1.46133 0.955333 1.66667 0.778 1.928C0.600667 2.18933 0.474667 2.49267 0.4 2.838C0.325333 3.174 0.288 3.53333 0.288 3.916ZM8.254 8.368C8.254 8.15333 8.268 7.92933 8.296 7.696C8.324 7.45333 8.38 7.234 8.464 7.038C8.55733 6.83267 8.68333 6.66467 8.842 6.534C9.00067 6.394 9.21067 6.324 9.472 6.324C9.74267 6.324 9.95267 6.394 10.102 6.534C10.2607 6.66467 10.382 6.83267 10.466 7.038C10.55 7.234 10.6013 7.45333 10.62 7.696C10.648 7.92933 10.662 8.14867 10.662 8.354C10.662 8.56867 10.648 8.79733 10.62 9.04C10.592 9.28267 10.5313 9.50667 10.438 9.712C10.354 9.908 10.2327 10.0713 10.074 10.202C9.91533 10.3327 9.70067 10.398 9.43 10.398C9.16867 10.398 8.95867 10.3327 8.8 10.202C8.65067 10.062 8.534 9.894 8.45 9.698C8.366 9.49267 8.31 9.27333 8.282 9.04C8.26333 8.79733 8.254 8.57333 8.254 8.368ZM7.204 8.396C7.204 8.77867 7.24133 9.138 7.316 9.474C7.4 9.81 7.53067 10.104 7.708 10.356C7.88533 10.5987 8.11867 10.7947 8.408 10.944C8.69733 11.084 9.052 11.154 9.472 11.154C9.88267 11.154 10.228 11.0793 10.508 10.93C10.788 10.7713 11.0167 10.566 11.194 10.314C11.3807 10.0527 11.5113 9.754 11.586 9.418C11.67 9.07267 11.712 8.718 11.712 8.354C11.712 7.97133 11.6747 7.612 11.6 7.276C11.5347 6.93067 11.4133 6.632 11.236 6.38C11.068 6.128 10.8393 5.92733 10.55 5.778C10.27 5.62867 9.91067 5.554 9.472 5.554C9.04267 5.554 8.68333 5.63333 8.394 5.792C8.10467 5.94133 7.87133 6.14667 7.694 6.408C7.51667 6.66933 7.39067 6.97267 7.316 7.318C7.24133 7.654 7.204 8.01333 7.204 8.396ZM9.164 0.891999L1.632 11.294H2.836L10.354 0.891999H9.164Z" />
</svg>
