<svg width="21" height="17" viewBox="0 0 21 17" fill="none" xmlns="http://www.w3.org/2000/svg">
<path d="M1.83398 16.9961C1.43398 16.9961 1.08398 16.8461 0.783984 16.5461C0.483984 16.2461 0.333984 15.8961 0.333984 15.4961V2.49609C0.333984 2.09609 0.483984 1.74609 0.783984 1.44609C1.08398 1.14609 1.43398 0.996094 1.83398 0.996094H18.834C19.234 0.996094 19.584 1.14609 19.884 1.44609C20.184 1.74609 20.334 2.09609 20.334 2.49609V15.4961C20.334 15.8961 20.184 16.2461 19.884 16.5461C19.584 16.8461 19.234 16.9961 18.834 16.9961H1.83398ZM1.83398 8.44609H18.834V5.22109H1.83398V8.44609Z"/>
</svg>
