<svg width="23" height="17" viewBox="0 0 23 17" fill="none" xmlns="http://www.w3.org/2000/svg">
<path d="M2.33398 16.5C1.92148 16.5 1.56836 16.3531 1.27461 16.0594C0.980859 15.7656 0.833984 15.4125 0.833984 15V3.5H2.33398V15H19.834V16.5H2.33398ZM5.33398 13.5C4.92148 13.5 4.56836 13.3531 4.27461 13.0594C3.98086 12.7656 3.83398 12.4125 3.83398 12V2C3.83398 1.5875 3.98086 1.23438 4.27461 0.940625C4.56836 0.646875 4.92148 0.5 5.33398 0.5H21.334C21.7465 0.5 22.0996 0.646875 22.3934 0.940625C22.6871 1.23438 22.834 1.5875 22.834 2V12C22.834 12.4125 22.6871 12.7656 22.3934 13.0594C22.0996 13.3531 21.7465 13.5 21.334 13.5H5.33398ZM7.83398 12C7.83398 11.3 7.59232 10.7083 7.10898 10.225C6.62565 9.74167 6.03398 9.5 5.33398 9.5V12H7.83398ZM18.834 12H21.334V9.5C20.634 9.5 20.0423 9.74167 19.559 10.225C19.0757 10.7083 18.834 11.3 18.834 12ZM13.334 10C14.1673 10 14.8757 9.70833 15.459 9.125C16.0423 8.54167 16.334 7.83333 16.334 7C16.334 6.16667 16.0423 5.45833 15.459 4.875C14.8757 4.29167 14.1673 4 13.334 4C12.5007 4 11.7923 4.29167 11.209 4.875C10.6257 5.45833 10.334 6.16667 10.334 7C10.334 7.83333 10.6257 8.54167 11.209 9.125C11.7923 9.70833 12.5007 10 13.334 10ZM5.33398 4.5C6.03398 4.5 6.62565 4.25833 7.10898 3.775C7.59232 3.29167 7.83398 2.7 7.83398 2H5.33398V4.5ZM21.334 4.5V2H18.834C18.834 2.7 19.0757 3.29167 19.559 3.775C20.0423 4.25833 20.634 4.5 21.334 4.5Z"/>
</svg>
