<svg width="25" height="24" viewBox="0 0 25 24" fill="none" xmlns="http://www.w3.org/2000/svg">
<mask id="mask0_5001_114412" style="mask-type:alpha" maskUnits="userSpaceOnUse" x="0" y="0" width="25" height="24">
<rect x="0.333984" width="24" height="24" fill="#D9D9D9"/>
</mask>
<g mask="url(#mask0_5001_114412)">
<path d="M16.334 13.5C16.7673 13.5 17.1257 13.3583 17.409 13.075C17.6923 12.7917 17.834 12.4333 17.834 12C17.834 11.5667 17.6923 11.2083 17.409 10.925C17.1257 10.6417 16.7673 10.5 16.334 10.5C15.9007 10.5 15.5423 10.6417 15.259 10.925C14.9757 11.2083 14.834 11.5667 14.834 12C14.834 12.4333 14.9757 12.7917 15.259 13.075C15.5423 13.3583 15.9007 13.5 16.334 13.5ZM13.334 17C12.784 17 12.3132 16.8042 11.9215 16.4125C11.5298 16.0208 11.334 15.55 11.334 15V9C11.334 8.45 11.5298 7.97917 11.9215 7.5875C12.3132 7.19583 12.784 7 13.334 7H20.334C20.884 7 21.3548 7.19583 21.7465 7.5875C22.1382 7.97917 22.334 8.45 22.334 9V15C22.334 15.55 22.1382 16.0208 21.7465 16.4125C21.3548 16.8042 20.884 17 20.334 17H13.334ZM5.33398 21C4.78398 21 4.31315 20.8042 3.92148 20.4125C3.52982 20.0208 3.33398 19.55 3.33398 19V5C3.33398 4.45 3.52982 3.97917 3.92148 3.5875C4.31315 3.19583 4.78398 3 5.33398 3H19.334C19.884 3 20.3548 3.19583 20.7465 3.5875C21.1382 3.97917 21.334 4.45 21.334 5H13.334C12.1507 5 11.1882 5.37083 10.4465 6.1125C9.70482 6.85417 9.33398 7.81667 9.33398 9V15C9.33398 16.1833 9.70482 17.1458 10.4465 17.8875C11.1882 18.6292 12.1507 19 13.334 19H21.334C21.334 19.55 21.1382 20.0208 20.7465 20.4125C20.3548 20.8042 19.884 21 19.334 21H5.33398Z"/>
</g>
</svg>
