<svg width="21" height="20" viewBox="0 0 21 20" fill="none" xmlns="http://www.w3.org/2000/svg">
<path d="M4.33398 5.5H14.334V4H4.33398V5.5ZM15.334 20C14.1173 20 13.0548 19.6208 12.1465 18.8625C11.2382 18.1042 10.6673 17.15 10.434 16H11.984C12.2007 16.7333 12.6132 17.3333 13.2215 17.8C13.8298 18.2667 14.534 18.5 15.334 18.5C16.3007 18.5 17.1257 18.1583 17.809 17.475C18.4923 16.7917 18.834 15.9667 18.834 15C18.834 14.0333 18.4923 13.2083 17.809 12.525C17.1257 11.8417 16.3007 11.5 15.334 11.5C14.8507 11.5 14.4007 11.5875 13.984 11.7625C13.5673 11.9375 13.2007 12.1833 12.884 12.5H14.334V14H10.334V10H11.834V11.425C12.284 10.9917 12.809 10.6458 13.409 10.3875C14.009 10.1292 14.6507 10 15.334 10C16.7173 10 17.8965 10.4875 18.8715 11.4625C19.8465 12.4375 20.334 13.6167 20.334 15C20.334 16.3833 19.8465 17.5625 18.8715 18.5375C17.8965 19.5125 16.7173 20 15.334 20ZM8.45898 18H1.83398C1.41732 18 1.06315 17.8542 0.771484 17.5625C0.479818 17.2708 0.333984 16.9167 0.333984 16.5V1.5C0.333984 1.08333 0.479818 0.729167 0.771484 0.4375C1.06315 0.145833 1.41732 0 1.83398 0H16.834C17.2507 0 17.6048 0.145833 17.8965 0.4375C18.1882 0.729167 18.334 1.08333 18.334 1.5V8.125C17.8507 7.925 17.359 7.77083 16.859 7.6625C16.359 7.55417 15.8507 7.5 15.334 7.5C14.7507 7.5 14.184 7.56667 13.634 7.7C13.084 7.83333 12.559 8.01667 12.059 8.25H4.33398V9.75H9.98398C9.60065 10.1333 9.26315 10.5542 8.97148 11.0125C8.67982 11.4708 8.44232 11.9667 8.25898 12.5H4.33398V14H7.90898C7.87565 14.1667 7.85482 14.3292 7.84648 14.4875C7.83815 14.6458 7.83398 14.8167 7.83398 15C7.83398 15.5167 7.88398 16.025 7.98398 16.525C8.08398 17.025 8.24232 17.5167 8.45898 18Z"/>
</svg>
