<svg width="25" height="24" viewBox="0 0 25 24" fill="none" xmlns="http://www.w3.org/2000/svg">
<mask id="mask0_5001_114418" style="mask-type:alpha" maskUnits="userSpaceOnUse" x="0" y="0" width="25" height="24">
<rect x="0.333984" width="24" height="24" fill="#D9D9D9"/>
</mask>
<g mask="url(#mask0_5001_114418)">
<path d="M6.33398 22C5.50065 22 4.79232 21.7083 4.20898 21.125C3.62565 20.5417 3.33398 19.8333 3.33398 19V16H6.33398V2L7.83398 3.5L9.33398 2L10.834 3.5L12.334 2L13.834 3.5L15.334 2L16.834 3.5L18.334 2L19.834 3.5L21.334 2V19C21.334 19.8333 21.0423 20.5417 20.459 21.125C19.8757 21.7083 19.1673 22 18.334 22H6.33398ZM18.334 20C18.6173 20 18.8548 19.9042 19.0465 19.7125C19.2382 19.5208 19.334 19.2833 19.334 19V5H8.33398V16H17.334V19C17.334 19.2833 17.4298 19.5208 17.6215 19.7125C17.8132 19.9042 18.0507 20 18.334 20ZM9.33398 9V7H15.334V9H9.33398ZM9.33398 12V10H15.334V12H9.33398ZM17.334 9C17.0507 9 16.8132 8.90417 16.6215 8.7125C16.4298 8.52083 16.334 8.28333 16.334 8C16.334 7.71667 16.4298 7.47917 16.6215 7.2875C16.8132 7.09583 17.0507 7 17.334 7C17.6173 7 17.8548 7.09583 18.0465 7.2875C18.2382 7.47917 18.334 7.71667 18.334 8C18.334 8.28333 18.2382 8.52083 18.0465 8.7125C17.8548 8.90417 17.6173 9 17.334 9ZM17.334 12C17.0507 12 16.8132 11.9042 16.6215 11.7125C16.4298 11.5208 16.334 11.2833 16.334 11C16.334 10.7167 16.4298 10.4792 16.6215 10.2875C16.8132 10.0958 17.0507 10 17.334 10C17.6173 10 17.8548 10.0958 18.0465 10.2875C18.2382 10.4792 18.334 10.7167 18.334 11C18.334 11.2833 18.2382 11.5208 18.0465 11.7125C17.8548 11.9042 17.6173 12 17.334 12Z"/>
</g>
</svg>
