<svg width="23" height="16" viewBox="0 0 23 16" fill="none" xmlns="http://www.w3.org/2000/svg">
<path d="M15.3336 15.15C14.8206 15.15 14.3341 15.1 13.8739 15C13.4137 14.9 12.9669 14.75 12.5336 14.55C13.5169 13.6833 14.3003 12.6851 14.8836 11.5554C15.4669 10.4257 15.7586 9.23822 15.7586 7.9929C15.7586 6.7476 15.4669 5.56245 14.8836 4.43745C14.3003 3.31245 13.5169 2.31662 12.5336 1.44995C12.9669 1.24995 13.4137 1.09578 13.8739 0.987451C14.3341 0.879118 14.8206 0.824951 15.3336 0.824951C17.3408 0.824951 19.0384 1.51898 20.4265 2.90705C21.8146 4.29512 22.5086 5.99275 22.5086 7.99995C22.5086 10.0072 21.8146 11.7006 20.4265 13.0804C19.0384 14.4601 17.3408 15.15 15.3336 15.15ZM11.3336 13.925C10.3836 13.2916 9.62109 12.4583 9.04609 11.425C8.47109 10.3916 8.18359 9.24995 8.18359 7.99995C8.18359 6.74995 8.47109 5.60828 9.04609 4.57495C9.62109 3.54162 10.3836 2.69995 11.3336 2.04995C12.3003 2.69995 13.0711 3.54162 13.6461 4.57495C14.2211 5.60828 14.5086 6.74995 14.5086 7.99995C14.5086 9.24995 14.2211 10.3916 13.6461 11.425C13.0711 12.4583 12.3003 13.2916 11.3336 13.925ZM7.33359 15.15C5.32639 15.15 3.63293 14.4601 2.25319 13.0804C0.87346 11.7006 0.183594 10.0072 0.183594 7.99995C0.183594 5.99275 0.87346 4.29512 2.25319 2.90705C3.63293 1.51898 5.32639 0.824951 7.33359 0.824951C7.84656 0.824951 8.3373 0.879118 8.80582 0.987451C9.27434 1.09578 9.72526 1.24995 10.1586 1.44995C9.15859 2.31662 8.37109 3.31371 7.79609 4.44123C7.22109 5.56876 6.93359 6.754 6.93359 7.99695C6.93359 9.33228 7.21693 10.5666 7.78359 11.7C8.35026 12.8333 9.12526 13.7916 10.1086 14.575C9.68996 14.7706 9.24939 14.9153 8.78689 15.0092C8.32439 15.103 7.83996 15.15 7.33359 15.15Z"/>
</svg>
