<svg width="12" height="12" viewBox="0 0 12 12" fill="none" xmlns="http://www.w3.org/2000/svg">
<path d="M3.25 11V7.5"  stroke-miterlimit="10" stroke-linecap="round" stroke-linejoin="round"/>
<path d="M3.25 2.5V1"  stroke-miterlimit="10" stroke-linecap="round" stroke-linejoin="round"/>
<path d="M8.75 11V9.5"  stroke-miterlimit="10" stroke-linecap="round" stroke-linejoin="round"/>
<path d="M8.75 4.5V1"  stroke-miterlimit="10" stroke-linecap="round" stroke-linejoin="round"/>
<path d="M4.75 3.5V6.5C4.75 7.05 4.5 7.5 3.75 7.5H2.75C2 7.5 1.75 7.05 1.75 6.5V3.5C1.75 2.95 2 2.5 2.75 2.5H3.75C4.5 2.5 4.75 2.95 4.75 3.5Z"  stroke-miterlimit="10" stroke-linecap="round" stroke-linejoin="round"/>
<path d="M10.25 5.5V8.5C10.25 9.05 10 9.5 9.25 9.5H8.25C7.5 9.5 7.25 9.05 7.25 8.5V5.5C7.25 4.95 7.5 4.5 8.25 4.5H9.25C10 4.5 10.25 4.95 10.25 5.5Z"  stroke-miterlimit="10" stroke-linecap="round" stroke-linejoin="round"/>
</svg>
