<svg width="23" height="21" viewBox="0 0 23 21" fill="none" xmlns="http://www.w3.org/2000/svg">
<path d="M19.3246 6.64995V4.49995H17.1746V2.99995H19.3246V0.824951H20.8246V2.99995H22.9996V4.49995H20.8246V6.64995H19.3246ZM2.34961 21C1.94961 21 1.59961 20.8499 1.29961 20.5499C0.999609 20.25 0.849609 19.9 0.849609 19.5V6.67495C0.849609 6.29162 0.999609 5.94578 1.29961 5.63745C1.59961 5.32912 1.94961 5.17495 2.34961 5.17495H6.02461L7.84961 2.99995H14.8496V4.49995H8.54961L6.72461 6.67495H2.34961V19.5H19.3496V8.99995H20.8496V19.5C20.8496 19.9 20.6954 20.25 20.3871 20.5499C20.0788 20.8499 19.7329 21 19.3496 21H2.34961ZM10.8496 17.35C12.0496 17.35 13.0579 16.9416 13.8746 16.125C14.6913 15.3083 15.0996 14.2916 15.0996 13.075C15.0996 11.875 14.6913 10.8708 13.8746 10.0625C13.0579 9.25412 12.0496 8.84995 10.8496 8.84995C9.63294 8.84995 8.62044 9.25412 7.81211 10.0625C7.00378 10.8708 6.59961 11.875 6.59961 13.075C6.59961 14.2916 7.00378 15.3083 7.81211 16.125C8.62044 16.9416 9.63294 17.35 10.8496 17.35ZM10.8496 15.85C10.0496 15.85 9.39128 15.5875 8.87461 15.0625C8.35794 14.5375 8.09961 13.875 8.09961 13.075C8.09961 12.2916 8.35794 11.6416 8.87461 11.125C9.39128 10.6083 10.0496 10.35 10.8496 10.35C11.6329 10.35 12.2871 10.6083 12.8121 11.125C13.3371 11.6416 13.5996 12.2916 13.5996 13.075C13.5996 13.875 13.3371 14.5375 12.8121 15.0625C12.2871 15.5875 11.6329 15.85 10.8496 15.85Z" fill="#71748C"/>
</svg>
