<svg width="20" height="18" viewBox="0 0 20 18" fill="none" xmlns="http://www.w3.org/2000/svg">
<path d="M16.1048 5.37504V3.58337H14.3131V2.33337H16.1048V0.520874H17.3548V2.33337H19.1673V3.58337H17.3548V5.37504H16.1048ZM1.95898 17.3334C1.62565 17.3334 1.33398 17.2084 1.08398 16.9584C0.833984 16.7084 0.708984 16.4167 0.708984 16.0834V5.39587C0.708984 5.07643 0.833984 4.78824 1.08398 4.53129C1.33398 4.27435 1.62565 4.14587 1.95898 4.14587H5.02148L6.54232 2.33337H12.3757V3.58337H7.12565L5.60482 5.39587H1.95898V16.0834H16.1257V7.33337H17.3757V16.0834C17.3757 16.4167 17.2472 16.7084 16.9902 16.9584C16.7333 17.2084 16.4451 17.3334 16.1257 17.3334H1.95898ZM9.04232 14.2917C10.0423 14.2917 10.8826 13.9514 11.5632 13.2709C12.2437 12.5903 12.584 11.7431 12.584 10.7292C12.584 9.72921 12.2437 8.8924 11.5632 8.21879C10.8826 7.54518 10.0423 7.20837 9.04232 7.20837C8.02843 7.20837 7.18468 7.54518 6.51107 8.21879C5.83746 8.8924 5.50065 9.72921 5.50065 10.7292C5.50065 11.7431 5.83746 12.5903 6.51107 13.2709C7.18468 13.9514 8.02843 14.2917 9.04232 14.2917ZM9.04232 13.0417C8.37565 13.0417 7.82704 12.823 7.39648 12.3855C6.96593 11.948 6.75065 11.3959 6.75065 10.7292C6.75065 10.0764 6.96593 9.53476 7.39648 9.10421C7.82704 8.67365 8.37565 8.45837 9.04232 8.45837C9.6951 8.45837 10.2402 8.67365 10.6777 9.10421C11.1152 9.53476 11.334 10.0764 11.334 10.7292C11.334 11.3959 11.1152 11.948 10.6777 12.3855C10.2402 12.823 9.6951 13.0417 9.04232 13.0417Z" />
</svg>
