<svg width="106" height="124" viewBox="0 0 106 124" fill="none" xmlns="http://www.w3.org/2000/svg">
<rect x="0.162109" y="48.7578" width="28.952" height="5.93886" fill="#71748C"/>
<rect x="0.162109" y="0.789062" width="28.952" height="28" fill="#EEEEF1"/>
<path d="M0.162109 35.3906H29.1141V36.8753H0.162109V35.3906Z" fill="#E3E3E8"/>
<path d="M0.162109 39.1024H29.1141V40.5871H0.162109V39.1024Z" fill="#E3E3E8"/>
<path d="M0.162109 42.8142H17.8157V44.2989H0.162109V42.8142Z" fill="#E3E3E8"/>
<rect x="0.162109" y="117.789" width="28.952" height="5.93886" fill="#71748C"/>
<rect x="0.162109" y="69.8203" width="28.952" height="28.95" fill="#EEEEF1"/>
<path d="M0.162109 104.422H29.1141V105.907H0.162109V104.422Z" fill="#E3E3E8"/>
<path d="M0.162109 108.134H29.1141V109.618H0.162109V108.134Z" fill="#E3E3E8"/>
<path d="M0.162109 111.845H17.8157V113.33H0.162109V111.845Z" fill="#E3E3E8"/>
<rect x="38.7646" y="48.7578" width="28.952" height="5.93886" fill="#71748C"/>
<rect x="38.7646" y="0.789062" width="28.952" height="28.95" fill="#EEEEF1"/>
<path d="M38.7646 35.3906H67.7166V36.8753H38.7646V35.3906Z" fill="#E3E3E8"/>
<path d="M38.7646 39.1024H67.7166V40.5871H38.7646V39.1024Z" fill="#E3E3E8"/>
<path d="M38.7646 42.8142H56.4183V44.2989H38.7646V42.8142Z" fill="#E3E3E8"/>
<rect x="38.7646" y="117.789" width="28.952" height="5.93886" fill="#71748C"/>
<rect x="38.7646" y="69.8203" width="28.952" height="28.95" fill="#EEEEF1"/>
<path d="M38.7646 104.422H67.7166V105.907H38.7646V104.422Z" fill="#E3E3E8"/>
<path d="M38.7646 108.134H67.7166V109.618H38.7646V108.134Z" fill="#E3E3E8"/>
<path d="M38.7646 111.845H56.4183V113.33H38.7646V111.845Z" fill="#E3E3E8"/>
<rect x="76.625" y="48.7578" width="28.2096" height="5.93886" fill="#71748C"/>
<rect x="76.625" y="0.789062" width="28.952" height="28.95" fill="#EEEEF1"/>
<path d="M76.625 35.3906H105.577V36.8753H76.625V35.3906Z" fill="#E3E3E8"/>
<path d="M76.625 39.1024H105.577V40.5871H76.625V39.1024Z" fill="#E3E3E8"/>
<path d="M76.625 42.8142H94.2786V44.2989H76.625V42.8142Z" fill="#E3E3E8"/>
<rect x="76.625" y="117.789" width="28.2096" height="5.93886" fill="#71748C"/>
<rect x="76.625" y="69.8203" width="28.952" height="28.95" fill="#EEEEF1"/>
<path d="M76.625 104.422H105.577V105.907H76.625V104.422Z" fill="#E3E3E8"/>
<path d="M76.625 108.134H105.577V109.618H76.625V108.134Z" fill="#E3E3E8"/>
<path d="M76.625 111.845H94.2786V113.33H76.625V111.845Z" fill="#E3E3E8"/>
</svg>
