<svg width="103" height="126" viewBox="0 0 103 126" fill="none" xmlns="http://www.w3.org/2000/svg">
<rect y="0.789062" width="45.2838" height="34.1485" fill="#EEEEF1"/>
<rect x="57.2842" y="14.1562" width="30.4367" height="5.93886" fill="#71748C"/>
<path d="M57.2842 0.789062H102.568V2.27378H57.2842V0.789062Z" fill="#E3E3E8"/>
<path d="M57.2842 4.50085H102.568V5.98557H57.2842V4.50085Z" fill="#E3E3E8"/>
<path d="M57.2842 8.21264H84.8963V9.69736H57.2842V8.21264Z" fill="#E3E3E8"/>
<rect y="46" width="45.2838" height="34.1485" fill="#EEEEF1"/>
<rect x="57.2842" y="59.3672" width="30.4367" height="5.93886" fill="#71748C"/>
<path d="M57.2842 46H102.568V47.4847H57.2842V46Z" fill="#E3E3E8"/>
<path d="M57.2842 49.7118H102.568V51.1965H57.2842V49.7118Z" fill="#E3E3E8"/>
<path d="M57.2842 53.4236H84.8963V54.9083H57.2842V53.4236Z" fill="#E3E3E8"/>
<rect y="91" width="45.2838" height="34.1485" fill="#EEEEF1"/>
<rect x="57.2842" y="104.367" width="30.4367" height="5.93886" fill="#71748C"/>
<path d="M57.2842 91H102.568V92.4847H57.2842V91Z" fill="#E3E3E8"/>
<path d="M57.2842 94.7118H102.568V96.1965H57.2842V94.7118Z" fill="#E3E3E8"/>
<path d="M57.2842 98.4236H84.8963V99.9083H57.2842V98.4236Z" fill="#E3E3E8"/>
</svg>
