<svg width="12" height="12" viewBox="0 0 12 12" fill="none" xmlns="http://www.w3.org/2000/svg">
<path d="M5.64133 1.72654C5.75657 1.49307 5.81419 1.37633 5.89241 1.33903C5.96047 1.30658 6.03954 1.30658 6.1076 1.33903C6.18583 1.37633 6.24345 1.49307 6.35869 1.72654L7.45203 3.94152C7.48605 4.01045 7.50306 4.04491 7.52792 4.07167C7.54994 4.09536 7.57633 4.11455 7.60566 4.12819C7.63878 4.14359 7.6768 4.14915 7.75286 4.16026L10.1985 4.51773C10.456 4.55537 10.5848 4.57419 10.6444 4.6371C10.6962 4.69182 10.7206 4.76703 10.7108 4.84177C10.6994 4.92767 10.6062 5.01847 10.4197 5.20007L8.65072 6.92309C8.59558 6.9768 8.56801 7.00365 8.55021 7.03561C8.53446 7.0639 8.52435 7.09498 8.52046 7.12713C8.51605 7.16344 8.52256 7.20138 8.53557 7.27725L8.95298 9.71094C8.997 9.96762 9.01902 10.096 8.97765 10.1721C8.94166 10.2384 8.87768 10.2849 8.80353 10.2986C8.71831 10.3144 8.60306 10.2538 8.37256 10.1326L6.18619 8.98279C6.11807 8.94697 6.08401 8.92906 6.04812 8.92202C6.01635 8.91579 5.98367 8.91579 5.9519 8.92202C5.91601 8.92906 5.88195 8.94697 5.81383 8.98279L3.62746 10.1326C3.39696 10.2538 3.28171 10.3144 3.19649 10.2986C3.12234 10.2849 3.05836 10.2384 3.02237 10.1721C2.981 10.096 3.00301 9.96762 3.04704 9.71094L3.46444 7.27725C3.47746 7.20138 3.48396 7.16344 3.47956 7.12713C3.47566 7.09498 3.46556 7.0639 3.4498 7.03561C3.43201 7.00365 3.40444 6.9768 3.34929 6.92309L1.58028 5.20007C1.39383 5.01847 1.30061 4.92767 1.28926 4.84177C1.27939 4.76703 1.30378 4.69182 1.35563 4.6371C1.41522 4.57419 1.54399 4.55537 1.80152 4.51773L4.24716 4.16026C4.32321 4.14915 4.36124 4.14359 4.39436 4.12819C4.42368 4.11455 4.45008 4.09536 4.47209 4.07167C4.49695 4.04491 4.51396 4.01045 4.54799 3.94152L5.64133 1.72654Z" fill="#5466F9" stroke="#5466F9" stroke-width="1.4" stroke-linecap="round" stroke-linejoin="round"/>
</svg>
