<svg width="17" height="12" viewBox="0 0 17 12" fill="none" xmlns="http://www.w3.org/2000/svg">
<g clip-path="url(#clip0_5001_106135)">
<path d="M1.86523 11.3332C1.59023 11.3332 1.35482 11.2353 1.15898 11.0394C0.963151 10.8436 0.865234 10.6082 0.865234 10.3332V2.6665H1.86523V10.3332H13.5319V11.3332H1.86523ZM3.86523 9.33317C3.59023 9.33317 3.35482 9.23525 3.15898 9.03942C2.96315 8.84359 2.86523 8.60817 2.86523 8.33317V1.6665C2.86523 1.3915 2.96315 1.15609 3.15898 0.960254C3.35482 0.764421 3.59023 0.666504 3.86523 0.666504H14.5319C14.8069 0.666504 15.0423 0.764421 15.2382 0.960254C15.434 1.15609 15.5319 1.3915 15.5319 1.6665V8.33317C15.5319 8.60817 15.434 8.84359 15.2382 9.03942C15.0423 9.23525 14.8069 9.33317 14.5319 9.33317H3.86523ZM5.5319 8.33317C5.5319 7.8665 5.37079 7.47206 5.04857 7.14984C4.72635 6.82762 4.3319 6.6665 3.86523 6.6665V8.33317H5.5319ZM12.8652 8.33317H14.5319V6.6665C14.0652 6.6665 13.6708 6.82762 13.3486 7.14984C13.0263 7.47206 12.8652 7.8665 12.8652 8.33317ZM9.19857 6.99984C9.75412 6.99984 10.2263 6.80539 10.6152 6.4165C11.0041 6.02762 11.1986 5.55539 11.1986 4.99984C11.1986 4.44428 11.0041 3.97206 10.6152 3.58317C10.2263 3.19428 9.75412 2.99984 9.19857 2.99984C8.64301 2.99984 8.17079 3.19428 7.7819 3.58317C7.39301 3.97206 7.19857 4.44428 7.19857 4.99984C7.19857 5.55539 7.39301 6.02762 7.7819 6.4165C8.17079 6.80539 8.64301 6.99984 9.19857 6.99984ZM3.86523 3.33317C4.3319 3.33317 4.72635 3.17206 5.04857 2.84984C5.37079 2.52762 5.5319 2.13317 5.5319 1.6665H3.86523V3.33317ZM14.5319 3.33317V1.6665H12.8652C12.8652 2.13317 13.0263 2.52762 13.3486 2.84984C13.6708 3.17206 14.0652 3.33317 14.5319 3.33317Z" fill="#41415A"/>
</g>
<defs>
<clipPath id="clip0_5001_106135">
<rect width="16" height="12" fill="white" transform="translate(0.199219)"/>
</clipPath>
</defs>
</svg>
