<svg width="54" height="52" viewBox="0 0 54 52" fill="none" xmlns="http://www.w3.org/2000/svg">
<rect x="4.83203" y="0.75" width="44.4" height="50.5" rx="2.25" fill="#FAFAFA" stroke="#DBDBDB" stroke-width="0.5" stroke-linecap="round" stroke-linejoin="round"/>
<rect x="0.349609" y="3.12012" width="46.3" height="12" rx="1.24875" fill="#FDFDFD"/>
<circle cx="6.34295" cy="9.12029" r="3.49529" fill="white" stroke="#DBDBDB" stroke-width="0.5"/>
<rect x="11.3359" y="6.87305" width="22.4711" height="1.79711" rx="0.898557" fill="white" stroke="#DBDBDB" stroke-width="0.5"/>
<rect x="11.3359" y="10.1689" width="32.7582" height="1.19787" rx="0.598933" fill="white" stroke="#DBDBDB" stroke-width="0.5"/>
<rect x="0.349609" y="3.12012" width="46.3" height="12" rx="1.24875" stroke="#DBDBDB" stroke-width="0.5"/>
<rect x="0.349609" y="36.1201" width="46.3" height="12" rx="1.24875" fill="#FDFDFD"/>
<circle cx="6.34295" cy="42.1203" r="3.49529" fill="white" stroke="#DBDBDB" stroke-width="0.5"/>
<rect x="11.3359" y="39.873" width="22.4711" height="1.79711" rx="0.898557" fill="white" stroke="#DBDBDB" stroke-width="0.5"/>
<rect x="11.3359" y="43.1689" width="32.7582" height="1.19787" rx="0.598933" fill="white" stroke="#DBDBDB" stroke-width="0.5"/>
<rect x="0.349609" y="36.1201" width="46.3" height="12" rx="1.24875" stroke="#DBDBDB" stroke-width="0.5"/>
<rect x="7.34961" y="20.1201" width="46.3" height="12" rx="1.24875" fill="#FDFDFD"/>
<circle cx="13.343" cy="26.1203" r="3.49529" fill="white" stroke="#DBDBDB" stroke-width="0.5"/>
<rect x="18.3359" y="23.873" width="22.4711" height="1.79711" rx="0.898557" fill="white" stroke="#DBDBDB" stroke-width="0.5"/>
<rect x="18.3359" y="27.1689" width="32.7582" height="1.19787" rx="0.598933" fill="white" stroke="#DBDBDB" stroke-width="0.5"/>
<rect x="7.34961" y="20.1201" width="46.3" height="12" rx="1.24875" stroke="#DBDBDB" stroke-width="0.5"/>
</svg>
