<svg width="4" height="16" viewBox="0 0 4 16" fill="none" xmlns="http://www.w3.org/2000/svg">
<path d="M2.83268 7.99984C2.83268 7.5396 2.45959 7.1665 1.99935 7.1665C1.53911 7.1665 1.16602 7.5396 1.16602 7.99984C1.16602 8.46007 1.53911 8.83317 1.99935 8.83317C2.45959 8.83317 2.83268 8.46007 2.83268 7.99984Z" stroke="#41415A" stroke-width="2" stroke-linecap="round" stroke-linejoin="round"/>
<path d="M2.83268 2.1665C2.83268 1.70627 2.45959 1.33317 1.99935 1.33317C1.53911 1.33317 1.16602 1.70627 1.16602 2.1665C1.16602 2.62674 1.53911 2.99984 1.99935 2.99984C2.45959 2.99984 2.83268 2.62674 2.83268 2.1665Z" stroke="#41415A" stroke-width="2" stroke-linecap="round" stroke-linejoin="round"/>
<path d="M2.83268 13.8332C2.83268 13.3729 2.45959 12.9998 1.99935 12.9998C1.53911 12.9998 1.16602 13.3729 1.16602 13.8332C1.16602 14.2934 1.53911 14.6665 1.99935 14.6665C2.45959 14.6665 2.83268 14.2934 2.83268 13.8332Z" stroke="#41415A" stroke-width="2" stroke-linecap="round" stroke-linejoin="round"/>
</svg>
