<svg
  width="16"
  height="16"
  viewBox="0 0 16 16"
  fill="none"
  xmlns="http://www.w3.org/2000/svg"
  className=" ease-in-out text-current stroke-current"
>
  <path
    d="M8.6727 1.94687L12.606 3.69354C13.7394 4.19354 13.7394 5.02021 12.606 5.52021L8.6727 7.26687C8.22603 7.46687 7.4927 7.46687 7.04603 7.26687L3.1127 5.52021C1.97936 5.02021 1.97936 4.19354 3.1127 3.69354L7.04603 1.94687C7.4927 1.74688 8.22603 1.74688 8.6727 1.94687Z"
    stroke-linecap="round"
    stroke-linejoin="round"
  />
  <path
    d="M2 7.33398C2 7.89398 2.42 8.54065 2.93333 8.76732L7.46 10.7807C7.80667 10.934 8.2 10.934 8.54 10.7807L13.0667 8.76732C13.58 8.54065 14 7.89398 14 7.33398"
    stroke-linecap="round"
    stroke-linejoin="round"
  />
  <path
    d="M2 10.666C2 11.286 2.36667 11.846 2.93333 12.0993L7.46 14.1127C7.80667 14.266 8.2 14.266 8.54 14.1127L13.0667 12.0993C13.6333 11.846 14 11.286 14 10.666"
    stroke-linecap="round"
    stroke-linejoin="round"
  />
</svg>
