 <svg
        width="16"
        className="max-w-none"
        height="17"
        viewBox="0 0 16 17"
        fill="none"
        xmlns="http://www.w3.org/2000/svg"
      >
        <path
          d="M5.33338 15.1667H10.6667C13.3467 15.1667 13.8267 14.0933 13.9667 12.7867L14.4667 7.45333C14.6467 5.82667 14.18 4.5 11.3334 4.5H4.66671C1.82005 4.5 1.35338 5.82667 1.53338 7.45333L2.03338 12.7867C2.17338 14.0933 2.65338 15.1667 5.33338 15.1667Z"

          stroke-miterlimit="10"
          stroke-linecap="round"
          stroke-linejoin="round"
        />
        <path
          d="M5.33334 4.50065V3.96732C5.33334 2.78732 5.33334 1.83398 7.46668 1.83398H8.53334C10.6667 1.83398 10.6667 2.78732 10.6667 3.96732V4.50065"

          stroke-miterlimit="10"
          stroke-linecap="round"
          stroke-linejoin="round"
        />
        <path
          d="M9.33332 9.16667V9.83333C9.33332 9.84 9.33332 9.84 9.33332 9.84667C9.33332 10.5733 9.32666 11.1667 7.99999 11.1667C6.67999 11.1667 6.66666 10.58 6.66666 9.85333V9.16667C6.66666 8.5 6.66666 8.5 7.33332 8.5H8.66666C9.33332 8.5 9.33332 8.5 9.33332 9.16667Z"

          stroke-miterlimit="10"
          stroke-linecap="round"
          stroke-linejoin="round"
        />
        <path
          d="M14.4333 7.83398C12.8933 8.95398 11.1333 9.62065 9.33334 9.84732"

          stroke-miterlimit="10"
          stroke-linecap="round"
          stroke-linejoin="round"
        />
        <path
          d="M1.74661 8.01367C3.24661 9.04034 4.93995 9.66034 6.66661 9.85367"

          stroke-miterlimit="10"
          stroke-linecap="round"
          stroke-linejoin="round"
        />
      </svg>
