<svg
        width="16"
        height="17"
        viewBox="0 0 16 17"
        fill="none"
        xmlns="http://www.w3.org/2000/svg"
      >
        <path
          d="M6.10671 7.74732C6.04004 7.74065 5.96004 7.74065 5.88671 7.74732C4.30004 7.69398 3.04004 6.39398 3.04004 4.79398C3.04004 3.16065 4.36004 1.83398 6.00004 1.83398C7.63337 1.83398 8.96004 3.16065 8.96004 4.79398C8.95337 6.39398 7.69337 7.69398 6.10671 7.74732Z"
          stroke-linecap="round"
          stroke-linejoin="round"
        />
        <path
          d="M10.9397 3.16602C12.233 3.16602 13.273 4.21268 13.273 5.49935C13.273 6.75935 12.273 7.78602 11.0264 7.83268C10.973 7.82602 10.913 7.82602 10.853 7.83268"
          stroke-linecap="round"
          stroke-linejoin="round"
        />
        <path
          d="M2.77348 10.206C1.16014 11.286 1.16014 13.046 2.77348 14.1193C4.60681 15.346 7.61348 15.346 9.44681 14.1193C11.0601 13.0393 11.0601 11.2793 9.44681 10.206C7.62014 8.98602 4.61348 8.98602 2.77348 10.206Z"
          stroke-linecap="round"
          stroke-linejoin="round"
        />
        <path
          d="M12.2266 13.834C12.7066 13.734 13.1599 13.5407 13.5332 13.254C14.5732 12.474 14.5732 11.1873 13.5332 10.4073C13.1666 10.1273 12.7199 9.94065 12.2466 9.83398"
          stroke-linecap="round"
          stroke-linejoin="round"
        />
      </svg>
