<svg width="16" height="17" viewBox="0 0 16 17" fill="none" xmlns="http://www.w3.org/2000/svg">
<path d="M7.16707 11.7402V13.0936C7.16707 14.2403 6.1004 15.1669 4.78707 15.1669C3.47374 15.1669 2.40039 14.2403 2.40039 13.0936V11.7402C2.40039 12.8869 3.46707 13.7002 4.78707 13.7002C6.1004 13.7002 7.16707 12.8802 7.16707 11.7402Z" stroke-linecap="round" stroke-linejoin="round"/>
<path d="M7.16589 9.90649C7.16589 10.2398 7.07256 10.5465 6.91256 10.8132C6.51922 11.4598 5.71255 11.8665 4.77922 11.8665C3.84588 11.8665 3.03921 11.4532 2.64587 10.8132C2.48587 10.5465 2.39258 10.2398 2.39258 9.90649C2.39258 9.33316 2.65923 8.81983 3.0859 8.44649C3.51923 8.06649 4.11254 7.83984 4.77254 7.83984C5.43254 7.83984 6.0259 8.07316 6.45923 8.44649C6.89923 8.81316 7.16589 9.33316 7.16589 9.90649Z" stroke-linecap="round" stroke-linejoin="round"/>
<path d="M7.16707 9.90731V11.7406C7.16707 12.8873 6.1004 13.7006 4.78707 13.7006C3.47374 13.7006 2.40039 12.8806 2.40039 11.7406V9.90731C2.40039 8.76064 3.46707 7.83398 4.78707 7.83398C5.44707 7.83398 6.04042 8.0673 6.47376 8.44063C6.90042 8.81397 7.16707 9.33397 7.16707 9.90731Z" stroke-linecap="round" stroke-linejoin="round"/>
<path d="M14.6675 7.81278V9.18616C14.6675 9.55282 14.3741 9.8528 14.0008 9.86613H12.6941C11.9741 9.86613 11.3141 9.33947 11.2541 8.61947C11.2141 8.19947 11.3741 7.80613 11.6541 7.5328C11.9008 7.27946 12.2408 7.13281 12.6141 7.13281H14.0008C14.3741 7.14615 14.6675 7.44612 14.6675 7.81278Z" stroke-linecap="round" stroke-linejoin="round"/>
<path d="M1.33398 7.50065V6.16732C1.33398 4.35398 2.42732 3.08732 4.12732 2.87398C4.30065 2.84732 4.48065 2.83398 4.66732 2.83398H10.6673C10.8407 2.83398 11.0073 2.84064 11.1673 2.86731C12.8873 3.06731 14.0007 4.34065 14.0007 6.16732V7.13399H12.614C12.2406 7.13399 11.9006 7.28064 11.654 7.53398C11.374 7.80731 11.214 8.20065 11.254 8.62065C11.314 9.34065 11.974 9.86731 12.694 9.86731H14.0007V10.834C14.0007 12.834 12.6673 14.1673 10.6673 14.1673H9.00065" stroke-linecap="round" stroke-linejoin="round"/>
</svg>
