<svg
  width="16"
  className="max-w-none"
  height="17"
  viewBox="0 0 16 17"
  fill="none"
  xmlns="http://www.w3.org/2000/svg"
>
  <path
    d="M14.6667 4.83398H10.6667"
    stroke-miterlimit="10"
    stroke-linecap="round"
    stroke-linejoin="round"
  />
  <path
    d="M4.00001 4.83398H1.33334"
    stroke-miterlimit="10"
    stroke-linecap="round"
    stroke-linejoin="round"
  />
  <path
    d="M6.66668 7.16667C7.95534 7.16667 9.00001 6.122 9.00001 4.83333C9.00001 3.54467 7.95534 2.5 6.66668 2.5C5.37801 2.5 4.33334 3.54467 4.33334 4.83333C4.33334 6.122 5.37801 7.16667 6.66668 7.16667Z"
    stroke-miterlimit="10"
    stroke-linecap="round"
    stroke-linejoin="round"
  />
  <path
    d="M14.6667 12.166H12"
    stroke-miterlimit="10"
    stroke-linecap="round"
    stroke-linejoin="round"
  />
  <path
    d="M5.33334 12.166H1.33334"
    stroke-miterlimit="10"
    stroke-linecap="round"
    stroke-linejoin="round"
  />
  <path
    d="M9.33333 14.5007C10.622 14.5007 11.6667 13.456 11.6667 12.1673C11.6667 10.8787 10.622 9.83398 9.33333 9.83398C8.04467 9.83398 7 10.8787 7 12.1673C7 13.456 8.04467 14.5007 9.33333 14.5007Z"
    stroke-miterlimit="10"
    stroke-linecap="round"
    stroke-linejoin="round"
  />
</svg>
