<svg width="16" height="17" viewBox="0 0 16 17" fill="none" xmlns="http://www.w3.org/2000/svg">
<path d="M8 4.20703H14.6667" stroke-miterlimit="10" stroke-linecap="round" stroke-linejoin="round"/>
<path d="M9.48 1.83398H13.1867C14.3733 1.83398 14.6667 2.12732 14.6667 3.30065V6.04065C14.6667 7.21399 14.3733 7.50732 13.1867 7.50732H9.48C8.29333 7.50732 8 7.21399 8 6.04065V3.30065C8 2.12732 8.29333 1.83398 9.48 1.83398Z" stroke-linecap="round" stroke-linejoin="round"/>
<path d="M1.33398 11.873H8.00065" stroke-miterlimit="10" stroke-linecap="round" stroke-linejoin="round"/>
<path d="M2.81399 9.5H6.52065C7.70732 9.5 8.00065 9.79333 8.00065 10.9667V13.7067C8.00065 14.88 7.70732 15.1733 6.52065 15.1733H2.81399C1.62732 15.1733 1.33398 14.88 1.33398 13.7067V10.9667C1.33398 9.79333 1.62732 9.5 2.81399 9.5Z" stroke-linecap="round" stroke-linejoin="round"/>
<path d="M14.6647 10.498C14.6647 13.078 12.578 15.1647 9.99805 15.1647L10.698 13.998" stroke-linecap="round" stroke-linejoin="round"/>
<path d="M1.33203 6.4987C1.33203 3.9187 3.4187 1.83203 5.9987 1.83203L5.29871 2.9987" stroke-linecap="round" stroke-linejoin="round"/>
</svg>
